<?xml version="1.0" encoding="utf-8"?>
<!-- Generator: Adobe Illustrator 16.0.0, SVG Export Plug-In . SVG Version: 6.00 Build 0)  -->
<!DOCTYPE svg PUBLIC "-//W3C//DTD SVG 1.1//EN" "http://www.w3.org/Graphics/SVG/1.1/DTD/svg11.dtd">
<svg version="1.1" xmlns="http://www.w3.org/2000/svg" xmlns:xlink="http://www.w3.org/1999/xlink" x="0px" y="0px" width="60px"
	 height="60px" viewBox="0 0 60 60" enable-background="new 0 0 60 60" xml:space="preserve">
<g id="Layer_6">
	<rect x="-25" y="-8.5" display="none" fill="#AAAAAA" width="129.2" height="90.5"/>
</g>
<g id="Diesel" display="none">
	<g display="inline">
		<path fill="#505356" d="M25,31.9h-1.7v7.2H25c3.2,0,3.9-1,3.9-3.6S28.4,31.9,25,31.9z"/>
		<path fill="#505356" d="M49.3,39.4c-0.4-1.7-1.3-2.8-2.2-3.7c-1.2-1.3-2.3-2.6-2.3-6V19.1l0-0.1c0-0.3,0.1-2.2-4.7-5
			c-1.3-0.8-2.3-1.1-3-1.5c0-1.5-1.2-2.7-2.7-2.7H17.1c-1.5,0-2.7,1.2-2.7,2.7v33.9h-0.1c-1.5,0-2.7,1.2-2.7,2.7v1.7h28.2v-1.7
			c0-1.5-1.2-2.7-2.7-2.7h-0.1V29.1c0.3,0,0.5,0.1,0.7,0.1v10.8c0,0.5-0.1,2.4,1.2,3.9c1,1.1,2.4,1.7,4.3,1.7c2.7,0,4.5-0.6,5.4-1.8
			C49.8,42.5,49.6,40.7,49.3,39.4z M24.9,41.4h-4.2V29.6h4.3c4.7,0,6.6,1.2,6.6,5.9C31.6,40.1,29.6,41.4,24.9,41.4z M32.9,20.6
			c0,1.1-0.9,2-2,2H20.7c-1.1,0-2-0.9-2-2v-3c0-1.1,0.9-2,2-2h10.2c1.1,0,2,0.9,2,2V20.6z M46.7,42.2c-0.2,0.3-1,0.8-3.4,0.8
			c-1.1,0-1.9-0.3-2.3-0.8c-0.7-0.8-0.6-1.9-0.6-1.9l0-11.2c0-0.7-0.3-1.4-0.8-1.8c-0.7-0.6-1.7-0.8-2.5-0.8v-11
			c0.5,0.3,1.1,0.6,1.9,0.9c2.7,1.3,3.2,2.7,3.2,2.8v10.4c0,4.4,1.7,6.3,3,7.8c0.7,0.8,1.3,1.5,1.6,2.5C47,41.1,47,41.9,46.7,42.2z"
			/>
	</g>
</g>
<g id="Push_x5F_Start" display="none">
	<path display="inline" fill="none" stroke="#505356" stroke-width="2" stroke-miterlimit="10" d="M18.6,23.5
		c-2.7-1.8-4.5-4.8-4.5-8.3c0-5.5,4.4-9.9,9.9-9.9s9.9,4.4,9.9,9.9c0,3.1-1.4,5.9-3.7,7.7"/>
	<g display="inline">
		<g>
			<g>
				<defs>
					<rect id="SVGID_1_" x="16.5" y="11.9" width="27.6" height="42.8"/>
				</defs>
				<clipPath id="SVGID_2_">
					<use xlink:href="#SVGID_1_"  overflow="visible"/>
				</clipPath>
				<path clip-path="url(#SVGID_2_)" fill="#505356" d="M41.1,54.2c0.2-0.5,0.3-1,0.4-1.3c2.6-6.4,2.3-13.1,2.2-15.3
					c-0.1-1.5-0.2-2.7-1-3.7c-1.2-1.4-3-1.9-3.8-2c-0.5-1.3-1.3-2.1-2.3-2.5c-0.4-0.1-0.8-0.2-1.3-0.2c-0.8,0-1.4,0.2-1.9,0.4
					c-0.6-1.1-1.4-1.8-2.4-2c-0.3-0.1-0.6-0.1-0.9-0.1c-0.9,0-1.8,0.4-2.4,0.7c-0.2-1-0.7-9.2-1-13.8c-0.1-1.4-1.3-2.6-2.8-2.6
					s-2.8,1.3-2.8,2.8c0,9.8-0.3,19.4-0.4,20.9c-0.9,0.4-2.6,1-3.3,2c-1.7,2.3-1,4.1-0.1,5.5c1.9,3.2,5.2,8.8,6.6,11.1h17.2V54.2z"
					/>
			</g>
		</g>
	</g>
	<path display="inline" fill="none" stroke="#505356" stroke-width="0.5" stroke-miterlimit="10" d="M19.7,18.5
		c-0.8-1-1.3-2.2-1.3-3.6c0-3.1,2.5-5.6,5.6-5.6s5.6,2.5,5.6,5.6c0,1.2-0.4,2.4-1.1,3.3"/>
</g>
<g id="AirBag" display="none">
	<g display="inline">
		<g id="XMLID_2_">
			<g>
				<path fill="#505356" d="M53.8,17.4c0.5,0.8,0.2,1.4-0.6,1.9c-2.2,1.4-4.4,2.8-6.5,4.2c-0.9,0.6-1.7,1.1-2.7,1.8
					c-0.1-0.9-0.3-1.6-0.3-2.2c0-0.3,0.3-0.7,0.5-0.9c2.6-1.7,5.1-3.3,7.7-4.9C52.7,16.7,53.3,16.6,53.8,17.4z"/>
				<path fill="#505356" d="M45.3,16.7c0,2.3-2,4.4-4.4,4.4c-2.3,0-4.3-2-4.3-4.3c0-2.3,1.9-4.3,4.3-4.3
					C43.3,12.4,45.3,14.4,45.3,16.7z"/>
				<path fill="#505356" d="M42.9,48.8c0.6,0.8,0.7,1.6-0.2,2.2c-0.8,0.6-1.6,0.5-2.3-0.5c-2.3-3.4-4.6-6.8-6.9-10.2
					c-1.5-2.2-3-4.4-4.4-6.7c-0.2-0.4-0.3-1.1-0.1-1.5c0.2-0.4,0.8-0.7,1.5-1.2c0.6,0.6,1.2,1,1.5,1.5c3,4.4,5.9,8.9,8.9,13.3
					C41.6,46.8,42.2,47.8,42.9,48.8z"/>
				<path fill="#505356" d="M43,24c0.1,1.5,0,3.1-0.2,4.6c-0.6,3.6-1.7,7-3.7,10c-0.3,0.4-0.6,0.7-1,1.3c-2-2.9-3.8-5.7-5.7-8.5
					c-0.1-0.2-0.1-0.6,0-0.8c1.3-2.6,2.7-5.1,4.9-7c0.8-0.7,1.9-1.2,2.9-1.5C41.8,21.6,42.9,22.3,43,24z"/>
				<path fill="#505356" d="M26,9.2c5.5,0,10.1,4.7,10,10.1c-0.1,5.5-4.7,10-10.2,10c-5.6-0.1-10-4.6-9.9-10.3
					C15.9,13.7,20.5,9.2,26,9.2z"/>
				<path fill="#505356" d="M33.1,41.2c0.1,0.1,0.1,0.2,0.2,0.7c-2.7-0.9-5.2-1.7-7.8-2.5c-1.1-0.4-2.3-0.8-3.4-1.2
					c-0.7-0.2-1.1-0.2-1.6,0.6c-2.2,3.8-4.4,7.5-6.6,11.2c-0.7,1.1-1.6,1.9-3,1.7c-1.3-0.2-2.3-0.9-2.5-2.2c-0.1-0.7,0-1.6,0.4-2.2
					c2.7-4.7,5.6-9.4,8.4-14.1c0.8-1.3,1.9-1.8,3.5-1.5c2.3,0.5,4.6,1.1,6.9,1.7c0.3,0.1,0.7,0.3,0.8,0.6
					C29.9,36.3,31.5,38.8,33.1,41.2z"/>
			</g>
			<g>
			</g>
		</g>
	</g>
</g>
<g id="Sat_x5F_Nav" display="none">
	<g display="inline">
		<path fill="none" stroke="#505356" stroke-width="3" stroke-miterlimit="10" d="M47,20.2h2.6c0.6,0,1.2,0.5,1.2,1.2v26
			c0,0.6-0.5,1.2-1.2,1.2H10.5c-0.6,0-1.2-0.5-1.2-1.2v-26c0-0.6,0.5-1.2,1.2-1.2h23.9"/>
		<path fill="none" stroke="#FFFFFF" stroke-width="3" stroke-miterlimit="10" d="M47.6,20.2"/>
		<path fill="none" stroke="#FFFFFF" stroke-width="3" stroke-miterlimit="10" d="M35.3,20.2"/>
	</g>
	<g display="inline">
		<path fill="#505356" d="M16.2,40.5c-1.1,0-1.9,0.9-1.9,1.9c0,1.1,0.9,1.9,1.9,1.9c1.1,0,1.9-0.9,1.9-1.9c0-0.4-0.1-0.7-0.3-1
			c1-0.7,2-1.6,2.4-2.7c0.6-1.6-1.3-4.6,0.5-5.7c1.5-0.9,3.9-0.1,5.1-1.3c0.3,0.2,0.6,0.2,0.9,0.2c0.1,0,0.2,0,0.3,0
			c0.1,0.3,0.2,0.6,0.2,0.9c0.1,0.7-0.1,1.5-0.1,2.2c0.1,0.8,0.4,1.5,1.2,1.8c1.1,0.4,4-0.4,4.7,0.7c-0.1,0.2-0.1,0.5-0.1,0.7
			c0,1.1,0.9,1.9,1.9,1.9s1.9-0.9,1.9-1.9c0-0.9-0.6-1.6-1.3-1.8c0-0.7,0-1.3,0.1-2c0.1-1.3,0.9-2,2-2.5c0.8-0.4,1.7-0.9,2.4-1.5
			c0.3,0.2,0.6,0.3,1,0.3c1.1,0,1.9-0.9,1.9-1.9c0-1.1-0.9-1.9-1.9-1.9s-1.9,0.9-1.9,1.9c0,0.4,0.1,0.7,0.3,1
			c-0.9,0.9-2.4,1.3-3.3,2.1c-1.5,1.3-1.1,2.9-1.3,4.5c-0.3,0.1-0.6,0.2-0.8,0.4c-0.8-0.9-2.6-0.7-3.9-0.7c-0.5,0-1.4,0-1.6-0.6
			c-0.2-0.8,0.1-1.6,0-2.4c0-0.5-0.1-1-0.3-1.5c0.4-0.4,0.7-0.9,0.7-1.5c0-1.1-0.9-1.9-1.9-1.9c-1.1,0-1.9,0.9-1.9,1.9
			c0,0.4,0.1,0.7,0.3,1c-1.2,1.2-4.2,0.1-5.4,1.7c-1.2,1.6-0.2,3.3-0.2,5c-0.1,1.3-1.2,2.2-2.3,3C16.8,40.6,16.5,40.5,16.2,40.5
			L16.2,40.5z M16.2,40.5"/>
	</g>
	<g display="inline">
		<path fill="#505356" d="M40.6,6c-3.3,0-5.9,2.7-5.9,5.9c0,0.9,0.2,1.7,0.5,2.5L40.6,25L46,14.4c0.3-0.8,0.5-1.6,0.5-2.5
			C46.6,8.7,43.9,6,40.6,6L40.6,6z M40.6,15.5c-2,0-3.6-1.6-3.6-3.6s1.6-3.6,3.6-3.6s3.6,1.6,3.6,3.6S42.6,15.5,40.6,15.5L40.6,15.5
			z"/>
	</g>
	<polygon display="inline" fill="#505356" points="36.4,21.7 33,21.7 33,18.7 34.4,18.7 	"/>
	<polygon display="inline" fill="#505356" points="44.9,21.7 48.3,21.7 48.3,18.7 46.9,18.7 	"/>
</g>
<g id="USB" display="none">
	<g display="inline">
		<path fill="#505356" d="M36.8,7.7H21.9v13.5h14.9V7.7z M27.2,16.8h-3.3v-3.3h3.3V16.8z M34.8,16.8h-3.3v-3.3h3.3V16.8z M34.8,16.8
			"/>
		<path fill="#505356" d="M40.3,22.8c-0.1,0.3-0.5,0.5-1.3,0.5H19.8c-0.8,0-1.3-0.3-1.3-0.6c-0.1,0.2-0.1,0.4-0.1,0.7v14.9
			c0,2.4,2,4.3,4.4,4.3H36c2.4,0,4.4-1.9,4.4-4.3V23.4C40.4,23.1,40.4,22.9,40.3,22.8L40.3,22.8z M32.5,29.4c-0.2,0-0.3,0-0.5,0
			c0,0,0,0,0,0v1.1c0,0.4-0.1,0.7-0.4,0.9c-0.1,0.2-0.3,0.3-0.5,0.4c-0.4,0.4-0.8,0.8-1.3,1.2c-0.1,0.1-0.2,0.3-0.2,0.4
			c0,0,0,0.1,0,0.1v2.7c0,0,0,0,0,0.1c0.5,0.1,0.9,0.6,1,1.1c0.1,0.7-0.4,1.3-1.1,1.4c-0.7,0.1-1.3-0.3-1.5-1
			c-0.1-0.7,0.3-1.3,1-1.5c0,0,0,0,0-0.1c0-0.3,0-0.5,0-0.8c0-0.2-0.1-0.3-0.2-0.5c0,0,0,0,0,0c-0.6-0.5-1.1-1.1-1.7-1.6
			c-0.3-0.3-0.4-0.6-0.4-1v-1.2c0,0,0,0,0-0.1c-0.3-0.1-0.5-0.5-0.5-0.8c0-0.4,0.3-0.6,0.7-0.7c0.5-0.1,0.9,0.3,0.9,0.8
			c0,0.3-0.2,0.5-0.5,0.7c0,0,0,0,0,0.1c0,0.4,0,0.8,0,1.2c0,0.2,0.1,0.4,0.2,0.5c0.5,0.5,1,1,1.5,1.4c0,0,0,0,0,0v-7.9h-0.6
			c0.3-0.5,0.6-1,0.9-1.5c0.3,0.5,0.6,1,0.9,1.5h-0.6c0,2,0,4,0,5.9c0,0,0,0,0,0c0.5-0.5,1.1-1,1.6-1.5c0.1-0.1,0.2-0.2,0.2-0.4
			c0,0,0-0.1,0-0.1v-1.2h-0.5v-1.5c0.5,0,1,0,1.5,0C32.5,28.4,32.5,28.9,32.5,29.4L32.5,29.4z M32.5,29.4"/>
		<path fill="#505356" d="M30.8,46.3h2.6c0.7,0,1.4-0.6,1.4-1.4v-1c0-0.1,0-0.1,0-0.2H24c0,0.1,0,0.1,0,0.2v1c0,0.7,0.6,1.4,1.4,1.4
			h2.7c0.1,0.7,0.4,2.2,1.7,3.8c2.1,2.5,5.7,3.8,10.7,3.8v-2.7C32.5,51.1,31.1,47.5,30.8,46.3L30.8,46.3z M30.8,46.3"/>
	</g>
</g>
<g id="Torque" display="none">
	<g display="inline">
		<path fill="#505356" d="M49.7,32H48c-0.4,0-1-0.4-1.1-0.9c-0.2-0.4-0.3-0.9-0.5-1.3c-0.2-0.5-0.1-1.1,0.2-1.4l1.2-1.2
			c0.8-0.8,0.8-2.1,0-3l-1.9-1.9c-0.4-0.4-0.9-0.6-1.5-0.6c-0.6,0-1.1,0.2-1.5,0.6l-1.2,1.2c-0.2,0.2-0.5,0.3-0.8,0.3
			c-0.2,0-0.4,0-0.6-0.1c-0.4-0.2-0.9-0.4-1.3-0.5c-0.5-0.2-0.9-0.7-0.9-1.1v-1.6c0-1.2-0.9-2.1-2.1-2.1h-2.7
			c-1.2,0-2.1,0.9-2.1,2.1v1.6c0,0.4-0.4,1-0.9,1.1c-0.4,0.2-0.9,0.3-1.3,0.5c-0.2,0.1-0.4,0.1-0.6,0.1c-0.3,0-0.6-0.1-0.8-0.3
			l-1.2-1.2c-0.4-0.4-0.9-0.6-1.5-0.6c-0.6,0-1.1,0.2-1.5,0.6l-1.9,1.9c-0.4,0.4-0.6,0.9-0.6,1.5c0,0.6,0.2,1.1,0.6,1.5l1.2,1.2
			c0.3,0.3,0.4,1,0.2,1.4c-0.2,0.4-0.4,0.9-0.5,1.3c-0.2,0.5-0.7,0.9-1.1,0.9h-1.6c-1.2,0-2.1,0.9-2.1,2.1v2.7
			c0,1.2,0.9,2.1,2.1,2.1h1.6c0.4,0,1,0.4,1.1,0.9c0.2,0.4,0.3,0.9,0.5,1.3c0.2,0.5,0.1,1.1-0.2,1.4l-1.2,1.2c-0.8,0.8-0.8,2.1,0,3
			l1.9,1.9c0.4,0.4,0.9,0.6,1.5,0.6c0.6,0,1.1-0.2,1.5-0.6l1.2-1.2c0.2-0.2,0.5-0.3,0.8-0.3c0.2,0,0.4,0,0.6,0.1
			c0.4,0.2,0.9,0.4,1.3,0.5c0.5,0.2,0.9,0.7,0.9,1.1v1.6c0,1.2,0.9,2.1,2.1,2.1H36c1.2,0,2.1-0.9,2.1-2.1v-1.6c0-0.4,0.4-1,0.9-1.1
			c0.4-0.2,0.9-0.3,1.3-0.5c0.2-0.1,0.4-0.1,0.6-0.1c0.3,0,0.7,0.1,0.8,0.3l1.2,1.2c0.4,0.4,0.9,0.6,1.5,0.6c0.6,0,1.1-0.2,1.5-0.6
			l1.9-1.9c0.8-0.8,0.8-2.1,0-3l-1.2-1.2c-0.3-0.3-0.4-1-0.2-1.4c0.2-0.4,0.4-0.9,0.5-1.3c0.2-0.5,0.7-0.9,1.1-0.9h1.6
			c1.2,0,2.1-0.9,2.1-2.1v-2.7C51.8,33,50.8,32,49.7,32L49.7,32z M40.8,35.5c0,3.4-2.8,6.1-6.1,6.1s-6.1-2.8-6.1-6.1
			s2.8-6.1,6.1-6.1S40.8,32.1,40.8,35.5L40.8,35.5z M40.8,35.5"/>
		<path fill="#505356" d="M21.9,18.6c0-0.1,0.2-0.2,0.2-0.2H23c0.8,0,1.4-0.6,1.4-1.4v-1.3c0-0.8-0.6-1.4-1.4-1.4h-0.8
			c-0.1,0-0.2-0.1-0.2-0.2c-0.1-0.2-0.2-0.5-0.3-0.7c-0.1-0.1,0-0.3,0-0.3l0.6-0.6c0.5-0.5,0.5-1.4,0-2l-0.9-0.9
			c-0.3-0.3-0.6-0.4-1-0.4c-0.4,0-0.7,0.1-1,0.4l-0.6,0.6c0,0-0.1,0-0.2,0c-0.1,0-0.1,0-0.1,0C18.2,10,18,9.9,17.8,9.9
			c-0.1,0-0.2-0.2-0.2-0.2V8.8c0-0.8-0.6-1.4-1.4-1.4h-1.3c-0.8,0-1.4,0.6-1.4,1.4v0.8c0,0.1-0.1,0.2-0.2,0.2
			c-0.2,0.1-0.5,0.2-0.7,0.3c0,0-0.1,0-0.1,0c-0.1,0-0.2,0-0.2,0l-0.6-0.6c-0.3-0.3-0.6-0.4-1-0.4c-0.4,0-0.7,0.1-1,0.4l-0.9,0.9
			c-0.5,0.5-0.5,1.4,0,2L9.3,13c0,0,0.1,0.2,0,0.3C9.2,13.6,9.1,13.8,9,14c0,0.1-0.2,0.2-0.2,0.2H8c-0.8,0-1.4,0.6-1.4,1.4V17
			c0,0.8,0.6,1.4,1.4,1.4h0.8c0.1,0,0.2,0.1,0.2,0.2c0.1,0.2,0.2,0.5,0.3,0.7c0.1,0.1,0,0.3,0,0.3l-0.6,0.6c-0.3,0.3-0.4,0.6-0.4,1
			s0.1,0.7,0.4,1l0.9,0.9c0.3,0.3,0.6,0.4,1,0.4c0.4,0,0.7-0.1,1-0.4l0.6-0.6c0,0,0.1,0,0.2,0c0.1,0,0.1,0,0.1,0
			c0.2,0.1,0.5,0.2,0.7,0.3c0.1,0,0.2,0.2,0.2,0.2v0.8c0,0.8,0.6,1.4,1.4,1.4h1.3c0.8,0,1.4-0.6,1.4-1.4V23c0-0.1,0.1-0.2,0.2-0.2
			c0.2-0.1,0.5-0.2,0.7-0.3c0,0,0.1,0,0.1,0c0.1,0,0.2,0,0.2,0l0.6,0.6c0.3,0.3,0.6,0.4,1,0.4c0.4,0,0.7-0.1,1-0.4l0.9-0.9
			c0.5-0.5,0.5-1.4,0-2l-0.6-0.6c0,0-0.1-0.2,0-0.3C21.8,19,21.9,18.8,21.9,18.6L21.9,18.6z M18.2,16.3c0,1.5-1.2,2.7-2.7,2.7
			c-1.5,0-2.7-1.2-2.7-2.7s1.2-2.7,2.7-2.7C17,13.6,18.2,14.8,18.2,16.3L18.2,16.3z M18.2,16.3"/>
	</g>
</g>
<g id="rain_Sensor" display="none">
	<g display="inline">
		<g>
			<g>
				<g>
					<path fill="#505356" d="M20,43.8c-0.1,0-0.1,0-0.2,0c-0.4-0.1-0.8-0.3-1-0.6l-14-23.5c-0.4-0.6-0.2-1.4,0.4-1.8
						C13,12.5,22,9.7,31.4,9.7c7.7,0,15.4,2,22.1,5.8c0.8,0.4,1.5,0.9,2.4,1.4c0.6,0.4,0.8,1.2,0.5,1.8L43,42.4
						c-0.2,0.3-0.5,0.6-0.9,0.7c-0.4,0.1-0.8,0-1.1-0.3c-0.7-0.5-1.3-1-2.1-1.4c-2.3-1.3-4.9-2-7.6-2c-3.9,0-7.6,1.4-10.4,4
						C20.7,43.7,20.3,43.8,20,43.8z M7.9,19.4l12.5,21c3.2-2.3,7-3.6,11-3.6c3.1,0,6.2,0.8,8.9,2.3c0.4,0.2,0.8,0.4,1.1,0.7
						l11.9-21.3c-0.4-0.2-0.8-0.5-1.1-0.7c-6.3-3.6-13.5-5.4-20.8-5.4C23,12.4,14.9,14.8,7.9,19.4z"/>
				</g>
				<polygon fill="#505356" points="46.6,15.5 43.8,19.6 35.5,31.7 32.7,35.8 35.7,35.9 37.5,33.1 45.9,21 47.8,18.3 				"/>
				<polygon fill="#505356" points="30.6,44.3 45.8,22.2 33.1,45.8 				"/>
				<path fill="#505356" d="M30.6,43.8c-1.7,0-3,1.4-3,3s1.4,3,3,3c1.7,0,3-1.4,3-3S32.3,43.8,30.6,43.8z M30.6,48.3
					c-0.8,0-1.5-0.7-1.5-1.5s0.7-1.5,1.5-1.5c0.8,0,1.5,0.7,1.5,1.5S31.4,48.3,30.6,48.3z"/>
			</g>
		</g>
	</g>
	<g display="inline">
		<g>
			<defs>
				<rect id="SVGID_3_" x="12.4" y="7.9" width="23.2" height="19.3"/>
			</defs>
			<clipPath id="SVGID_4_">
				<use xlink:href="#SVGID_3_"  overflow="visible"/>
			</clipPath>
			<path clip-path="url(#SVGID_4_)" fill="#505356" d="M12.7,20.2c-1,2.6,0.4,5.5,3,6.5c2.6,1,5.5-0.4,6.5-3c1-2.6-1.8-9.8-1.8-9.8
				S13.7,17.6,12.7,20.2L12.7,20.2z M14.4,21.3c0.3,2.8,1.9,3.8,1.9,3.8C13.4,24.2,14.4,21.3,14.4,21.3L14.4,21.3z M14.4,21.3"/>
			<path clip-path="url(#SVGID_4_)" fill="#505356" d="M34.7,20.5c0,0-3,1.6-3.4,2.7c-0.4,1.1,0.2,2.4,1.3,2.8
				c1.1,0.4,2.4-0.2,2.8-1.3C35.9,23.7,34.7,20.5,34.7,20.5L34.7,20.5z M32,23.7c0.1,1.2,0.8,1.7,0.8,1.7C31.6,25,32,23.7,32,23.7
				L32,23.7z M32,23.7"/>
		</g>
		<path fill="#505356" d="M33.2,15.9c0.8-2.1-1.5-8-1.5-8s-5.5,3-6.3,5.1c-0.8,2.1,0.3,4.5,2.4,5.3C30,19.1,32.4,18,33.2,15.9
			L33.2,15.9z M26.8,13.8c0.3,2.3,1.6,3.1,1.6,3.1C26,16.3,26.8,13.8,26.8,13.8L26.8,13.8z M26.8,13.8"/>
	</g>
</g>
<g id="EcoMode" display="none">
	<g display="inline">
		<g>
			<defs>
				<polygon id="SVGID_5_" points="16.7,16.9 31.5,4.7 46.4,26.6 31.4,37.4 				"/>
			</defs>
			<clipPath id="SVGID_6_">
				<use xlink:href="#SVGID_5_"  overflow="visible"/>
			</clipPath>
			<path clip-path="url(#SVGID_6_)" fill="#505356" d="M31.4,5.9c0,0-4.6,5.1-5,11.7c-0.2,2.8,0.2,6.4,1.3,7.5c1.1,1.1,2,3.4,2,3.4
				s0,0.1,0.3,0.7c0.3,0.5,0.5,0.3,0.5,0.3c1.2-1.6,4.4-6.2,4.6-11.3c0.1-2-0.2-4-0.7-5.7C33.3,8.6,31.4,5.9,31.4,5.9L31.4,5.9z
				 M31.4,5.9"/>
		</g>
	</g>
	<g display="inline">
		<g>
			<defs>
				<polygon id="SVGID_7_" points="12,40.4 5.4,22.4 30.6,15.3 36.1,32.9 				"/>
			</defs>
			<clipPath id="SVGID_8_">
				<use xlink:href="#SVGID_7_"  overflow="visible"/>
			</clipPath>
			<path clip-path="url(#SVGID_8_)" fill="#505356" d="M6.3,23c0,0,3.4,6,9.5,8.4c2.6,1,6.1,1.8,7.5,1.1c1.3-0.7,3.8-0.8,3.8-0.8
				s0.1,0,0.7,0c0.6-0.1,0.4-0.4,0.4-0.4c-1.1-1.7-4.5-6.1-9.3-8c-1.9-0.7-3.9-1.1-5.6-1.1C9.4,22,6.3,23,6.3,23L6.3,23z M6.3,23"/>
		</g>
	</g>
	<g display="inline">
		<g>
			<defs>
				<polygon id="SVGID_9_" points="31.4,51.4 11.1,53.4 13.9,25.6 32.3,26.2 				"/>
			</defs>
			<clipPath id="SVGID_10_">
				<use xlink:href="#SVGID_9_"  overflow="visible"/>
			</clipPath>
			<path clip-path="url(#SVGID_10_)" fill="#505356" d="M13.1,51.1c0,0,6.8-1.2,11.1-6.2c1.8-2.1,3.8-5.2,3.5-6.7
				c-0.2-1.5,0.5-3.9,0.5-3.9s0.1-0.1,0.2-0.7s-0.2-0.5-0.2-0.5c-2,0.5-7.2,2.2-10.6,6.1c-1.3,1.6-2.3,3.3-2.9,5
				C13.2,47.8,13.1,51.1,13.1,51.1L13.1,51.1z M13.1,51.1"/>
		</g>
	</g>
	<circle display="inline" fill="#505356" cx="30.1" cy="31.4" r="1.5"/>
	<g display="inline">
		<g>
			<defs>
				<polygon id="SVGID_11_" points="48.6,40 55.3,22 30,14.9 24.6,32.6 				"/>
			</defs>
			<clipPath id="SVGID_12_">
				<use xlink:href="#SVGID_11_"  overflow="visible"/>
			</clipPath>
			<path clip-path="url(#SVGID_12_)" fill="none" stroke="#505356" stroke-miterlimit="10" d="M54.4,22.6c0,0-3.1-1-7-0.8
				c-1.8,0.1-3.7,0.4-5.6,1.1c-4.8,1.9-8.1,6.3-9.3,8c0,0-0.2,0.3,0.4,0.4c0.6,0.1,0.7,0,0.7,0s2.5,0.1,3.8,0.8
				c1.3,0.7,4.9-0.1,7.5-1.1C51,28.6,54.4,22.6,54.4,22.6L54.4,22.6z M54.4,22.6"/>
		</g>
	</g>
	<g display="inline">
		<g>
			<defs>
				<polygon id="SVGID_13_" points="29.2,51.4 49.5,53.4 46.8,25.6 28.3,26.2 				"/>
			</defs>
			<clipPath id="SVGID_14_">
				<use xlink:href="#SVGID_13_"  overflow="visible"/>
			</clipPath>
			<path clip-path="url(#SVGID_14_)" fill="#FFFFFF" stroke="#505356" stroke-miterlimit="10" d="M47.5,51.1c0,0-0.1-3.3-1.5-6.9
				c-0.7-1.7-1.6-3.4-2.9-5c-3.4-3.9-8.6-5.6-10.6-6.1c0,0-0.3-0.1-0.2,0.5s0.2,0.7,0.2,0.7s0.7,2.4,0.5,3.9
				c-0.2,1.5,1.7,4.6,3.5,6.7C40.7,49.9,47.5,51.1,47.5,51.1L47.5,51.1z M47.5,51.1"/>
		</g>
	</g>
</g>
<g id="Mag" display="none">
	<g display="inline">
		<path fill="#505356" d="M30,11.4c-10.2,0-18.6,8.3-18.6,18.6c0,10.2,8.3,18.6,18.6,18.6c10.2,0,18.6-8.3,18.6-18.6
			C48.6,19.8,40.2,11.4,30,11.4L30,11.4z M30,31.9c-1,0-1.9-0.8-1.9-1.9c0-1,0.8-1.9,1.9-1.9c1,0,1.9,0.8,1.9,1.9
			C31.9,31,31,31.9,30,31.9L30,31.9z M32.1,25.9c-0.2-0.1-0.5-0.2-0.8-0.3V15.5c3,0.3,5.7,1.5,7.9,3.3L32.1,25.9z M28.6,25.6
			c-0.3,0.1-0.5,0.2-0.8,0.3l-7.1-7.1c2.2-1.8,4.9-3,7.9-3.3V25.6z M25.9,27.9c-0.1,0.2-0.2,0.5-0.3,0.8H15.5c0.3-3,1.5-5.7,3.3-7.9
			L25.9,27.9z M25.6,31.4c0.1,0.3,0.2,0.5,0.3,0.8l-7.1,7.1c-1.8-2.2-3-4.9-3.3-7.9H25.6z M27.9,34.1c0.2,0.1,0.5,0.2,0.8,0.3v10.1
			c-3-0.3-5.7-1.5-7.9-3.3L27.9,34.1z M31.4,34.4c0.3-0.1,0.5-0.2,0.8-0.3l7.1,7.1c-2.2,1.8-4.9,3-7.9,3.3V34.4z M34.1,32.1
			c0.1-0.2,0.2-0.5,0.3-0.8h10.1c-0.3,3-1.5,5.7-3.3,7.9L34.1,32.1z M34.4,28.6c-0.1-0.3-0.2-0.5-0.3-0.8l7.1-7.1
			c1.8,2.2,3,4.9,3.3,7.9H34.4z M39.7,18.3c-2.3-1.9-5.2-3.2-8.4-3.5v-0.6c3.3,0.3,6.4,1.6,8.8,3.6L39.7,18.3z M28.6,14.8
			c-3.2,0.3-6.1,1.5-8.4,3.5l-0.4-0.4c2.4-2,5.4-3.3,8.8-3.6V14.8z M18.3,20.3c-1.9,2.3-3.2,5.2-3.5,8.4h-0.6
			c0.3-3.3,1.6-6.4,3.6-8.8L18.3,20.3z M14.8,31.4c0.3,3.2,1.5,6.1,3.5,8.4l-0.4,0.4c-2-2.4-3.3-5.5-3.6-8.8H14.8z M20.3,41.7
			c2.3,1.9,5.2,3.2,8.4,3.5v0.6c-3.3-0.3-6.4-1.6-8.8-3.6L20.3,41.7z M31.4,45.2c3.2-0.3,6.1-1.5,8.4-3.5l0.4,0.4
			c-2.4,2-5.5,3.4-8.8,3.6V45.2z M41.7,39.7c1.9-2.3,3.2-5.2,3.5-8.4h0.6c-0.3,3.3-1.6,6.4-3.6,8.8L41.7,39.7z M45.2,28.6
			c-0.3-3.2-1.5-6.1-3.5-8.4l0.4-0.4c2,2.4,3.4,5.4,3.6,8.8H45.2z M45.2,28.6"/>
	</g>
</g>
<g id="Active_Park_Assist" display="none">
	<path display="inline" opacity="0.66" fill-rule="evenodd" clip-rule="evenodd" fill="#FFFFFF" d="M29.3,30.1
		C29.3,30.1,29.3,30.1,29.3,30.1"/>
	<g display="inline">
		<path fill-rule="evenodd" clip-rule="evenodd" fill="#505356" d="M22.7,31.6c-0.1,0.1,0-0.4-0.1-0.6
			C22.7,30.9,22.6,31.4,22.7,31.6z"/>
		<path fill-rule="evenodd" clip-rule="evenodd" fill="#505356" d="M43.6,26.6c-0.5-1-2.1-1.8-3.2-2c-1.4-0.3-3.5-0.2-5.1-0.1
			c-1.8,0.1-4,0.1-5.6,0.1c-1.3-0.1-2.5,0.1-4,0.1c0-0.3,0.3-0.7,0.1-0.8c-0.7,0-0.6,0.6-1.1,0.8c-0.1,0-0.5,0-0.8,0
			c-2.1,0.1-5.6-0.4-7.4,0.2c-0.6,0.2-1,0.7-1.3,1.2c-0.4,0.7-0.8,2-1,2.9c-0.4,2.1,0.1,3.7,0.7,5.2c0.2,0.7,0.5,1.4,0.9,1.7
			c1.2,1,5.3,0.6,7.3,0.6c0.6,0,1.1,0.1,1.6,0.1c0.3,0.3,0.4,0.8,1,0.8c0.2-0.1-0.2-0.6-0.1-0.8c1.6-0.1,2.7,0.1,4,0.1
			c1.3-0.1,2.9-0.2,4.5-0.1c1.9,0.1,4.4,0.5,6.3,0.1c1-0.2,2.1-0.8,2.7-1.4c0.9-0.9,1-2.8,1.1-4.5C44.3,29.2,44.1,27.5,43.6,26.6z
			 M15.2,33.3c0.2,0,0.3,0.2,0.5,0.3c0.4,0.5,0.7,1.2,1.1,1.6c0.2,0.3,0.6,0.3,0.8,0.7C15.7,36.1,15.7,34.5,15.2,33.3z M15.3,27.9
			c0.3-1.2,0.5-2.9,2.3-2.7C16.6,25.9,16.1,27,15.3,27.9z M36.1,25.5c-0.3,0.3-0.4,0.7-0.8,0.9c0-0.3-0.1-0.6-0.2-0.9
			C35.5,25.5,35.7,25.5,36.1,25.5z M34.8,25.4c0.1,0.3,0.2,0.6,0.3,1c-1.4,0-2.3,0.1-3.7,0.2c0-0.5-0.2-0.8-0.3-1.3
			C32.4,25.3,33.5,25.4,34.8,25.4z M23.4,35.3c-0.7-0.2-0.9-1.9-0.7-2.8c0-0.2,0-0.3,0-0.5c0-0.2,0.1-0.3,0.1-0.1
			c0,0.3,0,0.6,0.1,0.8c0.1-1.3-0.1-2.9,0.1-4.2c-0.3,1.2-0.2,2.8-0.4,4.2c-0.3-1.3-0.2-3.2,0.2-4.4c0.1,0.4,0.4-0.8,0.5-1.2
			c0.2-0.6,0.4-1,0.5-1.3c-0.3,0.1-0.3,1-0.7,1.2c0.1,0.3,0,0.4-0.1,0.7c-0.1,0.1,0.1-0.3,0.1-0.4c-0.2,0.5-0.4,1-0.5,1.5
			c0-1.1,0.2-2.5,0.9-3.1c1.5,0.1,2.7,0.7,4.1,0.9c-0.6,2.4-0.6,5.3,0,7.7c-0.6,0.1-1.3,0.3-2,0.5C24.8,35.1,23.9,35.5,23.4,35.3z
			 M29.9,35.9c-1.4,0-2.9,0-4.3,0c0-0.3,0-0.4,0.1-0.6c1.5-0.5,3.1-0.8,5-0.8C30.5,35,30.2,35.5,29.9,35.9z M25.6,25.8
			c0-0.2-0.1-0.4-0.1-0.6c1.5,0,2.9,0,4.4,0c0.2,0.5,0.6,0.8,0.7,1.4C28.7,26.7,27.1,26.3,25.6,25.8z M31.2,35.8
			c0.1-0.5,0.2-0.8,0.3-1.3c1.2,0,2.4,0.1,3.7,0.2c0,0.4-0.2,0.6-0.2,1C33.6,35.7,32.5,35.8,31.2,35.8z M35.1,35.6
			c0.1-0.3,0.1-0.7,0.3-0.9c0.3,0.2,0.5,0.6,0.8,0.8C35.8,35.6,35.5,35.6,35.1,35.6z M36.6,35.5c-0.4-0.1-0.4-0.6-0.7-0.7
			c0.5-0.1,1.2,0.1,1.7,0.2C37.5,35.4,37,35.6,36.6,35.5z M35.9,26.4c0.2-0.3,0.4-0.5,0.7-0.8c0.5,0,1,0.1,1.1,0.6
			C37.1,26.3,36.5,26.3,35.9,26.4z M41.1,34.2c-0.9,0.4-1.9,0-3.1,0.1c0.5-2.1,0.5-5.3,0-7.4c1.4,0.1,2.1-0.3,3.1,0.1
			C42.9,27.7,42.9,33.4,41.1,34.2z"/>
	</g>
	<path display="inline" fill="none" stroke="#505356" stroke-width="0.75" stroke-miterlimit="10" d="M45.4,26.6c0,0,2.1,1,2.1,3.4
		c0,2.4-2,3.6-2,3.6"/>
	<path display="inline" fill="none" stroke="#505356" stroke-width="0.75" stroke-miterlimit="10" d="M46.9,23.9
		c0,0,4.1,1.8,4.1,6.5c0.1,4.7-4,6.7-4,6.7"/>
	<path display="inline" fill="none" stroke="#505356" stroke-width="0.75" stroke-miterlimit="10" d="M49.6,22.1
		c0,0,5.1,2.6,5.1,8.6c0,5.1-4.9,8.3-4.9,8.3"/>
	<path display="inline" fill="none" stroke="#505356" stroke-width="0.75" stroke-miterlimit="10" d="M13.3,33.6c0,0-2.1-1-2.1-3.4
		c0-2.4,2-3.6,2-3.6"/>
	<path display="inline" fill="none" stroke="#505356" stroke-width="0.75" stroke-miterlimit="10" d="M11.8,36.3
		c0,0-4.1-1.8-4.1-6.5s4-6.7,4-6.7"/>
	<path display="inline" fill="none" stroke="#505356" stroke-width="0.75" stroke-miterlimit="10" d="M9.1,38.1c0,0-5.1-2.6-5.1-8.6
		c0-5.1,4.9-8.3,4.9-8.3"/>
	<g display="inline">
		<path fill="#505356" d="M42.4,38.8l5.6,5.6l-1.4,1.4l5.4,1l-1-5.4l-1.4,1.4l-5.6-5.6L42.4,38.8z M42.4,38.8"/>
	</g>
</g>
<g id="Rear_Park_Sensors" display="none">
	<g display="inline">
		<path fill="#505356" d="M42.7,38.2L40,35.4c2.5-2.5,2.5-6.6,0-9.1l2.7-2.7C46.7,27.7,46.7,34.2,42.7,38.2z"/>
		<path fill="#505356" d="M48,43.6l-2.7-2.7c2.6-2.6,4.1-6.2,4.1-9.9c0-3.7-1.5-7.3-4.1-9.9l2.7-2.7c3.4,3.4,5.2,7.9,5.2,12.6
			C53.2,35.7,51.3,40.2,48,43.6z"/>
		<path fill="#505356" d="M36.8,26.9c-1.8-1.3-6.8-2.7-10.6-2.9c-0.5-0.4-7.8-6.2-8.4-6.7c-1.8-1.4-2.1-1.6-4.9-1.6c0,0-2.6,0-5.3,0
			v23.3c2.8,0.3,4,0.5,7.7,0.5c1.9,0,2.4-0.1,4.1-0.1c1.2,1.9,3.3,3.1,5.7,3.1c2.8,0,5.2-1.7,6.2-4.1C34.2,38,36,37,36,37
			S37.3,30.2,36.8,26.9z M18.7,24.5h-7.9v-5.1c0.8,0,1.5-0.1,1.8-0.1c1.9,0,2.3,0.3,3.4,1.1c0.5,0.4,1.9,1.5,3.2,2.6L18.7,24.5z
			 M25,39c-1.9,0-3.4-1.5-3.4-3.4c0-1.9,1.5-3.4,3.4-3.4s3.4,1.5,3.4,3.4C28.4,37.5,26.9,39,25,39z"/>
	</g>
</g>
<g id="Front_Parking" display="none">
	<g display="inline">
		<path fill="#505356" d="M18,36.9l2.7-2.7c-2.5-2.5-2.5-6.6,0-9L18,22.4C14,26.4,14,32.9,18,36.9z"/>
		<path fill="#505356" d="M12.7,42.3l2.7-2.7c-2.6-2.6-4.1-6.2-4.1-9.9c0-3.7,1.5-7.3,4.1-9.9L12.7,17c-3.4,3.4-5.2,7.9-5.2,12.6
			C7.5,34.4,9.3,38.9,12.7,42.3z"/>
		<path fill="#505356" d="M24.7,35.7c0,0,1.8,1,4.7,1.4c1.1,2.4,3.5,4.1,6.2,4.1c2.4,0,4.5-1.3,5.7-3.1c1.7,0.1,2.3,0.1,4.1,0.1
			c3.6,0,4.9-0.2,7.7-0.5V14.4c-2.7-0.1-5.3,0-5.3,0c-2.8,0-3.1,0.2-4.9,1.6c-0.6,0.5-7.9,6.3-8.4,6.7c-3.8,0.1-8.8,1.6-10.6,2.9
			C23.4,28.9,24.7,35.7,24.7,35.7z M41.3,21.8c1.3-1.1,2.7-2.2,3.2-2.6c1.1-0.9,1.6-1.1,3.4-1.1c0.3,0,1,0,1.8,0.1v5.1H42L41.3,21.8
			z M32.3,34.3c0-1.9,1.5-3.4,3.4-3.4c1.9,0,3.4,1.5,3.4,3.4c0,1.9-1.5,3.4-3.4,3.4C33.8,37.7,32.3,36.2,32.3,34.3z"/>
	</g>
</g>
<g id="Adaptive_Cruise_Control" display="none">
	<g display="inline">
		<path fill="none" stroke="#505356" stroke-width="3" stroke-miterlimit="10" d="M20,49.5c-3.5-3-5.7-7.5-5.7-12.4
			c0-9.1,7.4-16.4,16.4-16.4c9.1,0,16.4,7.4,16.4,16.4c0,5.2-2.4,9.8-6.1,12.8"/>
		<path fill="#505356" d="M20.6,48.9c-0.4,0.4-1.1,0.4-1.5,0l0,0c-0.4-0.4-0.4-1.1,0-1.5l1.5-1.5c0.4-0.4,1.1-0.4,1.5,0l0,0
			c0.4,0.4,0.4,1.1,0,1.5L20.6,48.9z"/>
		<path fill="#505356" d="M15.4,38.5c-0.6,0-1.1-0.5-1.1-1.1l0,0c0-0.6,0.5-1.1,1.1-1.1h2.2c0.6,0,1.1,0.5,1.1,1.1l0,0
			c0,0.6-0.5,1.1-1.1,1.1H15.4z"/>
		<path fill="#505356" d="M29.8,21.5c0-0.6,0.5-1.1,1.1-1.1l0,0c0.6,0,1.1,0.5,1.1,1.1v2.2c0,0.6-0.5,1.1-1.1,1.1l0,0
			c-0.6,0-1.1-0.5-1.1-1.1V21.5z"/>
		<path fill="#505356" d="M40.9,49.5c0.4,0.4,1.1,0.5,1.5,0.1l0,0c0.4-0.4,0.5-1.1,0.1-1.5L41,46.4c-0.4-0.4-1.1-0.5-1.5-0.1l0,0
			c-0.4,0.4-0.5,1.1-0.1,1.5L40.9,49.5z"/>
		<path fill="#505356" d="M45.5,38.5c0.6,0,1.1-0.5,1.1-1.1l0,0c0-0.6-0.5-1.1-1.1-1.1h-2.2c-0.6,0-1.1,0.5-1.1,1.1l0,0
			c0,0.6,0.5,1.1,1.1,1.1H45.5z"/>
		<path fill="#505356" d="M41.4,26.4c0.4-0.4,1.1-0.4,1.5,0l0,0c0.4,0.4,0.4,1.1,0,1.5l-1.5,1.5c-0.4,0.4-1.1,0.4-1.5,0l0,0
			c-0.4-0.4-0.4-1.1,0-1.5L41.4,26.4z"/>
		<circle fill="#505356" cx="30.6" cy="37.5" r="3.4"/>
		
			<rect x="22.6" y="24.3" transform="matrix(0.73 -0.6834 0.6834 0.73 -14.9205 24.6487)" fill="#505356" width="2.2" height="13.9"/>
		<g>
			<path fill="#505356" d="M50.7,13.2l-4.4,4.4L45,16.2l-0.6,8.2l8.2-0.6l-1.4-1.4l4.3-4.3L50.7,13.2z M58.1,7.9"/>
		</g>
		<g>
			<g>
				<defs>
					<rect id="SVGID_15_" x="4.9" y="10" width="18" height="14.4"/>
				</defs>
				<clipPath id="SVGID_16_">
					<use xlink:href="#SVGID_15_"  overflow="visible"/>
				</clipPath>
				<path clip-path="url(#SVGID_16_)" fill="#505356" d="M18.3,22.9c0,0,1.2-0.9,1.8-1.3c0.8-0.5,1.9-1.1,1.9-1.1v-2
					c0-0.1,0-0.6-0.1-0.7c0,0-0.1-0.2-0.2-0.4h0.7c0.3,0,0.5-0.3,0.4-0.6l0,0l-0.2-0.6c-0.1-0.3-0.5-0.6-0.8-0.6h-0.7
					c-0.6-1.6-1.2-3.5-1.4-3.9c-0.3-0.7-1.3-1-1.8-1.1c0,0-0.9-0.3-3.9-0.3c-3,0-3.9,0.3-3.9,0.3c-0.6,0.2-1.5,0.5-1.9,1.2
					c-0.2,0.3-0.9,2.3-1.4,3.9H6.1c-0.3,0-0.7,0.3-0.8,0.6L5,16.9c-0.1,0.3,0.1,0.6,0.4,0.6h0.7C6.1,17.7,6,17.9,6,17.9
					c-0.1,0.1-0.1,0.5-0.1,0.7V24c0,0.4,0.3,0.6,0.6,0.6h2.3c0.4,0,0.6-0.3,0.6-0.6v-1.2 M9.5,20.2h-1c-0.9,0-1.7-0.1-1.7-0.7v-0.7
					c0-0.6,0.4-0.7,0.8-0.7c0.4,0,1.2,0.3,1.7,0.6c0.6,0.2,1.2,0.5,1.2,0.9C10.4,20,10.2,20.2,9.5,20.2L9.5,20.2z M8.1,15.9
					c0.5-2,1-3.1,1.1-3.4c0.1-0.2,0.2-0.9,4.7-0.9s4.7,0.8,4.7,0.8c0.1,0.4,0.7,1.7,1.1,3.5c0,0-1.9,0.7-5.8,0.7
					C10.1,16.6,8.1,15.9,8.1,15.9L8.1,15.9z M17.5,19.7c0-0.4,0.6-0.6,1.2-0.9c0.5-0.2,1.3-0.6,1.7-0.6c0.4,0,0.8,0,0.8,0.7v0.7h0
					c0,0.5-0.9,0.7-1.7,0.7h-1C17.8,20.2,17.5,20,17.5,19.7L17.5,19.7z M17.5,19.7"/>
			</g>
		</g>
	</g>
</g>
<g id="_x38__inch_Screen" display="none">
	<g display="inline">
		<path fill="#505356" d="M7.9,19V41c0,2.4,2,4.4,4.4,4.4h35.3c2.4,0,4.4-2,4.4-4.4V19c0-2.4-2-4.4-4.4-4.4H12.3
			C9.9,14.5,7.9,16.5,7.9,19L7.9,19z M47.7,19V41H12.3V19H47.7z M47.7,19"/>
	</g>
	<polygon display="inline" fill="#505356" points="37.2,34 40.6,37.4 37.9,39.6 45,39.6 45,32.4 42.8,35.2 39.5,31.8 	"/>
	<path display="inline" d="M38.4,34"/>
	<polygon display="inline" fill="#505356" points="14.6,27.7 16.8,25 20.2,28.4 22.4,26.1 19,22.8 21.8,20.5 14.6,20.5 	"/>
</g>
<g id="Camera" display="none">
	<g display="inline">
		<path fill="#505356" d="M48.2,30c0,10-8.1,18.2-18.2,18.2C20,48.2,11.8,40,11.8,30c0-0.3,0-0.6,0-0.9c0-0.1,0-0.2,0-0.3
			c0-0.2,0-0.4,0-0.6c0-0.1,0-0.2,0-0.3c0-0.2,0-0.4,0.1-0.6c0-0.1,0-0.2,0-0.3c0-0.2,0.1-0.4,0.1-0.6c0-0.1,0-0.1,0-0.2
			c0.1-0.3,0.1-0.5,0.2-0.8c0-0.1,0-0.2,0.1-0.2c0-0.2,0.1-0.4,0.2-0.6c0-0.1,0.1-0.2,0.1-0.3c0.1-0.2,0.1-0.3,0.2-0.5
			c0-0.1,0.1-0.2,0.1-0.3c0.1-0.2,0.1-0.3,0.2-0.5c0-0.1,0.1-0.2,0.1-0.3c0.1-0.2,0.2-0.5,0.3-0.7c0-0.1,0.1-0.1,0.1-0.2
			c0.1-0.2,0.2-0.3,0.3-0.5c0.1-0.1,0.1-0.2,0.2-0.3c0.1-0.1,0.2-0.3,0.2-0.4c0.1-0.1,0.1-0.2,0.2-0.3c0.1-0.1,0.2-0.3,0.3-0.4
			c0.1-0.1,0.1-0.2,0.2-0.3c0.1-0.2,0.2-0.3,0.3-0.4c0.1-0.1,0.2-0.2,0.2-0.3c0.1-0.2,0.2-0.3,0.4-0.5c0.1-0.1,0.2-0.2,0.2-0.3
			c0.1-0.1,0.2-0.2,0.3-0.3c0.1-0.1,0.2-0.2,0.3-0.3c0.1-0.1,0.2-0.2,0.3-0.3c0.1-0.1,0.2-0.2,0.3-0.3c0.1-0.1,0.2-0.2,0.3-0.3
			c0.1-0.1,0.2-0.2,0.3-0.3c0.2-0.2,0.4-0.3,0.5-0.5c0.1-0.1,0.2-0.2,0.3-0.3c0.1-0.1,0.2-0.2,0.3-0.2c0.1-0.1,0.2-0.2,0.3-0.2
			c0.1-0.1,0.2-0.1,0.3-0.2c0.1-0.1,0.2-0.2,0.4-0.2c0.1-0.1,0.2-0.1,0.3-0.2c0.1-0.1,0.2-0.2,0.4-0.2c0.1-0.1,0.2-0.1,0.3-0.2
			c0.2-0.1,0.5-0.3,0.7-0.4c0.1-0.1,0.2-0.1,0.3-0.2c0.1-0.1,0.3-0.1,0.4-0.2c0.1,0,0.2-0.1,0.3-0.1c0.1-0.1,0.3-0.1,0.4-0.2
			c0.1,0,0.2-0.1,0.3-0.1c0.1-0.1,0.3-0.1,0.4-0.2c0.1,0,0.2-0.1,0.3-0.1c1.8-0.6,3.8-1,5.8-1s4,0.3,5.8,1c0.1,0,0.2,0.1,0.3,0.1
			c0.1,0.1,0.3,0.1,0.4,0.2c0.1,0,0.2,0.1,0.3,0.1c0.1,0.1,0.3,0.1,0.4,0.2c0.1,0,0.2,0.1,0.3,0.1c0.1,0.1,0.3,0.1,0.4,0.2
			c0.1,0.1,0.2,0.1,0.3,0.2c0.2,0.1,0.5,0.2,0.7,0.4c0.1,0.1,0.2,0.1,0.3,0.2c0.1,0.1,0.2,0.1,0.4,0.2c0.1,0.1,0.2,0.1,0.3,0.2
			c0.1,0.1,0.2,0.2,0.3,0.2c0.1,0.1,0.2,0.1,0.3,0.2c0.1,0.1,0.2,0.2,0.3,0.2c0.1,0.1,0.2,0.2,0.3,0.2c0.1,0.1,0.2,0.2,0.3,0.2
			c0.2,0.2,0.4,0.3,0.6,0.5c0.1,0.1,0.2,0.2,0.3,0.2c0.1,0.1,0.2,0.2,0.3,0.3c0.1,0.1,0.2,0.2,0.3,0.3c0.1,0.1,0.2,0.2,0.3,0.3
			c0.1,0.1,0.2,0.2,0.3,0.3c0.1,0.1,0.2,0.2,0.3,0.3c0.1,0.1,0.2,0.2,0.2,0.3c0.1,0.2,0.3,0.3,0.4,0.5c0.1,0.1,0.1,0.2,0.2,0.3
			c0.1,0.1,0.2,0.3,0.3,0.5c0.1,0.1,0.1,0.2,0.2,0.3c0.1,0.1,0.2,0.3,0.3,0.4c0.1,0.1,0.1,0.2,0.2,0.3c0.1,0.1,0.2,0.3,0.2,0.4
			c0.1,0.1,0.1,0.2,0.2,0.3c0.1,0.2,0.2,0.3,0.3,0.5c0,0.1,0.1,0.1,0.1,0.2c0.1,0.2,0.2,0.5,0.3,0.7c0,0.1,0.1,0.2,0.1,0.3
			c0.1,0.2,0.1,0.3,0.2,0.5c0,0.1,0.1,0.2,0.1,0.3c0.1,0.2,0.1,0.3,0.2,0.5c0,0.1,0.1,0.2,0.1,0.3c0.1,0.2,0.1,0.4,0.2,0.6
			c0,0.1,0,0.2,0.1,0.2c0.1,0.3,0.1,0.5,0.2,0.8c0,0.1,0,0.1,0,0.2c0,0.2,0.1,0.4,0.1,0.6c0,0.1,0,0.2,0,0.3c0,0.2,0.1,0.4,0.1,0.6
			c0,0.1,0,0.2,0,0.3c0,0.2,0,0.4,0,0.6c0,0.1,0,0.2,0,0.3C48.2,29.4,48.2,29.7,48.2,30L48.2,30z M40.9,30c0-6-4.9-10.9-10.9-10.9
			c-6,0-10.9,4.9-10.9,10.9c0,6,4.9,10.9,10.9,10.9C36,40.9,40.9,36,40.9,30L40.9,30z M30,22.7c-1.2,0-2.3,0.3-3.2,0.8
			c0.7,0.5,1.1,1.3,1.1,2.2c0,1.5-1.2,2.7-2.7,2.7c-0.8,0-1.5-0.3-2-0.9c-0.3,0.8-0.4,1.6-0.4,2.4c0,4,3.3,7.3,7.3,7.3
			c4,0,7.3-3.3,7.3-7.3C37.3,26,34,22.7,30,22.7L30,22.7z M30,22.7"/>
	</g>
</g>
<g id="Cruise_Control" display="none">
	<path display="inline" fill="none" stroke="#505356" stroke-width="3" stroke-miterlimit="10" d="M19,45.7c-3.5-3-5.7-7.5-5.7-12.4
		c0-9.1,7.4-16.4,16.4-16.4s16.4,7.4,16.4,16.4c0,5.2-2.4,9.8-6.1,12.8"/>
	<path display="inline" fill="#505356" d="M19.6,45.1c-0.4,0.4-1.1,0.4-1.5,0l0,0c-0.4-0.4-0.4-1.1,0-1.5l1.5-1.5
		c0.4-0.4,1.1-0.4,1.5,0l0,0c0.4,0.4,0.4,1.1,0,1.5L19.6,45.1z"/>
	<path display="inline" fill="#505356" d="M14.5,34.7c-0.6,0-1.1-0.5-1.1-1.1l0,0c0-0.6,0.5-1.1,1.1-1.1h2.2c0.6,0,1.1,0.5,1.1,1.1
		l0,0c0,0.6-0.5,1.1-1.1,1.1H14.5z"/>
	<path display="inline" fill="#505356" d="M28.8,17.7c0-0.6,0.5-1.1,1.1-1.1l0,0c0.6,0,1.1,0.5,1.1,1.1v2.2c0,0.6-0.5,1.1-1.1,1.1
		l0,0c-0.6,0-1.1-0.5-1.1-1.1V17.7z"/>
	<path display="inline" fill="#505356" d="M39.9,45.7c0.4,0.4,1.1,0.5,1.5,0.1l0,0c0.4-0.4,0.5-1.1,0.1-1.5l-1.5-1.6
		c-0.4-0.4-1.1-0.5-1.5-0.1l0,0c-0.4,0.4-0.5,1.1-0.1,1.5L39.9,45.7z"/>
	<path display="inline" fill="#505356" d="M44.6,34.7c0.6,0,1.1-0.5,1.1-1.1l0,0c0-0.6-0.5-1.1-1.1-1.1h-2.2c-0.6,0-1.1,0.5-1.1,1.1
		l0,0c0,0.6,0.5,1.1,1.1,1.1H44.6z"/>
	<path display="inline" fill="#505356" d="M40.5,22.6c0.4-0.4,1.1-0.4,1.5,0l0,0c0.4,0.4,0.4,1.1,0,1.5l-1.5,1.5
		c-0.4,0.4-1.1,0.4-1.5,0l0,0c-0.4-0.4-0.4-1.1,0-1.5L40.5,22.6z"/>
	<circle display="inline" fill="#505356" cx="29.7" cy="33.8" r="3.4"/>
	
		<rect x="21.7" y="20.5" transform="matrix(0.73 -0.6834 0.6834 0.73 -12.5913 22.9602)" display="inline" fill="#505356" width="2.2" height="13.9"/>
	<g display="inline">
		<path fill="#505356" d="M49.8,9.4l-4.4,4.4L44,12.4l-0.6,8.2l8.2-0.6l-1.4-1.4l4.3-4.3L49.8,9.4z M57.1,4.1"/>
	</g>
</g>
<g id="Hands_free_power_tail_gate" display="none">
	<path display="inline" fill="#505356" d="M37.5,27.6c-1.8-1.3-6.8-2.7-10.6-2.9c-0.5-0.4-7.8-6.2-8.4-6.7c-1.8-1.4-2.1-1.6-4.9-1.6
		c0,0-2.6,0-5.3,0v23.3c2.8,0.3,4,0.5,7.7,0.5c1.9,0,2.4-0.1,4.1-0.1c1.2,1.9,3.3,3.1,5.7,3.1c2.8,0,5.2-1.7,6.2-4.1
		c2.9-0.4,4.7-1.4,4.7-1.4S38,30.9,37.5,27.6z M19.4,25.2h-7.9v-5.1c0.8,0,1.5-0.1,1.8-0.1c1.9,0,2.3,0.3,3.4,1.1
		c0.5,0.4,1.9,1.5,3.2,2.6L19.4,25.2z M25.7,39.7c-1.9,0-3.4-1.5-3.4-3.4c0-1.9,1.5-3.4,3.4-3.4c1.9,0,3.4,1.5,3.4,3.4
		C29.1,38.2,27.6,39.7,25.7,39.7z"/>
	<path display="inline" fill="none" stroke="#505356" stroke-miterlimit="10" d="M26.8,25.7c0.8-4.2,6-6.7,11.6-5.6"/>
	<g display="inline">
		<g>
			<path fill="none" stroke="#505356" stroke-miterlimit="10" d="M52.2,35.1c0-0.3,0.1-0.7,0.1-1"/>
			<path fill="none" stroke="#505356" stroke-miterlimit="10" stroke-dasharray="2.0798,2.0798" d="M52.4,32
				c-0.1-8.1-4.7-15.6-11.9-19.4"/>
			<path fill="none" stroke="#505356" stroke-miterlimit="10" d="M39.5,12.1c-0.3-0.1-0.6-0.3-0.9-0.4"/>
			<g>
				<polygon fill="#505356" points="54.4,34.8 51.7,38 50.2,34.1 				"/>
			</g>
			<g>
				<polygon fill="#505356" points="40,9.8 35.6,10.7 38.5,14.1 				"/>
			</g>
		</g>
	</g>
</g>
<g id="Towing" display="none">
	<g id="Towing_1_" display="inline">
		<g>
			<g>
				<path fill="#515557" d="M50.3,41.1l-6.4-19.8c-0.3-0.9-1.1-1.5-2-1.5h-6.8c0.5-0.9,0.9-2,0.9-3.1c0-3.3-2.7-6-6-6s-6,2.7-6,6
					c0,1.1,0.3,2.2,0.9,3.1H18c-0.9,0-1.7,0.6-2,1.5L9.6,41.1c-0.4,1.4,0.6,2.8,2,2.8h36.7C49.7,43.9,50.7,42.5,50.3,41.1L50.3,41.1
					z M26.8,16.7c0-1.8,1.4-3.2,3.2-3.2c1.8,0,3.2,1.4,3.2,3.2c0,1.5-1.1,2.8-2.5,3.1h-1.4C27.8,19.5,26.8,18.2,26.8,16.7L26.8,16.7
					z M27.1,37l-1.8-3.5h-0.9V37h-2.1v-8.7h2.1v3.4h0.9l1.8-3.4h2.3L27,32.5v0l2.5,4.5H27.1z M38.3,37h-1.8v-0.2c0-0.2,0-0.4,0-0.4
					h0c0,0-0.8,0.8-2.3,0.8c-2.2,0-4.3-1.7-4.3-4.5c0-2.5,1.9-4.5,4.6-4.5c2.2,0,3.3,1.2,3.3,1.2l-1,1.6c0,0-0.9-0.8-2.1-0.8
					c-1.8,0-2.6,1.2-2.6,2.5c0,1.7,1.1,2.6,2.5,2.6c1,0,1.8-0.6,1.8-0.6v-0.7h-1.2v-1.8h3.1L38.3,37L38.3,37z"/>
			</g>
		</g>
	</g>
</g>
<g id="EcoBoost" display="none">
	<g id="EcoBoost_1_" display="inline">
		<path fill="#5F6263" d="M26.7,16.9c0-0.1-0.1-0.1-0.1-0.2c-0.5-0.8-0.9-1.5-1.5-2.3c-1-1.4-2.2-2.6-3.5-3.6
			c-1-0.8-2.1-1.2-3.2-1.7c-0.3-0.1-0.5-0.2-0.8-0.3c-0.2-0.1-0.4-0.1-0.6-0.2c-0.1-0.1-0.3-0.4,0-0.4c19.1,0,19.8,15.7,19.8,19.2
			c0,0,0,0.6-0.7-0.1c-1.2-1.2-2.4-2.3-3.6-3.5C30.4,21.7,28.4,19.4,26.7,16.9"/>
		<path fill="#5F6263" d="M15.7,9.5c6.4,4.4,6.6,5.7,10.9,12.2c2.3,3.5,4.8,5.6,6.3,7.2c1.6,1.6,2.4,2.2,2.4,2.5
			c0,0.3-8.2,0.4-10.8-3.2c-3.2-4.4-3.7-11-7.9-16.5C14.6,8.9,15.7,9.5,15.7,9.5"/>
		<path fill="#5F6263" d="M43.2,32.5c-9.5-3.6-16.5-13.9-16.8-13.9c-0.7-0.1-0.3,0.7-0.3,0.7c10.4,14,14.5,13.9,14.5,13.9v0.4
			C19.7,38.3,9.9,45,9.9,45h12.9c6.2-7.1,25.4-10.3,25.4-10.3v-1.5C48.2,33.2,45,33.1,43.2,32.5 M22.1,42.8h-3.3
			c3.4-2.1,5.1-2.6,5.1-2.6h1.7C24.5,41.1,22.1,42.8,22.1,42.8 M33.2,37.9h-2.7c1.4-0.7,3.2-1.2,3.2-1.2h1.7
			C34.9,36.6,33.2,37.9,33.2,37.9"/>
	</g>
</g>
<g id="Bluetooth">
	<g id="Bluetooth_1_">
		<path fill="#5F6263" d="M39.7,22.2L28.6,11.1v14.6l-6-6.1l-2.2,2.2l7.6,7.6l-7.6,7.7l2.2,2.2l6-6.1v14.5l11.1-11l-7.3-7.3
			L39.7,22.2z M31.8,18.7l3.5,3.5l-3.5,3.5V18.7z M35.4,37l-3.5,3.5v-7L35.4,37z"/>
	</g>
</g>
<g id="Sync" display="none">
	<g id="Sync_1_" display="inline">
		<path fill="#5D6162" d="M44.3,26.3c-0.3,0.3-0.5,0.7-0.6,1.1h1c0.1-0.1,0.1-0.3,0.3-0.5c0.6-0.6,2.2-1.4,6.2-1.4l2.7,0.1
			c0,0,0.1,0,0.1,0v-0.9c0,0-0.1,0-0.1,0c0,0-2.7-0.1-2.7-0.1C47.7,24.6,45.4,25.2,44.3,26.3 M16.4,24.8c-2.2,0-3.9,0.9-4.8,2.6h1.1
			c0.8-1.1,2-1.7,3.7-1.7c0,0,0.5,0,0.7,0c0,0,0-0.1,0-0.1l-0.2-0.7c0,0,0-0.1,0-0.1C16.8,24.8,16.4,24.8,16.4,24.8L16.4,24.8z
			 M31,24.8c-0.1,0-0.9,0-1,0c0,0,0,0.1,0,0.1c-0.5,2-3.4,2.5-4.7,2.6v0.9C26.8,28.2,30.5,27.7,31,24.8C31,24.9,31,24.8,31,24.8
			 M18.3,24.8C18.3,24.8,18.3,24.9,18.3,24.8c0.5,2.9,4.1,3.4,5.7,3.5v-0.9c-1.3-0.1-4.2-0.5-4.7-2.6c0,0,0,0,0,0L18.3,24.8
			L18.3,24.8z M41.4,24.8V30l-0.2,0c-1.4-0.1-2.4-0.6-3.1-1.6h-1.1c0.9,1.6,2.6,2.5,4.8,2.5h0.4v-6.1H41.4z M32.3,24.8v6.1h1v-5.2
			l0.2,0c1.4,0.1,2.4,0.6,3.1,1.6h1.1c-0.9-1.7-2.6-2.6-4.8-2.6L32.3,24.8L32.3,24.8z M24,30.9h1.2v-2.6H24V30.9z M11,28.4
			C10.2,29.4,9,30,7.4,30c0,0-2.7,0-2.8,0c0,0.1-0.2,0.6-0.2,0.9c0.2,0,3.1,0,3.1,0c2.2,0,3.9-0.9,4.8-2.6L11,28.4L11,28.4z
			 M44.3,29.4L44.3,29.4c1.1,1.1,3.4,1.6,6.9,1.6l2.7-0.1c0,0,0,0,0.1,0v-0.9c0,0-0.1,0-0.1,0l-2.7,0.1c-4,0-5.6-0.7-6.2-1.4
			c-0.1-0.1-0.2-0.3-0.2-0.4h-1C43.8,28.8,44,29.1,44.3,29.4"/>
		<path fill="#5D6162" d="M39.9,31.7c0,0-0.1,0.3-0.1,0.4h0.7c0,0,0.1-0.3,0.1-0.4H39.9z M38.4,31.7c0,0-0.8,1.7-0.8,1.7
			s-0.1-1.6-0.1-1.7h-1.1c0,0.1-0.6,2.7-0.6,2.8h0.8c0-0.1,0.4-1.5,0.4-1.5l0.1,0c0,0,0,1.4,0,1.5c0.1,0,0.5,0,0.5,0
			c0,0,0.7-1.5,0.7-1.5l0.1,0c0,0-0.3,1.4-0.3,1.5h0.7c0-0.1,0.6-2.7,0.6-2.8L38.4,31.7L38.4,31.7z M51.5,31.8
			c-0.3,0-0.4,0.3-0.4,0.3L51,32.5h-0.3c0,0-0.1,0.4-0.1,0.4h0.3c0,0-0.4,1.5-0.4,1.6h0.7c0-0.1,0.4-1.6,0.4-1.6H52L51.7,34
			c0,0,0,0.2,0.1,0.3c0.1,0.1,0.1,0.1,0.3,0.1h0.5c0,0,0.1-0.4,0.1-0.5h-0.1c0,0-0.1,0-0.2,0c0,0,0-0.1,0-0.1c0,0,0,0,0-0.1l0.2-0.9
			h0.3c0,0,0.1-0.3,0.1-0.4h-0.3c0,0,0.1-0.4,0.1-0.5h-0.6c0,0-0.1,0.5-0.1,0.5h-0.4l0-0.2c0,0,0-0.1,0.2-0.2c0,0,0.1-0.3,0.1-0.3
			L51.5,31.8L51.5,31.8z M48.7,32.8c-0.4,0.5-0.5,1.2-0.1,1.6c0.2,0.1,0.4,0.2,0.6,0.2c0.4,0,0.7-0.1,1-0.4c0.2-0.3,0.4-0.6,0.4-0.9
			c0-0.1,0-0.2-0.1-0.3l0,0c0-0.1-0.1-0.2-0.2-0.3c-0.1-0.1-0.3-0.2-0.6-0.2c0,0-0.2,0-0.2,0C49.2,32.4,48.9,32.5,48.7,32.8
			 M49.3,34.1L49.3,34.1c-0.2-0.1-0.3-0.4-0.1-0.7s0.4-0.6,0.6-0.5c0.2,0.1,0.3,0.4,0.1,0.7C49.7,33.9,49.5,34.1,49.3,34.1
			 M45.1,32.4c-0.3,0-0.6,0.2-0.9,0.4L44.1,33l-0.1,0c0,0,0.1-0.5,0.1-0.6c-0.3,0-0.5,0.2-0.6,0.2l-0.1,0.1c0,0,0-0.2,0.1-0.3h-0.7
			c0,0.1-0.4,1.9-0.4,2h0.7c0-0.1,0.2-1.1,0.2-1.1c0.1-0.1,0.3-0.4,0.6-0.4l0.1,0l0,0.1c-0.2,0.5-0.2,1,0.1,1.3
			c0.2,0.1,0.4,0.2,0.6,0.2c0.4,0,0.7-0.1,1-0.4c0.1-0.1,0.1-0.1,0.1-0.2l0.1,0c0,0.1,0,0.2,0,0.3c0.1,0.2,0.4,0.3,0.5,0.4
			c0.1,0,0.3,0,0.5,0c0.2,0,0.3,0,0.6-0.1c0.2-0.1,0.4-0.3,0.4-0.4l0.1-0.2l-0.1,0.2c0-0.2-0.1-0.7-0.2-0.7
			c-0.1-0.1-0.2-0.1-0.5-0.1c-0.2,0-0.3-0.1-0.3-0.1c0,0,0-0.1,0-0.1c0,0,0,0,0,0c0-0.1,0.1-0.1,0.2-0.2c0.1,0,0.2,0,0.3,0
			c0.1,0,0.1,0.2,0.1,0.2c0,0,0,0.1,0,0.1h0.7c0,0,0-0.2,0-0.2c0,0,0-0.4-0.7-0.4l-0.4,0c-0.7,0.1-0.7,0.5-0.7,0.5
			c0,0,0,0.3,0.1,0.4c0,0,0.2,0.2,0.5,0.2c0,0,0.3,0.1,0.4,0.2c0,0,0,0,0,0.2c0,0.1-0.1,0.2-0.3,0.2c-0.1,0-0.2,0-0.3-0.1
			c-0.1-0.1-0.1-0.1-0.1-0.2c0,0,0,0,0,0h-1.2l0-0.1c0,0,0.6-0.2,0.7-0.2c0-0.1,0-0.2,0-0.3c0-0.3-0.1-0.5-0.3-0.7
			c-0.1-0.1-0.3-0.2-0.6-0.2L45.1,32.4L45.1,32.4z M44.8,34.1L44.8,34.1c-0.2-0.1-0.3-0.4-0.1-0.7c0.1-0.4,0.4-0.6,0.6-0.5
			c0.1,0,0.1,0.1,0.1,0.1c0.1,0.1,0.1,0.4,0,0.6C45.3,33.9,45,34.1,44.8,34.1 M40.7,32.8c-0.2,0.3-0.3,0.6-0.3,0.9
			c0,0.3,0.1,0.5,0.3,0.7c0.2,0.2,0.4,0.2,0.7,0.2c0.3,0,0.6-0.2,0.8-0.4c0.1-0.1,0.1-0.2,0.2-0.4h-0.6c-0.1,0.2-0.3,0.3-0.5,0.3
			L41.1,34c-0.1-0.1-0.1-0.4,0-0.6c0.1-0.3,0.4-0.5,0.5-0.5c0.2,0,0.2,0.1,0.2,0.2c0,0,0,0.1,0,0.1h0.6c0-0.3-0.1-0.5-0.3-0.6
			C41.8,32.3,41.2,32.3,40.7,32.8 M39.7,32.5c0,0.1-0.4,2-0.4,2h0.7c0-0.1,0.4-2,0.4-2H39.7z"/>
		<path fill="#5D6162" d="M53.3,32.4v-0.3h0.1c0,0,0,0,0.1,0c0,0,0,0,0,0c0,0,0,0,0,0c0,0,0,0,0,0.1c0,0,0,0-0.1,0c0,0,0,0,0,0
			c0,0,0,0,0,0l0.1,0.1h-0.1l0-0.1c0,0,0,0,0,0l0,0l0,0c0,0,0,0,0,0h0L53.3,32.4L53.3,32.4z M53.3,32.2L53.3,32.2c0.1,0,0.1,0,0.1,0
			c0,0,0,0,0,0c0,0,0,0,0,0c0,0,0,0,0,0c0,0,0,0-0.1,0h-0.1L53.3,32.2L53.3,32.2z"/>
		<path fill="#5D6162" d="M53.2,32.3c0,0.1,0.1,0.3,0.3,0.3c0.1,0,0.3-0.1,0.3-0.3S53.6,32,53.4,32C53.3,32,53.2,32.1,53.2,32.3
			 M53.2,32.3c0-0.1,0.1-0.2,0.2-0.2c0.1,0,0.2,0.1,0.2,0.2c0,0.1-0.1,0.2-0.2,0.2C53.3,32.5,53.2,32.4,53.2,32.3"/>
		<path fill="#5D6162" d="M54.9,25.4v-0.6h0.3c0.1,0,0.1,0,0.1,0c0,0,0.1,0,0.1,0.1c0,0,0,0.1,0,0.1c0,0,0,0.1,0,0.1
			c0,0-0.1,0-0.1,0.1c0,0,0,0,0.1,0c0,0,0,0.1,0.1,0.1l0.1,0.2h-0.1l-0.1-0.1c0,0,0-0.1-0.1-0.1l0,0l0,0c0,0,0,0,0,0H55L54.9,25.4
			L54.9,25.4L54.9,25.4z M55,25.1h0.2c0,0,0.1,0,0.1,0c0,0,0,0,0,0c0,0,0,0,0-0.1c0,0,0-0.1,0-0.1c0,0-0.1,0-0.1,0H55V25.1z"/>
		<path fill="#5D6162" d="M54.6,25.1c0,0.3,0.2,0.5,0.5,0.5c0.3,0,0.5-0.2,0.5-0.5c0-0.3-0.2-0.5-0.5-0.5
			C54.9,24.6,54.6,24.8,54.6,25.1 M54.7,25.1c0-0.2,0.2-0.4,0.4-0.4c0.2,0,0.4,0.2,0.4,0.4c0,0.2-0.2,0.4-0.4,0.4
			C54.9,25.6,54.7,25.4,54.7,25.1"/>
		<text transform="matrix(1 0 0 1 27.4727 32.7305)" fill="#5D6162" font-family="'FordAntenna-RegularItalic'" font-size="1.4379">p</text>
		<text transform="matrix(1 0 0 1 28.3877 32.7305)" fill="#5D6162" font-family="'FordAntenna-RegularItalic'" font-size="1.4379">o</text>
		<text transform="matrix(1 0 0 1 29.2397 32.7305)" fill="#5D6162" font-family="'FordAntenna-RegularItalic'" font-size="1.4379">w</text>
		<text transform="matrix(1 0 0 1 30.4668 32.7305)" fill="#5D6162" font-family="'FordAntenna-RegularItalic'" font-size="1.4379">e</text>
		<text transform="matrix(1 0 0 1 31.3008 32.7305)" fill="#5D6162" font-family="'FordAntenna-RegularItalic'" font-size="1.4379">r</text>
		<text transform="matrix(1 0 0 1 31.792 32.7305)" fill="#5D6162" font-family="'FordAntenna-RegularItalic'" font-size="1.4379">e</text>
		<text transform="matrix(1 0 0 1 32.6172 32.7305)" fill="#5D6162" font-family="'FordAntenna-RegularItalic'" font-size="1.4379">d </text>
		<text transform="matrix(1 0 0 1 33.8633 32.7305)" fill="#5D6162" font-family="'FordAntenna-RegularItalic'" font-size="1.4379">b</text>
		<text transform="matrix(1 0 0 1 34.7402 32.7305)" fill="#5D6162" font-family="'FordAntenna-RegularItalic'" font-size="1.4379">y</text>
	</g>
</g>
<g id="Torque_Vectoring_Control" display="none">
	<g display="inline">
		<g id="XMLID_15_">
			<g>
				<path fill="#5D6162" d="M54.9,28.5v1.6c0,0.3-0.2,0.5-0.5,0.5h-0.6V28h0.6C54.6,28,54.9,28.2,54.9,28.5z"/>
				<path fill="#5D6162" d="M53.3,25.5v7.6c0,1-0.8,1.8-1.7,1.8V23.7C52.5,23.7,53.3,24.5,53.3,25.5z"/>
				<rect x="49.6" y="26.4" fill="#5D6162" width="1.5" height="5.7"/>
				<path fill="#5D6162" d="M49.1,28.4v1.8h-9.5v-1.8H49.1z M48.5,29.5v-0.7h-6L48.5,29.5z"/>
				<path fill="#5D6162" d="M39.1,29.3v1.5c0,0,0,0-1.5,0c-1.5,0-3.4,1.8-3.4,1.8c-1,1.2-2.5,2-4.2,2c-1.8,0-3.4-0.9-4.4-2.3
					c-0.6-0.5-1.9-1.5-3.1-1.5c-1.5,0-1.5,0-1.5,0v-1.5v-1.5c0,0,0,0,1.5,0c1.1,0,2.5-1,3.1-1.5c1-1.4,2.6-2.3,4.4-2.3
					c1.7,0,3.2,0.8,4.2,2c0,0,1.9,1.8,3.4,1.8c1.5,0,1.5,0,1.5,0V29.3z M33.2,29.3c0-1.7-1.4-3.1-3.1-3.1c0,0,0,0,0,0
					c-1.7,0-3.1,1.4-3.1,3.1c0,1.7,1.4,3.1,3.1,3.1c0,0,0,0,0,0C31.8,32.4,33.2,31,33.2,29.3z"/>
				<circle fill="#5D6162" cx="32.4" cy="29.3" r="0.5"/>
				<circle fill="#5D6162" cx="30.1" cy="29.3" r="1.7"/>
				<circle fill="#5D6162" cx="30.1" cy="26.8" r="0.5"/>
				<circle fill="#5D6162" cx="30.1" cy="31.8" r="0.5"/>
				<circle fill="#5D6162" cx="27.6" cy="29.3" r="0.5"/>
				<path fill="#5D6162" d="M20.6,28.3V30H11v-1.8H20.6z M11.5,29.4l6-0.7h-6V29.4z"/>
				<rect x="9" y="26.3" fill="#5D6162" width="1.5" height="5.7"/>
				<path fill="#5D6162" d="M8.5,23.6v11.1c-1,0-1.7-0.8-1.7-1.8v-7.6C6.8,24.4,7.6,23.6,8.5,23.6z"/>
				<path fill="#5D6162" d="M6.3,27.8v2.6H5.7c-0.3,0-0.5-0.2-0.5-0.5v-1.6c0-0.3,0.2-0.5,0.5-0.5H6.3z"/>
			</g>
		</g>
	</g>
</g>
<g id="ANCAP" display="none">
	<g display="inline">
		<path fill="#666766" d="M29.3,27.7l1.5,4.2h-1.1l-0.2-0.7H28l-0.2,0.7h-1.1l1.6-4.2H29.3z M28.7,28.7c-0.1,0.2-0.1,0.4-0.2,0.6
			c-0.1,0.3-0.2,0.8-0.3,1.1h1.1L28.7,28.7z"/>
		<path fill="#666766" d="M33.1,27.7h1l0.9,1.5c0.3,0.6,0.4,0.8,0.6,1.1l0-2.7h1v4.2h-1l-0.8-1.3c-0.4-0.6-0.5-0.8-0.7-1.3l0,2.6h-1
			V27.7z"/>
		<path fill="#666766" d="M42.9,31c-0.2,0.2-0.3,0.5-0.6,0.7c-0.2,0.1-0.6,0.4-1.2,0.4c-1.1,0-2-0.8-2-2.2c0-1.2,0.8-2.2,2-2.2
			c0.5,0,0.9,0.2,1.2,0.4c0.3,0.2,0.4,0.5,0.5,0.7L42,29.1c-0.1-0.1-0.1-0.3-0.3-0.4c-0.2-0.2-0.4-0.2-0.6-0.2c-0.7,0-1,0.6-1,1.3
			c0,0.9,0.5,1.4,1,1.4c0.5,0,0.8-0.4,0.9-0.6L42.9,31z"/>
		<path fill="#666766" d="M47.4,27.7l1.5,4.2h-1.1l-0.2-0.7h-1.5l-0.2,0.7h-1.1l1.6-4.2H47.4z M46.8,28.7c-0.1,0.2-0.1,0.4-0.2,0.6
			c-0.1,0.3-0.3,0.8-0.3,1.1h1.1L46.8,28.7z"/>
		<path fill="#666766" d="M51.2,27.7h1.7c0.7,0,1.3,0,1.7,0.5c0.2,0.2,0.2,0.6,0.2,0.9c0,0.2,0,0.5-0.1,0.7
			c-0.4,0.7-1.1,0.8-1.7,0.8h-0.7v1.4h-1.1V27.7z M52.3,28.5v1.3h0.6c0.4,0,0.9,0,0.9-0.7c0-0.6-0.5-0.6-0.8-0.6H52.3z"/>
	</g>
	<line display="inline" fill="#FFFFFF" stroke="#666766" stroke-width="0.5" x1="26.7" y1="33.5" x2="54.8" y2="33.5"/>
	<g display="inline">
		<path fill="#666766" d="M24,31.9c0-3.3-2.6-5.9-5.9-5.9v5.9H24z"/>
		<path fill="none" stroke="#5D6162" stroke-width="0.25" stroke-miterlimit="10" d="M18.1,37.7c3.3-0.1,5.8-2.5,5.8-5.7l-5.8,0
			V37.7z"/>
		<path fill="#666766" d="M12.2,31.9c0,3.3,2.6,5.9,5.9,5.9v-5.9H12.2z"/>
		<path fill="none" stroke="#5D6162" stroke-width="0.25" stroke-miterlimit="10" d="M18.1,26.1c-3.1,0-5.7,2.5-5.8,5.8l5.8,0V26.1z
			"/>
	</g>
	<g display="inline">
		<path fill="#666766" d="M28.3,35.7c-0.1-0.3-0.3-0.5-0.6-0.5c-0.3,0-0.5,0.2-0.5,0.4c0,0.6,1.5,0.4,1.5,1.3c0,0.4-0.2,0.8-0.9,0.8
			c-0.6,0-0.8-0.4-1-0.7l0.3-0.1c0.1,0.3,0.3,0.6,0.7,0.6c0.4,0,0.6-0.2,0.6-0.5c0-0.7-1.5-0.5-1.5-1.4c0-0.4,0.3-0.7,0.8-0.7
			c0.4,0,0.8,0.2,0.9,0.7L28.3,35.7z"/>
		<path fill="#666766" d="M28.9,36.2c0.1-0.2,0.4-0.4,0.7-0.4c0.3,0,0.7,0.2,0.7,0.6v1c0,0.2,0,0.3,0,0.4h-0.3l0-0.3
			c-0.1,0.2-0.4,0.3-0.6,0.3c-0.3,0-0.6-0.2-0.6-0.5c0-0.4,0.3-0.6,1.2-0.8v-0.1c0-0.3-0.2-0.4-0.4-0.4c-0.3,0-0.4,0.2-0.5,0.3
			L28.9,36.2z M30,36.7c-0.6,0.1-0.9,0.3-0.9,0.6c0,0.2,0.2,0.3,0.3,0.3c0.2,0,0.4-0.1,0.6-0.3V36.7z"/>
		<path fill="#666766" d="M30.8,37.8V36h-0.3v-0.2h0.3v-0.2c0-0.5,0.2-0.6,0.5-0.6c0.1,0,0.2,0,0.2,0v0.2c-0.1,0-0.1,0-0.2,0
			c-0.2,0-0.3,0.1-0.3,0.3v0.3h0.4V36h-0.4v1.7H30.8z"/>
		<path fill="#666766" d="M33.2,37.3c-0.1,0.2-0.3,0.5-0.8,0.5c-0.4,0-0.9-0.3-0.9-1c0-0.6,0.3-1,0.8-1c0.4,0,0.7,0.3,0.7,0.9v0.2
			h-1.3c0,0.4,0.3,0.7,0.6,0.7c0.2,0,0.4-0.1,0.5-0.3L33.2,37.3z M32.9,36.6c0-0.4-0.2-0.6-0.5-0.6c-0.3,0-0.5,0.2-0.5,0.6H32.9z"/>
		<path fill="#666766" d="M33.6,35.8v-0.6h0.3v0.6h0.5V36h-0.5v1.4c0,0.1,0.1,0.1,0.2,0.1c0.1,0,0.2,0,0.2,0v0.2c0,0-0.2,0-0.3,0
			c-0.3,0-0.4-0.1-0.4-0.3V36h-0.3v-0.2H33.6z"/>
		<path fill="#666766" d="M36.1,35.8l-0.7,2.1c-0.1,0.4-0.4,0.6-0.7,0.6c-0.1,0-0.1,0-0.2,0v-0.2c0,0,0.1,0,0.1,0
			c0.2,0,0.4,0,0.5-0.5l-0.7-2h0.3l0.5,1.5h0l0.5-1.5H36.1z"/>
	</g>
	<g display="inline">
		<polygon fill="#666766" points="40,35.8 39,36.5 39.4,37.7 38.4,37 37.5,37.7 37.8,36.5 36.9,35.8 38.1,35.8 38.4,34.7 38.8,35.8 
					"/>
		<polygon fill="#666766" points="43.8,35.8 42.8,36.5 43.2,37.7 42.2,37 41.3,37.7 41.6,36.5 40.7,35.8 41.8,35.8 42.2,34.7 
			42.6,35.8 		"/>
		<polygon fill="#666766" points="47.6,35.8 46.6,36.5 47,37.7 46,37 45,37.7 45.4,36.5 44.4,35.8 45.6,35.8 46,34.7 46.4,35.8 		
			"/>
		<polygon fill="#666766" points="51.3,35.8 50.4,36.5 50.8,37.7 49.8,37 48.8,37.7 49.2,36.5 48.2,35.8 49.4,35.8 49.8,34.7 
			50.2,35.8 		"/>
		<polygon fill="#666766" points="55.1,35.8 54.2,36.5 54.5,37.7 53.6,37 52.6,37.7 53,36.5 52,35.8 53.2,35.8 53.6,34.7 53.9,35.8 
					"/>
	</g>
</g>
</svg>
