<?xml version="1.0" standalone="no"?>
<!DOCTYPE svg PUBLIC "-//W3C//DTD SVG 1.1//EN" "http://www.w3.org/Graphics/SVG/1.1/DTD/svg11.dtd" >
<svg xmlns="http://www.w3.org/2000/svg" xmlns:xlink="http://www.w3.org/1999/xlink" version="1.1">
<metadata></metadata>
<defs>
<font id="superstore.regularregular" horiz-adv-x="358" >
<font-face units-per-em="2048" ascent="1638" descent="-410" />
<missing-glyph horiz-adv-x="378" />
<glyph unicode="&#x3b;&#x3b;For&#x20;Education&#x20;Used&#x20;Only&#x3b;&#x3b;" horiz-adv-x="1269" d="M113 512q0 109 41 204t111.5 165.5t165.5 111.5t204 41t204 -41t165.5 -111.5t111.5 -165.5t41 -204t-41 -204t-111.5 -165.5t-166 -111.5t-203.5 -41q-109 0 -204 41t-165.5 111.5t-111.5 165.5t-41 204zM211 512q0 -84 35 -161t93 -135t135 -93t161 -35t160.5 35 t135 93t93.5 135t35 161t-35 161t-93.5 135t-135 93t-160.5 35t-161 -35t-135 -93t-93 -135t-35 -161zM362 444v127q0 84 22 135.5t59.5 79t89 36.5t108.5 9q45 0 97.5 -5t121.5 -35l-24 -89q-51 29 -103.5 33t-75.5 4q-29 0 -62.5 -3t-62 -18.5t-48 -49t-19.5 -97.5v-127 q0 -63 19.5 -97t48 -49t62.5 -18.5t62 -3.5q23 0 75 4.5t104 32.5l24 -88q-70 -31 -122 -36t-97 -5q-57 0 -108.5 8.5t-89 36t-59.5 78.5t-22 137z" />
<glyph unicode="&#x3b;&#x3b;Registered&#x3b;&#x3b;" horiz-adv-x="1269" d="M113 512q0 109 41 204t111.5 165.5t165.5 111.5t204 41t204 -41t165.5 -111.5t111.5 -165.5t41 -204t-41 -204t-111.5 -165.5t-166 -111.5t-203.5 -41q-109 0 -204 41t-165.5 111.5t-111.5 165.5t-41 204zM211 512q0 -84 35 -161t93 -135t135 -93t161 -35t160.5 35 t135 93t93.5 135t35 161t-35 161t-93.5 135t-135 93t-160.5 35t-161 -35t-135 -93t-93 -135t-35 -161zM420 215v610h301q80 0 118 -54t38 -148q0 -78 -27 -129.5t-74 -67.5l92 -211h-102l-88 203h-156v-203h-102zM522 502h180q49 0 60.5 35.5t11.5 85.5q0 47 -11 81.5 t-61 34.5h-180v-237z" />
<glyph unicode="&#x3b;&#x3b;Multiply&#x3b;&#x3b;" horiz-adv-x="849" d="M106 176l224 223l-219 217l94 95l219 -217l221 221l94 -94l-223 -222l219 -219l-94 -94l-217 219l-223 -221z" />
<glyph unicode="&#x3b;&#x3b;Divide&#x3b;&#x3b;" horiz-adv-x="985" d="M113 340v119h759v-119h-759zM416 164q0 31 22.5 54.5t50.5 23.5q31 0 54.5 -23.5t23.5 -54.5q0 -29 -23.5 -51.5t-54.5 -22.5q-29 0 -51 22.5t-22 51.5zM416 631q0 31 22.5 54.5t50.5 23.5q31 0 54.5 -23.5t23.5 -54.5q0 -29 -23.5 -51.5t-54.5 -22.5q-29 0 -51 22.5 t-22 51.5z" />
<glyph unicode="&#x2018;&#x2018;" horiz-adv-x="616" d="M113 870l114 232h80l-78 -232h-116zM309 870l115 232h80l-78 -232h-117z" />
<glyph unicode="&#x2019;&#x2019;" horiz-adv-x="616" d="M113 870l77 232h117l-114 -232h-80zM309 870l78 232h117l-115 -232h-80z" />
<glyph unicode="&#x3b;&#x3b;Trademark&#x3b;&#x3b;" horiz-adv-x="1404" d="M113 940v84h471v-84h-185v-551h-102v551h-184zM647 389v635h178l144 -555l145 555h178v-635h-102v580l-150 -580h-139l-151 580v-580h-103z" />
<glyph horiz-adv-x="0" />
<glyph unicode="&#xd;" horiz-adv-x="579" />
<glyph unicode=" "  horiz-adv-x="378" />
<glyph unicode="&#x09;" horiz-adv-x="378" />
<glyph unicode="&#xa0;" horiz-adv-x="378" />
<glyph unicode="!" d="M102 63q0 31 22.5 54.5t51.5 23.5q31 0 54.5 -23.5t23.5 -54.5q0 -29 -23.5 -51t-54.5 -22q-29 0 -51.5 22t-22.5 51zM113 1024h133q-2 -111 -4 -206t-3 -187t-2 -187.5t-1 -207.5h-113q0 113 -1 208t-2 187t-3 187t-4 206z" />
<glyph unicode="&#x22;" horiz-adv-x="557" d="M113 1102h133l-27 -232h-80zM311 1102h133l-26 -232h-80z" />
<glyph unicode="#" horiz-adv-x="1263" d="M113 276v119h153l88 256h-129v119h168l86 254h133l-86 -254h365l86 254h133l-86 -254h127v-119h-166l-88 -256h141v-119h-180l-94 -276h-133l94 276h-365l-94 -276h-133l94 276h-114zM399 395h365l88 256h-365z" />
<glyph unicode="$" horiz-adv-x="962" d="M104 117l101 76q43 -35 89 -53.5t93 -24.5v354q-53 14 -102 35.5t-88 52.5t-61.5 76t-22.5 106q0 63 22.5 114.5t60 89.5t87 60.5t104.5 30.5v113h133v-113q74 -4 146.5 -18.5t119.5 -40.5l-57 -103q-39 18 -96.5 27.5t-112.5 13.5v-329q59 -18 118.5 -41t107 -55.5 t76 -80t28.5 -112.5q0 -86 -27.5 -143.5t-74 -92t-105.5 -51t-123 -18.5v-103h-133v103q-84 8 -158.5 35.5t-124.5 91.5zM246 739q0 -43 40 -68.5t101 -47.5v286q-59 -10 -100 -51t-41 -119zM520 111q37 4 72 16t62.5 35.5t45 56.5t17.5 76q0 57 -57.5 86t-139.5 51v-321z " />
<glyph unicode="%" horiz-adv-x="1204" d="M113 707v176q0 78 56 115.5t128 37.5t128 -37.5t56 -115.5v-176q0 -86 -53 -120t-131 -34t-131 34t-53 120zM141 0h168l754 1024h-168zM221 707q0 -29 9.5 -44.5t66.5 -15.5t66.5 15.5t9.5 44.5v176q0 10 -1 20t-8.5 19.5t-22.5 15.5t-44 6t-44 -6t-22.5 -15.5 t-8.5 -19.5t-1 -20v-176zM723 154v176q0 78 56.5 115.5t127.5 37.5q72 0 128.5 -37.5t56.5 -115.5v-176q0 -86 -53.5 -120t-131.5 -34t-131 34t-53 120zM831 154q0 -29 9.5 -44.5t66.5 -15.5t66.5 15.5t9.5 44.5v176q0 10 -1 20t-8 19.5t-22.5 15.5t-44.5 6t-44 -6 t-22 -15.5t-8.5 -19.5t-1.5 -20v-176z" />
<glyph unicode="&#x26;" horiz-adv-x="1081" d="M113 301q0 49 17 86t48 64.5t70 47t82 36.5q-33 55 -50.5 112.5t-17.5 116.5q0 68 12.5 118t43 83.5t82 51t128.5 17.5q78 0 129.5 -17.5t82 -51t43 -84t12.5 -117.5q0 -59 -25 -101t-64.5 -73t-91 -53.5t-102.5 -40.5q51 -63 119.5 -130t150.5 -147q25 39 39.5 95.5 t14.5 136.5h133q0 -113 -27 -191t-68 -131l125 -129h-149l-57 55q-66 -41 -135.5 -53t-129.5 -12q-74 0 -148.5 9t-134 41t-96 93.5t-36.5 167.5zM246 301q0 -72 18.5 -110.5t54 -57t87.5 -21.5t120 -3q45 0 89 5t85 27q-82 72 -162.5 149t-146.5 159q-63 -27 -104 -61 t-41 -87zM395 764q0 -49 14.5 -94t43.5 -92q43 14 80.5 30.5t66.5 38t45.5 50t16.5 67.5q0 47 -2.5 76.5t-15.5 46t-39.5 22.5t-76.5 6q-49 0 -75.5 -6t-40 -22.5t-15.5 -46t-2 -76.5z" />
<glyph unicode="'" d="M113 1102h133l-27 -232h-80z" />
<glyph unicode="(" horiz-adv-x="464" d="M113 524q0 61 6 141t19.5 163t32.5 163t48 142h133q-23 -63 -42 -144.5t-33.5 -164.5t-22.5 -163.5t-8 -144.5q0 -66 8 -146.5t22.5 -165.5t34 -167t41.5 -146h-133q-27 66 -46 149t-32.5 169t-20.5 168t-7 147z" />
<glyph unicode=")" horiz-adv-x="464" d="M113 -109q23 63 42 145.5t33.5 167.5t22.5 166t8 146q0 63 -8 144t-22.5 164t-34 164t-41.5 145h133q27 -61 47 -141.5t33.5 -163.5t19.5 -162.5t6 -141.5q0 -66 -7 -147.5t-20.5 -167.5t-33 -169t-45.5 -149h-133z" />
<glyph unicode="*" horiz-adv-x="768" d="M113 825l24 123l219 -78l-34 232h124l-34 -232l219 78l24 -123l-233 -10l166 -166l-101 -74l-102 193l-104 -193l-101 74l166 166z" />
<glyph unicode="+" horiz-adv-x="985" d="M113 340v119h313v317h133v-317h313v-119h-313v-317h-133v317h-313z" />
<glyph unicode="," d="M113 119h133v-232l-133 -55v287z" />
<glyph unicode="-" horiz-adv-x="851" d="M113 340v119h626v-119h-626z" />
<glyph unicode="." horiz-adv-x="376" d="M113 63q0 31 22.5 54.5t50.5 23.5q31 0 54.5 -23.5t23.5 -54.5q0 -29 -23.5 -51t-54.5 -22q-29 0 -51 22t-22 51z" />
<glyph unicode="/" horiz-adv-x="770" d="M61 0l514 1133h134l-514 -1133h-134z" />
<glyph unicode="0" horiz-adv-x="946" d="M102 326v419q0 156 92.5 222.5t278.5 66.5t278.5 -66.5t92.5 -222.5v-419q0 -182 -92.5 -259t-278.5 -77q-188 0 -279.5 76.5t-91.5 259.5zM236 326q0 -74 19 -117t52 -65.5t76 -28.5t90 -6t90 6t76 28.5t52.5 65.5t19.5 117v419q0 59 -19.5 93t-52.5 51.5t-76 21.5 t-90 4t-90 -4t-76 -21.5t-52 -51t-19 -93.5v-419z" />
<glyph unicode="1" horiz-adv-x="602" d="M82 887l274 137h133v-1024h-133v895l-221 -117z" />
<glyph unicode="2" horiz-adv-x="870" d="M92 0v119q0 78 39 139t97.5 113.5t127 97.5t127 86t97 82t38.5 86v80q0 39 -16 61.5t-44 33.5t-63.5 14t-72.5 3t-73 -3t-63.5 -14t-44 -33.5t-16.5 -61.5v-29h-133v29q0 125 90 178t240 53t240 -53t90 -178v-80q0 -66 -39 -121t-97.5 -105.5t-127 -96.5t-127 -92 t-97.5 -92t-39 -97h543v-119h-676z" />
<glyph unicode="3" horiz-adv-x="854" d="M82 260v21h133v-21q0 -41 16.5 -69.5t44 -47t62.5 -26.5t74 -8t73.5 8t62 26.5t44 47t16.5 69.5v80q0 37 -15 58.5t-41 33.5t-58.5 16.5t-67.5 4.5h-123v118h123q72 0 127 37t55 115v80q0 39 -16.5 61.5t-44 33.5t-63 14t-72.5 3t-73 -3t-63.5 -14t-44 -33.5t-16.5 -61.5 v-29h-133v29q0 125 90 178t240 53t239.5 -53t89.5 -178v-80q0 -137 -90 -205q90 -57 90 -178v-80q0 -141 -89 -205.5t-240 -64.5q-168 0 -249 71.5t-81 198.5z" />
<glyph unicode="4" horiz-adv-x="845" d="M31 281v118l463 625h149v-625h141v-118h-141v-281h-133v281h-479zM180 399h330v441z" />
<glyph unicode="5" horiz-adv-x="874" d="M102 260h134q0 -41 16 -69.5t44 -47t62.5 -26.5t73.5 -8t74 8t62.5 26.5t44 47t16.5 69.5v176q0 39 -16.5 61.5t-44 34t-63.5 14.5t-73 3t-72.5 -3t-63.5 -14.5t-44 -34t-16 -61.5h-134v588h635v-119h-501v-270q78 33 196 33q150 0 240 -53.5t90 -178.5v-176 q0 -141 -89 -205.5t-241 -64.5q-168 0 -249 71.5t-81 198.5z" />
<glyph unicode="6" horiz-adv-x="843" d="M92 260v133q0 49 14 84l209 547h142l-158 -414q31 8 57.5 11.5t65.5 3.5q150 0 240 -53.5t90 -178.5v-133q0 -141 -89.5 -205.5t-240.5 -64.5q-168 0 -249 71.5t-81 198.5zM225 260q0 -41 16.5 -69.5t44 -47t62.5 -26.5t74 -8t73.5 8t62.5 26.5t44 47t16 69.5v133 q0 39 -16 61.5t-44 34t-63.5 14.5t-72.5 3t-73 -3t-63.5 -14.5t-44 -34t-16.5 -61.5v-133z" />
<glyph unicode="7" horiz-adv-x="737" d="M31 905v119h624v-119l-338 -905h-139l338 905h-485z" />
<glyph unicode="8" horiz-adv-x="884" d="M113 260v80q0 121 88 178q-88 70 -88 205v80q0 125 90 178t239 53q150 0 240 -53t90 -178v-80q0 -137 -90 -205q90 -57 90 -178v-80q0 -141 -89 -205.5t-241 -64.5q-168 0 -248.5 71.5t-80.5 198.5zM246 260q0 -41 16.5 -69.5t44 -47t62 -26.5t73.5 -8t74 8t62.5 26.5 t44 47t16.5 69.5v80q0 37 -15.5 58.5t-41 33.5t-58 16.5t-67.5 4.5h-15q-37 0 -72.5 -3.5t-63 -14.5t-44 -33.5t-16.5 -61.5v-80zM246 723q0 -41 16.5 -69.5t44 -47t62 -27t73.5 -8.5t74 8.5t62.5 27t44 47t16.5 69.5v80q0 39 -16.5 61.5t-44 33.5t-63.5 14t-73 3t-72.5 -3 t-63 -14t-44 -33.5t-16.5 -61.5v-80z" />
<glyph unicode="9" horiz-adv-x="802" d="M51 631v133q0 141 89 205.5t241 64.5q168 0 249 -71.5t81 -198.5v-133q0 -49 -15 -84l-209 -547h-141l158 414q-31 -8 -57.5 -11.5t-65.5 -3.5q-150 0 -240 53.5t-90 178.5zM184 631q0 -39 16.5 -61.5t44 -34t63.5 -14.5t73 -3t72.5 3t63.5 14.5t44.5 34t16.5 61.5v133 q0 41 -16.5 69.5t-44.5 47t-62.5 26.5t-73.5 8t-74 -8t-62.5 -26.5t-44 -47t-16.5 -69.5v-133z" />
<glyph unicode=":" horiz-adv-x="376" d="M113 63q0 31 22.5 54.5t50.5 23.5q31 0 54.5 -23.5t23.5 -54.5q0 -29 -23.5 -51t-54.5 -22q-29 0 -51 22t-22 51zM113 686q0 31 22.5 54.5t50.5 23.5q31 0 54.5 -23.5t23.5 -54.5q0 -29 -23.5 -51.5t-54.5 -22.5q-29 0 -51 22.5t-22 51.5z" />
<glyph unicode=";" horiz-adv-x="376" d="M113 686q0 31 22.5 54.5t50.5 23.5q31 0 54.5 -23.5t23.5 -54.5q0 -29 -23.5 -51.5t-54.5 -22.5q-29 0 -51 22.5t-22 51.5zM121 119h133v-232l-133 -55v287z" />
<glyph unicode="&#x3c;" horiz-adv-x="876" d="M113 324v145l651 309v-135l-508 -246l508 -247v-136z" />
<glyph unicode="=" horiz-adv-x="854" d="M115 190v119h626v-119h-626zM115 459v119h626v-119h-626z" />
<glyph unicode="&#x3e;" horiz-adv-x="876" d="M113 14v136l508 247l-508 246v135l651 -309v-145z" />
<glyph unicode="?" horiz-adv-x="768" d="M113 987q47 27 111.5 37t133.5 10q160 0 228.5 -59.5t68.5 -177.5q0 -80 -40 -122t-88 -75t-88 -65.5t-40 -94.5v-213h-133v213q0 59 19.5 99.5t47 68t61.5 47t61.5 39t47 43t19.5 60.5q0 63 -50 90.5t-114 27.5q-51 0 -104 -7t-94 -27zM258 63q0 31 22.5 54.5t51.5 23.5 q31 0 54.5 -23.5t23.5 -54.5q0 -29 -24 -51t-54 -22q-29 0 -51.5 22t-22.5 51z" />
<glyph unicode="@" horiz-adv-x="1148" d="M113 266v479q0 156 107.5 222.5t293.5 66.5h121q186 0 293.5 -66.5t107.5 -222.5v-745h-133v80q-23 -35 -56.5 -52.5t-68.5 -26.5t-62.5 -10t-33.5 -1q-82 0 -139.5 19.5t-93 56t-52 88t-16.5 114.5v176q0 125 86 178.5t235 53.5q4 0 28 -1t54.5 -5t62.5 -15.5t56 -29.5 v120q0 59 -24.5 93t-62.5 51.5t-86 21.5t-95 4h-121q-47 0 -95 -4t-86 -21.5t-62.5 -51t-24.5 -93.5v-479q0 -31 1 -58.5t7 -50t18.5 -35.5t34.5 -13h43v-109h-43q-72 0 -111.5 25.5t-58 64.5t-21.5 86t-3 90zM514 268q0 -80 47 -119.5t129 -39.5q45 0 84 10t67.5 26.5 t45 37t16.5 40.5v269q-12 23 -32.5 36t-48 19t-58.5 8t-62 2q-37 0 -71.5 -3t-60 -14.5t-41 -34t-15.5 -61.5v-176z" />
<glyph unicode="A" horiz-adv-x="978" d="M31 0l385 1024h145l387 -1024h-135l-102 279h-443l-102 -279h-135zM311 397h355l-179 484z" />
<glyph unicode="B" horiz-adv-x="954" d="M113 0v1024h508q125 0 178 -70.5t53 -220.5q0 -160 -61 -223q61 -63 61 -221q0 -150 -53.5 -219.5t-177.5 -69.5h-508zM246 119h375q39 0 61.5 12t33.5 34.5t14 54.5t3 69q0 72 -16.5 116t-81.5 48h-389v-334zM246 571h375q76 0 94 43t18 119q0 37 -3 69t-14 55.5 t-34 35.5t-61 12h-375v-334z" />
<glyph unicode="C" horiz-adv-x="978" d="M102 408v208q0 137 35 219.5t96.5 126.5t143.5 58t174 14q74 0 160 -8t196 -57l-41 -113q-41 23 -84 35t-83 17t-72.5 6t-51.5 1q-47 0 -105 -5t-110.5 -32.5t-88 -88t-35.5 -173.5v-208q0 -113 35.5 -173.5t88 -88t110.5 -32.5t105 -5q18 0 51 1t73 6t83 17t84 35 l41 -113q-111 -49 -196.5 -57t-159.5 -8q-92 0 -174 14t-143.5 58t-96.5 126t-35 220z" />
<glyph unicode="D" horiz-adv-x="995" d="M113 0v1024h331q92 0 174 -14.5t143.5 -58.5t96.5 -126t35 -219v-188q0 -137 -35 -219t-96.5 -126t-143 -58.5t-174.5 -14.5h-331zM246 119h174q47 0 105.5 5t110.5 32.5t88 88t36 173.5v188q0 113 -36 173.5t-88 88t-110.5 32.5t-105.5 5h-174v-786z" />
<glyph unicode="E" horiz-adv-x="882" d="M113 0v1024h678v-119h-545v-325h545v-119h-545v-342h545v-119h-678z" />
<glyph unicode="F" horiz-adv-x="835" d="M113 0v1024h671v-119h-538v-289h475v-118h-475v-498h-133z" />
<glyph unicode="G" horiz-adv-x="999" d="M102 408v208q0 137 35 219.5t96.5 126.5t143.5 58t174 14q74 0 160 -8t196 -57l-41 -113q-41 23 -84 35t-83 17t-72.5 6t-51.5 1q-47 0 -105 -5t-110.5 -32.5t-88 -88t-35.5 -173.5v-208q0 -113 35.5 -173.5t88 -88t110.5 -32.5t105 -5q29 0 83.5 3t115.5 19v289h-194 v119h327v-484q-111 -49 -196.5 -57t-159.5 -8q-92 0 -174 14t-143.5 58t-96.5 126t-35 220z" />
<glyph unicode="H" horiz-adv-x="1011" d="M113 0v1024h133v-444h520v444h133v-1024h-133v461h-520v-461h-133z" />
<glyph unicode="I" d="M113 0v1024h133v-1024h-133z" />
<glyph unicode="J" horiz-adv-x="745" d="M31 43l32 113q33 -18 68 -27.5t66.5 -13.5t57.5 -5t42 -1q37 0 75 3t68.5 23.5t50 64.5t19.5 126v698h133v-698q0 -111 -22.5 -176.5t-65.5 -101.5t-103.5 -47t-134.5 -11q-59 0 -128.5 6t-157.5 47z" />
<glyph unicode="K" horiz-adv-x="1017" d="M113 0v1024h133v-440l542 440h187l-344 -291l325 -733h-137l-289 653l-284 -225v-428h-133z" />
<glyph unicode="L" horiz-adv-x="813" d="M113 0v1024h133v-905h506v-119h-639z" />
<glyph unicode="M" horiz-adv-x="1232" d="M113 0v1024h237l266 -895l267 895h237v-1024h-133v936l-287 -936h-168l-286 936v-936h-133z" />
<glyph unicode="N" horiz-adv-x="1052" d="M113 0v1024h227l465 -895v895h135v-1024h-203l-491 936v-936h-133z" />
<glyph unicode="O" horiz-adv-x="1007" d="M102 326v419q0 156 107.5 222.5t294.5 66.5q186 0 293.5 -66.5t107.5 -222.5v-419q0 -92 -27.5 -156t-80 -103.5t-126 -58t-167.5 -18.5q-188 0 -295 76.5t-107 259.5zM236 326q0 -74 23.5 -117t62 -65.5t87 -28.5t95.5 -6t95 6t86 28.5t62.5 65.5t24.5 117v419 q0 59 -24.5 93t-62.5 51.5t-86 21.5t-95 4t-95.5 -4t-86 -21.5t-62 -51t-24.5 -93.5v-419z" />
<glyph unicode="P" horiz-adv-x="890" d="M113 0v1024h475q125 0 178 -86t53 -236t-53 -235.5t-178 -85.5h-342v-381h-133zM246 500h342q39 0 61.5 17.5t33.5 46t14 65.5t3 73q0 37 -3 74t-14 65.5t-33.5 46t-61.5 17.5h-342v-405z" />
<glyph unicode="Q" horiz-adv-x="1009" d="M102 326v419q0 156 107.5 222.5t294.5 66.5q186 0 293.5 -66.5t107.5 -222.5v-419q0 -119 -44 -192t-130 -107q63 -57 176 -58v-119q-16 0 -56 10.5t-85 30t-86 47t-55 60.5q-29 -4 -58.5 -6t-62.5 -2q-188 0 -295 76.5t-107 259.5zM236 326q0 -74 23.5 -117t62 -65.5 t87 -28.5t95.5 -6t95 6t86 28.5t62.5 65.5t24.5 117v419q0 59 -24.5 93t-62.5 51.5t-86 21.5t-95 4t-95.5 -4t-86 -21.5t-62 -51t-24.5 -93.5v-419z" />
<glyph unicode="R" horiz-adv-x="915" d="M113 0v1024h475q125 0 178 -86t53 -236q0 -121 -33.5 -200.5t-111.5 -108.5l200 -393h-133l-194 381h-301v-381h-133zM246 500h342q39 0 61.5 17.5t33.5 46t14 65.5t3 73q0 37 -3 74t-14 65.5t-33.5 46t-61.5 17.5h-342v-405z" />
<glyph unicode="S" horiz-adv-x="909" d="M82 117l100 76q66 -53 137.5 -68.5t147.5 -15.5q39 0 80 11t73.5 33.5t53 57.5t20.5 84q0 51 -45 78.5t-111.5 48t-145.5 39t-145.5 51.5t-111.5 86t-45 141q0 74 28.5 129.5t76 92t106.5 55t123 18.5q43 0 90 -3t93 -10t87 -18.5t70 -27.5l-57 -103q-27 12 -63 20.5 t-74 13.5t-76.5 7t-69.5 2q-39 0 -76 -9t-64.5 -29.5t-44 -54.5t-16.5 -83q0 -45 45 -71.5t111.5 -48t145.5 -44t145.5 -56.5t111.5 -87t45 -137q0 -90 -30.5 -149.5t-80.5 -94.5t-114.5 -48t-132.5 -13q-53 0 -108.5 4t-106.5 18.5t-95 39t-77 65.5z" />
<glyph unicode="T" horiz-adv-x="874" d="M57 905v119h760v-119h-313v-905h-133v905h-314z" />
<glyph unicode="U" horiz-adv-x="1007" d="M102 326v698h134v-698q0 -74 23.5 -117t62 -65.5t87 -28.5t95.5 -6t95 6t86 28.5t62.5 65.5t24.5 117v698h133v-698q0 -92 -27.5 -156t-80 -103.5t-126 -58t-167.5 -18.5q-188 0 -295 76.5t-107 259.5z" />
<glyph unicode="V" horiz-adv-x="978" d="M31 1024h135l321 -881l326 881h135l-387 -1024h-145z" />
<glyph unicode="W" horiz-adv-x="1191" d="M31 1024h135l174 -881l188 568h136l188 -568l174 881h135l-213 -1024h-151l-201 535l-190 -535h-162z" />
<glyph unicode="X" horiz-adv-x="960" d="M31 0l372 516l-372 508h157l291 -403l293 403h158l-373 -508l373 -516h-146l-305 414l-303 -414h-145z" />
<glyph unicode="Y" horiz-adv-x="972" d="M31 1024h157l297 -436l299 436h158l-389 -559v-465h-133v465z" />
<glyph unicode="Z" horiz-adv-x="907" d="M92 0v109l572 806h-572v109h721v-109l-563 -806h565v-109h-723z" />
<glyph unicode="[" horiz-adv-x="450" d="M113 -109v1242h225v-109h-92v-1024h92v-109h-225z" />
<glyph unicode="\" horiz-adv-x="770" d="M61 1133h134l514 -1133h-134z" />
<glyph unicode="]" horiz-adv-x="450" d="M113 0h92v1024h-92v109h225v-1242h-225v109z" />
<glyph unicode="^" horiz-adv-x="786" d="M113 483l209 541h145l207 -541h-135l-146 398l-145 -398h-135z" />
<glyph unicode="_" horiz-adv-x="759" d="M0 -102h760v-99h-760v99z" />
<glyph unicode="`" horiz-adv-x="442" d="M117 1102h133l80 -236h-80z" />
<glyph unicode="a" horiz-adv-x="858" d="M92 246q0 127 80 178t217 51q25 0 55.5 -1t62.5 -3t60.5 -6t44.5 -12v145q0 39 -15 61.5t-41 34t-60.5 14.5t-71.5 3t-72 -3t-60.5 -14.5t-40.5 -34t-15 -61.5v-23h-134v23q0 125 86 178t236 53t235.5 -53t85.5 -178v-598h-133v80q-25 -35 -60.5 -52.5t-69 -26.5 t-60.5 -10t-33 -1q-111 0 -171 22.5t-88 59.5t-33 82t-5 92zM213 250q0 -41 3 -68.5t19.5 -44t52 -22.5t103.5 -6q96 0 158.5 33.5t62.5 80.5v60q0 27 -22.5 42t-56 22t-71.5 8t-71 1q-35 0 -66.5 -4t-56 -16t-40 -32.5t-15.5 -53.5z" />
<glyph unicode="b" horiz-adv-x="860" d="M113 0v1102h133v-324q25 18 56.5 29.5t62 15.5t54 5t27.5 1q150 0 236 -53t86 -178v-330q0 -127 -69.5 -202.5t-231.5 -75.5q-6 0 -33.5 1t-62.5 10t-70 26.5t-55 52.5v-80h-133zM246 223q0 -20 16.5 -40.5t45 -37t67.5 -26.5t84 -10q82 0 129 39.5t47 119.5v330 q0 39 -15.5 61.5t-41 34t-60.5 14.5t-72 3q-31 0 -61.5 -2t-58 -8.5t-48 -19.5t-32.5 -36v-422z" />
<glyph unicode="c" horiz-adv-x="790" d="M92 326v168q0 111 29 176t78 101t114.5 47t139.5 11q59 0 127.5 -7t158.5 -46l-32 -112q-33 18 -68 27t-66.5 13.5t-58.5 5.5t-41 1q-37 0 -81 -3t-81 -23.5t-61.5 -65t-24.5 -125.5v-168q0 -82 24.5 -126t61.5 -64.5t81 -23.5t81 -3q14 0 41 1t58.5 5t66.5 13t68 28 l32 -113q-45 -20 -84 -30.5t-73.5 -15.5t-66.5 -6t-62 -1q-74 0 -139.5 11t-114.5 47t-78 101.5t-29 176.5z" />
<glyph unicode="d" horiz-adv-x="860" d="M92 268v330q0 125 86 178t236 53q4 0 27.5 -1t54 -5t62.5 -15t56 -30v324h134v-1102h-134v80q-23 -35 -56.5 -52.5t-68 -26.5t-62.5 -10t-34 -1q-82 0 -139 19.5t-93 56t-52.5 88t-16.5 114.5zM225 268q0 -80 47 -119.5t129 -39.5q45 0 84 10t68 26.5t45 37t16 40.5v422 q-12 23 -32.5 36t-48 19.5t-58 8.5t-61.5 2q-37 0 -72 -3t-60.5 -14.5t-41 -34t-15.5 -61.5v-330z" />
<glyph unicode="e" horiz-adv-x="845" d="M92 326v233q0 141 90 205.5t242 64.5q168 0 250 -71.5t82 -198.5v-178h-531v-55q0 -82 27 -126t65.5 -64.5t83.5 -23.5t82 -3q14 0 43 1t63 5t69.5 13t68.5 28l33 -113q-90 -41 -164 -47t-133 -6q-74 0 -141.5 11t-118.5 47t-81 101.5t-30 176.5zM225 500h398v59 q0 41 -16.5 69.5t-44 47t-63.5 27t-75 8.5t-75 -8.5t-63.5 -27t-44 -47t-16.5 -69.5v-59z" />
<glyph unicode="f" horiz-adv-x="573" d="M53 700v119h133v39q0 70 8.5 120t32 83t63.5 49t103 16q12 0 32.5 -1t44.5 -5t48.5 -13t44.5 -28l-49 -94q-41 16 -66.5 19.5t-54.5 3.5q-25 0 -40 -6.5t-22 -23.5t-9.5 -46t-2.5 -74v-39h218v-119h-218v-700h-133v700h-133z" />
<glyph unicode="g" horiz-adv-x="860" d="M92 221v330q0 125 68.5 201.5t232.5 76.5q6 0 34 -1t62.5 -10t68.5 -27.5t56 -51.5v80h134v-862q0 -111 -23 -176.5t-66 -101t-103 -47t-134 -11.5q-59 0 -129 6t-158 47l33 113q33 -18 67.5 -27.5t66.5 -13.5t57.5 -5t41.5 -1q37 0 75 3t68.5 23.5t50 64.5t19.5 126v84 q-25 -18 -56.5 -29.5t-62 -15.5t-54 -5t-27.5 -1q-150 0 -236 53t-86 178zM225 221q0 -39 15.5 -61.5t41 -33.5t60.5 -14t72 -3q31 0 61.5 2t58 8t48 19.5t32.5 35.5v422q0 20 -16 40.5t-45 37t-68 27t-84 10.5q-82 0 -129 -40t-47 -120v-330z" />
<glyph unicode="h" horiz-adv-x="860" d="M113 0v1102h133v-393q23 41 53.5 63.5t62 32.5t60.5 12t45 2q82 0 139.5 -19.5t93 -56t52 -88t16.5 -114.5v-541h-133v541q0 80 -47 119.5t-129 39.5q-92 0 -152.5 -42t-60.5 -117v-541h-133z" />
<glyph unicode="i" d="M102 1034q0 31 22.5 54.5t51.5 23.5q31 0 54.5 -23.5t23.5 -54.5q0 -29 -23.5 -51t-54.5 -22q-29 0 -51.5 22t-22.5 51zM113 0v819h133v-819h-133z" />
<glyph unicode="j" d="M-156 -315l64 90q35 -25 66.5 -30t60.5 -5q25 0 40 5t23 20.5t11.5 43t3.5 72.5v938h133v-938q0 -70 -9.5 -119t-33 -80.5t-64.5 -46t-104 -14.5q-39 0 -65.5 3t-48 10.5t-40 19.5t-37.5 31zM102 1034q0 31 22.5 54.5t51.5 23.5q31 0 54.5 -23.5t23.5 -54.5 q0 -29 -23.5 -51t-54.5 -22q-29 0 -51.5 22t-22.5 51z" />
<glyph unicode="k" horiz-adv-x="851" d="M113 0v1102h133v-604l377 321h174l-295 -258l309 -561h-133l-270 479l-162 -143v-336h-133z" />
<glyph unicode="l" d="M113 0v1102h133v-1102h-133z" />
<glyph unicode="m" horiz-adv-x="1206" d="M113 0v819h133v-100q10 41 39.5 63.5t60.5 32.5t56.5 12t27.5 2q154 0 215 -71q16 27 48 41t65 21t57.5 8t26.5 1q82 0 134 -19t83 -56t43 -88.5t12 -114.5v-551h-133v551q0 80 -28.5 120t-110.5 40q-18 0 -41 -2t-45.5 -6.5t-41 -10.5t-28.5 -14q14 -51 14 -127v-551 h-133v551q0 80 -27.5 120t-109.5 40q-45 0 -80 -14.5t-57.5 -37t-34.5 -51t-12 -57.5v-551h-133z" />
<glyph unicode="n" horiz-adv-x="860" d="M113 0v809h133v-100q23 41 53.5 63.5t62 32.5t60.5 12t45 2q82 0 139.5 -19.5t93 -56t52 -88t16.5 -114.5v-541h-133v541q0 80 -47 119.5t-129 39.5q-92 0 -152.5 -42t-60.5 -117v-541h-133z" />
<glyph unicode="o" horiz-adv-x="843" d="M92 260v338q0 125 90 178t240 53t240 -53t90 -178v-338q0 -141 -89.5 -205.5t-240.5 -64.5q-168 0 -249 71.5t-81 198.5zM225 260q0 -41 16.5 -69.5t44 -47t62.5 -26.5t74 -8t73.5 8t62.5 26.5t44 47t16 69.5v338q0 39 -16 61.5t-44 34t-63.5 14.5t-72.5 3t-73 -3 t-63.5 -14.5t-44 -34t-16.5 -61.5v-338z" />
<glyph unicode="p" horiz-adv-x="860" d="M113 -379v1198h133v-80q20 33 55 51.5t70 27.5t62.5 10t33.5 1q82 0 139.5 -19t93 -56t52 -88.5t16.5 -114.5v-330q0 -125 -86 -178t-236 -53q-4 0 -27.5 1t-54 5t-62.5 15.5t-56 29.5v-420h-133zM246 174q12 -23 32.5 -36t48 -19t58 -8t61.5 -2q37 0 72 3t60.5 14 t41 33.5t15.5 61.5v330q0 80 -47 120t-129 40q-45 0 -84 -10.5t-67.5 -27t-45 -37t-16.5 -40.5v-422z" />
<glyph unicode="q" horiz-adv-x="860" d="M92 221v330q0 125 68.5 201.5t232.5 76.5q6 0 34 -1t62.5 -10t68.5 -27.5t56 -51.5v80h134v-1198h-134v420q-25 -18 -56.5 -29.5t-62 -15.5t-54 -5t-27.5 -1q-150 0 -236 53t-86 178zM225 221q0 -39 15.5 -61.5t41 -33.5t60.5 -14t72 -3q31 0 61.5 2t58 8t48 19.5 t32.5 35.5v422q0 20 -16 40.5t-45 37t-68 27t-84 10.5q-82 0 -129 -40t-47 -120v-330z" />
<glyph unicode="r" horiz-adv-x="481" d="M113 0v819h133v-100q23 41 53.5 63.5t62 32.5t60.5 12t45 2v-118q-92 0 -156.5 -42t-64.5 -118v-551h-133z" />
<glyph unicode="s" horiz-adv-x="702" d="M51 92l80 84q53 -43 111.5 -55t117.5 -12q63 0 110.5 31.5t47.5 95.5q0 41 -33.5 63.5t-85 37.5t-112 30.5t-111.5 42t-85 68.5t-34 114q0 59 22.5 103t60.5 74t86 45t100 15q35 0 72.5 -2t74.5 -8t69.5 -15t57.5 -22l-47 -106q-20 10 -49 16t-59.5 10.5t-62.5 6.5t-56 2 q-63 0 -99.5 -28t-36.5 -91q0 -37 34 -56.5t85 -36t111.5 -32.5t112 -44t85 -72t33.5 -115q0 -74 -24.5 -121t-65.5 -75t-92 -39t-107 -11q-43 0 -87 4t-84.5 14t-76.5 30.5t-63 53.5z" />
<glyph unicode="t" horiz-adv-x="520" d="M20 700v119h142v246h133v-246h180v-119h-180v-434q0 -31 1 -58.5t7 -50t18.5 -35.5t34.5 -13h119v-109h-119q-72 0 -111.5 25.5t-58 64.5t-21.5 86t-3 90v434h-142z" />
<glyph unicode="u" horiz-adv-x="880" d="M113 268v551h133v-551q0 -80 47 -119.5t129 -39.5q92 0 152.5 42t60.5 117v551h133v-819h-133v100q-23 -41 -53.5 -63.5t-62.5 -32.5t-60.5 -12t-44.5 -2q-82 0 -139.5 19.5t-93.5 56t-52 88t-16 114.5z" />
<glyph unicode="v" horiz-adv-x="804" d="M20 819h136l245 -676l248 676h135l-309 -819h-145z" />
<glyph unicode="w" horiz-adv-x="1089" d="M57 819h136l116 -676l168 568h135l168 -568l117 676h135l-155 -819h-152l-180 535l-170 -535h-162z" />
<glyph unicode="x" horiz-adv-x="856" d="M51 0l297 410l-297 409h158l219 -301l219 301h158l-299 -409l299 -410h-158l-219 301l-219 -301h-158z" />
<glyph unicode="y" horiz-adv-x="825" d="M31 819h135l246 -676l247 676h136l-443 -1198h-135l133 369z" />
<glyph unicode="z" horiz-adv-x="741" d="M72 0v109l446 602h-446v108h596v-108l-439 -602h441v-109h-598z" />
<glyph unicode="{" horiz-adv-x="567" d="M113 457v108q45 0 70.5 14.5t36.5 39t13.5 55.5t2.5 63v275q0 63 23.5 92t62.5 29h133v-109h-54q-33 0 -32 -37v-250q0 -168 -90 -227q90 -59 90 -225v-248q0 -37 32 -37h54v-109h-133q-39 0 -62.5 29t-23.5 92v273q0 33 -2.5 63.5t-13.5 55t-36.5 39t-70.5 14.5z" />
<glyph unicode="|" d="M113 -109v1242h133v-1242h-133z" />
<glyph unicode="}" horiz-adv-x="567" d="M113 0h53q33 0 33 37v248q0 166 90 225q-90 59 -90 227v250q0 37 -33 37h-53v109h133q39 0 62.5 -29t23.5 -92v-275q0 -33 2 -63.5t13 -55t36 -39t72 -14.5v-108q-47 0 -72 -14.5t-36 -39t-13 -55.5t-2 -63v-273q0 -63 -23.5 -92t-62.5 -29h-133v109z" />
<glyph unicode="~" horiz-adv-x="972" d="M113 555q45 39 89 61.5t99 22.5q51 0 96 -17.5t90 -38t90.5 -38t94.5 -17.5q41 0 68.5 16.5t62.5 45.5l57 -86q-45 -39 -89 -61.5t-99 -22.5q-47 0 -91 17.5t-88 38t-91.5 37.5t-100.5 17q-41 0 -68.5 -16t-62.5 -45z" />
<glyph unicode="&#xad;" horiz-adv-x="851" d="M113 340v119h626v-119h-626z" />
<glyph unicode="&#xbc;" horiz-adv-x="1218" d="M96 940l166 84h94v-621h-94v531l-133 -72zM279 0l491 1024h113l-492 -1024h-112zM641 158v84l281 379h114v-379h86v-84h-86v-158h-94v158h-301zM743 242h199v266z" />
<glyph unicode="&#xbd;" horiz-adv-x="1267" d="M96 940l166 84h94v-621h-94v531l-133 -72zM279 0l491 1024h113l-492 -1024h-112zM748 461v16q0 76 60 115t153 39q92 0 152.5 -39t60.5 -115v-49q0 -39 -24 -71.5t-59.5 -60.5t-76.5 -52.5t-77 -50t-59.5 -52t-23.5 -57.5h317v-84h-411v84q0 51 23.5 89t59.5 66.5t78 52 t77.5 44t59 43t23.5 49.5v49q0 47 -36.5 58.5t-83.5 11.5t-83 -11.5t-36 -58.5v-16h-94z" />
<glyph unicode="&#xbe;" horiz-adv-x="1329" d="M96 580v12h94v-12q0 -51 36 -72t83 -21t83 20.5t36 72.5v34q0 45 -34 53.5t-77 8.5h-73v86h73q45 0 78 18.5t33 65.5v37q0 23 -10 36t-26.5 20t-38 9t-44.5 2q-45 0 -82 -11t-37 -56v-19h-94v19q0 76 61.5 113.5t151.5 37.5q92 0 152.5 -38t60.5 -113v-37 q0 -43 -20.5 -74t-46.5 -49q27 -16 47 -44t20 -65v-34q0 -86 -60.5 -131.5t-152.5 -45.5q-102 0 -157.5 49.5t-55.5 127.5zM389 0h113l491 1024h-112zM752 158h301v-158h94v158h86v84h-86v379h-115l-280 -379v-84zM854 242l199 266v-266h-199z" />
<glyph unicode="&#xbf;" horiz-adv-x="768" d="M113 23q0 80 40 121.5t88 74.5t88 65.5t40 94.5v213h133v-213q0 -59 -19.5 -99t-47 -68t-61.5 -47.5t-61.5 -39t-47 -44t-19.5 -58.5q0 -63 50 -91t114 -28q51 0 104 7t94 28l47 -107q-47 -27 -111.5 -37t-133.5 -10q-160 0 -228.5 59.5t-68.5 178.5zM358 756q0 29 24 51 t54 22q29 0 51.5 -22t22.5 -51q0 -31 -22.5 -54.5t-51.5 -23.5q-31 0 -54.5 23.5t-23.5 54.5z" />
<glyph unicode="&#xff;" horiz-adv-x="1941" />
<glyph unicode="&#x2000;" horiz-adv-x="682" />
<glyph unicode="&#x2001;" horiz-adv-x="1365" />
<glyph unicode="&#x2002;" horiz-adv-x="682" />
<glyph unicode="&#x2003;" horiz-adv-x="1365" />
<glyph unicode="&#x2004;" horiz-adv-x="455" />
<glyph unicode="&#x2005;" horiz-adv-x="341" />
<glyph unicode="&#x2006;" horiz-adv-x="227" />
<glyph unicode="&#x2007;" horiz-adv-x="227" />
<glyph unicode="&#x2008;" horiz-adv-x="170" />
<glyph unicode="&#x2009;" horiz-adv-x="273" />
<glyph unicode="&#x200a;" horiz-adv-x="75" />
<glyph unicode="&#x2010;" horiz-adv-x="851" d="M113 340v119h626v-119h-626z" />
<glyph unicode="&#x2011;" horiz-adv-x="851" d="M113 340v119h626v-119h-626z" />
<glyph unicode="&#x2012;" horiz-adv-x="851" d="M113 340v119h626v-119h-626z" />
<glyph unicode="&#x2013;" horiz-adv-x="1013" d="M113 340v119h788v-119h-788z" />
<glyph unicode="&#x2014;" horiz-adv-x="1179" d="M113 340v119h954v-119h-954z" />
<glyph unicode="&#x2018;" horiz-adv-x="419" d="M113 870l114 232h80l-78 -232h-116z" />
<glyph unicode="&#x2019;" horiz-adv-x="419" d="M113 870l77 232h117l-114 -232h-80z" />
<glyph unicode="&#x2022;" horiz-adv-x="585" d="M143 399q0 63 44 106.5t106 43.5q61 0 105 -43t44 -107q0 -61 -44 -104t-105 -43t-105.5 43t-44.5 104z" />
<glyph unicode="&#x2026;" horiz-adv-x="983" d="M113 63q0 31 22.5 54.5t50.5 23.5q31 0 54.5 -23.5t23.5 -54.5q0 -29 -23.5 -51t-54.5 -22q-29 0 -51 22t-22 51zM416 63q0 31 22.5 54.5t50.5 23.5q31 0 54.5 -23.5t23.5 -54.5q0 -29 -23.5 -51t-54.5 -22q-29 0 -51 22t-22 51zM719 63q0 31 22.5 54.5t51.5 23.5 q31 0 54 -23.5t23 -54.5q0 -29 -23.5 -51t-53.5 -22q-29 0 -51.5 22t-22.5 51z" />
<glyph unicode="&#x202f;" horiz-adv-x="273" />
<glyph unicode="&#x205f;" horiz-adv-x="341" />
<glyph unicode="&#x25fc;" horiz-adv-x="819" d="M0 0v819h819v-819h-819z" />
</font>
</defs>
</svg>
