<?xml version="1.0" encoding="UTF-8"?><svg xmlns="http://www.w3.org/2000/svg" width="100%" height="100%"><defs><font id="web" horiz-adv-x="846"><!--



NOTICE: This font software is the valuable property 
of Webtype LLC, The Font Bureau, Webtype and/or its 
suppliers and its use by you is covered under the terms 
of the Web Font license agreement between you and Webtype 
LLC. You may ONLY use this font software with the licensed 
web site. Except as specifically permitted by the license, 
you may not copy this font software. If you have any 
questions, please contact Webtype.com. 

For more information, please visit http://www.webtype.com/store/license/?id=23

Licensed to: griffethlincoln.com|griffethford.com|griffethmitsubishi.com|griffethhonda.com|griffethrvcenter.com

Serial number: SH-1317
--><font-face font-family="" units-per-em="2048" panose-1="2 0 5 3 9 0 0 2 0 3" ascent="1929" descent="-513" alphabetic="0"/><missing-glyph horiz-adv-x="491"/><glyph unicode=" " horiz-adv-x="491"/><glyph unicode="!" horiz-adv-x="655" d="M209 102Q209 152 243 186T326 221T409 187T444 102Q444 53 410 20T326 -14T243 19T209 102ZM221 1313Q221 1364 251 1401T328 1438T404 1401T434 1313Q434 1286 414 1141T368 788T332 424H319Q313 579 289 785T243 1139T221 1313Z"/><glyph unicode="&quot;" horiz-adv-x="753" d="M90 1413Q90 1458 111 1485T180 1513Q225 1513 247 1485T270 1413Q270 1397 260 1360T229 1230T186 1014H176Q158 1139 137 1229T103 1357T90 1413ZM483 1413Q483 1458 504 1485T573 1513Q618 1513 641 1485T664 1413Q664 1397 654 1360T623 1230T580 1014H569Q551 1139 530 1229T496 1357T483 1413Z"/><glyph unicode="#" horiz-adv-x="1044" d="M141 301V432L375 489V752L141 694V823L375 881V1284H391V887L653 954V1284H670V961L903 1018V887L670 829V567L903 625V496L670 438V-14H653V432L391 365V-14H375V358L141 301ZM391 494L653 563V825L391 756V494Z"/><glyph unicode="$" horiz-adv-x="1222" d="M168 274Q168 346 200 390T281 434Q321 434 343 406T365 334Q365 298 353 277T320 236T287 197Q287 143 325 101T413 38T522 8V571Q193 627 193 887Q193 944 212 1001T269 1110T372 1203T522 1260V1460H539V1262Q593 1270 637 1270Q688 1270 729 1264V1460H745V1262Q873 1240 950 1175T1028 1022Q1028 953 999 917T932 881Q899 881 875 905T850 971Q850 1003 867 1027T905 1075T934 1126Q921 1164 870 1198T745 1245V719Q799 711 842 699T930 661T1005 602T1054 512T1073 385Q1073 328 1054 270T997 158T894 62T745 0V-291H729V-2Q667 -14 604 -14Q563 -14 539 -10V-291H522V-8Q375 13 272 92T168 274ZM309 1001Q309 889 365 833T522 752V1241Q416 1219 363 1150T309 1001ZM539 6Q563 2 604 2Q671 2 729 14V543Q682 553 539 569V6ZM539 750Q602 738 729 721V1247Q688 1253 637 1253Q593 1253 539 1245V750ZM745 16Q805 31 849 62T917 132T952 209T963 285Q963 479 745 539V16Z"/><glyph unicode="%" horiz-adv-x="1716" d="M141 944Q141 1014 169 1076T242 1180T340 1246T446 1270Q494 1270 539 1259T626 1222T699 1160T749 1068T768 944Q768 860 721 788T599 675T446 635Q322 635 232 716T141 944ZM268 952Q268 821 315 735T457 649Q534 649 586 732T639 942Q639 1083 590 1169T453 1255Q363 1255 316 1168T268 952ZM403 -180L1282 1405L1313 1389L432 -197L403 -180ZM948 279Q948 371 996 448T1114 565T1253 606Q1301 606 1346 595T1433 559T1506 498T1556 405T1575 281Q1575 152 1475 62T1253 -29Q1129 -29 1039 53T948 279ZM1075 287Q1075 159 1123 72T1264 -16Q1338 -16 1392 69T1446 276Q1446 415 1397 503T1260 592Q1198 592 1155 547T1094 435T1075 287Z"/><glyph unicode="&amp;" horiz-adv-x="1484" d="M74 317Q74 371 90 419T134 508T208 591T304 668T426 750Q341 885 306 963T270 1114Q270 1248 371 1339T602 1430Q667 1430 718 1407T799 1344T844 1259T860 1161Q860 977 571 807Q703 609 938 322Q1029 442 1073 570T1118 770Q1118 831 913 874V883H1505V874Q1402 863 1338 843T1227 774Q1215 761 1173 678T1069 485T952 305Q1119 107 1163 80Q1263 18 1419 10V0H1001Q962 56 850 193Q734 74 646 21T449 -33Q289 -33 182 59T74 317ZM244 379Q244 248 316 161T514 74Q704 74 840 207Q610 488 438 737Q244 622 244 379ZM418 1157Q418 1014 563 821Q776 933 776 1155Q776 1229 760 1284T704 1376T602 1413Q557 1413 523 1395T469 1349T438 1286T422 1219T418 1157Z"/><glyph unicode="'" horiz-adv-x="360" d="M90 1413Q90 1458 111 1485T180 1513Q225 1513 247 1485T270 1413Q270 1397 260 1360T229 1230T186 1014H176Q158 1139 137 1229T103 1357T90 1413Z"/><glyph unicode="(" horiz-adv-x="727" d="M92 604Q92 704 107 793T147 956T211 1097T293 1219T393 1326T502 1422T621 1511L635 1503Q559 1444 497 1385T372 1241T265 1066T195 856T168 604Q168 470 196 347T269 130T377 -48T502 -190T635 -301L621 -309Q527 -249 456 -192T314 -52T196 122T121 336T92 604Z"/><glyph unicode=")" horiz-adv-x="727" d="M51 -301Q127 -242 189 -183T314 -39T421 136T491 346T518 598Q518 732 490 855T417 1072T309 1250T184 1392T51 1503L66 1511Q159 1451 230 1394T373 1254T491 1080T565 866T594 598Q594 460 565 340T491 132T373 -40T231 -182T66 -309L51 -301Z"/><glyph unicode="*" horiz-adv-x="778" d="M122 1229T118 1246T125 1278Q150 1310 188 1284Q206 1273 273 1214T383 1128Q379 1179 363 1275T346 1384Q346 1427 389 1427Q434 1427 434 1384Q434 1373 427 1330T409 1227T395 1128Q438 1157 506 1215T594 1286Q632 1309 651 1278Q670 1246 641 1221Q624 1208 589 1194T497 1158T397 1118Q436 1101 522 1070T633 1022Q674 998 651 961Q641 942 623 941T592 950Q578 960 509 1019T395 1108Q399 1069 409 1010T426 906T434 852Q434 834 422 822T389 809Q346 809 346 852Q346 867 362 963T383 1108Q339 1079 268 1021T186 954Q147 929 127 958Q99 995 143 1022Q161 1034 195 1047T283 1079T381 1118Q339 1137 284 1156T193 1190T139 1217Q122 1229 118 1246Z"/><glyph unicode="+" horiz-adv-x="1138" d="M76 502V561H541V1026H598V561H1063V502H598V39H541V502H76Z"/><glyph unicode="," horiz-adv-x="466" d="M94 -317Q176 -266 226 -180T283 8H217Q157 8 129 40T100 119Q100 159 131 191T213 223Q289 223 325 173T362 33Q362 -6 350 -44T324 -111T282 -173T237 -222T185 -265T143 -296T107 -320Q104 -322 102 -323T98 -326L94 -317Z"/><glyph unicode="-" horiz-adv-x="811" d="M72 463V573H739V463H72Z"/><glyph unicode="." horiz-adv-x="466" d="M119 102Q119 152 153 186T236 221T319 187T354 102Q354 53 320 20T236 -14T153 19T119 102Z"/><glyph unicode="/" horiz-adv-x="823" d="M66 -410L707 1540L756 1526L115 -424L66 -410Z"/><glyph unicode="0" horiz-adv-x="1214" d="M106 592Q106 745 148 874T262 1088T425 1220T616 1268Q732 1268 826 1219T981 1084T1075 888T1108 649Q1108 497 1066 368T954 154T791 21T598 -27Q481 -27 386 23T231 158T138 355T106 592ZM279 618Q279 486 297 375T352 175T452 36T602 -14Q702 -14 778 68T895 294T936 623Q936 725 926 815T891 987T829 1127T736 1220T610 1255Q512 1255 437 1173T320 946T279 618Z"/><glyph unicode="1" horiz-adv-x="784" d="M61 1217L66 1223Q137 1184 244 1184Q393 1184 514 1270H524Q504 1198 504 969V131Q504 98 520 72T563 33Q605 14 715 8V0H133V8Q264 15 293 25Q321 34 337 60T354 121V1141Q317 1130 262 1130Q153 1130 61 1217Z"/><glyph unicode="2" horiz-adv-x="1140" d="M70 10Q273 179 377 273T584 479Q715 619 767 743T819 991Q819 1109 757 1180T596 1251Q526 1251 465 1222T362 1147T289 1043T244 925T229 813Q229 746 253 713T334 680Q395 680 450 716T539 797L545 793Q444 637 276 637Q208 637 156 679T104 809Q104 863 127 924T196 1047T304 1157T451 1237T631 1268Q779 1268 877 1180T975 956Q975 884 959 822T906 698T821 582T694 463T531 339T324 199L233 131H791Q827 131 857 147T912 197T952 256T987 324L995 319L883 0H76L70 10Z"/><glyph unicode="3" horiz-adv-x="1128" d="M63 227Q63 296 98 334T180 373Q219 373 246 349T274 283Q274 260 262 246T236 226T209 204T197 160Q197 124 210 90T250 26T327 -22T442 -41Q515 -41 584 -7T706 88T791 234T823 416Q823 643 647 643Q625 643 605 638T561 615T527 590T487 553T453 520L432 543Q441 549 458 562Q615 672 677 734Q811 868 811 1022Q811 1068 800 1108T766 1181T702 1233T606 1253Q500 1253 402 1161T303 938Q303 883 329 851T399 819Q439 819 477 840T541 891L547 885Q511 842 452 804T342 766Q260 766 221 807T182 907Q182 969 219 1034T318 1151T465 1236T639 1270Q790 1270 880 1194T971 1004Q971 907 889 823T664 698L616 662Q712 676 735 676Q779 676 821 662T902 618T965 532T989 399Q989 266 914 162T712 3T430 -53Q342 -53 260 -22T121 75T63 227Z"/><glyph unicode="4" horiz-adv-x="1110" d="M47 436V457L723 1288H725V514H782Q901 514 922 528Q949 548 969 600T991 698H999V244H991Q989 299 971 353T926 420Q895 436 784 436H725V127Q725 52 778 29Q812 14 915 8V0H393V8Q511 14 530 20Q582 36 582 113V436H47ZM115 514H582V1090L115 514Z"/><glyph unicode="5" horiz-adv-x="1024" d="M76 209Q76 243 87 267T115 302T146 317T174 322Q209 322 232 301T256 246Q256 223 242 194T227 143Q227 75 280 30T436 -16Q503 -16 556 16T643 100T698 221T728 358T737 498Q737 621 676 693T502 766Q410 766 323 715T205 586L188 590L342 1264H358Q397 1228 469 1205T637 1182Q826 1182 922 1286L928 1282Q897 1216 842 1167T723 1091T595 1051T469 1038Q380 1038 313 1051L223 657Q350 784 516 784Q588 784 656 758T778 684T866 562T899 397Q899 303 857 221T748 86T600 2T438 -29Q268 -29 172 42T76 209Z"/><glyph unicode="6" horiz-adv-x="1112" d="M123 547Q123 691 163 829T271 1074T427 1264T614 1390T811 1434Q877 1434 926 1415T1001 1365T1039 1304T1051 1245Q1051 1197 1030 1170T969 1143Q940 1143 923 1159T899 1196T885 1251T868 1305Q846 1359 815 1381T723 1403Q632 1403 542 1312T384 1053T289 682L297 678Q367 768 445 814T627 860Q781 860 888 740T995 440Q995 382 980 320T928 196T841 84T712 4T541 -27Q409 -27 313 52T170 260T123 547ZM274 403Q274 289 304 196T395 44T539 -14Q608 -14 660 18T743 99T793 213T818 334T825 449Q825 619 755 723T553 827Q502 827 454 801T365 724T299 590T274 403Z"/><glyph unicode="7" horiz-adv-x="1019" d="M84 831L201 1333H207L236 1219H1049V1208Q930 1033 842 871T682 522Q647 433 628 379T586 245T551 83T532 -98Q524 -244 428 -244Q381 -244 361 -216T340 -129Q340 -72 385 45T476 258T596 492Q695 686 952 1087H313Q268 1087 231 1064T172 1013T132 942T108 878T96 829L84 831Z"/><glyph unicode="8" horiz-adv-x="1105" d="M131 279Q131 362 175 432T285 547T438 625Q315 670 245 751T174 928Q174 1003 210 1070T304 1183T431 1254T569 1280Q738 1280 834 1199T930 987Q930 899 861 820T668 690Q724 668 771 641T868 573T946 476T975 354Q975 284 947 222T871 115T765 38T641 -11T516 -27Q346 -27 239 62T131 279ZM252 276Q252 233 260 193T289 115T339 49T416 3T522 -14Q645 -14 728 72T811 295Q811 489 582 578Q529 599 451 616Q370 582 311 481T252 276ZM330 999Q330 848 471 764Q548 719 651 698Q827 771 827 1008Q827 1116 763 1192T580 1268Q465 1268 398 1187T330 999Z"/><glyph unicode="9" horiz-adv-x="1112" d="M41 -8Q41 100 129 100Q167 100 184 71T209 -8T227 -74Q255 -130 287 -157T373 -184Q468 -184 551 -119T691 55T785 297T831 575Q831 584 825 585T813 578Q794 550 778 529T730 478T665 429T582 396T479 381Q411 381 348 408T233 487T152 620T121 801Q121 869 139 936T194 1062T281 1168T400 1241T545 1268Q640 1268 718 1235T857 1132T953 944T987 666Q987 535 959 409T874 172T738 -24T549 -158T313 -207T114 -144T41 -8ZM287 850Q287 416 551 416Q596 416 644 440T738 510T813 634T842 809Q842 1001 761 1127T547 1253Q477 1253 425 1218T343 1124T301 996T287 850Z"/><glyph unicode=":" horiz-adv-x="555" d="M160 52T160 102T193 186T276 221Q326 221 360 187T395 102Q395 53 361 20T276 -14T193 19ZM160 753T160 803T193 887T276 922Q326 922 360 887T395 803T361 720T276 686Q227 686 194 719Z"/><glyph unicode=";" horiz-adv-x="555" d="M145 -317Q227 -266 277 -180T334 8H268Q208 8 180 40T152 119Q152 159 183 191T264 223Q341 223 377 173T414 33Q414 -6 402 -44T376 -111T334 -173T289 -222T237 -265T195 -296T159 -320Q156 -322 154 -323T150 -326L145 -317ZM160 753T160 803T193 887T276 922Q326 922 360 887T395 803T361 720T276 686Q227 686 194 719Z"/><glyph unicode="&lt;" horiz-adv-x="1138" d="M109 512V553L1014 993V934L184 532L1014 131V72L109 512Z"/><glyph unicode="=" horiz-adv-x="1138" d="M117 326V381H1022V326H117ZM117 684V739H1022V684H117Z"/><glyph unicode="&gt;" horiz-adv-x="1138" d="M125 72V131L954 532L125 934V993L1030 553V512L125 72Z"/><glyph unicode="?" horiz-adv-x="937" d="M115 1245Q115 1318 194 1375T418 1432Q526 1432 609 1400T741 1310T815 1183T840 1032Q840 853 716 737T379 598L362 340H348V725Q385 731 411 736T475 753T538 778T593 814T639 864T668 932T680 1020Q680 1216 607 1318T418 1421Q377 1421 337 1407T283 1368Q301 1254 289 1212Q270 1149 201 1149Q161 1149 138 1176T115 1245ZM240 102Q240 152 274 186T358 221Q408 221 442 187T477 102Q477 53 443 20T358 -14T274 19T240 102Z"/><glyph unicode="@" horiz-adv-x="2011" d="M178 367Q178 515 224 659T359 925T567 1142T840 1289T1163 1343Q1293 1343 1403 1307T1591 1207T1724 1060T1805 881T1831 684Q1831 520 1756 377T1563 151T1317 68Q1241 68 1192 116T1143 252L1137 254Q1096 180 1027 126T889 72Q864 72 839 78T783 102T731 150T693 229T678 344Q678 391 696 456T752 595T842 729T969 831T1128 872Q1188 872 1234 837T1288 737H1294L1341 860H1440L1251 322Q1229 261 1229 209Q1229 82 1329 82Q1409 82 1492 126T1645 246T1759 442T1804 696Q1804 823 1760 934T1634 1130T1431 1262T1159 1311Q1040 1311 921 1271T696 1151T507 961T377 700T328 377Q328 197 386 49T542 -195T767 -341T1034 -393Q1360 -393 1594 -226T1931 244L1942 240Q1882 34 1743 -122T1421 -359T1038 -440Q913 -440 792 -409T559 -312T364 -153T229 74T178 367ZM786 299Q786 249 794 213T813 157T841 126T871 112T901 109Q985 109 1043 161T1155 313L1284 700Q1271 783 1228 816T1116 850Q1052 850 989 793T883 652T813 473T786 299Z"/><glyph unicode="A" horiz-adv-x="1380" d="M-53 0V8Q20 12 80 47Q118 69 153 111T211 207Q559 1048 709 1421H727Q843 1129 1020 675T1227 145Q1240 111 1258 87T1311 43Q1361 12 1434 8V0H840V8Q914 12 987 32T1061 86Q1061 116 1053 135L899 522H367Q279 304 260 233Q236 152 236 119Q236 93 261 72T327 37T407 17T485 8V0H-53ZM375 547H891L643 1202L375 547Z"/><glyph unicode="B" horiz-adv-x="1320" d="M102 0V8Q130 10 180 19T250 35Q313 58 313 131V1255Q313 1332 250 1358Q176 1388 115 1391V1399H774Q839 1399 900 1385T1019 1339T1112 1249T1147 1114Q1147 1047 1128 995T1076 905T992 838T885 789T754 750V743Q810 742 869 731T992 691T1106 622T1188 515T1221 367Q1221 294 1192 233T1116 129T1007 57T881 14T752 0H102ZM479 158Q491 74 536 43T686 12Q767 12 828 39T924 107T980 205T1009 312T1016 416Q1016 476 997 531T939 632T836 705T690 733Q569 733 479 729V158ZM479 748H641Q725 748 786 776T882 855T932 964T948 1094Q948 1173 923 1232T857 1322T772 1369T680 1384Q538 1384 479 1382V748Z"/><glyph unicode="C" horiz-adv-x="1288" d="M80 682Q80 885 172 1054T426 1322T784 1421Q866 1421 969 1384T1141 1288L1206 1421H1219L1227 918H1217Q1177 1034 1133 1118T1029 1269T893 1369T719 1403Q654 1403 592 1377T471 1293T369 1154T299 953T272 690Q272 544 313 418T424 205T588 68T788 18Q881 18 960 46T1096 125T1193 234T1260 365L1280 354Q1248 278 1205 216T1098 95T941 3T737 -31Q538 -31 389 58T160 308T80 682Z"/><glyph unicode="D" horiz-adv-x="1568" d="M98 0V8Q131 8 181 14T250 27Q313 50 313 127V1255Q313 1334 250 1360Q184 1387 106 1391V1399H741Q830 1399 923 1380T1119 1310T1302 1183T1434 978T1487 690Q1487 552 1442 436T1320 241T1142 106T929 26T700 0H98ZM479 186Q493 89 543 52T719 14Q862 14 971 64T1150 205T1253 418T1288 690Q1288 895 1212 1053T995 1298T670 1386Q552 1386 479 1380V186Z"/><glyph unicode="E" horiz-adv-x="1327" d="M88 0V8Q207 14 250 31Q313 54 313 131V1255Q313 1331 250 1356Q222 1367 170 1378T88 1391V1399H1169V1090H1159Q1148 1137 1118 1199T1042 1315T956 1374Q891 1382 762 1382H479V733H702Q723 733 741 735T773 739T800 748T820 757T838 769T851 779T862 791T872 801Q893 822 908 884T930 1001H940V438H930Q927 487 909 558T872 649Q859 663 854 668T833 685T802 702T760 712T702 717H479V203Q479 150 485 119T505 65T550 33T619 20T725 16Q737 16 774 16T827 16T878 16T930 18T976 21T1021 26T1057 34T1089 46T1110 61Q1150 102 1199 208T1270 383H1280L1253 0H88Z"/><glyph unicode="F" horiz-adv-x="1214" d="M88 0V8Q207 14 250 31Q313 54 313 129V1255Q313 1331 250 1356Q222 1367 170 1378T88 1391V1399H1180V1073H1169Q1160 1119 1127 1186T1045 1311T958 1374Q909 1382 776 1382H479V729H729Q775 729 810 742T859 766T893 799Q912 819 929 876T952 997H963L961 428H950Q947 477 930 547T895 641Q840 713 729 713H479V137Q479 64 543 37Q561 30 616 20T700 8V0H88Z"/><glyph unicode="G" horiz-adv-x="1486" d="M76 662Q76 814 136 955T294 1198T521 1360T786 1421Q1032 1421 1219 1286L1294 1421H1303L1315 932H1305Q1283 1002 1250 1068T1167 1197T1059 1305T927 1379T772 1407Q550 1407 411 1208T272 668Q272 358 406 174T768 -10Q848 -10 913 9T1021 60T1093 134T1134 219T1147 305V440Q1147 548 1079 571Q1016 593 852 602V612H1513V602Q1397 590 1360 573Q1298 541 1298 465V-47L1290 -49L1174 88Q1040 21 935 -5T696 -31Q607 -31 519 -2T351 86T210 226T113 421T76 662Z"/><glyph unicode="H" horiz-adv-x="1716" d="M106 0V8Q215 14 250 27Q313 50 313 127V1255Q313 1330 250 1356Q171 1387 106 1391V1399H690V1391Q606 1386 543 1366Q479 1346 479 1266V743H1237V1255Q1237 1329 1174 1356Q1147 1367 1100 1378T1026 1391V1399H1610V1391Q1530 1387 1466 1366Q1403 1346 1403 1266V137Q1403 68 1466 37Q1484 28 1532 19T1610 8V0H1026V8Q1139 14 1174 27Q1237 50 1237 127V719H479V137Q479 64 543 37Q562 29 612 19T690 8V0H106Z"/><glyph unicode="I" horiz-adv-x="800" d="M104 0V8Q220 14 254 27Q317 50 317 125V1257Q317 1295 304 1318T254 1356Q171 1387 104 1391V1399H696V1391Q610 1386 547 1366Q483 1346 483 1268V135Q483 64 547 37Q566 29 617 19T696 8V0H104Z"/><glyph unicode="J" horiz-adv-x="944" d="M-8 139Q-8 188 26 227T113 266Q166 266 196 234T227 150Q227 49 135 4V-2Q159 -14 201 -14Q263 -14 311 1T391 36T443 96T475 166T491 251T497 336T498 426Q498 445 498 455V1255Q498 1290 484 1314T434 1356Q378 1386 262 1391V1399H887V1391Q855 1389 804 1382T727 1366Q664 1346 664 1266V391Q664 348 650 296T603 185T522 78T400 -1T236 -33Q165 -33 114 -14T38 34T3 89T-8 139Z"/><glyph unicode="K" horiz-adv-x="1441" d="M106 0V8Q215 14 250 27Q313 50 313 127V1255Q313 1330 250 1356Q224 1367 179 1378T106 1391V1399H690V1391Q606 1386 543 1366Q479 1346 479 1266V715H496Q721 893 891 1067T1061 1315Q1061 1358 999 1374Q967 1382 912 1386T840 1391V1399H1413V1391Q1214 1391 1130 1294Q876 1002 627 797Q836 590 969 451T1219 170Q1300 72 1384 37Q1440 13 1528 8V0H799V8Q878 8 948 20Q993 28 1020 46T1047 92Q1047 145 829 376T504 700H479V137Q479 64 543 37Q563 29 618 19T700 8V0H106Z"/><glyph unicode="L" horiz-adv-x="1251" d="M109 0V8Q208 13 250 29Q313 52 313 131V1249Q313 1324 250 1352Q167 1388 109 1391V1399H692V1391Q620 1387 543 1362Q479 1342 479 1260V205Q479 157 481 130T493 79T516 45T561 27T627 18T725 16Q835 16 936 29T1063 72Q1102 116 1170 230T1249 387H1257L1225 0H109Z"/><glyph unicode="M" horiz-adv-x="1921" d="M43 0V8Q188 25 233 57Q301 106 301 342V1167Q301 1282 238 1333Q204 1360 152 1374T53 1391V1399H434L977 264L1386 1186Q1439 1306 1446 1399H1823V1391Q1733 1386 1671 1366Q1608 1346 1608 1266V137Q1608 68 1671 37Q1689 29 1741 20T1825 8V0H1198V8Q1342 16 1378 33Q1444 68 1444 137V1262L895 23H887Q842 159 774 307L324 1251V352Q324 123 393 66Q416 47 495 29T612 8V0H43Z"/><glyph unicode="N" horiz-adv-x="1576" d="M8 1393V1399H381L1317 248V1057Q1317 1165 1299 1238T1247 1331Q1219 1349 1144 1369T1028 1391V1399H1593V1391Q1567 1391 1499 1372T1411 1341Q1339 1298 1339 1069V-18H1325L324 1214V354Q324 134 397 74Q421 54 501 32T616 8V0H43V8Q72 11 140 30T227 61Q301 104 301 344V1143Q301 1252 236 1305Q201 1334 131 1360T8 1393Z"/><glyph unicode="O" horiz-adv-x="1556" d="M82 684Q82 1019 287 1227Q384 1326 512 1378T778 1430Q922 1430 1047 1380T1288 1214Q1375 1127 1425 991T1475 709Q1475 375 1270 170Q1069 -31 770 -31Q496 -31 293 166Q82 371 82 684ZM274 680Q274 536 305 412T398 192T556 41T778 -14Q943 -14 1058 81T1228 335T1282 702Q1282 1032 1146 1222T778 1413T411 1219T274 680Z"/><glyph unicode="P" horiz-adv-x="1226" d="M96 1391V1399H754Q854 1399 944 1361T1094 1245T1153 1071Q1153 992 1126 926T1051 813T942 735T809 687T664 672H479V129Q479 51 543 27Q586 12 709 8V0H109V8Q208 13 250 29Q313 52 313 131V1262Q313 1349 250 1366Q176 1387 96 1391ZM479 686H604Q670 686 724 701T814 739T875 795T915 858T937 922T948 978T950 1020Q950 1070 945 1114T920 1210T868 1298T778 1359T643 1384H479V686Z"/><glyph unicode="Q" horiz-adv-x="1564" d="M82 684Q82 1030 289 1231Q497 1430 778 1430Q922 1430 1047 1379T1290 1212Q1377 1125 1426 990T1475 709Q1475 431 1282 225Q1208 148 1133 100Q1146 38 1172 -10T1231 -88T1305 -137T1384 -163T1464 -170Q1539 -170 1607 -117T1718 2L1729 -8Q1708 -42 1673 -79T1586 -156T1466 -222T1325 -248Q1288 -248 1250 -242T1166 -218T1083 -173T1016 -97T975 14Q877 -27 770 -27Q481 -27 279 178Q82 378 82 684ZM274 694Q274 335 428 152Q453 227 494 282T583 368T680 412T778 426Q900 426 999 332T1128 115Q1201 195 1241 344T1282 702Q1282 813 1265 914T1210 1107T1114 1266T970 1373T778 1413Q625 1413 511 1324T335 1072T274 694ZM440 137Q515 55 592 23T778 -10Q868 -10 971 29Q931 393 707 393Q693 393 672 388T618 366T554 322T492 248T440 137Z"/><glyph unicode="R" horiz-adv-x="1445" d="M109 0V8Q208 13 250 29Q313 52 313 131V1264Q313 1349 250 1366Q175 1387 109 1391V1399H799Q848 1399 900 1388T1005 1352T1099 1291T1166 1201T1192 1083T1166 964T1096 869T995 800T879 751T760 723V717Q897 711 994 657T1120 500Q1135 444 1156 338T1192 180Q1209 120 1236 92T1305 63Q1354 63 1388 110T1423 264V307H1438V264Q1438 114 1390 46T1221 -23Q1112 -23 1057 62T973 328Q967 369 962 397T945 468T919 542T882 606T831 660T763 695T674 709H479V129Q479 51 543 27Q580 14 696 8V0H109ZM479 725H643Q713 725 774 744T884 802T961 905T989 1053Q989 1141 965 1207T899 1310T807 1366T700 1384H479V725Z"/><glyph unicode="S" horiz-adv-x="1089" d="M100 446H109Q276 -6 590 -6Q727 -6 806 81T885 295Q885 388 831 459T680 571Q462 664 379 702Q260 757 202 840T143 1059Q143 1218 245 1319T500 1421Q617 1421 697 1387T846 1296L924 1421H930L940 958H930Q896 1060 856 1137T763 1276T639 1370T483 1403Q377 1403 307 1329T236 1163Q236 1070 279 1010T416 901Q476 870 566 831T698 772Q760 743 799 721T878 665T941 597T978 510T993 395Q993 268 934 171T783 24T582 -25Q464 -25 375 9T199 104L121 -20H115L100 446Z"/><glyph unicode="T" horiz-adv-x="1288" d="M14 1028V1399H1274V1028H1264Q1251 1079 1217 1154T1133 1299T1042 1374Q977 1382 858 1382H729V143Q729 68 793 41Q812 33 872 21T961 8V0H330V8Q454 15 498 31Q561 54 561 133V1382H430Q311 1382 246 1374Q205 1368 155 1300T71 1155T25 1028H14Z"/><glyph unicode="U" horiz-adv-x="1579" d="M80 1391V1399H666V1391Q588 1387 518 1364Q455 1344 455 1264V377Q455 227 553 132T838 37Q1051 37 1169 129T1288 385V1061Q1288 1295 1219 1335Q1180 1358 1110 1373T995 1391V1399H1565V1391Q1535 1391 1471 1375T1378 1343Q1311 1303 1311 1073V381Q1311 203 1172 85T793 -33Q674 -33 576 -2T416 80T321 194T287 326V1253Q287 1322 223 1356Q197 1369 153 1379T80 1391Z"/><glyph unicode="V" horiz-adv-x="1349" d="M-47 1391V1399H528V1391Q494 1389 459 1385T379 1365T328 1323Q324 1299 336 1266L768 203L1108 1104Q1153 1227 1153 1280Q1153 1311 1108 1337T1010 1377T907 1393V1399H1411V1393Q1352 1390 1284 1352Q1225 1318 1180 1204L705 -16H692L160 1266Q138 1322 82 1358Q37 1386 -47 1391Z"/><glyph unicode="W" horiz-adv-x="1918" d="M-43 1391V1399H545V1391Q470 1387 394 1367T317 1315Q317 1291 326 1264Q333 1243 387 1086T513 708T647 283L932 1077Q940 1105 940 1128Q940 1177 910 1251T836 1354Q816 1367 768 1378T688 1391V1399H1272V1391Q1202 1387 1135 1367T1067 1313Q1067 1290 1075 1262Q1083 1237 1136 1089T1266 718T1407 293Q1608 871 1663 1057Q1706 1204 1706 1280Q1706 1313 1663 1339T1567 1376T1460 1391V1399H1974V1391Q1904 1387 1847 1352Q1771 1304 1743 1223Q1592 769 1327 -16H1317Q1244 238 1106 645T956 1087L565 -16H553Q468 269 326 720T160 1257Q151 1291 135 1313T86 1356Q36 1387 -43 1391Z"/><glyph unicode="X" horiz-adv-x="1486" d="M-29 0V8Q48 13 98 35Q156 60 194 89T266 162Q308 214 453 391T672 662Q600 767 464 957T258 1237Q185 1331 125 1364Q108 1374 63 1382T-4 1391V1399H643V1391Q520 1386 480 1371Q432 1352 432 1313Q432 1286 471 1219Q542 1097 782 776Q1026 1077 1098 1210Q1135 1274 1135 1311Q1135 1337 1114 1354T1057 1378T992 1387T931 1391Q923 1391 920 1391V1399H1456V1391Q1370 1385 1321 1364Q1238 1328 1165 1237L797 760Q1157 260 1235 164Q1312 71 1368 33Q1401 12 1497 8V0H850V8Q855 8 887 9T944 13T999 23T1046 45T1063 82Q1063 117 1032 164Q921 342 686 647Q407 299 328 184Q285 119 285 96Q285 72 299 55T333 29T384 15T438 9T492 8V0H-29Z"/><glyph unicode="Y" horiz-adv-x="1200" d="M-70 1391V1399H528V1391Q448 1387 376 1370T303 1321Q303 1316 334 1249Q426 1059 655 639Q940 1100 1004 1229Q1028 1276 1028 1292Q1028 1334 943 1359T766 1391V1399H1274V1391Q1246 1391 1184 1366Q1121 1343 1063 1262Q945 1099 709 682Q674 620 668 600T662 532V143Q662 68 725 41Q744 33 804 21T893 8V0H262V8Q386 15 430 31Q494 55 494 133V559Q494 570 487 590T465 641T446 686Q288 1005 166 1219Q108 1319 43 1358Q-5 1388 -70 1391Z"/><glyph unicode="Z" horiz-adv-x="1232" d="M6 0V12L1001 1382H559Q455 1382 414 1378Q323 1362 221 1236T102 1032H90L133 1399H1192V1386L197 16H686Q763 16 855 29T977 68Q1044 123 1107 221T1206 410H1219L1171 0H6Z"/><glyph unicode="[" horiz-adv-x="1110" d="M156 -326V1489L203 1473Q376 1434 446 1420T623 1391T823 1376Q879 1376 918 1383T975 1397T1002 1422T1011 1446T1012 1473Q1012 1514 979 1561L989 1567Q1007 1554 1023 1519T1040 1452Q1040 1351 975 1294T778 1237Q712 1237 655 1247T540 1282T441 1327T328 1389T207 1454V-291Q256 -266 327 -226T441 -165T540 -119T654 -85T778 -74Q910 -74 975 -131T1040 -289Q1040 -347 981 -406L971 -399Q985 -387 998 -360T1012 -309Q1012 -295 1012 -289T1002 -265T975 -239T918 -222T823 -213Q729 -213 624 -227T447 -255T203 -309L156 -326Z"/><glyph unicode="\" horiz-adv-x="823" d="M66 1526L115 1540L756 -410L707 -424L66 1526Z"/><glyph unicode="]" horiz-adv-x="1110" d="M70 -289Q70 -188 135 -131T332 -74Q398 -74 455 -84T570 -119T669 -164T782 -226T903 -291V1454Q854 1429 783 1389T669 1328T570 1282T456 1248T332 1237Q200 1237 135 1294T70 1452Q70 1484 86 1519T121 1567L131 1561Q98 1514 98 1473Q98 1453 98 1446T108 1422T135 1398T192 1383T287 1376Q380 1376 487 1390T664 1419T907 1473L954 1489V-326L907 -309Q735 -270 664 -256T487 -227T287 -213Q231 -213 192 -221T135 -239T108 -265T99 -288T98 -309Q98 -333 111 -360T139 -399L129 -406Q70 -347 70 -289Z"/><glyph unicode="^" horiz-adv-x="872" d="M106 872Q254 1104 338 1223Q361 1252 379 1260T436 1268T493 1260T535 1223Q607 1120 766 872L756 864L436 1128L117 864L106 872Z"/><glyph unicode="_" horiz-adv-x="1220" d="M-14 -225H1235V-287H-14V-225Z"/><glyph unicode="`" horiz-adv-x="1024" d="M297 1423Q297 1454 316 1475T369 1497Q408 1497 434 1477T489 1409Q552 1303 692 1098L684 1092Q593 1162 495 1228T373 1313Q340 1339 329 1349T307 1379T297 1423Z"/><glyph unicode="a" horiz-adv-x="948" d="M76 186Q76 246 92 291T139 365T200 412T276 446Q315 461 390 487T522 534T618 578L616 717Q616 763 609 798T584 866T527 918T432 936Q379 936 338 916T283 874Q284 859 291 797T299 715Q299 682 271 660T199 637Q164 637 147 665T129 733Q129 821 224 885T436 950Q515 950 569 939T670 897T740 804T764 647Q764 544 759 376T754 188Q754 66 842 66Q935 66 950 236H963Q951 100 908 42T786 -16Q658 -16 618 121H612Q557 54 474 17T309 -20Q202 -20 139 34T76 186ZM231 211Q231 125 270 78T383 31Q523 31 610 139L618 557Q600 550 483 504Q354 455 293 387T231 211Z"/><glyph unicode="b" horiz-adv-x="1095" d="M-14 1499V1507L309 1528L319 1518V809L326 807Q458 950 602 950Q785 950 907 814T1030 459Q1030 358 991 266T887 111T739 10T571 -27Q501 -27 412 3T262 68L174 -47L168 -43Q176 66 176 336V1350Q176 1433 121 1466Q103 1476 59 1486T-14 1499ZM319 205Q331 164 349 130T396 61T469 6T567 -14Q697 -14 782 116T868 461Q868 526 857 586T822 701T761 797T671 862T551 887Q412 887 319 784V205Z"/><glyph unicode="c" horiz-adv-x="862" d="M66 467Q66 594 117 703T270 881T500 950Q642 950 723 880T805 713Q805 663 781 636T713 608Q679 608 648 629T616 700Q616 732 628 771T641 827Q631 882 594 911T498 940Q384 940 305 821T225 483Q225 362 259 260T363 95T522 31Q622 31 692 72T829 217L836 213Q721 -20 479 -20Q284 -20 175 114T66 467Z"/><glyph unicode="d" horiz-adv-x="1122" d="M66 475Q66 610 133 720T307 890T537 950Q563 950 589 948T638 941T680 932T717 921T746 911T770 901L784 895V1337Q784 1417 731 1456Q684 1489 551 1499V1507L918 1528L928 1518V150Q928 86 981 49Q1011 30 1102 25V16L797 -2L786 8V113L778 115Q644 -25 504 -25Q315 -25 191 112T66 475ZM227 451Q227 370 247 297T305 165T409 70T557 35Q630 35 682 62T784 141V741Q771 778 752 810T703 872T628 920T528 938Q398 938 313 802T227 451Z"/><glyph unicode="e" horiz-adv-x="890" d="M66 471Q66 563 94 648T172 801T301 909T473 950Q570 950 642 919T756 832T818 702T838 539V524H223V504Q223 367 255 264T361 97T541 33Q620 33 676 56T767 118T846 225L856 219Q802 107 709 44T496 -20Q389 -20 305 19T170 126T92 281T66 471ZM223 541L684 545Q684 631 676 696T646 818T582 907T477 938Q367 938 297 833T223 541Z"/><glyph unicode="f" horiz-adv-x="618" d="M8 895V924H219V987Q219 1263 356 1411Q410 1469 484 1499T627 1530Q719 1530 763 1483T807 1370Q807 1343 782 1315T717 1286Q676 1286 651 1312T625 1380Q625 1419 641 1481Q622 1509 580 1509Q479 1509 427 1402T365 1055Q362 1008 362 924H618V895H362V125Q362 51 416 31Q464 12 547 8V0H74V8Q139 12 164 20Q219 37 219 115V895H8Z"/><glyph unicode="g" horiz-adv-x="1011" d="M37 -225Q37 -136 131 -78T387 -2V8Q345 17 309 30T232 65T169 121T145 197Q145 230 160 257T203 304T256 336T317 362V369Q210 416 153 489T96 651Q96 788 193 869T436 950Q518 950 590 925T705 866Q711 869 741 885T791 911T844 930T905 940Q958 940 990 918T1022 852Q1022 807 1002 781T944 754Q855 754 855 876Q855 891 856 909Q830 909 784 891T705 842V831Q733 792 751 737T770 641Q770 556 721 488T599 385T451 350H322Q287 339 265 312T242 246Q242 209 262 186T320 152T389 139T466 133Q468 133 469 133T473 133L678 123Q793 117 874 43T956 -150Q956 -292 825 -382T465 -473Q37 -473 37 -225ZM162 -229Q162 -327 243 -393T496 -459Q659 -459 749 -387T840 -186Q840 -70 725 -29Q608 -14 406 -14Q273 -31 218 -82T162 -229ZM248 653Q248 534 300 448T432 362Q493 362 537 405T601 511T621 647Q621 724 603 787T541 894T430 938Q379 938 342 914T285 848T257 759T248 653Z"/><glyph unicode="h" horiz-adv-x="1144" d="M8 1499V1507L334 1528L342 1518V762H346Q355 770 385 801T429 845T476 883T535 919T600 940T682 950Q820 950 887 865T954 627V123Q954 53 1010 29Q1055 10 1100 8V0H641V8Q712 11 745 20Q809 38 809 115V655Q809 757 753 818T621 879Q564 879 514 863T431 821T376 773T342 729V125Q342 57 401 31Q448 11 506 8V0H53V8Q118 12 143 20Q199 37 199 115V1350Q199 1429 143 1468Q126 1479 83 1488T8 1499Z"/><glyph unicode="i" horiz-adv-x="552" d="M43 905V913L350 936L360 926V127Q360 58 416 31Q476 10 506 8V0H74V8Q139 12 164 20Q192 28 205 54T219 115V764Q219 826 162 866Q142 879 106 891T43 905ZM168 1343Q168 1386 199 1420T272 1454Q320 1454 350 1425T381 1356Q381 1309 350 1274T272 1239Q230 1239 199 1270T168 1343Z"/><glyph unicode="j" horiz-adv-x="561" d="M-166 -338Q-166 -304 -136 -274T-61 -244Q-19 -244 11 -267T41 -334Q41 -347 32 -383T25 -438Q45 -446 76 -446Q173 -446 210 -350T248 -6V756Q248 788 233 818T193 864Q175 875 115 889T25 905V913L379 936L389 926V68Q389 -72 361 -177T260 -356Q195 -421 142 -447T20 -473Q-57 -473 -111 -436T-166 -338ZM190 1343Q190 1386 222 1420T295 1454Q343 1454 373 1425T403 1356Q403 1309 372 1274T295 1239Q254 1239 222 1270T190 1343Z"/><glyph unicode="k" horiz-adv-x="1052" d="M8 1499V1507L332 1528L342 1518V459Q403 514 525 632T707 817Q727 840 727 860Q727 897 567 915V924H967V915Q862 886 820 867T725 801Q623 708 508 594Q548 579 585 558T650 513T707 456T756 395T802 323T843 250T886 170T930 88Q948 52 1001 27Q1040 8 1069 8V0H793Q773 65 737 142T654 296T547 424T434 475T342 442V125Q342 55 399 33Q462 10 500 8V0H53V8Q118 12 143 20Q199 37 199 115V1348Q199 1427 143 1466Q103 1494 8 1499Z"/><glyph unicode="l" horiz-adv-x="538" d="M4 1499V1507L336 1528L344 1520V121Q344 49 395 27Q430 11 489 8V0H55V8Q120 12 145 20Q201 37 201 115V1343Q201 1421 145 1460Q97 1491 4 1499Z"/><glyph unicode="m" horiz-adv-x="1753" d="M55 903V913L346 936L356 926V762H362Q372 772 409 810T466 864T523 904T602 939T694 950Q790 950 858 897T956 760Q970 773 998 801T1043 845T1090 884T1146 919T1211 941T1292 950Q1429 950 1495 859T1561 614V125Q1561 53 1616 29Q1659 11 1716 8V0H1260V8Q1317 11 1352 20Q1417 37 1417 115V659Q1417 760 1362 819T1231 879Q1174 879 1125 863T1043 820T991 773T958 731V125Q958 54 1018 29Q1062 11 1116 8V0H666V8Q715 11 752 20Q817 37 817 115V659Q817 760 762 819T631 879Q464 879 358 729V127Q358 58 420 31Q468 11 522 8V0H70V8Q135 12 160 20Q217 38 217 115V768Q217 826 162 864Q105 900 55 903Z"/><glyph unicode="n" horiz-adv-x="1163" d="M61 905V913L350 936L358 928V762H362Q373 772 401 801T444 845T490 883T547 919T613 940T694 950Q832 950 901 864T971 627V123Q971 53 1026 29Q1071 10 1116 8V0H659V8Q731 12 764 20Q827 38 827 115V655Q827 758 770 818T633 879Q576 879 526 862T443 819T390 771T358 729V125Q358 56 420 31Q467 11 524 8V0H70V8Q135 12 160 20Q217 38 217 115V764Q217 796 202 825T162 872Q115 902 61 905Z"/><glyph unicode="o" horiz-adv-x="1028" d="M63 457Q63 676 189 813T520 950Q719 950 842 814T965 473Q965 372 934 282T844 123T698 14T502 -27Q416 -27 337 7T197 103T100 256T63 457ZM221 475Q221 378 238 293T289 137T382 27T516 -14Q610 -14 678 56T776 233T807 471Q807 559 791 638T743 786T652 897T516 938Q434 938 374 895T282 781T236 633T221 475Z"/><glyph unicode="p" horiz-adv-x="1120" d="M33 907V913L330 936L338 930V799L346 797Q487 950 625 950Q809 950 932 813T1055 455Q1055 318 989 207T815 35T586 -25Q436 -25 350 39H342V-328Q342 -361 357 -388T399 -426Q464 -451 537 -455V-463H35V-455Q107 -451 145 -438Q172 -430 185 -400T199 -332V770Q199 834 145 872Q126 884 93 895T33 907ZM342 174Q352 145 371 115T419 55T494 7T590 -12Q722 -12 806 115T891 457Q891 540 873 614T819 751T720 850T575 887Q442 887 342 776V174Z"/><glyph unicode="q" horiz-adv-x="1093" d="M66 475Q66 608 134 719T307 890T528 950Q586 950 640 936T724 907T783 873T817 852L940 975L944 971Q928 643 928 598V-324Q928 -402 983 -426Q1030 -447 1102 -455V-463H616V-455Q680 -452 729 -438Q784 -422 784 -340V111L778 113Q646 -25 504 -25Q385 -25 286 35T126 211T66 475ZM227 449Q227 368 247 296T306 165T409 72T557 37Q630 37 682 62T784 135V745Q773 776 754 806T705 868T629 918T528 938Q399 938 313 802T227 449Z"/><glyph unicode="r" horiz-adv-x="747" d="M61 905V913L350 936L358 928V760H362Q429 847 503 896T639 946Q680 946 715 916T750 844Q750 797 725 765T655 733Q613 733 588 754T563 819Q563 853 584 887Q512 887 451 835T358 729V125Q358 52 414 31Q461 12 545 8V0H70V8Q135 12 160 20Q217 38 217 115V762Q217 794 202 824T162 872Q115 902 61 905Z"/><glyph unicode="s" horiz-adv-x="784" d="M70 299H80Q111 168 197 78T397 -12Q512 -12 570 50T629 205Q629 245 614 274T563 326T486 365T375 403Q307 424 261 446T175 500T114 580T94 690Q94 804 171 877T377 950Q442 950 503 933T604 889L643 952H651L666 680H655Q631 782 549 859T367 936Q277 936 227 883T176 754Q176 719 186 694T212 651T260 617T324 591T410 562Q424 557 432 555Q572 510 641 443T711 256Q711 130 619 52T389 -27Q317 -27 247 -3T127 55L88 -8H80L70 299Z"/><glyph unicode="t" horiz-adv-x="681" d="M0 895V924H205V1241H342V924H623V895H344V272Q344 162 374 108T487 53Q549 53 596 104T659 244H672Q655 127 597 56T430 -16Q201 -16 201 260V895H0Z"/><glyph unicode="u" horiz-adv-x="1126" d="M37 901V911L326 936L336 926V258Q336 154 388 94T518 33Q692 33 784 170V774Q784 841 729 877Q698 897 588 901V911L918 936L928 926V147Q928 86 981 49Q1013 28 1077 25V16L801 -2L786 12V137H780Q775 132 765 122Q729 85 708 67T648 24T563 -12T457 -23Q321 -23 256 67T190 311V768Q190 833 137 870Q93 898 37 901Z"/><glyph unicode="v" horiz-adv-x="931" d="M-29 915V924H379V913Q334 911 297 900T260 866Q260 858 274 823L547 170L791 784Q806 823 803 844Q799 874 747 891T647 915V924H977V915Q938 909 891 880T825 803L492 -16H475L119 813Q81 900 -29 915Z"/><glyph unicode="w" horiz-adv-x="1452" d="M-16 915V924H387V913Q266 908 266 866Q266 856 279 823L530 199H535Q559 260 601 365T677 556T739 723Q708 811 698 829Q675 876 647 893T569 915V924H936V915Q827 910 827 872Q827 850 844 807L1081 193H1087Q1118 276 1169 408T1255 631T1313 797Q1323 827 1323 848Q1324 881 1256 899Q1195 915 1154 915Q1149 915 1145 915V924H1505V915Q1450 912 1404 877T1337 788L1108 199Q1081 131 1030 -16H1018L750 686Q617 363 557 199Q548 176 533 137T504 63T477 -16H465L123 811Q105 854 67 882T-16 915Z"/><glyph unicode="x" horiz-adv-x="911" d="M0 0V6Q61 28 96 54T168 127L403 434L141 821Q104 877 78 895T14 915V924H381V913Q347 913 307 904T266 883Q266 870 285 840Q289 832 489 539Q639 739 692 819Q700 830 700 854Q700 864 688 872T652 888T609 900T559 912Q549 914 545 915V924H885V915Q768 885 713 811Q689 780 615 679T500 524Q550 452 651 301T776 115Q780 109 792 91T807 68T821 52T837 36T856 25T881 15T913 8V0H520V8Q569 12 610 23T651 51Q651 70 623 115L414 420Q230 181 186 119Q166 90 166 72Q166 46 232 29T342 8V0H0Z"/><glyph unicode="y" horiz-adv-x="917" d="M-27 -348Q-27 -310 3 -277T78 -244Q114 -244 142 -264T170 -334V-424Q236 -415 310 -312T461 -16Q367 230 253 492T115 813Q97 857 59 883T-27 915V924H375V913Q332 911 294 899T256 866Q256 865 270 823Q287 775 390 538T539 182H541Q684 523 784 784Q799 824 799 842Q799 867 730 888T614 915V924H965V915Q934 911 886 879T819 803L473 -31Q401 -205 342 -302T230 -435T111 -471Q83 -471 53 -461T-2 -421T-27 -348Z"/><glyph unicode="z" horiz-adv-x="868" d="M53 0V12L645 907H494Q249 907 195 887Q138 864 98 666H90V924H809V911L219 16Q293 14 401 14Q520 14 655 20Q691 21 710 44T743 106Q785 221 803 301H813L815 0H53Z"/><glyph unicode="{" horiz-adv-x="839" d="M63 535V643Q129 648 173 655T262 681T334 726T376 799T393 909Q393 952 377 1042T360 1174Q360 1247 371 1302T407 1396T465 1460T549 1499T655 1518T786 1524V1513Q746 1511 714 1505T642 1482T576 1436T531 1356T512 1235Q512 1194 521 1118T530 1001Q530 941 520 892T493 809T448 747T393 703T326 673T254 653T176 639V539Q221 532 253 525T325 505T392 474T447 430T492 369T519 285T530 176Q530 135 521 60T512 -57Q512 -115 524 -161T559 -236T607 -285T666 -315T726 -329T786 -336V-346Q710 -346 655 -341T550 -321T466 -282T408 -218T372 -124T360 4Q360 46 376 135T393 268Q393 321 383 362T350 431T301 477T234 507T155 525T63 535Z"/><glyph unicode="|" horiz-adv-x="552" d="M250 -424V1528H303V-424H250Z"/><glyph unicode="}" horiz-adv-x="839" d="M53 -336Q93 -334 125 -329T197 -305T264 -259T309 -178T328 -57Q328 -16 319 59T309 176Q309 236 319 285T347 368T392 430T447 474T514 504T586 525T664 539V639Q598 649 555 660T461 696T380 758T330 856T309 1001Q309 1042 318 1118T328 1235Q328 1304 310 1355T265 1435T198 1481T126 1505T53 1513V1524Q129 1524 184 1519T289 1499T373 1460T431 1396T467 1302T479 1174Q479 1132 463 1042T446 909Q446 845 462 800T505 727T576 681T666 656T776 643V535Q723 531 684 525T605 508T538 478T489 431T457 362T446 268Q446 225 462 136T479 4Q479 -69 468 -124T432 -218T374 -282T290 -321T184 -340T53 -346V-336Z"/><glyph unicode="~" horiz-adv-x="1064" d="M104 397Q130 491 210 562T387 633Q453 633 519 611T642 566T741 543Q817 543 866 576T952 678L961 674Q934 575 864 503T700 430Q630 430 564 452T443 497T346 520Q183 520 115 393L104 397Z"/><glyph unicode="" horiz-adv-x="0"/><glyph unicode=" " horiz-adv-x="245"/><glyph unicode="¡" horiz-adv-x="655" d="M209 1272T209 1321T243 1404T328 1438Q377 1438 410 1405T444 1321T411 1237T328 1202Q278 1202 244 1237ZM219 111Q219 138 239 283T286 635T322 999H334Q340 844 364 638T410 285T432 111Q432 60 402 23T326 -14T250 23T219 111Z"/><glyph unicode="¢" horiz-adv-x="946" d="M111 621Q111 748 162 857T315 1035T545 1104Q566 1104 602 1100L666 1372L692 1366L629 1096Q728 1075 784 1011T840 866Q840 817 814 790T743 762Q710 762 681 783T651 854Q650 897 669 937T684 1001Q673 1054 625 1077L426 238Q482 195 571 195Q666 195 737 232T874 371L881 367Q765 133 524 133Q458 133 406 147L315 -231L291 -225L381 156Q252 201 182 325T111 621ZM268 637Q268 516 303 415T403 256L600 1087Q572 1094 547 1094Q493 1094 444 1066T355 982T292 838T268 637Z"/><glyph unicode="£" horiz-adv-x="1480" d="M-100 -20Q-100 67 4 115T256 164Q351 164 539 117Q557 207 549 387H207V408H549Q545 540 545 602H219V625H545Q557 989 710 1209T1102 1430Q1197 1430 1273 1397T1395 1310T1463 1198T1487 1081Q1487 935 1400 845T1180 754Q1076 754 1013 827T950 1012Q950 1090 987 1169L997 1165Q965 1091 965 1018Q965 920 1026 862T1180 803Q1282 803 1334 875T1386 1071Q1386 1167 1359 1243T1268 1368T1114 1417Q1034 1417 970 1383T854 1277T772 1083T737 793Q733 675 729 625H1057V602H727Q718 517 696 408H1040V387H692Q633 172 588 98Q642 80 740 37T917 -32T1073 -57Q1131 -57 1177 -36T1252 17T1301 95T1332 180T1350 268L1362 266Q1353 194 1335 135T1281 19T1195 -77T1066 -140T889 -164Q854 -164 817 -156T737 -130T664 -99T582 -59T506 -20Q443 -95 341 -148T139 -201Q21 -201 -39 -150T-100 -20ZM-74 -43Q-74 -98 -19 -141T137 -184Q232 -184 325 -137T485 -12Q372 43 284 65T104 88Q24 88 -25 53T-74 -43Z"/><glyph unicode="¤" horiz-adv-x="1140" d="M63 496V518H213Q210 628 215 702H63V725H219Q234 838 275 936T381 1109T537 1227T737 1270Q897 1270 988 1198T1079 1030Q1079 966 1053 930T989 893Q945 893 921 921T897 991Q897 1021 919 1062T942 1135Q933 1189 873 1223T729 1257Q584 1257 494 1113T385 725H866V702H383Q381 632 385 518H784V496H387Q394 400 418 319T485 175T592 75T739 39Q968 39 1090 299L1100 293Q1067 219 1032 166T948 66T833 -5T684 -29Q486 -29 362 107T215 496H63Z"/><glyph unicode="¥" horiz-adv-x="1148" d="M-12 1235V1243H504V1235Q330 1224 330 1180Q330 1154 420 978T633 586Q711 715 751 782T847 945T928 1092T954 1157Q954 1219 745 1235V1243H1159V1235Q1120 1230 1078 1207T1012 1151Q951 1066 839 884T635 543H967V520H633V348H967V326H633V133Q633 100 649 74T692 35Q713 25 763 17T846 6V0H258V6Q378 12 420 27Q448 36 465 62T483 123V326H162V348H483V520H162V543H481Q302 909 207 1075Q151 1171 90 1206Q46 1232 -12 1235Z"/><glyph unicode="¦" horiz-adv-x="552" d="M250 379H303V-424H250V379ZM250 743V1528H303V743H250Z"/><glyph unicode="§" horiz-adv-x="1064" d="M117 694Q117 754 140 802T203 882T288 933T383 958Q301 1082 301 1208Q301 1328 396 1419T614 1511Q716 1511 778 1443T840 1307Q840 1241 810 1204T731 1167Q694 1167 668 1192T641 1264Q641 1290 656 1310T691 1339T725 1362T741 1391Q741 1435 702 1467T594 1499Q517 1499 458 1432T399 1264Q399 1216 416 1171T455 1093T524 997Q558 951 596 907T689 803T786 692Q874 588 911 519T948 362Q948 153 676 111Q766 -25 766 -160Q766 -280 673 -372T457 -465Q402 -465 355 -444T278 -390T233 -323T217 -258Q217 -192 247 -156T326 -119Q363 -119 389 -143T416 -215Q416 -240 406 -259T382 -288T359 -313T348 -346Q348 -390 383 -421T471 -453Q560 -453 611 -382T662 -199Q662 -131 635 -76T541 66Q499 121 412 213T272 369Q188 469 153 537T117 694ZM215 739Q215 699 244 643T315 537Q364 477 493 332T668 121Q842 166 842 317Q842 404 745 520Q694 581 615 674T480 833T389 948Q315 935 265 883T215 739Z"/><glyph unicode="¨" horiz-adv-x="1024" d="M190 1288Q190 1331 221 1362T293 1393Q338 1393 368 1364T399 1296Q399 1251 369 1220T293 1188Q251 1188 221 1217T190 1288ZM625 1288Q625 1331 655 1362T727 1393Q772 1393 801 1364T831 1296Q831 1251 801 1220T727 1188Q684 1188 655 1217T625 1288Z"/><glyph unicode="©" horiz-adv-x="1923" d="M82 514Q82 691 153 854T344 1136T626 1324T963 1395Q1136 1395 1297 1325T1578 1136T1769 855T1841 514Q1841 335 1770 171T1579 -111T1298 -300T963 -371Q789 -371 627 -301T346 -112T154 171T82 514ZM135 514Q135 345 202 190T382 -77T646 -255T963 -322Q1126 -322 1278 -256T1542 -78T1721 189T1788 514Q1788 682 1721 836T1542 1102T1278 1279T963 1346Q799 1346 646 1280T381 1102T202 837T135 514ZM500 506Q500 719 644 861T1004 1004Q1079 1004 1150 983T1262 934L1307 1018H1315L1323 647H1315Q1202 985 965 985Q850 985 762 860T674 516Q674 330 773 211T1016 92Q1232 92 1348 330L1358 324Q1332 266 1299 217T1220 124T1110 53T975 27Q762 27 631 157T500 506Z"/><glyph unicode="ª" horiz-adv-x="692" d="M106 827Q106 894 138 928T225 987Q255 999 324 1019T420 1053V1116Q420 1136 416 1157T402 1202T370 1241T317 1257Q274 1257 246 1223Q246 1214 251 1178T256 1128Q256 1105 242 1089T197 1073Q137 1073 137 1139Q137 1192 197 1231T324 1270Q360 1270 386 1267T440 1253T486 1224T514 1171T526 1090Q526 1031 522 934T518 827Q518 815 521 802T538 773T573 758Q601 758 615 790T631 862H641Q630 698 520 698Q451 698 424 782Q391 743 342 720T244 696Q183 696 145 732T106 827ZM117 502V530H610V502H117ZM219 848Q219 800 244 770T305 739Q345 739 368 752T414 793L420 1038Q327 1005 273 960T219 848Z"/><glyph unicode="«" horiz-adv-x="1107" d="M92 434T92 459T100 497T133 530Q149 543 245 618T426 763T551 870L557 864L244 455L557 51L551 45Q497 92 324 231T137 383Q110 407 101 420ZM520 434T520 459T528 497T561 530Q577 543 673 618T854 763T979 870L985 864L672 455L985 51L979 45Q925 92 752 231T565 383Q538 407 529 420Z"/><glyph unicode="¬" horiz-adv-x="1138" d="M86 526V584H1006V80H948V526H86Z"/><glyph unicode="®" horiz-adv-x="958" d="M113 910T113 1067T220 1332T479 1440T738 1332T846 1067T739 802T479 694T220 802ZM139 1215T139 1067T238 818T479 717T720 818T819 1067T720 1316T479 1417T238 1316ZM295 872V879Q324 879 336 885Q354 894 354 915V1247Q354 1273 336 1278Q312 1286 295 1286V1292H504Q556 1292 594 1269T633 1198Q633 1174 622 1156T589 1126T553 1108T514 1096V1090Q542 1086 571 1068T608 1020Q611 1008 619 972T633 920Q641 893 664 893Q696 893 696 952H705Q705 906 690 886T635 866Q603 866 581 893T553 971Q539 1083 457 1083H416V915Q416 893 434 885Q446 879 475 879V872H295ZM416 1092H455Q501 1092 531 1114T561 1186T536 1259T471 1284H416V1092Z"/><glyph unicode="¯" horiz-adv-x="1024" d="M174 1233V1333H850V1233H174Z"/><glyph unicode="°" horiz-adv-x="778" d="M92 1145Q92 1276 182 1365T385 1454Q512 1454 599 1375T686 1147Q686 1023 595 936T385 848Q260 848 176 926T92 1145ZM201 1153Q201 1077 221 1013T285 906T391 862Q467 862 521 946T575 1143Q575 1269 526 1354T387 1440Q299 1440 250 1354T201 1153Z"/><glyph unicode="±" horiz-adv-x="1138" d="M76 563V623H541V1087H598V623H1063V563H598V100H541V563H76ZM117 0V53H1022V0H117Z"/><glyph unicode="²" horiz-adv-x="935" d="M150 1239Q150 1341 265 1434T528 1528Q664 1528 751 1466T838 1313Q838 1187 742 1095T406 889Q368 872 281 803H727Q744 803 761 810T789 826T816 854T840 884T865 923T889 961L895 958L766 690H156V748Q199 776 274 823T382 892T460 948T541 1018Q630 1105 659 1173T688 1335Q688 1418 642 1467T510 1516Q399 1516 322 1437T244 1274Q244 1231 269 1203T352 1174Q396 1174 432 1194T485 1235T520 1286L528 1278Q429 1112 274 1112Q219 1112 185 1144T150 1239Z"/><glyph unicode="³" horiz-adv-x="923" d="M104 866Q104 916 137 948T213 981Q246 981 265 961T285 905Q285 881 273 865T246 842T219 822T207 795Q207 755 254 723T381 690Q496 690 583 778T670 975Q670 1049 641 1101T545 1153Q530 1153 515 1148T479 1129T448 1106T411 1076T379 1049L360 1075Q375 1083 414 1104T468 1134T514 1160T558 1188T592 1215T622 1246T642 1279T658 1317T662 1358Q662 1427 617 1471T502 1516Q440 1516 363 1460T285 1333Q285 1296 307 1273T373 1249Q389 1249 404 1252T432 1264T453 1277T472 1293T487 1305L492 1300Q461 1261 411 1231T311 1200Q182 1200 182 1303Q182 1357 236 1409T375 1495T547 1528Q677 1528 739 1475T801 1358Q801 1298 736 1246T547 1163Q621 1163 678 1148T776 1089T817 979Q817 849 689 765T381 680Q316 680 255 700T149 764T104 866Z"/><glyph unicode="´" horiz-adv-x="1024" d="M330 1098Q463 1292 532 1409Q560 1457 587 1477T653 1497Q687 1497 706 1476T725 1423Q725 1398 715 1379T694 1350T649 1313Q627 1295 529 1230T338 1092L330 1098Z"/><glyph unicode="µ" horiz-adv-x="1132" d="M127 -362Q127 -297 148 -200T170 -92Q180 -10 180 129V926H324V283Q324 182 383 119T530 55Q632 55 693 88T780 164V926H924V188Q924 150 954 116T1038 82Q1088 82 1118 130T1153 244H1159Q1150 100 1107 41T969 -18Q836 -18 784 139H778Q719 67 639 24T469 -20Q305 -20 209 123H205V-14Q205 -82 247 -195T289 -356Q289 -406 265 -434T207 -463Q175 -463 151 -434T127 -362Z"/><glyph unicode="¶" horiz-adv-x="1230" d="M121 1049Q121 1109 141 1167T204 1279T323 1366T502 1399H1208V1374H918V-256H889V1374H664V-256H635V717H573Q467 717 386 736T256 787T176 863T133 952T121 1049Z"/><glyph unicode="·" horiz-adv-x="466" d="M119 557Q119 607 153 641T236 676T319 642T354 557Q354 508 320 474T236 440T153 474T119 557Z"/><glyph unicode="¸" horiz-adv-x="1024" d="M371 -453Q649 -453 649 -311Q649 -283 634 -265T591 -239T537 -228T475 -225V16H492V-119Q776 -119 776 -274Q776 -323 754 -358T695 -414T604 -447T495 -463T371 -467V-453Z"/><glyph unicode="¹" horiz-adv-x="686" d="M39 1503L41 1507Q126 1475 199 1475Q320 1475 436 1534H442Q422 1450 422 1325V786Q422 736 469 721Q501 710 606 702V694H90V702Q214 710 233 715Q255 721 269 739T283 780V1442Q256 1436 219 1436Q126 1436 39 1503Z"/><glyph unicode="º" horiz-adv-x="733" d="M96 977Q96 1106 174 1188T369 1270Q485 1270 561 1189T637 985Q637 860 560 774T362 688Q256 688 176 768T96 977ZM119 502V530H612V502H119ZM215 985Q215 933 223 885T249 794T298 726T369 700Q408 700 437 725T483 792T508 882T516 983Q516 1031 509 1076T485 1164T439 1231T369 1257Q326 1257 294 1230T246 1160T223 1073T215 985Z"/><glyph unicode="»" horiz-adv-x="1107" d="M123 51L436 455L123 864L129 870Q168 833 253 764T435 619T547 530Q572 510 580 497T588 459T579 421T543 383Q529 371 356 232T129 45L123 51ZM551 51L864 455L551 864L557 870Q596 833 681 764T863 619T975 530Q1000 510 1008 497T1016 459T1007 421T971 383Q957 371 784 232T557 45L551 51Z"/><glyph unicode="¼" horiz-adv-x="1146" d="M96 508V551H1049V508H96ZM178 -152L711 377H741V-129Q748 -129 762 -129Q810 -129 833 -129T884 -124T924 -111Q942 -98 953 -68T965 -10H973V-311H965Q961 -234 920 -201Q915 -197 908 -195T889 -191T868 -188T841 -187T812 -186T777 -186T741 -186V-375Q741 -424 782 -438Q818 -452 885 -457V-465H467V-457Q548 -451 569 -444Q612 -431 612 -383V-186H178V-152ZM221 -129H612V260L221 -129ZM276 1503L279 1507Q364 1475 436 1475Q558 1475 674 1534H680Q659 1446 659 1325V786Q659 764 671 746T707 721Q739 710 844 702V694H328V702Q452 710 471 715Q493 721 506 739T520 780V1442Q493 1436 457 1436Q363 1436 276 1503Z"/><glyph unicode="½" horiz-adv-x="1146" d="M96 508V551H1049V508H96ZM244 84Q244 186 360 279T623 373Q759 373 845 311T932 158Q932 32 836 -60T500 -266Q462 -283 375 -352H821Q836 -352 849 -348T876 -334T898 -316T921 -289T941 -261T962 -228T983 -195L989 -197L860 -465H250V-408Q291 -381 368 -333T476 -263T553 -207T635 -137Q724 -50 753 18T782 180Q782 263 736 311T604 360Q493 360 416 282T338 119Q338 76 363 47T446 18Q480 18 508 28T556 58T589 93T614 131L623 123Q524 -43 369 -43Q314 -43 279 -11T244 84ZM276 1503L279 1507Q364 1475 436 1475Q558 1475 674 1534H680Q659 1446 659 1325V786Q659 764 671 746T707 721Q739 710 844 702V694H328V702Q452 710 471 715Q493 721 506 739T520 780V1442Q493 1436 457 1436Q363 1436 276 1503Z"/><glyph unicode="¾" horiz-adv-x="1146" d="M96 508V551H1049V508H96ZM178 -152L711 377H741V-129Q748 -129 762 -129Q810 -129 833 -129T884 -124T924 -111Q942 -98 953 -68T965 -10H973V-311H965Q961 -234 920 -201Q915 -197 908 -195T889 -191T868 -188T841 -187T812 -186T777 -186T741 -186V-375Q741 -424 782 -438Q818 -452 885 -457V-465H467V-457Q548 -451 569 -444Q612 -431 612 -383V-186H178V-152ZM197 866Q197 917 229 949T305 981Q338 981 357 961T377 905Q377 881 365 865T338 842T311 822T299 795Q299 755 346 723T473 690Q588 690 675 778T762 975Q762 1049 733 1101T637 1153Q622 1153 607 1148T571 1129T540 1106T503 1076T471 1049L453 1075Q467 1083 507 1104T561 1133T606 1160T650 1188T684 1216T715 1247T735 1279T750 1317T754 1358Q754 1427 709 1471T594 1516Q532 1516 455 1460T377 1333Q377 1296 399 1273T465 1249Q481 1249 496 1252T524 1264T545 1277T565 1292T580 1305L584 1300Q553 1261 503 1231T403 1200Q274 1200 274 1303Q274 1357 328 1409T467 1495T639 1528Q769 1528 831 1475T893 1358Q893 1298 828 1246T639 1163Q713 1163 770 1148T868 1089T909 979Q909 849 781 765T473 680Q408 680 347 700T241 764T197 866ZM221 -129H612V260L221 -129Z"/><glyph unicode="¿" horiz-adv-x="937" d="M98 385Q98 564 222 680T559 819L575 1077H590V692Q553 686 527 681T463 664T400 639T345 603T299 553T270 485T258 397Q258 201 331 99T520 -4Q561 -4 601 10T655 49Q637 163 649 205Q668 268 737 268Q777 268 800 241T823 172Q823 99 744 43T520 -14Q412 -14 329 18T197 107T123 234T98 385ZM461 1266T461 1315T495 1398T580 1432T664 1398T698 1315Q698 1265 664 1231T580 1196Q530 1196 496 1231Z"/><glyph unicode="À" horiz-adv-x="1380" d="M-53 0V8Q20 12 80 47Q118 69 153 111T211 207Q559 1048 709 1421H727Q843 1129 1020 675T1227 145Q1240 111 1258 87T1311 43Q1361 12 1434 8V0H840V8Q914 12 987 32T1061 86Q1061 116 1053 135L899 522H367Q279 304 260 233Q236 152 236 119Q236 93 261 72T327 37T407 17T485 8V0H-53ZM375 547H891L643 1202L375 547ZM496 1837Q496 1868 514 1889T567 1911Q606 1911 633 1891T688 1823Q755 1709 891 1511L883 1505Q792 1575 694 1641T571 1726Q540 1751 528 1763T506 1793T496 1837Z"/><glyph unicode="Á" horiz-adv-x="1380" d="M-53 0V8Q20 12 80 47Q118 69 153 111T211 207Q559 1048 709 1421H727Q843 1129 1020 675T1227 145Q1240 111 1258 87T1311 43Q1361 12 1434 8V0H840V8Q914 12 987 32T1061 86Q1061 116 1053 135L899 522H367Q279 304 260 233Q236 152 236 119Q236 93 261 72T327 37T407 17T485 8V0H-53ZM375 547H891L643 1202L375 547ZM528 1511Q664 1709 731 1823Q759 1871 786 1891T852 1911Q886 1911 905 1890T924 1837Q924 1812 914 1793T892 1763T848 1726Q826 1708 728 1643T537 1505L528 1511Z"/><glyph unicode="Â" horiz-adv-x="1380" d="M-53 0V8Q20 12 80 47Q118 69 153 111T211 207Q559 1048 709 1421H727Q843 1129 1020 675T1227 145Q1240 111 1258 87T1311 43Q1361 12 1434 8V0H840V8Q914 12 987 32T1061 86Q1061 116 1053 135L899 522H367Q279 304 260 233Q236 152 236 119Q236 93 261 72T327 37T407 17T485 8V0H-53ZM375 547H891L643 1202L375 547ZM399 1511Q447 1581 492 1651T576 1784T629 1870Q649 1899 663 1907T713 1915Q746 1915 760 1907T793 1874Q812 1846 885 1724T1020 1511L1012 1503L713 1778L408 1505L399 1511Z"/><glyph unicode="Ã" horiz-adv-x="1380" d="M-53 0V8Q20 12 80 47Q118 69 153 111T211 207Q559 1048 709 1421H727Q843 1129 1020 675T1227 145Q1240 111 1258 87T1311 43Q1361 12 1434 8V0H840V8Q914 12 987 32T1061 86Q1061 116 1053 135L899 522H367Q279 304 260 233Q236 152 236 119Q236 93 261 72T327 37T407 17T485 8V0H-53ZM330 1550Q345 1592 365 1630T416 1707T487 1769T575 1792Q628 1792 674 1775T747 1737T809 1699T877 1681Q923 1681 955 1690T1010 1719T1047 1762T1079 1821L1087 1819Q1061 1719 996 1648T836 1577Q779 1577 732 1594T657 1633T594 1672T524 1690Q463 1690 422 1656T338 1546L330 1550ZM375 547H891L643 1202L375 547Z"/><glyph unicode="Ä" horiz-adv-x="1380" d="M-53 0V8Q20 12 80 47Q118 69 153 111T211 207Q559 1048 709 1421H727Q843 1129 1020 675T1227 145Q1240 111 1258 87T1311 43Q1361 12 1434 8V0H840V8Q914 12 987 32T1061 86Q1061 116 1053 135L899 522H367Q279 304 260 233Q236 152 236 119Q236 93 261 72T327 37T407 17T485 8V0H-53ZM375 547H891L643 1202L375 547ZM389 1651Q389 1694 419 1724T492 1755Q537 1755 567 1727T598 1659Q598 1614 568 1582T492 1550Q451 1550 420 1580T389 1651ZM823 1651Q823 1694 853 1724T926 1755Q971 1755 1000 1727T1030 1659Q1030 1614 1000 1582T926 1550Q883 1550 853 1580T823 1651Z"/><glyph unicode="Å" horiz-adv-x="1380" d="M-53 0V8Q20 12 80 47Q118 69 153 111T211 207Q559 1048 709 1421H727Q843 1129 1020 675T1227 145Q1240 111 1258 87T1311 43Q1361 12 1434 8V0H840V8Q914 12 987 32T1061 86Q1061 116 1053 135L899 522H367Q279 304 260 233Q236 152 236 119Q236 93 261 72T327 37T407 17T485 8V0H-53ZM375 547H891L643 1202L375 547ZM487 1702Q487 1790 551 1846T711 1903Q811 1903 872 1848T934 1702Q934 1613 874 1557T711 1501Q606 1501 547 1555T487 1702ZM582 1787T582 1702T613 1564T711 1511T808 1564T840 1702Q840 1783 809 1837T711 1892Q647 1892 615 1840Z"/><glyph unicode="Æ" horiz-adv-x="1970" d="M-53 0V8Q27 12 86 47Q123 68 165 111T236 207L899 1362Q839 1381 690 1391V1399H1812V1090H1802Q1791 1137 1761 1199T1685 1315T1599 1374Q1534 1382 1405 1382H1122V733H1346Q1367 733 1385 735T1417 739T1444 748T1464 757T1482 769T1495 779T1506 791T1516 801Q1537 822 1552 883T1573 1001H1583V438H1573Q1570 487 1552 558T1516 649Q1503 663 1498 668T1477 685T1446 702T1404 712T1346 717H1122V203Q1122 150 1128 119T1148 65T1193 33T1262 20T1368 16Q1380 16 1417 16T1470 16T1521 16T1573 18T1619 21T1664 26T1700 34T1732 46T1753 61Q1793 102 1842 208T1913 383H1923L1896 0H731V8Q850 14 893 31Q956 54 956 131V569H469Q320 306 285 233Q246 153 246 113Q246 72 332 42T504 8V0H-53ZM483 594H956V1360H922L483 594Z"/><glyph unicode="Ç" horiz-adv-x="1288" d="M80 682Q80 885 172 1054T426 1322T784 1421Q866 1421 969 1384T1141 1288L1206 1421H1219L1227 918H1217Q1177 1034 1133 1118T1029 1269T893 1369T719 1403Q654 1403 592 1377T471 1293T369 1154T299 953T272 690Q272 544 313 418T424 205T588 68T788 18Q881 18 960 46T1096 125T1193 234T1260 365L1280 354Q1248 278 1205 216T1098 95T941 3T737 -31Q728 -31 710 -30T682 -29V-119Q967 -119 967 -274Q967 -315 952 -346T908 -398T844 -433T760 -454T665 -464T561 -467V-453Q840 -453 840 -311Q840 -283 825 -265T782 -239T728 -228T666 -225V-27Q395 -4 238 187T80 682Z"/><glyph unicode="È" horiz-adv-x="1327" d="M88 0V8Q207 14 250 31Q313 54 313 131V1255Q313 1331 250 1356Q222 1367 170 1378T88 1391V1399H1169V1090H1159Q1148 1137 1118 1199T1042 1315T956 1374Q891 1382 762 1382H479V733H702Q723 733 741 735T773 739T800 748T820 757T838 769T851 779T862 791T872 801Q893 822 908 884T930 1001H940V438H930Q927 487 909 558T872 649Q859 663 854 668T833 685T802 702T760 712T702 717H479V203Q479 150 485 119T505 65T550 33T619 20T725 16Q737 16 774 16T827 16T878 16T930 18T976 21T1021 26T1057 34T1089 46T1110 61Q1150 102 1199 208T1270 383H1280L1253 0H88ZM446 1839Q446 1870 465 1891T518 1913Q557 1913 584 1893T639 1825Q706 1711 842 1513L834 1507Q743 1577 645 1643T522 1729Q489 1755 478 1765T456 1795T446 1839Z"/><glyph unicode="É" horiz-adv-x="1327" d="M88 0V8Q207 14 250 31Q313 54 313 131V1255Q313 1331 250 1356Q222 1367 170 1378T88 1391V1399H1169V1090H1159Q1148 1137 1118 1199T1042 1315T956 1374Q891 1382 762 1382H479V733H702Q723 733 741 735T773 739T800 748T820 757T838 769T851 779T862 791T872 801Q893 822 908 884T930 1001H940V438H930Q927 487 909 558T872 649Q859 663 854 668T833 685T802 702T760 712T702 717H479V203Q479 150 485 119T505 65T550 33T619 20T725 16Q737 16 774 16T827 16T878 16T930 18T976 21T1021 26T1057 34T1089 46T1110 61Q1150 102 1199 208T1270 383H1280L1253 0H88ZM582 1513Q710 1700 784 1825Q812 1873 839 1893T905 1913Q939 1913 958 1892T977 1839Q977 1814 967 1795T946 1766T901 1729Q879 1711 781 1645T590 1507L582 1513Z"/><glyph unicode="Ê" horiz-adv-x="1327" d="M88 0V8Q207 14 250 31Q313 54 313 131V1255Q313 1331 250 1356Q222 1367 170 1378T88 1391V1399H1169V1090H1159Q1148 1137 1118 1199T1042 1315T956 1374Q891 1382 762 1382H479V733H702Q723 733 741 735T773 739T800 748T820 757T838 769T851 779T862 791T872 801Q893 822 908 884T930 1001H940V438H930Q927 487 909 558T872 649Q859 663 854 668T833 685T802 702T760 712T702 717H479V203Q479 150 485 119T505 65T550 33T619 20T725 16Q737 16 774 16T827 16T878 16T930 18T976 21T1021 26T1057 34T1089 46T1110 61Q1150 102 1199 208T1270 383H1280L1253 0H88ZM352 1511Q400 1581 445 1651T529 1784T582 1870Q602 1899 616 1907T666 1915Q699 1915 713 1908T745 1874Q764 1846 838 1724T973 1511L965 1503L666 1778L360 1505L352 1511Z"/><glyph unicode="Ë" horiz-adv-x="1327" d="M88 0V8Q207 14 250 31Q313 54 313 131V1255Q313 1331 250 1356Q222 1367 170 1378T88 1391V1399H1169V1090H1159Q1148 1137 1118 1199T1042 1315T956 1374Q891 1382 762 1382H479V733H702Q723 733 741 735T773 739T800 748T820 757T838 769T851 779T862 791T872 801Q893 822 908 884T930 1001H940V438H930Q927 487 909 558T872 649Q859 663 854 668T833 685T802 702T760 712T702 717H479V203Q479 150 485 119T505 65T550 33T619 20T725 16Q737 16 774 16T827 16T878 16T930 18T976 21T1021 26T1057 34T1089 46T1110 61Q1150 102 1199 208T1270 383H1280L1253 0H88ZM358 1651Q358 1694 389 1724T461 1755Q506 1755 536 1727T567 1659Q567 1614 537 1582T461 1550Q420 1550 389 1580T358 1651ZM793 1651Q793 1694 822 1724T895 1755Q940 1755 969 1727T999 1659Q999 1614 969 1582T895 1550Q852 1550 823 1580T793 1651Z"/><glyph unicode="Ì" horiz-adv-x="800" d="M104 0V8Q220 14 254 27Q317 50 317 125V1257Q317 1295 304 1318T254 1356Q171 1387 104 1391V1399H696V1391Q610 1386 547 1366Q483 1346 483 1268V135Q483 64 547 37Q566 29 617 19T696 8V0H104ZM135 1837Q135 1868 154 1889T207 1911Q246 1911 273 1891T328 1823Q402 1698 530 1511L522 1505Q431 1575 333 1641T211 1726Q179 1752 167 1763T145 1793T135 1837Z"/><glyph unicode="Í" horiz-adv-x="800" d="M104 0V8Q220 14 254 27Q317 50 317 125V1257Q317 1295 304 1318T254 1356Q171 1387 104 1391V1399H696V1391Q610 1386 547 1366Q483 1346 483 1268V135Q483 64 547 37Q566 29 617 19T696 8V0H104ZM287 1513Q415 1700 489 1825Q517 1873 544 1893T610 1913Q644 1913 663 1892T682 1839Q682 1814 672 1795T651 1766T606 1729Q584 1711 486 1645T295 1507L287 1513Z"/><glyph unicode="Î" horiz-adv-x="800" d="M88 1511Q136 1581 181 1651T264 1784T317 1870Q337 1899 351 1907T401 1915Q434 1915 448 1907T481 1874Q500 1846 574 1724T709 1511L700 1503L401 1778L96 1505L88 1511ZM104 0V8Q220 14 254 27Q317 50 317 125V1257Q317 1295 304 1318T254 1356Q171 1387 104 1391V1399H696V1391Q610 1386 547 1366Q483 1346 483 1268V135Q483 64 547 37Q566 29 617 19T696 8V0H104Z"/><glyph unicode="Ï" horiz-adv-x="800" d="M78 1651Q78 1694 108 1724T180 1755Q225 1755 256 1727T287 1659Q287 1614 256 1582T180 1550Q139 1550 109 1580T78 1651ZM104 0V8Q220 14 254 27Q317 50 317 125V1257Q317 1295 304 1318T254 1356Q171 1387 104 1391V1399H696V1391Q610 1386 547 1366Q483 1346 483 1268V135Q483 64 547 37Q566 29 617 19T696 8V0H104ZM512 1651Q512 1694 541 1724T614 1755Q659 1755 689 1727T719 1659Q719 1614 689 1582T614 1550Q572 1550 542 1580T512 1651Z"/><glyph unicode="Ð" horiz-adv-x="1568" d="M94 725V762H313V1255Q313 1334 250 1360Q184 1387 106 1391V1399H741Q830 1399 923 1380T1119 1310T1302 1183T1434 978T1487 690Q1487 552 1442 436T1320 241T1142 106T929 26T700 0H98V8Q131 8 181 14T250 27Q313 50 313 127V725H94ZM479 178Q491 88 542 51T719 14Q862 14 971 64T1149 206T1253 420T1288 690Q1288 895 1212 1053T995 1298T670 1386Q552 1386 479 1380V762H801V725H479V178Z"/><glyph unicode="Ñ" horiz-adv-x="1576" d="M8 1393V1399H381L1317 248V1057Q1317 1165 1299 1238T1247 1331Q1219 1349 1144 1369T1028 1391V1399H1593V1391Q1567 1391 1499 1372T1411 1341Q1339 1298 1339 1069V-18H1325L324 1214V354Q324 134 397 74Q421 54 501 32T616 8V0H43V8Q72 11 140 30T227 61Q301 104 301 344V1143Q301 1252 236 1305Q201 1334 131 1360T8 1393ZM457 1550Q472 1592 492 1630T543 1707T614 1769T702 1792Q755 1792 801 1775T874 1737T936 1699T1004 1681Q1050 1681 1082 1690T1137 1719T1174 1762T1206 1821L1214 1819Q1188 1719 1123 1648T963 1577Q906 1577 859 1594T784 1633T721 1672T651 1690Q590 1690 549 1656T465 1546L457 1550Z"/><glyph unicode="Ò" horiz-adv-x="1556" d="M82 684Q82 1019 287 1227Q384 1326 512 1378T778 1430Q922 1430 1047 1380T1288 1214Q1375 1127 1425 991T1475 709Q1475 375 1270 170Q1069 -31 770 -31Q496 -31 293 166Q82 371 82 684ZM274 680Q274 536 305 412T398 192T556 41T778 -14Q943 -14 1058 81T1228 335T1282 702Q1282 1032 1146 1222T778 1413T411 1219T274 680ZM561 1839Q561 1870 580 1891T633 1913Q672 1913 699 1893T754 1825Q828 1700 956 1513L948 1507Q857 1576 759 1642T637 1729Q604 1755 593 1765T571 1795T561 1839Z"/><glyph unicode="Ó" horiz-adv-x="1556" d="M82 684Q82 1019 287 1227Q384 1326 512 1378T778 1430Q922 1430 1047 1380T1288 1214Q1375 1127 1425 991T1475 709Q1475 375 1270 170Q1069 -31 770 -31Q496 -31 293 166Q82 371 82 684ZM274 680Q274 536 305 412T398 192T556 41T778 -14Q943 -14 1058 81T1228 335T1282 702Q1282 1032 1146 1222T778 1413T411 1219T274 680ZM596 1511Q732 1709 799 1823Q827 1871 854 1891T920 1911Q954 1911 972 1890T991 1837Q991 1812 981 1793T959 1763T915 1726Q893 1708 795 1643T604 1505L596 1511Z"/><glyph unicode="Ô" horiz-adv-x="1556" d="M82 684Q82 1019 287 1227Q384 1326 512 1378T778 1430Q922 1430 1047 1380T1288 1214Q1375 1127 1425 991T1475 709Q1475 375 1270 170Q1069 -31 770 -31Q496 -31 293 166Q82 371 82 684ZM274 680Q274 536 305 412T398 192T556 41T778 -14Q943 -14 1058 81T1228 335T1282 702Q1282 1032 1146 1222T778 1413T411 1219T274 680ZM467 1511Q515 1581 560 1651T643 1784T696 1870Q716 1899 730 1907T780 1915Q813 1915 827 1907T860 1874Q879 1846 952 1724T1087 1511L1079 1503L780 1778L475 1505L467 1511Z"/><glyph unicode="Õ" horiz-adv-x="1556" d="M82 684Q82 1019 287 1227Q384 1326 512 1378T778 1430Q922 1430 1047 1380T1288 1214Q1375 1127 1425 991T1475 709Q1475 375 1270 170Q1069 -31 770 -31Q496 -31 293 166Q82 371 82 684ZM274 680Q274 536 305 412T398 192T556 41T778 -14Q943 -14 1058 81T1228 335T1282 702Q1282 1032 1146 1222T778 1413T411 1219T274 680ZM399 1550Q414 1592 434 1630T485 1707T556 1769T645 1792Q698 1792 744 1775T817 1737T878 1699T946 1681Q1032 1681 1073 1714T1149 1821L1157 1819Q1131 1720 1066 1649T905 1577Q848 1577 801 1594T726 1633T664 1672T594 1690Q533 1690 492 1656T408 1546L399 1550Z"/><glyph unicode="Ö" horiz-adv-x="1556" d="M82 684Q82 1019 287 1227Q384 1326 512 1378T778 1430Q922 1430 1047 1380T1288 1214Q1375 1127 1425 991T1475 709Q1475 375 1270 170Q1069 -31 770 -31Q496 -31 293 166Q82 371 82 684ZM274 680Q274 536 305 412T398 192T556 41T778 -14Q943 -14 1058 81T1228 335T1282 702Q1282 1032 1146 1222T778 1413T411 1219T274 680ZM457 1651Q457 1694 487 1724T559 1755Q604 1755 635 1727T666 1659Q666 1614 635 1582T559 1550Q518 1550 488 1580T457 1651ZM891 1651Q891 1694 920 1724T993 1755Q1038 1755 1068 1727T1098 1659Q1098 1614 1068 1582T993 1550Q950 1550 921 1580T891 1651Z"/><glyph unicode="×" horiz-adv-x="1138" d="M113 113L530 528L113 946L156 987L571 571L987 987L1026 948L610 532L1026 117L985 74L567 492L152 74L113 113Z"/><glyph unicode="Ø" horiz-adv-x="1556" d="M82 684Q82 1019 287 1227Q384 1326 512 1378T778 1430Q1051 1430 1260 1239L1454 1454L1475 1440L1278 1223Q1372 1131 1423 994T1475 709Q1475 375 1270 170Q1069 -31 770 -31Q509 -31 309 150L115 -68L94 -51L291 166Q82 372 82 684ZM274 680Q274 432 365 248L1186 1157Q1120 1281 1016 1347T778 1413Q547 1413 411 1219T274 680ZM377 223Q514 -14 778 -14Q943 -14 1058 81T1228 335T1282 702Q1282 954 1198 1133L377 223Z"/><glyph unicode="Ù" horiz-adv-x="1579" d="M80 1391V1399H666V1391Q588 1387 518 1364Q455 1344 455 1264V377Q455 227 553 132T838 37Q1051 37 1169 129T1288 385V1061Q1288 1295 1219 1335Q1180 1358 1110 1373T995 1391V1399H1565V1391Q1535 1391 1471 1375T1378 1343Q1311 1303 1311 1073V381Q1311 203 1172 85T793 -33Q674 -33 576 -2T416 80T321 194T287 326V1253Q287 1322 223 1356Q197 1369 153 1379T80 1391ZM606 1837Q606 1868 625 1889T678 1911Q717 1911 744 1891T799 1823Q873 1698 1001 1511L993 1505Q902 1575 804 1641T682 1726Q650 1752 638 1763T616 1793T606 1837Z"/><glyph unicode="Ú" horiz-adv-x="1579" d="M80 1391V1399H666V1391Q588 1387 518 1364Q455 1344 455 1264V377Q455 227 553 132T838 37Q1051 37 1169 129T1288 385V1061Q1288 1295 1219 1335Q1180 1358 1110 1373T995 1391V1399H1565V1391Q1535 1391 1471 1375T1378 1343Q1311 1303 1311 1073V381Q1311 203 1172 85T793 -33Q674 -33 576 -2T416 80T321 194T287 326V1253Q287 1322 223 1356Q197 1369 153 1379T80 1391ZM678 1511Q814 1709 881 1823Q909 1871 935 1891T1001 1911Q1035 1911 1054 1890T1073 1837Q1073 1812 1063 1793T1041 1763T997 1726Q975 1708 877 1643T686 1505L678 1511Z"/><glyph unicode="Û" horiz-adv-x="1579" d="M80 1391V1399H666V1391Q588 1387 518 1364Q455 1344 455 1264V377Q455 227 553 132T838 37Q1051 37 1169 129T1288 385V1061Q1288 1295 1219 1335Q1180 1358 1110 1373T995 1391V1399H1565V1391Q1535 1391 1471 1375T1378 1343Q1311 1303 1311 1073V381Q1311 203 1172 85T793 -33Q674 -33 576 -2T416 80T321 194T287 326V1253Q287 1322 223 1356Q197 1369 153 1379T80 1391ZM535 1511Q583 1581 628 1651T711 1784T764 1870Q784 1899 798 1907T848 1915Q881 1915 895 1907T928 1874Q947 1846 1020 1724T1155 1511L1147 1503L848 1778L543 1505L535 1511Z"/><glyph unicode="Ü" horiz-adv-x="1579" d="M80 1391V1399H666V1391Q588 1387 518 1364Q455 1344 455 1264V377Q455 227 553 132T838 37Q1051 37 1169 129T1288 385V1061Q1288 1295 1219 1335Q1180 1358 1110 1373T995 1391V1399H1565V1391Q1535 1391 1471 1375T1378 1343Q1311 1303 1311 1073V381Q1311 203 1172 85T793 -33Q674 -33 576 -2T416 80T321 194T287 326V1253Q287 1322 223 1356Q197 1369 153 1379T80 1391ZM508 1649Q508 1692 538 1722T610 1753Q655 1753 686 1725T717 1657Q717 1612 686 1580T610 1548Q569 1548 539 1578T508 1649ZM942 1649Q942 1692 971 1722T1044 1753Q1089 1753 1119 1725T1149 1657Q1149 1612 1119 1580T1044 1548Q1002 1548 972 1578T942 1649Z"/><glyph unicode="Ý" horiz-adv-x="1200" d="M-70 1391V1399H528V1391Q448 1387 376 1370T303 1321Q303 1316 334 1249Q426 1059 655 639Q940 1100 1004 1229Q1028 1276 1028 1292Q1028 1334 943 1359T766 1391V1399H1274V1391Q1246 1391 1184 1366Q1121 1343 1063 1262Q945 1099 709 682Q674 620 668 600T662 532V143Q662 68 725 41Q744 33 804 21T893 8V0H262V8Q386 15 430 31Q494 55 494 133V559Q494 570 487 590T465 641T446 686Q288 1005 166 1219Q108 1319 43 1358Q-5 1388 -70 1391ZM498 1509Q626 1696 700 1821Q728 1869 755 1889T821 1909Q855 1909 874 1888T893 1835Q893 1810 883 1791T861 1761T817 1724Q795 1706 697 1641T506 1503L498 1509Z"/><glyph unicode="Þ" horiz-adv-x="1226" d="M100 1391V1399H692V1391Q606 1386 543 1366Q479 1346 479 1268V1096H754Q854 1096 944 1058T1094 942T1153 768Q1153 689 1126 623T1051 510T942 432T809 384T664 369H479V129Q479 51 543 27Q586 12 709 8V0H109V8Q208 13 250 29Q313 52 313 131V1257Q313 1295 300 1318T250 1356Q167 1387 100 1391ZM479 383H604Q670 383 724 398T814 436T875 492T915 555T937 619T948 675T950 717Q950 767 945 811T920 907T868 995T778 1056T643 1081H479V383Z"/><glyph unicode="ß" horiz-adv-x="1179" d="M16 891V920H227V985Q227 1264 360 1405Q477 1530 643 1530Q772 1530 860 1458T948 1264Q948 1118 842 1020Q824 1004 796 982T752 948T724 917T711 879Q711 828 750 770T913 612Q975 562 1007 532T1068 463T1107 383T1118 285Q1118 158 1033 65T821 -29Q696 -29 626 32T555 182Q555 303 647 303Q683 303 701 278T719 213Q719 186 699 148T678 92Q678 57 721 22T834 -14Q923 -14 974 50T1026 195Q1026 264 989 317T825 469Q732 541 681 607T629 750Q629 793 646 832T686 895T741 957T793 1024Q844 1107 844 1210Q844 1353 782 1433T616 1513Q490 1513 434 1409T369 1067V0H82V8Q147 12 172 20Q227 37 227 115V891H16Z"/><glyph unicode="à" horiz-adv-x="948" d="M76 186Q76 246 92 291T139 365T200 412T276 446Q315 461 390 487T522 534T618 578L616 717Q616 763 609 798T584 866T527 918T432 936Q379 936 338 916T283 874Q284 859 291 797T299 715Q299 682 271 660T199 637Q164 637 147 665T129 733Q129 821 224 885T436 950Q515 950 569 939T670 897T740 804T764 647Q764 544 759 376T754 188Q754 66 842 66Q935 66 950 236H963Q951 100 908 42T786 -16Q658 -16 618 121H612Q557 54 474 17T309 -20Q202 -20 139 34T76 186ZM231 211Q231 125 270 78T383 31Q523 31 610 139L618 557Q600 550 483 504Q354 455 293 387T231 211ZM256 1423Q256 1454 275 1475T328 1497Q367 1497 394 1477T449 1409Q518 1292 651 1098L643 1092Q552 1162 454 1228T332 1313Q299 1339 288 1349T266 1379T256 1423Z"/><glyph unicode="á" horiz-adv-x="948" d="M76 186Q76 246 92 291T139 365T200 412T276 446Q315 461 390 487T522 534T618 578L616 717Q616 763 609 798T584 866T527 918T432 936Q379 936 338 916T283 874Q284 859 291 797T299 715Q299 682 271 660T199 637Q164 637 147 665T129 733Q129 821 224 885T436 950Q515 950 569 939T670 897T740 804T764 647Q764 544 759 376T754 188Q754 66 842 66Q935 66 950 236H963Q951 100 908 42T786 -16Q658 -16 618 121H612Q557 54 474 17T309 -20Q202 -20 139 34T76 186ZM231 211Q231 125 270 78T383 31Q523 31 610 139L618 557Q600 550 483 504Q354 455 293 387T231 211ZM291 1098Q431 1303 494 1409Q522 1457 548 1477T614 1497Q648 1497 667 1476T686 1423Q686 1398 676 1379T655 1350T610 1313Q588 1295 490 1230T299 1092L291 1098Z"/><glyph unicode="â" horiz-adv-x="948" d="M76 186Q76 246 92 291T139 365T200 412T276 446Q315 461 390 487T522 534T618 578L616 717Q616 763 609 798T584 866T527 918T432 936Q379 936 338 916T283 874Q284 859 291 797T299 715Q299 682 271 660T199 637Q164 637 147 665T129 733Q129 821 224 885T436 950Q515 950 569 939T670 897T740 804T764 647Q764 544 759 376T754 188Q754 66 842 66Q935 66 950 236H963Q951 100 908 42T786 -16Q658 -16 618 121H612Q557 54 474 17T309 -20Q202 -20 139 34T76 186ZM162 1098Q210 1168 255 1238T338 1370T391 1456Q411 1485 425 1493T475 1501Q508 1501 522 1493T555 1460Q574 1432 647 1310T782 1098L774 1090L475 1364L170 1092L162 1098ZM231 211Q231 125 270 78T383 31Q523 31 610 139L618 557Q600 550 483 504Q354 455 293 387T231 211Z"/><glyph unicode="ã" horiz-adv-x="948" d="M76 186Q76 246 92 291T139 365T200 412T276 446Q315 461 390 487T522 534T618 578L616 717Q616 763 609 798T584 866T527 918T432 936Q379 936 338 916T283 874Q284 859 291 797T299 715Q299 682 271 660T199 637Q164 637 147 665T129 733Q129 821 224 885T436 950Q515 950 569 939T670 897T740 804T764 647Q764 544 759 376T754 188Q754 66 842 66Q935 66 950 236H963Q951 100 908 42T786 -16Q658 -16 618 121H612Q557 54 474 17T309 -20Q202 -20 139 34T76 186ZM94 1130Q109 1172 129 1210T180 1287T251 1349T340 1372Q383 1372 421 1361T485 1333T536 1301T587 1274T641 1262Q727 1262 768 1294T844 1401L852 1399Q826 1300 761 1229T600 1157Q543 1157 496 1174T421 1213T359 1252T289 1270Q228 1270 187 1236T102 1126L94 1130ZM231 211Q231 125 270 78T383 31Q523 31 610 139L618 557Q600 550 483 504Q354 455 293 387T231 211Z"/><glyph unicode="ä" horiz-adv-x="948" d="M76 186Q76 246 92 291T139 365T200 412T276 446Q315 461 390 487T522 534T618 578L616 717Q616 763 609 798T584 866T527 918T432 936Q379 936 338 916T283 874Q284 859 291 797T299 715Q299 682 271 660T199 637Q164 637 147 665T129 733Q129 821 224 885T436 950Q515 950 569 939T670 897T740 804T764 647Q764 544 759 376T754 188Q754 66 842 66Q935 66 950 236H963Q951 100 908 42T786 -16Q658 -16 618 121H612Q557 54 474 17T309 -20Q202 -20 139 34T76 186ZM152 1223Q152 1266 182 1296T254 1327Q299 1327 329 1299T360 1231Q360 1186 330 1154T254 1122Q213 1122 183 1152T152 1223ZM231 211Q231 125 270 78T383 31Q523 31 610 139L618 557Q600 550 483 504Q354 455 293 387T231 211ZM586 1223Q586 1266 615 1296T688 1327Q733 1327 763 1299T793 1231Q793 1186 763 1154T688 1122Q646 1122 616 1152T586 1223Z"/><glyph unicode="å" horiz-adv-x="948" d="M76 186Q76 246 92 291T139 365T200 412T276 446Q315 461 390 487T522 534T618 578L616 717Q616 763 609 798T584 866T527 918T432 936Q379 936 338 916T283 874Q284 859 291 797T299 715Q299 682 271 660T199 637Q164 637 147 665T129 733Q129 821 224 885T436 950Q515 950 569 939T670 897T740 804T764 647Q764 544 759 376T754 188Q754 66 842 66Q935 66 950 236H963Q951 100 908 42T786 -16Q658 -16 618 121H612Q557 54 474 17T309 -20Q202 -20 139 34T76 186ZM231 211Q231 125 270 78T383 31Q523 31 610 139L618 557Q600 550 483 504Q354 455 293 387T231 211ZM250 1288Q250 1376 313 1432T473 1489Q573 1489 634 1434T696 1288Q696 1199 636 1143T473 1087Q368 1087 309 1141T250 1288ZM344 1373T344 1288T375 1151T473 1098T570 1151T602 1288Q602 1370 571 1424T473 1479Q409 1479 377 1426Z"/><glyph unicode="æ" horiz-adv-x="1431" d="M76 186Q76 246 92 291T139 365T200 412T276 446Q314 461 390 487T521 534T616 578V731Q616 823 573 879T430 936Q377 936 338 917T283 874Q284 859 291 797T299 715Q299 682 271 660T199 637Q164 637 147 665T129 733Q129 821 223 885T432 950Q547 950 620 924T731 823Q842 950 1014 950Q1111 950 1182 919T1296 832T1358 704T1378 543V524H764V504Q764 293 843 163T1081 33Q1160 33 1216 56T1307 118T1386 225L1397 219Q1343 108 1250 44T1036 -20Q785 -20 668 188Q632 127 585 84T489 20T397 -11T309 -20Q202 -20 139 34T76 186ZM231 211Q231 123 270 70T383 16Q509 16 610 141L618 549Q526 522 460 494T340 426T258 333T231 211ZM764 541L1225 545Q1225 631 1217 696T1187 818T1123 907T1018 938Q908 938 838 833T764 541Z"/><glyph unicode="ç" horiz-adv-x="862" d="M66 467Q66 594 117 703T270 881T500 950Q642 950 723 880T805 713Q805 663 781 636T713 608Q679 608 648 629T616 700Q616 732 628 771T641 827Q631 882 594 911T498 940Q384 940 305 821T225 483Q225 362 259 260T363 95T522 31Q622 31 692 72T829 217L836 213Q721 -20 479 -20Q444 -20 410 -14V-119Q694 -119 694 -274Q694 -323 672 -358T613 -414T522 -447T413 -463T289 -467V-453Q567 -453 567 -311Q567 -283 552 -265T509 -239T455 -228T393 -225V-12Q236 17 151 145T66 467Z"/><glyph unicode="è" horiz-adv-x="890" d="M66 471Q66 563 94 648T172 801T301 909T473 950Q570 950 642 919T756 832T818 702T838 539V524H223V504Q223 367 255 264T361 97T541 33Q620 33 676 56T767 118T846 225L856 219Q802 107 709 44T496 -20Q389 -20 305 19T170 126T92 281T66 471ZM223 541L684 545Q684 631 676 696T646 818T582 907T477 938Q367 938 297 833T223 541ZM236 1423Q236 1454 254 1475T307 1497Q346 1497 373 1477T428 1409Q491 1303 631 1098L623 1092Q532 1162 434 1228T311 1313Q279 1339 267 1350T246 1379T236 1423Z"/><glyph unicode="é" horiz-adv-x="890" d="M66 471Q66 563 94 648T172 801T301 909T473 950Q570 950 642 919T756 832T818 702T838 539V524H223V504Q223 367 255 264T361 97T541 33Q620 33 676 56T767 118T846 225L856 219Q802 107 709 44T496 -20Q389 -20 305 19T170 126T92 281T66 471ZM223 541L684 545Q684 631 676 696T646 818T582 907T477 938Q367 938 297 833T223 541ZM303 1098Q443 1303 506 1409Q534 1457 561 1477T627 1497Q661 1497 679 1476T698 1423Q698 1388 683 1369T623 1313Q601 1295 503 1230T311 1092L303 1098Z"/><glyph unicode="ê" horiz-adv-x="890" d="M66 471Q66 563 94 648T172 801T301 909T473 950Q570 950 642 919T756 832T818 702T838 539V524H223V504Q223 367 255 264T361 97T541 33Q620 33 676 56T767 118T846 225L856 219Q802 107 709 44T496 -20Q389 -20 305 19T170 126T92 281T66 471ZM160 1098Q208 1168 253 1238T336 1370T389 1456Q409 1485 423 1493T473 1501Q506 1501 520 1493T553 1460Q572 1432 645 1310T780 1098L772 1090L473 1364L168 1092L160 1098ZM223 541L684 545Q684 631 676 696T646 818T582 907T477 938Q367 938 297 833T223 541Z"/><glyph unicode="ë" horiz-adv-x="890" d="M66 471Q66 563 94 648T172 801T301 909T473 950Q570 950 642 919T756 832T818 702T838 539V524H223V504Q223 367 255 264T361 97T541 33Q620 33 676 56T767 118T846 225L856 219Q802 107 709 44T496 -20Q389 -20 305 19T170 126T92 281T66 471ZM133 1223Q133 1266 163 1296T236 1327Q281 1327 311 1299T342 1231Q342 1186 312 1154T236 1122Q195 1122 164 1152T133 1223ZM223 541L684 545Q684 631 676 696T646 818T582 907T477 938Q367 938 297 833T223 541ZM567 1223Q567 1266 597 1296T670 1327Q715 1327 744 1299T774 1231Q774 1186 744 1154T670 1122Q627 1122 597 1152T567 1223Z"/><glyph unicode="ì" horiz-adv-x="552" d="M27 1423Q27 1454 45 1475T98 1497Q137 1497 164 1477T219 1409Q282 1303 422 1098L414 1092Q323 1162 225 1228T102 1313Q70 1339 58 1350T37 1379T27 1423ZM43 905V913L350 936L360 926V127Q360 58 416 31Q476 10 506 8V0H74V8Q139 12 164 20Q192 28 205 54T219 115V764Q219 826 162 866Q142 879 106 891T43 905Z"/><glyph unicode="í" horiz-adv-x="552" d="M43 905V913L350 936L360 926V127Q360 58 416 31Q476 10 506 8V0H74V8Q139 12 164 20Q192 28 205 54T219 115V764Q219 826 162 866Q142 879 106 891T43 905ZM102 1098Q242 1303 305 1409Q333 1457 360 1477T426 1497Q460 1497 479 1476T498 1423Q498 1398 488 1379T467 1350T422 1313Q400 1295 302 1230T111 1092L102 1098Z"/><glyph unicode="î" horiz-adv-x="552" d="M-8 1094L174 1456Q196 1501 258 1501Q319 1501 338 1460Q350 1435 518 1094L510 1087L256 1366L0 1087L-8 1094ZM69 904T43 905V913L350 936L360 926V127Q360 58 416 31Q476 10 506 8V0H74V8Q139 12 164 20Q192 28 205 54T219 115V764Q219 826 162 866Q142 879 106 891Z"/><glyph unicode="ï" horiz-adv-x="552" d="M-39 1223Q-39 1266 -9 1296T63 1327Q108 1327 139 1299T170 1231Q170 1186 139 1154T63 1122Q22 1122 -8 1152T-39 1223ZM43 905V913L350 936L360 926V127Q360 58 416 31Q476 10 506 8V0H74V8Q139 12 164 20Q192 28 205 54T219 115V764Q219 826 162 866Q142 879 106 891T43 905ZM342 1223Q342 1266 371 1296T444 1327Q489 1327 519 1299T549 1231Q549 1186 519 1154T444 1122Q402 1122 372 1152T342 1223Z"/><glyph unicode="ð" horiz-adv-x="1075" d="M61 471Q61 686 187 819T516 952Q605 952 677 913T786 817L795 819Q757 1129 600 1329L373 1178L354 1208L575 1356Q512 1433 416 1497L424 1526Q535 1469 625 1389L807 1511L825 1481L651 1364Q958 1075 958 592Q958 471 934 364T859 167T723 24T524 -29Q432 -29 351 1T204 91T100 248T61 471ZM217 481Q217 258 295 130T512 2Q605 2 671 69T767 245T797 494Q797 687 721 805T516 924Q415 924 346 863T247 704T217 481Z"/><glyph unicode="ñ" horiz-adv-x="1163" d="M61 905V913L350 936L358 928V762H362Q373 772 401 801T444 845T490 883T547 919T613 940T694 950Q832 950 901 864T971 627V123Q971 53 1026 29Q1071 10 1116 8V0H659V8Q731 12 764 20Q827 38 827 115V655Q827 758 770 818T633 879Q576 879 526 862T443 819T390 771T358 729V125Q358 56 420 31Q467 11 524 8V0H70V8Q135 12 160 20Q217 38 217 115V764Q217 796 202 825T162 872Q115 902 61 905ZM201 1128Q216 1170 236 1208T287 1285T358 1347T446 1370Q489 1370 527 1359T591 1331T642 1299T694 1272T748 1260Q834 1260 874 1292T950 1399L958 1397Q932 1297 867 1226T707 1155Q650 1155 603 1172T528 1211T465 1250T395 1268Q334 1268 293 1234T209 1124L201 1128Z"/><glyph unicode="ò" horiz-adv-x="1028" d="M63 457Q63 676 189 813T520 950Q719 950 842 814T965 473Q965 372 934 282T844 123T698 14T502 -27Q416 -27 337 7T197 103T100 256T63 457ZM221 475Q221 378 238 293T289 137T382 27T516 -14Q610 -14 678 56T776 233T807 471Q807 559 791 638T743 786T652 897T516 938Q434 938 374 895T282 781T236 633T221 475ZM297 1423Q297 1454 316 1475T369 1497Q408 1497 434 1477T489 1409Q552 1303 692 1098L684 1092Q593 1162 495 1228T373 1313Q340 1339 329 1349T307 1379T297 1423Z"/><glyph unicode="ó" horiz-adv-x="1028" d="M63 457Q63 676 189 813T520 950Q719 950 842 814T965 473Q965 372 934 282T844 123T698 14T502 -27Q416 -27 337 7T197 103T100 256T63 457ZM221 475Q221 378 238 293T289 137T382 27T516 -14Q610 -14 678 56T776 233T807 471Q807 559 791 638T743 786T652 897T516 938Q434 938 374 895T282 781T236 633T221 475ZM330 1098Q463 1292 532 1409Q560 1457 587 1477T653 1497Q687 1497 706 1476T725 1423Q725 1398 715 1379T694 1350T649 1313Q627 1295 529 1230T338 1092L330 1098Z"/><glyph unicode="ô" horiz-adv-x="1028" d="M63 457Q63 676 189 813T520 950Q719 950 842 814T965 473Q965 372 934 282T844 123T698 14T502 -27Q416 -27 337 7T197 103T100 256T63 457ZM201 1098Q249 1168 294 1238T377 1370T430 1456Q450 1485 464 1493T514 1501Q547 1501 561 1493T594 1460Q613 1432 686 1310T821 1098L813 1090L514 1364L209 1092L201 1098ZM221 475Q221 378 238 293T289 137T382 27T516 -14Q610 -14 678 56T776 233T807 471Q807 559 791 638T743 786T652 897T516 938Q434 938 374 895T282 781T236 633T221 475Z"/><glyph unicode="õ" horiz-adv-x="1028" d="M63 457Q63 676 189 813T520 950Q719 950 842 814T965 473Q965 372 934 282T844 123T698 14T502 -27Q416 -27 337 7T197 103T100 256T63 457ZM131 1130Q146 1172 166 1210T217 1287T288 1349T377 1372Q420 1372 458 1361T522 1333T573 1301T624 1274T678 1262Q764 1262 805 1294T881 1401L889 1399Q863 1300 798 1229T637 1157Q580 1157 533 1174T458 1213T396 1252T326 1270Q265 1270 224 1236T139 1126L131 1130ZM221 475Q221 378 238 293T289 137T382 27T516 -14Q610 -14 678 56T776 233T807 471Q807 559 791 638T743 786T652 897T516 938Q434 938 374 895T282 781T236 633T221 475Z"/><glyph unicode="ö" horiz-adv-x="1028" d="M63 457Q63 676 189 813T520 950Q719 950 842 814T965 473Q965 372 934 282T844 123T698 14T502 -27Q416 -27 337 7T197 103T100 256T63 457ZM193 1223Q193 1266 223 1296T295 1327Q340 1327 370 1299T401 1231Q401 1186 371 1154T295 1122Q254 1122 224 1152T193 1223ZM221 475Q221 378 238 293T289 137T382 27T516 -14Q610 -14 678 56T776 233T807 471Q807 559 791 638T743 786T652 897T516 938Q434 938 374 895T282 781T236 633T221 475ZM627 1223Q627 1266 656 1296T729 1327Q774 1327 804 1299T834 1231Q834 1186 804 1154T729 1122Q686 1122 657 1152T627 1223Z"/><glyph unicode="÷" horiz-adv-x="1138" d="M76 502V561H1063V502H76ZM475 185T475 225T502 293T569 322Q609 322 637 294T666 225Q666 186 638 159T569 131T502 158ZM475 796T475 836T502 904T569 932T637 904T666 836T638 769T569 741T502 768Z"/><glyph unicode="ø" horiz-adv-x="1028" d="M63 457Q63 676 189 813T520 950Q704 950 823 834L973 1010L989 995L838 817Q965 680 965 473Q965 372 934 282T844 123T698 14T502 -27Q338 -27 217 82L102 -51L86 -37L201 98Q63 236 63 457ZM221 475Q221 300 270 180L756 754Q681 938 516 938Q434 938 374 895T282 781T236 633T221 475ZM281 156Q359 -14 516 -14Q610 -14 678 56T776 233T807 471Q807 621 766 731L281 156Z"/><glyph unicode="ù" horiz-adv-x="1126" d="M37 901V911L326 936L336 926V258Q336 154 388 94T518 33Q692 33 784 170V774Q784 841 729 877Q698 897 588 901V911L918 936L928 926V147Q928 86 981 49Q1013 28 1077 25V16L801 -2L786 12V137H780Q775 132 765 122Q729 85 708 67T648 24T563 -12T457 -23Q321 -23 256 67T190 311V768Q190 833 137 870Q93 898 37 901ZM338 1423Q338 1454 357 1475T410 1497Q449 1497 475 1477T530 1409Q593 1303 733 1098L725 1092Q634 1162 536 1228T414 1313Q381 1339 370 1349T348 1379T338 1423Z"/><glyph unicode="ú" horiz-adv-x="1126" d="M37 901V911L326 936L336 926V258Q336 154 388 94T518 33Q692 33 784 170V774Q784 841 729 877Q698 897 588 901V911L918 936L928 926V147Q928 86 981 49Q1013 28 1077 25V16L801 -2L786 12V137H780Q775 132 765 122Q729 85 708 67T648 24T563 -12T457 -23Q321 -23 256 67T190 311V768Q190 833 137 870Q93 898 37 901ZM403 1098Q543 1303 606 1409Q634 1457 661 1477T727 1497Q761 1497 780 1476T799 1423Q799 1398 789 1379T768 1350T723 1313Q701 1295 603 1230T412 1092L403 1098Z"/><glyph unicode="û" horiz-adv-x="1126" d="M37 901V911L326 936L336 926V258Q336 154 388 94T518 33Q692 33 784 170V774Q784 841 729 877Q698 897 588 901V911L918 936L928 926V147Q928 86 981 49Q1013 28 1077 25V16L801 -2L786 12V137H780Q775 132 765 122Q729 85 708 67T648 24T563 -12T457 -23Q321 -23 256 67T190 311V768Q190 833 137 870Q93 898 37 901ZM252 1098Q300 1168 345 1238T428 1370T481 1456Q501 1485 515 1493T565 1501Q598 1501 612 1493T645 1460Q664 1432 737 1310T872 1098L864 1090L565 1364L260 1092L252 1098Z"/><glyph unicode="ü" horiz-adv-x="1126" d="M37 901V911L326 936L336 926V258Q336 154 388 94T518 33Q692 33 784 170V774Q784 841 729 877Q698 897 588 901V911L918 936L928 926V147Q928 86 981 49Q1013 28 1077 25V16L801 -2L786 12V137H780Q775 132 765 122Q729 85 708 67T648 24T563 -12T457 -23Q321 -23 256 67T190 311V768Q190 833 137 870Q93 898 37 901ZM223 1223Q223 1266 253 1296T326 1327Q371 1327 401 1299T432 1231Q432 1186 402 1154T326 1122Q285 1122 254 1152T223 1223ZM657 1223Q657 1266 687 1296T760 1327Q805 1327 834 1299T864 1231Q864 1186 834 1154T760 1122Q717 1122 687 1152T657 1223Z"/><glyph unicode="ý" horiz-adv-x="917" d="M-27 -348Q-27 -310 3 -277T78 -244Q114 -244 142 -264T170 -334V-424Q236 -415 310 -312T461 -16Q367 230 253 492T115 813Q97 857 59 883T-27 915V924H375V913Q332 911 294 899T256 866Q256 865 270 823Q287 775 390 538T539 182H541Q684 523 784 784Q799 824 799 842Q799 867 730 888T614 915V924H965V915Q934 911 886 879T819 803L473 -31Q401 -205 342 -302T230 -435T111 -471Q83 -471 53 -461T-2 -421T-27 -348ZM383 1098Q523 1303 586 1409Q614 1457 641 1477T707 1497Q741 1497 759 1476T778 1423Q778 1398 768 1379T747 1350T702 1313Q680 1295 582 1230T391 1092L383 1098Z"/><glyph unicode="þ" horiz-adv-x="1120" d="M33 1497V1505L332 1528L340 1520V799L346 797Q487 950 625 950Q809 950 932 813T1055 455Q1055 318 989 207T815 35T586 -25Q436 -25 350 39H342V-328Q342 -361 357 -388T399 -426Q464 -451 537 -455V-463H35V-455Q107 -451 145 -438Q172 -430 185 -400T199 -332V1348Q199 1381 184 1412T143 1460Q95 1491 33 1497ZM342 174Q352 145 371 115T419 55T494 7T590 -12Q722 -12 806 115T891 457Q891 540 873 614T819 751T720 850T575 887Q442 887 342 776V174Z"/><glyph unicode="ÿ" horiz-adv-x="917" d="M-27 -348Q-27 -310 3 -277T78 -244Q114 -244 142 -264T170 -334V-424Q236 -415 310 -312T461 -16Q367 230 253 492T115 813Q97 857 59 883T-27 915V924H375V913Q332 911 294 899T256 866Q256 865 270 823Q287 775 390 538T539 182H541Q684 523 784 784Q799 824 799 842Q799 867 730 888T614 915V924H965V915Q934 911 886 879T819 803L473 -31Q401 -205 342 -302T230 -435T111 -471Q83 -471 53 -461T-2 -421T-27 -348ZM178 1223Q178 1266 209 1296T281 1327Q326 1327 356 1299T387 1231Q387 1186 357 1154T281 1122Q240 1122 209 1152T178 1223ZM612 1223Q612 1266 642 1296T715 1327Q760 1327 789 1299T819 1231Q819 1186 789 1154T715 1122Q672 1122 642 1152T612 1223Z"/><glyph unicode="ı" horiz-adv-x="552" d="M43 905V913L350 936L360 926V127Q360 58 416 31Q476 10 506 8V0H74V8Q139 12 164 20Q192 28 205 54T219 115V764Q219 826 162 866Q142 879 106 891T43 905Z"/><glyph unicode="Ł" horiz-adv-x="1251" d="M109 0V8Q208 13 250 29Q313 52 313 131V635L121 565L109 600L313 674V1249Q313 1324 250 1352Q167 1388 109 1391V1399H692V1391Q620 1387 543 1362Q479 1342 479 1260V735L772 842L786 807L479 694V205Q479 157 481 130T493 79T516 45T561 27T627 18T725 16Q835 16 936 29T1063 72Q1102 116 1170 230T1249 387H1257L1225 0H109Z"/><glyph unicode="ł" horiz-adv-x="600" d="M33 600L231 672V1343Q231 1422 176 1460Q128 1491 35 1499V1507L367 1528L375 1520V723L559 791L573 756L375 684V121Q375 49 426 27Q461 11 520 8V0H86V8Q151 12 176 20Q231 37 231 115V633L45 565L33 600Z"/><glyph unicode="Œ" horiz-adv-x="2103" d="M82 709Q82 847 127 963T249 1158T427 1293T640 1373T868 1399H1946V1090H1935Q1924 1137 1894 1199T1818 1315T1733 1374Q1668 1382 1538 1382H1255V733H1479Q1500 733 1518 735T1550 739T1577 748T1597 757T1615 769T1628 779T1639 791T1649 801Q1670 822 1685 883T1706 1001H1716V438H1706Q1703 487 1685 558T1649 649Q1636 663 1631 668T1610 685T1579 702T1537 712T1479 717H1255V203Q1255 150 1261 119T1281 65T1326 33T1395 20T1501 16Q1513 16 1550 16T1603 16T1654 16T1706 18T1752 21T1797 26T1833 34T1865 46T1886 61Q1926 102 1975 208T2046 383H2056L2030 0H827Q766 0 701 9T561 42T420 102T291 195T183 323T110 493T82 709ZM281 709Q281 565 325 438T449 217T645 69T899 14Q962 14 1002 23T1061 51T1084 86T1090 129V1198Q1090 1288 1034 1335T850 1382Q708 1382 598 1331T419 1187T316 975T281 709Z"/><glyph unicode="œ" horiz-adv-x="1630" d="M63 457Q63 676 189 813T520 950Q637 950 730 896T883 750Q939 841 1023 895T1212 950Q1290 950 1352 930T1455 873T1525 784T1565 673T1577 543V524H963V504Q963 293 1042 163T1280 33Q1359 33 1415 56T1506 118T1585 225L1595 219Q1541 107 1448 44T1235 -20Q998 -20 881 182Q819 87 722 30T502 -27Q416 -27 337 7T197 103T100 256T63 457ZM221 475Q221 378 238 293T289 137T382 27T516 -14Q610 -14 678 56T776 233T807 471Q807 559 791 638T743 786T652 897T516 938Q434 938 374 895T282 781T236 633T221 475ZM963 541L1423 545Q1423 613 1418 667T1400 773T1364 860T1305 916T1217 938Q1107 938 1037 833T963 541Z"/><glyph unicode="Š" horiz-adv-x="1069" d="M100 446H109Q276 -6 590 -6Q727 -6 806 81T885 295Q885 388 831 459T680 571Q462 664 379 702Q260 757 202 840T143 1059Q143 1218 245 1319T500 1421Q617 1421 697 1387T846 1296L924 1421H930L940 958H930Q896 1060 856 1137T763 1276T639 1370T483 1403Q377 1403 307 1329T236 1163Q236 1070 279 1010T416 901Q476 870 566 831T698 772Q760 743 799 721T878 665T941 597T978 510T993 395Q993 268 934 171T783 24T582 -25Q464 -25 375 9T199 104L121 -20H115L100 446ZM223 1921L231 1929L530 1655L836 1927L844 1921Q796 1851 751 1782T667 1649T614 1563Q594 1534 580 1526T530 1518Q497 1518 483 1525T451 1559Q432 1587 358 1709T223 1921Z"/><glyph unicode="š" horiz-adv-x="784" d="M70 299H80Q111 168 197 78T397 -12Q512 -12 570 50T629 205Q629 245 614 274T563 326T486 365T375 403Q307 424 261 446T175 500T114 580T94 690Q94 804 171 877T377 950Q442 950 503 933T604 889L643 952H651L666 680H655Q631 782 549 859T367 936Q277 936 227 883T176 754Q176 719 186 694T212 651T260 617T324 591T410 562Q424 557 432 555Q572 510 641 443T711 256Q711 130 619 52T389 -27Q317 -27 247 -3T127 55L88 -8H80L70 299ZM78 1507L86 1516L385 1241L690 1513L698 1507Q650 1437 605 1367T522 1235T469 1149Q449 1120 435 1112T385 1104Q352 1104 338 1112T305 1145Q286 1173 213 1295T78 1507Z"/><glyph unicode="Ÿ" horiz-adv-x="1200" d="M-70 1391V1399H528V1391Q448 1387 376 1370T303 1321Q303 1316 334 1249Q426 1059 655 639Q940 1100 1004 1229Q1028 1276 1028 1292Q1028 1334 943 1359T766 1391V1399H1274V1391Q1246 1391 1184 1366Q1121 1343 1063 1262Q945 1099 709 682Q674 620 668 600T662 532V143Q662 68 725 41Q744 33 804 21T893 8V0H262V8Q386 15 430 31Q494 55 494 133V559Q494 570 487 590T465 641T446 686Q288 1005 166 1219Q108 1319 43 1358Q-5 1388 -70 1391ZM307 1651Q307 1694 337 1724T410 1755Q455 1755 485 1727T516 1659Q516 1614 486 1582T410 1550Q369 1550 338 1580T307 1651ZM741 1651Q741 1694 771 1724T844 1755Q889 1755 918 1727T948 1659Q948 1614 918 1582T844 1550Q801 1550 771 1580T741 1651Z"/><glyph unicode="Ž" horiz-adv-x="1232" d="M6 0V12L1001 1382H559Q455 1382 414 1378Q323 1362 221 1236T102 1032H90L133 1399H1192V1386L197 16H686Q763 16 855 29T977 68Q1044 123 1107 221T1206 410H1219L1171 0H6ZM326 1921L334 1929L633 1655L938 1927L946 1921Q898 1851 853 1781T770 1649T717 1563Q697 1534 683 1526T633 1518Q600 1518 586 1526T553 1559Q534 1587 461 1709T326 1921Z"/><glyph unicode="ž" horiz-adv-x="868" d="M53 0V12L645 907H494Q249 907 195 887Q138 864 98 666H90V924H809V911L219 16Q293 14 401 14Q520 14 655 20Q691 21 710 44T743 106Q785 221 803 301H813L815 0H53ZM141 1507L150 1516L449 1241L754 1513L762 1507Q714 1437 669 1368T585 1235T532 1149Q511 1119 498 1112T449 1104Q416 1104 402 1112T369 1145Q350 1173 276 1295T141 1507Z"/><glyph unicode="ƒ" horiz-adv-x="1015" d="M-283 -244Q-283 -201 -259 -170T-193 -139Q-153 -139 -123 -170T-92 -254Q-92 -279 -106 -314T-133 -365Q-126 -373 -103 -378T-66 -383Q45 -383 118 -269T240 80Q264 193 281 293T315 502T340 662H123L129 690H344Q372 857 421 967T557 1165Q670 1278 823 1278Q909 1278 975 1230T1042 1118Q1042 1079 1018 1047T952 1014T882 1040T852 1114Q852 1164 877 1241Q861 1266 819 1266Q726 1266 643 1145T524 811L504 690H762L754 662H500Q490 601 475 509T451 367T431 255T406 137Q342 -148 195 -276Q120 -342 61 -368T-70 -395Q-178 -395 -230 -353T-283 -244Z"/><glyph unicode="ˆ" horiz-adv-x="1024" d="M201 1098Q249 1168 294 1238T377 1370T430 1456Q450 1485 464 1493T514 1501Q547 1501 561 1493T594 1460Q613 1432 686 1310T821 1098L813 1090L514 1364L209 1092L201 1098Z"/><glyph unicode="ˇ" horiz-adv-x="1024" d="M201 1507L209 1516L508 1241L813 1513L821 1507Q773 1437 728 1367T645 1235T592 1149Q572 1120 558 1112T508 1104Q475 1104 461 1112T428 1145Q409 1173 336 1295T201 1507Z"/><glyph unicode="˘" horiz-adv-x="1024" d="M207 1475L215 1479Q270 1363 346 1296T512 1229Q690 1229 809 1483L817 1481Q764 1285 680 1195T512 1104Q473 1104 433 1123T352 1182T272 1298T207 1475Z"/><glyph unicode="˙" horiz-adv-x="1024" d="M403 1294T403 1339T435 1417T510 1450Q558 1450 588 1421T618 1348Q618 1301 587 1268T510 1235Q466 1235 435 1264Z"/><glyph unicode="˚" horiz-adv-x="1024" d="M289 1288Q289 1376 352 1432T512 1489Q612 1489 673 1434T735 1288Q735 1199 675 1143T512 1087Q407 1087 348 1141T289 1288ZM383 1373T383 1288T414 1151T512 1098T609 1151T641 1288Q641 1370 610 1424T512 1479Q448 1479 416 1426Z"/><glyph unicode="˛" horiz-adv-x="1024" d="M301 -293Q301 -210 365 -148T590 0H602Q446 -153 446 -279Q446 -349 507 -395T694 -451V-463Q498 -461 400 -423T301 -293Z"/><glyph unicode="˜" horiz-adv-x="1024" d="M131 1137Q146 1179 166 1217T217 1294T288 1355T377 1378Q420 1378 458 1367T522 1339T573 1307T624 1280T678 1268Q764 1268 805 1300T881 1407L889 1405Q863 1306 798 1235T637 1163Q580 1163 533 1180T458 1219T396 1258T326 1276Q265 1276 224 1242T139 1133L131 1137Z"/><glyph unicode="˝" horiz-adv-x="1024" d="M109 1118Q237 1305 311 1430Q340 1479 364 1498T428 1518Q458 1518 476 1497T494 1444Q494 1419 484 1400T462 1370T418 1333Q399 1318 306 1252T119 1110L109 1118ZM485 1118Q621 1316 688 1430Q717 1479 741 1498T805 1518Q835 1518 852 1497T870 1444Q870 1419 861 1401T839 1370T795 1333Q776 1318 683 1252T496 1110L485 1118Z"/><glyph unicode="π" horiz-adv-x="1167" d="M70 0V8Q135 12 160 20Q217 38 217 115V801Q217 871 162 895Q120 912 72 915V924H1098V915Q1033 911 1008 903Q950 885 950 809V123Q950 53 1006 29Q1051 10 1096 8V0H639V8Q710 11 743 20Q807 38 807 117V788Q807 905 653 905H506Q478 905 456 902T412 889T376 859T358 809V125Q358 56 420 31Q467 11 524 8V0H70Z"/><glyph unicode="–" horiz-adv-x="1114" d="M102 473V563H1012V473H102Z"/><glyph unicode="—" horiz-adv-x="1810" d="M102 473V563H1708V473H102Z"/><glyph unicode="‘" horiz-adv-x="339" d="M25 1159Q25 1242 90 1333T270 1481L274 1473Q197 1428 146 1351T88 1188H150Q209 1188 238 1157T268 1079Q268 1039 238 1007T170 975Q90 975 58 1021T25 1159Z"/><glyph unicode="’" horiz-adv-x="339" d="M66 1012Q143 1058 194 1134T252 1296H190Q131 1296 102 1327T72 1405Q72 1445 102 1477T170 1509Q250 1509 282 1463T315 1325Q315 1242 250 1152T70 1004L66 1012Z"/><glyph unicode="‚" horiz-adv-x="346" d="M41 -272Q118 -226 169 -150T227 12H166Q107 12 77 44T47 121Q47 161 77 193T145 225Q225 225 258 179T291 41Q291 -42 226 -133T45 -281L41 -272Z"/><glyph unicode="“" horiz-adv-x="688" d="M25 1159Q25 1242 90 1333T270 1481L274 1473Q197 1428 146 1351T88 1188H150Q209 1188 238 1157T268 1079Q268 1039 238 1007T170 975Q90 975 58 1021T25 1159ZM373 1159Q373 1242 438 1333T618 1481L623 1473Q546 1427 494 1351T436 1188H498Q557 1188 586 1157T616 1079Q616 1039 586 1007T518 975Q438 975 406 1021T373 1159Z"/><glyph unicode="”" horiz-adv-x="688" d="M66 1012Q143 1058 194 1134T252 1296H190Q131 1296 102 1327T72 1405Q72 1445 102 1477T170 1509Q250 1509 282 1463T315 1325Q315 1242 250 1152T70 1004L66 1012ZM414 1012Q491 1058 542 1134T600 1296H539Q480 1296 450 1328T420 1405Q420 1445 450 1477T518 1509Q598 1509 631 1463T664 1325Q664 1242 599 1152T418 1004L414 1012Z"/><glyph unicode="„" horiz-adv-x="694" d="M41 -272Q118 -226 169 -150T227 12H166Q107 12 77 44T47 121Q47 161 77 193T145 225Q225 225 258 179T291 41Q291 -42 226 -133T45 -281L41 -272ZM389 -272Q466 -226 517 -150T575 12H514Q455 12 425 44T395 121Q395 160 426 192T494 225Q574 225 606 179T639 41Q639 -42 574 -133T393 -281L389 -272Z"/><glyph unicode="†" horiz-adv-x="835" d="M84 1044Q84 1068 98 1084T137 1100Q185 1100 197 1028Q210 1030 254 1055T319 1081Q376 1081 408 1049Q405 1101 378 1209T350 1346Q350 1381 366 1405T416 1430T465 1406T481 1346Q481 1317 454 1208T422 1049Q462 1081 512 1081Q533 1081 577 1056T635 1028Q641 1062 660 1081T705 1100Q750 1100 750 1044Q750 1006 726 984T662 961Q626 961 571 1020Q526 1065 506 1065T478 1049T467 997Q465 970 452 770T431 439T422 205H412Q409 308 402 444T381 762T365 997Q363 1033 355 1049T326 1065Q301 1065 260 1020Q205 961 170 961Q130 961 107 983T84 1044Z"/><glyph unicode="‡" horiz-adv-x="835" d="M98 1171Q98 1193 112 1210T152 1227Q200 1227 213 1165Q220 1166 256 1176T319 1186Q368 1186 410 1155Q407 1172 380 1243T352 1348T368 1406T416 1430T463 1406T479 1348T452 1242T422 1155Q456 1186 512 1186Q540 1186 577 1176T621 1165Q627 1193 645 1210T688 1227Q733 1227 733 1171Q733 1144 718 1127T672 1110T591 1139T506 1169Q469 1169 459 1094Q427 863 422 752H412Q408 842 373 1094Q363 1169 326 1169Q292 1169 245 1140T168 1110Q135 1110 117 1127T98 1171ZM100 268Q100 295 116 312T162 330T243 300T328 270Q364 270 375 346Q407 577 412 688H422Q426 598 461 346Q466 309 476 290T508 270Q542 270 589 300T666 330Q699 330 717 313T735 268Q735 246 721 230T682 213Q634 213 621 274Q615 273 578 264T514 254Q466 254 424 285Q427 269 454 198T481 92T466 34T418 10T370 34T354 92T381 198T412 285Q378 254 322 254Q294 254 256 263T213 274Q207 246 189 230T145 213Q100 213 100 268Z"/><glyph unicode="•" horiz-adv-x="819" d="M213 583T213 666T270 806T410 864T550 807T608 666T551 526T410 469T270 526Z"/><glyph unicode="…" horiz-adv-x="1595" d="M125 56T125 102T157 181T236 215T315 182T348 102T315 24T236 -8T158 24ZM686 56T686 102T718 181T797 215T876 182T909 102T876 24T797 -8T719 24ZM1247 56T1247 102T1279 181T1358 215T1437 182T1470 102T1437 24T1358 -8T1280 24Z"/><glyph unicode="‰" horiz-adv-x="2473" d="M141 944Q141 1014 169 1076T242 1180T340 1246T446 1270Q494 1270 539 1259T626 1222T699 1160T749 1068T768 944Q768 860 721 788T599 675T446 635Q322 635 232 716T141 944ZM268 952Q268 821 315 735T457 649Q534 649 586 732T639 942Q639 1083 590 1169T453 1255Q363 1255 316 1168T268 952ZM403 -180L1282 1405L1313 1389L432 -197L403 -180ZM948 279Q948 371 996 448T1114 565T1253 606Q1301 606 1346 595T1433 559T1506 498T1556 405T1575 281Q1575 152 1475 62T1253 -29Q1129 -29 1039 53T948 279ZM1075 287Q1075 159 1123 72T1264 -16Q1338 -16 1392 69T1446 276Q1446 415 1397 503T1260 592Q1198 592 1155 547T1094 435T1075 287ZM1706 279Q1706 371 1754 448T1872 565T2011 606Q2059 606 2104 595T2191 559T2264 498T2314 405T2333 281Q2333 152 2233 62T2011 -29Q1887 -29 1797 53T1706 279ZM1833 287Q1833 204 1852 138T1914 28T2021 -16Q2095 -16 2149 69T2204 276Q2204 414 2155 503T2017 592Q1956 592 1913 547T1852 435T1833 287Z"/><glyph unicode="‹" horiz-adv-x="679" d="M92 434T92 459T100 497T133 530Q149 543 245 618T426 763T551 870L557 864L244 455L557 51L551 45Q497 92 324 231T137 383Q110 407 101 420Z"/><glyph unicode="›" horiz-adv-x="679" d="M123 51L436 455L123 864L129 870Q168 833 253 764T435 619T547 530Q572 510 580 497T588 459T579 421T543 383Q529 371 356 232T129 45L123 51Z"/><glyph unicode="⁄" horiz-adv-x="659" d="M-254 -391L791 1534L831 1513L-215 -412L-254 -391Z"/><glyph unicode="€" horiz-adv-x="1140" d="M63 496V518H213Q210 628 215 702H63V725H219Q234 838 275 936T381 1109T537 1227T737 1270Q897 1270 988 1198T1079 1030Q1079 966 1053 930T989 893Q945 893 921 921T897 991Q897 1021 919 1062T942 1135Q933 1189 873 1223T729 1257Q584 1257 494 1113T385 725H866V702H383Q381 632 385 518H784V496H387Q394 400 418 319T485 175T592 75T739 39Q968 39 1090 299L1100 293Q1067 219 1032 166T948 66T833 -5T684 -29Q486 -29 362 107T215 496H63Z"/><glyph unicode="℗" horiz-adv-x="1923" d="M82 514Q82 691 153 854T344 1136T626 1324T963 1395Q1136 1395 1297 1325T1578 1136T1769 855T1841 514Q1841 335 1770 171T1579 -111T1298 -300T963 -371Q789 -371 627 -301T346 -112T154 171T82 514ZM135 514Q135 345 202 190T382 -77T646 -255T963 -322Q1126 -322 1278 -256T1542 -78T1721 189T1788 514Q1788 682 1721 836T1542 1102T1278 1279T963 1346Q799 1346 646 1280T381 1102T202 837T135 514ZM573 971V979H1087Q1219 979 1301 919T1384 758Q1384 628 1279 549T1026 469H903V141Q903 93 946 80Q958 75 1011 68T1096 59V51H580V59Q604 60 646 67T702 80Q750 96 750 141V883Q750 933 702 946Q614 968 573 971ZM903 483H979Q1032 483 1074 502T1139 550T1179 614T1200 676T1206 723Q1206 762 1195 802T1162 879T1099 941T1006 965H903V483Z"/><glyph unicode="™" horiz-adv-x="1288" d="M66 1247V1399H526V1247H520Q476 1382 444 1386Q417 1389 383 1389H338V938Q338 912 360 903L426 891V887H166V891Q232 900 233 901Q258 910 258 934V1389H227Q177 1389 150 1386Q128 1383 105 1334T72 1247H66ZM600 887V891Q665 902 676 909Q700 924 700 1010V1309Q700 1356 678 1370Q640 1393 606 1393V1399H780L938 1012L1053 1331Q1071 1384 1073 1399H1245V1393Q1228 1393 1182 1380Q1161 1371 1161 1346V940Q1161 914 1182 905Q1192 899 1247 891V887H987V891Q990 891 1008 893T1043 897T1063 903Q1083 914 1083 940V1337H1071L911 893H903L727 1339H715V1016Q715 936 739 915Q754 902 819 891V887H600Z"/><glyph unicode="Ω" horiz-adv-x="1654" d="M72 299H80Q84 266 87 246T97 201T114 163T140 141T180 131H477Q327 234 229 407T131 770Q131 901 186 1023T335 1234T557 1376T827 1430Q1016 1430 1175 1347T1429 1112T1524 770T1426 407T1178 131H1475Q1498 131 1514 140T1541 163T1558 200T1568 245T1575 299H1583L1567 0H1044L1038 35Q1187 136 1259 310T1331 743Q1331 1055 1195 1234T827 1413Q597 1413 461 1233T324 743Q324 484 395 310T616 35L610 0H88L72 299Z"/><glyph unicode="∂" horiz-adv-x="1040" d="M61 471Q61 685 187 817T516 950Q605 950 677 912T786 817L795 819Q783 915 763 987T709 1120T622 1211T498 1243Q392 1243 323 1195T227 1065H213Q233 1170 310 1226T508 1282Q724 1282 841 1104T958 592Q958 497 942 409T891 241T804 102T677 8T510 -27T340 3T197 92T98 248T61 471ZM217 481Q217 256 296 121T512 -14Q605 -14 671 57T767 241T797 494Q797 688 721 813T516 938Q416 938 347 873T247 708T217 481Z"/><glyph unicode="∆" horiz-adv-x="1380" d="M-53 0V8Q20 12 80 47Q118 69 153 111T211 207L709 1421H727Q843 1129 1020 675T1227 145Q1240 111 1258 87T1311 43Q1361 12 1434 8V0H-53ZM236 119Q238 91 264 70T330 39T408 25T485 20H844Q919 20 990 36T1061 86Q1061 116 1053 135L643 1202L313 389Q229 187 236 119Z"/><glyph unicode="∏" horiz-adv-x="1662" d="M106 -172Q218 -166 250 -154Q313 -131 313 -53V1085Q313 1160 250 1186Q203 1205 106 1210V1219H1556V1210Q1473 1206 1413 1186Q1350 1166 1350 1085V-43Q1350 -112 1413 -143Q1431 -152 1479 -161T1556 -172V-180H989V-172Q1105 -166 1137 -154Q1200 -131 1200 -53V1075Q1200 1200 999 1200H664Q634 1200 618 1200T574 1197T530 1188T497 1170T471 1141T463 1098V-43Q463 -116 526 -143Q545 -151 595 -161T674 -172V-180H106V-172Z"/><glyph unicode="∑" horiz-adv-x="1204" d="M6 -119Q48 -118 78 -92T145 -14L567 604L168 1155Q137 1198 122 1215T84 1246T33 1260V1268H1112L1155 901H1143Q1127 979 1025 1105T831 1247Q790 1251 686 1251H285L748 612L244 -115H659Q736 -115 828 -102T950 -63Q1017 -8 1081 90T1180 279H1192L1145 -131H6V-119Z"/><glyph unicode="−" horiz-adv-x="1138" d="M76 504V559H1063V504H76Z"/><glyph unicode="√" horiz-adv-x="1138" d="M80 639L319 758L694 78H698L1071 1372L1087 1368L666 -98L655 -100L215 688L84 625L80 639Z"/><glyph unicode="∞" horiz-adv-x="1138" d="M104 532Q104 635 163 701T313 768Q350 768 383 754T452 706T509 647T571 571Q606 615 623 635T671 686T724 731T777 756T840 768Q924 768 978 704T1032 537T971 368T829 301Q769 301 709 346T569 494Q496 402 435 352T303 301Q223 301 164 367T104 532ZM158 532Q158 452 200 401T313 350Q345 350 374 363T437 408T488 460T545 530Q509 579 489 603T437 660T374 705T307 719Q237 719 198 667T158 532ZM594 537Q681 429 727 390T831 350Q900 350 941 407T983 532Q983 620 941 669T829 719Q794 719 758 696T693 644T594 537Z"/><glyph unicode="∫" horiz-adv-x="1015" d="M-283 -244Q-283 -201 -259 -170T-193 -139Q-153 -139 -123 -170T-92 -254Q-92 -279 -106 -314T-133 -365Q-126 -373 -103 -378T-66 -383Q45 -383 118 -269T240 80Q264 192 282 300T318 523T344 690Q372 857 421 967T557 1165Q670 1278 823 1278Q909 1278 975 1230T1042 1118Q1042 1079 1018 1047T952 1014T882 1040T852 1114Q852 1164 877 1241Q861 1266 819 1266Q726 1266 643 1145T524 811Q507 713 486 585T455 395T432 262T406 137Q344 -139 195 -276Q123 -342 63 -368T-70 -395Q-178 -395 -230 -353T-283 -244Z"/><glyph unicode="≈" horiz-adv-x="1138" d="M104 313Q123 348 182 378T309 408Q369 408 594 392T854 375Q954 375 1004 422H1012Q995 386 943 356T823 326Q758 326 536 342T279 358Q160 358 115 313H104ZM104 645Q123 680 182 709T309 739Q369 739 594 723T854 707Q954 707 1004 754H1012Q995 717 943 687T823 657Q758 657 536 673T279 690Q160 690 115 645H104Z"/><glyph unicode="≠" horiz-adv-x="1138" d="M113 113L326 326H117V381H381L684 684H117V739H739L987 987L1026 948L817 739H1022V684H762L459 381H1022V326H403L152 74L113 113Z"/><glyph unicode="≤" horiz-adv-x="1138" d="M109 573V614L1014 1055V995L184 594L1014 193V133L109 573ZM117 0V53H1022V0H117Z"/><glyph unicode="≥" horiz-adv-x="1138" d="M117 0V53H1022V0H117ZM125 133V193L954 594L125 995V1055L1030 614V573L125 133Z"/><glyph unicode="◊" horiz-adv-x="1118" d="M78 623L526 1249H596L1040 623L596 0H522L78 623ZM166 625L565 68L952 623L557 1180L166 625Z"/><glyph unicode="" horiz-adv-x="921" d="M0 0V922H922V0H0Z"/><glyph unicode="" horiz-adv-x="1255" d="M55 729T55 793T100 903T211 950Q304 950 348 864Q356 849 366 815T390 751T426 698L457 700Q516 762 598 762L621 776Q621 834 586 902T551 1010Q551 1076 596 1117T707 1159Q773 1159 815 1114T858 1004Q858 967 846 941T812 897T768 864T720 823T678 766L686 741Q764 700 784 623L809 610Q846 623 877 649T928 698T978 737T1051 754Q1113 754 1156 708T1200 596Q1200 532 1156 488T1047 444Q1007 444 972 465T896 513T809 547L791 530Q780 460 711 408L709 387Q747 337 817 307Q930 253 930 152Q930 90 883 43T770 -4Q707 -4 662 40T616 150Q616 179 634 238T653 342V365L639 375Q625 373 598 373Q536 373 483 410L457 408Q426 362 414 283Q402 208 364 161T254 113Q191 113 144 158T96 270T145 380T266 424Q267 424 282 424T302 424T321 425T345 427T367 432T393 440T418 451L424 479Q403 526 403 567Q403 590 410 618L399 645Q381 651 344 651Q314 651 273 644T213 637Q146 637 101 683ZM461 569Q461 509 500 468T598 426Q657 426 696 467T735 569Q735 628 696 668T598 709Q540 709 501 669T461 569Z"/><glyph unicode="ﬀ" horiz-adv-x="1196" d="M8 895V924H219V979Q219 1216 367 1384Q412 1436 499 1476T668 1516Q874 1516 930 1380Q978 1453 1064 1491T1225 1530Q1317 1530 1361 1481T1405 1366Q1405 1337 1380 1309T1315 1280Q1274 1280 1249 1306T1223 1374Q1223 1411 1235 1481Q1218 1509 1178 1509Q1075 1509 1023 1405T961 1055Q958 1008 958 924H1217V895H958V125Q958 52 1014 31Q1062 12 1145 8V0H680V8Q723 10 760 23Q815 40 815 115V895H362V125Q362 52 418 31Q466 12 547 8V0H74V8Q139 12 164 20Q219 37 219 115V895H8ZM362 924H815V985Q815 1096 846 1210Q807 1210 785 1231T762 1288Q762 1318 772 1342T796 1383T811 1403Q809 1417 802 1431T778 1463T730 1490T653 1501Q615 1501 577 1486T499 1436T430 1348T381 1215T362 1036V924Z"/><glyph unicode="ﬁ" horiz-adv-x="1138" d="M8 895V924H219V989Q219 1233 369 1395Q419 1450 497 1490T664 1530Q804 1530 881 1468T958 1313Q958 1272 934 1234T860 1196Q822 1196 791 1218T760 1288Q760 1312 765 1333T777 1365T791 1388T801 1403Q800 1418 794 1434T773 1471T727 1505T651 1518Q533 1518 448 1398T362 1047V924H725L936 940L946 930V127Q946 54 1001 33Q1061 10 1092 8V0H659V8Q720 11 745 20Q774 29 789 54T805 113V793Q799 859 776 895H362V125Q362 52 418 31Q466 12 547 8V0H74V8Q126 11 154 18Q219 37 219 113V895H8Z"/><glyph unicode="ﬂ" horiz-adv-x="1144" d="M8 895V924H219V987Q219 1263 356 1411Q466 1530 657 1530Q749 1530 825 1491L940 1528L950 1520V127Q950 55 1006 31Q1052 10 1096 8V0H662V8Q727 12 752 20Q807 37 807 115V1223Q781 1229 763 1251T745 1305Q745 1339 758 1365T784 1407T797 1432Q781 1461 738 1487T621 1513Q495 1513 429 1401T362 1042V924H618V895H362V125Q362 51 416 31Q464 12 547 8V0H74V8Q139 12 164 20Q219 37 219 115V895H8Z"/><glyph unicode="ﬃ" horiz-adv-x="1736" d="M8 895V924H219V979Q219 1216 367 1384Q412 1436 499 1476T668 1516Q778 1516 842 1470T934 1358Q995 1436 1081 1483T1262 1530Q1402 1530 1479 1468T1556 1313Q1556 1272 1532 1234T1458 1196Q1420 1196 1389 1218T1358 1288Q1358 1312 1363 1334T1375 1368T1389 1395T1399 1411Q1398 1426 1392 1441T1371 1474T1325 1504T1249 1516Q1193 1516 1143 1489T1052 1406T986 1259T961 1047V924H1321L1534 940L1544 930V127Q1544 54 1599 33Q1659 10 1690 8V0H1255V8Q1316 11 1341 20Q1370 29 1385 54T1401 113V788Q1401 848 1372 895H961V125Q961 52 1016 31Q1064 12 1145 8V0H672V8Q727 11 762 23Q817 40 817 115V895H362V125Q362 54 418 33Q471 12 551 8V0H74V8Q129 11 164 23Q219 40 219 115V895H8ZM360 924H817V981Q817 1120 854 1210Q814 1210 788 1231T762 1288Q762 1318 772 1343T796 1386T811 1407Q807 1439 768 1470T653 1501Q605 1501 557 1476T463 1398T389 1252T360 1036V924Z"/><glyph unicode="ﬄ" horiz-adv-x="1738" d="M8 895V924H219V977Q219 1225 367 1382Q425 1444 504 1480T666 1516Q860 1516 928 1372Q979 1448 1064 1489T1255 1530Q1347 1530 1423 1491L1538 1528L1548 1520V127Q1548 55 1604 31Q1650 10 1694 8V0H1260V8Q1325 12 1350 20Q1405 37 1405 115V1223Q1379 1229 1361 1251T1343 1305Q1343 1339 1356 1365T1382 1407T1395 1432Q1379 1461 1336 1487T1219 1513Q1093 1513 1027 1401T961 1042V924H1217V895H961V125Q961 51 1014 31Q1056 15 1145 10V0H672V8Q737 12 762 20Q817 37 817 115V895H362V125Q362 51 416 31Q464 12 547 8V0H74V8Q139 12 164 20Q219 37 219 115V895H8ZM360 924H817V987Q817 1111 846 1210Q807 1212 785 1233T762 1294Q762 1319 768 1338T783 1366T800 1385T811 1403Q801 1442 762 1471T659 1501Q606 1501 558 1477T466 1404T394 1266T362 1061Q360 1030 360 924Z"/></font>
</defs>
</svg>
