<?xml version="1.0" encoding="utf-8"?>
<!-- Generator: Adobe Illustrator 16.0.0, SVG Export Plug-In . SVG Version: 6.00 Build 0)  -->
<!DOCTYPE svg PUBLIC "-//W3C//DTD SVG 1.1//EN" "http://www.w3.org/Graphics/SVG/1.1/DTD/svg11.dtd">
<svg version="1.1" id="Layer_1" xmlns="http://www.w3.org/2000/svg" xmlns:xlink="http://www.w3.org/1999/xlink" x="0px" y="0px"
	 width="100px" height="100px" viewBox="0 0 100 100" enable-background="new 0 0 100 100" xml:space="preserve">
<path fill="none" stroke="#FFFFFF" stroke-linecap="square" stroke-linejoin="round" stroke-miterlimit="10" d="M38.004,26.923
	c0,0,2.169-17.601,5.204-21.459c10.657-13.542,12.907,6.79,15.399,20.304"/>
<polygon fill="#86726E" points="19.563,22.653 33.603,24.3 33.603,99 19.563,94.543 "/>
<polygon fill="#AFA09A" points="33.603,24.3 80.438,21.337 80.438,91.396 33.603,99 "/>
<polygon fill="#645049" points="19.563,22.653 64.796,20.701 80.438,21.337 33.603,24.3 "/>
<path fill="none" stroke="#FFFFFF" stroke-linecap="square" stroke-linejoin="round" stroke-miterlimit="10" d="M45.28,26.923
	c0,0-1.613-17.135,1.422-20.993c10.657-13.543,16.688,6.323,19.181,19.837"/>
<g>
	<g>
		<path fill="#2A1D17" d="M76.225,46.666c0.001-0.272,0.236-0.5,0.508-0.518c0.273-0.017,0.505,0.182,0.504,0.455
			s-0.224,0.5-0.486,0.517C76.468,47.137,76.224,46.938,76.225,46.666z M76.729,47.044c0.234-0.015,0.432-0.208,0.433-0.437
			s-0.195-0.399-0.43-0.384c-0.232,0.014-0.43,0.209-0.431,0.438S76.496,47.059,76.729,47.044z M76.479,46.876
			c0.062-0.01,0.08-0.016,0.08-0.091l0.001-0.309c0.001-0.072-0.017-0.068-0.079-0.073V46.36l0.264-0.017
			c0.135-0.008,0.236,0.006,0.235,0.125c0,0.106-0.096,0.132-0.158,0.151c0.133,0.072,0.09,0.193,0.146,0.189
			c0.033-0.002,0.035-0.058,0.035-0.072l0.043-0.002c0,0.047-0.02,0.149-0.115,0.155c-0.186,0.012-0.067-0.259-0.228-0.25
			l-0.023,0.001l-0.001,0.13c0,0.085,0.008,0.082,0.082,0.088V46.9l-0.281,0.018V46.876z M76.68,46.596l0.045-0.002
			c0.062-0.004,0.123-0.024,0.123-0.106c0.001-0.064-0.019-0.106-0.092-0.101c-0.073,0.004-0.075,0.032-0.076,0.086V46.596z"/>
	</g>
	<g>
		<path fill="#2A1D17" d="M40.984,61.51c-0.021,5.905,7.094,10.266,15.859,9.72c8.764-0.547,15.911-5.796,15.932-11.7
			c0.02-5.905-7.095-10.265-15.858-9.719C48.151,50.356,41.004,55.604,40.984,61.51z M41.355,61.488
			c0.02-5.711,7-10.79,15.561-11.323c8.561-0.534,15.508,3.677,15.488,9.388c-0.02,5.709-6.999,10.787-15.56,11.321
			C48.285,71.407,41.336,67.196,41.355,61.488z"/>
		<path fill="#2A1D17" d="M52.89,56.008c-0.042,0.003-0.111,0-0.201,0.002l-0.169-0.001c-0.105,0.001-0.217,0.003-0.332,0.009
			c-0.086,0.006-0.18,0.012-0.35,0.028c-0.164,0.016-0.195,0.023-0.365,0.044c-0.074,0.012-0.122,0.014-0.152,0.016
			c-0.139,0.009-0.211-0.031-0.211-0.107c0-0.028,0.011-0.051,0.021-0.068c0.042-0.053,0.064-0.06,0.27-0.1
			c0.213-0.047,0.266-0.119,0.267-0.373l0.005-0.2l0.007-1.917l0.001-0.209c-0.005-0.177-0.024-0.214-0.126-0.208
			c-0.059,0.004-0.101,0.018-0.216,0.073c-0.086,0.045-0.128,0.059-0.17,0.062c-0.064,0.005-0.105-0.033-0.105-0.099
			c0.001-0.095,0.053-0.135,0.323-0.229c0.444-0.166,0.661-0.263,0.947-0.43c0.037-0.023,0.068-0.036,0.09-0.037
			c0.059-0.004,0.089,0.049,0.089,0.154l-0.001,0.193v0.182l-0.009,2.411c-0.001,0.447,0.035,0.518,0.273,0.54
			c0.238,0.019,0.296,0.042,0.296,0.132C53.07,55.952,53,56,52.89,56.008z M51.969,53.35c0.001-0.265-0.01-0.352-0.052-0.428
			c-0.041-0.074-0.146-0.117-0.263-0.109c-0.027,0.001-0.054,0.003-0.091,0.012c0.18,0.01,0.218,0.057,0.221,0.271l-0.001,0.238
			l-0.007,1.878c-0.001,0.392-0.001,0.413-0.032,0.503c-0.022,0.074-0.075,0.121-0.191,0.178c0.317-0.053,0.408-0.191,0.409-0.625
			L51.969,53.35z"/>
		<path fill="#2A1D17" d="M54.819,55.98c-0.772,0.048-1.367-0.339-1.366-0.89c0.002-0.347,0.257-0.677,0.658-0.851
			c0.074-0.032,0.121-0.062,0.122-0.084c0-0.006-0.01-0.017-0.031-0.027l-0.143-0.073c-0.3-0.151-0.479-0.438-0.478-0.78
			c0.002-0.645,0.553-1.119,1.346-1.168c0.772-0.048,1.299,0.271,1.298,0.783c-0.001,0.287-0.172,0.501-0.526,0.673
			c-0.132,0.062-0.164,0.081-0.164,0.093c0,0.011,0.021,0.025,0.047,0.035l0.159,0.078c0.412,0.199,0.633,0.521,0.631,0.918
			C56.37,55.377,55.713,55.925,54.819,55.98z M54.038,55.65c-0.173-0.135-0.283-0.358-0.283-0.584
			c0.001-0.193,0.086-0.424,0.213-0.568c0.069-0.088,0.133-0.137,0.292-0.228c-0.223,0.096-0.296,0.138-0.424,0.251
			c-0.163,0.148-0.266,0.369-0.267,0.562c-0.001,0.392,0.347,0.705,0.87,0.782C54.202,55.76,54.159,55.74,54.038,55.65z
			 M55.222,54.204l-0.697-0.275c-0.474-0.191-0.664-0.411-0.663-0.776c0.001-0.379,0.203-0.666,0.611-0.869
			c-0.466,0.157-0.773,0.539-0.774,0.959c-0.001,0.373,0.225,0.65,0.662,0.823l0.634,0.247c0.479,0.189,0.701,0.424,0.7,0.743
			c-0.001,0.193-0.096,0.397-0.25,0.534c-0.105,0.1-0.175,0.137-0.381,0.221c0.46-0.123,0.777-0.482,0.778-0.88
			C55.844,54.605,55.644,54.377,55.222,54.204z M55.294,54.59c-0.11-0.064-0.253-0.133-0.427-0.209
			c-0.078-0.034-0.158-0.062-0.238-0.085c-0.042-0.014-0.074-0.017-0.089-0.016c-0.059,0.003-0.153,0.086-0.207,0.178
			c-0.084,0.153-0.134,0.339-0.134,0.525c-0.002,0.463,0.294,0.791,0.695,0.767c0.375-0.023,0.682-0.334,0.683-0.682
			C55.578,54.87,55.479,54.7,55.294,54.59z M54.896,52.34c-0.312,0.02-0.567,0.267-0.568,0.554c-0.001,0.183,0.106,0.34,0.273,0.424
			c0.085,0.038,0.228,0.097,0.424,0.165c0.131,0.055,0.199,0.071,0.231,0.068c0.021,0,0.041-0.013,0.069-0.042
			c0.133-0.135,0.201-0.321,0.201-0.503C55.528,52.592,55.265,52.316,54.896,52.34z M55.181,52.262
			c0.337,0.194,0.465,0.391,0.463,0.727c-0.001,0.246-0.086,0.434-0.277,0.605c0.271-0.171,0.435-0.423,0.436-0.671
			C55.803,52.608,55.582,52.374,55.181,52.262z"/>
		<path fill="#2A1D17" d="M58.387,55.724c-0.316,0.201-0.671,0.328-0.952,0.346c-0.348,0.022-0.601-0.149-0.6-0.409
			c0-0.188,0.153-0.346,0.35-0.357c0.153-0.01,0.265,0.061,0.343,0.232c0.032,0.068,0.058,0.117,0.072,0.144
			c0.037,0.075,0.08,0.101,0.154,0.095c0.058-0.004,0.132-0.025,0.186-0.05c0.359-0.177,0.625-0.628,0.627-1.074
			c0.002-0.54-0.362-0.938-0.833-0.907c-0.19,0.012-0.428,0.076-0.555,0.15c-0.09,0.051-0.133,0.079-0.137,0.08
			c-0.017,0.006-0.037,0.014-0.053,0.015c-0.049,0.003-0.086-0.039-0.086-0.094c0-0.022,0.006-0.044,0.018-0.067
			c0.025-0.04,0.062-0.082,0.11-0.112c0.043-0.028,0.144-0.097,0.307-0.196c0.562-0.354,0.831-0.695,0.833-1.043
			c0-0.264-0.199-0.443-0.463-0.428c-0.174,0.012-0.349,0.115-0.462,0.283l-0.115,0.166c-0.037,0.058-0.069,0.081-0.112,0.084
			c-0.059,0.004-0.093-0.033-0.093-0.088c0-0.072,0.068-0.209,0.163-0.322c0.233-0.291,0.552-0.444,0.969-0.47
			c0.576-0.036,0.945,0.179,0.944,0.548c-0.001,0.279-0.225,0.562-0.605,0.785l-0.386,0.218l-0.111,0.068
			c0.223-0.048,0.302-0.063,0.424-0.071c0.645-0.04,1.075,0.336,1.073,0.931C59.395,54.746,59.018,55.32,58.387,55.724z
			 M57.077,55.662c0-0.127,0.037-0.195,0.149-0.269c-0.18,0.016-0.281,0.111-0.281,0.266c-0.001,0.159,0.105,0.263,0.348,0.325
			C57.13,55.891,57.076,55.806,57.077,55.662z M57.871,53.584c-0.141,0.01-0.221,0.025-0.422,0.1
			c0.148-0.032,0.206-0.041,0.285-0.046c0.55-0.034,0.945,0.381,0.943,0.993c-0.002,0.424-0.184,0.783-0.564,1.121
			c0.233-0.143,0.312-0.219,0.466-0.442c0.186-0.267,0.266-0.513,0.267-0.799C58.848,53.915,58.464,53.548,57.871,53.584z
			 M57.877,51.876c-0.12,0.009-0.194,0.036-0.306,0.103c0.079-0.027,0.116-0.034,0.169-0.037c0.302-0.02,0.544,0.214,0.543,0.517
			c-0.001,0.088-0.017,0.183-0.048,0.272c-0.069,0.187-0.139,0.279-0.373,0.508l-0.11,0.111c0.471-0.344,0.698-0.666,0.699-0.996
			C58.452,52.057,58.217,51.855,57.877,51.876z"/>
		<path fill="#2A1D17" d="M62.497,51.898c-0.033,0.059-0.085,0.177-0.166,0.363l-0.238,0.545c-0.305,0.686-0.582,1.34-0.699,1.641
			l-0.314,0.812c-0.075,0.192-0.117,0.305-0.128,0.344c-0.031,0.107-0.063,0.158-0.106,0.178c-0.026,0.008-0.116,0.023-0.195,0.029
			c-0.043,0.002-0.059-0.008-0.059-0.035c0.001-0.016,0.012-0.05,0.027-0.079c0.103-0.222,0.154-0.341,0.282-0.656
			c0.112-0.278,0.209-0.521,0.287-0.728c0.225-0.566,0.421-1.103,0.522-1.411l0.065-0.186c0.01-0.018,0.01-0.034,0.01-0.045
			c0-0.038-0.031-0.048-0.133-0.041l-0.818,0.051c-0.047,0.003-0.206,0.013-0.48,0.042c-0.244,0.02-0.338,0.031-0.45,0.055
			c-0.026,0.006-0.058,0.015-0.073,0.016c-0.085,0.006-0.096-0.032-0.11-0.274l-0.009-0.323l-0.005-0.183v-0.017
			c0-0.104,0.016-0.127,0.079-0.131c0.026-0.002,0.063,0,0.11-0.002c0.096,0.006,0.281-0.002,0.566-0.02l0.697-0.043l1.29-0.08
			c0.053-0.003,0.079,0.018,0.079,0.056C62.528,51.81,62.519,51.855,62.497,51.898z M62.195,51.863l-1.48,0.092
			c-0.354,0.022-0.517,0.026-0.739,0.03c-0.043-0.003-0.074-0.002-0.09-0.001c-0.043,0.003-0.053,0.02-0.053,0.074l-0.001,0.09
			c0.349-0.006,0.513-0.011,0.957-0.038l1.475-0.092l0.025-0.062c0.018-0.033,0.028-0.056,0.028-0.073
			C62.317,51.861,62.302,51.857,62.195,51.863z"/>
		<path fill="#2A1D17" d="M54.186,65.788c-0.007,0.021-0.021,0.105-0.038,0.247l-0.05,0.344l-0.032,0.242
			c-0.013,0.059-0.068,0.109-0.136,0.114c-0.024,0.001-0.048-0.004-0.066-0.017c-0.056-0.029-0.081-0.063-0.184-0.261
			c-0.159-0.288-0.307-0.362-0.7-0.338l-0.221,0.014c-0.099,0.011-0.11,0.021-0.11,0.105L52.64,68.62
			c-0.001,0.425,0.034,0.489,0.299,0.51c0.265,0.016,0.325,0.038,0.325,0.122c0,0.073-0.087,0.119-0.234,0.129
			c-0.03,0.002-0.098,0.001-0.184,0.007c-0.074-0.002-0.135-0.003-0.184,0.001L52.392,69.4l-0.282,0.006l-0.265,0.021l-0.301,0.029
			c-0.05,0.004-0.116,0.014-0.185,0.023c-0.086,0.005-0.154,0.014-0.178,0.016c-0.148,0.009-0.234-0.026-0.234-0.1
			c0-0.084,0.062-0.115,0.32-0.163c0.259-0.052,0.296-0.122,0.297-0.547l0.008-2.339c0.001-0.115-0.03-0.138-0.165-0.129
			c-0.265,0.016-0.467,0.063-0.59,0.15c-0.044,0.029-0.118,0.092-0.21,0.191c-0.086,0.084-0.154,0.161-0.216,0.238
			c-0.08,0.105-0.124,0.133-0.192,0.137c-0.072,0.005-0.128-0.038-0.128-0.096c0-0.037,0.007-0.079,0.024-0.133l0.094-0.257
			c0.038-0.102,0.069-0.197,0.088-0.271c0.08-0.304,0.111-0.364,0.229-0.37c0.019-0.002,0.043,0.002,0.056,0.007
			c0.028,0.009,0.048,0.022,0.06,0.038c0.006,0.004,0.019,0.035,0.043,0.085c0.037,0.081,0.074,0.091,0.277,0.078l2.365-0.147
			l0.258-0.021c0.215-0.02,0.252-0.037,0.338-0.162c0.051-0.082,0.093-0.105,0.16-0.109c0.081-0.006,0.141,0.033,0.141,0.086
			C54.203,65.693,54.197,65.735,54.186,65.788z M50.492,65.955l-0.023,0.079l-0.082,0.288c-0.037,0.129-0.062,0.197-0.148,0.387
			c0.031-0.039,0.055-0.066,0.068-0.083c0.234-0.292,0.259-0.319,0.412-0.397C50.565,66.148,50.534,66.121,50.492,65.955z
			 M51.917,66.164l-0.209,0.014l-0.015,2.523c-0.001,0.43-0.021,0.493-0.211,0.578c0.123-0.008,0.172-0.022,0.252-0.074
			c0.136-0.092,0.173-0.194,0.174-0.497L51.917,66.164z M53.601,66.012c-0.025,0.002-0.043,0.003-0.153,0.004
			c0.147,0.055,0.196,0.088,0.27,0.174c0.055,0.074,0.079,0.13,0.116,0.27l0.013-0.123l0.02-0.178l0.024-0.18l0.012-0.063
			C53.81,65.983,53.761,66.002,53.601,66.012z"/>
		<path fill="#2A1D17" d="M58.097,68.354c-0.012,0.054-0.024,0.116-0.037,0.19c-0.031,0.148-0.05,0.249-0.05,0.296
			c-0.013,0.179-0.051,0.234-0.149,0.24c-0.035,0.002-0.109,0.007-0.208,0.008c-0.08-0.001-0.27,0.006-0.57,0.021l-0.48,0.019
			l-0.497,0.035l-0.325,0.021c-0.148,0.016-0.296,0.023-0.438,0.033c-0.209,0.013-0.251,0.021-0.447,0.043
			c-0.081,0.01-0.131,0.013-0.168,0.016c-0.135,0.008-0.208-0.027-0.208-0.102c0-0.084,0.05-0.113,0.29-0.16
			c0.227-0.051,0.264-0.12,0.265-0.545l0.007-1.936c0.002-0.424-0.034-0.49-0.261-0.508c-0.24-0.021-0.29-0.045-0.29-0.127
			c0.001-0.074,0.075-0.121,0.21-0.131c0.019-0.001,0.073,0.002,0.167,0.002c0.104-0.002,0.287-0.008,0.503-0.021
			c0.166-0.006,0.288-0.013,0.411-0.021c0.597-0.038,1.465-0.112,1.802-0.153c0.067-0.01,0.116-0.018,0.142-0.02
			c0.086-0.006,0.116,0.023,0.115,0.097c0,0.026,0,0.062-0.007,0.104v0.158c-0.001,0.094-0.001,0.178,0.006,0.25
			c0.006,0.031,0.005,0.062,0.005,0.089c0,0.095-0.03,0.138-0.116,0.144s-0.129-0.018-0.203-0.117
			c-0.097-0.142-0.257-0.283-0.355-0.328c-0.085-0.042-0.244-0.064-0.387-0.055c-0.209,0.012-0.454,0.037-0.541,0.065
			c-0.092,0.02-0.117,0.054-0.118,0.173l-0.006,0.179l-0.003,0.659c0,0.111,0.013,0.166,0.037,0.183
			c0.024,0.019,0.036,0.019,0.239,0.005c0.166-0.01,0.259-0.022,0.364-0.038c0.08-0.01,0.141-0.03,0.184-0.059
			c0.074-0.047,0.105-0.091,0.241-0.351c0.043-0.076,0.08-0.104,0.146-0.107c0.081-0.006,0.143,0.043,0.143,0.121
			c0,0.021-0.007,0.057-0.014,0.121c-0.006,0.037-0.006,0.094-0.013,0.18c-0.013,0.146-0.013,0.194-0.013,0.256
			c0,0.047,0,0.095,0.005,0.131l0.019,0.229c0.005,0.041,0.005,0.078,0.005,0.104c0,0.089-0.049,0.133-0.136,0.139
			c-0.098,0.006-0.135-0.028-0.214-0.189c-0.116-0.241-0.269-0.324-0.582-0.305c-0.376,0.022-0.413,0.045-0.414,0.256l-0.002,0.564
			c-0.001,0.367,0.035,0.507,0.152,0.604c0.092,0.077,0.245,0.11,0.466,0.097c0.418-0.026,0.721-0.187,0.918-0.486l0.123-0.197
			c0.05-0.071,0.1-0.1,0.173-0.104c0.086-0.006,0.135,0.038,0.134,0.111C58.115,68.258,58.109,68.311,58.097,68.354z M55.425,66.469
			c0.001-0.183-0.011-0.26-0.048-0.33c-0.054-0.124-0.185-0.184-0.374-0.172c0.189,0.057,0.209,0.117,0.207,0.536l-0.007,1.979
			c-0.001,0.431-0.021,0.493-0.211,0.579c0.123-0.008,0.172-0.022,0.252-0.074c0.136-0.092,0.173-0.193,0.174-0.496L55.425,66.469z
			 M57.234,67.24c0.001-0.146,0.001-0.203,0.026-0.357c-0.131,0.275-0.21,0.339-0.499,0.383c0.166,0.015,0.239,0.041,0.32,0.115
			c0.077,0.068,0.108,0.113,0.177,0.271C57.233,67.471,57.234,67.387,57.234,67.24z M57.675,66.136c0-0.021,0-0.067-0.006-0.141
			l0.001-0.143c0-0.073-0.013-0.076-0.142-0.068l-0.036,0.002l-0.228,0.015c-0.025,0.001-0.068,0.008-0.117,0.012
			c0.148,0.033,0.197,0.056,0.313,0.143c0.091,0.073,0.135,0.117,0.221,0.232C57.675,66.167,57.675,66.146,57.675,66.136z
			 M57.587,68.73c-0.118,0.107-0.198,0.148-0.396,0.193l0.117-0.004l0.228-0.014l0.173-0.006c0.049-0.002,0.055-0.013,0.061-0.055
			c0.021-0.133,0.05-0.297,0.088-0.467C57.74,68.57,57.697,68.631,57.587,68.73z"/>
		<path fill="#2A1D17" d="M62.815,68.771l-0.124,0.007l-0.416,0.006c-0.136,0.003-0.265,0.006-0.394,0.013
			c-0.185,0.013-0.405,0.031-0.684,0.064c-0.086,0.012-0.184,0.021-0.208,0.023c-0.111,0.007-0.172-0.025-0.172-0.099
			c0-0.052,0.031-0.091,0.087-0.116c0.036-0.013,0.056-0.02,0.177-0.041c0.16-0.031,0.229-0.073,0.229-0.136
			c0-0.026-0.012-0.067-0.043-0.128l-0.116-0.259l-0.158-0.304c-0.02-0.048-0.037-0.071-0.049-0.088
			c-0.018-0.014-0.043-0.029-0.073-0.027l-0.087,0.006l-0.971,0.061c-0.141,0.01-0.172,0.033-0.215,0.15l-0.062,0.182
			c-0.051,0.145-0.087,0.293-0.088,0.367c0,0.156,0.108,0.228,0.38,0.243c0.209,0.008,0.264,0.029,0.264,0.119
			c0,0.084-0.074,0.13-0.216,0.138c-0.031,0.002-0.1,0.002-0.16,0.006c-0.269-0.004-0.312-0.006-0.466,0.002
			c-0.147,0.01-0.209,0.019-0.462,0.057c-0.067,0.008-0.123,0.012-0.172,0.016c-0.117,0.007-0.184-0.036-0.184-0.114
			c0-0.073,0.056-0.113,0.19-0.144c0.129-0.023,0.19-0.048,0.241-0.092c0.086-0.069,0.122-0.129,0.302-0.512l0.316-0.664
			l0.482-1.049l0.296-0.615c0.057-0.113,0.105-0.217,0.143-0.309c0.075-0.166,0.154-0.217,0.333-0.229
			c0.129-0.008,0.179,0.025,0.239,0.162c0.086,0.173,0.194,0.402,0.348,0.695l0.458,0.896l0.359,0.717l0.232,0.42
			c0.164,0.299,0.219,0.342,0.422,0.329c0.16-0.011,0.216,0.017,0.216,0.106C63.013,68.732,62.968,68.762,62.815,68.771z
			 M59.406,68.738c-0.086-0.048-0.129-0.134-0.129-0.259c0-0.063,0.008-0.106,0.037-0.224l0.025-0.1l-0.043,0.092l-0.105,0.231
			c-0.099,0.21-0.167,0.281-0.376,0.374c0.179-0.028,0.253-0.032,0.368-0.039c0.068-0.006,0.172-0.011,0.314-0.015l0.172,0.001
			C59.504,68.773,59.468,68.765,59.406,68.738z M60.774,67.355c-0.013-0.032-0.023-0.052-0.031-0.061l-0.401-0.781
			c-0.025-0.04-0.049-0.07-0.062-0.07c-0.019,0.002-0.049,0.057-0.092,0.137c-0.025,0.055-0.068,0.146-0.13,0.27
			c-0.075,0.156-0.13,0.271-0.161,0.352c-0.038,0.075-0.062,0.123-0.074,0.145c-0.013,0.033-0.024,0.059-0.024,0.085
			c0,0.048,0.037,0.062,0.135,0.056l0.725-0.046c0.104-0.006,0.129-0.013,0.129-0.048C60.786,67.381,60.78,67.37,60.774,67.355z
			 M61.502,68.099l-1.036-2.091l-0.111,0.227l0.981,1.965c0.086,0.178,0.11,0.239,0.11,0.307c-0.001,0.058-0.032,0.102-0.112,0.154
			c0.186-0.039,0.277-0.111,0.278-0.244C61.612,68.35,61.576,68.251,61.502,68.099z"/>
		<path fill="#2A1D17" d="M41.708,61.477c-0.019,5.478,6.774,9.51,15.141,8.988c8.365-0.521,15.187-5.402,15.206-10.88
			c0.019-5.478-6.773-9.511-15.139-8.989C48.55,51.117,41.728,55.998,41.708,61.477z M41.833,61.469
			c0.019-5.413,6.785-10.238,15.083-10.755c8.298-0.517,15.032,3.467,15.015,8.879c-0.019,5.413-6.784,10.237-15.082,10.755
			C48.551,70.864,41.815,66.881,41.833,61.469z"/>
		<path fill-rule="evenodd" clip-rule="evenodd" fill="#2A1D17" d="M68.596,62.014c-0.001,0.136-0.126,0.254-0.28,0.264
			c-0.153,0.009-0.277-0.094-0.276-0.229c0-0.137,0.125-0.253,0.278-0.263C68.472,61.775,68.596,61.877,68.596,62.014z
			 M63.818,61.873c0,0.137-0.125,0.254-0.279,0.263c-0.153,0.011-0.278-0.092-0.278-0.228c0.001-0.136,0.126-0.254,0.279-0.264
			C63.694,61.635,63.819,61.737,63.818,61.873z M63.655,59.191c-0.001,0.137-0.126,0.253-0.279,0.263
			c-0.154,0.009-0.278-0.092-0.277-0.229c0-0.136,0.125-0.253,0.279-0.263C63.531,58.953,63.655,59.055,63.655,59.191z
			 M63.572,60.509c0,0.135-0.125,0.253-0.278,0.263s-0.276-0.094-0.276-0.229c0.001-0.136,0.125-0.253,0.278-0.264
			C63.449,60.271,63.573,60.373,63.572,60.509z M69.298,58.867c-0.079,0.034-0.176,0.022-0.291,0.029
			c-0.096,0.006-0.244,0.035-0.298,0.008c-0.042-0.021-0.077-0.137-0.103-0.211c-0.184-0.551-0.402-1.068-0.727-1.458
			c-0.354-0.425-0.939-0.769-1.807-0.599c-0.723,0.142-1.135,0.658-1.376,1.267c-0.21,0.53-0.313,1.198-0.351,1.922
			c-0.007,0.171-0.019,0.301,0.04,0.404c0.046,0.037,0.092,0.062,0.165,0.087c0.043,0.014,0.181,0.027,0.183,0.068
			c0.002,0.031-0.084,0.062-0.114,0.082c-0.034,0.023-0.093,0.049-0.12,0.072c-0.086,0.067-0.108,0.154-0.144,0.255
			c0.038,0.837,0.161,1.545,0.468,2.112c0.277,0.51,0.75,1.027,1.648,0.795c0.741-0.188,0.94-0.877,0.91-1.752
			c-0.022-0.692-0.199-1.029-0.819-1.086c-0.083-0.008-0.194-0.012-0.298-0.01c-0.079-0.001-0.252,0.027-0.285-0.017
			c-0.024-0.032-0.012-0.165-0.012-0.241c0.001-0.098-0.02-0.191,0.013-0.236c0.045-0.062,0.413-0.054,0.521-0.061l3.569-0.223
			c0.096-0.006,0.214-0.023,0.257-0.005c0.062,0.027,0.052,0.118,0.051,0.233c0,0.088,0.017,0.234-0.018,0.271
			c-0.035,0.037-0.225,0.036-0.292,0.046c-0.349,0.049-0.673,0.101-0.785,0.393c-0.071,0.189-0.058,0.439-0.059,0.688l-0.008,2.192
			c-0.062,0.088-0.316,0.1-0.43,0.067c-0.061-0.008-0.095-0.062-0.131-0.096c-0.076-0.074-0.146-0.143-0.228-0.227
			c-0.066-0.068-0.128-0.117-0.258-0.076c-0.072,0.023-0.147,0.08-0.217,0.123c-0.489,0.288-1.076,0.524-1.793,0.598
			c-0.844,0.088-1.485-0.133-2.034-0.436c-0.524-0.288-0.98-0.725-1.305-1.215c-0.247-0.369-0.448-0.812-0.544-1.37
			c-0.031-0.171-0.036-0.403-0.125-0.515c-0.043-0.055-0.142-0.119-0.229-0.146c-0.021-0.007-0.084,0.006-0.086-0.035
			c-0.002-0.031,0.063-0.052,0.093-0.063c0.045-0.021,0.066-0.029,0.109-0.041c0.086-0.073,0.147-0.113,0.182-0.206
			c0.051-0.134,0.048-0.291,0.07-0.423c0.073-0.422,0.194-0.779,0.354-1.13c0.202-0.443,0.458-0.857,0.787-1.208
			c0.635-0.673,1.463-1.278,2.664-1.411c0.857-0.094,1.384,0.156,1.938,0.402c0.078,0.033,0.189,0.088,0.286,0.066
			c0.089-0.018,0.159-0.105,0.212-0.173c0.055-0.067,0.112-0.173,0.184-0.202c0.046-0.018,0.352-0.03,0.39-0.012
			c0.066,0.034,0.066,0.168,0.073,0.295c0.049,0.771,0.089,1.49,0.141,2.256C69.325,58.77,69.333,58.824,69.298,58.867z"/>
		<path fill-rule="evenodd" clip-rule="evenodd" fill="#2A1D17" d="M47.671,60.02c0,0.137-0.126,0.252-0.28,0.262
			s-0.278-0.091-0.277-0.228c0-0.136,0.125-0.253,0.279-0.263S47.672,59.883,47.671,60.02z M47.642,62.882
			c0,0.136-0.126,0.253-0.28,0.263s-0.278-0.093-0.277-0.228c0-0.136,0.125-0.255,0.279-0.264
			C47.518,62.643,47.643,62.746,47.642,62.882z M47.647,61.451c0,0.136-0.126,0.254-0.28,0.264
			c-0.154,0.009-0.278-0.094-0.277-0.229s0.125-0.254,0.279-0.264S47.647,61.316,47.647,61.451z M45.14,65.445
			c-0.033-0.102-0.014-0.289-0.009-0.412c0.067-0.062,0.159-0.047,0.234-0.055c0.437-0.047,0.839-0.127,0.985-0.452
			c0.059-0.132,0.065-0.277,0.066-0.486l0.007-1.927c0-0.096,0.013-0.197,0.001-0.27c-0.024-0.125-0.174-0.199-0.298-0.229
			c-0.058-0.014-0.139-0.014-0.142-0.048c-0.003-0.041,0.098-0.075,0.143-0.097c0.148-0.068,0.266-0.158,0.3-0.328
			c-0.002-1.033,0.014-2.082,0.003-3.104c-0.049-0.071-0.145-0.046-0.222-0.037c-1.275,0.153-1.964,0.802-2.026,2.116
			c-0.005,0.094,0.01,0.23-0.023,0.267c-0.041,0.042-0.24,0.031-0.338,0.038c-0.137,0.009-0.264,0.023-0.35,0.01
			c-0.042-0.042-0.018-0.113-0.01-0.171c0.115-0.806,0.229-1.614,0.357-2.438c0.018-0.109,0.024-0.306,0.093-0.338
			c0.139-0.067,0.163,0.068,0.229,0.105l6.069-0.379c0.136-0.008,0.298,0.008,0.401-0.023c0.032-0.01,0.083-0.05,0.103-0.076
			c0.024-0.033,0.032-0.1,0.108-0.098c0.137,0.002,0.127,0.184,0.143,0.289c0.114,0.757,0.232,1.518,0.341,2.268
			c0.014,0.097,0.069,0.326,0.028,0.371c-0.028,0.03-0.264,0.029-0.35,0.033c-0.129,0.009-0.311,0.033-0.344,0.01
			c-0.041-0.027-0.028-0.168-0.033-0.249c-0.076-1.244-0.663-1.907-1.933-1.888c-0.087,0.002-0.203-0.004-0.251,0.032
			c-0.063,0.046-0.052,0.214-0.052,0.36l-0.008,2.443c0,0.129-0.023,0.285-0.001,0.401c0.016,0.1,0.115,0.183,0.193,0.213
			c0.029,0.011,0.208,0.018,0.216,0.065c0.01,0.055-0.061,0.068-0.086,0.079c-0.154,0.077-0.287,0.147-0.321,0.337
			c-0.019,0.106-0.005,0.221-0.006,0.339L48.35,63.84c-0.001,0.242,0,0.457,0.077,0.598c0.088,0.16,0.264,0.238,0.475,0.268
			c0.103,0.016,0.347,0.028,0.531,0.02c0.061-0.004,0.142-0.018,0.166,0.012c0.021,0.028,0.012,0.14,0.012,0.218
			c0,0.081,0.011,0.176-0.024,0.208c-0.033,0.031-0.172,0.028-0.264,0.033l-3.077,0.193C45.868,65.41,45.47,65.445,45.14,65.445z"/>
		<path fill-rule="evenodd" clip-rule="evenodd" fill="#2A1D17" d="M58.928,61.521c-0.001,0.137-0.126,0.254-0.28,0.264
			c-0.152,0.01-0.277-0.093-0.276-0.229c0-0.135,0.126-0.253,0.278-0.263C58.804,61.284,58.928,61.387,58.928,61.521z
			 M58.169,58.961c-0.001,0.135-0.125,0.253-0.28,0.262c-0.152,0.011-0.277-0.092-0.276-0.228c0-0.137,0.126-0.253,0.278-0.263
			C58.046,58.723,58.169,58.824,58.169,58.961z M58.568,60.249c0,0.136-0.127,0.252-0.28,0.263
			c-0.154,0.009-0.278-0.092-0.278-0.229c0.001-0.136,0.126-0.254,0.28-0.264C58.443,60.01,58.569,60.113,58.568,60.249z
			 M54.897,61.772c-0.001,0.137-0.125,0.253-0.279,0.263s-0.278-0.092-0.277-0.229c0-0.135,0.125-0.253,0.279-0.262
			C54.774,61.535,54.897,61.638,54.897,61.772z M54.234,59.324c0,0.137-0.125,0.254-0.278,0.264
			c-0.155,0.01-0.278-0.093-0.278-0.229c0.001-0.136,0.124-0.254,0.279-0.264C54.11,59.086,54.235,59.189,54.234,59.324z
			 M54.576,60.564c0,0.137-0.126,0.254-0.28,0.264s-0.277-0.093-0.277-0.229c0.001-0.136,0.125-0.254,0.279-0.264
			S54.576,60.43,54.576,60.564z M55.339,56.926c0.011,0.047,0.004,0.128,0.004,0.213c0,0.075,0.013,0.172-0.018,0.201
			c-0.043,0.043-0.252,0.037-0.32,0.049c-0.235,0.043-0.438,0.129-0.464,0.375c-0.024,0.215,0.046,0.418,0.089,0.578
			c0.09,0.338,0.202,0.701,0.299,1.032c0.052,0.172,0.084,0.356,0.147,0.519c0.021,0.053,0.109,0.143,0.178,0.161
			c0.059,0.015,0.142-0.005,0.199,0.009c0.015,0.057-0.05,0.083-0.075,0.115c-0.025,0.034-0.055,0.081-0.074,0.119
			c-0.081,0.152-0.018,0.33,0.026,0.486c0.132,0.457,0.273,0.957,0.402,1.385c0.033-0.016,0.041-0.062,0.051-0.094
			c0.417-1.242,0.778-2.331,1.094-3.258c-0.225-0.607-0.25-1.445-0.985-1.489c-0.047-0.002-0.111,0.005-0.138-0.02
			c-0.06-0.054-0.01-0.336-0.009-0.417c0.062-0.045,0.145-0.033,0.217-0.037l3.055-0.191c0.116-0.006,0.395-0.054,0.453-0.01
			c0.037,0.029,0.021,0.123,0.021,0.217c0,0.096,0.013,0.193-0.022,0.22c-0.049,0.034-0.215,0.03-0.275,0.04
			c-0.268,0.039-0.526,0.103-0.647,0.287c-0.105,0.16-0.021,0.461,0.027,0.629l0.322,1.116c0.052,0.185,0.077,0.327,0.296,0.337
			c0.035,0.002,0.155-0.025,0.166,0.018c0.007,0.032-0.045,0.061-0.075,0.086c-0.097,0.08-0.162,0.203-0.144,0.377
			c0.008,0.08,0.045,0.164,0.067,0.247c0.143,0.56,0.326,1.153,0.48,1.696c0.046-0.033,0.051-0.106,0.069-0.165
			c0.356-1.092,0.73-2.185,1.092-3.292c0.077-0.237,0.171-0.463,0.202-0.719c0.068-0.57-0.313-0.68-0.82-0.688
			c-0.046-0.001-0.165,0.019-0.201-0.011c-0.032-0.027-0.021-0.115-0.021-0.204c0-0.087-0.012-0.178,0.013-0.214
			c0.033-0.052,0.225-0.042,0.326-0.049l2.111-0.132c0.084-0.005,0.287-0.046,0.325,0.004c0.03,0.04,0.021,0.374-0.008,0.413
			c-0.037,0.049-0.207,0.049-0.28,0.068c-0.631,0.166-0.77,0.824-0.966,1.402c-0.559,1.652-1.132,3.34-1.71,5.006
			c-0.083,0.238-0.172,0.492-0.259,0.745c-0.031,0.085-0.075,0.195-0.07,0.264c0.005,0.067,0.074,0.086,0.063,0.163
			c-0.057,0.07-0.17,0.056-0.27,0.061l-0.63,0.04c-0.103,0.007-0.213,0.034-0.28-0.017c-0.023-0.078,0.066-0.104,0.075-0.166
			c0.007-0.047-0.027-0.131-0.045-0.196c-0.261-0.913-0.536-1.875-0.787-2.774c-0.063-0.054-0.136-0.116-0.232-0.135
			c-0.05-0.011-0.124,0.021-0.167-0.018c0.02-0.068,0.094-0.094,0.139-0.141c0.056-0.061,0.114-0.146,0.099-0.265
			c-0.012-0.087-0.048-0.183-0.073-0.276c-0.073-0.252-0.16-0.566-0.239-0.801c-0.037,0.027-0.045,0.093-0.062,0.143
			c-0.493,1.431-0.955,2.891-1.462,4.336c-0.031,0.09-0.098,0.231-0.093,0.305c0.003,0.062,0.08,0.062,0.073,0.133
			c-0.007,0.084-0.15,0.072-0.28,0.08l-0.687,0.043c-0.08,0.005-0.262,0.033-0.279-0.033c-0.023-0.088,0.1-0.101,0.114-0.163
			c0.011-0.042-0.023-0.138-0.045-0.216c-0.21-0.764-0.434-1.569-0.644-2.328c-0.079-0.285-0.146-0.565-0.237-0.84
			c-0.014-0.041-0.072-0.084-0.111-0.118c-0.072-0.063-0.121-0.082-0.248-0.079c-0.051,0.003-0.108,0.034-0.126-0.01
			c0.027-0.069,0.117-0.091,0.178-0.142c0.049-0.042,0.12-0.12,0.132-0.18c0.015-0.076-0.022-0.183-0.044-0.262
			c-0.16-0.567-0.302-1.083-0.459-1.646c-0.156-0.563-0.259-1.144-0.836-1.245c-0.087-0.015-0.21-0.014-0.234-0.054
			c-0.036-0.06-0.021-0.335,0.014-0.386c0.059-0.093,0.338-0.072,0.514-0.084l2.838-0.176C55.218,56.9,55.288,56.883,55.339,56.926z
			"/>
		<path fill-rule="evenodd" clip-rule="evenodd" fill="#2A1D17" d="M63.066,56.637c-0.025,0.01-0.039,0.037-0.03,0.062
			c0.025,0.078,0.005,0.455-0.05,0.48c-0.613,0.025-0.878,0.439-0.922,0.582c-0.022,0.072-2.254,6.612-2.276,6.68l-0.007,0.02
			l0.011,0.02c0.056,0.1,0.114,0.268,0.065,0.315c-0.07,0.067-0.253,0.102-0.315,0.098l-0.972,0.052
			c-0.027,0.002-0.049,0.024-0.049,0.052s0.021,0.046,0.048,0.044l0.965-0.051c0.021,0.003,0.27-0.014,0.387-0.125
			c0.037-0.035,0.051-0.085,0.051-0.136c0.001-0.112-0.059-0.233-0.086-0.281c0.133-0.385,2.251-6.599,2.271-6.663
			c0.031-0.102,0.264-0.484,0.828-0.51c0.025-0.001,0.059-0.012,0.088-0.053c0.088-0.129,0.076-0.498,0.055-0.56
			C63.119,56.639,63.092,56.626,63.066,56.637z M69.515,56.469c-0.016,0.002-0.027,0.01-0.037,0.021
			c-0.009,0.01-0.012,0.025-0.011,0.039c0.011,0.066,0.143,1.807,0.163,2.354c0.003,0.079-0.008,0.182-0.03,0.214
			c-0.035,0.036-0.291,0.05-0.539,0.063c-0.026,0-0.047,0.023-0.047,0.049c-0.001,0.025,0.019,0.047,0.046,0.047
			c0.4-0.021,0.565-0.033,0.617-0.107c0.055-0.078,0.048-0.256,0.049-0.275l-0.089-1.395C69.563,56.465,69.563,56.465,69.515,56.469
			z M66.355,56.885c-0.883,0.116-1.794,1.037-1.7,3.271c0.002,0.026,0.023,0.045,0.051,0.043c0.025-0.003,0.047-0.027,0.045-0.055
			c-0.091-2.164,0.772-3.055,1.61-3.165c0.565-0.074,0.923,0.139,0.962,0.163c0.023,0.014,0.053,0.007,0.066-0.017
			c0.016-0.022,0.01-0.052-0.012-0.065C67.337,57.033,66.952,56.807,66.355,56.885z M64.953,60.602
			c-0.24,0.161-0.265,0.291-0.262,0.529c0.004,0.537,0.268,1.77,0.753,2.21c0.019,0.017,0.049,0.015,0.067-0.005
			c0.018-0.021,0.018-0.051-0.002-0.068c-0.432-0.393-0.717-1.533-0.725-2.144c-0.001-0.22,0.016-0.307,0.218-0.444
			c0.021-0.014,0.029-0.045,0.017-0.066C65.006,60.594,64.977,60.588,64.953,60.602z M70.701,60.233
			c-0.025,0.003-0.047,0.027-0.046,0.054c0.001,0.004,0.019,0.377-0.005,0.498c-0.015,0.07-0.069,0.101-0.193,0.107l-0.036,0.001
			c-0.139,0.006-0.463,0.019-0.629,0.11c-0.171,0.094-0.208,0.191-0.238,0.27l-0.011,0.031c-0.033,0.081-0.035,0.486-0.029,1.193
			c0.004,0.637,0.008,1.6-0.053,1.695c-0.076,0.051-0.257,0.086-0.499-0.001c-0.023-0.009-0.052,0.007-0.062,0.03
			c-0.01,0.025,0.001,0.053,0.025,0.061c0.274,0.1,0.485,0.056,0.592-0.02c0.086-0.06,0.098-0.493,0.092-1.771
			c-0.003-0.512-0.006-1.089,0.021-1.155l0.013-0.033c0.026-0.069,0.054-0.142,0.19-0.216c0.146-0.082,0.465-0.094,0.586-0.1
			l0.037-0.002c0.07-0.002,0.252-0.012,0.288-0.188c0.025-0.132,0.007-0.507,0.007-0.522C70.75,60.25,70.729,60.23,70.701,60.233z
			 M65.966,61.169c-0.002,0.025,0.018,0.048,0.045,0.048l0.104,0.002c0.273,0.002,0.689,0.008,0.815,0.147
			c0.019,0.019,0.049,0.019,0.067,0.001c0.021-0.02,0.023-0.049,0.006-0.068c-0.154-0.166-0.574-0.174-0.882-0.176l-0.104-0.002
			C65.992,61.121,65.969,61.143,65.966,61.169z M63.621,63.848c-0.02,0.019-0.023,0.049-0.007,0.067
			c0.608,0.724,3.127,1.224,4.498,0.079c0.021-0.018,0.025-0.049,0.009-0.068c-0.016-0.02-0.046-0.021-0.066-0.004
			c-1.332,1.112-3.776,0.629-4.366-0.069C63.673,63.832,63.644,63.831,63.621,63.848z M61.72,60.934
			c-0.006,0.026,0.01,0.052,0.035,0.056c0.131,0.021,0.188,0.157,0.218,0.222l0.012,0.025c0.012,0.023,0.038,0.031,0.062,0.018
			c0.024-0.012,0.035-0.043,0.024-0.066l-0.011-0.021c-0.032-0.071-0.106-0.241-0.283-0.272
			C61.751,60.891,61.725,60.908,61.72,60.934z M60.025,57.367c0,0.025,0.022,0.046,0.049,0.045c0.156-0.01,0.532-0.012,0.657,0.175
			c0.014,0.021,0.043,0.026,0.066,0.011c0.021-0.016,0.027-0.045,0.014-0.066c-0.144-0.219-0.524-0.229-0.737-0.215
			C60.048,57.317,60.025,57.34,60.025,57.367z M59.625,59.623l-0.051,0.068c-0.07,0.09-0.132,0.167-0.102,0.322
			c0.02,0.111,0.272,0.969,0.287,1.02c0.007,0.024,0.034,0.037,0.06,0.027s0.04-0.036,0.031-0.061
			c-0.125-0.414-0.269-0.926-0.283-1.01c-0.022-0.112,0.012-0.156,0.081-0.241l0.053-0.073c0.018-0.02,0.012-0.049-0.008-0.064
			C59.672,59.596,59.643,59.604,59.625,59.623z M59.645,57.339c-0.082,0.005-0.572,0.065-0.711,0.229
			c-0.062,0.076-0.12,0.205-0.043,0.401c0.015,0.039,0.235,0.77,0.392,1.312c0.006,0.025,0.033,0.039,0.059,0.03
			c0.024-0.009,0.04-0.036,0.034-0.06c-0.066-0.231-0.379-1.283-0.395-1.322c-0.049-0.123-0.04-0.225,0.024-0.303
			c0.103-0.121,0.538-0.186,0.628-0.19C59.721,57.431,59.732,57.334,59.645,57.339z M57.124,61.623c0,0.026,0.022,0.047,0.048,0.045
			c0.104-0.008,0.21,0.064,0.228,0.096c0.014,0.021,0.041,0.029,0.064,0.015c0.023-0.013,0.032-0.043,0.02-0.065
			c-0.032-0.063-0.173-0.15-0.312-0.141C57.146,61.574,57.124,61.597,57.124,61.623z M57.125,60.853
			c-1.416,4.126-1.335,3.938-1.333,3.952l0.048,0.135l0.008,0.017c0.005,0.015,0.014,0.061-0.004,0.095
			c-0.012,0.021-0.033,0.035-0.064,0.045l-1.18,0.071c-0.027,0.002-0.049,0.024-0.049,0.051s0.021,0.047,0.049,0.045l1.191-0.075
			c0.082-0.021,0.118-0.064,0.135-0.094c0.041-0.077,0.016-0.164,0.012-0.174l-0.01-0.025l-0.04-0.105
			c0.02-0.084,0.851-2.521,1.327-3.911c0.01-0.025-0.003-0.052-0.028-0.059C57.163,60.812,57.134,60.828,57.125,60.853z
			 M53.037,61.315c-0.027,0.003-0.047,0.026-0.045,0.052c-0.001,0.026,0.021,0.047,0.048,0.043c0.08-0.008,0.264,0.058,0.322,0.15
			c0.014,0.021,0.044,0.025,0.066,0.01c0.022-0.015,0.029-0.044,0.016-0.066C53.362,61.379,53.145,61.305,53.037,61.315z
			 M55.727,60.164c-0.06,0.064-0.195,0.231-0.148,0.412l0.212,0.736c-0.008-0.025,0.03,0.03,0.056,0.021
			c0.025-0.01,0.028-0.079,0.036-0.053l-0.212-0.732c-0.034-0.135,0.075-0.27,0.124-0.32c0.019-0.021,0.019-0.052,0-0.068
			C55.775,60.142,55.745,60.144,55.727,60.164z M55.725,57.641c-0.004,0.027,0.016,0.05,0.042,0.051
			c0.12,0.006,0.331,0.053,0.412,0.184c0.015,0.021,0.043,0.029,0.066,0.013c0.021-0.015,0.029-0.045,0.016-0.065
			c-0.108-0.176-0.368-0.221-0.483-0.227C55.752,57.594,55.728,57.615,55.725,57.641z M55.49,57.577L55.363,57.6
			c-0.196,0.029-0.291,0.012-0.366,0.076c-0.12,0.104-0.158,0.266-0.119,0.385l0.048,0.173c0.464,1.634,0.475,1.646,0.486,1.659
			c0.016,0.018,0.04,0.02,0.061,0.006c0.02-0.015,0.027-0.043,0.018-0.062c-0.025-0.062-0.361-1.245-0.473-1.635l-0.049-0.176
			c-0.03-0.088,0.002-0.204,0.088-0.279c0.06-0.05,0.191-0.032,0.314-0.051l0.139-0.025C55.605,57.644,55.562,57.558,55.49,57.577z
			 M51.87,57.861c-0.025,0.004-0.046,0.028-0.044,0.055c0.002,0.025,0.025,0.044,0.052,0.04c0.13-0.019,0.358,0.104,0.44,0.19
			c0.018,0.02,0.047,0.02,0.067,0.001c0.02-0.019,0.021-0.048,0.004-0.067C52.297,57.978,52.039,57.838,51.87,57.861z
			 M51.248,57.232c-0.025,0.007-0.044,0.031-0.039,0.058l0.424,2.751c-0.002-0.002-0.02,0.103-0.118,0.104l-0.63,0.035
			c-0.027,0.002-0.047,0.023-0.048,0.051c0,0.026,0.021,0.046,0.048,0.046l0.627-0.036c0.149,0,0.205-0.135,0.216-0.207
			l-0.425-2.764C51.299,57.243,51.273,57.228,51.248,57.232z M48.857,58.164c-0.055,0.01-0.11,0.024-0.145,0.062l-0.024,0.084
			c-0.002,0.002,0.018,0.03,0.014,2.766c0,0.025,0.021,0.046,0.047,0.044c0.026-0.002,0.047-0.023,0.047-0.049
			c0.001-0.936-0.019-2.688-0.014-2.75l0.003-0.039c0.007-0.006,0.035-0.017,0.083-0.025c0.076-0.014,0.724,0.025,0.827,0.178
			c0.016,0.021,0.045,0.025,0.066,0.008c0.021-0.015,0.027-0.045,0.013-0.064C49.631,58.162,48.896,58.156,48.857,58.164z
			 M49.029,61.571c-0.129,0.026-0.377,0.159-0.396,0.454l0.018,2.299c0,0.025,0.021,0.045,0.048,0.043s0.048-0.024,0.048-0.051
			l-0.018-2.294c0.018-0.289,0.302-0.355,0.314-0.358c0.025-0.006,0.043-0.03,0.039-0.057
			C49.078,61.582,49.055,61.564,49.029,61.571z M49.867,65.059l-0.002,0.279c0,0.006-0.003,0.107-0.092,0.15l-4.342,0.271
			c-0.025,0.002-0.047,0.024-0.047,0.051c0,0.026,0.021,0.048,0.047,0.046l4.364-0.271c0.164-0.072,0.166-0.244,0.166-0.251
			l0.002-0.279c0-0.026-0.021-0.046-0.047-0.045C49.889,65.01,49.867,65.033,49.867,65.059z M45.88,61.85
			c-0.005,0.025,0.014,0.049,0.039,0.05c0.111,0.011,0.265,0.187,0.28,0.22c0.012,0.021,0.041,0.031,0.063,0.018
			c0.022-0.012,0.034-0.039,0.024-0.061c-0.017-0.039-0.196-0.258-0.354-0.27C45.908,61.803,45.882,61.823,45.88,61.85z
			 M45.598,58.454c-0.271,0.109-0.549,0.242-0.731,0.468c-0.376,0.463-0.429,1.158-0.457,1.531
			c-0.006,0.091-0.012,0.184-0.022,0.204c-0.008,0.012-0.064,0.024-0.119,0.024l-0.643,0.039c-0.025,0.001-0.047,0.023-0.047,0.049
			c0,0.028,0.021,0.047,0.046,0.045l0.639-0.039c0.033,0.002,0.164,0,0.208-0.078c0.018-0.033,0.022-0.095,0.034-0.242
			c0.027-0.363,0.077-1.038,0.433-1.476c0.168-0.207,0.431-0.332,0.688-0.437c0.224-0.09,0.428-0.151,0.574-0.139
			c0.025,0.004,0.05-0.016,0.055-0.043c0.003-0.025-0.014-0.049-0.04-0.051C46.042,58.294,45.814,58.367,45.598,58.454z"/>
		<path fill-rule="evenodd" clip-rule="evenodd" fill="#2A1D17" d="M58.437,48.12c-0.101-0.054-0.297-0.028-0.422-0.024
			c0.442,0.131,1.025,0.287,1.529,0.445c0.049-0.101-0.165-0.215-0.178-0.337c0.144,0.014,0.314,0.257,0.277,0.439
			c-0.592-0.13-1.21-0.331-1.806-0.474c-0.23-0.301-0.187-0.716-0.33-1.055c-0.009-0.137-0.074-0.333-0.126-0.542
			c-0.041-0.167-0.147-0.426-0.084-0.547c0.109-0.202,0.434-0.167,0.665-0.188c0.231-0.024,0.507-0.022,0.743-0.037
			c0.488,0.007,0.945-0.028,1.449,0.016c3.035,0.023,6.358,0.708,9.841,1.917c2.791,0.971,5.081,2.385,6.843,3.896
			c-0.024,0.077-0.024,0.144-0.033,0.213c-0.314,0.296-0.647,0.546-0.979,0.8c-0.326,0.255-0.626,0.572-0.979,0.76
			c-1.573-0.64-2.97-0.835-4.305-0.873c0.191-0.397,0.575-0.63,0.92-0.762c-0.92-0.254-1.731-0.232-2.647-0.479
			c0.495-0.411,1.184-0.331,1.792-0.456c0.267,0.018,0.511-0.024,0.791,0.027c-1.86-0.962-4.041-1.744-6.388-2.195
			c-2.281-0.439-4.48-0.583-6.54-0.572c0.068,0.083,0.284-0.027,0.296,0.118c-0.004,0.053-0.5,0-0.347-0.098
			C58.425,48.116,58.431,48.118,58.437,48.12z M75.228,50.495c-1.478-0.986-3.126-1.899-5.149-2.612
			c-4.046-1.424-7.478-2.035-10.989-1.945c-0.485,0.002-0.986-0.04-1.431,0.067c0.005,0.342,0.125,0.639,0.187,0.957
			c0.02,0.162,0.071,0.311,0.098,0.47c0.059,0.151,0.036,0.334,0.142,0.467c2.7-0.001,5.494,0.251,8.551,1.003
			c3.177,0.781,6.326,2.361,8.195,4.125c0.44-0.368,0.895-0.753,1.326-1.114c0.14-0.117,0.328-0.223,0.404-0.395
			C76.23,51.131,75.627,50.854,75.228,50.495z M73.556,52.149c-0.486-0.345-1.032-0.679-1.604-0.967
			c-1.052-0.177-2.057-0.236-2.916,0.07c0.981,0.237,1.943,0.224,2.918,0.567c-0.434,0.095-0.832,0.279-1.176,0.599
			c1.258,0.062,2.699,0.296,3.984,0.847C74.518,52.815,74.033,52.486,73.556,52.149z"/>
		<path fill-rule="evenodd" clip-rule="evenodd" fill="#2A1D17" d="M55.027,48.353c0.145,0.074-0.332,0.187-0.337,0.137
			c0.016-0.141,0.221-0.062,0.289-0.151c-1.985,0.254-4.104,0.672-6.306,1.379c-2.266,0.728-4.376,1.746-6.184,2.896
			c0.271-0.085,0.505-0.077,0.761-0.127c0.583,0.04,1.248-0.123,1.719,0.203c-0.887,0.352-1.667,0.435-2.556,0.793
			c0.33,0.081,0.696,0.253,0.875,0.604c-1.286,0.207-2.634,0.57-4.158,1.377c-0.337-0.131-0.622-0.395-0.933-0.594
			c-0.315-0.197-0.632-0.393-0.929-0.633c-0.008-0.065-0.007-0.128-0.029-0.197c1.719-1.656,3.946-3.288,6.649-4.565
			c3.372-1.592,6.581-2.665,9.502-3.075c0.486-0.107,0.926-0.133,1.396-0.201c0.226-0.018,0.49-0.054,0.713-0.06
			c0.225-0.011,0.538-0.085,0.639,0.092c0.059,0.107-0.048,0.365-0.091,0.529c-0.053,0.203-0.119,0.398-0.13,0.529
			c-0.142,0.339-0.105,0.726-0.332,1.041c-0.576,0.212-1.175,0.48-1.746,0.679c-0.034-0.167,0.135-0.42,0.273-0.452
			c-0.014,0.118-0.222,0.254-0.177,0.343c0.488-0.215,1.051-0.438,1.479-0.618c-0.121,0.012-0.309,0.013-0.405,0.077
			C55.017,48.358,55.021,48.356,55.027,48.353z M37.509,53.9c0.07,0.153,0.251,0.229,0.384,0.32c0.411,0.288,0.84,0.594,1.258,0.887
			c1.827-1.911,4.885-3.811,7.955-4.957c2.955-1.103,5.647-1.7,8.248-2.044c0.102-0.138,0.085-0.309,0.142-0.46
			c0.029-0.153,0.081-0.301,0.102-0.458c0.065-0.31,0.186-0.604,0.195-0.93c-0.427-0.044-0.91,0.06-1.376,0.12
			c-3.38,0.366-6.693,1.382-10.609,3.25c-1.96,0.933-3.56,2.01-4.999,3.134C38.418,53.152,37.833,53.49,37.509,53.9z M39.213,55.326
			c1.245-0.688,2.637-1.094,3.849-1.314c-0.327-0.258-0.707-0.381-1.124-0.416c0.944-0.449,1.869-0.561,2.818-0.91
			c-0.823-0.18-1.792,0.004-2.806,0.307c-0.555,0.347-1.084,0.732-1.559,1.121C39.926,54.494,39.456,54.867,39.213,55.326z"/>
		<path fill="#2A1D17" d="M55.949,46.915c-0.011,0.004-0.016,0.017-0.013,0.026c0.004,0.01,0.016,0.015,0.026,0.01
			c0.667-0.307,1.494-0.142,1.503-0.14c0.01,0.002,0.021-0.005,0.023-0.015c0.003-0.011-0.003-0.021-0.014-0.023
			C57.467,46.771,56.629,46.603,55.949,46.915z"/>
		<path fill="#2A1D17" d="M55.568,48.27c-0.01,0.005-0.017,0.015-0.013,0.024c0.003,0.011,0.014,0.016,0.023,0.011
			c1.377-0.513,2.387-0.13,2.396-0.126c0.01,0.003,0.021-0.001,0.025-0.011c0.004-0.01,0-0.021-0.01-0.025
			C57.981,48.141,56.959,47.752,55.568,48.27z"/>
		<path fill-rule="evenodd" clip-rule="evenodd" fill="#2A1D17" d="M75.923,51.102c-0.015,0.102-0.259,0.258-0.38,0.341
			c-0.124,0.155-0.288,0.212-0.414,0.369c-0.148,0.093-0.284,0.223-0.422,0.345c-0.146,0.058-0.285,0.316-0.427,0.262
			C74.831,51.986,75.354,51.488,75.923,51.102z"/>
		<path fill-rule="evenodd" clip-rule="evenodd" fill="#2A1D17" d="M76.1,51.213c0.031,0.006,0.023,0.027,0.045,0.037
			c-0.274,0.237-0.555,0.459-0.828,0.695c-0.146,0.106-0.274,0.251-0.424,0.347c-0.145,0.091-0.245,0.3-0.424,0.302
			C75.003,52.111,75.553,51.668,76.1,51.213z"/>
		<path fill-rule="evenodd" clip-rule="evenodd" fill="#2A1D17" d="M76.261,51.359c-0.007,0.11-0.266,0.217-0.363,0.347
			c-0.426,0.336-0.837,0.71-1.27,1.034c0.03-0.146,0.211-0.24,0.346-0.355c0.133-0.109,0.282-0.225,0.398-0.334
			c0.274-0.21,0.539-0.448,0.812-0.661c0.016-0.011,0.031-0.021,0.041-0.045C76.237,51.35,76.249,51.354,76.261,51.359z"/>
		<path fill-rule="evenodd" clip-rule="evenodd" fill="#2A1D17" d="M76.386,51.449c0.01,0.014,0.02,0.028,0.045,0.037
			c-0.562,0.442-1.095,0.956-1.669,1.369c-0.003-0.128,0.257-0.221,0.347-0.355c0.146-0.088,0.27-0.234,0.415-0.326
			c0.262-0.244,0.537-0.455,0.803-0.686C76.343,51.467,76.37,51.473,76.386,51.449z"/>
		<path fill-rule="evenodd" clip-rule="evenodd" fill="#2A1D17" d="M71.722,51.234c0.077,0.059,0.02,0.295,0.011,0.436
			C71.683,51.545,71.752,51.368,71.722,51.234z"/>
		<path fill-rule="evenodd" clip-rule="evenodd" fill="#2A1D17" d="M71.567,51.213c0.071,0.052,0.005,0.281,0.001,0.41
			C71.51,51.512,71.597,51.338,71.567,51.213z"/>
		<path fill-rule="evenodd" clip-rule="evenodd" fill="#2A1D17" d="M58.396,46.011c0.031,0.005,0.023,0.027,0.045,0.038
			c0.068,0.303,0.152,0.6,0.211,0.905c0.035,0.151,0.082,0.297,0.104,0.453c0.021,0.139,0.128,0.314,0.071,0.439
			C58.646,47.259,58.484,46.589,58.396,46.011z"/>
		<path fill-rule="evenodd" clip-rule="evenodd" fill="#2A1D17" d="M72.792,51.742c0.044,0.266,0.004,0.565-0.015,0.855
			C72.747,52.326,72.786,52.029,72.792,51.742z"/>
		<path fill-rule="evenodd" clip-rule="evenodd" fill="#2A1D17" d="M71.237,51.165c0.068,0.038,0.039,0.239,0.025,0.358
			C71.23,51.414,71.26,51.279,71.237,51.165z"/>
		<path fill-rule="evenodd" clip-rule="evenodd" fill="#2A1D17" d="M72.917,51.833c0.079,0.245,0.016,0.551,0.068,0.807
			c-0.104-0.054-0.074-0.245-0.077-0.378C72.905,52.111,72.924,51.959,72.917,51.833z"/>
		<path fill-rule="evenodd" clip-rule="evenodd" fill="#2A1D17" d="M73.029,51.898c0.129,0.217,0.047,0.52,0.061,0.784
			C73.004,52.447,73.038,52.164,73.029,51.898z"/>
		<path fill-rule="evenodd" clip-rule="evenodd" fill="#2A1D17" d="M58.173,46.005c0.19,0.596,0.312,1.223,0.423,1.852
			c-0.171-0.275-0.14-0.632-0.262-0.926c-0.014-0.165-0.064-0.314-0.098-0.47C58.233,46.309,58.123,46.13,58.173,46.005z"/>
		<path fill-rule="evenodd" clip-rule="evenodd" fill="#2A1D17" d="M71.075,51.162c0.062,0.025,0.031,0.213,0.022,0.316
			C71.053,51.389,71.1,51.261,71.075,51.162z"/>
		<path fill-rule="evenodd" clip-rule="evenodd" fill="#2A1D17" d="M73.154,51.989c0.045,0.01,0.024,0.047,0.08,0.052
			c-0.017,0.234,0.02,0.445,0.003,0.679c-0.138-0.06-0.021-0.228-0.083-0.319c0.024-0.128-0.013-0.232-0.006-0.352
			C73.145,52.031,73.143,52.014,73.154,51.989z"/>
		<path fill-rule="evenodd" clip-rule="evenodd" fill="#2A1D17" d="M70.911,51.158c0.084-0.001,0.01,0.185,0.029,0.258
			C70.85,51.42,70.959,51.219,70.911,51.158z"/>
		<path fill-rule="evenodd" clip-rule="evenodd" fill="#2A1D17" d="M73.278,52.08c0.013,0.004,0.023,0.009,0.035,0.013
			c0.056,0.19,0.042,0.485,0.036,0.651C73.222,52.566,73.31,52.299,73.278,52.08z"/>
		<path fill-rule="evenodd" clip-rule="evenodd" fill="#2A1D17" d="M57.984,46.011c0.175,0.571,0.326,1.226,0.412,1.786
			c-0.138-0.26-0.146-0.573-0.234-0.854c-0.07-0.287-0.116-0.583-0.209-0.863C57.977,46.034,57.939,46.034,57.984,46.011z"/>
		<path fill-rule="evenodd" clip-rule="evenodd" fill="#2A1D17" d="M73.392,52.146c0.184,0.15,0.092,0.416,0.105,0.637
			C73.32,52.629,73.447,52.351,73.392,52.146z"/>
		<path fill-rule="evenodd" clip-rule="evenodd" fill="#2A1D17" d="M73.603,52.229c0.039,0.179,0.052,0.367,0.033,0.568
			c-0.164-0.102-0.032-0.367-0.1-0.512C73.545,52.232,73.587,52.264,73.603,52.229z"/>
		<path fill-rule="evenodd" clip-rule="evenodd" fill="#2A1D17" d="M73.675,52.3c0.037-0.042,0.043,0.045,0.105,0.04
			c-0.007,0.174,0,0.34-0.006,0.513C73.612,52.721,73.737,52.471,73.675,52.3z"/>
		<path fill-rule="evenodd" clip-rule="evenodd" fill="#2A1D17" d="M57.813,46.025c0.18,0.574,0.327,1.235,0.403,1.803
			C58.035,47.256,57.891,46.594,57.813,46.025z"/>
		<path fill-rule="evenodd" clip-rule="evenodd" fill="#2A1D17" d="M73.832,52.402c0.014,0.005,0.024,0.01,0.036,0.015
			c0.103,0.128,0.023,0.33,0.072,0.48c-0.02,0.037-0.078-0.022-0.112-0.024C73.851,52.708,73.822,52.564,73.832,52.402z"/>
		<path fill-rule="evenodd" clip-rule="evenodd" fill="#2A1D17" d="M70.576,51.127c0.038,0.069,0.024,0.16,0.011,0.25
			C70.544,51.311,70.573,51.213,70.576,51.127z"/>
		<path fill-rule="evenodd" clip-rule="evenodd" fill="#2A1D17" d="M73.975,52.502c0.051,0.03,0.084,0.068,0.117,0.105
			c-0.024,0.125-0.005,0.229,0.014,0.335c-0.033,0.017-0.075,0.01-0.121-0.006C73.982,52.791,73.972,52.648,73.975,52.502z"/>
		<path fill-rule="evenodd" clip-rule="evenodd" fill="#2A1D17" d="M74.144,52.629c0.163,0.184,0.376,0.347,0.545,0.525
			c-0.179-0.027-0.315-0.087-0.539-0.174C74.159,52.859,74.135,52.751,74.144,52.629z"/>
		<path fill-rule="evenodd" clip-rule="evenodd" fill="#2A1D17" d="M70.215,51.107c0.046,0.055,0.011,0.146,0.001,0.225
			C70.171,51.275,70.21,51.184,70.215,51.107z"/>
		<path fill-rule="evenodd" clip-rule="evenodd" fill="#2A1D17" d="M69.89,51.141c0.03,0.045,0.031,0.1,0.008,0.167
			C69.89,51.254,69.86,51.209,69.89,51.141z"/>
		<path fill-rule="evenodd" clip-rule="evenodd" fill="#2A1D17" d="M69.744,51.145c0.039,0.041,0.014,0.107,0.007,0.167
			C69.721,51.268,69.719,51.212,69.744,51.145z"/>
		<path fill-rule="evenodd" clip-rule="evenodd" fill="#2A1D17" d="M69.591,51.164c0.029,0.031,0.029,0.074,0.004,0.127
			C69.566,51.26,69.565,51.219,69.591,51.164z"/>
		<path fill-rule="evenodd" clip-rule="evenodd" fill="#2A1D17" d="M71.67,51.994c0.039,0.112,0.036,0.312,0,0.41
			C71.651,52.275,71.658,52.135,71.67,51.994z"/>
		<path fill-rule="evenodd" clip-rule="evenodd" fill="#2A1D17" d="M71.533,52.021c0.008,0.119,0.027,0.233-0.001,0.368
			C71.521,52.271,71.488,52.163,71.533,52.021z"/>
		<path fill-rule="evenodd" clip-rule="evenodd" fill="#2A1D17" d="M71.221,52.164c0.023,0.062,0.008,0.139,0.01,0.209
			C71.159,52.331,71.211,52.238,71.221,52.164z"/>
		<path fill-rule="evenodd" clip-rule="evenodd" fill="#2A1D17" d="M59.262,48.162c0.027,0.067,0.084,0.187,0.037,0.24
			C59.24,48.346,59.189,48.226,59.262,48.162z"/>
		<path fill-rule="evenodd" clip-rule="evenodd" fill="#2A1D17" d="M59.141,48.155c0.061,0.046,0.092,0.164,0.053,0.206
			C59.135,48.313,59.104,48.196,59.141,48.155z"/>
		<path fill-rule="evenodd" clip-rule="evenodd" fill="#2A1D17" d="M59.021,48.148c0.087,0.034,0.092,0.163,0.052,0.205
			C59.006,48.305,59.015,48.226,59.021,48.148z"/>
		<path fill-rule="evenodd" clip-rule="evenodd" fill="#2A1D17" d="M58.926,48.13c0.072,0.045,0.045,0.133,0.053,0.206
			C58.89,48.297,58.916,48.211,58.926,48.13z"/>
		<path fill-rule="evenodd" clip-rule="evenodd" fill="#2A1D17" d="M59.397,48.318c0.032,0.035,0.055,0.116-0.002,0.143
			C59.362,48.428,59.34,48.347,59.397,48.318z"/>
		<path fill-rule="evenodd" clip-rule="evenodd" fill="#2A1D17" d="M58.823,48.131c0.04,0.035,0.048,0.084,0.04,0.139
			C58.793,48.248,58.763,48.162,58.823,48.131z"/>
		<path fill-rule="evenodd" clip-rule="evenodd" fill="#2A1D17" d="M72.344,51.502c0.08,0.03,0.014,0.135,0.009,0.209
			c-0.015,0.21-0.041,0.51-0.037,0.725c-0.019,0.012-0.036,0.023-0.017,0.035C72.241,52.234,72.354,51.805,72.344,51.502z"/>
		<path fill-rule="evenodd" clip-rule="evenodd" fill="#2A1D17" d="M72.527,51.598c0.014,0.301-0.019,0.62-0.053,0.941
			C72.46,52.238,72.492,51.918,72.527,51.598z"/>
		<path fill-rule="evenodd" clip-rule="evenodd" fill="#2A1D17" d="M71.411,51.193c0.084,0.031-0.022,0.264,0.024,0.357
			C71.361,51.516,71.426,51.301,71.411,51.193z"/>
		<path fill-rule="evenodd" clip-rule="evenodd" fill="#2A1D17" d="M72.659,51.669c0.026,0.272-0.033,0.581-0.015,0.856
			c-0.074,0.005-0.031-0.122-0.031-0.157C72.614,52.16,72.633,51.889,72.659,51.669z"/>
		<path fill-rule="evenodd" clip-rule="evenodd" fill="#2A1D17" d="M70.766,51.119c0.019,0.084,0,0.18-0.022,0.278
			C70.729,51.313,70.741,51.219,70.766,51.119z"/>
		<path fill-rule="evenodd" clip-rule="evenodd" fill="#2A1D17" d="M70.396,51.117c0.06,0.045-0.008,0.145,0.009,0.208
			C70.38,51.32,70.372,51.188,70.396,51.117z"/>
		<path fill-rule="evenodd" clip-rule="evenodd" fill="#2A1D17" d="M70.044,51.12c0.042,0.048,0.002,0.131,0.017,0.191
			C70.001,51.271,70.048,51.185,70.044,51.12z"/>
		<path fill-rule="evenodd" clip-rule="evenodd" fill="#2A1D17" d="M71.363,52.078c0.043,0.074,0.007,0.247-0.013,0.303
			C71.324,52.318,71.353,52.191,71.363,52.078z"/>
		<path fill-rule="evenodd" clip-rule="evenodd" fill="#2A1D17" d="M38.128,53.424c0.014,0.094,0.247,0.211,0.361,0.273
			c0.117,0.133,0.275,0.165,0.392,0.298c0.144,0.069,0.271,0.174,0.401,0.272c0.141,0.035,0.271,0.263,0.408,0.193
			C39.167,54.122,38.669,53.717,38.128,53.424z"/>
		<path fill-rule="evenodd" clip-rule="evenodd" fill="#2A1D17" d="M37.958,53.552c-0.029,0.009-0.023,0.029-0.044,0.041
			c0.26,0.188,0.527,0.364,0.788,0.554c0.138,0.082,0.259,0.201,0.401,0.272c0.139,0.068,0.231,0.253,0.403,0.233
			C39,54.263,38.476,53.912,37.958,53.552z"/>
		<path fill-rule="evenodd" clip-rule="evenodd" fill="#2A1D17" d="M37.801,53.711c0.004,0.104,0.251,0.172,0.342,0.283
			c0.406,0.262,0.796,0.565,1.206,0.816c-0.025-0.135-0.197-0.201-0.327-0.293c-0.125-0.087-0.267-0.176-0.377-0.265
			c-0.261-0.165-0.512-0.356-0.772-0.522c-0.014-0.008-0.029-0.017-0.039-0.039C37.822,53.699,37.812,53.704,37.801,53.711z"/>
		<path fill-rule="evenodd" clip-rule="evenodd" fill="#2A1D17" d="M37.679,53.812c-0.01,0.016-0.02,0.029-0.043,0.041
			c0.533,0.347,1.038,0.766,1.583,1.084c0.005-0.122-0.242-0.176-0.326-0.293c-0.141-0.066-0.257-0.188-0.396-0.257
			c-0.249-0.196-0.511-0.361-0.763-0.547C37.719,53.823,37.694,53.833,37.679,53.812z"/>
		<path fill-rule="evenodd" clip-rule="evenodd" fill="#2A1D17" d="M42.171,53.012c-0.074,0.064-0.023,0.282-0.017,0.414
			C42.205,53.3,42.14,53.143,42.171,53.012z"/>
		<path fill-rule="evenodd" clip-rule="evenodd" fill="#2A1D17" d="M42.322,52.973c-0.071,0.058-0.009,0.267-0.007,0.39
			C42.372,53.247,42.291,53.096,42.322,52.973z"/>
		<path fill-rule="evenodd" clip-rule="evenodd" fill="#2A1D17" d="M55.08,46.359c-0.029,0.01-0.021,0.03-0.043,0.042
			c-0.069,0.295-0.155,0.586-0.217,0.883c-0.036,0.147-0.084,0.292-0.108,0.442c-0.021,0.134-0.128,0.313-0.073,0.424
			C54.82,47.573,54.986,46.917,55.08,46.359z"/>
		<path fill-rule="evenodd" clip-rule="evenodd" fill="#2A1D17" d="M41.134,53.631c-0.047,0.256-0.014,0.535,0.001,0.809
			C41.167,54.179,41.135,53.9,41.134,53.631z"/>
		<path fill-rule="evenodd" clip-rule="evenodd" fill="#2A1D17" d="M42.638,52.884c-0.066,0.046-0.041,0.232-0.029,0.344
			C42.643,53.119,42.616,52.996,42.638,52.884z"/>
		<path fill-rule="evenodd" clip-rule="evenodd" fill="#2A1D17" d="M41.013,53.73c-0.08,0.244-0.024,0.524-0.079,0.775
			c0.102-0.065,0.074-0.243,0.079-0.369C41.02,53.994,41.004,53.852,41.013,53.73z"/>
		<path fill-rule="evenodd" clip-rule="evenodd" fill="#2A1D17" d="M40.901,53.809c-0.127,0.221-0.053,0.498-0.069,0.75
			C40.918,54.325,40.889,54.062,40.901,53.809z"/>
		<path fill-rule="evenodd" clip-rule="evenodd" fill="#2A1D17" d="M55.296,46.324c-0.192,0.589-0.317,1.198-0.437,1.808
			c0.17-0.281,0.146-0.617,0.269-0.911c0.014-0.157,0.065-0.305,0.101-0.458C55.235,46.62,55.342,46.438,55.296,46.324z"/>
		<path fill-rule="evenodd" clip-rule="evenodd" fill="#2A1D17" d="M42.794,52.859c-0.061,0.033-0.032,0.207-0.026,0.303
			C42.813,53.072,42.771,52.956,42.794,52.859z"/>
		<path fill-rule="evenodd" clip-rule="evenodd" fill="#2A1D17" d="M40.782,53.909c-0.044,0.016-0.025,0.048-0.079,0.062
			c0.011,0.219-0.024,0.424-0.014,0.643c0.135-0.075,0.022-0.219,0.085-0.314c-0.021-0.117,0.015-0.221,0.011-0.334
			C40.79,53.947,40.792,53.932,40.782,53.909z"/>
		<path fill-rule="evenodd" clip-rule="evenodd" fill="#2A1D17" d="M42.953,52.836c-0.08,0.01-0.012,0.177-0.032,0.248
			C43.009,53.075,42.906,52.9,42.953,52.836z"/>
		<path fill-rule="evenodd" clip-rule="evenodd" fill="#2A1D17" d="M40.66,54.012c-0.012,0.006-0.021,0.012-0.034,0.018
			c-0.056,0.188-0.047,0.464-0.045,0.621C40.708,54.465,40.626,54.223,40.66,54.012z"/>
		<path fill-rule="evenodd" clip-rule="evenodd" fill="#2A1D17" d="M55.477,46.307c-0.176,0.562-0.332,1.202-0.424,1.744
			c0.138-0.264,0.152-0.561,0.239-0.837c0.073-0.282,0.123-0.569,0.215-0.845C55.484,46.328,55.52,46.322,55.477,46.307z"/>
		<path fill-rule="evenodd" clip-rule="evenodd" fill="#2A1D17" d="M40.549,54.09c-0.177,0.166-0.093,0.404-0.111,0.616
			C40.612,54.537,40.493,54.289,40.549,54.09z"/>
		<path fill-rule="evenodd" clip-rule="evenodd" fill="#2A1D17" d="M40.345,54.195c-0.04,0.173-0.056,0.354-0.041,0.541
			c0.161-0.117,0.037-0.35,0.104-0.497C40.4,54.19,40.36,54.227,40.345,54.195z"/>
		<path fill-rule="evenodd" clip-rule="evenodd" fill="#2A1D17" d="M40.276,54.271c-0.036-0.034-0.042,0.049-0.102,0.053
			c0.003,0.162-0.006,0.321-0.004,0.483C40.328,54.662,40.211,54.441,40.276,54.271z"/>
		<path fill-rule="evenodd" clip-rule="evenodd" fill="#2A1D17" d="M55.642,46.298c-0.181,0.566-0.333,1.211-0.416,1.76
			C55.41,47.492,55.559,46.845,55.642,46.298z"/>
		<path fill-rule="evenodd" clip-rule="evenodd" fill="#2A1D17" d="M40.121,54.389c-0.012,0.008-0.022,0.013-0.034,0.019
			c-0.101,0.134-0.028,0.316-0.077,0.465c0.019,0.032,0.076-0.031,0.109-0.038C40.099,54.68,40.129,54.54,40.121,54.389z"/>
		<path fill-rule="evenodd" clip-rule="evenodd" fill="#2A1D17" d="M43.276,52.764c-0.039,0.07-0.025,0.154-0.015,0.238
			C43.304,52.934,43.277,52.845,43.276,52.764z"/>
		<path fill-rule="evenodd" clip-rule="evenodd" fill="#2A1D17" d="M39.983,54.501c-0.05,0.034-0.082,0.075-0.114,0.116
			c0.02,0.112,0.001,0.215-0.019,0.318c0.031,0.01,0.072-0.002,0.115-0.021C39.97,54.776,39.982,54.64,39.983,54.501z"/>
		<path fill-rule="evenodd" clip-rule="evenodd" fill="#2A1D17" d="M39.818,54.644c-0.159,0.194-0.366,0.374-0.533,0.567
			c0.172-0.05,0.307-0.124,0.522-0.234C39.8,54.863,39.826,54.758,39.818,54.644z"/>
		<path fill-rule="evenodd" clip-rule="evenodd" fill="#2A1D17" d="M43.625,52.697c-0.047,0.06-0.014,0.141-0.004,0.215
			C43.664,52.854,43.627,52.77,43.625,52.697z"/>
		<path fill-rule="evenodd" clip-rule="evenodd" fill="#2A1D17" d="M43.938,52.689c-0.03,0.045-0.033,0.099-0.01,0.158
			C43.934,52.796,43.964,52.751,43.938,52.689z"/>
		<path fill-rule="evenodd" clip-rule="evenodd" fill="#2A1D17" d="M44.076,52.674c-0.037,0.043-0.014,0.104-0.008,0.159
			C44.097,52.787,44.101,52.734,44.076,52.674z"/>
		<path fill-rule="evenodd" clip-rule="evenodd" fill="#2A1D17" d="M44.225,52.674c-0.029,0.033-0.029,0.072-0.006,0.119
			C44.246,52.761,44.248,52.722,44.225,52.674z"/>
		<path fill-rule="evenodd" clip-rule="evenodd" fill="#2A1D17" d="M42.21,53.724c-0.039,0.112-0.04,0.302-0.006,0.39
			C42.225,53.988,42.219,53.855,42.21,53.724z"/>
		<path fill-rule="evenodd" clip-rule="evenodd" fill="#2A1D17" d="M42.341,53.733c-0.009,0.114-0.031,0.225-0.005,0.349
			C42.349,53.969,42.382,53.861,42.341,53.733z"/>
		<path fill-rule="evenodd" clip-rule="evenodd" fill="#2A1D17" d="M42.639,53.829c-0.022,0.062-0.01,0.132-0.013,0.198
			C42.697,53.979,42.646,53.898,42.639,53.829z"/>
		<path fill-rule="evenodd" clip-rule="evenodd" fill="#2A1D17" d="M54.214,48.507c-0.028,0.068-0.083,0.188-0.038,0.232
			C54.232,48.679,54.283,48.557,54.214,48.507z"/>
		<path fill-rule="evenodd" clip-rule="evenodd" fill="#2A1D17" d="M54.33,48.485c-0.059,0.05-0.089,0.167-0.053,0.2
			C54.336,48.634,54.367,48.519,54.33,48.485z"/>
		<path fill-rule="evenodd" clip-rule="evenodd" fill="#2A1D17" d="M54.445,48.463c-0.084,0.043-0.09,0.166-0.052,0.201
			C54.459,48.61,54.45,48.537,54.445,48.463z"/>
		<path fill-rule="evenodd" clip-rule="evenodd" fill="#2A1D17" d="M54.538,48.434c-0.071,0.053-0.046,0.131-0.052,0.202
			C54.57,48.586,54.546,48.509,54.538,48.434z"/>
		<path fill-rule="evenodd" clip-rule="evenodd" fill="#2A1D17" d="M54.082,48.673c-0.031,0.037-0.056,0.116-0.001,0.136
			C54.112,48.77,54.137,48.691,54.082,48.673z"/>
		<path fill-rule="evenodd" clip-rule="evenodd" fill="#2A1D17" d="M54.638,48.421c-0.04,0.039-0.049,0.085-0.041,0.137
			C54.664,48.528,54.694,48.444,54.638,48.421z"/>
		<path fill-rule="evenodd" clip-rule="evenodd" fill="#2A1D17" d="M41.568,53.345c-0.077,0.038-0.016,0.13-0.011,0.199
			c0.01,0.196,0.031,0.477,0.025,0.681c0.017,0.009,0.033,0.018,0.015,0.031C41.656,54.024,41.554,53.633,41.568,53.345z"/>
		<path fill-rule="evenodd" clip-rule="evenodd" fill="#2A1D17" d="M41.391,53.458c-0.019,0.288,0.009,0.587,0.036,0.886
			C41.445,54.057,41.419,53.759,41.391,53.458z"/>
		<path fill-rule="evenodd" clip-rule="evenodd" fill="#2A1D17" d="M42.47,52.934c-0.08,0.041,0.019,0.246-0.028,0.342
			C42.515,53.232,42.456,53.037,42.47,52.934z"/>
		<path fill-rule="evenodd" clip-rule="evenodd" fill="#2A1D17" d="M41.261,53.544c-0.028,0.262,0.023,0.545,0.001,0.81
			c0.071-0.006,0.033-0.121,0.034-0.154C41.298,54.004,41.284,53.748,41.261,53.544z"/>
		<path fill-rule="evenodd" clip-rule="evenodd" fill="#2A1D17" d="M43.095,52.781c-0.021,0.079-0.003,0.17,0.018,0.261
			C43.125,52.961,43.115,52.872,43.095,52.781z"/>
		<path fill-rule="evenodd" clip-rule="evenodd" fill="#2A1D17" d="M43.45,52.73c-0.06,0.051,0.004,0.137-0.011,0.199
			C43.462,52.922,43.471,52.795,43.45,52.73z"/>
		<path fill-rule="evenodd" clip-rule="evenodd" fill="#2A1D17" d="M43.789,52.689c-0.041,0.051-0.006,0.124-0.019,0.183
			C43.828,52.826,43.783,52.75,43.789,52.689z"/>
		<path fill-rule="evenodd" clip-rule="evenodd" fill="#2A1D17" d="M42.503,53.764c-0.042,0.077-0.011,0.236,0.007,0.285
			C42.537,53.989,42.512,53.871,42.503,53.764z"/>
		<path fill="#2A1D17" d="M44.644,71.095c0.05-0.421-0.02-0.604-0.169-0.681c-0.174-0.088-0.437,0.025-0.771,0.627
			c-0.262,0.473-0.209,0.703-0.05,0.786c0.181,0.093,0.327-0.023,0.447-0.239c0.101-0.18,0.139-0.334,0.069-0.468l0.454,0.231
			c-0.055,0.027-0.11,0.089-0.154,0.166l-0.474,0.854c-0.01-0.102-0.036-0.141-0.079-0.161c-0.072-0.037-0.225,0.018-0.46-0.102
			c-0.402-0.205-0.287-0.759-0.033-1.217c0.285-0.512,0.738-1.017,1.209-0.776c0.169,0.088,0.187,0.182,0.272,0.225
			c0.047,0.025,0.099,0.019,0.159-0.003L44.644,71.095z"/>
		<path fill="#2A1D17" d="M45.234,70.846c0.066-0.136,0.092-0.253,0.048-0.373c0.054,0.041,0.105,0.067,0.187,0.104
			c0.066,0.027,0.33,0.121,0.44,0.167c0.394,0.171,0.363,0.499,0.25,0.733c-0.123,0.256-0.28,0.383-0.487,0.375
			c0.088,0.132,0.128,0.241-0.065,0.714c-0.075,0.181-0.104,0.313-0.066,0.444l-0.277-0.119c-0.088-0.038-0.066-0.126,0.074-0.465
			c0.151-0.373,0.133-0.477-0.104-0.58l-0.119-0.051l-0.255,0.529c-0.071,0.146-0.074,0.271-0.035,0.378l-0.498-0.214
			c0.109-0.055,0.167-0.103,0.238-0.252L45.234,70.846z M45.255,71.506l0.087,0.038c0.252,0.11,0.405,0.089,0.511-0.13
			c0.094-0.195,0.058-0.321-0.145-0.41c-0.135-0.057-0.203-0.018-0.235,0.049L45.255,71.506z"/>
		<path fill="#2A1D17" d="M45.631,73.047c0.128-0.093,0.282-0.297,0.385-0.443l0.896-1.217c0.027-0.041,0.057-0.09,0.071-0.123
			c0.011-0.025,0.015-0.049,0.006-0.07l0.401,0.143c-0.017,0.012-0.027,0.025-0.035,0.045c-0.012,0.031-0.036,0.137-0.05,0.226
			l-0.228,1.375c-0.027,0.172-0.058,0.42-0.031,0.569l-0.474-0.169c0.07-0.06,0.12-0.137,0.153-0.22
			c0.022-0.053,0.046-0.131,0.046-0.178l-0.545-0.195c-0.039,0.039-0.079,0.104-0.111,0.178c-0.036,0.088-0.045,0.186-0.026,0.243
			L45.631,73.047z M46.826,72.665l0.167-0.95l-0.004-0.002l-0.567,0.809L46.826,72.665z"/>
		<path fill="#2A1D17" d="M47.926,71.843c0.038-0.112,0.029-0.232-0.017-0.325l0.527,0.147c-0.012,0.024-0.025,0.046-0.034,0.073
			c-0.012,0.032-0.018,0.081-0.016,0.134l0.015,1.291l0.004,0.002l0.296-0.875c0.09-0.265,0.103-0.393,0.019-0.545l0.547,0.153
			c-0.094,0.052-0.176,0.148-0.214,0.26l-0.556,1.641c-0.023,0.072-0.03,0.119-0.016,0.157l-0.39-0.109
			c0.012-0.013,0.021-0.026,0.029-0.051s0.007-0.081,0.006-0.136l-0.017-1.44l-0.004-0.002l-0.335,0.989
			c-0.088,0.266-0.103,0.393-0.017,0.545L47.205,73.6c0.095-0.053,0.176-0.148,0.215-0.261L47.926,71.843z"/>
		<path fill="#2A1D17" d="M49.428,72.281c0.04-0.143,0.041-0.262-0.026-0.37c0.063,0.03,0.147,0.05,0.259,0.073
			c0.143,0.029,0.275,0.037,0.391,0.061c0.46,0.096,0.617,0.539,0.453,1.16c-0.181,0.672-0.492,1.102-1.078,0.981
			c-0.117-0.025-0.247-0.071-0.371-0.096c-0.112-0.022-0.17-0.022-0.229-0.028c0.086-0.057,0.172-0.18,0.22-0.354L49.428,72.281z
			 M49.39,73.613c-0.047,0.176-0.019,0.239,0.135,0.271c0.321,0.065,0.532-0.197,0.668-0.705c0.125-0.468,0.078-0.766-0.216-0.827
			c-0.178-0.037-0.251,0-0.292,0.153L49.39,73.613z"/>
		<path fill="#2A1D17" d="M50.669,73.59c0.095,0.366,0.213,0.547,0.431,0.578c0.197,0.026,0.312-0.102,0.344-0.26
			c0.031-0.148-0.009-0.249-0.127-0.346l-0.281-0.223c-0.157-0.127-0.218-0.332-0.175-0.539c0.072-0.357,0.355-0.572,0.671-0.529
			c0.154,0.021,0.195,0.076,0.294,0.09c0.063,0.008,0.105,0.002,0.176-0.045l-0.147,0.728c-0.049-0.257-0.195-0.417-0.368-0.442
			c-0.141-0.02-0.265,0.039-0.298,0.203c-0.023,0.115,0.016,0.197,0.161,0.304l0.202,0.145c0.176,0.126,0.274,0.323,0.208,0.651
			c-0.081,0.402-0.369,0.642-0.7,0.595c-0.159-0.022-0.297-0.117-0.376-0.13c-0.049-0.006-0.11,0.021-0.187,0.073L50.669,73.59z"/>
		<path fill="#2A1D17" d="M53.596,72.465c0.141,0.009,0.244,0.089,0.318,0.094c0.058,0.002,0.101-0.024,0.148-0.068l-0.104,0.894
			c-0.001,0.004-0.001,0.007-0.003,0.007s-0.002-0.004-0.004-0.008c-0.086-0.367-0.198-0.558-0.367-0.567
			c-0.18-0.009-0.383,0.144-0.457,0.775c-0.062,0.536,0.099,0.71,0.306,0.722c0.207,0.01,0.387-0.152,0.524-0.387l0.006,0.004
			c-0.061,0.498-0.272,0.803-0.651,0.783c-0.3-0.016-0.594-0.295-0.493-1.147C52.908,72.81,53.235,72.447,53.596,72.465z"/>
		<path fill="#2A1D17" d="M54.375,72.878c0.009-0.146-0.013-0.261-0.101-0.352c0.068,0.015,0.126,0.019,0.216,0.019
			c0.074-0.001,0.361-0.021,0.482-0.021c0.439-0.003,0.539,0.302,0.523,0.558c-0.018,0.278-0.117,0.453-0.318,0.526
			c0.137,0.083,0.219,0.166,0.219,0.666c0,0.189,0.023,0.321,0.109,0.423l-0.309,0.002c-0.098,0-0.11-0.088-0.11-0.446
			c-0.002-0.392-0.059-0.479-0.322-0.478h-0.134l-0.035,0.573c-0.011,0.16,0.036,0.271,0.113,0.351l-0.554,0.004
			c0.082-0.09,0.117-0.156,0.128-0.319L54.375,72.878z M54.649,73.465l0.099-0.002c0.282-0.001,0.419-0.08,0.434-0.316
			c0.013-0.212-0.069-0.312-0.298-0.311c-0.15,0-0.199,0.063-0.203,0.135L54.649,73.465z"/>
		<path fill="#2A1D17" d="M55.841,72.832c0-0.117-0.047-0.225-0.121-0.295l0.532-0.033c-0.073,0.111-0.101,0.174-0.1,0.301
			l-0.003,1.174c-0.001,0.299,0.09,0.396,0.278,0.384c0.161-0.01,0.311-0.122,0.312-0.421l0.003-1.174
			c0-0.127-0.026-0.188-0.098-0.289l0.532-0.033c-0.074,0.08-0.123,0.195-0.123,0.311l-0.004,0.995
			c-0.002,0.598-0.169,0.913-0.642,0.942c-0.34,0.021-0.571-0.18-0.572-0.609L55.841,72.832z"/>
		<path fill="#2A1D17" d="M57.417,73.781c0.187,0.324,0.348,0.468,0.57,0.441c0.199-0.021,0.282-0.177,0.272-0.334
			c-0.007-0.148-0.071-0.234-0.211-0.297l-0.333-0.141c-0.188-0.081-0.297-0.261-0.308-0.469c-0.021-0.359,0.205-0.636,0.525-0.672
			c0.158-0.019,0.213,0.021,0.313,0.01c0.063-0.009,0.104-0.025,0.161-0.088l0.039,0.73c-0.113-0.232-0.298-0.349-0.476-0.327
			c-0.144,0.017-0.249,0.104-0.241,0.269c0.006,0.114,0.064,0.182,0.234,0.246l0.236,0.088c0.203,0.076,0.352,0.24,0.368,0.566
			c0.021,0.402-0.202,0.703-0.54,0.743c-0.162,0.019-0.322-0.038-0.403-0.026c-0.05,0.004-0.104,0.045-0.164,0.114L57.417,73.781z"
			/>
		<path fill="#2A1D17" d="M59.572,72.453c-0.018-0.143-0.061-0.251-0.164-0.322c0.07,0.002,0.128-0.006,0.217-0.021
			c0.074-0.016,0.356-0.088,0.478-0.111c0.297-0.057,0.535,0.117,0.587,0.524c0.031,0.244,0.007,0.558-0.394,0.724
			c-0.261,0.109-0.286,0.156-0.266,0.32l0.034,0.273c0.02,0.156,0.085,0.256,0.179,0.32l-0.551,0.105
			c0.064-0.104,0.086-0.174,0.067-0.334L59.572,72.453z M59.973,73.117l0.005-0.001c0.021-0.058,0.07-0.102,0.197-0.167
			c0.178-0.09,0.237-0.223,0.216-0.401c-0.017-0.129-0.103-0.29-0.302-0.253c-0.13,0.025-0.207,0.1-0.182,0.295L59.973,73.117z"/>
		<path fill="#2A1D17" d="M60.926,72.187c-0.025-0.143-0.072-0.248-0.181-0.314c0.072-0.001,0.129-0.011,0.219-0.032
			c0.072-0.02,0.351-0.104,0.471-0.132c0.436-0.104,0.604,0.165,0.647,0.413c0.047,0.27-0.012,0.461-0.192,0.575
			c0.153,0.05,0.252,0.111,0.368,0.589c0.044,0.182,0.099,0.301,0.207,0.381l-0.305,0.071c-0.096,0.024-0.131-0.057-0.213-0.399
			c-0.093-0.377-0.169-0.445-0.429-0.384l-0.132,0.031l0.098,0.558c0.027,0.154,0.099,0.25,0.194,0.311l-0.546,0.131
			c0.059-0.106,0.078-0.178,0.051-0.334L60.926,72.187z M61.334,72.682l0.096-0.022c0.279-0.065,0.396-0.173,0.354-0.404
			c-0.035-0.206-0.14-0.282-0.364-0.228c-0.148,0.035-0.184,0.106-0.17,0.177L61.334,72.682z"/>
		<path fill="#2A1D17" d="M62.398,71.791c-0.025-0.111-0.096-0.203-0.185-0.256l1.058-0.306c0.067-0.019,0.102-0.044,0.144-0.089
			l0.157,0.694c-0.191-0.225-0.351-0.272-0.615-0.194c-0.185,0.053-0.237,0.134-0.201,0.303l0.067,0.293
			c0.049-0.008,0.109-0.022,0.163-0.037c0.174-0.051,0.293-0.115,0.342-0.293l0.15,0.66c-0.119-0.128-0.252-0.119-0.426-0.067
			c-0.053,0.015-0.113,0.034-0.158,0.056l0.091,0.396c0.038,0.17,0.108,0.218,0.335,0.152c0.269-0.078,0.409-0.246,0.459-0.595
			l0.181,0.799c-0.055-0.032-0.114-0.038-0.235-0.003l-1.042,0.302c0.056-0.093,0.078-0.214,0.054-0.325L62.398,71.791z"/>
		<path fill="#2A1D17" d="M64.031,72.398c0.253,0.274,0.442,0.379,0.657,0.306c0.194-0.065,0.243-0.229,0.2-0.38
			c-0.038-0.143-0.119-0.21-0.272-0.24l-0.358-0.066c-0.203-0.039-0.351-0.188-0.404-0.387c-0.095-0.342,0.07-0.655,0.381-0.758
			c0.152-0.053,0.216-0.025,0.312-0.058c0.062-0.021,0.098-0.046,0.141-0.119l0.191,0.697c-0.16-0.202-0.366-0.272-0.538-0.216
			c-0.139,0.047-0.226,0.152-0.183,0.309c0.028,0.109,0.103,0.164,0.284,0.189l0.252,0.033c0.219,0.031,0.398,0.158,0.484,0.47
			c0.106,0.384-0.053,0.72-0.378,0.83c-0.158,0.053-0.328,0.032-0.406,0.058c-0.049,0.017-0.093,0.067-0.139,0.146L64.031,72.398z"
			/>
		<path fill="#2A1D17" d="M65.543,70.983c-0.039-0.123-0.086-0.172-0.189-0.133c-0.165,0.062-0.212,0.303-0.172,0.597l-0.004,0.001
			l-0.261-0.808c0.036,0.01,0.088,0.016,0.136-0.002l0.974-0.369c0.049-0.02,0.085-0.06,0.108-0.092l0.259,0.809l-0.005,0.001
			c-0.137-0.257-0.312-0.413-0.477-0.349c-0.104,0.037-0.111,0.109-0.072,0.231l0.403,1.257c0.035,0.107,0.114,0.193,0.207,0.236
			l-0.531,0.202c0.05-0.097,0.062-0.219,0.027-0.326L65.543,70.983z"/>
		<path fill="#2A1D17" d="M66.55,70.371c-0.039-0.104-0.12-0.189-0.215-0.229l0.524-0.218c-0.046,0.098-0.055,0.22-0.017,0.326
			l0.513,1.428c0.039,0.105,0.121,0.19,0.216,0.229l-0.523,0.22c0.045-0.098,0.054-0.22,0.015-0.325L66.55,70.371z"/>
		<path fill="#2A1D17" d="M68.492,70.045c-0.294-0.279-0.484-0.33-0.645-0.257c-0.188,0.085-0.277,0.356-0.034,0.964
			c0.19,0.477,0.407,0.569,0.579,0.49c0.195-0.089,0.203-0.27,0.116-0.486c-0.073-0.184-0.167-0.302-0.319-0.322l0.489-0.224
			c-0.016,0.058-0.006,0.138,0.026,0.216l0.345,0.862c-0.087-0.053-0.135-0.054-0.18-0.033c-0.078,0.036-0.139,0.187-0.392,0.302
			c-0.433,0.197-0.786-0.209-0.971-0.672c-0.206-0.518-0.293-1.162,0.213-1.393c0.184-0.084,0.27-0.043,0.36-0.084
			c0.052-0.023,0.081-0.067,0.104-0.127L68.492,70.045z"/>
		<path fill="#2A1D17" d="M68.717,69.402c-0.047-0.104-0.136-0.18-0.233-0.212l0.989-0.503c0.064-0.031,0.094-0.062,0.127-0.114
			l0.291,0.642c-0.232-0.182-0.401-0.195-0.648-0.07c-0.174,0.09-0.211,0.18-0.14,0.334l0.123,0.271
			c0.046-0.018,0.104-0.043,0.154-0.069c0.163-0.082,0.27-0.166,0.282-0.351l0.279,0.61c-0.145-0.1-0.273-0.065-0.436,0.017
			c-0.051,0.026-0.105,0.059-0.148,0.086l0.167,0.367c0.073,0.156,0.15,0.188,0.364,0.08c0.252-0.127,0.358-0.316,0.34-0.664
			l0.334,0.738c-0.061-0.02-0.119-0.016-0.233,0.042l-0.978,0.497c0.037-0.102,0.037-0.223-0.011-0.326L68.717,69.402z"/>
		<polygon fill-rule="evenodd" clip-rule="evenodd" fill="#2A1D17" points="62.855,46.379 62.562,46.486 62.567,46.544 
			62.877,46.479 		"/>
		<path fill="#2A1D17" d="M59.311,46.518c0.006-0.06-0.012-0.119-0.046-0.158l0.344,0.016c-0.009,0.009-0.015,0.022-0.017,0.035
			c-0.002,0.017-0.002,0.042,0,0.064l0.088,0.709l0.003,0l0.241-0.693c0.008-0.022,0.014-0.048,0.015-0.064
			c0.002-0.012-0.001-0.026-0.009-0.035l0.35,0.015c-0.042,0.037-0.072,0.094-0.079,0.153l-0.087,0.793
			c-0.007,0.059,0.012,0.117,0.045,0.158l-0.271-0.012c0.033-0.035,0.074-0.097,0.085-0.207l0.084-0.744l-0.003,0l-0.299,0.85
			c-0.004,0.012-0.008,0.024-0.01,0.041c-0.002,0.016-0.002,0.036,0.004,0.054l-0.209-0.009c0.01-0.018,0.014-0.038,0.016-0.054
			c0.002-0.018,0-0.028-0.002-0.042l-0.099-0.836l-0.002-0.001l-0.078,0.716c-0.013,0.11,0.013,0.175,0.04,0.212l-0.271-0.012
			c0.041-0.037,0.072-0.093,0.078-0.152L59.311,46.518z"/>
		<path fill="#2A1D17" d="M60.5,46.575c0.008-0.059-0.011-0.117-0.044-0.158l0.285,0.017c-0.043,0.036-0.075,0.092-0.081,0.151
			l-0.099,0.793c-0.007,0.059,0.009,0.118,0.044,0.159l-0.287-0.017c0.044-0.036,0.077-0.092,0.083-0.151L60.5,46.575z"/>
		<path fill="#2A1D17" d="M60.979,46.605c0.01-0.059-0.008-0.119-0.041-0.16l0.285,0.021c-0.043,0.035-0.075,0.09-0.085,0.148
			l-0.09,0.666c-0.012,0.091,0.01,0.125,0.06,0.129c0.116,0.012,0.2-0.098,0.267-0.246l-0.062,0.457
			c-0.021-0.026-0.047-0.04-0.111-0.043l-0.413-0.03c0.043-0.035,0.076-0.091,0.084-0.151L60.979,46.605z"/>
		<path fill="#2A1D17" d="M61.669,46.657c0.008-0.059-0.006-0.119-0.038-0.16l0.283,0.024c-0.044,0.035-0.077,0.09-0.086,0.149
			l-0.101,0.664c-0.015,0.091,0.006,0.126,0.056,0.13c0.115,0.015,0.202-0.095,0.271-0.242l-0.07,0.455
			c-0.02-0.025-0.045-0.039-0.109-0.044l-0.412-0.036c0.043-0.035,0.076-0.09,0.086-0.149L61.669,46.657z"/>
		<path fill="#2A1D17" d="M62.343,46.718c0.01-0.059-0.004-0.119-0.037-0.161l0.553,0.061c0.035,0.003,0.057-0.003,0.084-0.016
			l-0.062,0.369c-0.044-0.148-0.109-0.201-0.247-0.216c-0.097-0.011-0.138,0.019-0.154,0.107l-0.025,0.156
			c0.023,0.005,0.055,0.01,0.082,0.014c0.092,0.009,0.16,0.002,0.217-0.076l-0.06,0.35c-0.029-0.084-0.094-0.106-0.184-0.116
			c-0.029-0.003-0.061-0.004-0.086-0.005l-0.036,0.211c-0.016,0.09,0.008,0.126,0.127,0.14c0.14,0.016,0.238-0.038,0.33-0.198
			l-0.073,0.424c-0.02-0.026-0.045-0.041-0.109-0.047l-0.544-0.06c0.045-0.033,0.079-0.088,0.089-0.146L62.343,46.718z"/>
		<path fill="#2A1D17" d="M63.008,47.345c0.051,0.187,0.112,0.279,0.226,0.294c0.102,0.014,0.161-0.054,0.177-0.134
			c0.016-0.077-0.006-0.129-0.068-0.176l-0.146-0.114c-0.082-0.064-0.112-0.169-0.093-0.275c0.035-0.183,0.181-0.294,0.344-0.272
			c0.081,0.01,0.103,0.037,0.153,0.044c0.032,0.005,0.054,0.001,0.092-0.023l-0.074,0.374c-0.026-0.132-0.103-0.214-0.192-0.226
			c-0.074-0.01-0.137,0.021-0.153,0.105c-0.011,0.058,0.009,0.099,0.085,0.153l0.105,0.074c0.091,0.063,0.143,0.166,0.11,0.333
			c-0.041,0.206-0.188,0.329-0.359,0.306c-0.082-0.011-0.154-0.059-0.195-0.064c-0.025-0.003-0.057,0.01-0.096,0.037L63.008,47.345z
			"/>
		<path fill="#2A1D17" d="M63.943,46.919c0.012-0.06,0-0.119-0.029-0.163l0.281,0.043c-0.045,0.032-0.082,0.085-0.094,0.143
			l-0.169,0.786c-0.014,0.059-0.001,0.119,0.027,0.162l-0.279-0.042c0.045-0.032,0.082-0.085,0.094-0.145L63.943,46.919z"/>
		<path fill="#2A1D17" d="M64.407,46.988c0.013-0.057,0.003-0.118-0.024-0.162l0.336,0.06c-0.01,0.006-0.018,0.02-0.021,0.032
			c-0.005,0.016-0.009,0.042-0.01,0.065l-0.005,0.72l0.003,0.001l0.328-0.663c0.01-0.021,0.019-0.046,0.021-0.061
			c0.003-0.013,0.002-0.028-0.003-0.037l0.341,0.062c-0.045,0.03-0.084,0.083-0.097,0.141l-0.189,0.784
			c-0.014,0.057-0.004,0.119,0.024,0.162l-0.265-0.048c0.037-0.028,0.086-0.085,0.111-0.193l0.177-0.735h-0.002l-0.403,0.81
			c-0.007,0.012-0.012,0.021-0.016,0.04c-0.004,0.016-0.008,0.037-0.003,0.055l-0.205-0.036c0.013-0.017,0.019-0.037,0.022-0.052
			c0.004-0.017,0.005-0.029,0.004-0.042l0.013-0.851l-0.003-0.001l-0.17,0.706c-0.027,0.108-0.01,0.177,0.012,0.217l-0.266-0.048
			c0.047-0.03,0.084-0.082,0.099-0.141L64.407,46.988z"/>
		<path fill="#2A1D17" d="M65.57,47.206c0.017-0.057,0.009-0.119-0.019-0.165l0.539,0.117c0.034,0.007,0.056,0.003,0.085-0.006
			l-0.1,0.362c-0.027-0.153-0.088-0.212-0.223-0.242c-0.094-0.02-0.139,0.005-0.162,0.093l-0.042,0.153
			c0.022,0.008,0.054,0.016,0.08,0.022c0.089,0.019,0.158,0.019,0.223-0.053l-0.096,0.345c-0.021-0.088-0.08-0.116-0.17-0.136
			c-0.026-0.005-0.058-0.011-0.083-0.012l-0.057,0.208c-0.024,0.089-0.005,0.128,0.109,0.152c0.138,0.031,0.239-0.015,0.348-0.165
			l-0.115,0.417c-0.017-0.028-0.04-0.046-0.103-0.059l-0.532-0.115c0.047-0.029,0.086-0.08,0.104-0.138L65.57,47.206z"/>
		<path fill="#2A1D17" d="M66.167,47.902c0.03,0.192,0.082,0.291,0.191,0.318c0.1,0.024,0.165-0.036,0.189-0.116
			c0.021-0.075,0.006-0.128-0.048-0.184l-0.134-0.129c-0.074-0.073-0.094-0.182-0.062-0.285c0.056-0.182,0.21-0.276,0.368-0.237
			c0.078,0.019,0.098,0.049,0.147,0.062c0.032,0.006,0.054,0.006,0.092-0.015l-0.112,0.366c-0.012-0.135-0.079-0.225-0.167-0.246
			c-0.071-0.018-0.137,0.006-0.16,0.089c-0.019,0.057-0.002,0.102,0.065,0.163l0.098,0.085c0.082,0.074,0.122,0.181,0.073,0.345
			c-0.062,0.202-0.22,0.31-0.388,0.269c-0.08-0.02-0.146-0.076-0.186-0.085c-0.025-0.006-0.059,0.004-0.1,0.028L66.167,47.902z"/>
		<path fill="#2A1D17" d="M67.521,47.696c0.024-0.072,0.032-0.133,0.001-0.19c0.031,0.018,0.074,0.032,0.131,0.047
			c0.072,0.022,0.139,0.032,0.196,0.049c0.232,0.068,0.294,0.304,0.186,0.615c-0.12,0.337-0.297,0.545-0.591,0.458
			c-0.061-0.018-0.125-0.047-0.188-0.065c-0.057-0.016-0.086-0.019-0.115-0.024c0.046-0.025,0.096-0.085,0.126-0.172L67.521,47.696z
			 M67.447,48.38c-0.03,0.086-0.019,0.121,0.059,0.144c0.163,0.047,0.281-0.078,0.369-0.333c0.084-0.235,0.072-0.39-0.074-0.434
			c-0.092-0.026-0.129-0.011-0.156,0.065L67.447,48.38z"/>
		<path fill="#2A1D17" d="M68.382,47.866c0.007-0.019,0.011-0.032,0.015-0.043c0.018-0.045,0.039-0.056,0.078-0.043
			c0.037,0.012,0.049,0.034,0.03,0.078c-0.005,0.012-0.01,0.024-0.019,0.042L68.4,48.081c-0.011,0.021-0.024,0.032-0.049,0.023
			c-0.024-0.007-0.028-0.023-0.022-0.047L68.382,47.866z"/>
		<path fill="#2A1D17" d="M68.714,48.049c0.021-0.056,0.021-0.118,0-0.167l0.519,0.18c0.031,0.012,0.055,0.01,0.084,0.003
			l-0.142,0.351c-0.011-0.155-0.062-0.223-0.191-0.269c-0.09-0.031-0.137-0.011-0.17,0.074l-0.06,0.148
			c0.022,0.011,0.051,0.022,0.077,0.032c0.085,0.029,0.151,0.036,0.226-0.028l-0.136,0.335c-0.01-0.091-0.065-0.127-0.15-0.157
			c-0.026-0.008-0.057-0.017-0.08-0.022l-0.083,0.202c-0.033,0.085-0.02,0.127,0.092,0.165c0.133,0.046,0.238,0.013,0.361-0.124
			l-0.163,0.404c-0.013-0.031-0.035-0.049-0.094-0.071l-0.511-0.178c0.05-0.023,0.095-0.071,0.117-0.127L68.714,48.049z"/>
		<path fill="#2A1D17" d="M68.979,49.166c0.065-0.024,0.171-0.105,0.271-0.202l0.265-0.251l0.002-0.338
			c0.001-0.104-0.013-0.188-0.033-0.223l0.271,0.104c-0.028,0.005-0.041,0.021-0.055,0.051c-0.008,0.018-0.017,0.045-0.017,0.079
			c-0.002,0.061,0.004,0.207-0.001,0.233l0.156-0.147c0.031-0.028,0.05-0.054,0.061-0.078c0.017-0.036,0.017-0.061,0.004-0.081
			l0.266,0.102c-0.081,0.03-0.212,0.141-0.307,0.229l-0.166,0.163l-0.006,0.39c0,0.057,0.012,0.164,0.043,0.26l-0.27-0.104
			c0.024-0.011,0.045-0.038,0.055-0.063c0.01-0.021,0.016-0.074,0.017-0.124c0-0.1-0.01-0.201-0.003-0.271l-0.208,0.199
			c-0.027,0.026-0.05,0.06-0.062,0.085c-0.014,0.029-0.016,0.063-0.006,0.093L68.979,49.166z"/>
		<path fill="#2A1D17" d="M70.59,48.568c0.066,0.029,0.102,0.086,0.137,0.101c0.026,0.012,0.052,0.006,0.082-0.009l-0.2,0.425
			c-0.001,0.001-0.002,0.002-0.004,0.002c0-0.001,0-0.002,0-0.004c0.021-0.197,0.001-0.311-0.079-0.344
			c-0.083-0.036-0.205,0.004-0.349,0.304c-0.121,0.253-0.073,0.367,0.022,0.408c0.097,0.041,0.21-0.008,0.316-0.1l0.002,0.003
			c-0.113,0.235-0.266,0.35-0.443,0.274c-0.14-0.06-0.232-0.248-0.04-0.652C70.205,48.619,70.422,48.496,70.59,48.568z"/>
		<path fill="#2A1D17" d="M70.969,48.933c0.026-0.055,0.033-0.117,0.016-0.167l0.496,0.23c0.032,0.015,0.053,0.015,0.083,0.011
			l-0.173,0.338c0.004-0.156-0.041-0.229-0.164-0.287c-0.087-0.04-0.134-0.025-0.176,0.057l-0.073,0.142
			c0.021,0.013,0.048,0.028,0.073,0.041c0.081,0.037,0.147,0.051,0.226-0.006l-0.165,0.323c-0.001-0.094-0.054-0.134-0.136-0.172
			c-0.025-0.011-0.055-0.024-0.077-0.031L70.8,49.605c-0.044,0.083-0.032,0.125,0.073,0.176c0.125,0.057,0.234,0.036,0.369-0.091
			l-0.2,0.388c-0.01-0.032-0.029-0.053-0.086-0.08l-0.488-0.227c0.052-0.018,0.101-0.06,0.129-0.115L70.969,48.933z"/>
		<path fill="#2A1D17" d="M71.713,49.303c0.037-0.067,0.053-0.126,0.034-0.19c0.026,0.024,0.052,0.038,0.093,0.059
			c0.033,0.017,0.166,0.073,0.222,0.102c0.133,0.068,0.174,0.216,0.068,0.408c-0.063,0.114-0.17,0.241-0.378,0.188
			c-0.137-0.035-0.16-0.023-0.203,0.055l-0.071,0.127c-0.04,0.073-0.045,0.137-0.028,0.193L71.2,50.117
			c0.058-0.023,0.088-0.047,0.129-0.122L71.713,49.303z M71.664,49.712l0.002,0.002c0.027-0.019,0.06-0.022,0.13-0.011
			c0.098,0.016,0.162-0.021,0.209-0.105c0.033-0.06,0.049-0.156-0.041-0.202c-0.06-0.03-0.112-0.022-0.162,0.07L71.664,49.712z"/>
		<path fill="#2A1D17" d="M72.562,49.852c0.035-0.059,0.04-0.095-0.008-0.122c-0.076-0.042-0.184,0.024-0.285,0.146l-0.002-0.001
			l0.233-0.392c0.008,0.018,0.021,0.041,0.043,0.052l0.448,0.249c0.021,0.013,0.049,0.012,0.068,0.011l-0.234,0.392l-0.003-0.001
			c0.059-0.146,0.064-0.271-0.012-0.312c-0.046-0.027-0.078-0.005-0.113,0.054l-0.363,0.609c-0.031,0.052-0.04,0.113-0.027,0.166
			l-0.244-0.136c0.053-0.017,0.104-0.056,0.136-0.107L72.562,49.852z"/>
		<path fill="#2A1D17" d="M73.153,50.065c0.033-0.052,0.043-0.114,0.032-0.166l0.24,0.142c-0.053,0.014-0.105,0.052-0.139,0.103
			l-0.437,0.69c-0.032,0.052-0.042,0.114-0.033,0.167l-0.239-0.143c0.055-0.015,0.105-0.053,0.139-0.104L73.153,50.065z"/>
		<path fill="#2A1D17" d="M73.829,50.963c-0.206,0.309-0.406,0.444-0.608,0.318c-0.199-0.128-0.154-0.36,0.054-0.671
			c0.259-0.387,0.454-0.413,0.606-0.316C74.034,50.391,74.089,50.576,73.829,50.963z M73.697,50.88
			c0.175-0.259,0.179-0.383,0.087-0.441c-0.092-0.059-0.205-0.004-0.38,0.255c-0.156,0.235-0.185,0.378-0.086,0.44
			C73.419,51.198,73.541,51.114,73.697,50.88z"/>
		<path fill="#2A1D17" d="M74.293,50.779c0.034-0.049,0.049-0.11,0.042-0.164l0.23,0.16c-0.011,0.01-0.02,0.019-0.028,0.031
			c-0.01,0.014-0.021,0.036-0.028,0.062l-0.197,0.646l0.002,0.001l0.28-0.388c0.085-0.118,0.11-0.18,0.096-0.27l0.237,0.166
			c-0.053,0.012-0.107,0.046-0.143,0.096l-0.526,0.727c-0.023,0.032-0.033,0.056-0.033,0.075l-0.17-0.118
			c0.008-0.004,0.015-0.01,0.022-0.021c0.007-0.01,0.017-0.037,0.025-0.066l0.219-0.719l-0.002-0.002l-0.316,0.439
			c-0.086,0.117-0.111,0.178-0.095,0.267l-0.239-0.164c0.053-0.011,0.108-0.045,0.144-0.095L74.293,50.779z"/>
		<path fill="#2A1D17" d="M39.696,52.752c-0.029-0.049-0.083-0.081-0.138-0.088l0.317-0.213c-0.003,0.012,0,0.026,0.006,0.037
			c0.008,0.013,0.023,0.032,0.039,0.047l0.515,0.475l0.003-0.001l-0.209-0.678c-0.008-0.022-0.019-0.044-0.026-0.058
			c-0.008-0.012-0.02-0.02-0.03-0.021l0.323-0.215c-0.015,0.055-0.007,0.117,0.022,0.166l0.41,0.651
			c0.03,0.049,0.083,0.081,0.139,0.088l-0.253,0.169c0.01-0.048,0.008-0.121-0.048-0.212l-0.385-0.611l-0.002,0.001l0.255,0.831
			c0.004,0.013,0.008,0.022,0.016,0.038c0.009,0.012,0.021,0.029,0.038,0.037l-0.194,0.129c-0.002-0.02-0.011-0.037-0.018-0.051
			c-0.01-0.014-0.018-0.021-0.027-0.029l-0.604-0.564l-0.002,0.002l0.369,0.588c0.056,0.092,0.121,0.123,0.167,0.132l-0.252,0.169
			c0.016-0.056,0.01-0.117-0.021-0.166L39.696,52.752z"/>
		<polygon fill-rule="evenodd" clip-rule="evenodd" fill="#2A1D17" points="41.136,51.358 40.957,51.621 40.998,51.66 41.214,51.42 
					"/>
		<path fill="#2A1D17" d="M40.9,51.954c-0.029-0.049-0.08-0.083-0.135-0.093l0.521-0.332c0.034-0.02,0.047-0.039,0.063-0.068
			l0.186,0.309c-0.136-0.076-0.228-0.07-0.357,0.014c-0.091,0.059-0.107,0.105-0.064,0.182l0.08,0.131
			c0.024-0.013,0.055-0.03,0.081-0.047c0.086-0.056,0.141-0.107,0.141-0.203l0.175,0.295c-0.082-0.041-0.151-0.014-0.236,0.039
			c-0.026,0.018-0.056,0.039-0.077,0.056l0.105,0.179c0.045,0.075,0.089,0.085,0.201,0.013c0.133-0.083,0.182-0.189,0.159-0.368
			l0.211,0.357c-0.032-0.008-0.065,0-0.125,0.039l-0.514,0.328c0.017-0.056,0.011-0.119-0.018-0.168L40.9,51.954z"/>
		<path fill="#2A1D17" d="M41.821,51.373c-0.029-0.05-0.08-0.084-0.134-0.094l0.271-0.164c-0.017,0.053-0.014,0.117,0.014,0.166
			l0.316,0.564c0.044,0.078,0.083,0.09,0.13,0.062c0.114-0.063,0.124-0.202,0.095-0.356l0.217,0.387
			c-0.033-0.007-0.064,0-0.126,0.037l-0.395,0.238c0.02-0.055,0.015-0.116-0.013-0.166L41.821,51.373z"/>
		<path fill="#2A1D17" d="M42.894,51.802c0.013-0.081-0.009-0.206-0.028-0.292l-0.143-0.73c-0.005-0.024-0.013-0.051-0.021-0.067
			c-0.006-0.011-0.013-0.021-0.026-0.022l0.216-0.122c-0.004,0.011-0.002,0.018,0.004,0.027c0.006,0.015,0.041,0.055,0.072,0.087
			l0.467,0.502c0.059,0.062,0.148,0.15,0.218,0.182l-0.253,0.147c0.003-0.048-0.008-0.091-0.03-0.13
			c-0.011-0.024-0.035-0.059-0.054-0.071l-0.292,0.166c0,0.028,0.009,0.063,0.027,0.099c0.021,0.041,0.059,0.076,0.09,0.084
			L42.894,51.802z M43.208,51.194l-0.319-0.352l-0.003,0.003l0.105,0.473L43.208,51.194z"/>
		<path fill="#2A1D17" d="M43.518,50.389c-0.024-0.051-0.073-0.089-0.126-0.103l0.281-0.148c0.003,0.012,0.006,0.024,0.013,0.036
			c0.007,0.016,0.021,0.035,0.042,0.052l0.481,0.431l0.003-0.001l-0.195-0.408c-0.06-0.124-0.101-0.172-0.193-0.191l0.291-0.155
			c-0.021,0.054-0.021,0.117,0.003,0.168l0.367,0.765c0.016,0.033,0.032,0.052,0.05,0.06l-0.207,0.11
			c0-0.01-0.001-0.018-0.006-0.028c-0.005-0.012-0.026-0.031-0.048-0.05l-0.537-0.48l-0.002,0.001l0.221,0.46
			c0.059,0.124,0.1,0.172,0.193,0.19l-0.292,0.154c0.02-0.053,0.02-0.115-0.003-0.168L43.518,50.389z"/>
		<path fill="#2A1D17" d="M45.182,49.819c-0.161-0.137-0.265-0.156-0.354-0.114c-0.102,0.05-0.151,0.194-0.017,0.5
			c0.104,0.242,0.222,0.282,0.317,0.236c0.106-0.051,0.111-0.146,0.063-0.256c-0.041-0.093-0.093-0.15-0.175-0.157l0.268-0.13
			c-0.01,0.03-0.003,0.07,0.015,0.11l0.188,0.436c-0.049-0.024-0.074-0.023-0.098-0.012c-0.045,0.021-0.078,0.102-0.215,0.168
			c-0.237,0.117-0.431-0.083-0.532-0.317c-0.114-0.261-0.16-0.592,0.118-0.728c0.1-0.05,0.146-0.03,0.196-0.056
			c0.028-0.014,0.044-0.037,0.058-0.069L45.182,49.819z"/>
		<path fill="#2A1D17" d="M45.505,49.396c-0.021-0.053-0.066-0.095-0.118-0.113l0.561-0.249c0.037-0.016,0.053-0.033,0.074-0.059
			l0.132,0.337c-0.12-0.097-0.211-0.106-0.352-0.043c-0.098,0.043-0.121,0.091-0.09,0.171l0.054,0.143
			c0.027-0.009,0.06-0.021,0.088-0.034c0.092-0.04,0.155-0.084,0.169-0.178l0.125,0.32c-0.074-0.054-0.146-0.037-0.238,0.004
			c-0.028,0.012-0.06,0.028-0.083,0.042l0.074,0.194c0.033,0.082,0.074,0.1,0.194,0.046c0.144-0.064,0.208-0.161,0.214-0.342
			l0.151,0.387c-0.032-0.011-0.065-0.008-0.13,0.021l-0.554,0.246c0.025-0.052,0.03-0.115,0.008-0.17L45.505,49.396z"/>
		<path fill="#2A1D17" d="M46.603,49.495c0.145,0.129,0.252,0.173,0.369,0.125c0.106-0.042,0.128-0.129,0.104-0.205
			c-0.025-0.071-0.071-0.103-0.156-0.109l-0.199-0.018c-0.113-0.01-0.197-0.08-0.232-0.18c-0.058-0.17,0.025-0.338,0.194-0.407
			c0.083-0.033,0.118-0.023,0.171-0.044c0.034-0.014,0.054-0.027,0.076-0.067l0.12,0.348c-0.093-0.095-0.208-0.122-0.302-0.084
			c-0.075,0.03-0.121,0.088-0.095,0.167c0.02,0.054,0.061,0.078,0.162,0.083l0.139,0.005c0.121,0.005,0.223,0.062,0.277,0.218
			c0.067,0.192-0.014,0.372-0.19,0.443c-0.086,0.035-0.18,0.032-0.223,0.05c-0.027,0.011-0.05,0.038-0.075,0.081L46.603,49.495z"/>
		<path fill="#2A1D17" d="M47.977,48.4c-0.015-0.056-0.055-0.102-0.105-0.124l0.579-0.195c0.037-0.013,0.056-0.028,0.079-0.051
			l0.096,0.35c-0.109-0.108-0.197-0.126-0.341-0.078c-0.102,0.035-0.13,0.079-0.106,0.163l0.041,0.148
			c0.027-0.006,0.061-0.016,0.09-0.025c0.094-0.033,0.16-0.069,0.184-0.163l0.092,0.334c-0.067-0.062-0.14-0.052-0.236-0.021
			c-0.028,0.01-0.062,0.022-0.086,0.035l0.056,0.201c0.023,0.086,0.062,0.107,0.188,0.065c0.146-0.049,0.221-0.141,0.243-0.322
			l0.112,0.403c-0.031-0.014-0.062-0.015-0.129,0.007l-0.571,0.193c0.028-0.049,0.039-0.113,0.024-0.168L47.977,48.4z"/>
		<path fill="#2A1D17" d="M49.058,49.021c0.043-0.061,0.088-0.187,0.117-0.32l0.079-0.355l-0.212-0.254
			c-0.064-0.077-0.13-0.131-0.171-0.146l0.309-0.09c-0.022,0.021-0.024,0.041-0.016,0.071c0.004,0.018,0.014,0.043,0.035,0.07
			c0.037,0.046,0.134,0.153,0.148,0.175l0.048-0.208c0.01-0.042,0.01-0.073,0.004-0.097c-0.007-0.037-0.023-0.054-0.048-0.062
			l0.305-0.089c-0.053,0.074-0.102,0.237-0.13,0.363l-0.048,0.227l0.242,0.294c0.036,0.043,0.111,0.115,0.203,0.167l-0.309,0.091
			c0.014-0.021,0.016-0.055,0.01-0.081c-0.006-0.021-0.033-0.066-0.063-0.105c-0.062-0.072-0.136-0.143-0.175-0.2l-0.062,0.279
			c-0.008,0.037-0.008,0.077-0.002,0.103c0.008,0.03,0.028,0.057,0.057,0.073L49.058,49.021z"/>
		<path fill="#2A1D17" d="M50.626,48.58l0.061,0.06c0.021,0.019,0.047,0.032,0.068,0.027c0.035-0.009,0.051-0.029,0.066-0.072
			c0.012,0.006,0.021,0.023,0.025,0.047c0.017,0.085-0.019,0.178-0.108,0.202c-0.164,0.041-0.204-0.198-0.326-0.167
			c-0.066,0.016-0.107,0.087-0.107,0.171c-0.035-0.018-0.054-0.045-0.061-0.083c-0.008-0.042-0.002-0.085,0.022-0.13
			c-0.123-0.058-0.202-0.218-0.247-0.454c-0.081-0.439,0.057-0.599,0.254-0.649c0.198-0.049,0.379,0.029,0.464,0.469
			C50.787,48.272,50.761,48.473,50.626,48.58z M50.567,48.042c-0.057-0.294-0.145-0.377-0.263-0.347
			c-0.119,0.03-0.17,0.147-0.115,0.441c0.051,0.267,0.134,0.38,0.264,0.347C50.579,48.451,50.617,48.309,50.567,48.042z"/>
		<path fill="#2A1D17" d="M51.049,47.527c-0.008-0.058-0.042-0.109-0.089-0.138l0.292-0.061c-0.032,0.062-0.041,0.096-0.032,0.161
			l0.084,0.588c0.021,0.15,0.079,0.191,0.183,0.17c0.088-0.02,0.162-0.087,0.141-0.237l-0.083-0.589
			c-0.01-0.064-0.029-0.092-0.076-0.137l0.291-0.061c-0.035,0.046-0.053,0.107-0.045,0.165l0.072,0.501
			c0.042,0.3-0.028,0.472-0.287,0.526c-0.187,0.038-0.329-0.042-0.36-0.259L51.049,47.527z"/>
		<path fill="#2A1D17" d="M52.185,47.305c-0.006-0.058-0.039-0.11-0.083-0.141l0.307-0.052c-0.037,0.044-0.058,0.105-0.052,0.164
			l0.083,0.784c0.006,0.058,0.039,0.11,0.084,0.141l-0.307,0.053c0.037-0.045,0.057-0.106,0.051-0.165L52.185,47.305z"/>
		<path fill="#2A1D17" d="M52.81,47.747c0.106,0.162,0.197,0.232,0.319,0.215c0.112-0.015,0.155-0.095,0.149-0.175
			c-0.005-0.076-0.042-0.119-0.12-0.147l-0.186-0.068c-0.104-0.037-0.168-0.128-0.175-0.234c-0.014-0.183,0.108-0.328,0.286-0.353
			c0.088-0.011,0.118,0.007,0.174,0c0.035-0.005,0.058-0.015,0.088-0.047l0.028,0.372c-0.064-0.117-0.168-0.173-0.267-0.159
			c-0.079,0.011-0.137,0.057-0.131,0.141c0.005,0.059,0.038,0.092,0.131,0.123l0.133,0.041c0.113,0.035,0.197,0.117,0.209,0.284
			c0.014,0.206-0.105,0.363-0.293,0.389c-0.09,0.013-0.179-0.014-0.224-0.007c-0.027,0.004-0.056,0.025-0.091,0.062L52.81,47.747z"
			/>
		<path fill="#2A1D17" d="M38.862,47.743c-0.047-0.127-0.099-0.178-0.207-0.132c-0.172,0.074-0.212,0.329-0.156,0.637l-0.005,0.002
			l-0.311-0.84c0.039,0.008,0.092,0.013,0.143-0.008l1.015-0.435c0.049-0.021,0.086-0.065,0.11-0.099l0.311,0.84l-0.005,0.001
			c-0.156-0.265-0.349-0.421-0.521-0.348c-0.107,0.046-0.111,0.122-0.065,0.249l0.483,1.305c0.042,0.111,0.128,0.2,0.23,0.24
			l-0.553,0.236c0.046-0.104,0.055-0.233,0.013-0.344L38.862,47.743z"/>
		<path fill="#2A1D17" d="M39.827,47.102c-0.039-0.113-0.125-0.204-0.225-0.245l0.533-0.218c-0.037,0.133-0.042,0.205,0.002,0.329
			l0.188,0.54l0.571-0.233l-0.189-0.539c-0.042-0.125-0.091-0.174-0.198-0.249l0.532-0.217c-0.049,0.103-0.058,0.232-0.019,0.345
			l0.53,1.514c0.039,0.112,0.126,0.203,0.226,0.246l-0.532,0.217c0.036-0.133,0.04-0.205-0.003-0.329l-0.24-0.685l-0.571,0.232
			l0.24,0.685c0.043,0.125,0.091,0.176,0.2,0.249l-0.533,0.218c0.05-0.104,0.058-0.233,0.02-0.345L39.827,47.102z"/>
		<path fill="#2A1D17" d="M41.458,46.443c-0.038-0.114-0.123-0.205-0.22-0.25l1.089-0.42c0.07-0.028,0.104-0.058,0.145-0.107
			l0.232,0.71c-0.224-0.217-0.397-0.25-0.669-0.145c-0.19,0.073-0.24,0.164-0.183,0.336l0.098,0.301
			c0.05-0.012,0.114-0.033,0.169-0.055c0.179-0.069,0.299-0.146,0.335-0.339l0.22,0.678c-0.137-0.124-0.277-0.101-0.455-0.032
			c-0.056,0.021-0.117,0.049-0.165,0.074l0.134,0.408c0.057,0.175,0.135,0.218,0.37,0.127c0.278-0.107,0.409-0.296,0.429-0.667
			l0.268,0.819c-0.062-0.028-0.124-0.028-0.249,0.021l-1.076,0.414c0.051-0.102,0.063-0.232,0.025-0.345L41.458,46.443z"/>
		<path fill="#2A1D17" d="M43.642,45.621c-0.034-0.115-0.116-0.209-0.212-0.257l0.956-0.337c0.07-0.025,0.104-0.054,0.146-0.103
			l0.199,0.679c-0.146-0.206-0.323-0.241-0.552-0.161c-0.178,0.063-0.196,0.154-0.158,0.285l0.098,0.339
			c0.032-0.008,0.087-0.024,0.151-0.046c0.165-0.059,0.216-0.114,0.273-0.294l0.195,0.663c-0.118-0.109-0.239-0.107-0.378-0.058
			c-0.054,0.019-0.106,0.04-0.146,0.058l0.195,0.667c0.033,0.115,0.115,0.209,0.212,0.257l-0.565,0.199
			c0.053-0.101,0.069-0.23,0.037-0.345L43.642,45.621z"/>
		<path fill="#2A1D17" d="M44.916,45.178c-0.032-0.116-0.111-0.211-0.208-0.262l0.567-0.19c-0.055,0.101-0.073,0.229-0.042,0.345
			l0.428,1.552c0.031,0.116,0.11,0.212,0.208,0.261l-0.568,0.191c0.055-0.101,0.074-0.229,0.041-0.344L44.916,45.178z"/>
		<path fill="#2A1D17" d="M45.716,44.91c-0.029-0.116-0.107-0.214-0.2-0.266l0.573-0.179c0,0.026,0.001,0.054,0.009,0.081
			c0.009,0.035,0.03,0.078,0.062,0.122l0.757,1.088l0.005-0.001l-0.231-0.914c-0.068-0.277-0.129-0.394-0.295-0.474l0.594-0.186
			c-0.057,0.1-0.078,0.228-0.048,0.344l0.432,1.714c0.019,0.075,0.041,0.119,0.073,0.143l-0.422,0.132
			c0.003-0.019,0.005-0.035-0.002-0.061c-0.007-0.025-0.04-0.073-0.073-0.12l-0.843-1.212L46.1,45.125l0.26,1.033
			c0.07,0.277,0.131,0.392,0.297,0.473l-0.594,0.187c0.057-0.099,0.077-0.228,0.048-0.345L45.716,44.91z"/>
		<path fill="#2A1D17" d="M47.403,44.389c-0.025-0.118-0.101-0.218-0.193-0.271l1.118-0.317c0.071-0.02,0.109-0.048,0.154-0.093
			l0.162,0.735c-0.201-0.241-0.368-0.29-0.649-0.211c-0.194,0.055-0.252,0.142-0.213,0.319l0.067,0.31
			c0.051-0.007,0.117-0.022,0.174-0.038c0.182-0.052,0.311-0.119,0.362-0.308l0.154,0.699c-0.125-0.136-0.264-0.127-0.447-0.075
			c-0.057,0.016-0.12,0.037-0.168,0.058l0.092,0.42c0.04,0.182,0.113,0.23,0.354,0.163c0.285-0.081,0.433-0.257,0.488-0.626
			l0.187,0.847c-0.057-0.036-0.119-0.042-0.248-0.004l-1.104,0.312c0.06-0.097,0.084-0.226,0.059-0.342L47.403,44.389z"/>
		<path fill="#2A1D17" d="M49.052,45.073c0.242,0.31,0.433,0.436,0.665,0.377c0.209-0.053,0.272-0.223,0.242-0.386
			c-0.029-0.153-0.109-0.233-0.268-0.276l-0.369-0.101c-0.21-0.057-0.352-0.229-0.392-0.442c-0.071-0.371,0.127-0.688,0.461-0.773
			c0.164-0.042,0.229-0.007,0.332-0.034c0.067-0.018,0.107-0.041,0.159-0.114l0.143,0.754c-0.152-0.227-0.363-0.319-0.548-0.273
			c-0.148,0.038-0.25,0.143-0.217,0.312c0.022,0.119,0.095,0.181,0.282,0.224l0.262,0.058c0.227,0.05,0.405,0.199,0.47,0.537
			c0.077,0.416-0.115,0.758-0.467,0.848c-0.169,0.043-0.345,0.006-0.43,0.028c-0.053,0.013-0.102,0.062-0.159,0.144L49.052,45.073z"
			/>
		<path fill="#2A1D17" d="M50.744,43.742c-0.021-0.135-0.061-0.196-0.174-0.171c-0.18,0.04-0.268,0.285-0.271,0.603l-0.006,0.001
			l-0.141-0.893c0.035,0.016,0.088,0.03,0.141,0.019l1.064-0.237c0.053-0.012,0.096-0.049,0.125-0.078l0.142,0.894l-0.006,0
			c-0.101-0.293-0.258-0.485-0.437-0.445c-0.113,0.025-0.133,0.1-0.111,0.235l0.22,1.388c0.02,0.119,0.087,0.224,0.177,0.284
			l-0.579,0.13c0.064-0.095,0.097-0.223,0.077-0.341L50.744,43.742z"/>
		<path fill="#2A1D17" d="M52.896,43.307c-0.016-0.136-0.052-0.199-0.165-0.18c-0.183,0.032-0.281,0.274-0.301,0.592h-0.004
			l-0.099-0.901c0.035,0.017,0.086,0.034,0.139,0.025l1.072-0.186c0.053-0.009,0.098-0.043,0.127-0.072l0.099,0.903l-0.005,0.001
			c-0.086-0.3-0.233-0.5-0.414-0.467c-0.114,0.019-0.137,0.092-0.121,0.229l0.151,1.403c0.014,0.12,0.076,0.228,0.163,0.292
			l-0.584,0.102c0.069-0.091,0.107-0.216,0.095-0.336L52.896,43.307z"/>
		<path fill="#2A1D17" d="M54.008,42.903c-0.008-0.121-0.067-0.231-0.151-0.299l1.143-0.156c0.072-0.009,0.112-0.032,0.163-0.072
			l0.054,0.758c-0.161-0.268-0.32-0.342-0.606-0.303c-0.199,0.027-0.268,0.105-0.255,0.289l0.024,0.321
			c0.051-0.001,0.116-0.006,0.174-0.015c0.188-0.025,0.321-0.074,0.401-0.255l0.05,0.721c-0.103-0.154-0.241-0.164-0.427-0.139
			c-0.059,0.008-0.125,0.021-0.174,0.033l0.029,0.435c0.015,0.186,0.079,0.247,0.325,0.213c0.29-0.039,0.46-0.195,0.566-0.555
			l0.063,0.872c-0.053-0.042-0.111-0.058-0.244-0.04l-1.125,0.153c0.071-0.089,0.114-0.213,0.105-0.334L54.008,42.903z"/>
		<path fill="#2A1D17" d="M55.429,44.668c0.087-0.143,0.15-0.403,0.188-0.583l0.35-1.531c0.011-0.051,0.02-0.107,0.019-0.147
			c-0.002-0.025-0.006-0.052-0.024-0.066l0.461-0.045c-0.013,0.019-0.018,0.036-0.017,0.058c0,0.033,0.024,0.142,0.051,0.232
			l0.378,1.382c0.048,0.174,0.127,0.419,0.22,0.546l-0.544,0.052c0.043-0.086,0.057-0.18,0.056-0.272
			c-0.002-0.059-0.013-0.144-0.035-0.187l-0.625,0.061c-0.021,0.054-0.033,0.13-0.032,0.212c0.004,0.099,0.037,0.194,0.082,0.239
			L55.429,44.668z M56.445,43.785l-0.252-0.959l-0.005,0l-0.207,1.004L56.445,43.785z"/>
		<path fill="#2A1D17" d="M57.112,43.678c0.172,0.355,0.333,0.518,0.568,0.505c0.213-0.011,0.308-0.168,0.31-0.336
			c0.002-0.157-0.06-0.253-0.204-0.327l-0.339-0.172c-0.191-0.099-0.296-0.297-0.293-0.517c0.003-0.382,0.258-0.659,0.597-0.676
			c0.167-0.01,0.222,0.037,0.329,0.03c0.068-0.003,0.111-0.019,0.175-0.082l-0.009,0.778c-0.104-0.254-0.288-0.389-0.476-0.379
			c-0.152,0.008-0.271,0.094-0.272,0.269c-0.001,0.122,0.056,0.197,0.231,0.276l0.241,0.108c0.209,0.095,0.353,0.277,0.35,0.626
			c-0.006,0.428-0.258,0.731-0.615,0.751c-0.172,0.009-0.336-0.061-0.423-0.056c-0.053,0.002-0.111,0.042-0.182,0.112L57.112,43.678
			z"/>
		<path fill="#2A1D17" d="M60.64,43.296c-0.055,0.745-0.28,1.188-0.78,1.184c-0.501-0.005-0.659-0.451-0.604-1.196
			c0.067-0.936,0.398-1.187,0.779-1.184C60.416,42.104,60.709,42.361,60.64,43.296z M60.311,43.294
			c0.046-0.626-0.071-0.842-0.303-0.844c-0.229-0.002-0.378,0.211-0.425,0.837c-0.043,0.567,0.054,0.841,0.302,0.843
			C60.132,44.133,60.269,43.86,60.311,43.294z"/>
		<path fill="#2A1D17" d="M61.062,42.492c0.014-0.121-0.022-0.243-0.092-0.326l0.989,0.05c0.072,0.004,0.114-0.01,0.171-0.041
			l-0.083,0.721c-0.053-0.251-0.196-0.354-0.433-0.367c-0.184-0.009-0.237,0.071-0.253,0.209l-0.041,0.359
			c0.032,0.005,0.088,0.011,0.152,0.014c0.173,0.01,0.239-0.024,0.359-0.174l-0.081,0.706c-0.064-0.15-0.173-0.195-0.316-0.203
			c-0.055-0.002-0.11-0.001-0.153-0.001L61.2,44.148c-0.014,0.122,0.022,0.243,0.092,0.326l-0.584-0.03
			c0.087-0.075,0.151-0.191,0.165-0.312L61.062,42.492z"/>
		<path fill="#2A1D17" d="M63.391,42.883c0.023-0.138,0.007-0.21-0.106-0.223c-0.18-0.02-0.341,0.189-0.449,0.494h-0.004
			l0.161-0.911c0.027,0.026,0.07,0.059,0.123,0.064l1.062,0.12c0.053,0.005,0.104-0.016,0.142-0.034l-0.161,0.91l-0.005,0
			c0.003-0.317-0.08-0.554-0.26-0.573c-0.113-0.013-0.154,0.052-0.178,0.19l-0.25,1.415c-0.021,0.121,0.008,0.245,0.071,0.332
			l-0.579-0.064c0.091-0.07,0.162-0.183,0.183-0.304L63.391,42.883z"/>
		<path fill="#2A1D17" d="M64.567,42.803c0.027-0.12,0.004-0.246-0.056-0.335l0.549,0.087c-0.099,0.099-0.141,0.16-0.17,0.293
			l-0.127,0.577l0.587,0.093l0.127-0.575c0.031-0.134,0.019-0.203-0.032-0.326l0.55,0.087C65.9,42.77,65.825,42.879,65.798,43
			l-0.36,1.622c-0.026,0.12-0.003,0.246,0.056,0.336l-0.548-0.088c0.099-0.099,0.14-0.159,0.17-0.293l0.163-0.733L64.69,43.75
			l-0.163,0.733c-0.029,0.133-0.017,0.203,0.032,0.325l-0.549-0.087c0.096-0.067,0.171-0.176,0.196-0.296L64.567,42.803z"/>
		<path fill="#2A1D17" d="M66.291,43.093c0.032-0.12,0.014-0.246-0.041-0.339l1.104,0.23c0.071,0.015,0.114,0.006,0.174-0.014
			l-0.202,0.748c-0.061-0.313-0.182-0.437-0.457-0.494c-0.193-0.041-0.282,0.013-0.331,0.192l-0.085,0.317
			c0.047,0.016,0.109,0.033,0.166,0.045c0.181,0.037,0.32,0.035,0.453-0.113l-0.191,0.713c-0.044-0.183-0.167-0.24-0.349-0.277
			c-0.057-0.012-0.121-0.021-0.172-0.025l-0.115,0.429c-0.05,0.184-0.01,0.264,0.229,0.314c0.28,0.058,0.488-0.035,0.706-0.347
			l-0.231,0.861c-0.033-0.057-0.084-0.091-0.211-0.117l-1.089-0.229c0.096-0.062,0.177-0.168,0.208-0.288L66.291,43.093z"/>
		<path fill="#2A1D17" d="M68.979,43.382c-0.082,0.046-0.151,0.127-0.185,0.223c-0.016,0.045-0.031,0.116-0.045,0.196l-0.233,1.219
			l0.006,0.001l0.725-1.303c0.027-0.052,0.056-0.102,0.067-0.138c0.011-0.031,0.018-0.068,0.019-0.099l0.403,0.116
			c-0.016,0.033-0.029,0.063-0.04,0.095c-0.013,0.039-0.029,0.101-0.039,0.157l-0.245,1.467l0.005,0.001l0.563-1.094
			c0.057-0.11,0.097-0.182,0.126-0.265c0.033-0.101,0.02-0.189-0.042-0.27l0.538,0.154c-0.127,0.1-0.242,0.258-0.354,0.467
			L69.49,45.75c-0.022,0.042-0.041,0.08-0.047,0.099c-0.01,0.025-0.006,0.054,0.004,0.078l-0.433-0.124
			c0.016-0.027,0.029-0.062,0.039-0.09c0.018-0.053,0.029-0.131,0.048-0.245l0.214-1.308l-0.005-0.001l-0.723,1.292
			c-0.022,0.042-0.039,0.076-0.052,0.111c-0.014,0.04-0.005,0.082,0.014,0.108l-0.472-0.134c0.029-0.023,0.049-0.049,0.057-0.072
			c0.012-0.035,0.021-0.073,0.029-0.117l0.26-1.479c0.037-0.209,0.075-0.501,0.029-0.636L68.979,43.382z"/>
		<path fill="#2A1D17" d="M71.61,45.416c-0.277,0.708-0.622,1.07-1.089,0.914c-0.464-0.155-0.477-0.639-0.199-1.347
			c0.348-0.89,0.732-1.033,1.087-0.914C71.765,44.188,71.958,44.527,71.61,45.416z M71.305,45.313
			c0.232-0.595,0.188-0.841-0.026-0.913c-0.213-0.071-0.417,0.09-0.65,0.686c-0.211,0.538-0.206,0.835,0.024,0.912
			C70.883,46.076,71.094,45.852,71.305,45.313z"/>
		<path fill="#2A1D17" d="M72.224,44.785c0.063-0.146,0.084-0.271,0.033-0.395c0.061,0.041,0.114,0.065,0.202,0.098
			c0.071,0.028,0.355,0.112,0.475,0.158c0.425,0.16,0.408,0.506,0.3,0.76c-0.118,0.275-0.278,0.417-0.499,0.416
			c0.101,0.135,0.148,0.25-0.035,0.756c-0.07,0.194-0.096,0.335-0.049,0.471l-0.299-0.112c-0.096-0.035-0.076-0.129,0.057-0.493
			c0.142-0.399,0.118-0.509-0.137-0.604l-0.129-0.049l-0.245,0.569c-0.068,0.157-0.064,0.289-0.018,0.398l-0.539-0.202
			c0.114-0.062,0.172-0.115,0.24-0.277L72.224,44.785z M72.274,45.48l0.096,0.036c0.272,0.102,0.435,0.074,0.535-0.162
			c0.091-0.21,0.047-0.342-0.173-0.423c-0.146-0.056-0.216-0.011-0.247,0.061L72.274,45.48z"/>
		<path fill="#2A1D17" d="M73.726,45.326c0.053-0.114,0.058-0.243,0.021-0.345l0.53,0.218c-0.105,0.044-0.201,0.136-0.253,0.25
			l-0.59,1.276c-0.082,0.178-0.062,0.259,0.029,0.297c0.214,0.098,0.444-0.073,0.665-0.329l-0.406,0.879
			c-0.021-0.063-0.063-0.106-0.183-0.156L72.769,47.1c0.104-0.045,0.2-0.137,0.253-0.25L73.726,45.326z"/>
		<path fill="#2A1D17" d="M74.852,45.827c0.07-0.142,0.099-0.266,0.053-0.393c0.059,0.044,0.141,0.084,0.249,0.132
			c0.14,0.063,0.272,0.1,0.386,0.149c0.45,0.199,0.514,0.699,0.211,1.315c-0.329,0.667-0.739,1.049-1.311,0.797
			c-0.116-0.052-0.237-0.128-0.358-0.182c-0.109-0.048-0.17-0.06-0.227-0.078c0.1-0.04,0.216-0.152,0.3-0.324L74.852,45.827z
			 M74.523,47.217c-0.084,0.173-0.068,0.247,0.081,0.312c0.313,0.139,0.586-0.091,0.834-0.594c0.229-0.464,0.245-0.788-0.042-0.915
			c-0.173-0.077-0.256-0.054-0.331,0.097L74.523,47.217z"/>
	</g>
</g>
</svg>
