<?xml version="1.0" encoding="UTF-8"?><svg xmlns="http://www.w3.org/2000/svg" width="100%" height="100%"><defs><font id="web" horiz-adv-x="903"><!--



NOTICE: This font software is the valuable property 
of Webtype LLC, The Font Bureau, Ascender Corp and/or 
its suppliers and its use by you is covered under the 
terms of the Web Font license agreement between you 
and Webtype LLC. You may ONLY use this font software 
with the licensed web site. Except as specifically 
permitted by the license, you may not copy this font 
software. If you have any questions, please contact 
Webtype.com. 

For more information, please visit http://www.webtype.com/store/license/?id=23

Licensed to: ford.com

Serial number: SH-255
--><font-face font-family="" units-per-em="2048" panose-1="2 0 5 6 0 0 0 2 0 4" ascent="1966" descent="-492" alphabetic="0"/><missing-glyph horiz-adv-x="1024" d="M0 1434H1024V0H0V1434ZM102 102H922V1331H102V102Z"/><glyph unicode=" " horiz-adv-x="264"/><glyph unicode="!" horiz-adv-x="584" d="M135 342H449V0H135V342ZM143 1518H444L420 461H166L143 1518Z"/><glyph unicode="&quot;" horiz-adv-x="887" d="M111 1518H397L385 854H125L111 1518ZM489 1518H776L762 854H502L489 1518Z"/><glyph unicode="#" horiz-adv-x="1063" d="M176 389H59V653H205L221 807H59V1071H250L299 1518H561L512 1071H621L672 1518H932L883 1071H1004V807H854L838 653H1004V389H809L766 0H504L547 389H436L395 0H133L176 389ZM590 627L616 834H467L442 627H590Z"/><glyph unicode="$" horiz-adv-x="872" d="M309 1677H575V1522Q610 1520 643 1515Q682 1509 719 1499T799 1475L696 1231Q658 1248 601 1258T479 1268Q413 1268 377 1236T340 1143Q340 1114 346 1092T373 1042T432 972T535 864L657 734Q710 679 745 626T799 513T817 375Q817 299 794 231T721 111T590 28Q583 25 575 23V-190H309V0Q285 2 263 5Q206 13 161 25T79 51T12 80L117 305Q162 283 232 264T383 244Q458 244 499 277T541 375Q541 407 535 431T506 487T439 566T319 694Q258 758 211 809T130 911T80 1019T63 1151Q63 1225 84 1293T154 1412T279 1495Q294 1500 309 1505V1677Z"/><glyph unicode="%" horiz-adv-x="1774" d="M379 545Q298 545 240 567T141 625Q106 656 87 698T57 792T44 907T41 1040Q41 1107 43 1167T55 1278T81 1371T129 1446Q169 1486 230 1511T379 1536Q466 1536 527 1511T629 1444Q660 1412 677 1370T704 1276T715 1166T717 1040Q717 969 714 908T701 794T670 699T616 625Q576 590 518 568T379 545ZM1395 -14Q1314 -14 1255 8T1157 66Q1122 97 1103 139T1073 234T1060 348T1057 481Q1057 548 1059 607T1071 718T1097 812T1145 887Q1185 927 1246 952T1395 977Q1481 977 1542 952T1645 885Q1675 853 1692 811T1719 717T1730 607T1733 481Q1733 410 1730 349T1716 235T1685 140T1630 66Q1592 31 1534 9T1395 -14ZM379 760Q410 760 428 773T455 819T466 904T469 1036Q469 1115 467 1168T455 1252T428 1297T379 1311Q346 1311 328 1298T300 1253T289 1168T287 1036Q287 957 289 904T300 819T327 774T379 760ZM1395 203Q1426 203 1444 216T1470 260T1481 345T1483 477Q1483 556 1481 609T1471 693T1444 738T1395 752Q1362 752 1344 739T1316 694T1305 609T1303 477Q1303 398 1305 345T1316 261T1343 216T1395 203ZM1040 1518H1278L731 0H494L1040 1518Z"/><glyph unicode="&amp;" horiz-adv-x="1192" d="M485 -12Q361 -12 275 13T135 88T57 216T33 397Q33 479 56 547T117 673T206 778Q244 814 284 845Q274 867 264 888Q231 964 215 1034T199 1180Q199 1259 215 1324T270 1436T374 1508T539 1534Q631 1534 691 1511T786 1443T836 1336T850 1194Q850 1116 833 1051T782 930T702 826Q670 793 633 761Q659 722 690 678L816 494Q825 535 830 581Q844 701 844 860H1092Q1092 627 1053 462Q1025 345 979 258L1157 0H840L797 63Q773 48 746 37Q633 -12 485 -12ZM410 631Q364 587 336 537Q305 481 305 406Q305 363 312 329T340 270T397 234T492 221Q597 221 665 257L475 535Q440 585 410 631ZM537 987Q561 1016 576 1047T597 1111T604 1182Q604 1207 602 1227T593 1263T573 1286T535 1294Q509 1294 494 1285T470 1260T458 1221T455 1169Q455 1121 468 1073T509 968L513 960Q526 973 537 987Z"/><glyph unicode="'" horiz-adv-x="510" d="M111 1518H399L387 854H125L111 1518Z"/><glyph unicode="(" horiz-adv-x="752" d="M408 -340Q362 -281 313 -195T224 10T157 280T131 623Q131 796 157 946T223 1220T313 1436T408 1587L621 1460Q585 1398 548 1324T481 1150T433 923T414 625Q414 455 435 322T487 86T554 -89T621 -211L408 -340Z"/><glyph unicode=")" horiz-adv-x="752" d="M131 -211Q167 -150 203 -75T269 98T317 325T336 623Q336 792 316 926T264 1162T198 1337T131 1460L342 1587Q389 1529 438 1443T528 1239T595 968T621 625Q621 451 595 301T529 28T439 -188T342 -340L131 -211Z"/><glyph unicode="*" horiz-adv-x="920" d="M369 864L186 696L55 897L293 1049L55 1202L186 1403L369 1231L346 1518H571L551 1229L733 1403L866 1204L623 1049L866 895L735 698L551 868L569 580H346L369 864Z"/><glyph unicode="+" horiz-adv-x="1012" d="M367 614H121V879H367V1219H643V879H891V614H643V272H367V614Z"/><glyph unicode="," horiz-adv-x="453" d="M76 -154Q116 -127 140 -111T178 -79T195 -47T199 0H72V348H381V12Q381 -35 374 -73T343 -148T276 -219T162 -293L76 -154Z"/><glyph unicode="-" horiz-adv-x="561" d="M47 817H512V555H47V817Z"/><glyph unicode="." horiz-adv-x="453" d="M72 348H381V0H72V348Z"/><glyph unicode="/" horiz-adv-x="836" d="M555 1518H836L281 0H0L555 1518Z"/><glyph unicode="0" horiz-adv-x="1022" d="M512 -10Q406 -10 333 16T211 88Q164 131 138 195T98 344T81 533T78 760Q78 875 80 975T95 1160T131 1310T199 1421Q247 1474 323 1505T512 1536Q623 1536 698 1505T823 1423Q866 1378 890 1312T927 1162T941 976T944 760Q944 638 941 535T925 347T886 199T813 90Q765 44 693 17T512 -10ZM512 248Q565 248 594 269T636 348T652 504T655 760Q655 916 653 1015T637 1171T594 1249T512 1270Q458 1270 428 1249T384 1171T368 1015T365 760Q365 604 367 505T384 348T428 270T512 248Z"/><glyph unicode="1" horiz-adv-x="610" d="M203 1251H35V1518H483V0H203V1251Z"/><glyph unicode="2" horiz-adv-x="854" d="M43 236L451 975Q474 1018 487 1062T500 1149Q500 1175 493 1198T470 1238T427 1266T362 1276Q297 1276 241 1262T135 1225L31 1466Q99 1497 187 1516T391 1536Q500 1536 575 1515T696 1451T763 1347T784 1204Q784 1149 777 1102T756 1013T723 931T682 852L350 250H780V0H43V236Z"/><glyph unicode="3" horiz-adv-x="834" d="M360 -10Q294 -10 242 -5T147 10T72 32T10 57L115 289Q132 281 156 273T208 258T266 247T328 242Q379 242 410 255T459 296T481 367T487 473Q487 537 481 577T449 640T375 670T240 678H176V934H240Q321 934 366 943T435 972T463 1026T469 1110Q469 1151 465 1182T446 1235T401 1267T319 1278Q276 1278 222 1267T125 1237L23 1475Q43 1484 73 1494T146 1514T244 1530T371 1536Q484 1536 556 1513T671 1443T729 1328T745 1167Q745 1100 742 1048T728 957T694 890T633 844Q683 826 710 796T749 719T764 607T766 453Q766 337 747 250T681 105T556 19T360 -10Z"/><glyph unicode="4" horiz-adv-x="967" d="M47 528L442 1518H725L336 547H534L586 922H791V547H932V293H791V0H530V293H47V528Z"/><glyph unicode="5" horiz-adv-x="870" d="M401 -10Q323 -10 266 -5T165 10T86 33T16 61L121 293Q163 276 225 259T377 242Q426 242 457 254T505 296T528 379T535 512Q535 590 530 639T510 716T469 754T401 764Q355 764 325 754T270 727L70 788L92 1518H750V1251H336L328 989Q356 1006 396 1016T504 1026Q605 1026 666 998T761 909T804 749T815 510Q815 370 800 272T740 111T614 19T401 -10Z"/><glyph unicode="6" horiz-adv-x="979" d="M508 -10Q403 -10 331 16T209 90Q164 132 138 189T98 319T80 476T76 657V774Q76 882 81 974T100 1142T140 1277T209 1380Q243 1416 287 1442T390 1485T522 1510T692 1518H797V1251H692Q610 1251 554 1242T461 1217T404 1176T374 1120T362 1052T360 971Q374 989 393 1004T441 1030T512 1047T610 1053Q684 1053 736 1037T823 989T878 912T908 811T921 687T924 545Q924 465 920 395T903 267T868 162T811 82Q763 39 689 15T508 -10ZM514 236Q556 236 581 250T620 299T638 391T643 532Q643 609 638 660T620 742T582 786T518 799Q482 799 455 789T409 751T381 671T371 537Q371 448 375 390T394 298T437 250T514 236Z"/><glyph unicode="7" horiz-adv-x="788" d="M469 1251H10V1518H766V1278L418 0H125L469 1251Z"/><glyph unicode="8" horiz-adv-x="981" d="M489 -16Q371 -16 293 10T166 80Q133 110 113 148T83 229T69 322T66 422Q66 495 68 559T84 676T126 768T205 831Q166 854 145 888T113 965T100 1060T98 1174Q98 1252 113 1321T178 1440Q220 1486 296 1512T489 1538Q607 1538 685 1512T805 1440Q852 1389 867 1321T883 1174Q883 1113 881 1060T868 964T835 887T772 831Q824 809 852 770T894 678T910 560T913 422Q913 370 910 321T897 228T867 146T813 78Q764 34 686 9T489 -16ZM489 213Q535 213 562 227T605 270T624 344T629 451Q629 513 625 557T605 631T563 674T489 688Q443 688 416 674T375 631T356 558T352 451Q352 389 356 344T374 270T416 227T489 213ZM489 934Q526 934 549 945T586 978T605 1035T610 1118Q610 1168 605 1203T587 1260T550 1293T489 1303Q452 1303 429 1293T393 1261T376 1203T371 1118Q371 1070 375 1036T393 979T429 945T489 934Z"/><glyph unicode="9" horiz-adv-x="979" d="M199 260H305Q386 260 442 269T535 296T592 339T621 397T633 468T635 551Q621 534 602 520T554 494T484 477T385 471Q274 471 211 508T117 613T79 774T72 981Q72 1061 76 1131T93 1259T127 1364T184 1444Q232 1487 306 1511T487 1536Q593 1536 665 1509T786 1436Q831 1394 858 1336T898 1206T916 1049T920 866V752Q920 644 915 551T896 380T855 242T786 137Q751 102 707 76T606 33T474 8T305 0H199V260ZM477 717Q513 717 540 726T587 764T615 843T625 977Q625 1066 621 1124T602 1216T559 1264T483 1278Q440 1278 415 1264T375 1215T357 1124T352 983Q352 906 357 855T376 773T414 730T477 717Z"/><glyph unicode=":" horiz-adv-x="479" d="M88 344H393V0H88V344ZM88 1159H393V815H88V1159Z"/><glyph unicode=";" horiz-adv-x="479" d="M94 -154Q133 -129 156 -113T192 -81T209 -47T213 0H88V344H393V12Q393 -31 386 -69T357 -144T291 -217T176 -293L94 -154ZM88 1159H393V815H88V1159Z"/><glyph unicode="&lt;" horiz-adv-x="1012" d="M160 639V834L803 1241V958L446 737L803 512V229L160 639Z"/><glyph unicode="=" horiz-adv-x="1012" d="M129 653H885V389H129V653ZM129 1085H885V821H129V1085Z"/><glyph unicode="&gt;" horiz-adv-x="1012" d="M211 512L567 733L211 956V1241L852 831V635L211 229V512Z"/><glyph unicode="?" horiz-adv-x="907" d="M293 449Q294 527 296 584T307 686T332 770T375 850L496 1036Q516 1067 524 1097T532 1159Q532 1182 526 1203T505 1241T465 1266T403 1276Q377 1276 348 1272T288 1260T230 1244T180 1225L76 1466Q113 1481 152 1494T234 1516T329 1531T442 1536Q546 1536 617 1508T732 1434T795 1329T815 1206Q815 1132 792 1063T733 940L623 766Q604 736 593 707T575 642T566 560T563 449H293ZM272 309H582V0H272V309Z"/><glyph unicode="@" horiz-adv-x="1298" d="M647 -311Q500 -311 399 -280T232 -190T131 -48T78 137T58 359T55 612Q55 744 58 864T78 1086T130 1272T232 1414T399 1504T647 1536Q795 1536 897 1505T1065 1414T1168 1272T1220 1087T1240 864T1243 612V354Q1243 287 1231 241T1192 166T1126 124T1030 111Q971 111 932 117T869 136T831 165T809 205Q778 154 719 133T561 111Q507 111 462 128T389 174Q360 204 344 247T320 346T309 466T307 606Q307 684 309 749T320 868T347 964T397 1036Q425 1061 463 1077T561 1094Q603 1094 633 1091T687 1081T729 1060T762 1028L793 1083L971 1071V367Q971 335 972 312T980 274T998 252T1032 244Q1054 244 1067 252T1086 275T1094 314T1096 367V612Q1096 729 1095 831T1083 1019T1046 1172T970 1286T842 1357T647 1382Q532 1382 455 1358T328 1287T253 1173T216 1020T204 832T203 612Q203 495 204 392T216 204T253 51T328 -62T454 -133T647 -158H993V-311H647ZM637 313Q676 313 698 327T731 375T745 462T748 598Q748 678 746 731T732 817T698 863T637 877Q601 877 581 863T550 817T538 731T535 598Q535 520 537 466T550 377T580 328T637 313Z"/><glyph unicode="A" horiz-adv-x="1038" d="M354 1522H682L1028 0H731L684 229H340L293 0H12L354 1522ZM625 487L547 874L512 1073L477 874L399 487H625Z"/><glyph unicode="B" horiz-adv-x="1010" d="M88 1518H518Q637 1518 717 1493T847 1419T917 1297T938 1130Q938 1069 933 1016T912 919T871 845T803 797Q851 781 881 747T927 663T950 550T956 414Q956 208 852 104T530 0H88V1518ZM520 248Q608 248 645 296T682 444Q682 499 673 536T643 595T591 627T518 637H362V248H520ZM510 889Q555 889 585 902T632 941T657 1001T664 1081Q664 1175 628 1218T506 1262H362V889H510Z"/><glyph unicode="C" horiz-adv-x="842" d="M532 -10Q414 -10 330 21T190 106Q144 151 116 213T73 356T52 537T47 760Q47 878 51 976T70 1154T110 1296T182 1407Q236 1467 322 1500T530 1534Q580 1534 620 1532T693 1523T758 1508T821 1487L717 1225Q683 1239 638 1247T547 1255Q480 1255 439 1236T376 1161T346 1008T338 754Q338 600 345 504T375 353T439 278T547 258Q604 258 644 269T729 299L829 47Q799 35 768 25T702 7T625 -5T532 -10Z"/><glyph unicode="D" horiz-adv-x="1040" d="M88 1518H487Q622 1518 714 1487T864 1397Q909 1351 934 1288T973 1145T989 969T993 760Q993 641 989 542T971 361T930 216T854 109Q797 55 705 28T481 0H88V1518ZM489 250Q564 250 606 272T669 351T695 506T700 756Q700 906 695 1003T668 1157T603 1235T483 1257H375V250H489Z"/><glyph unicode="E" horiz-adv-x="893" d="M88 1518H838V1251H375V901H817V637H375V260H838V0H88V1518Z"/><glyph unicode="F" horiz-adv-x="866" d="M88 1518H831V1251H375V870H811V604H375V0H88V1518Z"/><glyph unicode="G" horiz-adv-x="983" d="M496 -10Q389 -10 315 13T190 84Q142 128 114 193T71 343T52 533T47 760Q47 874 51 971T69 1149T109 1294T180 1407Q208 1437 243 1460T322 1500T423 1525T549 1534Q660 1534 748 1514T889 1468L774 1219Q729 1237 678 1249T565 1262Q491 1262 445 1242T374 1165T341 1009T332 754Q332 607 337 509T360 351T414 267T512 242Q566 242 598 257T647 308T669 404T674 555V653H469V911H944V627Q944 516 939 429T921 274T884 159T823 78Q772 31 691 11T496 -10Z"/><glyph unicode="H" horiz-adv-x="1079" d="M88 1518H375V922H705V1518H991V0H705V635H375V0H88V1518Z"/><glyph unicode="I" horiz-adv-x="492" d="M102 1518H389V0H102V1518Z"/><glyph unicode="J" horiz-adv-x="643" d="M37 260H156Q225 260 249 287T274 375V1518H563V348Q563 247 538 181T468 74T359 17T217 0H37V260Z"/><glyph unicode="K" horiz-adv-x="999" d="M88 1518H371V908L655 1518H961L661 917L979 0H674L472 593L371 368V0H88V1518Z"/><glyph unicode="L" horiz-adv-x="827" d="M88 1518H375V260H811V0H88V1518Z"/><glyph unicode="M" horiz-adv-x="1294" d="M88 1518H446L588 856L645 571L702 856L850 1518H1206V0H934V874L893 668L748 0H524L379 668L338 879V0H88V1518Z"/><glyph unicode="N" horiz-adv-x="1063" d="M88 1518H383L631 907L709 707V1518H975V0H717L426 698L354 881V0H88V1518Z"/><glyph unicode="O" horiz-adv-x="1071" d="M535 -10Q416 -10 332 22T193 106Q141 155 112 222T69 371T51 552T47 762Q47 871 50 967T66 1144T106 1291T180 1407Q236 1466 323 1501T535 1536Q658 1536 745 1501T887 1409Q935 1359 962 1293T1003 1145T1020 967T1024 762Q1024 649 1021 551T1003 370T959 221T879 106Q823 54 738 22T535 -10ZM535 254Q601 254 639 278T698 359T723 513T729 754Q729 899 724 996T698 1152T640 1235T535 1260Q469 1260 430 1236T370 1153T344 997T338 754Q338 610 344 514T370 360T429 278T535 254Z"/><glyph unicode="P" horiz-adv-x="1008" d="M88 1518H512Q645 1518 733 1487T873 1394T947 1236T969 1014Q969 887 948 791T874 631T735 533T514 500H373V0H88V1518ZM512 760Q563 760 597 773T651 815T681 892T690 1010Q690 1082 681 1129T651 1204T596 1243T510 1255H373V760H512Z"/><glyph unicode="Q" horiz-adv-x="1069" d="M694 -356Q591 -356 527 -335T426 -265T378 -138Q369 -73 370 17Q350 23 332 30Q248 62 193 115Q141 164 112 229T69 375T51 553T47 762Q47 871 50 967T66 1144T106 1291T180 1407Q236 1466 323 1501T535 1536Q658 1536 745 1501T887 1409Q935 1359 962 1293T1003 1145T1020 967T1024 762Q1024 649 1021 552T1003 374T959 228T879 115Q823 62 737 30Q693 13 641 5Q642 -16 643 -32Q646 -61 656 -78T686 -102T741 -109H836V-356H694ZM535 248Q600 248 638 272T697 355T723 510T729 752Q729 897 724 994T698 1151T640 1235T535 1260Q469 1260 430 1235T370 1151T344 995T338 752Q338 607 344 510T370 355T429 273T535 248Z"/><glyph unicode="R" horiz-adv-x="1008" d="M88 1518H498Q627 1518 714 1489T855 1402T931 1254T954 1044Q954 938 933 850T860 696Q819 645 756 608L948 0H655L491 537H369V0H88V1518ZM496 795Q548 795 582 808T638 850T667 922T676 1028Q676 1091 668 1134T638 1205T582 1245T494 1257H369V795H496Z"/><glyph unicode="S" horiz-adv-x="899" d="M418 -10Q347 -10 287 -4T177 14T88 39T18 68L135 309Q192 280 257 265T408 250Q486 250 527 281T569 379Q569 406 564 428T539 481T480 553T371 662Q297 733 240 787T145 895T86 1008T66 1151Q66 1225 86 1294T155 1416T284 1502T483 1534Q539 1534 586 1532T674 1523T753 1508T829 1487L735 1227Q714 1234 686 1241T625 1253T558 1261T489 1264Q414 1264 378 1233T342 1149Q342 1122 349 1101T377 1052T439 985T545 881Q628 801 685 742T778 627T830 513T846 373Q846 297 825 228T753 106T621 22T418 -10Z"/><glyph unicode="T" horiz-adv-x="928" d="M317 1251H14V1518H913V1251H608V0H317V1251Z"/><glyph unicode="U" horiz-adv-x="1059" d="M528 -18Q408 -18 324 8T188 82Q152 115 131 157T98 250T84 358T80 479V1518H369V492Q369 424 376 378T401 302T452 261T535 248Q583 248 615 260T666 301T692 376T700 492V1518H981V479Q981 417 978 361T965 254T933 162T877 86Q826 38 740 10T528 -18Z"/><glyph unicode="V" horiz-adv-x="1032" d="M16 1518H311L469 766L520 494L571 762L729 1518H1018L674 -4H358L16 1518Z"/><glyph unicode="W" horiz-adv-x="1473" d="M43 1518H334L434 872L471 625L512 872L629 1518H866L983 872L1024 625L1061 872L1163 1518H1430L1178 -4H897L784 549L737 809L690 549L580 -4H295L43 1518Z"/><glyph unicode="X" horiz-adv-x="1044" d="M57 1518H362L538 1114L694 1518H991L684 778L1024 0H721L506 492L313 0H16L360 825L57 1518Z"/><glyph unicode="Y" horiz-adv-x="997" d="M-10 1518H295L502 895L711 1518H1008L641 486V0H354V491L-10 1518Z"/><glyph unicode="Z" horiz-adv-x="889" d="M31 219L522 1251H53V1518H840V1274L358 260H856V0H31V219Z"/><glyph unicode="[" horiz-adv-x="752" d="M143 1563H639V1311H424V-74H643V-311H143V1563Z"/><glyph unicode="\" horiz-adv-x="836" d="M0 1518H281L836 0H555L0 1518Z"/><glyph unicode="]" horiz-adv-x="752" d="M109 -74H328V1311H113V1563H610V-311H109V-74Z"/><glyph unicode="^" horiz-adv-x="793" d="M256 1795H537L743 1455H500L393 1611L287 1455H47L256 1795Z"/><glyph unicode="_" horiz-adv-x="608" d="M-51 -82H657V-283H-51V-82Z"/><glyph unicode="`" horiz-adv-x="793" d="M68 1589H391L547 1249H299L68 1589Z"/><glyph unicode="a" horiz-adv-x="895" d="M340 -10Q253 -10 195 13T100 83T49 200T33 365Q33 488 59 568T143 696T291 763T508 782H525Q525 806 522 825Q519 854 509 871T477 897T422 905Q354 905 290 893T184 864L90 1112Q115 1122 149 1133T227 1153T328 1168T457 1174Q559 1174 626 1152T733 1085Q770 1045 784 982T799 825V322Q799 299 800 285T808 262T827 250T862 246V0Q855 -2 840 -2T807 -3T772 -4H748Q617 -4 596 76Q578 57 556 41T503 14T433 -3T340 -10ZM417 556Q373 550 347 532T310 479T299 389Q299 347 302 316T315 264T344 233T397 223Q440 223 465 235T504 269T522 323T526 393V563Q460 563 417 556Z"/><glyph unicode="b" horiz-adv-x="928" d="M582 -10Q492 -10 427 4T324 55L291 -8L72 8V1563H346V1102Q381 1142 440 1156T594 1171Q662 1171 710 1151T791 1096Q825 1060 845 1009T874 893T886 750T889 582Q889 490 887 411T873 265T841 148T780 61Q748 29 699 10T582 -10ZM487 240Q529 240 553 256T590 310T605 412T608 569Q608 663 605 727T590 831T554 888T487 905Q439 905 412 889T370 833T352 730T348 569Q348 474 352 411T370 309T411 256T487 240Z"/><glyph unicode="c" horiz-adv-x="686" d="M432 -8Q341 -8 276 15T164 78Q123 115 99 166T61 281T43 420T39 582Q39 663 43 733T58 864T91 975T147 1063Q195 1114 267 1142T442 1171Q484 1171 515 1169T570 1164T614 1156T653 1147L575 887Q551 895 525 899T467 903Q423 903 395 891T352 843T330 743T324 573Q324 468 330 403T352 302T397 253T471 240Q499 240 528 245T580 262L657 25Q631 16 607 10T556 0T500 -6T432 -8Z"/><glyph unicode="d" horiz-adv-x="930" d="M336 -10Q268 -10 221 12T141 68Q106 104 87 155T57 273T44 417T41 586Q41 678 44 757T58 901T90 1018T150 1104Q184 1135 232 1153T348 1171Q426 1171 485 1159T582 1108V1563H858V10L629 -4L616 74Q597 48 568 32T503 7T424 -6T336 -10ZM442 240Q490 240 517 256T559 311T578 414T582 575Q582 670 578 733T560 835T518 889T442 905Q401 905 377 889T341 835T326 733T322 575Q322 481 325 417T341 314T377 257T442 240Z"/><glyph unicode="e" horiz-adv-x="842" d="M426 -10Q387 -10 349 -5T277 12T214 39T162 78Q123 115 99 166T62 281T44 420T39 582Q39 671 43 743T60 874T94 980T152 1065Q197 1114 267 1144T442 1174Q630 1174 711 1081Q744 1043 763 988T792 857T803 682T801 455H306Q308 423 310 398Q315 331 331 294T379 244T465 231Q536 231 602 247T721 281L797 47Q749 32 707 22T622 4T532 -6T426 -10ZM555 682Q554 754 551 800T536 873T502 910T440 920Q396 920 369 905T328 850T309 744Q307 716 306 682H555Z"/><glyph unicode="f" horiz-adv-x="639" d="M16 1159H158V1249Q158 1333 178 1393T244 1492T360 1549T532 1567Q568 1567 592 1566T631 1563V1313H551Q513 1312 491 1307T455 1290T438 1259T434 1212V1159H631V911H434V0H158V911H16V1159Z"/><glyph unicode="g" horiz-adv-x="895" d="M436 428Q394 428 357 432Q354 416 354 399Q354 381 357 369T371 350T403 339T463 336Q588 336 669 318T799 264T866 171T885 37Q885 -63 860 -132T780 -243T641 -305T438 -324Q318 -324 236 -309T104 -261T31 -175T8 -43Q8 60 49 122T182 213Q154 238 140 276T125 362Q125 422 147 471Q154 488 164 503L152 513Q105 558 81 627T57 793Q57 988 149 1083T436 1178Q462 1178 498 1175L511 1174L870 1243V1032H748Q772 1006 789 967Q819 901 819 793Q819 696 794 627T720 514T600 449T436 428ZM440 -127Q489 -127 522 -120T574 -96T602 -55T610 8Q610 40 600 61T570 94T517 112T440 117Q387 117 356 109T308 84T286 46T281 -4Q281 -33 286 -56T307 -95T355 -119T440 -127ZM438 629Q472 629 493 638T527 667T544 715T549 786Q549 828 545 858T528 907T494 936T438 946Q403 946 382 937T348 908T332 858T328 786Q328 745 332 716T348 667T381 639T438 629Z"/><glyph unicode="h" horiz-adv-x="928" d="M72 1563H346V1102Q380 1134 436 1154T580 1174Q666 1174 716 1154T797 1096Q835 1048 848 980T862 823V0H584V721Q584 777 580 812T565 868T532 897T477 905Q433 905 408 893T369 854T352 789T348 696V0H72V1563Z"/><glyph unicode="i" horiz-adv-x="436" d="M80 1159H356V0H80V1159ZM80 1538H356V1266H80V1538Z"/><glyph unicode="j" horiz-adv-x="436" d="M12 -70Q36 -70 49 -66T70 -50T78 -21T80 27V1159H356V0Q356 -98 337 -159T277 -254T171 -299T12 -311V-70ZM80 1538H356V1266H80V1538Z"/><glyph unicode="k" horiz-adv-x="872" d="M72 1563H340V705L565 1159H850L592 666L866 0H571L410 391L340 251V0H72V1563Z"/><glyph unicode="l" horiz-adv-x="494" d="M393 -4Q303 -4 243 10T147 59T96 154T80 303V1563H356V338Q356 309 358 291T368 263T394 250T440 246H449V0Q446 -1 439 -1T422 -2T405 -3T393 -4Z"/><glyph unicode="m" horiz-adv-x="1409" d="M72 1145L301 1159L315 1092Q343 1129 402 1150T569 1171Q664 1171 717 1149T799 1079Q828 1124 895 1147T1065 1171Q1153 1171 1204 1152T1284 1094Q1322 1047 1336 979T1350 823V0H1071V721Q1071 779 1067 815T1051 871T1021 898T971 905Q930 905 906 895T869 861T852 801T848 713V0H569V721Q569 779 565 815T550 871T520 898T469 905Q427 905 403 893T366 856T351 791T348 696V0H72V1145Z"/><glyph unicode="n" horiz-adv-x="928" d="M72 1145L301 1159L315 1092Q343 1130 405 1152T561 1174Q611 1174 648 1169T713 1153T761 1129T797 1096Q835 1048 848 980T862 823V0H584V721Q584 779 580 815T563 871T530 898T477 905Q436 905 411 893T371 856T353 791T348 696V0H72V1145Z"/><glyph unicode="o" d="M453 -10Q348 -10 278 17T162 88Q121 126 97 177T60 290T43 426T39 582Q39 662 42 733T58 865T92 977T154 1067Q200 1114 272 1144T453 1174Q562 1174 634 1144T754 1065Q791 1026 812 976T845 864T860 732T864 582Q864 501 860 429T844 294T807 182T743 92Q698 46 628 18T453 -10ZM453 240Q498 240 524 256T563 312T580 414T584 571Q584 665 581 729T564 832T524 888T453 905Q406 905 379 888T338 832T321 729T317 571Q317 478 320 415T338 312T379 257T453 240Z"/><glyph unicode="p" horiz-adv-x="930" d="M72 1145L301 1159L315 1092Q334 1117 363 1133T428 1158T506 1170T594 1174Q662 1174 710 1153T791 1096Q825 1060 845 1009T874 893T886 750T889 582Q889 490 887 411T873 265T841 148T780 61Q748 30 699 11T582 -8Q504 -8 445 5T348 57V-311H72V1145ZM487 240Q529 240 553 256T590 310T605 412T608 569Q608 663 605 727T590 831T554 888T487 905Q439 905 412 889T370 833T352 730T348 569Q348 474 352 411T370 309T411 256T487 240Z"/><glyph unicode="q" horiz-adv-x="926" d="M582 74Q548 27 486 10T336 -8Q268 -8 221 10T141 63Q106 99 87 151T57 270T44 416T41 586Q41 678 44 757T58 901T90 1018T150 1104Q184 1135 232 1153T348 1171Q441 1171 505 1158T610 1104L639 1161L858 1147V-311H582V74ZM442 240Q490 240 517 256T559 311T578 414T582 575Q582 670 578 733T560 835T518 889T442 905Q401 905 377 889T341 835T326 733T322 575Q322 481 325 417T341 314T377 257T442 240Z"/><glyph unicode="r" horiz-adv-x="575" d="M72 1145L301 1159L317 1075Q345 1113 407 1135T559 1159V887Q507 885 468 873T403 835T363 767T350 666V0H72V1145Z"/><glyph unicode="s" horiz-adv-x="774" d="M375 -10Q260 -10 168 9T25 57L127 285Q148 273 178 262T241 242T309 228T375 223Q415 223 440 239T465 293Q465 312 461 328T441 363T394 409T311 475Q237 532 190 576T114 661T74 747T63 848Q63 916 81 976T140 1080T248 1150T414 1176Q476 1176 548 1170T700 1139L614 891Q593 898 568 903T517 912T467 918T424 920Q371 920 349 901T326 848Q326 831 331 817T352 786T397 744T475 682Q542 629 590 587T669 502T714 412T729 301Q729 236 711 180T650 81T541 15T375 -10Z"/><glyph unicode="t" horiz-adv-x="672" d="M16 1159H165L205 1395L428 1450V1159H621V911H428V356Q428 329 431 310T444 279T476 260T532 254H621V0Q593 -3 560 -3T494 -4Q390 -4 324 13T219 71T167 175T152 332V911H16V1159Z"/><glyph unicode="u" horiz-adv-x="915" d="M457 -10Q350 -10 280 15T164 78Q104 132 85 207T66 377V1159H342V410Q342 364 346 332T363 278T399 248T461 238Q497 238 519 247T554 277T570 331T575 412V1159H850V379Q850 285 831 211T756 84Q711 43 639 17T457 -10Z"/><glyph unicode="v" horiz-adv-x="850" d="M0 1159H291L393 635L432 412L471 635L575 1159H850L586 0H264L0 1159Z"/><glyph unicode="w" horiz-adv-x="1223" d="M16 1159H295L362 717L385 541L416 713L504 1159H741L829 711L858 541L881 713L950 1159H1208L999 0H731L647 426L612 621L580 426L502 0H227L16 1159Z"/><glyph unicode="x" horiz-adv-x="840" d="M18 1159H313L442 873L559 1159H823L574 582L838 0H543L394 328L260 0H-4L263 617L18 1159Z"/><glyph unicode="y" horiz-adv-x="831" d="M0 1159H279L379 684L423 446L461 684L555 1159H829L524 -78Q505 -152 477 -197T409 -269T316 -304T193 -315H168Q153 -315 137 -315T107 -314T86 -311V-68H174Q202 -67 220 -65T249 -58T266 -45T276 -25L285 10L0 1159Z"/><glyph unicode="z" horiz-adv-x="719" d="M14 182L369 911H35V1159H692V973L334 229H707V0H14V182Z"/><glyph unicode="{" horiz-adv-x="803" d="M475 -311Q336 -311 265 -247T193 -47Q193 -21 198 16T210 95T226 181T242 267T255 345T260 406Q260 440 253 459T226 489T174 501T88 504V748Q139 748 172 750T224 762T252 790T260 840Q260 863 255 898T243 973T227 1057T211 1142T198 1221T193 1286Q193 1427 261 1495T475 1563H694V1311H592Q535 1311 507 1291T479 1212Q479 1181 488 1130T509 1020T529 901T539 791Q539 735 519 692T442 627Q496 604 517 562T539 467Q539 419 530 357T509 232T489 116T479 29Q479 -28 507 -51T592 -74H694V-311H475Z"/><glyph unicode="|" horiz-adv-x="565" d="M141 1563H422V-311H141V1563Z"/><glyph unicode="}" horiz-adv-x="803" d="M109 -74H211Q268 -74 296 -51T324 29Q324 61 315 115T294 232T274 356T264 467Q264 519 285 561T360 627Q304 648 284 691T264 791Q264 840 273 900T294 1020T314 1130T324 1212Q324 1270 296 1290T211 1311H109V1563H328Q473 1563 541 1495T610 1286Q610 1258 605 1221T593 1143T577 1057T561 973T548 898T543 840Q543 808 551 790T578 763T631 751T715 748V504Q662 504 629 502T577 489T550 460T543 406Q543 381 548 345T560 268T576 182T592 95T605 16T610 -47Q610 -183 539 -247T328 -311H109V-74Z"/><glyph unicode="~" horiz-adv-x="793" d="M45 751Q53 815 67 866T107 951T169 1004T260 1023Q291 1023 323 1013T385 992T438 970T477 960Q490 960 499 963T514 974T525 996T532 1033L743 1003Q735 939 721 889T682 804T620 751T528 732Q497 732 465 742T404 764T350 786T311 796Q287 796 275 782T256 722L45 751Z"/><glyph unicode=" " horiz-adv-x="264"/><glyph unicode="¡" horiz-adv-x="582" d="M164 1057H418L440 0H139L164 1057ZM137 1518H449V1176H137V1518Z"/><glyph unicode="¢" horiz-adv-x="770" d="M311 1321H541V1163Q572 1161 596 1158T640 1149L680 1139L602 887Q577 895 551 899T494 903Q450 903 422 891T378 843T356 743T350 573Q350 468 356 403T378 302T424 253T498 240Q526 240 554 245T606 262L682 31Q656 22 632 16T582 6Q562 3 541 1V-195H311V18Q306 19 302 21Q237 44 190 86Q149 122 125 172T88 284T70 421T66 582Q66 663 70 732T85 861T118 969T174 1057Q222 1108 294 1136Q302 1140 311 1143V1321Z"/><glyph unicode="£" horiz-adv-x="952" d="M39 877H161L135 1110Q124 1206 138 1284T196 1419T316 1505T506 1536Q621 1536 701 1519T842 1479L743 1235Q723 1243 697 1250T641 1262T580 1271T518 1274Q476 1274 451 1262T414 1227T399 1176T401 1112L427 877H645V664H450L481 385Q490 302 482 240Q528 229 578 229Q608 229 626 236T654 260T668 304T672 371V463H915V354Q915 250 899 181T847 70T753 11T612 -6Q544 -6 488 7T385 44Q375 49 366 54Q323 31 263 19Q172 1 37 2V250Q105 249 143 258T199 286T219 329T217 387L185 664H39V877Z"/><glyph unicode="¤" horiz-adv-x="1152" d="M1056 392L940 284L740 500Q668 452 572 452Q480 452 408 500L208 284L92 392L300 608Q272 648 262 686T252 780Q252 828 262 870T300 952L92 1168L208 1276L408 1060Q480 1108 572 1108Q668 1108 740 1060L944 1276L1060 1156L852 952Q880 912 890 872T900 780Q900 684 848 608L1056 392ZM748 780Q748 860 698 910T572 960Q496 960 448 910T400 780Q400 700 450 652T572 604Q652 604 700 652T748 780Z"/><glyph unicode="¥" horiz-adv-x="969" d="M102 332H350V424H102V637H334L14 1520H307L485 905L664 1520H954L630 637H864V424H616V332H864V119H616V0H350V119H102V332Z"/><glyph unicode="¦" horiz-adv-x="565" d="M141 461H422V-311H141V461ZM141 1563H422V791H141V1563Z"/><glyph unicode="§" horiz-adv-x="891" d="M205 0Q173 0 154 2T123 4V238H186Q224 239 247 244T282 262T299 293T303 340V398Q274 404 250 412Q177 437 139 484T88 602T76 762Q76 852 88 921T138 1039T250 1112Q273 1120 301 1125V1210Q301 1294 319 1354T380 1453T491 1510T662 1528Q694 1528 713 1527T743 1524V1290H678Q641 1289 619 1284T584 1267T567 1237T563 1190V1130Q607 1123 641 1112Q714 1087 752 1039T803 922T815 762Q815 672 803 602T753 485T641 412Q607 400 563 394V317Q563 233 545 173T484 75T374 18T205 0ZM446 592Q485 592 510 599T551 625T572 676T578 758Q578 807 572 839T550 890T509 916T446 924Q409 924 384 917T344 890T322 839T315 758Q315 708 321 676T343 625T383 599T446 592Z"/><glyph unicode="¨" horiz-adv-x="793" d="M111 1511H348V1249H111V1511ZM442 1511H682V1249H442V1511Z"/><glyph unicode="©" horiz-adv-x="1075" d="M565 274Q493 274 441 294T354 348Q326 376 309 415T281 506T268 620T264 760Q264 834 266 895T278 1007T303 1097T348 1167Q383 1205 436 1225T565 1245Q596 1245 622 1243T670 1237T712 1227T752 1214L682 1044Q660 1052 632 1057T575 1063Q534 1063 511 1049T475 1001T460 907T457 756Q457 665 460 606T475 513T510 465T575 451Q611 451 636 458T690 477L758 313Q721 296 676 285T565 274ZM537 -16Q378 -16 282 32T133 176T64 418T47 760Q47 890 53 998T79 1192T131 1344T219 1452T352 1516T537 1538Q698 1538 795 1490T943 1344T1011 1101T1028 760Q1028 564 1012 419T944 177T795 32T537 -16ZM537 90Q665 90 740 131T855 256T906 466T918 760Q918 928 907 1053T856 1263T741 1388T537 1430Q410 1430 335 1389T221 1263T170 1054T158 760Q158 592 169 466T220 257T335 132T537 90Z"/><glyph unicode="ª" horiz-adv-x="825" d="M322 575Q253 575 206 594T130 651T87 746T74 879Q74 979 95 1042T163 1143T282 1194T457 1208H473Q472 1234 470 1253Q467 1276 458 1290T433 1310T389 1317Q361 1317 334 1315T281 1308T235 1297T197 1284L121 1487L169 1503Q196 1512 231 1519T312 1531T416 1536Q499 1536 554 1519T641 1464Q670 1430 682 1380T694 1253V846Q694 828 695 816T702 796T717 785T745 782V584Q740 583 727 583T699 582H651Q591 582 560 602T520 668Q505 648 489 631T449 602T396 582T322 575ZM115 477H709V276H115V477ZM386 1034Q350 1031 329 1018T298 976T289 899Q289 865 291 840T302 799T326 774T369 766Q403 766 424 775T455 802T469 844T473 899V1038Q421 1038 386 1034Z"/><glyph unicode="«" horiz-adv-x="1085" d="M92 578L295 1159H539L354 578L539 0H295L92 578ZM510 578L713 1159H956L772 578L956 0H713L510 578Z"/><glyph unicode="¬" horiz-adv-x="1536" d="M1116 352V728H212V920H1296V352H1116Z"/><glyph unicode="­" horiz-adv-x="561" d="M47 817H512V555H47V817Z"/><glyph unicode="®" horiz-adv-x="1075" d="M537 -16Q378 -16 282 32T133 176T64 418T47 760Q47 890 53 998T79 1192T131 1344T219 1452T352 1516T537 1538Q698 1538 795 1490T943 1344T1011 1101T1028 760Q1028 564 1012 419T944 177T795 32T537 -16ZM537 90Q665 90 740 131T855 256T906 466T918 760Q918 928 907 1053T856 1263T741 1388T537 1430Q410 1430 335 1389T221 1263T170 1054T158 760Q158 592 169 466T220 257T335 132T537 90ZM293 1214H539Q619 1214 671 1198T754 1148T797 1061T809 932Q809 870 798 818T758 726Q733 692 691 668L805 305H623L524 631H467V305H293V1214ZM528 788Q559 788 579 793T612 813T628 854T633 924Q633 967 629 993T612 1034T579 1052T526 1057H467V788H528Z"/><glyph unicode="¯" horiz-adv-x="793" d="M94 1493H698V1249H94V1493Z"/><glyph unicode="°" horiz-adv-x="780" d="M389 553Q270 553 203 589T102 691T61 845T53 1042Q53 1149 61 1239T102 1396T202 1499T389 1536Q508 1536 576 1499T677 1396T719 1240T727 1042Q727 935 719 846T678 691T576 590T389 553ZM389 750Q428 750 449 764T482 811T495 897T498 1030Q498 1108 496 1162T482 1249T450 1296T389 1311Q351 1311 330 1297T298 1249T285 1162T283 1030Q283 951 285 898T297 811T329 764T389 750Z"/><glyph unicode="±" horiz-adv-x="1012" d="M121 276H367V614H121V879H367V1219H643V879H891V614H643V276H891V12H121V276Z"/><glyph unicode="²" horiz-adv-x="725" d="M90 719L354 1149Q366 1168 372 1182T383 1209T388 1235T389 1266Q389 1297 371 1312T307 1327Q260 1327 227 1319T162 1294L78 1483Q123 1504 190 1517T336 1530Q483 1530 549 1478T616 1311Q616 1272 613 1240T604 1181T587 1129T561 1079L342 719H616V524H90V719Z"/><glyph unicode="³" horiz-adv-x="702" d="M315 518Q223 518 162 531T66 561L145 745Q167 734 206 724T287 713Q317 713 335 719T364 739T377 777T381 838Q381 876 377 899T357 934T308 950T219 954H178V1149H219Q269 1149 299 1152T345 1166T366 1196T371 1245Q371 1269 368 1285T356 1311T330 1325T283 1329Q255 1329 220 1321T156 1300L74 1489Q100 1501 160 1514T322 1528Q403 1528 455 1513T537 1468T580 1393T592 1286Q592 1243 590 1210T579 1151T556 1107T516 1077Q548 1064 566 1044T593 993T604 920T606 819Q606 742 592 686T544 592T454 536T315 518Z"/><glyph unicode="´" horiz-adv-x="793" d="M401 1589H725L492 1249H246L401 1589Z"/><glyph unicode="µ" horiz-adv-x="920" d="M72 1159H348V410Q348 364 352 332T370 278T406 248T467 238Q503 238 525 247T560 277T577 331T582 412V1159H854V379Q854 285 836 211T760 84Q738 63 712 46T654 17T580 -3T487 -10Q450 -10 410 -2T348 27V-311H72V1159Z"/><glyph unicode="¶" horiz-adv-x="963" d="M598 520H514V0H254V558Q189 585 149 633Q99 692 80 786T61 1014Q61 1147 80 1242T149 1399T287 1489T510 1518H856V0H598V520ZM598 760V1262H504Q451 1262 416 1253T361 1216T332 1139T324 1010Q324 933 332 885T360 808T416 770T504 760H598Z"/><glyph unicode="·" horiz-adv-x="453" d="M72 926H381V573H72V926Z"/><glyph unicode="¸" horiz-adv-x="793" d="M416 -475Q385 -475 359 -474T308 -468T259 -456T207 -438L262 -293Q302 -307 328 -312T385 -317Q410 -317 425 -313T449 -301T460 -278T463 -244Q463 -221 458 -207T440 -186T405 -178T350 -178L307 -141L340 45H492L467 -94Q503 -93 534 -99T588 -123T624 -174T637 -262Q637 -324 624 -364T584 -430T515 -465T416 -475Z"/><glyph unicode="¹" horiz-adv-x="580" d="M193 1311H84V1518H434V524H193V1311Z"/><glyph unicode="º" horiz-adv-x="827" d="M414 575Q330 575 273 597T178 655Q145 686 126 727T96 819T83 929T80 1055Q80 1120 83 1178T95 1286T123 1377T172 1450Q209 1488 267 1512T414 1536Q503 1536 561 1511T657 1448Q687 1416 705 1375T732 1284T745 1177T748 1055Q748 989 745 931T732 822T703 730T651 657Q614 620 557 598T414 575ZM414 778Q451 778 472 792T503 837T517 921T520 1049Q520 1125 517 1176T504 1259T472 1305T414 1319Q376 1319 355 1305T322 1260T308 1177T305 1049Q305 973 308 921T322 838T354 792T414 778ZM115 477H711V276H115V477Z"/><glyph unicode="»" horiz-adv-x="1085" d="M315 580L129 1159H375L575 580L375 0H129L315 580ZM733 580L547 1159H791L993 580L791 0H547L733 580Z"/><glyph unicode="¼" horiz-adv-x="1444" d="M842 1518H1073L526 0H295L842 1518ZM776 346L1038 993H1264L1010 358H1102L1151 555H1313V358H1401V162H1313V0H1098V162H776V346ZM158 1311H49V1518H397V524H158V1311Z"/><glyph unicode="½" horiz-adv-x="1534" d="M842 1518H1073L526 0H295L842 1518ZM158 1311H49V1518H397V524H158V1311ZM922 195L1186 625Q1198 644 1204 658T1215 684T1220 710T1221 741Q1221 772 1203 787T1139 803Q1091 803 1058 795T993 770L909 958Q954 980 1021 993T1167 1006Q1315 1006 1381 954T1448 786Q1448 747 1445 716T1436 657T1419 605T1393 555L1174 195H1448V0H922V195Z"/><glyph unicode="¾" horiz-adv-x="1563" d="M958 1518H1192L645 0H412L958 1518ZM297 518Q204 518 143 531T47 561L127 745Q149 734 187 724T268 713Q298 713 316 719T345 739T358 777T362 838Q362 876 358 899T338 934T289 950T201 954H160V1149H201Q251 1149 281 1152T326 1166T347 1196T352 1245Q352 1269 349 1285T337 1311T311 1325T264 1329Q236 1329 201 1321T137 1300L55 1489Q81 1501 142 1514T303 1528Q384 1528 436 1513T518 1468T561 1393T573 1286Q573 1243 571 1210T560 1151T537 1107T498 1077Q530 1064 548 1044T575 993T586 920T588 819Q588 742 574 686T526 592T436 536T297 518ZM891 346L1151 993H1378L1122 358H1214L1264 555H1427V358H1513V162H1427V0H1210V162H891V346Z"/><glyph unicode="¿" horiz-adv-x="907" d="M471 -18Q367 -18 296 10T180 83T117 188T98 311Q98 386 120 455T178 578L289 752Q310 784 321 813T339 878T347 958T350 1069H618Q617 991 615 934T604 831T581 747T539 668L416 481Q399 455 389 423T379 358Q379 335 385 314T407 277T448 252T510 242Q535 242 565 246T624 257T682 273T731 293L838 51Q800 36 762 23T679 1T584 -13T471 -18ZM330 1518H639V1208H330V1518Z"/><glyph unicode="À" horiz-adv-x="1038" d="M354 1522H682L1028 0H731L684 229H340L293 0H12L354 1522ZM625 487L547 874L512 1073L477 874L399 487H625ZM191 1917H514L670 1577H422L191 1917Z"/><glyph unicode="Á" horiz-adv-x="1038" d="M354 1522H682L1028 0H731L684 229H340L293 0H12L354 1522ZM625 487L547 874L512 1073L477 874L399 487H625ZM524 1917H848L615 1577H369L524 1917Z"/><glyph unicode="Â" horiz-adv-x="1038" d="M354 1522H682L1028 0H731L684 229H340L293 0H12L354 1522ZM625 487L547 874L512 1073L477 874L399 487H625ZM379 1917H660L866 1577H623L516 1733L410 1577H170L379 1917Z"/><glyph unicode="Ã" horiz-adv-x="1038" d="M354 1522H682L1028 0H731L684 229H340L293 0H12L354 1522ZM625 487L547 874L512 1073L477 874L399 487H625ZM168 1596Q176 1660 190 1711T230 1796T292 1849T383 1868Q414 1868 446 1858T508 1837T561 1815T600 1805Q613 1805 622 1808T637 1819T648 1841T655 1878L866 1848Q858 1784 844 1734T805 1649T743 1596T651 1577Q620 1577 588 1587T527 1609T473 1631T434 1641Q410 1641 398 1627T379 1567L168 1596Z"/><glyph unicode="Ä" horiz-adv-x="1038" d="M354 1522H682L1028 0H731L684 229H340L293 0H12L354 1522ZM625 487L547 874L512 1073L477 874L399 487H625ZM234 1839H471V1577H234V1839ZM565 1839H805V1577H565V1839Z"/><glyph unicode="Å" horiz-adv-x="1038" d="M342 1473Q322 1505 316 1548T309 1645Q309 1700 317 1746T347 1826T411 1879T518 1898Q584 1898 625 1879T689 1827T721 1747T729 1645Q729 1592 722 1549T692 1473L1028 0H731L684 229H340L293 0H12L342 1473ZM625 487L547 874L512 1073L477 874L399 487H625ZM518 1526Q543 1526 558 1534T581 1557T591 1594T594 1645Q594 1674 592 1696T581 1734T558 1757T518 1765Q471 1765 457 1734T442 1645Q442 1588 456 1557T518 1526Z"/><glyph unicode="Æ" horiz-adv-x="1415" d="M477 1518H1386V1251H928V901H1364V637H928V260H1389V0H655V317H371L274 0H-8L477 1518ZM655 559V1241L444 559H655Z"/><glyph unicode="Ç" horiz-adv-x="842" d="M532 -10Q414 -10 330 21T190 106Q144 151 116 213T73 356T52 537T47 760Q47 878 51 976T70 1154T110 1296T182 1407Q236 1467 322 1500T530 1534Q580 1534 620 1532T693 1523T758 1508T821 1487L717 1225Q683 1239 638 1247T547 1255Q480 1255 439 1236T376 1161T346 1008T338 754Q338 600 345 504T375 353T439 278T547 258Q604 258 644 269T729 299L829 47Q799 35 768 25T702 7T625 -5T532 -10ZM436 -475Q405 -475 379 -474T328 -468T279 -456T227 -438L282 -293Q322 -307 348 -312T405 -317Q430 -317 445 -313T469 -301T480 -278T483 -244Q483 -221 478 -207T460 -186T425 -178T370 -178L327 -141L360 45H512L487 -94Q523 -93 554 -99T608 -123T644 -174T657 -262Q657 -324 644 -364T604 -430T535 -465T436 -475Z"/><glyph unicode="È" horiz-adv-x="893" d="M88 1518H838V1251H375V901H817V637H375V260H838V0H88V1518ZM119 1917H442L598 1577H350L119 1917Z"/><glyph unicode="É" horiz-adv-x="893" d="M452 1917H776L543 1577H297L452 1917ZM88 1518H838V1251H375V901H817V637H375V260H838V0H88V1518Z"/><glyph unicode="Ê" horiz-adv-x="893" d="M307 1917H588L794 1577H551L444 1733L338 1577H98L307 1917ZM88 1518H838V1251H375V901H817V637H375V260H838V0H88V1518Z"/><glyph unicode="Ë" horiz-adv-x="893" d="M162 1839H399V1577H162V1839ZM493 1839H733V1577H493V1839ZM88 1518H838V1251H375V901H817V637H375V260H838V0H88V1518Z"/><glyph unicode="Ì" horiz-adv-x="492" d="M-84 1919H242L371 1579H125L-84 1919ZM102 1518H389V0H102V1518Z"/><glyph unicode="Í" horiz-adv-x="492" d="M250 1919H575L367 1579H121L250 1919ZM102 1518H389V0H102V1518Z"/><glyph unicode="Î" horiz-adv-x="492" d="M104 1919H387L582 1579H338L242 1735L150 1579H-90L104 1919ZM102 1518H389V0H102V1518Z"/><glyph unicode="Ï" horiz-adv-x="492" d="M102 1518H389V0H102V1518ZM-38 1839H199V1577H-38V1839ZM293 1839H533V1577H293V1839Z"/><glyph unicode="Ð" horiz-adv-x="1040" d="M2 883H88V1518H487Q622 1518 714 1487T864 1397Q909 1351 934 1288T973 1145T989 969T993 760Q993 641 989 542T971 361T930 216T854 109Q797 55 705 28T481 0H88V641H2V883ZM489 250Q564 250 606 272T669 351T695 506T700 756Q700 906 695 1003T668 1157T603 1235T483 1257H375V883H535V641H375V250H489Z"/><glyph unicode="Ñ" horiz-adv-x="1063" d="M88 1518H383L631 907L709 707V1518H975V0H717L426 698L354 881V0H88V1518ZM180 1596Q188 1660 202 1711T242 1796T304 1849T395 1868Q426 1868 458 1858T520 1837T573 1815T612 1805Q625 1805 634 1808T649 1819T660 1841T667 1878L878 1848Q870 1784 856 1734T817 1649T755 1596T663 1577Q632 1577 600 1587T539 1609T485 1631T446 1641Q422 1641 410 1627T391 1567L180 1596Z"/><glyph unicode="Ò" horiz-adv-x="1071" d="M535 -10Q416 -10 332 22T193 106Q141 155 112 222T69 371T51 552T47 762Q47 871 50 967T66 1144T106 1291T180 1407Q236 1466 323 1501T535 1536Q658 1536 745 1501T887 1409Q935 1359 962 1293T1003 1145T1020 967T1024 762Q1024 649 1021 551T1003 370T959 221T879 106Q823 54 738 22T535 -10ZM535 254Q601 254 639 278T698 359T723 513T729 754Q729 899 724 996T698 1152T640 1235T535 1260Q469 1260 430 1236T370 1153T344 997T338 754Q338 610 344 514T370 360T429 278T535 254ZM205 1917H528L684 1577H436L205 1917Z"/><glyph unicode="Ó" horiz-adv-x="1071" d="M538 1917H862L629 1577H383L538 1917ZM535 -10Q416 -10 332 22T193 106Q141 155 112 222T69 371T51 552T47 762Q47 871 50 967T66 1144T106 1291T180 1407Q236 1466 323 1501T535 1536Q658 1536 745 1501T887 1409Q935 1359 962 1293T1003 1145T1020 967T1024 762Q1024 649 1021 551T1003 370T959 221T879 106Q823 54 738 22T535 -10ZM535 254Q601 254 639 278T698 359T723 513T729 754Q729 899 724 996T698 1152T640 1235T535 1260Q469 1260 430 1236T370 1153T344 997T338 754Q338 610 344 514T370 360T429 278T535 254Z"/><glyph unicode="Ô" horiz-adv-x="1071" d="M393 1917H674L880 1577H637L530 1733L424 1577H184L393 1917ZM535 -10Q416 -10 332 22T193 106Q141 155 112 222T69 371T51 552T47 762Q47 871 50 967T66 1144T106 1291T180 1407Q236 1466 323 1501T535 1536Q658 1536 745 1501T887 1409Q935 1359 962 1293T1003 1145T1020 967T1024 762Q1024 649 1021 551T1003 370T959 221T879 106Q823 54 738 22T535 -10ZM535 254Q601 254 639 278T698 359T723 513T729 754Q729 899 724 996T698 1152T640 1235T535 1260Q469 1260 430 1236T370 1153T344 997T338 754Q338 610 344 514T370 360T429 278T535 254Z"/><glyph unicode="Õ" horiz-adv-x="1071" d="M535 -10Q416 -10 332 22T193 106Q141 155 112 222T69 371T51 552T47 762Q47 871 50 967T66 1144T106 1291T180 1407Q236 1466 323 1501T535 1536Q658 1536 745 1501T887 1409Q935 1359 962 1293T1003 1145T1020 967T1024 762Q1024 649 1021 551T1003 370T959 221T879 106Q823 54 738 22T535 -10ZM535 254Q601 254 639 278T698 359T723 513T729 754Q729 899 724 996T698 1152T640 1235T535 1260Q469 1260 430 1236T370 1153T344 997T338 754Q338 610 344 514T370 360T429 278T535 254ZM182 1596Q190 1660 204 1711T244 1796T306 1849T397 1868Q428 1868 460 1858T522 1837T575 1815T614 1805Q627 1805 636 1808T651 1819T662 1841T669 1878L880 1848Q872 1784 858 1734T819 1649T757 1596T665 1577Q634 1577 602 1587T541 1609T487 1631T448 1641Q424 1641 412 1627T393 1567L182 1596Z"/><glyph unicode="Ö" horiz-adv-x="1071" d="M248 1839H485V1577H248V1839ZM579 1839H819V1577H579V1839ZM535 -10Q416 -10 332 22T193 106Q141 155 112 222T69 371T51 552T47 762Q47 871 50 967T66 1144T106 1291T180 1407Q236 1466 323 1501T535 1536Q658 1536 745 1501T887 1409Q935 1359 962 1293T1003 1145T1020 967T1024 762Q1024 649 1021 551T1003 370T959 221T879 106Q823 54 738 22T535 -10ZM535 254Q601 254 639 278T698 359T723 513T729 754Q729 899 724 996T698 1152T640 1235T535 1260Q469 1260 430 1236T370 1153T344 997T338 754Q338 610 344 514T370 360T429 278T535 254Z"/><glyph unicode="×" horiz-adv-x="1012" d="M180 573L354 747L182 920L330 1071L504 897L678 1071L829 920L655 745L829 571L680 422L506 596L332 422L180 573Z"/><glyph unicode="Ø" horiz-adv-x="1071" d="M535 -10Q497 -10 462 -6L444 -84H227L261 55Q223 78 193 106Q141 155 112 222T69 371T51 552T47 762Q47 871 50 967T66 1144T106 1291T180 1407Q236 1466 323 1501T535 1536Q573 1536 607 1533L625 1604H840L808 1470Q854 1444 887 1409Q935 1359 962 1293T1003 1145T1020 967T1024 762Q1024 649 1021 551T1003 370T959 221T879 106Q823 54 738 22T535 -10ZM535 238Q603 238 644 262T706 346T734 504T741 754Q741 905 734 1005Q729 1083 715 1137L504 239Q519 238 535 238ZM535 1276Q466 1276 426 1251T363 1166T335 1005T328 754Q328 603 334 503Q339 431 352 380L562 1275Q549 1276 535 1276Z"/><glyph unicode="Ù" horiz-adv-x="1059" d="M528 -18Q408 -18 324 8T188 82Q152 115 131 157T98 250T84 358T80 479V1518H369V492Q369 424 376 378T401 302T452 261T535 248Q583 248 615 260T666 301T692 376T700 492V1518H981V479Q981 417 978 361T965 254T933 162T877 86Q826 38 740 10T528 -18ZM201 1917H524L680 1577H432L201 1917Z"/><glyph unicode="Ú" horiz-adv-x="1059" d="M534 1917H858L625 1577H379L534 1917ZM528 -18Q408 -18 324 8T188 82Q152 115 131 157T98 250T84 358T80 479V1518H369V492Q369 424 376 378T401 302T452 261T535 248Q583 248 615 260T666 301T692 376T700 492V1518H981V479Q981 417 978 361T965 254T933 162T877 86Q826 38 740 10T528 -18Z"/><glyph unicode="Û" horiz-adv-x="1059" d="M389 1917H670L876 1577H633L526 1733L420 1577H180L389 1917ZM528 -18Q408 -18 324 8T188 82Q152 115 131 157T98 250T84 358T80 479V1518H369V492Q369 424 376 378T401 302T452 261T535 248Q583 248 615 260T666 301T692 376T700 492V1518H981V479Q981 417 978 361T965 254T933 162T877 86Q826 38 740 10T528 -18Z"/><glyph unicode="Ü" horiz-adv-x="1059" d="M244 1839H481V1577H244V1839ZM575 1839H815V1577H575V1839ZM528 -18Q408 -18 324 8T188 82Q152 115 131 157T98 250T84 358T80 479V1518H369V492Q369 424 376 378T401 302T452 261T535 248Q583 248 615 260T666 301T692 376T700 492V1518H981V479Q981 417 978 361T965 254T933 162T877 86Q826 38 740 10T528 -18Z"/><glyph unicode="Ý" horiz-adv-x="997" d="M-10 1518H295L502 895L711 1518H1008L641 486V0H354V491L-10 1518ZM503 1917H827L594 1577H348L503 1917Z"/><glyph unicode="Þ" horiz-adv-x="1008" d="M88 1518H373V1292H504Q643 1292 731 1262T871 1170T941 1012T961 788Q961 660 942 565T873 406T735 312T508 281H373V0H88V1518ZM504 539Q557 539 591 550T646 590T675 665T684 784Q684 858 676 906T647 982T592 1021T504 1032H373V539H504Z"/><glyph unicode="ß" horiz-adv-x="944" d="M72 1202Q72 1296 91 1367T156 1487T279 1560T473 1585Q589 1585 662 1561T778 1488T836 1363T852 1186Q852 1107 851 1049T840 950T813 883T760 842Q814 827 844 798T888 719T906 600T909 432Q909 297 888 213T817 81T683 17T473 0H422V246H473Q524 246 558 255T611 288T639 356T647 467Q647 535 641 577T616 642T563 672T473 680H438V911H473Q515 911 539 921T576 956T592 1018T596 1114Q596 1172 593 1212T577 1277T540 1313T473 1325Q431 1325 406 1313T368 1281T352 1233T348 1176V0H72V1202Z"/><glyph unicode="à" horiz-adv-x="895" d="M340 -10Q253 -10 195 13T100 83T49 200T33 365Q33 488 59 568T143 696T291 763T508 782H525Q525 806 522 825Q519 854 509 871T477 897T422 905Q354 905 290 893T184 864L90 1112Q115 1122 149 1133T227 1153T328 1168T457 1174Q559 1174 626 1152T733 1085Q770 1045 784 982T799 825V322Q799 299 800 285T808 262T827 250T862 246V0Q855 -2 840 -2T807 -3T772 -4H748Q617 -4 596 76Q578 57 556 41T503 14T433 -3T340 -10ZM417 556Q373 550 347 532T310 479T299 389Q299 347 302 316T315 264T344 233T397 223Q440 223 465 235T504 269T522 323T526 393V563Q460 563 417 556ZM119 1589H442L598 1249H350L119 1589Z"/><glyph unicode="á" horiz-adv-x="895" d="M340 -10Q253 -10 195 13T100 83T49 200T33 365Q33 488 59 568T143 696T291 763T508 782H525Q525 806 522 825Q519 854 509 871T477 897T422 905Q354 905 290 893T184 864L90 1112Q115 1122 149 1133T227 1153T328 1168T457 1174Q559 1174 626 1152T733 1085Q770 1045 784 982T799 825V322Q799 299 800 285T808 262T827 250T862 246V0Q855 -2 840 -2T807 -3T772 -4H748Q617 -4 596 76Q578 57 556 41T503 14T433 -3T340 -10ZM417 556Q373 550 347 532T310 479T299 389Q299 347 302 316T315 264T344 233T397 223Q440 223 465 235T504 269T522 323T526 393V563Q460 563 417 556ZM452 1589H776L543 1249H297L452 1589Z"/><glyph unicode="â" horiz-adv-x="895" d="M340 -10Q253 -10 195 13T100 83T49 200T33 365Q33 488 59 568T143 696T291 763T508 782H525Q525 806 522 825Q519 854 509 871T477 897T422 905Q354 905 290 893T184 864L90 1112Q115 1122 149 1133T227 1153T328 1168T457 1174Q559 1174 626 1152T733 1085Q770 1045 784 982T799 825V322Q799 299 800 285T808 262T827 250T862 246V0Q855 -2 840 -2T807 -3T772 -4H748Q617 -4 596 76Q578 57 556 41T503 14T433 -3T340 -10ZM417 556Q373 550 347 532T310 479T299 389Q299 347 302 316T315 264T344 233T397 223Q440 223 465 235T504 269T522 323T526 393V563Q460 563 417 556ZM307 1589H588L794 1249H551L444 1405L338 1249H98L307 1589Z"/><glyph unicode="ã" horiz-adv-x="895" d="M340 -10Q253 -10 195 13T100 83T49 200T33 365Q33 488 59 568T143 696T291 763T508 782H525Q525 806 522 825Q519 854 509 871T477 897T422 905Q354 905 290 893T184 864L90 1112Q115 1122 149 1133T227 1153T328 1168T457 1174Q559 1174 626 1152T733 1085Q770 1045 784 982T799 825V322Q799 299 800 285T808 262T827 250T862 246V0Q855 -2 840 -2T807 -3T772 -4H748Q617 -4 596 76Q578 57 556 41T503 14T433 -3T340 -10ZM417 556Q373 550 347 532T310 479T299 389Q299 347 302 316T315 264T344 233T397 223Q440 223 465 235T504 269T522 323T526 393V563Q460 563 417 556ZM96 1268Q104 1332 118 1383T158 1468T220 1521T311 1540Q342 1540 374 1530T436 1509T489 1487T528 1477Q541 1477 550 1480T565 1491T576 1513T583 1550L794 1520Q786 1456 772 1406T733 1321T671 1268T579 1249Q548 1249 516 1259T455 1281T401 1303T362 1313Q338 1313 326 1299T307 1239L96 1268Z"/><glyph unicode="ä" horiz-adv-x="895" d="M340 -10Q253 -10 195 13T100 83T49 200T33 365Q33 488 59 568T143 696T291 763T508 782H525Q525 806 522 825Q519 854 509 871T477 897T422 905Q354 905 290 893T184 864L90 1112Q115 1122 149 1133T227 1153T328 1168T457 1174Q559 1174 626 1152T733 1085Q770 1045 784 982T799 825V322Q799 299 800 285T808 262T827 250T862 246V0Q855 -2 840 -2T807 -3T772 -4H748Q617 -4 596 76Q578 57 556 41T503 14T433 -3T340 -10ZM417 556Q373 550 347 532T310 479T299 389Q299 347 302 316T315 264T344 233T397 223Q440 223 465 235T504 269T522 323T526 393V563Q460 563 417 556ZM162 1511H399V1249H162V1511ZM493 1511H733V1249H493V1511Z"/><glyph unicode="å" horiz-adv-x="895" d="M340 -10Q253 -10 195 13T100 83T49 200T33 365Q33 488 59 568T143 696T291 763T508 782H525Q525 806 522 825Q519 854 509 871T477 897T422 905Q354 905 290 893T184 864L90 1112Q115 1122 149 1133T227 1153T328 1168T457 1174Q559 1174 626 1152T733 1085Q770 1045 784 982T799 825V322Q799 299 800 285T808 262T827 250T862 246V0Q855 -2 840 -2T807 -3T772 -4H748Q617 -4 596 76Q578 57 556 41T503 14T433 -3T340 -10ZM417 556Q373 550 347 532T310 479T299 389Q299 347 302 316T315 264T344 233T397 223Q440 223 465 235T504 269T522 323T526 393V563Q460 563 417 556ZM446 1235Q380 1235 339 1253T276 1305T245 1383T237 1483Q237 1538 245 1584T275 1665T339 1718T446 1737Q512 1737 553 1718T617 1665T649 1585T657 1483Q657 1429 649 1384T618 1305T553 1254T446 1235ZM446 1364Q471 1364 486 1372T509 1395T519 1432T522 1483Q522 1512 520 1534T509 1572T486 1596T446 1604Q399 1604 385 1573T370 1483Q370 1426 384 1395T446 1364Z"/><glyph unicode="æ" horiz-adv-x="1329" d="M915 -10Q756 -10 666 78Q648 94 634 113Q618 87 600 68Q574 40 538 23T454 -2T340 -10Q256 -10 198 13T103 83T50 200T33 365Q33 488 59 568T143 695T291 761T508 780H526Q525 806 522 825Q519 854 509 871T477 897T422 905Q354 905 290 893T184 864L90 1112Q115 1122 149 1133T227 1153T328 1168T457 1174Q558 1174 618 1152Q664 1135 697 1105L703 1109Q730 1130 763 1144T838 1166T930 1174Q1118 1174 1198 1081Q1232 1043 1252 988T1281 857T1292 682T1290 455H796Q798 423 799 398Q804 331 820 294T867 244T952 231Q1024 231 1090 247T1208 281L1284 47Q1236 32 1195 22T1111 4T1021 -6T915 -10ZM417 556Q373 550 347 532T310 479T299 389Q299 347 302 316T315 264T344 233T397 223Q440 223 465 235T504 273T522 336T526 424V563Q460 563 417 556ZM1044 682Q1043 757 1039 804T1023 876T989 911T928 920Q883 920 857 905T817 850T799 744Q797 716 796 682H1044Z"/><glyph unicode="ç" horiz-adv-x="686" d="M432 -8Q341 -8 276 15T164 78Q123 115 99 166T61 281T43 420T39 582Q39 663 43 733T58 864T91 975T147 1063Q195 1114 267 1142T442 1171Q484 1171 515 1169T570 1164T614 1156T653 1147L575 887Q551 895 525 899T467 903Q423 903 395 891T352 843T330 743T324 573Q324 468 330 403T352 302T397 253T471 240Q499 240 528 245T580 262L657 25Q631 16 607 10T556 0T500 -6T432 -8ZM623 -475Q592 -475 566 -474T515 -468T466 -456T414 -438L469 -293Q509 -307 535 -312T592 -317Q617 -317 632 -313T656 -301T667 -278T670 -244Q670 -221 665 -207T647 -186T612 -178T557 -178L514 -141L547 45H699L674 -94Q710 -93 741 -99T795 -123T831 -174T844 -262Q844 -324 831 -364T791 -430T722 -465T623 -475Z"/><glyph unicode="è" horiz-adv-x="842" d="M426 -10Q387 -10 349 -5T277 12T214 39T162 78Q123 115 99 166T62 281T44 420T39 582Q39 671 43 743T60 874T94 980T152 1065Q197 1114 267 1144T442 1174Q630 1174 711 1081Q744 1043 763 988T792 857T803 682T801 455H306Q308 423 310 398Q315 331 331 294T379 244T465 231Q536 231 602 247T721 281L797 47Q749 32 707 22T622 4T532 -6T426 -10ZM555 682Q554 754 551 800T536 873T502 910T440 920Q396 920 369 905T328 850T309 744Q307 716 306 682H555ZM93 1589H416L572 1249H324L93 1589Z"/><glyph unicode="é" horiz-adv-x="842" d="M426 1589H750L517 1249H271L426 1589ZM426 -10Q387 -10 349 -5T277 12T214 39T162 78Q123 115 99 166T62 281T44 420T39 582Q39 671 43 743T60 874T94 980T152 1065Q197 1114 267 1144T442 1174Q630 1174 711 1081Q744 1043 763 988T792 857T803 682T801 455H306Q308 423 310 398Q315 331 331 294T379 244T465 231Q536 231 602 247T721 281L797 47Q749 32 707 22T622 4T532 -6T426 -10ZM555 682Q554 754 551 800T536 873T502 910T440 920Q396 920 369 905T328 850T309 744Q307 716 306 682H555Z"/><glyph unicode="ê" horiz-adv-x="842" d="M281 1589H562L768 1249H525L418 1405L312 1249H72L281 1589ZM426 -10Q387 -10 349 -5T277 12T214 39T162 78Q123 115 99 166T62 281T44 420T39 582Q39 671 43 743T60 874T94 980T152 1065Q197 1114 267 1144T442 1174Q630 1174 711 1081Q744 1043 763 988T792 857T803 682T801 455H306Q308 423 310 398Q315 331 331 294T379 244T465 231Q536 231 602 247T721 281L797 47Q749 32 707 22T622 4T532 -6T426 -10ZM555 682Q554 754 551 800T536 873T502 910T440 920Q396 920 369 905T328 850T309 744Q307 716 306 682H555Z"/><glyph unicode="ë" horiz-adv-x="842" d="M136 1511H373V1249H136V1511ZM467 1511H707V1249H467V1511ZM426 -10Q387 -10 349 -5T277 12T214 39T162 78Q123 115 99 166T62 281T44 420T39 582Q39 671 43 743T60 874T94 980T152 1065Q197 1114 267 1144T442 1174Q630 1174 711 1081Q744 1043 763 988T792 857T803 682T801 455H306Q308 423 310 398Q315 331 331 294T379 244T465 231Q536 231 602 247T721 281L797 47Q749 32 707 22T622 4T532 -6T426 -10ZM555 682Q554 754 551 800T536 873T502 910T440 920Q396 920 369 905T328 850T309 744Q307 716 306 682H555Z"/><glyph unicode="ì" horiz-adv-x="436" d="M-70 1589H254L342 1249H96L-70 1589ZM80 1159H356V0H80V1159Z"/><glyph unicode="í" horiz-adv-x="436" d="M182 1589H506L338 1249H92L182 1589ZM80 1159H356V0H80V1159Z"/><glyph unicode="î" horiz-adv-x="436" d="M78 1589H358L545 1249H301L215 1405L129 1249H-111L78 1589ZM80 1159H356V0H80V1159Z"/><glyph unicode="ï" horiz-adv-x="436" d="M-33 1511H184V1249H-33V1511ZM252 1511H467V1249H252V1511ZM80 1159H356V0H80V1159Z"/><glyph unicode="ð" d="M358 1368L440 1386V1387Q411 1443 383 1487L602 1587Q648 1523 692 1441L864 1479V1262L775 1242Q779 1229 784 1215Q820 1099 841 958T864 651V582Q864 496 860 422T842 286T806 176T743 92Q644 -10 453 -10Q352 -10 281 16T162 88Q123 124 99 171T62 279T44 415T39 584Q39 657 42 722T55 842T86 943T141 1024Q182 1066 244 1085T395 1104Q449 1104 496 1091T567 1049Q557 1097 538 1154Q532 1171 526 1188L358 1151V1368ZM453 240Q498 240 524 255T563 307T580 403T584 549Q584 635 581 694T564 789T524 842T453 858Q406 858 379 842T338 790T321 694T317 549Q317 462 320 403T338 308T379 256T453 240Z"/><glyph unicode="ñ" horiz-adv-x="928" d="M72 1145L301 1159L315 1092Q343 1130 405 1152T561 1174Q611 1174 648 1169T713 1153T761 1129T797 1096Q835 1048 848 980T862 823V0H584V721Q584 779 580 815T563 871T530 898T477 905Q436 905 411 893T371 856T353 791T348 696V0H72V1145ZM113 1268Q121 1332 135 1383T175 1468T237 1521T328 1540Q359 1540 391 1530T453 1509T506 1487T545 1477Q558 1477 567 1480T582 1491T593 1513T600 1550L811 1520Q803 1456 789 1406T750 1321T688 1268T596 1249Q565 1249 533 1259T472 1281T418 1303T379 1313Q355 1313 343 1299T324 1239L113 1268Z"/><glyph unicode="ò" d="M453 -10Q348 -10 278 17T162 88Q121 126 97 177T60 290T43 426T39 582Q39 662 42 733T58 865T92 977T154 1067Q200 1114 272 1144T453 1174Q562 1174 634 1144T754 1065Q791 1026 812 976T845 864T860 732T864 582Q864 501 860 429T844 294T807 182T743 92Q698 46 628 18T453 -10ZM453 240Q498 240 524 256T563 312T580 414T584 571Q584 665 581 729T564 832T524 888T453 905Q406 905 379 888T338 832T321 729T317 571Q317 478 320 415T338 312T379 257T453 240ZM121 1589H444L600 1249H352L121 1589Z"/><glyph unicode="ó" d="M454 1589H778L545 1249H299L454 1589ZM453 -10Q348 -10 278 17T162 88Q121 126 97 177T60 290T43 426T39 582Q39 662 42 733T58 865T92 977T154 1067Q200 1114 272 1144T453 1174Q562 1174 634 1144T754 1065Q791 1026 812 976T845 864T860 732T864 582Q864 501 860 429T844 294T807 182T743 92Q698 46 628 18T453 -10ZM453 240Q498 240 524 256T563 312T580 414T584 571Q584 665 581 729T564 832T524 888T453 905Q406 905 379 888T338 832T321 729T317 571Q317 478 320 415T338 312T379 257T453 240Z"/><glyph unicode="ô" d="M309 1589H590L796 1249H553L446 1405L340 1249H100L309 1589ZM453 -10Q348 -10 278 17T162 88Q121 126 97 177T60 290T43 426T39 582Q39 662 42 733T58 865T92 977T154 1067Q200 1114 272 1144T453 1174Q562 1174 634 1144T754 1065Q791 1026 812 976T845 864T860 732T864 582Q864 501 860 429T844 294T807 182T743 92Q698 46 628 18T453 -10ZM453 240Q498 240 524 256T563 312T580 414T584 571Q584 665 581 729T564 832T524 888T453 905Q406 905 379 888T338 832T321 729T317 571Q317 478 320 415T338 312T379 257T453 240Z"/><glyph unicode="õ" d="M453 -10Q348 -10 278 17T162 88Q121 126 97 177T60 290T43 426T39 582Q39 662 42 733T58 865T92 977T154 1067Q200 1114 272 1144T453 1174Q562 1174 634 1144T754 1065Q791 1026 812 976T845 864T860 732T864 582Q864 501 860 429T844 294T807 182T743 92Q698 46 628 18T453 -10ZM453 240Q498 240 524 256T563 312T580 414T584 571Q584 665 581 729T564 832T524 888T453 905Q406 905 379 888T338 832T321 729T317 571Q317 478 320 415T338 312T379 257T453 240ZM98 1268Q106 1332 120 1383T160 1468T222 1521T313 1540Q344 1540 376 1530T438 1509T491 1487T530 1477Q543 1477 552 1480T567 1491T578 1513T585 1550L796 1520Q788 1456 774 1406T735 1321T673 1268T581 1249Q550 1249 518 1259T457 1281T403 1303T364 1313Q340 1313 328 1299T309 1239L98 1268Z"/><glyph unicode="ö" d="M164 1511H401V1249H164V1511ZM495 1511H735V1249H495V1511ZM453 -10Q348 -10 278 17T162 88Q121 126 97 177T60 290T43 426T39 582Q39 662 42 733T58 865T92 977T154 1067Q200 1114 272 1144T453 1174Q562 1174 634 1144T754 1065Q791 1026 812 976T845 864T860 732T864 582Q864 501 860 429T844 294T807 182T743 92Q698 46 628 18T453 -10ZM453 240Q498 240 524 256T563 312T580 414T584 571Q584 665 581 729T564 832T524 888T453 905Q406 905 379 888T338 832T321 729T317 571Q317 478 320 415T338 312T379 257T453 240Z"/><glyph unicode="÷" horiz-adv-x="1012" d="M371 502H643V256H371V502ZM121 879H891V614H121V879ZM371 1235H643V987H371V1235Z"/><glyph unicode="ø" d="M453 -10Q417 -10 384 -6L362 -88H170L208 51Q183 68 162 88Q121 126 97 177T60 290T43 426T39 582Q39 662 42 733T58 865T92 977T154 1067Q200 1114 272 1144T453 1174Q489 1174 521 1170L543 1249H735L696 1111Q729 1090 754 1065Q791 1026 812 976T845 864T860 732T864 582Q864 501 860 429T844 294T807 182T743 92Q698 46 628 18T453 -10ZM453 227Q500 227 528 244T571 302T591 409T596 571Q596 670 591 736Q589 756 587 773L433 227Q442 227 453 227ZM453 915Q405 915 376 898T331 842T310 736T305 571Q305 475 310 409Q311 390 313 373L466 915H453Z"/><glyph unicode="ù" horiz-adv-x="915" d="M457 -10Q350 -10 280 15T164 78Q104 132 85 207T66 377V1159H342V410Q342 364 346 332T363 278T399 248T461 238Q497 238 519 247T554 277T570 331T575 412V1159H850V379Q850 285 831 211T756 84Q711 43 639 17T457 -10ZM129 1589H452L608 1249H360L129 1589Z"/><glyph unicode="ú" horiz-adv-x="915" d="M462 1589H786L553 1249H307L462 1589ZM457 -10Q350 -10 280 15T164 78Q104 132 85 207T66 377V1159H342V410Q342 364 346 332T363 278T399 248T461 238Q497 238 519 247T554 277T570 331T575 412V1159H850V379Q850 285 831 211T756 84Q711 43 639 17T457 -10Z"/><glyph unicode="û" horiz-adv-x="915" d="M317 1589H598L804 1249H561L454 1405L348 1249H108L317 1589ZM457 -10Q350 -10 280 15T164 78Q104 132 85 207T66 377V1159H342V410Q342 364 346 332T363 278T399 248T461 238Q497 238 519 247T554 277T570 331T575 412V1159H850V379Q850 285 831 211T756 84Q711 43 639 17T457 -10Z"/><glyph unicode="ü" horiz-adv-x="915" d="M172 1511H409V1249H172V1511ZM503 1511H743V1249H503V1511ZM457 -10Q350 -10 280 15T164 78Q104 132 85 207T66 377V1159H342V410Q342 364 346 332T363 278T399 248T461 238Q497 238 519 247T554 277T570 331T575 412V1159H850V379Q850 285 831 211T756 84Q711 43 639 17T457 -10Z"/><glyph unicode="ý" horiz-adv-x="831" d="M0 1159H279L379 684L423 446L461 684L555 1159H829L524 -78Q505 -152 477 -197T409 -269T316 -304T193 -315H168Q153 -315 137 -315T107 -314T86 -311V-68H174Q202 -67 220 -65T249 -58T266 -45T276 -25L285 10L0 1159ZM419 1589H743L510 1249H264L419 1589Z"/><glyph unicode="þ" horiz-adv-x="930" d="M72 1563H346V1104Q389 1147 452 1159T594 1171Q662 1171 710 1151T791 1096Q825 1060 845 1009T874 893T886 750T889 582Q889 490 887 411T873 265T841 148T780 61Q748 30 699 11T582 -8Q504 -8 445 5T348 57V-311H72V1563ZM487 240Q529 240 553 256T590 310T605 412T608 569Q608 663 605 727T590 831T554 888T487 905Q439 905 412 889T370 833T352 730T348 569Q348 474 352 411T370 309T411 256T487 240Z"/><glyph unicode="ÿ" horiz-adv-x="831" d="M0 1159H279L379 684L423 446L461 684L555 1159H829L524 -78Q505 -152 477 -197T409 -269T316 -304T193 -315H168Q153 -315 137 -315T107 -314T86 -311V-68H174Q202 -67 220 -65T249 -58T266 -45T276 -25L285 10L0 1159ZM129 1511H366V1249H129V1511ZM460 1511H700V1249H460V1511Z"/><glyph unicode="Ā" horiz-adv-x="1038" d="M354 1522H682L1028 0H731L684 229H340L293 0H12L354 1522ZM625 487L547 874L512 1073L477 874L399 487H625ZM217 1821H821V1577H217V1821Z"/><glyph unicode="ā" horiz-adv-x="895" d="M340 -10Q253 -10 195 13T100 83T49 200T33 365Q33 488 59 568T143 696T291 763T508 782H525Q525 806 522 825Q519 854 509 871T477 897T422 905Q354 905 290 893T184 864L90 1112Q115 1122 149 1133T227 1153T328 1168T457 1174Q559 1174 626 1152T733 1085Q770 1045 784 982T799 825V322Q799 299 800 285T808 262T827 250T862 246V0Q855 -2 840 -2T807 -3T772 -4H748Q617 -4 596 76Q578 57 556 41T503 14T433 -3T340 -10ZM417 556Q373 550 347 532T310 479T299 389Q299 347 302 316T315 264T344 233T397 223Q440 223 465 235T504 269T522 323T526 393V563Q460 563 417 556ZM145 1493H749V1249H145V1493Z"/><glyph unicode="Ă" horiz-adv-x="1038" d="M354 1522H682L1028 0H731L684 229H340L293 0H12L354 1522ZM625 487L547 874L512 1073L477 874L399 487H625ZM516 1567Q432 1567 376 1587T285 1650T233 1758T209 1913L406 1927Q410 1889 415 1860T433 1812T464 1782T516 1772Q548 1772 568 1781T601 1810T619 1859T629 1927L828 1913Q821 1822 804 1757T751 1649T658 1587T516 1567Z"/><glyph unicode="ă" horiz-adv-x="895" d="M340 -10Q253 -10 195 13T100 83T49 200T33 365Q33 488 59 568T143 696T291 763T508 782H525Q525 806 522 825Q519 854 509 871T477 897T422 905Q354 905 290 893T184 864L90 1112Q115 1122 149 1133T227 1153T328 1168T457 1174Q559 1174 626 1152T733 1085Q770 1045 784 982T799 825V322Q799 299 800 285T808 262T827 250T862 246V0Q855 -2 840 -2T807 -3T772 -4H748Q617 -4 596 76Q578 57 556 41T503 14T433 -3T340 -10ZM417 556Q373 550 347 532T310 479T299 389Q299 347 302 316T315 264T344 233T397 223Q440 223 465 235T504 269T522 323T526 393V563Q460 563 417 556ZM444 1239Q360 1239 304 1259T213 1322T161 1430T137 1585L334 1599Q338 1561 343 1532T361 1484T392 1454T444 1444Q476 1444 496 1453T529 1482T547 1531T557 1599L756 1585Q749 1494 732 1429T679 1321T586 1259T444 1239Z"/><glyph unicode="Ą" horiz-adv-x="1038" d="M354 1522H682L1028 0H915Q887 -27 865 -51T828 -98T805 -145T797 -197Q797 -243 813 -257T864 -272H948V-428H831Q769 -428 727 -417T659 -382T622 -319T610 -227Q610 -189 620 -156T648 -93T686 -39T729 10L684 229H340L293 0H12L354 1522ZM625 487L547 874L512 1073L477 874L399 487H625Z"/><glyph unicode="ą" horiz-adv-x="895" d="M340 -10Q253 -10 195 13T100 83T49 200T33 365Q33 488 59 568T143 696T291 763T508 782H526Q525 816 521 839T505 877T473 898T422 905Q354 905 290 893T184 864L90 1112Q115 1122 149 1133T227 1153T328 1168T457 1174Q559 1174 626 1152T733 1085Q770 1045 784 982T799 825V322Q799 299 800 285T808 262T827 250T862 246V0Q833 -27 811 -51T774 -98T751 -145T743 -197Q743 -243 759 -257T811 -272H895V-428H780Q717 -428 675 -417T607 -382T570 -319T559 -227Q559 -187 568 -153T593 -91T629 -39T672 4Q641 13 622 30T596 76Q578 57 556 41T503 14T433 -3T340 -10ZM397 223Q440 223 465 235T504 269T522 323T526 393V563Q459 563 416 557T346 531T310 478T299 389Q299 347 302 316T315 264T344 233T397 223Z"/><glyph unicode="Ć" horiz-adv-x="842" d="M426 1917H750L517 1577H271L426 1917ZM532 -10Q414 -10 330 21T190 106Q144 151 116 213T73 356T52 537T47 760Q47 878 51 976T70 1154T110 1296T182 1407Q236 1467 322 1500T530 1534Q580 1534 620 1532T693 1523T758 1508T821 1487L717 1225Q683 1239 638 1247T547 1255Q480 1255 439 1236T376 1161T346 1008T338 754Q338 600 345 504T375 353T439 278T547 258Q604 258 644 269T729 299L829 47Q799 35 768 25T702 7T625 -5T532 -10Z"/><glyph unicode="ć" horiz-adv-x="686" d="M607 1589H931L698 1249H452L607 1589ZM432 -8Q341 -8 276 15T164 78Q123 115 99 166T61 281T43 420T39 582Q39 663 43 733T58 864T91 975T147 1063Q195 1114 267 1142T442 1171Q484 1171 515 1169T570 1164T614 1156T653 1147L575 887Q551 895 525 899T467 903Q423 903 395 891T352 843T330 743T324 573Q324 468 330 403T352 302T397 253T471 240Q499 240 528 245T580 262L657 25Q631 16 607 10T556 0T500 -6T432 -8Z"/><glyph unicode="Č" horiz-adv-x="842" d="M72 1917H316L424 1760L531 1917H768L562 1577H281L72 1917ZM532 -10Q414 -10 330 21T190 106Q144 151 116 213T73 356T52 537T47 760Q47 878 51 976T70 1154T110 1296T182 1407Q236 1467 322 1500T530 1534Q580 1534 620 1532T693 1523T758 1508T821 1487L717 1225Q683 1239 638 1247T547 1255Q480 1255 439 1236T376 1161T346 1008T338 754Q338 600 345 504T375 353T439 278T547 258Q604 258 644 269T729 299L829 47Q799 35 768 25T702 7T625 -5T532 -10Z"/><glyph unicode="č" horiz-adv-x="686" d="M253 1589H497L605 1432L712 1589H949L743 1249H462L253 1589ZM432 -8Q341 -8 276 15T164 78Q123 115 99 166T61 281T43 420T39 582Q39 663 43 733T58 864T91 975T147 1063Q195 1114 267 1142T442 1171Q484 1171 515 1169T570 1164T614 1156T653 1147L575 887Q551 895 525 899T467 903Q423 903 395 891T352 843T330 743T324 573Q324 468 330 403T352 302T397 253T471 240Q499 240 528 245T580 262L657 25Q631 16 607 10T556 0T500 -6T432 -8Z"/><glyph unicode="Ď" horiz-adv-x="1040" d="M170 1917H414L522 1760L629 1917H866L660 1577H379L170 1917ZM88 1518H487Q622 1518 714 1487T864 1397Q909 1351 934 1288T973 1145T989 969T993 760Q993 641 989 542T971 361T930 216T854 109Q797 55 705 28T481 0H88V1518ZM489 250Q564 250 606 272T669 351T695 506T700 756Q700 906 695 1003T668 1157T603 1235T483 1257H375V250H489Z"/><glyph unicode="ď" horiz-adv-x="1169" d="M928 1147Q965 1171 987 1186T1022 1216T1038 1246T1042 1288H926V1563H1188V1323Q1188 1274 1182 1236T1157 1166T1100 1103T999 1038L928 1147ZM336 -10Q268 -10 221 12T141 68Q106 104 87 155T57 273T44 417T41 586Q41 678 44 757T58 901T90 1018T150 1104Q184 1135 232 1153T348 1171Q426 1171 485 1159T582 1108V1563H858V10L629 -4L616 74Q597 48 568 32T503 7T424 -6T336 -10ZM442 240Q490 240 517 256T559 311T578 414T582 575Q582 670 578 733T560 835T518 889T442 905Q401 905 377 889T341 835T326 733T322 575Q322 481 325 417T341 314T377 257T442 240Z"/><glyph unicode="Đ" horiz-adv-x="1040" d="M2 883H88V1518H487Q622 1518 714 1487T864 1397Q909 1351 934 1288T973 1145T989 969T993 760Q993 641 989 542T971 361T930 216T854 109Q797 55 705 28T481 0H88V641H2V883ZM489 250Q564 250 606 272T669 351T695 506T700 756Q700 906 695 1003T668 1157T603 1235T483 1257H375V883H535V641H375V250H489Z"/><glyph unicode="đ" horiz-adv-x="930" d="M336 -10Q268 -10 221 12T141 68Q106 104 87 155T57 273T44 417T41 586Q41 678 44 757T58 901T90 1018T150 1104Q184 1135 232 1153T348 1171Q426 1171 485 1159T582 1108V1239H444V1475H582V1563H858V1475H930V1239H858V10L629 -4L616 74Q597 48 568 32T503 7T424 -6T336 -10ZM442 240Q490 240 517 256T559 311T578 414T582 575Q582 670 578 733T560 835T518 889T442 905Q401 905 377 889T341 835T326 733T322 575Q322 481 325 417T341 314T377 257T442 240Z"/><glyph unicode="Ē" horiz-adv-x="893" d="M88 1518H838V1251H375V901H817V637H375V260H838V0H88V1518ZM145 1821H749V1577H145V1821Z"/><glyph unicode="ē" horiz-adv-x="842" d="M426 -10Q387 -10 349 -5T277 12T214 39T162 78Q123 115 99 166T62 281T44 420T39 582Q39 671 43 743T60 874T94 980T152 1065Q197 1114 267 1144T442 1174Q630 1174 711 1081Q744 1043 763 988T792 857T803 682T801 455H306Q308 423 310 398Q315 331 331 294T379 244T465 231Q536 231 602 247T721 281L797 47Q749 32 707 22T622 4T532 -6T426 -10ZM555 682Q554 754 551 800T536 873T502 910T440 920Q396 920 369 905T328 850T309 744Q307 716 306 682H555ZM119 1493H723V1249H119V1493Z"/><glyph unicode="Ė" horiz-adv-x="893" d="M88 1518H838V1251H375V901H817V637H375V260H838V0H88V1518ZM307 1858H586V1577H307V1858Z"/><glyph unicode="ė" horiz-adv-x="842" d="M426 -10Q387 -10 349 -5T277 12T214 39T162 78Q123 115 99 166T62 281T44 420T39 582Q39 671 43 743T60 874T94 980T152 1065Q197 1114 267 1144T442 1174Q630 1174 711 1081Q744 1043 763 988T792 857T803 682T801 455H306Q308 423 310 398Q315 331 331 294T379 244T465 231Q536 231 602 247T721 281L797 47Q749 32 707 22T622 4T532 -6T426 -10ZM555 682Q554 754 551 800T536 873T502 910T440 920Q396 920 369 905T328 850T309 744Q307 716 306 682H555ZM281 1530H560V1249H281V1530Z"/><glyph unicode="Ę" horiz-adv-x="893" d="M88 1518H838V1251H375V901H817V637H375V260H838V0H756Q718 -51 691 -100T664 -197Q664 -243 680 -257T731 -272H815V-428H700Q637 -428 595 -417T527 -382T490 -319T479 -227Q479 -154 509 -99T578 0H88V1518Z"/><glyph unicode="ę" horiz-adv-x="842" d="M426 -10Q387 -10 349 -5T277 12T214 39T162 78Q123 115 99 166T62 281T44 420T39 582Q39 671 43 743T60 874T94 980T152 1065Q197 1114 267 1144T442 1174Q630 1174 711 1081Q744 1043 763 988T792 857T803 682T801 455H305Q307 385 315 341T342 273T390 240T465 231Q536 231 602 247T721 281L797 47Q771 38 746 32T698 18Q654 -38 622 -91T590 -197Q590 -243 606 -257T657 -272H741V-428H627Q564 -428 522 -417T454 -382T417 -319T406 -227Q406 -192 413 -162T433 -104T462 -54T496 -8Q479 -10 462 -10H426ZM440 920Q402 920 377 909T337 871T314 798T305 682H555Q554 754 551 800T536 873T502 910T440 920Z"/><glyph unicode="Ě" horiz-adv-x="893" d="M98 1917H342L450 1760L557 1917H794L588 1577H307L98 1917ZM88 1518H838V1251H375V901H817V637H375V260H838V0H88V1518Z"/><glyph unicode="ě" horiz-adv-x="842" d="M72 1589H316L424 1432L531 1589H768L562 1249H281L72 1589ZM426 -10Q387 -10 349 -5T277 12T214 39T162 78Q123 115 99 166T62 281T44 420T39 582Q39 671 43 743T60 874T94 980T152 1065Q197 1114 267 1144T442 1174Q630 1174 711 1081Q744 1043 763 988T792 857T803 682T801 455H306Q308 423 310 398Q315 331 331 294T379 244T465 231Q536 231 602 247T721 281L797 47Q749 32 707 22T622 4T532 -6T426 -10ZM555 682Q554 754 551 800T536 873T502 910T440 920Q396 920 369 905T328 850T309 744Q307 716 306 682H555Z"/><glyph unicode="Ğ" horiz-adv-x="983" d="M496 -10Q389 -10 315 13T190 84Q142 128 114 193T71 343T52 533T47 760Q47 874 51 971T69 1149T109 1294T180 1407Q208 1437 243 1460T322 1500T423 1525T549 1534Q660 1534 748 1514T889 1468L774 1219Q729 1237 678 1249T565 1262Q491 1262 445 1242T374 1165T341 1009T332 754Q332 607 337 509T360 351T414 267T512 242Q566 242 598 257T647 308T669 404T674 555V653H469V911H944V627Q944 516 939 429T921 274T884 159T823 78Q772 31 691 11T496 -10ZM487 1567Q403 1567 347 1587T256 1650T204 1758T180 1913L377 1927Q381 1889 386 1860T404 1812T435 1782T487 1772Q519 1772 539 1781T572 1810T590 1859T600 1927L799 1913Q792 1822 775 1757T722 1649T629 1587T487 1567Z"/><glyph unicode="ğ" horiz-adv-x="895" d="M436 428Q394 428 357 432Q354 416 354 399Q354 381 357 369T371 350T403 339T463 336Q588 336 669 318T799 264T866 171T885 37Q885 -63 860 -132T780 -243T641 -305T438 -324Q318 -324 236 -309T104 -261T31 -175T8 -43Q8 60 49 122T182 213Q154 238 140 276T125 362Q125 422 147 471Q154 488 164 503L152 513Q105 558 81 627T57 793Q57 988 149 1083T436 1178Q462 1178 498 1175L511 1174L870 1243V1032H748Q772 1006 789 967Q819 901 819 793Q819 696 794 627T720 514T600 449T436 428ZM440 -127Q489 -127 522 -120T574 -96T602 -55T610 8Q610 40 600 61T570 94T517 112T440 117Q387 117 356 109T308 84T286 46T281 -4Q281 -33 286 -56T307 -95T355 -119T440 -127ZM438 629Q472 629 493 638T527 667T544 715T549 786Q549 828 545 858T528 907T494 936T438 946Q403 946 382 937T348 908T332 858T328 786Q328 745 332 716T348 667T381 639T438 629ZM442 1239Q358 1239 302 1259T211 1322T159 1430T135 1585L332 1599Q336 1561 341 1532T359 1484T390 1454T442 1444Q474 1444 494 1453T527 1482T545 1531T555 1599L754 1585Q747 1494 730 1429T677 1321T584 1259T442 1239Z"/><glyph unicode="Ģ" horiz-adv-x="983" d="M356 -520Q392 -496 413 -482T446 -453T461 -423T465 -379H350V-90H631V-371Q631 -414 624 -449T596 -516T537 -578T434 -643L356 -520ZM496 -10Q389 -10 315 13T190 84Q142 128 114 193T71 343T52 533T47 760Q47 874 51 971T69 1149T109 1294T180 1407Q208 1437 243 1460T322 1500T423 1525T549 1534Q660 1534 748 1514T889 1468L774 1219Q729 1237 678 1249T565 1262Q491 1262 445 1242T374 1165T341 1009T332 754Q332 607 337 509T360 351T414 267T512 242Q566 242 598 257T647 308T669 404T674 555V653H469V911H944V627Q944 516 939 429T921 274T884 159T823 78Q772 31 691 11T496 -10Z"/><glyph unicode="ģ" horiz-adv-x="895" d="M307 1489Q307 1540 314 1579T343 1651T404 1714T506 1780L581 1665Q544 1640 522 1625T487 1595T471 1565T467 1522H584V1249H307V1489ZM436 428Q394 428 357 432Q354 416 354 399Q354 381 357 369T371 350T403 339T463 336Q588 336 669 318T799 264T866 171T885 37Q885 -63 860 -132T780 -243T641 -305T438 -324Q318 -324 236 -309T104 -261T31 -175T8 -43Q8 60 49 122T182 213Q154 238 140 276T125 362Q125 422 147 471Q154 488 164 503L152 513Q105 558 81 627T57 793Q57 988 149 1083T436 1178Q462 1178 498 1175L511 1174L870 1243V1032H748Q772 1006 789 967Q819 901 819 793Q819 696 794 627T720 514T600 449T436 428ZM440 -127Q489 -127 522 -120T574 -96T602 -55T610 8Q610 40 600 61T570 94T517 112T440 117Q387 117 356 109T308 84T286 46T281 -4Q281 -33 286 -56T307 -95T355 -119T440 -127ZM438 629Q472 629 493 638T527 667T544 715T549 786Q549 828 545 858T528 907T494 936T438 946Q403 946 382 937T348 908T332 858T328 786Q328 745 332 716T348 667T381 639T438 629Z"/><glyph unicode="Ī" horiz-adv-x="492" d="M102 1518H389V0H102V1518ZM-55 1821H549V1577H-55V1821Z"/><glyph unicode="ī" horiz-adv-x="436" d="M80 1159H356V0H80V1159ZM-83 1493H521V1249H-83V1493Z"/><glyph unicode="Į" horiz-adv-x="492" d="M102 1518H389V0Q361 -27 340 -51T303 -98T280 -145T272 -197Q272 -243 289 -257T340 -272H424V-428H309Q246 -428 204 -417T136 -382T99 -319T88 -227Q88 -190 97 -159T121 -99T155 -47T195 0H102V1518Z"/><glyph unicode="į" horiz-adv-x="436" d="M80 1159H356V0Q329 -27 308 -51T271 -98T248 -145T240 -197Q240 -243 256 -257T307 -272H391V-428H276Q213 -428 171 -417T103 -382T66 -319T55 -227Q55 -190 64 -159T89 -99T123 -47T162 0H80V1159ZM80 1538H356V1266H80V1538Z"/><glyph unicode="İ" horiz-adv-x="492" d="M102 1518H389V0H102V1518ZM107 1858H386V1577H107V1858Z"/><glyph unicode="ı" horiz-adv-x="436" d="M80 1159H356V0H80V1159Z"/><glyph unicode="Ķ" horiz-adv-x="999" d="M364 -520Q400 -496 421 -482T454 -453T469 -423T473 -379H358V-90H639V-371Q639 -414 632 -449T604 -516T545 -578T442 -643L364 -520ZM88 1518H371V908L655 1518H961L661 917L979 0H674L472 593L371 368V0H88V1518Z"/><glyph unicode="ķ" horiz-adv-x="872" d="M301 -520Q337 -496 358 -482T391 -453T406 -423T410 -379H295V-90H576V-371Q576 -414 569 -449T541 -516T482 -578T379 -643L301 -520ZM72 1563H340V705L565 1159H850L592 666L866 0H571L410 391L340 251V0H72V1563Z"/><glyph unicode="Ĺ" horiz-adv-x="827" d="M277 1917H601L368 1577H122L277 1917ZM88 1518H375V260H811V0H88V1518Z"/><glyph unicode="ĺ" horiz-adv-x="494" d="M255 1972H579L346 1632H100L255 1972ZM393 -4Q303 -4 243 10T147 59T96 154T80 303V1563H356V338Q356 309 358 291T368 263T394 250T440 246H449V0Q446 -1 439 -1T422 -2T405 -3T393 -4Z"/><glyph unicode="Ļ" horiz-adv-x="827" d="M278 -520Q314 -496 335 -482T368 -453T383 -423T387 -379H272V-90H553V-371Q553 -414 546 -449T518 -516T459 -578T356 -643L278 -520ZM88 1518H375V260H811V0H88V1518Z"/><glyph unicode="ļ" horiz-adv-x="494" d="M110 -520Q146 -496 167 -482T200 -453T215 -423T219 -379H104V-90H385V-371Q385 -414 378 -449T350 -516T291 -578T188 -643L110 -520ZM393 -4Q303 -4 243 10T147 59T96 154T80 303V1563H356V338Q356 309 358 291T368 263T394 250T440 246H449V0Q446 -1 439 -1T422 -2T405 -3T393 -4Z"/><glyph unicode="Ľ" horiz-adv-x="827" d="M459 1147Q496 1171 518 1186T553 1216T570 1246T575 1288H457V1563H719V1323Q719 1274 713 1236T688 1166T631 1103T530 1038L459 1147ZM88 1518H375V260H811V0H88V1518Z"/><glyph unicode="ľ" horiz-adv-x="678" d="M426 1147Q463 1171 485 1186T520 1216T537 1246T541 1288H424V1563H686V1323Q686 1274 680 1236T655 1166T598 1103T498 1038L426 1147ZM393 -4Q303 -4 243 10T147 59T96 154T80 303V1563H356V338Q356 309 358 291T368 263T394 250T440 246H449V0Q446 -1 439 -1T422 -2T405 -3T393 -4Z"/><glyph unicode="Ł" horiz-adv-x="827" d="M2 827L88 849V1518H375V925L535 967V725L375 683V260H811V0H88V608L2 586V827Z"/><glyph unicode="ł" horiz-adv-x="575" d="M0 1004L121 1073V1563H397V1232L530 1309V1065L397 988V338Q397 309 399 291T409 263T435 250T481 246H489V0Q487 -1 480 -1T463 -2T446 -3T434 -4Q344 -4 284 10T188 59T137 154T121 303V829L0 760V1004Z"/><glyph unicode="Ń" horiz-adv-x="1063" d="M536 1917H860L627 1577H381L536 1917ZM88 1518H383L631 907L709 707V1518H975V0H717L426 698L354 881V0H88V1518Z"/><glyph unicode="ń" horiz-adv-x="928" d="M469 1589H793L560 1249H314L469 1589ZM72 1145L301 1159L315 1092Q343 1130 405 1152T561 1174Q611 1174 648 1169T713 1153T761 1129T797 1096Q835 1048 848 980T862 823V0H584V721Q584 779 580 815T563 871T530 898T477 905Q436 905 411 893T371 856T353 791T348 696V0H72V1145Z"/><glyph unicode="Ņ" horiz-adv-x="1063" d="M395 -520Q431 -496 452 -482T485 -453T500 -423T504 -379H389V-90H670V-371Q670 -414 663 -449T635 -516T576 -578T473 -643L395 -520ZM88 1518H383L631 907L709 707V1518H975V0H717L426 698L354 881V0H88V1518Z"/><glyph unicode="ņ" horiz-adv-x="928" d="M328 -520Q364 -496 385 -482T418 -453T433 -423T437 -379H322V-90H603V-371Q603 -414 596 -449T568 -516T509 -578T406 -643L328 -520ZM72 1145L301 1159L315 1092Q343 1130 405 1152T561 1174Q611 1174 648 1169T713 1153T761 1129T797 1096Q835 1048 848 980T862 823V0H584V721Q584 779 580 815T563 871T530 898T477 905Q436 905 411 893T371 856T353 791T348 696V0H72V1145Z"/><glyph unicode="Ň" horiz-adv-x="1063" d="M182 1917H426L534 1760L641 1917H878L672 1577H391L182 1917ZM88 1518H383L631 907L709 707V1518H975V0H717L426 698L354 881V0H88V1518Z"/><glyph unicode="ň" horiz-adv-x="928" d="M115 1589H359L467 1432L574 1589H811L605 1249H324L115 1589ZM72 1145L301 1159L315 1092Q343 1130 405 1152T561 1174Q611 1174 648 1169T713 1153T761 1129T797 1096Q835 1048 848 980T862 823V0H584V721Q584 779 580 815T563 871T530 898T477 905Q436 905 411 893T371 856T353 791T348 696V0H72V1145Z"/><glyph unicode="Ō" horiz-adv-x="1071" d="M231 1821H835V1577H231V1821ZM535 -10Q416 -10 332 22T193 106Q141 155 112 222T69 371T51 552T47 762Q47 871 50 967T66 1144T106 1291T180 1407Q236 1466 323 1501T535 1536Q658 1536 745 1501T887 1409Q935 1359 962 1293T1003 1145T1020 967T1024 762Q1024 649 1021 551T1003 370T959 221T879 106Q823 54 738 22T535 -10ZM535 254Q601 254 639 278T698 359T723 513T729 754Q729 899 724 996T698 1152T640 1235T535 1260Q469 1260 430 1236T370 1153T344 997T338 754Q338 610 344 514T370 360T429 278T535 254Z"/><glyph unicode="ō" d="M147 1493H751V1249H147V1493ZM453 -10Q348 -10 278 17T162 88Q121 126 97 177T60 290T43 426T39 582Q39 662 42 733T58 865T92 977T154 1067Q200 1114 272 1144T453 1174Q562 1174 634 1144T754 1065Q791 1026 812 976T845 864T860 732T864 582Q864 501 860 429T844 294T807 182T743 92Q698 46 628 18T453 -10ZM453 240Q498 240 524 256T563 312T580 414T584 571Q584 665 581 729T564 832T524 888T453 905Q406 905 379 888T338 832T321 729T317 571Q317 478 320 415T338 312T379 257T453 240Z"/><glyph unicode="Ő" horiz-adv-x="1071" d="M354 1932H620L424 1577H235L354 1932ZM706 1932H973L776 1577H588L706 1932ZM535 -10Q416 -10 332 22T193 106Q141 155 112 222T69 371T51 552T47 762Q47 871 50 967T66 1144T106 1291T180 1407Q236 1466 323 1501T535 1536Q658 1536 745 1501T887 1409Q935 1359 962 1293T1003 1145T1020 967T1024 762Q1024 649 1021 551T1003 370T959 221T879 106Q823 54 738 22T535 -10ZM535 254Q601 254 639 278T698 359T723 513T729 754Q729 899 724 996T698 1152T640 1235T535 1260Q469 1260 430 1236T370 1153T344 997T338 754Q338 610 344 514T370 360T429 278T535 254Z"/><glyph unicode="ő" d="M270 1604H536L340 1249H151L270 1604ZM622 1604H889L692 1249H504L622 1604ZM453 -10Q348 -10 278 17T162 88Q121 126 97 177T60 290T43 426T39 582Q39 662 42 733T58 865T92 977T154 1067Q200 1114 272 1144T453 1174Q562 1174 634 1144T754 1065Q791 1026 812 976T845 864T860 732T864 582Q864 501 860 429T844 294T807 182T743 92Q698 46 628 18T453 -10ZM453 240Q498 240 524 256T563 312T580 414T584 571Q584 665 581 729T564 832T524 888T453 905Q406 905 379 888T338 832T321 729T317 571Q317 478 320 415T338 312T379 257T453 240Z"/><glyph unicode="Œ" horiz-adv-x="1522" d="M737 1518H1464V1251H1004V901H1446V637H1004V260H1464V0H737V9Q732 7 727 6Q688 -3 641 -6T535 -10Q416 -10 332 22T193 106Q141 155 112 222T69 371T51 552T47 762Q47 871 50 967T66 1144T106 1291T180 1407Q236 1466 323 1501T535 1536Q596 1536 645 1529T735 1508L737 1507V1518ZM535 254Q601 254 639 278T698 359T723 513T729 754Q729 899 724 996T698 1152T640 1235T535 1260Q469 1260 430 1236T370 1153T344 997T338 754Q338 610 344 514T370 360T429 278T535 254Z"/><glyph unicode="œ" horiz-adv-x="1386" d="M453 -10Q348 -10 278 17T162 88Q121 126 97 177T60 290T43 426T39 582Q39 662 42 733T58 865T92 977T154 1067Q200 1114 272 1144T453 1174Q507 1174 550 1166T626 1144T687 1109Q706 1094 723 1078Q741 1094 760 1109Q787 1130 819 1144T893 1166T985 1174Q1175 1174 1255 1081Q1288 1043 1308 988T1337 857T1349 682T1348 455H851Q853 423 854 398Q859 331 875 294T923 244T1008 231Q1080 231 1146 247T1266 281L1339 47Q1292 32 1251 22T1166 4T1076 -6T971 -10Q813 -10 723 78Q721 80 718 82Q700 65 679 50Q653 32 620 19T546 -2T453 -10ZM453 240Q498 240 524 256T563 312T580 414T584 571Q584 665 581 729T564 832T524 888T453 905Q406 905 379 888T338 832T321 729T317 571Q317 478 320 415T338 312T379 257T453 240ZM1100 682Q1099 757 1096 804T1080 876T1046 911T985 920Q940 920 914 905T873 850T854 744Q852 716 851 682H1100Z"/><glyph unicode="Ŕ" horiz-adv-x="1008" d="M507 1917H831L598 1577H352L507 1917ZM88 1518H498Q627 1518 714 1489T855 1402T931 1254T954 1044Q954 938 933 850T860 696Q819 645 756 608L948 0H655L491 537H369V0H88V1518ZM496 795Q548 795 582 808T638 850T667 922T676 1028Q676 1091 668 1134T638 1205T582 1245T494 1257H369V795H496Z"/><glyph unicode="ŕ" horiz-adv-x="575" d="M552 1589H876L643 1249H397L552 1589ZM72 1145L301 1159L317 1075Q345 1113 407 1135T559 1159V887Q507 885 468 873T403 835T363 767T350 666V0H72V1145Z"/><glyph unicode="Ŗ" horiz-adv-x="1008" d="M368 -520Q404 -496 425 -482T458 -453T473 -423T477 -379H362V-90H643V-371Q643 -414 636 -449T608 -516T549 -578T446 -643L368 -520ZM88 1518H498Q627 1518 714 1489T855 1402T931 1254T954 1044Q954 938 933 850T860 696Q819 645 756 608L948 0H655L491 537H369V0H88V1518ZM496 795Q548 795 582 808T638 850T667 922T676 1028Q676 1091 668 1134T638 1205T582 1245T494 1257H369V795H496Z"/><glyph unicode="ŗ" horiz-adv-x="575" d="M335 -520Q371 -496 392 -482T425 -453T440 -423T444 -379H329V-90H610V-371Q610 -414 603 -449T575 -516T516 -578T413 -643L335 -520ZM72 1145L301 1159L317 1075Q345 1113 407 1135T559 1159V887Q507 885 468 873T403 835T363 767T350 666V0H72V1145Z"/><glyph unicode="Ř" horiz-adv-x="1008" d="M153 1917H397L505 1760L612 1917H849L643 1577H362L153 1917ZM88 1518H498Q627 1518 714 1489T855 1402T931 1254T954 1044Q954 938 933 850T860 696Q819 645 756 608L948 0H655L491 537H369V0H88V1518ZM496 795Q548 795 582 808T638 850T667 922T676 1028Q676 1091 668 1134T638 1205T582 1245T494 1257H369V795H496Z"/><glyph unicode="ř" horiz-adv-x="575" d="M198 1589H442L550 1432L657 1589H894L688 1249H407L198 1589ZM72 1145L301 1159L317 1075Q345 1113 407 1135T559 1159V887Q507 885 468 873T403 835T363 767T350 666V0H72V1145Z"/><glyph unicode="Ś" horiz-adv-x="899" d="M452 1917H776L543 1577H297L452 1917ZM418 -10Q347 -10 287 -4T177 14T88 39T18 68L135 309Q192 280 257 265T408 250Q486 250 527 281T569 379Q569 406 564 428T539 481T480 553T371 662Q297 733 240 787T145 895T86 1008T66 1151Q66 1225 86 1294T155 1416T284 1502T483 1534Q539 1534 586 1532T674 1523T753 1508T829 1487L735 1227Q714 1234 686 1241T625 1253T558 1261T489 1264Q414 1264 378 1233T342 1149Q342 1122 349 1101T377 1052T439 985T545 881Q628 801 685 742T778 627T830 513T846 373Q846 297 825 228T753 106T621 22T418 -10Z"/><glyph unicode="ś" horiz-adv-x="774" d="M650 1589H974L741 1249H495L650 1589ZM375 -10Q260 -10 168 9T25 57L127 285Q148 273 178 262T241 242T309 228T375 223Q415 223 440 239T465 293Q465 312 461 328T441 363T394 409T311 475Q237 532 190 576T114 661T74 747T63 848Q63 916 81 976T140 1080T248 1150T414 1176Q476 1176 548 1170T700 1139L614 891Q593 898 568 903T517 912T467 918T424 920Q371 920 349 901T326 848Q326 831 331 817T352 786T397 744T475 682Q542 629 590 587T669 502T714 412T729 301Q729 236 711 180T650 81T541 15T375 -10Z"/><glyph unicode="Ş" horiz-adv-x="899" d="M418 -10Q347 -10 287 -4T177 14T88 39T18 68L135 309Q192 280 257 265T408 250Q486 250 527 281T569 379Q569 406 564 428T539 481T480 553T371 662Q297 733 240 787T145 895T86 1008T66 1151Q66 1225 86 1294T155 1416T284 1502T483 1534Q539 1534 586 1532T674 1523T753 1508T829 1487L735 1227Q714 1234 686 1241T625 1253T558 1261T489 1264Q414 1264 378 1233T342 1149Q342 1122 349 1101T377 1052T439 985T545 881Q628 801 685 742T778 627T830 513T846 373Q846 297 825 228T753 106T621 22T418 -10ZM467 -475Q436 -475 410 -474T359 -468T310 -456T258 -438L313 -293Q353 -307 379 -312T436 -317Q461 -317 476 -313T500 -301T511 -278T514 -244Q514 -221 509 -207T491 -186T456 -178T401 -178L358 -141L391 45H543L518 -94Q554 -93 585 -99T639 -123T675 -174T688 -262Q688 -324 675 -364T635 -430T566 -465T467 -475Z"/><glyph unicode="ş" horiz-adv-x="774" d="M375 -10Q260 -10 168 9T25 57L127 285Q148 273 178 262T241 242T309 228T375 223Q415 223 440 239T465 293Q465 312 461 328T441 363T394 409T311 475Q237 532 190 576T114 661T74 747T63 848Q63 916 81 976T140 1080T248 1150T414 1176Q476 1176 548 1170T700 1139L614 891Q593 898 568 903T517 912T467 918T424 920Q371 920 349 901T326 848Q326 831 331 817T352 786T397 744T475 682Q542 629 590 587T669 502T714 412T729 301Q729 236 711 180T650 81T541 15T375 -10ZM665 -475Q634 -475 608 -474T557 -468T508 -456T456 -438L511 -293Q551 -307 577 -312T634 -317Q659 -317 674 -313T698 -301T709 -278T712 -244Q712 -221 707 -207T689 -186T654 -178T599 -178L556 -141L589 45H741L716 -94Q752 -93 783 -99T837 -123T873 -174T886 -262Q886 -324 873 -364T833 -430T764 -465T665 -475Z"/><glyph unicode="Š" horiz-adv-x="899" d="M98 1917H342L450 1760L557 1917H794L588 1577H307L98 1917ZM418 -10Q347 -10 287 -4T177 14T88 39T18 68L135 309Q192 280 257 265T408 250Q486 250 527 281T569 379Q569 406 564 428T539 481T480 553T371 662Q297 733 240 787T145 895T86 1008T66 1151Q66 1225 86 1294T155 1416T284 1502T483 1534Q539 1534 586 1532T674 1523T753 1508T829 1487L735 1227Q714 1234 686 1241T625 1253T558 1261T489 1264Q414 1264 378 1233T342 1149Q342 1122 349 1101T377 1052T439 985T545 881Q628 801 685 742T778 627T830 513T846 373Q846 297 825 228T753 106T621 22T418 -10Z"/><glyph unicode="š" horiz-adv-x="774" d="M296 1589H540L648 1432L755 1589H992L786 1249H505L296 1589ZM375 -10Q260 -10 168 9T25 57L127 285Q148 273 178 262T241 242T309 228T375 223Q415 223 440 239T465 293Q465 312 461 328T441 363T394 409T311 475Q237 532 190 576T114 661T74 747T63 848Q63 916 81 976T140 1080T248 1150T414 1176Q476 1176 548 1170T700 1139L614 891Q593 898 568 903T517 912T467 918T424 920Q371 920 349 901T326 848Q326 831 331 817T352 786T397 744T475 682Q542 629 590 587T669 502T714 412T729 301Q729 236 711 180T650 81T541 15T375 -10Z"/><glyph unicode="Ţ" horiz-adv-x="928" d="M330 -520Q366 -496 387 -482T420 -453T435 -423T439 -379H324V-90H605V-371Q605 -414 598 -449T570 -516T511 -578T408 -643L330 -520ZM317 1251H14V1518H913V1251H608V0H317V1251Z"/><glyph unicode="ţ" horiz-adv-x="672" d="M184 -520Q220 -496 241 -482T274 -453T289 -423T293 -379H178V-90H459V-371Q459 -414 452 -449T424 -516T365 -578T262 -643L184 -520ZM16 1159H165L205 1395L428 1450V1159H621V911H428V356Q428 329 431 310T444 279T476 260T532 254H621V0Q593 -3 560 -3T494 -4Q390 -4 324 13T219 71T167 175T152 332V911H16V1159Z"/><glyph unicode="Ť" horiz-adv-x="928" d="M115 1917H359L467 1760L574 1917H811L605 1577H324L115 1917ZM317 1251H14V1518H913V1251H608V0H317V1251Z"/><glyph unicode="ť" horiz-adv-x="672" d="M492 1380Q529 1405 551 1420T586 1449T602 1479T606 1522H489V1796H752V1556Q752 1507 746 1470T720 1400T663 1337T561 1272L492 1380ZM16 1159H165L205 1395L428 1450V1159H621V911H428V356Q428 329 431 310T444 279T476 260T532 254H621V0Q593 -3 560 -3T494 -4Q390 -4 324 13T219 71T167 175T152 332V911H16V1159Z"/><glyph unicode="Ū" horiz-adv-x="1059" d="M528 -18Q408 -18 324 8T188 82Q152 115 131 157T98 250T84 358T80 479V1518H369V492Q369 424 376 378T401 302T452 261T535 248Q583 248 615 260T666 301T692 376T700 492V1518H981V479Q981 417 978 361T965 254T933 162T877 86Q826 38 740 10T528 -18ZM227 1821H831V1577H227V1821Z"/><glyph unicode="ū" horiz-adv-x="915" d="M457 -10Q350 -10 280 15T164 78Q104 132 85 207T66 377V1159H342V410Q342 364 346 332T363 278T399 248T461 238Q497 238 519 247T554 277T570 331T575 412V1159H850V379Q850 285 831 211T756 84Q711 43 639 17T457 -10ZM155 1493H759V1249H155V1493Z"/><glyph unicode="Ů" horiz-adv-x="1059" d="M528 1563Q462 1563 421 1581T358 1633T327 1711T319 1811Q319 1866 327 1912T357 1993T421 2046T528 2065Q594 2065 635 2046T699 1993T731 1913T739 1811Q739 1757 731 1712T700 1633T635 1582T528 1563ZM528 1692Q553 1692 568 1700T591 1723T601 1760T604 1811Q604 1840 602 1862T591 1900T568 1924T528 1932Q481 1932 467 1901T452 1811Q452 1754 466 1723T528 1692ZM528 -18Q408 -18 324 8T188 82Q152 115 131 157T98 250T84 358T80 479V1518H369V492Q369 424 376 378T401 302T452 261T535 248Q583 248 615 260T666 301T692 376T700 492V1518H981V479Q981 417 978 361T965 254T933 162T877 86Q826 38 740 10T528 -18Z"/><glyph unicode="ů" horiz-adv-x="915" d="M456 1235Q390 1235 349 1253T286 1305T255 1383T247 1483Q247 1538 255 1584T285 1665T349 1718T456 1737Q522 1737 563 1718T627 1665T659 1585T667 1483Q667 1429 659 1384T628 1305T563 1254T456 1235ZM456 1364Q481 1364 496 1372T519 1395T529 1432T532 1483Q532 1512 530 1534T519 1572T496 1596T456 1604Q409 1604 395 1573T380 1483Q380 1426 394 1395T456 1364ZM457 -10Q350 -10 280 15T164 78Q104 132 85 207T66 377V1159H342V410Q342 364 346 332T363 278T399 248T461 238Q497 238 519 247T554 277T570 331T575 412V1159H850V379Q850 285 831 211T756 84Q711 43 639 17T457 -10Z"/><glyph unicode="Ű" horiz-adv-x="1059" d="M528 -18Q408 -18 324 8T188 82Q152 115 131 157T98 250T84 358T80 479V1518H369V492Q369 424 376 378T401 302T452 261T535 248Q583 248 615 260T666 301T692 376T700 492V1518H981V479Q981 417 978 361T965 254T933 162T877 86Q826 38 740 10T528 -18ZM350 1932H616L420 1577H231L350 1932ZM702 1932H969L772 1577H584L702 1932Z"/><glyph unicode="ű" horiz-adv-x="915" d="M457 -10Q350 -10 280 15T164 78Q104 132 85 207T66 377V1159H342V410Q342 364 346 332T363 278T399 248T461 238Q497 238 519 247T554 277T570 331T575 412V1159H850V379Q850 285 831 211T756 84Q711 43 639 17T457 -10ZM278 1604H544L348 1249H159L278 1604ZM630 1604H897L700 1249H512L630 1604Z"/><glyph unicode="Ų" horiz-adv-x="1059" d="M569 -428Q506 -428 464 -417T396 -382T359 -319T348 -227Q348 -159 373 -108T434 -14Q271 4 188 82Q152 115 131 157T98 250T84 358T80 479V1518H369V492Q369 424 376 378T401 302T452 261T535 248Q583 248 615 260T666 301T692 376T700 492V1518H981V479Q981 417 978 361T965 254T933 162T877 86Q835 46 770 21T614 -14Q579 -62 556 -107T532 -197Q532 -243 549 -257T600 -272H684V-428H569Z"/><glyph unicode="ų" horiz-adv-x="915" d="M498 -428Q435 -428 393 -417T324 -382T287 -319T276 -227Q276 -155 304 -101T371 -4Q299 4 249 25T164 78Q104 132 85 207T66 377V1159H342V410Q342 364 346 332T363 278T399 248T461 238Q497 238 519 247T554 277T570 331T575 412V1159H850V379Q850 285 831 211T756 84Q722 52 672 29T551 -4Q513 -55 487 -102T461 -197Q461 -243 477 -257T528 -272H612V-428H498Z"/><glyph unicode="Ÿ" horiz-adv-x="997" d="M-10 1518H295L502 895L711 1518H1008L641 486V0H354V491L-10 1518ZM213 1839H450V1577H213V1839ZM544 1839H784V1577H544V1839Z"/><glyph unicode="Ź" horiz-adv-x="889" d="M448 1917H772L539 1577H293L448 1917ZM31 219L522 1251H53V1518H840V1274L358 260H856V0H31V219Z"/><glyph unicode="ź" horiz-adv-x="719" d="M621 1589H945L712 1249H466L621 1589ZM14 182L369 911H35V1159H692V973L334 229H707V0H14V182Z"/><glyph unicode="Ż" horiz-adv-x="889" d="M31 219L522 1251H53V1518H840V1274L358 260H856V0H31V219ZM303 1858H582V1577H303V1858Z"/><glyph unicode="ż" horiz-adv-x="719" d="M14 182L369 911H35V1159H692V973L334 229H707V0H14V182ZM476 1530H755V1249H476V1530Z"/><glyph unicode="Ž" horiz-adv-x="889" d="M94 1917H338L446 1760L553 1917H790L584 1577H303L94 1917ZM31 219L522 1251H53V1518H840V1274L358 260H856V0H31V219Z"/><glyph unicode="ž" horiz-adv-x="719" d="M267 1589H511L619 1432L726 1589H963L757 1249H476L267 1589ZM14 182L369 911H35V1159H692V973L334 229H707V0H14V182Z"/><glyph unicode="ƒ" horiz-adv-x="856" d="M119 909H276L307 1200Q316 1283 338 1343T403 1442T513 1499T682 1518Q710 1518 729 1516T764 1513V1264H700Q662 1263 640 1256T606 1233T589 1193T580 1135L555 909H764V676H530L422 -313H145L251 676H119V909Z"/><glyph unicode="Ș" horiz-adv-x="0"/><glyph unicode="ș" horiz-adv-x="0"/><glyph unicode="Ț" horiz-adv-x="928" d="M330 -520Q366 -496 387 -482T420 -453T435 -423T439 -379H324V-90H605V-371Q605 -414 598 -449T570 -516T511 -578T408 -643L330 -520ZM317 1251H14V1518H913V1251H608V0H317V1251Z"/><glyph unicode="ț" horiz-adv-x="672" d="M184 -520Q220 -496 241 -482T274 -453T289 -423T293 -379H178V-90H459V-371Q459 -414 452 -449T424 -516T365 -578T262 -643L184 -520ZM16 1159H165L205 1395L428 1450V1159H621V911H428V356Q428 329 431 310T444 279T476 260T532 254H621V0Q593 -3 560 -3T494 -4Q390 -4 324 13T219 71T167 175T152 332V911H16V1159Z"/><glyph unicode="ˆ" horiz-adv-x="793" d="M256 1589H537L743 1249H500L393 1405L287 1249H47L256 1589Z"/><glyph unicode="ˇ" horiz-adv-x="793" d="M47 1589H291L399 1432L506 1589H743L537 1249H256L47 1589Z"/><glyph unicode="˘" horiz-adv-x="793" d="M393 1239Q309 1239 253 1259T162 1322T110 1430T86 1585L283 1599Q287 1561 292 1532T310 1484T341 1454T393 1444Q425 1444 445 1453T478 1482T496 1531T506 1599L705 1585Q698 1494 681 1429T628 1321T535 1259T393 1239Z"/><glyph unicode="˙" horiz-adv-x="793" d="M256 1530H535V1249H256V1530Z"/><glyph unicode="˚" horiz-adv-x="793" d="M395 1235Q329 1235 288 1253T225 1305T194 1383T186 1483Q186 1538 194 1584T224 1665T288 1718T395 1737Q461 1737 502 1718T566 1665T598 1585T606 1483Q606 1429 598 1384T567 1305T502 1254T395 1235ZM395 1364Q420 1364 435 1372T458 1395T468 1432T471 1483Q471 1512 469 1534T458 1572T435 1596T395 1604Q348 1604 334 1573T319 1483Q319 1426 333 1395T395 1364Z"/><glyph unicode="˛" horiz-adv-x="793" d="M436 -428Q373 -428 331 -417T263 -382T226 -319T215 -227Q215 -184 226 -147T256 -79T298 -20T344 33H518Q494 2 473 -27T435 -85T409 -141T399 -197Q399 -243 416 -257T467 -272H551V-428H436Z"/><glyph unicode="˜" horiz-adv-x="793" d="M45 1268Q53 1332 67 1383T107 1468T169 1521T260 1540Q291 1540 323 1530T385 1509T438 1487T477 1477Q490 1477 499 1480T514 1491T525 1513T532 1550L743 1520Q735 1456 721 1406T682 1321T620 1268T528 1249Q497 1249 465 1259T404 1281T350 1303T311 1313Q287 1313 275 1299T256 1239L45 1268Z"/><glyph unicode="˝" horiz-adv-x="793" d="M217 1604H483L287 1249H98L217 1604ZM569 1604H836L639 1249H451L569 1604Z"/><glyph unicode="̄" horiz-adv-x="793" d="M94 1493H698V1249H94V1493Z"/><glyph unicode="̦" horiz-adv-x="453" d="M92 -520Q128 -496 149 -482T182 -453T197 -423T201 -379H86V-90H367V-371Q367 -414 360 -449T332 -516T273 -578T170 -643L92 -520Z"/><glyph unicode="Δ" horiz-adv-x="0"/><glyph unicode="Ω" horiz-adv-x="0"/><glyph unicode="μ" horiz-adv-x="920" d="M72 1159H348V410Q348 364 352 332T370 278T406 248T467 238Q503 238 525 247T560 277T577 331T582 412V1159H854V379Q854 285 836 211T760 84Q738 63 712 46T654 17T580 -3T487 -10Q450 -10 410 -2T348 27V-311H72V1159Z"/><glyph unicode="π" horiz-adv-x="0"/><glyph unicode="–" horiz-adv-x="1006" d="M47 817H958V553H47V817Z"/><glyph unicode="—" horiz-adv-x="1303" d="M47 817H1255V553H47V817Z"/><glyph unicode="‘" horiz-adv-x="453" d="M72 1210Q72 1262 79 1303T110 1381T176 1453T291 1528L377 1389Q336 1362 312 1344T275 1308T258 1272T254 1223H381V872H72V1210Z"/><glyph unicode="’" horiz-adv-x="453" d="M76 1001Q116 1028 140 1046T178 1082T195 1118T199 1167H72V1518H381V1180Q381 1128 374 1087T343 1009T276 937T162 862L76 1001Z"/><glyph unicode="‚" horiz-adv-x="453" d="M76 -166Q116 -139 140 -121T178 -85T195 -49T199 0H72V350H381V12Q381 -39 374 -80T343 -159T276 -231T162 -305L76 -166Z"/><glyph unicode="“" horiz-adv-x="831" d="M72 1210Q72 1255 79 1294T108 1372T173 1446T285 1522L369 1391Q328 1364 303 1346T265 1310T247 1274T242 1225H373V879H72V1210ZM459 1210Q459 1255 466 1294T495 1372T560 1446T674 1522L756 1391Q715 1364 691 1346T653 1310T635 1274T631 1225H760V879H459V1210Z"/><glyph unicode="”" horiz-adv-x="831" d="M76 1008Q116 1034 140 1052T178 1086T196 1122T201 1171H72V1518H373V1188Q373 1143 366 1103T336 1025T271 950T158 874L76 1008ZM463 1008Q503 1034 528 1052T567 1086T585 1122T590 1171H459V1518H760V1188Q760 1143 753 1103T724 1025T659 950T547 874L463 1008Z"/><glyph unicode="„" horiz-adv-x="831" d="M76 -166Q116 -139 140 -121T178 -85T196 -49T201 0H72V346H373V16Q373 -29 366 -69T336 -146T271 -221T158 -297L76 -166ZM463 -166Q503 -139 528 -121T567 -85T585 -49T590 0H459V346H760V16Q760 -29 753 -69T724 -146T659 -221T547 -297L463 -166Z"/><glyph unicode="†" horiz-adv-x="864" d="M293 856H59V1122H293V1563H569V1122H803V856H569V-311H293V856Z"/><glyph unicode="‡" horiz-adv-x="864" d="M293 131H59V397H293V856H59V1122H293V1563H569V1122H803V856H569V397H803V131H569V-313H293V131Z"/><glyph unicode="•" horiz-adv-x="580" d="M117 854H463V391H117V854Z"/><glyph unicode="…" horiz-adv-x="1305" d="M72 348H381V0H72V348ZM498 348H809V0H498V348ZM924 348H1235V0H924V348Z"/><glyph unicode="‰" horiz-adv-x="2497" d="M379 545Q298 545 240 567T141 625Q106 656 87 698T57 792T44 907T41 1040Q41 1107 43 1167T55 1278T81 1371T129 1446Q169 1486 230 1511T379 1536Q466 1536 527 1511T629 1444Q660 1412 677 1370T704 1276T715 1166T717 1040Q717 969 714 908T701 794T670 699T616 625Q576 590 518 568T379 545ZM1395 -14Q1314 -14 1255 8T1157 66Q1122 97 1103 139T1073 234T1060 348T1057 481Q1057 548 1059 607T1071 718T1097 812T1145 887Q1185 927 1246 952T1395 977Q1481 977 1542 952T1645 885Q1675 853 1692 811T1719 717T1730 607T1733 481Q1733 410 1730 349T1716 235T1685 140T1630 66Q1592 31 1534 9T1395 -14ZM2118 -14Q2037 -14 1979 8T1882 66Q1847 97 1827 139T1797 234T1783 348T1780 481Q1780 548 1782 607T1794 718T1821 812T1870 887Q1910 927 1970 952T2118 977Q2206 977 2267 952T2370 885Q2400 853 2417 811T2442 717T2453 607T2456 481Q2456 410 2453 349T2440 235T2410 140T2355 66Q2317 31 2258 9T2118 -14ZM379 760Q410 760 428 773T455 819T466 904T469 1036Q469 1115 467 1168T455 1252T428 1297T379 1311Q346 1311 328 1298T300 1253T289 1168T287 1036Q287 957 289 904T300 819T327 774T379 760ZM1395 203Q1426 203 1444 216T1470 260T1481 345T1483 477Q1483 556 1481 609T1471 693T1444 738T1395 752Q1362 752 1344 739T1316 694T1305 609T1303 477Q1303 398 1305 345T1316 261T1343 216T1395 203ZM2118 203Q2150 203 2168 216T2195 260T2206 345T2208 477Q2208 556 2206 609T2195 693T2168 738T2118 752Q2086 752 2068 739T2041 694T2030 609T2028 477Q2028 398 2030 345T2041 261T2068 216T2118 203ZM1040 1518H1278L731 0H494L1040 1518Z"/><glyph unicode="‹" horiz-adv-x="678" d="M92 578L295 1159H551L365 578L551 0H295L92 578Z"/><glyph unicode="›" horiz-adv-x="678" d="M313 580L129 1159H383L586 580L383 0H129L313 580Z"/><glyph unicode="⁄" horiz-adv-x="0"/><glyph unicode="€" horiz-adv-x="940" d="M35 719H190V760V809H35V1024H194Q198 1101 208 1166Q220 1248 244 1311T309 1421Q362 1477 437 1506T623 1536Q669 1536 704 1534T770 1526T829 1512T887 1491L784 1241Q770 1247 752 1252T712 1261T667 1267T623 1270Q567 1270 536 1248T490 1168Q476 1114 472 1024H735V809H469V762V719H735V504H472Q475 409 490 351Q505 291 536 267T623 242Q728 242 805 274L895 37Q865 25 837 16T778 1T710 -7T623 -10Q524 -10 450 15T324 88Q279 132 253 190T212 328Q198 404 194 504H35V719Z"/><glyph unicode="™" horiz-adv-x="1489" d="M649 1518H889L1012 922L1137 1518H1376V518H1184V1085L1071 518H942L831 1087V518H649V1518ZM217 1327H41V1518H604V1327H422V518H217V1327Z"/><glyph unicode="Ω" horiz-adv-x="0"/><glyph unicode="∂" horiz-adv-x="0"/><glyph unicode="∆" horiz-adv-x="0"/><glyph unicode="∏" horiz-adv-x="0"/><glyph unicode="∑" horiz-adv-x="0"/><glyph unicode="−" horiz-adv-x="0"/><glyph unicode="∕" horiz-adv-x="0"/><glyph unicode="∙" horiz-adv-x="453" d="M72 926H381V573H72V926Z"/><glyph unicode="√" horiz-adv-x="0"/><glyph unicode="∞" horiz-adv-x="0"/><glyph unicode="∫" horiz-adv-x="0"/><glyph unicode="≈" horiz-adv-x="0"/><glyph unicode="≠" horiz-adv-x="0"/><glyph unicode="≤" horiz-adv-x="0"/><glyph unicode="≥" horiz-adv-x="0"/><glyph unicode="◊" horiz-adv-x="0"/><glyph unicode="" horiz-adv-x="0"/><glyph unicode="ﬀ" horiz-adv-x="1128" d="M647 911H434V0H158V911H16V1159H158V1249Q158 1333 176 1393T234 1492T340 1549T500 1567Q524 1567 540 1566T569 1563V1321H520Q470 1321 452 1300T434 1227V1159H647V1249Q647 1333 668 1393T734 1492T850 1549T1022 1567Q1057 1567 1081 1566T1120 1563V1313H1038Q1001 1312 979 1307T944 1290T928 1259T924 1212V1159H1120V911H924V0H647V911Z"/><glyph unicode="ﬁ" horiz-adv-x="1001" d="M16 1159H158V1249Q158 1333 176 1393T234 1492T340 1549T500 1567Q524 1567 540 1566T569 1563V1321H520Q470 1321 452 1300T434 1227V1159H569V911H434V0H158V911H16V1159ZM645 1159H924V0H645V1159ZM645 1534H924V1264H645V1534Z"/><glyph unicode="ﬂ" horiz-adv-x="1059" d="M16 1159H158V1249Q158 1333 176 1393T234 1492T340 1549T500 1567Q524 1567 540 1566T569 1563V1321H520Q470 1321 452 1300T434 1227V1159H569V911H434V0H158V911H16V1159ZM961 -4Q871 -4 811 10T713 59T661 154T645 303V1563H924V338Q924 309 926 291T936 263T960 250T1006 246H1016V0Q1013 -1 1005 -1T989 -2T972 -3T961 -4Z"/><glyph unicode="ﬃ" horiz-adv-x="1491" d="M647 911H434V0H158V911H16V1159H158V1249Q158 1333 176 1393T234 1492T340 1549T500 1567Q524 1567 540 1566T569 1563V1321H520Q470 1321 452 1300T434 1227V1159H647V1249Q647 1333 665 1393T723 1492T829 1549T989 1567Q1014 1567 1030 1566T1059 1563V1321H1008Q983 1321 967 1316T942 1300T928 1271T924 1227V1159H1059V911H924V0H647V911ZM1135 1159H1411V0H1135V1159ZM1135 1538H1411V1266H1135V1538Z"/><glyph unicode="ﬄ" horiz-adv-x="1548" d="M647 911H434V0H158V911H16V1159H158V1249Q158 1333 176 1393T234 1492T340 1549T500 1567Q524 1567 540 1566T569 1563V1321H520Q470 1321 452 1300T434 1227V1159H647V1249Q647 1333 665 1393T723 1492T829 1549T989 1567Q1014 1567 1030 1566T1059 1563V1321H1008Q983 1321 967 1316T942 1300T928 1271T924 1227V1159H1059V911H924V0H647V911ZM1450 -4Q1359 -4 1299 10T1202 59T1150 154T1135 303V1563H1411V338Q1411 309 1413 291T1423 263T1449 250T1495 246H1505V0Q1502 -1 1494 -1T1478 -2T1461 -3T1450 -4Z"/></font>
</defs>
</svg>
