<?xml version="1.0" encoding="UTF-8"?><svg xmlns="http://www.w3.org/2000/svg" width="100%" height="100%"><defs><font id="web" horiz-adv-x="1093"><!--



NOTICE: This font software is the valuable property 
of Webtype LLC, The Font Bureau, Webtype and/or its 
suppliers and its use by you is covered under the terms 
of the Web Font license agreement between you and Webtype 
LLC. You may ONLY use this font software with the licensed 
web site. Except as specifically permitted by the license, 
you may not copy this font software. If you have any 
questions, please contact Webtype.com. 

For more information, please visit http://www.webtype.com/store/license/?id=23

Licensed to: quickquote.lincoln.com

Serial number: SH-1226
--><font-face font-family="" units-per-em="2048" panose-1="2 0 5 3 8 0 0 9 0 4" ascent="1940" descent="-492" alphabetic="0"/><missing-glyph horiz-adv-x="467"/><glyph unicode=" " horiz-adv-x="467"/><glyph unicode="!" horiz-adv-x="635" d="M641 1341Q641 1301 564 1074T338 432L295 440Q330 619 415 1138Q444 1320 460 1354T501 1408T561 1427Q599 1427 620 1405T641 1341ZM342 90Q342 44 311 14T233 -16Q187 -16 156 14T125 90Q125 137 156 168T233 199Q280 199 311 168T342 90Z"/><glyph unicode="&quot;" horiz-adv-x="770" d="M457 1403Q457 1378 437 1324T357 1138L283 967H258Q268 1147 268 1307V1366Q268 1438 295 1473T367 1509Q457 1509 457 1403ZM856 1403Q856 1380 839 1333T756 1138L682 967H657Q668 1125 668 1307V1366Q668 1438 694 1473T766 1509Q856 1509 856 1403Z"/><glyph unicode="#" horiz-adv-x="1171" d="M608 -14H580L698 428L442 369L340 -14H313L412 358L164 301L205 453L453 510L512 731L264 674L303 823L553 881L662 1284H688L582 891L838 950L928 1284H956L868 961L1118 1018L1077 866L827 809L768 588L1018 645L977 496L729 438L608 -14ZM797 801L541 739L481 518L737 580L797 801Z"/><glyph unicode="$" horiz-adv-x="1214" d="M578 -2H547Q472 -2 410 8L336 -291H309L385 14Q266 41 197 108T127 262Q127 331 168 382T266 434Q304 434 327 413T350 354Q350 325 341 308T318 279T288 257T258 229Q253 207 253 181Q253 134 290 99T393 47L528 592Q289 664 289 854Q289 955 339 1043T481 1186T694 1253L745 1460H772L721 1255L742 1257Q833 1257 889 1245L942 1460H969L913 1241Q1017 1217 1079 1159T1141 1030Q1141 968 1108 920T1028 872Q991 872 968 890T944 940Q944 971 955 989T982 1022T1015 1049T1044 1083Q1040 1127 1003 1160T905 1208L776 688Q912 653 979 593T1047 436Q1047 254 928 136T604 0L532 -291H506L578 -2ZM739 543L612 35Q750 52 837 134T924 324Q924 418 884 465T739 543ZM715 549L553 586L418 41Q470 31 547 31L586 33L715 549ZM881 1214Q830 1227 733 1227L713 1225L590 731L752 694L881 1214ZM686 1221Q566 1204 491 1128T416 948Q416 862 449 816T565 739L686 1221Z"/><glyph unicode="%" horiz-adv-x="1659" d="M823 1012Q823 916 770 827T616 676T414 614Q305 614 234 684T162 866Q162 965 216 1059T360 1211T547 1268Q665 1268 744 1196T823 1012ZM1530 1384L195 -201L162 -180L1495 1405L1530 1384ZM1556 371Q1556 275 1503 186T1349 35T1147 -27Q1038 -27 967 43T895 225Q895 324 949 418T1093 570T1280 627Q1400 627 1478 555T1556 371ZM688 1057Q688 1135 651 1185T553 1235Q485 1235 427 1176T333 1018T297 823Q297 736 327 693T414 649Q484 649 548 705T650 858T688 1057ZM1421 416Q1421 494 1384 544T1286 594Q1219 594 1161 535T1066 377T1030 182Q1030 95 1060 52T1147 8Q1217 8 1281 64T1383 217T1421 416Z"/><glyph unicode="&amp;" horiz-adv-x="1696" d="M1710 1178Q1710 1057 1638 993T1431 929L1393 930Q1487 874 1528 792T1569 588Q1569 404 1470 258T1193 39T776 -35Q609 -35 466 27T243 197T162 430Q162 499 184 550T247 642T379 731Q313 778 278 842T242 977Q242 1053 285 1119T405 1225T580 1264Q696 1264 773 1200T887 1010L864 997Q811 1087 748 1128T602 1169Q477 1169 410 1102T342 918Q342 818 416 750Q462 765 513 774T594 784Q648 784 678 763T709 707Q709 679 688 658T629 637Q566 637 507 659T406 717Q257 649 257 505Q257 439 289 366T402 229T612 125T926 84Q1101 84 1233 146T1444 332T1522 608Q1522 766 1444 857T1231 948Q1126 948 1059 889T991 733Q991 655 1040 606T1159 557Q1227 557 1253 588Q1194 610 1173 634T1151 694Q1151 733 1175 756T1237 780Q1293 780 1323 752T1354 672Q1354 608 1308 566T1190 524Q1125 524 1065 556T969 645T934 774Q934 897 1024 966T1276 1036L1493 1026Q1579 1026 1629 1070T1679 1188Q1679 1270 1638 1316T1530 1362Q1498 1362 1477 1346T1456 1307Q1461 1301 1472 1296T1496 1284T1517 1264T1526 1231Q1526 1188 1503 1171T1448 1153Q1400 1153 1373 1182T1346 1260Q1346 1314 1394 1350T1518 1386Q1605 1386 1657 1332T1710 1178Z"/><glyph unicode="'" horiz-adv-x="371" d="M457 1403Q457 1378 437 1324T357 1138L283 967H258Q268 1147 268 1307V1366Q268 1438 295 1473T367 1509Q457 1509 457 1403Z"/><glyph unicode="(" horiz-adv-x="698" d="M145 395Q145 194 218 32T455 -285L403 -324Q232 -170 152 5T72 379Q72 723 254 1007T791 1528L827 1479Q491 1256 318 981T145 395Z"/><glyph unicode=")" horiz-adv-x="698" d="M578 809Q578 1010 505 1172T268 1489L319 1528Q489 1375 570 1201T651 825Q651 481 468 197T-68 -324L-104 -274Q232 -51 405 224T578 809Z"/><glyph unicode="*" horiz-adv-x="797" d="M708 892L700 893Q689 896 637 967Q567 1061 532 1102Q521 1027 515 953L504 854Q499 839 487 831T463 823Q446 823 431 833T416 865L418 879L456 970L516 1106Q457 1088 355 1044Q280 1012 264 1012Q252 1012 241 1026T230 1057Q230 1085 265 1095T404 1114Q454 1117 516 1126Q470 1164 429 1193T357 1245T313 1284T298 1315Q298 1331 311 1344T340 1358L350 1356Q367 1352 421 1280Q497 1176 526 1145L542 1291Q548 1352 552 1379T568 1416T593 1426Q607 1426 625 1416T643 1382L641 1370L601 1279Q561 1192 541 1141L626 1175L701 1208Q769 1238 790 1238Q805 1238 815 1224T825 1195Q825 1166 793 1155T651 1135Q601 1130 543 1120Q586 1085 626 1058T697 1007T742 966T757 935Q757 918 744 905T708 892Z"/><glyph unicode="+" horiz-adv-x="1139" d="M1075 502H610V39H553V502H88V561H553V1026H610V561H1075V502Z"/><glyph unicode="," horiz-adv-x="422" d="M289 78Q289 -23 217 -115T2 -283L-6 -258Q83 -209 145 -137T215 4H168Q55 4 55 94Q55 139 86 174T170 209Q230 209 259 172T289 78Z"/><glyph unicode="-" horiz-adv-x="793" d="M711 455H80L109 565H739L711 455Z"/><glyph unicode="." horiz-adv-x="422" d="M285 96Q285 47 252 16T172 -16Q125 -16 92 16T59 96Q59 142 92 175T172 209Q218 209 251 177T285 96Z"/><glyph unicode="/" horiz-adv-x="823" d="M1030 1522L-133 -428L-190 -410L973 1540L1030 1522Z"/><glyph unicode="0" horiz-adv-x="1208" d="M1165 795Q1165 584 1078 393T842 87T530 -29Q334 -29 219 99T104 438Q104 644 196 838T444 1151T766 1270Q954 1270 1059 1145T1165 795ZM1012 901Q1012 1052 950 1144T782 1237Q658 1237 536 1107T336 761T258 332Q258 192 330 98T508 4Q630 4 746 132T937 477T1012 901Z"/><glyph unicode="1" horiz-adv-x="825" d="M752 1268Q733 1227 699 1136T641 961L418 156Q412 130 412 115Q412 70 469 51T596 27L592 0H20L25 27Q146 36 178 47Q244 70 266 147L535 1104Q508 1096 459 1096Q352 1096 250 1214L264 1229Q358 1182 465 1182Q565 1182 672 1240L725 1268H752Z"/><glyph unicode="2" horiz-adv-x="1116" d="M1065 989Q1065 776 890 598T305 217L199 139H686Q737 139 771 152T836 192T895 262T965 362L985 350L797 0H14L25 51Q250 202 372 296T610 492Q907 750 907 1018Q907 1121 858 1179T705 1237Q612 1237 518 1180T365 1034T305 866Q305 715 440 715Q480 715 517 733T627 817L641 803Q564 719 502 686T360 653Q280 653 229 703T178 831Q178 932 265 1038T480 1207T735 1270Q895 1270 980 1198T1065 989Z"/><glyph unicode="3" horiz-adv-x="1100" d="M1094 1014Q1094 891 991 805T707 690L664 664H739Q854 664 915 608T977 438Q977 298 901 185T688 10T387 -53Q219 -53 111 19T2 205Q2 281 50 337T168 393Q211 393 233 373T256 322Q256 283 240 261T192 226Q156 213 142 195T127 147Q127 73 186 27T346 -20Q464 -20 576 51T759 238T829 479Q829 554 789 594T682 635Q612 635 511 564L453 524L430 563Q653 675 756 748T907 894T954 1053Q954 1237 750 1237Q674 1237 591 1195T457 1087T406 946Q406 899 434 873T518 846Q598 846 672 909L686 891Q621 834 561 802T426 770Q363 770 321 812T279 918Q279 998 353 1082T549 1218T795 1270Q934 1270 1014 1203T1094 1014Z"/><glyph unicode="4" horiz-adv-x="1028" d="M578 86L760 604H895L705 72Q757 75 797 90T870 129T971 231L987 217Q961 181 934 145T872 78T790 26T678 0L549 -362H420L553 14Q518 20 478 34Q301 96 166 96L104 92Q44 40 13 24T-41 8Q-69 8 -91 19T-113 57Q-113 87 -68 102T92 117Q345 342 616 1270H795Q639 792 478 518T131 117Q192 125 281 125Q383 125 519 97L578 86Z"/><glyph unicode="5" horiz-adv-x="1022" d="M1130 1280Q1042 1159 917 1100T608 1040Q582 1040 530 1045T465 1055L297 686Q417 764 561 764Q723 764 820 679T918 444Q918 315 845 205T642 33T352 -29Q259 -29 182 3T60 90T16 207Q16 267 54 305T147 344Q227 344 227 268Q227 245 219 231T200 204T179 178T166 143Q166 81 216 41T344 0Q458 0 555 67T708 252T764 500Q764 613 704 671T528 729Q432 729 361 688T250 573L215 580L520 1264H553Q577 1229 649 1207T823 1184Q906 1184 975 1209T1116 1292L1130 1280Z"/><glyph unicode="6" horiz-adv-x="1087" d="M1188 1255Q1188 1197 1161 1164T1090 1130Q1005 1130 1001 1255Q999 1336 973 1362T883 1389Q790 1389 677 1293T463 1032T297 684L301 680Q461 868 676 868Q822 868 900 777T979 522Q979 386 905 253T713 45T461 -29Q286 -29 194 80T102 403Q102 642 229 885T556 1281T956 1434Q1066 1434 1127 1387T1188 1255ZM831 569Q831 685 770 750T604 815Q505 815 415 746T271 556T217 297Q217 164 274 85T436 6Q538 6 627 84T774 299T831 569Z"/><glyph unicode="7" horiz-adv-x="1006" d="M1182 1219L1178 1200Q952 954 792 723T533 289T374 -151Q361 -200 342 -222T287 -244Q242 -244 221 -219T199 -156Q199 -43 415 280T1032 1081H510Q440 1081 383 1054T276 973T152 799L127 807L389 1333H412L397 1219H1182Z"/><glyph unicode="8" horiz-adv-x="1090" d="M758 666Q856 624 911 553T967 397Q967 276 901 178T719 23T473 -33Q299 -33 188 54T76 274Q76 391 182 498T434 647V653Q359 690 312 755T264 907Q264 1002 325 1090T492 1231T715 1284Q869 1284 963 1206T1057 1007Q1057 889 977 801T758 670V666ZM707 686Q826 723 900 816T975 1017Q975 1119 902 1185T711 1251Q623 1251 554 1214T444 1113T403 977Q403 901 427 860T512 781T707 686ZM487 631Q347 584 263 479T178 252Q178 141 259 71T477 0Q569 0 650 42T778 157T825 309Q825 408 796 452T697 537T487 631Z"/><glyph unicode="9" horiz-adv-x="1087" d="M-68 -31Q-68 27 -42 60T31 94Q115 94 119 -31Q121 -112 148 -138T238 -164Q415 -164 573 20T854 557L850 561Q690 373 475 373Q329 373 251 464T172 719Q172 855 246 988T438 1196T690 1270Q865 1270 957 1161T1049 838Q1049 591 924 343T599 -57T184 -209Q72 -209 2 -160T-68 -31ZM319 672Q319 559 379 493T547 426Q646 426 736 495T880 685T934 944Q934 1077 877 1156T715 1235Q614 1235 524 1157T377 943T319 672Z"/><glyph unicode=":" horiz-adv-x="557" d="M498 817Q498 768 465 737T385 705Q338 705 305 737T272 817Q272 863 305 896T385 930Q431 930 464 898T498 817ZM319 96Q319 49 286 17T205 -16Q158 -16 125 16T92 96Q92 142 125 175T205 209Q252 209 285 175T319 96Z"/><glyph unicode=";" horiz-adv-x="557" d="M500 817Q500 768 467 737T387 705Q340 705 307 737T274 817Q274 863 307 896T387 930Q433 930 466 898T500 817ZM326 78Q326 -23 254 -115T39 -283L31 -258Q120 -209 182 -137T252 4H205Q92 4 92 94Q92 139 123 174T207 209Q267 209 296 172T326 78Z"/><glyph unicode="&lt;" horiz-adv-x="1139" d="M1038 72L133 512V553L1038 993V934L209 532L1038 131V72Z"/><glyph unicode="=" horiz-adv-x="1139" d="M1061 684H156V739H1061V684ZM1061 326H156V381H1061V326Z"/><glyph unicode="&gt;" horiz-adv-x="1139" d="M1059 512L154 72V131L983 532L154 934V993L1059 553V512Z"/><glyph unicode="?" horiz-adv-x="827" d="M918 1120Q918 1006 851 926T639 782Q461 705 382 631T303 473Q303 420 338 389T432 358Q481 358 516 402T565 526L590 518Q574 428 529 378T416 328Q341 328 296 377T250 520Q250 621 315 699T559 862Q698 927 753 992T809 1167Q809 1272 743 1335T567 1399Q469 1399 405 1339T340 1194Q340 1121 381 1074T487 1026Q518 1026 535 1034V1040H531Q506 1040 484 1059T461 1106Q461 1140 483 1163T539 1186Q581 1186 606 1164T631 1102Q631 1054 594 1026T492 997Q415 997 362 1053T309 1192Q309 1291 391 1361T600 1432Q696 1432 768 1392T879 1280T918 1120ZM408 88Q408 42 377 12T299 -18Q253 -18 222 12T190 88Q190 134 221 165T299 197Q345 197 376 166T408 88Z"/><glyph unicode="@" horiz-adv-x="2011" d="M1915 240Q1857 41 1722 -115T1400 -355T1012 -440Q775 -440 572 -335T261 -47T152 367Q152 625 288 855T649 1214T1137 1343Q1334 1343 1484 1261T1719 1025T1804 684Q1804 530 1734 388T1543 157T1290 68Q1212 68 1164 115T1116 246V252L1110 254Q1068 177 998 125T862 72Q765 72 708 146T651 344Q651 421 693 525T798 707T938 829T1102 872Q1165 872 1210 835T1262 737H1268L1315 860H1413L1225 322Q1216 301 1209 264T1202 209Q1202 155 1228 123T1296 90Q1417 90 1533 176T1714 399T1778 696Q1778 866 1695 1007T1464 1228T1133 1307Q913 1307 715 1180T409 844T301 377Q301 160 391 -14T646 -287T1008 -387Q1333 -387 1566 -219T1898 244L1915 240ZM1251 686Q1237 775 1198 811T1087 848Q1014 848 940 770T813 556T760 315Q760 221 788 167T866 113Q1018 113 1135 332L1251 686Z"/><glyph unicode="A" horiz-adv-x="1290" d="M408 571L338 478Q249 363 152 224Q100 150 100 119Q100 83 164 55T303 23L297 0H-236L-229 23Q-198 26 -141 43T-52 83T22 153T235 413T567 834T1022 1421H1049V162Q1049 99 1058 80T1090 49Q1129 29 1214 23L1208 0H662L668 23Q808 32 854 62T901 156V571H408ZM432 604H901V1204Q610 835 432 604Z"/><glyph unicode="B" horiz-adv-x="1253" d="M1253 1139Q1253 855 870 758V750Q1165 698 1165 453Q1165 320 1086 217T859 57T524 0H-57L-53 23L-18 26Q93 33 132 58T188 143L494 1237Q502 1274 502 1284Q502 1300 496 1310T474 1332T407 1357T324 1374L330 1399H899Q1069 1399 1161 1331T1253 1139ZM1087 1120Q1087 1235 1024 1299T850 1364L678 1360L510 758H614Q759 758 865 802T1029 930T1087 1120ZM999 449Q999 581 913 652T664 723L500 719L344 162L343 141Q343 89 387 63T530 37Q667 37 774 91T940 242T999 449Z"/><glyph unicode="C" horiz-adv-x="1262" d="M1339 1419L1241 913H1212Q1193 1105 1154 1197T1042 1338T854 1386Q706 1386 570 1270T353 959T272 541Q272 304 381 170T680 35Q767 35 841 68T981 165T1145 373L1176 354Q1063 183 987 115T819 8T604 -31Q460 -31 345 37T166 227T102 504Q102 742 206 953T496 1294T893 1425Q958 1425 1010 1412T1101 1379T1192 1315L1276 1419H1339Z"/><glyph unicode="D" horiz-adv-x="1485" d="M1462 856Q1462 608 1343 413T1007 109T522 0H-57L-53 23L-18 26Q89 33 129 56T188 143L494 1237Q502 1274 502 1284Q502 1300 496 1310T474 1332T407 1357T324 1374L330 1399H909Q1079 1399 1202 1337T1393 1154T1462 856ZM1296 838Q1296 1098 1181 1230T842 1362L680 1358L354 197Q345 164 345 139Q345 86 389 63T541 39Q746 39 920 142T1195 428T1296 838Z"/><glyph unicode="E" horiz-adv-x="1274" d="M1339 1399L1251 1079H1221V1096Q1221 1159 1203 1219T1154 1315T1075 1357T924 1364H682L510 752H690Q767 752 826 779T925 865T997 1004H1030L870 434H842Q854 507 854 547Q854 584 850 614T829 664T795 695T747 711T682 717H502L362 223Q342 154 342 125Q342 74 381 56T549 37Q734 37 805 48T905 84Q967 135 1043 234T1151 393H1182L1049 0H-76L-68 23Q-38 23 23 31T104 47Q171 71 193 150L494 1235Q502 1272 502 1284Q502 1313 480 1328T400 1357T307 1374L315 1399H1339Z"/><glyph unicode="F" horiz-adv-x="1223" d="M1391 1399L1303 1067H1272Q1272 1151 1255 1214T1205 1314T1117 1357T958 1364H682L508 748H713Q763 748 810 761T898 800T972 883T1030 999H1065L903 424H868Q879 486 879 563Q879 629 866 647Q821 711 702 711H500L346 164Q338 142 338 115Q338 85 361 69T444 40T532 25L524 0H-76L-68 23Q-38 23 23 31T104 47Q171 71 193 150L494 1235Q502 1272 502 1284Q502 1313 480 1328T400 1357T307 1374L315 1399H1391Z"/><glyph unicode="G" horiz-adv-x="1413" d="M1446 618L1440 592L1407 588Q1308 574 1267 548T1206 457L1073 -39L1055 -43L1028 82Q874 20 820 3T712 -22T604 -31Q456 -31 342 34T165 223T102 516Q102 754 215 967T521 1303T934 1425Q1032 1425 1108 1400T1249 1315L1341 1419H1401L1288 928H1262Q1251 1100 1211 1194T1095 1337T899 1386Q738 1386 590 1267T359 956T276 537Q276 294 376 154T651 14Q793 14 887 93T1026 340L1053 438Q1060 464 1060 486Q1060 524 1041 542T965 573T823 592L829 618H1446Z"/><glyph unicode="H" horiz-adv-x="1626" d="M1776 1399L1767 1374Q1675 1367 1614 1350Q1548 1329 1526 1247L1219 152Q1210 121 1210 109Q1210 87 1221 77T1253 53Q1264 46 1311 36T1393 23L1386 0H811L817 23Q948 32 977 43Q1045 67 1065 143L1229 725H504L342 152Q336 135 336 111Q336 66 393 47T520 23L516 0H-57L-53 23L-18 26Q93 33 132 58T188 143L494 1237Q502 1274 502 1284Q502 1300 496 1310T474 1332T407 1357T324 1374L330 1399H905L899 1374Q806 1368 739 1350Q675 1329 649 1247L514 762H1237L1370 1237Q1378 1274 1378 1286Q1378 1329 1305 1350T1192 1374L1202 1399H1776Z"/><glyph unicode="I" horiz-adv-x="764" d="M922 1399L915 1374Q821 1367 756 1350Q689 1329 666 1247L358 152Q352 124 352 111Q352 81 374 65T448 37T537 23L532 0H-41L-37 23Q85 32 117 43Q183 66 205 143L510 1237Q518 1274 518 1284Q518 1310 499 1325T424 1356T340 1374L346 1399H922Z"/><glyph unicode="J" horiz-adv-x="1090" d="M827 729L1094 737L1077 686L817 684Q759 412 680 143Q610 -92 477 -223T166 -354Q68 -354 13 -315T-43 -199Q-43 -165 -16 -138T49 -111Q143 -111 143 -195Q143 -219 131 -237T102 -276Q102 -301 121 -314T168 -328Q295 -328 372 -243T510 38T640 569L664 682L397 680L403 715L676 723Q720 854 780 951T922 1128Q862 1122 804 1122H743Q685 1122 637 1152T540 1246Q489 1312 442 1343T340 1374Q281 1374 229 1321T176 1208Q176 1184 188 1165Q230 1162 260 1139T291 1083Q291 1056 268 1034T215 1012Q171 1012 144 1048T117 1147Q117 1208 162 1277T280 1392T428 1438Q504 1438 560 1406T665 1307Q715 1237 770 1201T899 1157H944L1003 1232Q1055 1303 1091 1335T1159 1368Q1208 1368 1208 1313Q1208 1283 1171 1245T1073 1175T942 1130Q914 1062 893 994T827 729Z"/><glyph unicode="K" horiz-adv-x="1440" d="M1595 1399L1589 1374L1544 1371Q1483 1367 1415 1341T1292 1268L1132 1132Q849 886 672 764Q784 623 1009 261Q1069 163 1101 129T1170 72T1244 40T1337 25L1333 0H686L690 25Q811 34 858 52T905 109Q905 138 854 239T716 475T557 696H498L342 152Q336 126 336 111Q336 66 393 47T520 23L516 0H-57L-53 23L-18 26Q93 33 132 58T188 143L494 1237Q502 1274 502 1284Q502 1300 496 1311T472 1333T391 1357T283 1374L289 1399H905L899 1374Q806 1368 739 1350Q675 1329 649 1247L504 725H547Q815 904 1014 1077T1214 1311Q1214 1362 1061 1374L1067 1399H1595Z"/><glyph unicode="L" horiz-adv-x="1257" d="M1182 397L1044 0H-76L-68 23Q-38 23 23 31T104 47Q171 71 193 150L494 1235Q502 1272 502 1284Q502 1313 480 1328T400 1357T307 1374L315 1399H905L899 1374Q806 1368 739 1350Q675 1329 649 1247L362 223Q342 154 342 120Q342 73 383 55T557 37Q664 37 762 52T891 90Q948 134 1029 229T1151 397H1182Z"/><glyph unicode="M" horiz-adv-x="1876" d="M2019 1399L2013 1374Q1920 1368 1853 1350Q1813 1337 1794 1311T1763 1247L1479 152Q1473 132 1473 111Q1473 83 1492 68T1539 45T1601 32T1665 23L1661 0H1090L1094 23Q1208 32 1239 43Q1308 67 1327 143L1608 1245L786 23H770Q766 93 730 234L713 307L522 1210L303 389Q288 336 276 270T264 180Q264 135 276 109T326 68T420 39T516 23L510 0H-102L-96 23Q-51 26 17 44T109 78Q187 126 256 379L465 1149Q478 1197 478 1231Q478 1300 425 1335T279 1374L285 1399H629L883 229L1546 1223Q1616 1326 1640 1399H2019Z"/><glyph unicode="N" horiz-adv-x="1499" d="M1712 1399L1706 1376Q1664 1373 1597 1357T1503 1325Q1461 1301 1429 1241T1362 1051L1077 -14H1051L518 1221L297 369Q264 237 264 180Q264 128 280 101T366 51T485 23L479 0H-102L-96 23Q-52 26 15 44T109 78Q191 129 252 358L457 1122Q465 1157 465 1192Q465 1283 399 1326T219 1374L227 1399H598L1106 223L1317 1038Q1350 1170 1350 1229Q1350 1276 1334 1301T1244 1350T1128 1376L1135 1399H1712Z"/><glyph unicode="O" horiz-adv-x="1436" d="M1407 881Q1407 643 1296 427T1005 89T614 -33Q485 -33 367 40T180 241T111 526Q111 763 220 971T515 1304T897 1430Q1035 1430 1155 1355T1341 1155T1407 881ZM1241 924Q1241 1138 1148 1263T889 1389Q720 1389 581 1268T359 927T276 471Q276 264 370 136T631 8Q799 8 936 127T1157 463T1241 924Z"/><glyph unicode="P" horiz-adv-x="1204" d="M1249 1098Q1249 898 1078 780T608 662H485L342 150Q336 127 336 111Q336 66 393 47T520 23L516 0H-57L-53 23L-18 26Q93 33 132 58T188 143L494 1237Q502 1274 502 1284Q502 1300 496 1310T474 1332T407 1357T324 1374L330 1399H862Q1052 1399 1150 1320T1249 1098ZM1083 1079Q1083 1211 1014 1286T799 1362H680L498 702H623Q846 702 964 796T1083 1079Z"/><glyph unicode="Q" horiz-adv-x="1333" d="M623 70Q676 34 722 -16T813 -120T906 -228T1011 -324T1139 -393T1300 -420Q1424 -420 1470 -397V-391Q1401 -366 1401 -305Q1401 -272 1429 -247T1497 -221Q1529 -221 1550 -242T1571 -295Q1571 -343 1527 -388T1407 -461T1241 -489Q1124 -489 1039 -461T891 -387T783 -283T700 -167T627 -55T551 37Q379 -31 225 -31Q117 -31 47 4T-23 100Q-23 157 52 199T219 242Q299 242 386 210T594 94Q754 178 878 320T1072 642T1141 1018Q1141 1188 1057 1289T829 1391Q678 1391 544 1301T329 1061T248 760Q248 634 316 561T500 487Q645 487 720 569T795 803Q795 889 767 946T694 1012Q705 984 705 959Q705 920 685 896T631 872Q551 872 551 948Q551 990 590 1025T682 1061Q762 1061 813 996T864 829Q864 724 814 637T678 500T498 449Q346 449 253 556T160 834Q160 984 251 1122T497 1345T819 1430Q1049 1430 1173 1305T1298 948Q1298 782 1217 617T977 307T623 70ZM526 61Q441 147 372 180T227 213Q173 213 129 181T78 106Q90 59 138 30T244 0Q386 0 526 61Z"/><glyph unicode="R" horiz-adv-x="1425" d="M1366 311Q1312 128 1247 53T1087 -23Q988 -23 943 26T897 190V408Q897 530 872 591T786 677T571 702H496L340 152Q334 126 334 111Q334 64 398 45T520 23L516 0H-57L-53 23L-18 26Q93 33 132 58T188 143L494 1237Q502 1274 502 1284Q502 1300 496 1310T474 1332T407 1357T324 1374L330 1399H872Q1080 1399 1180 1326T1280 1124Q1280 815 834 727V721Q946 704 1000 633T1055 430V195Q1055 116 1074 84T1141 51Q1257 51 1337 319L1366 311ZM1112 1102Q1112 1235 1039 1298T840 1362H680L506 741H637Q859 741 985 836T1112 1102Z"/><glyph unicode="S" horiz-adv-x="1069" d="M1155 1419L1038 954H1014Q992 1191 920 1287T707 1384Q566 1384 474 1306T381 1104Q381 1036 402 989T472 900T649 784Q802 698 859 650T945 550T973 430Q973 300 904 195T713 32T438 -27Q336 -27 242 2T94 76L0 -20H-49L66 459H92Q120 230 217 122T475 14Q584 14 669 54T802 169T850 330Q850 401 831 447T764 533T557 662Q384 759 322 836T260 1010Q260 1121 321 1217T490 1369T731 1425Q811 1425 887 1397T1010 1323L1106 1419H1155Z"/><glyph unicode="T" horiz-adv-x="1264" d="M1473 1399L1372 1042H1343Q1343 1123 1329 1191T1288 1300T1226 1353T1049 1364H942L612 160Q606 140 606 115Q606 97 613 85T639 62T728 38T829 23L823 0H176L182 23Q328 33 365 47Q432 71 455 150L791 1364H684Q588 1364 516 1356Q478 1351 416 1297T293 1166T209 1042H180L281 1399H1473Z"/><glyph unicode="U" horiz-adv-x="1610" d="M1784 1399L1778 1376Q1736 1373 1669 1357T1575 1325Q1536 1303 1504 1243T1427 1032L1268 473Q1191 202 1048 85T668 -33Q448 -33 343 52T238 291Q238 384 266 485L475 1237Q483 1274 483 1284Q483 1310 464 1325T389 1356T305 1374L311 1399H887L881 1374Q788 1368 721 1350Q654 1328 631 1247L430 526Q391 383 391 287Q391 174 484 105T729 35Q925 35 1045 146T1229 481L1382 1020Q1397 1067 1409 1129T1421 1229Q1421 1276 1406 1300T1317 1349T1200 1376L1206 1399H1784Z"/><glyph unicode="V" horiz-adv-x="1290" d="M1622 1399L1616 1376Q1584 1373 1532 1357T1448 1321T1383 1269T1286 1155Q1012 817 365 -23H338V1237Q338 1296 331 1315T305 1345T252 1365T172 1376L178 1399H725L719 1376Q575 1367 530 1336T485 1243V195L946 784Q1077 953 1167 1079T1272 1234T1286 1280Q1286 1315 1227 1342T1083 1376L1090 1399H1622Z"/><glyph unicode="W" horiz-adv-x="1939" d="M2259 1399L2253 1374Q2223 1372 2182 1360T2110 1333T2050 1289T1956 1163L1167 -16H1122V1090L385 -16H338V1237Q338 1295 330 1314T306 1344T255 1364T172 1376L178 1399H725L719 1376Q575 1367 530 1336T485 1243V186L1110 1139Q1122 1197 1122 1253Q1122 1308 1107 1329T1053 1361T956 1376L963 1399H1507L1501 1376Q1358 1367 1313 1337T1268 1243V188L1837 1059Q1899 1154 1916 1195T1933 1276Q1933 1315 1878 1342T1733 1374L1739 1399H2259Z"/><glyph unicode="X" horiz-adv-x="1460" d="M717 686L498 1208Q473 1267 454 1292T387 1346Q352 1365 240 1374L246 1399H918L901 1374Q764 1368 707 1343T649 1272Q649 1236 679 1148T821 788Q943 901 1107 1082T1272 1298Q1272 1337 1223 1353T1077 1374L1083 1399H1634L1628 1374Q1548 1368 1488 1345T1365 1274T1218 1145T836 752L1069 190Q1088 145 1108 115T1153 66T1207 39T1319 25L1313 0H641L647 25Q806 33 862 57T918 129Q918 194 731 653Q231 170 231 104Q231 60 281 45T424 25L418 0H-133L-127 25Q-43 31 22 58T158 141T416 386L717 686Z"/><glyph unicode="Y" horiz-adv-x="1255" d="M1464 1329Q1464 1285 1437 1258T1368 1231Q1331 1231 1309 1250T1286 1298Q1286 1318 1294 1341T1313 1376L1305 1384Q1211 1374 1096 1274T895 1022T764 690L629 152Q623 126 623 111Q627 72 670 51Q680 45 742 34T834 23L829 0H240L244 23Q357 32 391 43Q457 66 475 143L604 666Q616 712 625 791T635 944Q635 1118 567 1218T375 1319Q299 1319 237 1260T143 1100L117 1108Q223 1423 473 1423Q605 1423 679 1315T754 1020Q754 941 735 823H754Q1002 1425 1343 1425Q1397 1425 1430 1399T1464 1329Z"/><glyph unicode="Z" horiz-adv-x="1190" d="M1366 1399L1358 1374L72 35H473Q727 35 801 88Q873 144 959 243T1096 420H1124L975 0H-127L-121 25L1165 1364H793Q682 1364 630 1357T518 1306T386 1182T262 1022H233L373 1399H1366Z"/><glyph unicode="[" horiz-adv-x="1208" d="M1352 1489Q1352 1419 1301 1361T1162 1269T979 1235Q884 1235 798 1260T603 1348L469 1423L14 -260L188 -184Q325 -125 427 -99T625 -72Q755 -72 821 -119T887 -242Q887 -297 858 -337T782 -414L758 -406Q784 -383 803 -348T823 -285Q823 -219 643 -219Q525 -219 382 -236T-23 -309L-63 -326L422 1489L455 1473Q688 1415 813 1399T1079 1382Q1198 1382 1255 1410T1313 1499Q1313 1531 1298 1563L1321 1575Q1335 1563 1343 1539T1352 1489Z"/><glyph unicode="\" horiz-adv-x="823" d="M340 1524L401 1540L520 -410L459 -426L340 1524Z"/><glyph unicode="]" horiz-adv-x="1208" d="M-113 -328Q-113 -258 -62 -200T77 -108T260 -74Q355 -74 441 -99T637 -186L770 -262L1225 1421L1051 1346Q914 1286 812 1260T614 1233Q484 1233 418 1280T352 1403Q352 1459 381 1498T457 1575L481 1567Q459 1550 438 1512T416 1446Q416 1380 596 1380Q714 1380 856 1397T1262 1470L1303 1487L817 -328L784 -311Q578 -262 499 -249T337 -228T160 -221Q41 -221 -16 -249T-74 -338Q-74 -369 -59 -401L-82 -414Q-96 -401 -104 -377T-113 -328Z"/><glyph unicode="^" horiz-adv-x="1151" d="M219 999L616 1524H756L983 999H836L647 1313L365 999H219Z"/><glyph unicode="_" horiz-adv-x="1221" d="M1032 -287H-217V-225H1032V-287Z"/><glyph unicode="`" horiz-adv-x="1024" d="M850 1092L827 1079L758 1153L636 1287L594 1331Q543 1379 543 1432Q543 1459 560 1478T606 1497Q636 1497 655 1480T696 1417T850 1092Z"/><glyph unicode="a" horiz-adv-x="1081" d="M985 932L750 262Q711 155 711 92Q711 12 774 12Q844 12 911 86T1030 295L1055 287Q986 116 913 47T745 -23Q613 -23 613 112Q613 155 629 213L625 215Q563 98 481 36T309 -27Q183 -27 115 55T47 295Q47 400 93 527T211 747T379 892T586 944Q667 944 725 899T799 782H803L856 932H985ZM786 737Q774 817 720 865T582 913Q482 913 395 824T249 569T190 246Q190 23 336 23Q416 23 484 76T625 258L786 737Z"/><glyph unicode="b" horiz-adv-x="999" d="M952 623Q952 514 908 388T791 169T622 25T414 -27Q270 -27 185 51T100 254Q100 316 129 408L403 1264Q434 1357 434 1401Q434 1440 395 1455T287 1473L223 1475V1499L621 1520L367 748L371 745Q423 830 510 887T676 944Q808 944 880 860T952 623ZM809 672Q809 780 768 837T649 895Q566 895 483 830T340 659L205 231Q205 123 261 64T418 4Q518 4 605 93T751 348T809 672Z"/><glyph unicode="c" horiz-adv-x="797" d="M788 750Q788 703 767 675T707 647Q670 647 641 670T612 729Q612 758 638 788T709 836Q705 872 668 896T580 920Q489 920 400 823T252 564T193 252Q193 140 237 83T362 25Q458 25 552 96T723 307L748 295Q661 137 555 54T330 -29Q247 -29 184 8T84 117T47 295Q47 434 128 596T328 851T573 944Q670 944 729 892T788 750Z"/><glyph unicode="d" horiz-adv-x="1102" d="M1171 1520L776 262Q744 162 744 100Q744 12 811 12Q876 12 933 78T1051 295L1075 287Q1021 154 981 95T893 7T782 -23Q645 -23 645 123Q645 162 657 213L653 215Q581 97 490 35T309 -27Q183 -27 115 55T47 295Q47 405 92 531T209 749T377 892T586 944Q667 944 728 899T809 782H813L958 1264Q989 1370 989 1401Q989 1457 905 1466L831 1472L756 1475V1499L1171 1520ZM797 737Q783 814 726 863T582 913Q482 913 395 824T249 569T190 246Q190 23 336 23Q424 23 505 83T651 258L797 737Z"/><glyph unicode="e" horiz-adv-x="799" d="M190 246Q190 140 236 83T367 25Q560 25 719 313L743 303Q657 140 554 56T336 -29Q201 -29 124 59T47 299Q47 396 97 521T225 743T402 891T608 944Q687 944 739 907T791 807Q791 709 715 628T500 494T213 434Q190 338 190 246ZM217 457Q356 471 455 522T610 646T666 795Q666 913 561 913Q462 913 362 778T217 457Z"/><glyph unicode="f" horiz-adv-x="629" d="M981 1278Q941 1278 912 1299T883 1354Q883 1376 897 1410T913 1460Q913 1474 899 1482T868 1491Q750 1491 658 1379T506 1055L465 911H723L707 860H453L401 658Q307 296 247 96T111 -229T-59 -418T-252 -483Q-337 -483 -385 -444T-434 -334Q-434 -298 -408 -270T-344 -242Q-304 -242 -277 -265T-250 -326Q-250 -353 -262 -373T-289 -416Q-287 -434 -273 -443T-248 -453Q-144 -453 -74 -371T67 -80T276 680L322 860H104L119 911H336L358 993Q427 1242 571 1382T889 1522Q970 1522 1020 1481T1071 1376Q1071 1335 1046 1307T981 1278Z"/><glyph unicode="g" horiz-adv-x="938" d="M1004 858Q1004 818 980 794T920 770Q875 770 861 802T846 891Q781 891 721 852V842Q741 811 754 767T768 692Q768 542 670 445T422 348H287Q238 336 204 304T170 230Q170 193 193 174T273 142T426 125Q644 106 704 82T790 11T817 -109Q817 -207 746 -293T549 -429T270 -479Q103 -479 6 -418T-92 -254Q-92 -145 -1 -72T254 25V31Q158 48 116 81T74 168Q74 229 127 281T281 367V371Q206 405 166 462T125 588Q125 685 175 767T316 896T512 944Q560 944 609 929T694 891L721 877Q796 916 841 930T920 944Q953 944 978 919T1004 858ZM645 745Q645 830 606 874T500 918Q437 918 383 869T293 733T256 571Q256 480 300 428T418 375Q476 375 526 423T611 564T645 745ZM264 10Q164 -14 100 -84T35 -246Q35 -338 112 -393T322 -449Q499 -449 600 -365T702 -143Q702 -95 683 -65T627 -27Q511 -2 340 6L264 10Z"/><glyph unicode="h" horiz-adv-x="1083" d="M1053 287Q1000 157 959 97T870 7T760 -23Q676 -23 631 18T586 137Q586 174 598 214T631 307L752 627Q797 756 797 797Q797 895 674 895Q587 895 500 825T352 637L152 0H20L420 1264Q449 1363 449 1401Q449 1439 413 1454T303 1473L240 1475V1499L637 1520L377 733L381 731Q442 826 528 885T698 944Q793 944 852 883T911 727Q911 665 872 563L758 262Q709 130 709 80Q709 46 726 29T784 12Q919 12 1028 295L1053 287Z"/><glyph unicode="i" horiz-adv-x="645" d="M651 1335Q651 1280 621 1245T541 1210Q497 1210 476 1239T455 1309Q455 1364 488 1398T573 1432Q607 1432 629 1402T651 1335ZM600 287Q526 105 461 41T309 -23Q145 -23 145 137Q145 202 186 307L324 655Q371 778 371 838Q371 880 354 895T305 911Q240 911 184 846T68 625L43 633Q101 772 140 828T226 914T334 944Q409 944 449 898T489 770Q489 717 426 563L309 262Q262 139 262 78Q262 12 336 12Q405 12 463 83T575 295L600 287Z"/><glyph unicode="j" horiz-adv-x="557" d="M635 1335Q635 1279 604 1245T524 1210Q481 1210 460 1239T438 1309Q438 1364 471 1398T557 1432Q589 1432 612 1403T635 1335ZM489 772Q489 757 479 703T414 436T303 45Q250 -126 173 -243T4 -421T-184 -483Q-258 -483 -305 -444T-352 -344Q-352 -307 -330 -279T-266 -250Q-228 -250 -203 -272T-178 -330Q-178 -374 -213 -416Q-209 -453 -178 -453Q-67 -453 9 -350T156 -12Q243 275 354 713Q371 776 371 829Q371 911 309 911Q245 911 187 843T72 625L47 633Q100 765 139 823T227 913T338 944Q489 944 489 772Z"/><glyph unicode="k" horiz-adv-x="1071" d="M1057 817Q1057 772 1027 736T952 700Q923 700 899 718T874 762Q874 794 883 810T905 836T928 856T944 885Q936 905 924 914T883 924Q844 924 814 890T741 760Q662 586 528 549Q606 520 635 496T679 438T694 354Q694 295 677 213Q659 130 659 102Q659 53 677 34T729 14Q865 14 973 295L997 287Q931 119 862 48T702 -23Q612 -23 572 14T532 137Q532 183 553 281Q573 378 573 401Q573 471 535 501T408 532L317 528L147 0H16L418 1264Q446 1350 446 1401Q446 1439 411 1454T301 1473L238 1475V1499L635 1520L326 561L382 559H442Q522 559 577 606T676 752Q721 852 773 898T901 944Q983 944 1020 909T1057 817Z"/><glyph unicode="l" horiz-adv-x="561" d="M633 1520L229 258Q190 137 190 80Q190 43 208 29T260 14Q395 14 504 295L528 287Q461 115 394 46T236 -23Q152 -23 114 17T76 135Q76 185 113 307L416 1264Q444 1350 444 1401Q444 1439 409 1454T297 1472L233 1475V1499L633 1520Z"/><glyph unicode="m" horiz-adv-x="1718" d="M1690 287Q1637 157 1596 97T1507 7T1397 -23Q1313 -23 1268 18T1223 137Q1223 174 1235 214T1268 307L1389 627Q1434 756 1434 797Q1434 895 1311 895Q1157 895 1016 684L793 0H655L872 655Q882 682 893 728T905 797Q905 895 782 895Q696 895 609 824T461 637L248 0H111L332 655Q377 785 377 850Q377 887 361 899T319 911Q249 911 191 842T76 625L51 633Q109 773 148 828T234 914T342 944Q408 944 445 905T482 794Q482 757 471 709L475 707Q530 809 623 876T807 944Q899 944 950 893T1003 755L999 709L1004 707Q1060 811 1153 877T1335 944Q1430 944 1489 883T1548 727Q1548 701 1537 653T1509 563L1395 262Q1346 135 1346 80Q1346 46 1363 29T1421 12Q1488 12 1547 80T1665 295L1690 287Z"/><glyph unicode="n" horiz-adv-x="1190" d="M1161 287Q1108 157 1067 97T978 7T868 -23Q784 -23 739 18T694 137Q694 174 706 214T739 307Q822 527 863 637T905 797Q905 895 782 895Q696 895 609 824T461 637L252 0H111L332 655Q377 785 377 850Q377 887 361 899T319 911Q249 911 191 842T76 625L51 633Q109 773 148 828T234 914T342 944Q408 944 445 905T482 794Q482 757 471 709L475 707Q530 809 623 876T807 944Q901 944 960 883T1020 735Q1020 704 1009 656T981 563L866 262Q817 130 817 80Q817 12 893 12Q958 12 1017 79T1137 295L1161 287Z"/><glyph unicode="o" horiz-adv-x="936" d="M883 584Q883 485 837 369T718 163T549 22T346 -29Q262 -29 195 15T91 141T55 330Q55 464 135 618T333 858T584 944Q717 944 800 847T883 584ZM739 629Q739 723 718 787T660 884T573 918Q478 918 393 830T254 589T199 291Q199 154 245 76T365 -2Q461 -2 545 85T684 329T739 629Z"/><glyph unicode="p" horiz-adv-x="1110" d="M1067 623Q1067 513 1022 386T904 167T737 24T528 -27Q446 -27 385 19T305 135H301Q230 -101 193 -223T158 -381Q158 -419 195 -434T303 -452L362 -455L356 -479H-176L-170 -457Q-102 -457 -70 -445T-12 -396T38 -285T334 655Q375 784 375 844Q375 911 317 911Q186 911 76 625L51 633Q105 763 146 822T235 913T342 944Q405 944 440 904T475 793Q475 755 463 705L467 702Q536 816 625 880T805 944Q931 944 999 862T1067 623ZM924 672Q924 895 778 895Q695 895 612 830T469 659L319 180Q332 104 389 54T532 4Q631 4 718 91T864 346T924 672Z"/><glyph unicode="q" horiz-adv-x="1012" d="M1001 932L627 -244Q598 -333 598 -381Q598 -413 618 -426T677 -445T786 -455L780 -479H244L250 -457Q379 -457 420 -412Q437 -394 452 -363T498 -240Q611 114 633 186L629 188Q571 93 482 33T309 -27Q179 -27 113 54T47 295Q47 405 93 532T211 751T380 893T586 944Q643 944 693 922T777 860T819 782H823L915 932H1001ZM807 737Q796 811 733 862T582 913Q482 913 395 824T249 569T190 246Q190 23 336 23Q514 23 645 258L807 737Z"/><glyph unicode="r" horiz-adv-x="813" d="M848 838Q848 793 823 758T754 723Q706 723 687 747T668 803Q668 824 689 844T711 870Q711 883 707 888T688 893Q647 893 582 818T457 627L262 0H127L332 655Q371 781 371 840Q371 911 317 911Q186 911 76 623L51 633Q107 768 147 826T235 914T342 944Q407 944 445 903T483 790Q483 755 473 711L477 709Q525 814 596 879T735 944Q788 944 818 913T848 838Z"/><glyph unicode="s" horiz-adv-x="741" d="M700 737Q700 685 676 653T604 621Q573 621 549 641T524 696Q524 753 609 797Q625 805 627 813Q621 864 579 892T471 920Q388 920 335 868T281 733Q281 674 321 622T450 509Q536 448 577 389T618 260Q618 183 577 116T464 10T303 -29Q207 -29 143 1T44 82T10 201Q10 255 43 291T123 328Q163 328 186 306T209 246Q209 211 187 189T129 166Q104 166 92 164T80 139Q80 105 108 71T187 18T301 -2Q397 -2 458 47T520 176Q520 243 480 297T349 413Q261 471 220 531T178 666Q178 737 217 801T325 905T473 944Q543 944 594 920T673 846T700 737Z"/><glyph unicode="t" horiz-adv-x="633" d="M698 911L682 860H422L286 405Q266 335 236 225T205 92Q205 12 276 12Q345 12 411 84T535 299L559 291Q489 122 417 50T254 -23Q90 -23 90 135Q90 179 109 247T180 489T293 860H96L113 911H311L401 1229H530L436 911H698Z"/><glyph unicode="u" horiz-adv-x="1174" d="M1147 287Q1094 157 1053 97T964 7T854 -23Q767 -23 737 23T707 129Q707 165 715 209L711 211Q651 103 560 38T379 -27Q283 -27 225 37T166 203Q166 224 177 269T205 354L322 655Q367 775 367 831Q367 911 305 911Q240 911 184 843T70 625L45 633Q98 764 137 823T224 911T332 940Q407 940 447 899T487 780Q487 716 444 610L319 291Q283 198 283 125Q283 23 403 23Q486 23 571 89T721 270L924 913H1063L848 262Q834 219 825 171T815 94Q815 59 832 36T879 12Q1013 12 1122 295L1147 287Z"/><glyph unicode="v" horiz-adv-x="1012" d="M977 793Q977 563 908 372T719 76T444 -29Q371 -29 309 4T211 101T174 244Q174 378 256 514T535 825L528 831Q396 750 272 750Q181 750 141 776L68 567L43 575L168 940H182Q207 891 263 860T383 829Q456 829 517 856T653 950L670 936Q573 844 486 720T356 483T313 272Q313 39 524 39Q618 39 706 113T847 316T899 604Q899 651 884 679T849 732T815 783T799 854Q799 889 828 914T895 940Q977 940 977 793Z"/><glyph unicode="w" horiz-adv-x="1386" d="M633 119Q506 -27 383 -27Q291 -27 230 51T168 250Q168 376 256 521T518 823L512 831Q442 789 388 772T270 754Q182 754 137 780L66 578L43 586L164 940H176Q199 893 262 861T381 829Q444 829 498 854T633 950L649 936Q557 844 475 718T349 467T305 240Q305 148 342 94T440 39Q523 39 623 143Q590 228 590 336Q590 447 649 601T788 850T940 944Q968 944 978 914T989 821Q989 719 915 551T723 217Q753 134 809 86T922 37Q1011 37 1097 120T1233 334T1282 604Q1282 679 1223 735Q1191 764 1177 792T1163 858Q1163 892 1189 918T1253 944Q1302 944 1326 910T1350 786Q1350 568 1286 378T1107 79T850 -29Q703 -29 633 119ZM715 248Q811 385 875 539T940 784Q940 822 926 835T887 848Q854 848 817 820T752 731T712 583T698 389Q698 314 715 248Z"/><glyph unicode="x" horiz-adv-x="1040" d="M436 248H428Q311 -25 127 -25Q48 -25 6 13T-37 115Q-37 251 137 403L154 387Q116 299 101 241T86 117Q86 60 101 36T150 12Q202 12 248 45T334 139T414 300T494 542T535 776Q535 911 432 911Q357 911 285 831T164 625L139 633Q209 801 286 872T455 944Q553 944 596 883T643 694H649Q690 801 768 872T930 944Q1003 944 1041 906T1079 795Q1079 738 1048 680T932 543L915 559Q944 610 965 688T987 827Q987 866 972 892T922 918Q830 918 753 813T614 491T551 178Q551 96 580 57T674 18Q832 18 942 297L967 289Q844 -25 647 -25Q540 -25 488 36T436 223V248Z"/><glyph unicode="y" horiz-adv-x="1061" d="M1061 913L846 217Q626 -489 184 -489Q64 -489 -3 -445T-70 -317Q-70 -264 -36 -231T47 -197Q87 -197 107 -218T127 -265V-270Q122 -340 69 -349Q38 -355 27 -362T16 -387Q20 -422 61 -441T172 -461Q301 -461 399 -392T572 -186T721 209L717 211Q658 105 564 39T379 -27Q283 -27 225 37T166 203Q166 224 177 269T205 354L322 655Q367 771 367 831Q367 911 305 911Q240 911 184 843T70 625L45 633Q98 764 137 823T224 911T332 940Q407 940 447 899T487 780Q487 716 444 610L319 291Q283 198 283 125Q283 23 403 23Q489 23 576 88T729 270L928 913H1061Z"/><glyph unicode="z" horiz-adv-x="834" d="M893 881Q893 840 869 807T774 715L125 201L127 195Q172 192 212 180T295 153Q371 128 409 121T501 113Q582 113 623 146T665 233Q665 311 569 330L578 354Q656 338 698 291T741 164Q741 88 685 32T557 -25Q503 -25 446 -2T315 71Q235 125 190 146T104 168Q62 157 62 102L63 53Q63 -27 6 -27Q-14 -27 -32 -11T-51 43Q-51 78 -19 115T63 193L183 292Q504 557 731 717L729 723L709 722Q650 722 532 757Q396 797 344 797Q213 797 213 698Q213 657 246 624T338 573L326 551Q123 619 123 745Q123 823 180 881T313 940Q363 940 413 917T522 844Q585 792 627 770T709 748Q748 748 765 763T782 811V850Q782 895 802 918T848 942Q866 942 879 927T893 881Z"/><glyph unicode="{" horiz-adv-x="831" d="M999 1524L993 1495Q812 1483 735 1397T641 1114Q627 961 572 860T422 700T160 614L147 563Q302 541 368 483T434 315Q434 251 417 191T380 73T343 -37T326 -139Q326 -231 373 -270T539 -317L532 -346Q402 -346 330 -326T228 -261T197 -127Q197 -59 217 4T261 126T306 241T326 352Q326 450 264 495T57 551L72 627Q245 646 323 687T440 809T489 1034Q503 1239 554 1338T709 1481T999 1524Z"/><glyph unicode="|" horiz-adv-x="598" d="M371 -424H309V1528H371V-424Z"/><glyph unicode="}" horiz-adv-x="831" d="M-113 -346L-106 -317Q74 -305 151 -220T246 63Q260 216 315 317T465 477T727 563L739 614Q583 637 518 696T453 862Q453 926 470 987T507 1105T544 1215T561 1317Q561 1409 515 1448T348 1495L354 1524Q483 1524 554 1504T658 1440T690 1305Q690 1236 670 1174T626 1052T581 937T561 825Q561 728 622 683T829 627L815 551Q645 532 565 491T447 369T397 143Q383 -63 333 -161T179 -302T-113 -346Z"/><glyph unicode="~" horiz-adv-x="1065" d="M1016 674Q960 569 870 500T692 430Q630 430 586 444T504 475T433 506T360 520Q208 520 104 391L86 397Q140 495 239 564T432 633Q490 633 534 619T615 588T688 557T762 543Q831 543 885 573T999 680L1016 674Z"/><glyph unicode=" " horiz-adv-x="233"/><glyph unicode="¡" horiz-adv-x="635" d="M442 1321Q442 1367 473 1397T551 1427Q597 1427 628 1397T659 1321Q659 1275 628 1244T551 1212Q505 1212 474 1243T442 1321ZM143 70Q143 110 220 337T446 979L489 971Q463 837 396 431Q344 122 336 88Q307 -16 223 -16Q185 -16 164 6T143 70Z"/><glyph unicode="¢" horiz-adv-x="899" d="M322 143Q226 172 177 251T127 455Q127 597 208 758T407 1011T653 1104H672L772 1372L795 1366L696 1100Q777 1089 822 1038T868 909Q868 862 846 834T786 806Q748 806 720 830T692 889Q692 918 717 948T788 995Q785 1026 758 1048T688 1075L367 201Q401 184 442 184Q538 184 632 255T803 467L827 455Q743 299 636 215T410 131Q378 131 344 137L209 -229L186 -223L322 143ZM664 1079H659Q571 1079 482 980T332 717T272 412Q272 272 346 213L664 1079Z"/><glyph unicode="£" horiz-adv-x="1528" d="M543 580H264V606H547L567 702Q618 903 717 1063T945 1305T1221 1386Q1367 1386 1451 1307T1536 1090Q1536 932 1446 832T1206 731Q1117 731 1058 788T999 934Q999 1041 1059 1135L1083 1126Q1036 1045 1036 950Q1036 867 1082 819T1206 770Q1308 770 1373 863T1438 1090Q1438 1213 1382 1284T1225 1356Q1033 1356 917 1209T754 768L727 606H1118V580H723Q704 468 682 399H1079V375H674Q622 227 535 129Q619 108 686 76T814 15T937 -36T1069 -57Q1136 -57 1179 -32T1251 36T1302 137T1346 260L1370 252Q1315 26 1196 -73T885 -172Q821 -172 743 -143T568 -56L457 4Q306 -188 111 -188Q22 -188 -28 -152T-78 -49Q-78 41 32 98T309 156Q412 156 494 137Q517 179 521 239T528 375H227V399H530Q536 523 543 580ZM426 18Q284 88 147 88Q67 88 12 45T-43 -53Q-43 -100 0 -128T111 -156Q278 -156 426 18Z"/><glyph unicode="¤" horiz-adv-x="1280" d="M1104 391L987 285L788 500Q717 453 621 453Q528 453 457 500L256 285L139 391L348 608Q319 647 309 686T299 780Q299 883 348 952L139 1167L256 1276L457 1061Q528 1108 621 1108Q717 1108 788 1061L991 1276L1108 1155L899 952Q928 911 938 871T948 780Q948 684 895 608L1104 391ZM797 780Q797 860 747 910T621 961Q545 961 497 911T449 780Q449 700 499 652T621 604Q700 604 748 652T797 780Z"/><glyph unicode="¥" horiz-adv-x="1137" d="M1356 1243L1350 1214Q1330 1211 1291 1199T1239 1182Q1153 1137 928 877T657 543H975V516H643Q635 498 625 469T590 348H922V322H582L535 156Q528 136 528 115Q528 85 550 69T624 41T713 27L709 0H141L145 27Q267 36 299 47Q365 70 387 147L438 322H121V348H444L492 516H174V543H489Q489 580 477 627Q445 763 358 1055Q333 1137 293 1173T182 1214L188 1243H715L709 1214Q512 1201 512 1155Q512 1121 554 941T645 598Q807 779 946 950T1085 1145Q1085 1171 1027 1189T883 1214L889 1243H1356Z"/><glyph unicode="¦" horiz-adv-x="598" d="M330 743H268V1528H330V743ZM330 -424H268V379H330V-424Z"/><glyph unicode="§" horiz-adv-x="991" d="M477 950Q436 1055 436 1145Q436 1245 484 1330T616 1463T803 1511Q888 1511 931 1472T975 1360Q975 1307 942 1270T856 1233Q824 1233 800 1250T776 1300Q776 1347 822 1374Q864 1398 871 1410T878 1436Q878 1479 797 1479Q678 1479 604 1408T530 1223Q530 1151 564 1070T702 819Q815 628 848 540T881 369Q881 254 802 183T573 98Q614 -7 614 -96Q614 -196 568 -280T436 -413T248 -463Q163 -463 120 -424T76 -311Q76 -255 110 -220T195 -184Q227 -184 250 -202T274 -252Q274 -284 260 -299T228 -325Q188 -349 181 -361T173 -388Q173 -430 254 -430Q374 -430 447 -359T520 -174Q520 -103 487 -25T348 229Q235 419 203 506T170 680Q170 794 249 866T477 950ZM565 117Q675 132 728 180T782 317Q782 377 750 449T586 745Q517 862 485 932Q376 916 322 869T268 731Q268 690 281 649T326 545T465 303Q538 179 565 117Z"/><glyph unicode="¨" horiz-adv-x="1024" d="M999 1319Q999 1270 967 1236T887 1202Q843 1202 822 1229T801 1292Q801 1341 835 1374T920 1407Q952 1407 975 1381T999 1319ZM604 1319Q604 1270 572 1236T492 1202Q448 1202 427 1229T406 1292Q406 1341 440 1374T524 1407Q557 1407 580 1380T604 1319Z"/><glyph unicode="©" horiz-adv-x="1923" d="M1855 514Q1855 279 1736 75T1413 -250T977 -371Q743 -371 539 -250T215 75T96 514Q96 745 215 949T538 1274T977 1395Q1211 1395 1414 1274T1736 949T1855 514ZM1802 514Q1802 730 1693 922T1390 1230T977 1346Q760 1346 568 1234T263 930T150 514Q150 296 259 103T563 -206T977 -322Q1197 -322 1390 -206T1693 102T1802 514ZM1372 324Q1305 177 1207 102T989 27Q775 27 645 158T514 506Q514 644 579 759T761 939T1018 1004Q1077 1004 1149 984T1255 940L1300 1018H1329L1337 647H1317Q1260 818 1177 892T979 967Q897 967 830 912T726 755T688 516Q688 397 733 299T857 147T1030 92Q1127 92 1204 146T1350 334L1372 324Z"/><glyph unicode="ª" horiz-adv-x="737" d="M752 918Q713 818 676 782T590 745Q551 745 528 774T504 850H500Q473 802 431 772T346 741Q273 741 232 787T190 920Q190 997 238 1086T356 1223T504 1270Q583 1270 604 1192H608L629 1264H715L592 905Q586 889 578 856T569 811Q569 772 600 772Q675 772 731 926L752 918ZM596 598L588 563H147L156 598H596ZM588 1171Q580 1212 562 1230T506 1249Q458 1249 410 1199T324 1058T287 893Q287 774 367 774Q399 774 429 796T494 874L588 1171Z"/><glyph unicode="«" horiz-adv-x="1108" d="M868 51L848 37L545 383Q516 414 516 434Q516 454 528 478T582 530Q966 786 1090 879L1102 864L672 455L868 51ZM440 51L420 37L117 383Q88 414 88 434Q88 454 100 478T154 530Q538 786 662 879L674 864L244 455L440 51Z"/><glyph unicode="¬" horiz-adv-x="1139" d="M1006 80H940V526H86V584H1006V80Z"/><glyph unicode="­" horiz-adv-x="793" d="M711 455H80L109 565H739L711 455Z"/><glyph unicode="®" horiz-adv-x="958" d="M1008 1067Q1008 965 959 879T824 743T641 694Q543 694 458 743T324 878T274 1067Q274 1169 323 1255T458 1391T641 1440Q739 1440 824 1391T958 1256T1008 1067ZM981 1067Q981 1216 882 1316T641 1417Q499 1417 400 1317T301 1067Q301 918 400 818T641 717Q783 717 882 817T981 1067ZM866 952Q866 907 853 887T797 866Q766 866 744 892T715 971Q709 1024 684 1051T618 1079H578V924Q578 903 592 895T637 887V872H457V887Q489 887 498 893Q516 902 516 924V1241Q516 1253 512 1261T488 1275T457 1280V1292H666Q724 1292 759 1267T795 1198Q795 1124 676 1096V1090Q711 1084 736 1066T770 1020L782 969Q793 919 801 906T825 893Q858 893 858 952H866ZM723 1186Q723 1229 700 1253T633 1278H578V1096H616Q723 1096 723 1186Z"/><glyph unicode="¯" horiz-adv-x="1024" d="M1049 1233H373L399 1333H1075L1049 1233Z"/><glyph unicode="°" horiz-adv-x="831" d="M897 1147Q897 1068 856 999T744 889T596 848Q466 848 385 929T303 1145Q303 1228 344 1300T454 1413T596 1454Q729 1454 813 1372T897 1147ZM786 1143Q786 1269 736 1344T598 1419Q512 1419 462 1344T412 1153Q412 1031 463 957T602 883Q681 883 733 958T786 1143Z"/><glyph unicode="±" horiz-adv-x="1536" d="M672 352V764H201V936H672V1352H864V936H1335V764H864V352H672ZM205 25V215H1335V25H205Z"/><glyph unicode="²" horiz-adv-x="895" d="M37 629L59 772L440 1112Q553 1215 581 1262T610 1358Q610 1397 585 1428T496 1460Q420 1460 357 1422T260 1348L152 1473Q209 1524 306 1572T541 1620Q676 1620 741 1549T807 1388Q807 1293 734 1195T500 977L256 788H743L721 629H37Z"/><glyph unicode="³" horiz-adv-x="895" d="M43 727L160 860Q197 823 256 800T391 776Q483 776 532 826T582 948Q582 1001 533 1034T399 1067H332L360 1212H416Q527 1212 573 1251T620 1358Q620 1394 592 1425T500 1456Q420 1456 357 1429T264 1380L205 1511Q244 1548 334 1584T537 1620Q676 1620 738 1554T801 1402Q801 1339 773 1279T688 1185T563 1149Q649 1138 707 1084T767 951Q767 924 760 893Q739 772 636 694T383 612Q163 612 43 727Z"/><glyph unicode="´" horiz-adv-x="1024" d="M975 1440Q975 1405 948 1378T883 1325L508 1079L494 1096Q685 1297 786 1417Q852 1495 915 1495Q943 1495 959 1478T975 1440Z"/><glyph unicode="µ" horiz-adv-x="1151" d="M1128 287Q1061 115 994 46T836 -23Q749 -23 719 23T688 132Q688 166 696 209L692 211Q632 103 541 38T360 -27Q202 -27 152 147H147L123 33Q84 -148 84 -227Q84 -343 58 -403T-14 -463Q-38 -463 -56 -445T-74 -393Q-74 -363 -64 -331T-12 -213Q59 -66 117 129L352 913H492L309 303Q291 241 281 200T270 127Q270 74 296 49T385 23Q466 23 550 87T702 270L905 913H1044L829 262Q797 166 797 94Q797 59 814 36T860 12Q925 12 984 79T1104 295L1128 287Z"/><glyph unicode="¶" horiz-adv-x="1198" d="M1370 1399L1364 1370H1075L668 -256H635L1040 1370H819L414 -256H381L627 735H608Q423 735 316 814T209 1028Q209 1128 267 1214T429 1350T666 1399H1370Z"/><glyph unicode="·" horiz-adv-x="578" d="M442 557Q442 502 404 464T309 426Q253 426 215 464T176 557Q176 612 215 651T309 690Q364 690 403 651T442 557Z"/><glyph unicode="¸" horiz-adv-x="1024" d="M563 -246Q563 -344 441 -404T119 -465L131 -430Q276 -428 359 -393T442 -299Q442 -257 405 -243T287 -229L367 16H403L362 -113Q457 -113 510 -147T563 -246Z"/><glyph unicode="¹" horiz-adv-x="768" d="M307 629L436 1440L193 1368L215 1507L528 1636H643L492 629H307Z"/><glyph unicode="º" horiz-adv-x="649" d="M649 1073Q649 997 606 915T494 787T346 741Q278 741 234 795T190 938Q190 1011 234 1094T346 1223T494 1270Q561 1270 605 1216T649 1073ZM582 598L573 563H133L141 598H582ZM557 1100Q557 1165 535 1208T483 1251Q435 1251 390 1203T314 1071T283 915Q283 844 305 803T358 762Q411 762 455 806T528 934T557 1100Z"/><glyph unicode="»" horiz-adv-x="1108" d="M426 51L856 455L659 864L680 879Q758 777 987 530Q1006 509 1009 500T1013 481L1008 459Q1002 439 993 426T942 383L438 37L426 51ZM-2 51L428 455L231 864L252 879Q330 777 559 530Q578 509 581 500T585 481L580 459Q574 439 565 426T514 383L10 37L-2 51Z"/><glyph unicode="¼" horiz-adv-x="1190" d="M922 694H406L412 719L445 721Q505 724 539 728T595 752T625 799T791 1419Q763 1413 702 1413Q637 1413 561 1489L573 1507Q650 1475 723 1475Q826 1475 911 1515L954 1534H981Q928 1418 905 1325L766 803L763 784Q763 755 785 742T899 722L928 719L922 694ZM1065 508H133L145 551H1077L1065 508ZM850 -158Q761 -273 653 -293L584 -492H471L537 -297Q509 -293 478 -282Q340 -233 274 -233Q237 -233 215 -238Q187 -267 153 -282T91 -297Q71 -297 55 -288T39 -256Q39 -230 64 -219T121 -207L195 -211Q361 -79 479 381H639Q578 180 475 24T246 -217L281 -211L313 -207Q374 -207 505 -225L555 -231L657 49H774L672 -231Q716 -227 764 -203T840 -147L850 -158Z"/><glyph unicode="½" horiz-adv-x="1190" d="M918 694H412L410 719L442 721Q499 724 535 728T593 752T623 797L788 1419Q760 1413 700 1413Q638 1413 557 1489L571 1507Q648 1475 721 1475Q824 1475 909 1515L952 1534H979Q926 1418 903 1325L764 803L761 783Q761 751 787 740T897 722L926 719L918 694ZM1063 508H131L143 551H1075L1063 508ZM815 -197L614 -465H25L39 -408L181 -330Q357 -234 457 -160T612 -26T691 89T717 215Q717 274 679 309T575 344Q509 344 436 309T314 217T264 106Q264 62 289 40T360 18Q440 18 510 98L543 135L555 123Q476 30 413 -6T287 -43Q231 -43 197 -10T162 74Q162 143 229 214T396 329T590 373Q709 373 781 311T854 158Q854 33 734 -66T338 -266L188 -352H590Q655 -352 748 -246L801 -188L815 -197Z"/><glyph unicode="¾" horiz-adv-x="1190" d="M586 680Q472 680 399 725T326 844Q326 900 364 940T449 981Q524 981 524 924Q524 884 508 867T444 833Q420 824 420 793Q420 758 461 735T573 711Q659 711 738 753T865 868T913 1026Q913 1133 829 1133Q808 1133 774 1116T655 1040L641 1075L802 1151Q917 1202 961 1254T1006 1391Q1006 1444 973 1471T881 1499Q827 1499 768 1475T670 1408T631 1319Q631 1293 651 1275T717 1257Q759 1257 801 1293L821 1309L831 1294Q794 1259 752 1233T653 1206Q594 1206 561 1229T528 1296Q528 1357 582 1410T724 1496T903 1528Q1011 1528 1075 1481T1139 1356Q1139 1277 1066 1227T860 1161Q942 1161 999 1112T1057 989Q1057 908 996 839T820 725T586 680ZM1065 508H133L143 551H1075L1065 508ZM840 -158Q751 -273 643 -293L573 -492H461L526 -297Q499 -293 468 -282Q330 -233 264 -233Q227 -233 205 -238Q177 -267 143 -282T81 -297Q61 -297 45 -288T29 -256Q29 -230 54 -219T111 -207L184 -211Q344 -86 469 381H629Q568 180 465 24T236 -217L271 -211L303 -207Q365 -207 495 -225L545 -231L647 49H764L662 -231Q705 -227 753 -203T829 -147L840 -158Z"/><glyph unicode="¿" horiz-adv-x="827" d="M514 1325Q514 1371 545 1401T623 1432Q669 1432 700 1402T731 1325Q731 1279 700 1248T623 1217Q576 1217 545 1248T514 1325ZM4 293Q4 406 70 486T283 631Q462 709 540 783T618 940Q618 991 584 1023T489 1055Q441 1055 405 1010T356 887L332 895Q347 985 392 1035T506 1085Q580 1085 626 1036T672 893Q672 788 602 709T362 551Q267 506 214 464T137 373T113 246Q113 142 177 78T354 14Q453 14 517 74T582 219Q582 293 540 340T434 387Q401 387 387 379V373H391Q416 373 438 354T461 307Q461 273 439 250T383 227Q341 227 316 249T291 311Q291 359 328 387T430 416Q506 416 559 360T612 221Q612 118 529 50T322 -18Q226 -18 155 21T44 133T4 293Z"/><glyph unicode="À" horiz-adv-x="1290" d="M408 571L338 478Q249 363 152 224Q100 150 100 119Q100 83 164 55T303 23L297 0H-236L-229 23Q-198 26 -141 43T-52 83T22 153T235 413T567 834T1022 1421H1049V162Q1049 99 1058 80T1090 49Q1129 29 1214 23L1208 0H662L668 23Q808 32 854 62T901 156V571H408ZM432 604H901V1204Q610 835 432 604ZM1110 1483L1087 1470L1018 1544L896 1678L854 1722Q803 1770 803 1823Q803 1850 820 1869T866 1888Q896 1888 915 1871T956 1808T1110 1483Z"/><glyph unicode="Á" horiz-adv-x="1290" d="M408 571L338 478Q249 363 152 224Q100 150 100 119Q100 83 164 55T303 23L297 0H-236L-229 23Q-198 26 -141 43T-52 83T22 153T235 413T567 834T1022 1421H1049V162Q1049 99 1058 80T1090 49Q1129 29 1214 23L1208 0H662L668 23Q808 32 854 62T901 156V571H408ZM432 604H901V1204Q610 835 432 604ZM1419 1831Q1419 1796 1392 1769T1327 1716L952 1470L938 1487Q1129 1688 1230 1808Q1296 1886 1359 1886Q1387 1886 1403 1869T1419 1831Z"/><glyph unicode="Â" horiz-adv-x="1290" d="M408 571L338 478Q249 363 152 224Q100 150 100 119Q100 83 164 55T303 23L297 0H-236L-229 23Q-198 26 -141 43T-52 83T22 153T235 413T567 834T1022 1421H1049V162Q1049 99 1058 80T1090 49Q1129 29 1214 23L1208 0H662L668 23Q808 32 854 62T901 156V571H408ZM432 604H901V1204Q610 835 432 604ZM1360 1440L1338 1427L1121 1722L746 1429L732 1442L912 1641Q1047 1791 1070 1817T1143 1841Q1168 1841 1179 1837T1197 1822T1360 1440Z"/><glyph unicode="Ã" horiz-adv-x="1290" d="M408 571L338 478Q249 363 152 224Q100 150 100 119Q100 83 164 55T303 23L297 0H-236L-229 23Q-198 26 -141 43T-52 83T22 153T235 413T567 834T1022 1421H1049V162Q1049 99 1058 80T1090 49Q1129 29 1214 23L1208 0H662L668 23Q808 32 854 62T901 156V571H408ZM432 604H901V1204Q610 835 432 604ZM1472 1816Q1397 1686 1325 1622T1191 1558Q1124 1558 1051 1617Q977 1675 925 1675Q877 1675 824 1638T722 1526L698 1534Q735 1598 787 1660T886 1752T974 1782Q1047 1782 1119 1724Q1158 1692 1186 1679T1241 1665Q1291 1665 1347 1709T1447 1825L1472 1816Z"/><glyph unicode="Ä" horiz-adv-x="1290" d="M408 571L338 478Q249 363 152 224Q100 150 100 119Q100 83 164 55T303 23L297 0H-236L-229 23Q-198 26 -141 43T-52 83T22 153T235 413T567 834T1022 1421H1049V162Q1049 99 1058 80T1090 49Q1129 29 1214 23L1208 0H662L668 23Q808 32 854 62T901 156V571H408ZM432 604H901V1204Q610 835 432 604ZM1382 1690Q1382 1641 1350 1607T1270 1573Q1226 1573 1205 1600T1184 1663Q1184 1712 1218 1745T1303 1778Q1335 1778 1358 1752T1382 1690ZM987 1690Q987 1641 955 1607T875 1573Q831 1573 810 1600T789 1663Q789 1712 823 1745T907 1778Q940 1778 963 1751T987 1690Z"/><glyph unicode="Å" horiz-adv-x="1290" d="M408 571L338 478Q249 363 152 224Q100 150 100 119Q100 83 164 55T303 23L297 0H-236L-229 23Q-198 26 -141 43T-52 83T22 153T235 413T567 834T1022 1421H1049V162Q1049 99 1058 80T1090 49Q1129 29 1214 23L1208 0H662L668 23Q808 32 854 62T901 156V571H408ZM1073 1477Q987 1477 928 1523T868 1642Q868 1736 945 1803T1128 1870Q1216 1870 1272 1822T1329 1700Q1329 1609 1252 1543T1073 1477ZM432 604H901V1204Q610 835 432 604ZM1239 1724Q1239 1843 1130 1843Q1084 1843 1046 1812T984 1726T961 1618Q961 1503 1069 1503Q1139 1503 1189 1570T1239 1724Z"/><glyph unicode="Æ" horiz-adv-x="1948" d="M526 582L246 248Q170 147 170 116Q170 80 235 53T375 23L367 0H-186L-178 23Q-96 29 -30 60T160 221Q251 320 602 727T1126 1341Q1106 1349 1042 1361T952 1376L956 1399H2013L1925 1079H1894Q1894 1159 1877 1218T1828 1313T1751 1357T1597 1364L1356 1362L1184 752H1364Q1441 752 1499 778T1599 865T1671 1004H1704L1544 434H1516L1520 458Q1528 507 1528 547Q1528 581 1520 626T1472 694T1356 717H1176L1036 223Q1016 153 1016 125Q1016 80 1050 59T1178 37Q1383 37 1467 49T1579 84Q1641 135 1717 234T1825 393H1855L1722 0H594L602 23Q738 33 770 45Q842 70 862 145L987 582H526ZM555 614H995L1204 1341H1171L555 614Z"/><glyph unicode="Ç" horiz-adv-x="1262" d="M543 -27Q344 -6 223 140T102 504Q102 742 206 953T496 1294T893 1425Q958 1425 1010 1412T1101 1379T1192 1315L1276 1419H1339L1241 913H1212Q1193 1105 1154 1197T1042 1338T854 1386Q706 1386 570 1270T353 959T272 541Q272 304 381 170T680 35Q767 35 841 68T981 165T1145 373L1176 354Q1063 183 987 115T819 8T604 -31H580L553 -113Q648 -113 701 -147T754 -246Q754 -345 630 -405T309 -465L322 -430Q467 -427 550 -393T633 -299Q633 -257 596 -243T477 -229L543 -27Z"/><glyph unicode="È" horiz-adv-x="1274" d="M1339 1399L1251 1079H1221V1096Q1221 1159 1203 1219T1154 1315T1075 1357T924 1364H682L510 752H690Q767 752 826 779T925 865T997 1004H1030L870 434H842Q854 507 854 547Q854 584 850 614T829 664T795 695T747 711T682 717H502L362 223Q342 154 342 125Q342 74 381 56T549 37Q734 37 805 48T905 84Q967 135 1043 234T1151 393H1182L1049 0H-76L-68 23Q-38 23 23 31T104 47Q171 71 193 150L494 1235Q502 1272 502 1284Q502 1313 480 1328T400 1357T307 1374L315 1399H1339ZM1102 1483L1079 1470L1010 1544L888 1678L846 1722Q795 1770 795 1823Q795 1850 812 1869T858 1888Q888 1888 907 1871T948 1808T1102 1483Z"/><glyph unicode="É" horiz-adv-x="1274" d="M1339 1399L1251 1079H1221V1096Q1221 1159 1203 1219T1154 1315T1075 1357T924 1364H682L510 752H690Q767 752 826 779T925 865T997 1004H1030L870 434H842Q854 507 854 547Q854 584 850 614T829 664T795 695T747 711T682 717H502L362 223Q342 154 342 125Q342 74 381 56T549 37Q734 37 805 48T905 84Q967 135 1043 234T1151 393H1182L1049 0H-76L-68 23Q-38 23 23 31T104 47Q171 71 193 150L494 1235Q502 1272 502 1284Q502 1313 480 1328T400 1357T307 1374L315 1399H1339ZM1227 1831Q1227 1796 1200 1769T1135 1716L760 1470L746 1487Q937 1688 1038 1808Q1104 1886 1167 1886Q1195 1886 1211 1869T1227 1831Z"/><glyph unicode="Ê" horiz-adv-x="1274" d="M1339 1399L1251 1079H1221V1096Q1221 1159 1203 1219T1154 1315T1075 1357T924 1364H682L510 752H690Q767 752 826 779T925 865T997 1004H1030L870 434H842Q854 507 854 547Q854 584 850 614T829 664T795 695T747 711T682 717H502L362 223Q342 154 342 125Q342 74 381 56T549 37Q734 37 805 48T905 84Q967 135 1043 234T1151 393H1182L1049 0H-76L-68 23Q-38 23 23 31T104 47Q171 71 193 150L494 1235Q502 1272 502 1284Q502 1313 480 1328T400 1357T307 1374L315 1399H1339ZM1245 1481L1223 1468L1006 1763L631 1470L617 1483L797 1682Q932 1832 955 1858T1028 1882Q1053 1882 1064 1878T1082 1863T1245 1481Z"/><glyph unicode="Ë" horiz-adv-x="1274" d="M1339 1399L1251 1079H1221V1096Q1221 1159 1203 1219T1154 1315T1075 1357T924 1364H682L510 752H690Q767 752 826 779T925 865T997 1004H1030L870 434H842Q854 507 854 547Q854 584 850 614T829 664T795 695T747 711T682 717H502L362 223Q342 154 342 125Q342 74 381 56T549 37Q734 37 805 48T905 84Q967 135 1043 234T1151 393H1182L1049 0H-76L-68 23Q-38 23 23 31T104 47Q171 71 193 150L494 1235Q502 1272 502 1284Q502 1313 480 1328T400 1357T307 1374L315 1399H1339ZM1251 1710Q1251 1661 1219 1627T1139 1593Q1095 1593 1074 1620T1053 1683Q1053 1732 1087 1765T1172 1798Q1204 1798 1227 1772T1251 1710ZM856 1710Q856 1661 824 1627T744 1593Q700 1593 679 1620T658 1683Q658 1732 692 1765T776 1798Q809 1798 832 1771T856 1710Z"/><glyph unicode="Ì" horiz-adv-x="764" d="M922 1399L915 1374Q821 1367 756 1350Q689 1329 666 1247L358 152Q352 124 352 111Q352 81 374 65T448 37T537 23L532 0H-41L-37 23Q85 32 117 43Q183 66 205 143L510 1237Q518 1274 518 1284Q518 1310 499 1325T424 1356T340 1374L346 1399H922ZM847 1483L824 1470L755 1544L633 1678L591 1722Q540 1770 540 1823Q540 1850 557 1869T603 1888Q633 1888 652 1871T693 1808T847 1483Z"/><glyph unicode="Í" horiz-adv-x="764" d="M922 1399L915 1374Q821 1367 756 1350Q689 1329 666 1247L358 152Q352 124 352 111Q352 81 374 65T448 37T537 23L532 0H-41L-37 23Q85 32 117 43Q183 66 205 143L510 1237Q518 1274 518 1284Q518 1310 499 1325T424 1356T340 1374L346 1399H922ZM972 1831Q972 1796 945 1769T880 1716L505 1470L491 1487Q682 1688 783 1808Q849 1886 912 1886Q940 1886 956 1869T972 1831Z"/><glyph unicode="Î" horiz-adv-x="764" d="M922 1399L915 1374Q821 1367 756 1350Q689 1329 666 1247L358 152Q352 124 352 111Q352 81 374 65T448 37T537 23L532 0H-41L-37 23Q85 32 117 43Q183 66 205 143L510 1237Q518 1274 518 1284Q518 1310 499 1325T424 1356T340 1374L346 1399H922ZM965 1481L943 1468L726 1763L351 1470L337 1483L517 1682Q652 1832 675 1858T748 1882Q773 1882 784 1878T802 1863T965 1481Z"/><glyph unicode="Ï" horiz-adv-x="764" d="M922 1399L915 1374Q821 1367 756 1350Q689 1329 666 1247L358 152Q352 124 352 111Q352 81 374 65T448 37T537 23L532 0H-41L-37 23Q85 32 117 43Q183 66 205 143L510 1237Q518 1274 518 1284Q518 1310 499 1325T424 1356T340 1374L346 1399H922ZM996 1710Q996 1661 964 1627T884 1593Q840 1593 819 1620T798 1683Q798 1732 832 1765T917 1798Q949 1798 972 1772T996 1710ZM601 1710Q601 1661 569 1627T489 1593Q445 1593 424 1620T403 1683Q403 1732 437 1765T521 1798Q554 1798 577 1771T601 1710Z"/><glyph unicode="Ð" horiz-adv-x="1485" d="M346 711H131L143 762H360L494 1237Q502 1274 502 1284Q502 1300 496 1310T474 1332T407 1357T324 1374L330 1399H909Q1079 1399 1202 1337T1393 1154T1462 856Q1462 608 1343 413T1007 109T522 0H-57L-53 23L-18 26Q89 33 129 56T188 143L346 711ZM512 762H850L838 711H498L354 197Q345 164 345 139Q345 86 389 63T541 39Q746 39 920 142T1195 428T1296 838Q1296 1098 1181 1230T842 1362L680 1358L512 762Z"/><glyph unicode="Ñ" horiz-adv-x="1499" d="M1712 1399L1706 1376Q1664 1373 1597 1357T1503 1325Q1461 1301 1429 1241T1362 1051L1077 -14H1051L518 1221L297 369Q264 237 264 180Q264 128 280 101T366 51T485 23L479 0H-102L-96 23Q-52 26 15 44T109 78Q191 129 252 358L457 1122Q465 1157 465 1192Q465 1283 399 1326T219 1374L227 1399H598L1106 223L1317 1038Q1350 1170 1350 1229Q1350 1276 1334 1301T1244 1350T1128 1376L1135 1399H1712ZM1434 1816Q1359 1686 1287 1622T1153 1558Q1086 1558 1013 1617Q939 1675 887 1675Q839 1675 786 1638T684 1526L660 1534Q697 1598 749 1660T848 1752T936 1782Q1009 1782 1081 1724Q1120 1692 1148 1679T1203 1665Q1253 1665 1309 1709T1409 1825L1434 1816Z"/><glyph unicode="Ò" horiz-adv-x="1436" d="M1407 881Q1407 643 1296 427T1005 89T614 -33Q485 -33 367 40T180 241T111 526Q111 763 220 971T515 1304T897 1430Q1035 1430 1155 1355T1341 1155T1407 881ZM1241 924Q1241 1138 1148 1263T889 1389Q720 1389 581 1268T359 927T276 471Q276 264 370 136T631 8Q799 8 936 127T1157 463T1241 924ZM997 1483L974 1470L905 1544L783 1678L741 1722Q690 1770 690 1823Q690 1850 707 1869T753 1888Q783 1888 802 1871T843 1808T997 1483Z"/><glyph unicode="Ó" horiz-adv-x="1436" d="M1407 881Q1407 643 1296 427T1005 89T614 -33Q485 -33 367 40T180 241T111 526Q111 763 220 971T515 1304T897 1430Q1035 1430 1155 1355T1341 1155T1407 881ZM1241 924Q1241 1138 1148 1263T889 1389Q720 1389 581 1268T359 927T276 471Q276 264 370 136T631 8Q799 8 936 127T1157 463T1241 924ZM1307 1831Q1307 1796 1280 1769T1215 1716L840 1470L826 1487Q1017 1688 1118 1808Q1184 1886 1247 1886Q1275 1886 1291 1869T1307 1831Z"/><glyph unicode="Ô" horiz-adv-x="1436" d="M1407 881Q1407 643 1296 427T1005 89T614 -33Q485 -33 367 40T180 241T111 526Q111 763 220 971T515 1304T897 1430Q1035 1430 1155 1355T1341 1155T1407 881ZM1241 924Q1241 1138 1148 1263T889 1389Q720 1389 581 1268T359 927T276 471Q276 264 370 136T631 8Q799 8 936 127T1157 463T1241 924ZM1233 1481L1211 1468L994 1763L619 1470L605 1483L785 1682Q920 1832 943 1858T1016 1882Q1041 1882 1052 1878T1070 1863T1233 1481Z"/><glyph unicode="Õ" horiz-adv-x="1436" d="M1407 881Q1407 643 1296 427T1005 89T614 -33Q485 -33 367 40T180 241T111 526Q111 763 220 971T515 1304T897 1430Q1035 1430 1155 1355T1341 1155T1407 881ZM1241 924Q1241 1138 1148 1263T889 1389Q720 1389 581 1268T359 927T276 471Q276 264 370 136T631 8Q799 8 936 127T1157 463T1241 924ZM1370 1816Q1295 1686 1223 1622T1089 1558Q1022 1558 949 1617Q875 1675 823 1675Q775 1675 722 1638T620 1526L596 1534Q633 1598 685 1660T784 1752T872 1782Q945 1782 1017 1724Q1056 1692 1084 1679T1139 1665Q1189 1665 1245 1709T1345 1825L1370 1816Z"/><glyph unicode="Ö" horiz-adv-x="1436" d="M1407 881Q1407 643 1296 427T1005 89T614 -33Q485 -33 367 40T180 241T111 526Q111 763 220 971T515 1304T897 1430Q1035 1430 1155 1355T1341 1155T1407 881ZM1241 924Q1241 1138 1148 1263T889 1389Q720 1389 581 1268T359 927T276 471Q276 264 370 136T631 8Q799 8 936 127T1157 463T1241 924ZM1259 1690Q1259 1641 1227 1607T1147 1573Q1103 1573 1082 1600T1061 1663Q1061 1712 1095 1745T1180 1778Q1212 1778 1235 1752T1259 1690ZM864 1690Q864 1641 832 1607T752 1573Q708 1573 687 1600T666 1663Q666 1712 700 1745T784 1778Q817 1778 840 1751T864 1690Z"/><glyph unicode="×" horiz-adv-x="1139" d="M1018 74L604 487L190 74L145 119L559 532L145 946L188 987L600 575L1016 991L1063 944L647 528L1059 117L1018 74Z"/><glyph unicode="Ø" horiz-adv-x="1436" d="M219 178Q111 328 111 526Q111 763 220 971T515 1304T897 1430Q1002 1430 1098 1386T1268 1262L1470 1470L1499 1440L1294 1229Q1407 1082 1407 881Q1407 643 1296 427T1005 89T614 -33Q515 -33 418 13T246 145L27 -80L-2 -51L219 178ZM305 266L1192 1184Q1101 1389 889 1389Q720 1389 581 1268T359 927T276 471Q276 365 305 266ZM1208 1141L322 225Q366 120 446 64T631 8Q799 8 936 127T1157 463T1241 924Q1241 1044 1208 1141Z"/><glyph unicode="Ù" horiz-adv-x="1610" d="M1784 1399L1778 1376Q1736 1373 1669 1357T1575 1325Q1536 1303 1504 1243T1427 1032L1268 473Q1191 202 1048 85T668 -33Q448 -33 343 52T238 291Q238 384 266 485L475 1237Q483 1274 483 1284Q483 1310 464 1325T389 1356T305 1374L311 1399H887L881 1374Q788 1368 721 1350Q654 1328 631 1247L430 526Q391 383 391 287Q391 174 484 105T729 35Q925 35 1045 146T1229 481L1382 1020Q1397 1067 1409 1129T1421 1229Q1421 1276 1406 1300T1317 1349T1200 1376L1206 1399H1784ZM1208 1483L1185 1470L1116 1544L994 1678L952 1722Q901 1770 901 1823Q901 1850 918 1869T964 1888Q994 1888 1013 1871T1054 1808T1208 1483Z"/><glyph unicode="Ú" horiz-adv-x="1610" d="M1784 1399L1778 1376Q1736 1373 1669 1357T1575 1325Q1536 1303 1504 1243T1427 1032L1268 473Q1191 202 1048 85T668 -33Q448 -33 343 52T238 291Q238 384 266 485L475 1237Q483 1274 483 1284Q483 1310 464 1325T389 1356T305 1374L311 1399H887L881 1374Q788 1368 721 1350Q654 1328 631 1247L430 526Q391 383 391 287Q391 174 484 105T729 35Q925 35 1045 146T1229 481L1382 1020Q1397 1067 1409 1129T1421 1229Q1421 1276 1406 1300T1317 1349T1200 1376L1206 1399H1784ZM1395 1831Q1395 1796 1368 1769T1303 1716L928 1470L914 1487Q1105 1688 1206 1808Q1272 1886 1335 1886Q1363 1886 1379 1869T1395 1831Z"/><glyph unicode="Û" horiz-adv-x="1610" d="M1784 1399L1778 1376Q1736 1373 1669 1357T1575 1325Q1536 1303 1504 1243T1427 1032L1268 473Q1191 202 1048 85T668 -33Q448 -33 343 52T238 291Q238 384 266 485L475 1237Q483 1274 483 1284Q483 1310 464 1325T389 1356T305 1374L311 1399H887L881 1374Q788 1368 721 1350Q654 1328 631 1247L430 526Q391 383 391 287Q391 174 484 105T729 35Q925 35 1045 146T1229 481L1382 1020Q1397 1067 1409 1129T1421 1229Q1421 1276 1406 1300T1317 1349T1200 1376L1206 1399H1784ZM1376 1481L1354 1468L1137 1763L762 1470L748 1483L928 1682Q1063 1832 1086 1858T1159 1882Q1184 1882 1195 1878T1213 1863T1376 1481Z"/><glyph unicode="Ü" horiz-adv-x="1610" d="M1784 1399L1778 1376Q1736 1373 1669 1357T1575 1325Q1536 1303 1504 1243T1427 1032L1268 473Q1191 202 1048 85T668 -33Q448 -33 343 52T238 291Q238 384 266 485L475 1237Q483 1274 483 1284Q483 1310 464 1325T389 1356T305 1374L311 1399H887L881 1374Q788 1368 721 1350Q654 1328 631 1247L430 526Q391 383 391 287Q391 174 484 105T729 35Q925 35 1045 146T1229 481L1382 1020Q1397 1067 1409 1129T1421 1229Q1421 1276 1406 1300T1317 1349T1200 1376L1206 1399H1784ZM1398 1710Q1398 1661 1366 1627T1286 1593Q1242 1593 1221 1620T1200 1683Q1200 1732 1234 1765T1319 1798Q1351 1798 1374 1772T1398 1710ZM1003 1710Q1003 1661 971 1627T891 1593Q847 1593 826 1620T805 1683Q805 1732 839 1765T923 1798Q956 1798 979 1771T1003 1710Z"/><glyph unicode="Ý" horiz-adv-x="1255" d="M1464 1329Q1464 1285 1437 1258T1368 1231Q1331 1231 1309 1250T1286 1298Q1286 1318 1294 1341T1313 1376L1305 1384Q1211 1374 1096 1274T895 1022T764 690L629 152Q623 126 623 111Q627 72 670 51Q680 45 742 34T834 23L829 0H240L244 23Q357 32 391 43Q457 66 475 143L604 666Q616 712 625 791T635 944Q635 1118 567 1218T375 1319Q299 1319 237 1260T143 1100L117 1108Q223 1423 473 1423Q605 1423 679 1315T754 1020Q754 941 735 823H754Q1002 1425 1343 1425Q1397 1425 1430 1399T1464 1329ZM1217 1831Q1217 1796 1190 1769T1125 1716L750 1470L736 1487Q927 1688 1028 1808Q1094 1886 1157 1886Q1185 1886 1201 1869T1217 1831Z"/><glyph unicode="Þ" horiz-adv-x="1204" d="M782 1114Q972 1114 1070 1035T1169 813Q1169 611 997 494T528 377H406L342 150Q336 127 336 111Q336 66 393 47T520 23L516 0H-57L-53 23L-18 26Q93 33 132 58T188 143L494 1237Q502 1274 502 1284Q502 1300 496 1310T474 1332T407 1357T324 1374L330 1399H891L885 1374Q773 1359 739 1350Q675 1329 649 1247L610 1114H782ZM1004 795Q1004 927 934 1002T719 1077H600L418 418H543Q766 418 885 512T1004 795Z"/><glyph unicode="ß" horiz-adv-x="1110" d="M1122 1286Q1122 1149 1063 1044Q807 947 807 811Q807 755 829 697T902 562Q959 473 980 419T1001 306Q1001 209 963 134T853 15T700 -29Q633 -29 584 -6T508 58T481 143Q481 193 510 226T582 260Q624 260 648 240T672 186Q672 154 658 142T625 123T593 112T578 90Q578 43 617 21T715 -2Q792 -2 837 54T883 209Q883 276 861 337T788 473Q734 552 713 603T692 707Q692 874 891 983Q952 1030 989 1107T1026 1262Q1026 1368 979 1431T846 1495Q738 1495 645 1382T489 1055L429 830Q292 283 232 84T93 -231T-74 -415T-264 -483Q-349 -483 -395 -449T-442 -352Q-442 -315 -416 -288T-352 -260Q-312 -260 -285 -283T-258 -344Q-258 -372 -268 -388T-293 -426Q-291 -445 -279 -453T-256 -461Q-160 -461 -95 -387T34 -131T203 476Q287 817 336 993Q387 1184 477 1302T670 1471T881 1522Q998 1522 1060 1459T1122 1286Z"/><glyph unicode="à" horiz-adv-x="1081" d="M985 932L750 262Q711 155 711 92Q711 12 774 12Q844 12 911 86T1030 295L1055 287Q986 116 913 47T745 -23Q613 -23 613 112Q613 155 629 213L625 215Q563 98 481 36T309 -27Q183 -27 115 55T47 295Q47 400 93 527T211 747T379 892T586 944Q667 944 725 899T799 782H803L856 932H985ZM786 737Q774 817 720 865T582 913Q482 913 395 824T249 569T190 246Q190 23 336 23Q416 23 484 76T625 258L786 737ZM1054 1092L1031 1079L962 1153L840 1287L798 1331Q747 1379 747 1432Q747 1459 764 1478T810 1497Q840 1497 859 1480T900 1417T1054 1092Z"/><glyph unicode="á" horiz-adv-x="1081" d="M985 932L750 262Q711 155 711 92Q711 12 774 12Q844 12 911 86T1030 295L1055 287Q986 116 913 47T745 -23Q613 -23 613 112Q613 155 629 213L625 215Q563 98 481 36T309 -27Q183 -27 115 55T47 295Q47 400 93 527T211 747T379 892T586 944Q667 944 725 899T799 782H803L856 932H985ZM786 737Q774 817 720 865T582 913Q482 913 395 824T249 569T190 246Q190 23 336 23Q416 23 484 76T625 258L786 737ZM1004 1440Q1004 1405 977 1378T912 1325L537 1079L523 1096Q714 1297 815 1417Q881 1495 944 1495Q972 1495 988 1478T1004 1440Z"/><glyph unicode="â" horiz-adv-x="1081" d="M985 932L750 262Q711 155 711 92Q711 12 774 12Q844 12 911 86T1030 295L1055 287Q986 116 913 47T745 -23Q613 -23 613 112Q613 155 629 213L625 215Q563 98 481 36T309 -27Q183 -27 115 55T47 295Q47 400 93 527T211 747T379 892T586 944Q667 944 725 899T799 782H803L856 932H985ZM786 737Q774 817 720 865T582 913Q482 913 395 824T249 569T190 246Q190 23 336 23Q416 23 484 76T625 258L786 737ZM1238 1090L1216 1077L999 1372L624 1079L610 1092L790 1291Q925 1441 948 1467T1021 1491Q1046 1491 1057 1487T1075 1472T1238 1090Z"/><glyph unicode="ã" horiz-adv-x="1081" d="M985 932L750 262Q711 155 711 92Q711 12 774 12Q844 12 911 86T1030 295L1055 287Q986 116 913 47T745 -23Q613 -23 613 112Q613 155 629 213L625 215Q563 98 481 36T309 -27Q183 -27 115 55T47 295Q47 400 93 527T211 747T379 892T586 944Q667 944 725 899T799 782H803L856 932H985ZM786 737Q774 817 720 865T582 913Q482 913 395 824T249 569T190 246Q190 23 336 23Q416 23 484 76T625 258L786 737ZM1314 1425Q1239 1295 1167 1231T1033 1167Q966 1167 893 1226Q819 1284 767 1284Q719 1284 666 1247T564 1135L540 1143Q577 1207 629 1269T728 1361T816 1391Q889 1391 961 1333Q1000 1301 1028 1288T1083 1274Q1133 1274 1189 1318T1289 1434L1314 1425Z"/><glyph unicode="ä" horiz-adv-x="1081" d="M985 932L750 262Q711 155 711 92Q711 12 774 12Q844 12 911 86T1030 295L1055 287Q986 116 913 47T745 -23Q613 -23 613 112Q613 155 629 213L625 215Q563 98 481 36T309 -27Q183 -27 115 55T47 295Q47 400 93 527T211 747T379 892T586 944Q667 944 725 899T799 782H803L856 932H985ZM786 737Q774 817 720 865T582 913Q482 913 395 824T249 569T190 246Q190 23 336 23Q416 23 484 76T625 258L786 737ZM1244 1319Q1244 1270 1212 1236T1132 1202Q1088 1202 1067 1229T1046 1292Q1046 1341 1080 1374T1165 1407Q1197 1407 1220 1381T1244 1319ZM849 1319Q849 1270 817 1236T737 1202Q693 1202 672 1229T651 1292Q651 1341 685 1374T769 1407Q802 1407 825 1380T849 1319Z"/><glyph unicode="å" horiz-adv-x="1081" d="M985 932L750 262Q711 155 711 92Q711 12 774 12Q844 12 911 86T1030 295L1055 287Q986 116 913 47T745 -23Q613 -23 613 112Q613 155 629 213L625 215Q563 98 481 36T309 -27Q183 -27 115 55T47 295Q47 400 93 527T211 747T379 892T586 944Q667 944 725 899T799 782H803L856 932H985ZM786 737Q774 817 720 865T582 913Q482 913 395 824T249 569T190 246Q190 23 336 23Q416 23 484 76T625 258L786 737ZM945 1085Q859 1085 800 1132T741 1251Q741 1345 818 1412T1001 1479Q1088 1479 1144 1431T1201 1309Q1201 1216 1124 1151T945 1085ZM1111 1333Q1111 1452 1003 1452Q957 1452 918 1420T856 1335T833 1227Q833 1174 859 1143T941 1112Q1011 1112 1061 1179T1111 1333Z"/><glyph unicode="æ" horiz-adv-x="1399" d="M645 250Q572 102 490 38T309 -27Q183 -27 115 55T47 295Q47 400 93 527T211 747T379 892T586 944Q667 944 725 899T799 782H803L856 932H965L926 819Q1053 944 1208 944Q1287 944 1339 907T1391 807Q1391 710 1316 629T1101 495T811 434Q791 327 791 246Q791 140 837 83T967 25Q1160 25 1319 313L1343 303Q1259 141 1155 56T936 -29Q815 -29 739 44T649 248L645 250ZM786 737Q774 817 720 865T582 913Q482 913 395 824T249 569T190 246Q190 23 336 23Q416 23 484 76T625 258L786 737ZM817 459Q946 473 1045 519T1205 643T1266 795Q1266 913 1161 913Q1063 913 963 779T817 459Z"/><glyph unicode="ç" horiz-adv-x="797" d="M260 -20Q158 2 103 85T47 295Q47 434 128 596T328 851T573 944Q670 944 729 892T788 750Q788 703 767 675T707 647Q670 647 641 670T612 729Q612 758 638 788T709 836Q705 872 668 896T580 920Q489 920 400 823T252 564T193 252Q193 140 237 83T362 25Q458 25 552 96T723 307L748 295Q661 137 555 54T330 -29H313L295 -27L268 -113Q363 -113 416 -147T469 -246Q469 -345 345 -405T25 -465L37 -430Q182 -427 265 -393T348 -299Q348 -257 311 -243T193 -229L260 -20Z"/><glyph unicode="è" horiz-adv-x="799" d="M190 246Q190 140 236 83T367 25Q560 25 719 313L743 303Q657 140 554 56T336 -29Q201 -29 124 59T47 299Q47 396 97 521T225 743T402 891T608 944Q687 944 739 907T791 807Q791 709 715 628T500 494T213 434Q190 338 190 246ZM217 457Q356 471 455 522T610 646T666 795Q666 913 561 913Q462 913 362 778T217 457ZM697 1092L674 1079L605 1153L483 1287L441 1331Q390 1379 390 1432Q390 1459 407 1478T453 1497Q483 1497 502 1480T543 1417T697 1092Z"/><glyph unicode="é" horiz-adv-x="799" d="M190 246Q190 140 236 83T367 25Q560 25 719 313L743 303Q657 140 554 56T336 -29Q201 -29 124 59T47 299Q47 396 97 521T225 743T402 891T608 944Q687 944 739 907T791 807Q791 709 715 628T500 494T213 434Q190 338 190 246ZM217 457Q356 471 455 522T610 646T666 795Q666 913 561 913Q462 913 362 778T217 457ZM1181 1440Q1181 1405 1154 1378T1089 1325L714 1079L700 1096Q891 1297 992 1417Q1058 1495 1121 1495Q1149 1495 1165 1478T1181 1440Z"/><glyph unicode="ê" horiz-adv-x="799" d="M190 246Q190 140 236 83T367 25Q560 25 719 313L743 303Q657 140 554 56T336 -29Q201 -29 124 59T47 299Q47 396 97 521T225 743T402 891T608 944Q687 944 739 907T791 807Q791 709 715 628T500 494T213 434Q190 338 190 246ZM217 457Q356 471 455 522T610 646T666 795Q666 913 561 913Q462 913 362 778T217 457ZM1137 1306L1115 1293L898 1588L523 1295L509 1308L689 1507Q824 1657 847 1683T920 1707Q945 1707 956 1703T974 1688T1137 1306Z"/><glyph unicode="ë" horiz-adv-x="799" d="M190 246Q190 140 236 83T367 25Q560 25 719 313L743 303Q657 140 554 56T336 -29Q201 -29 124 59T47 299Q47 396 97 521T225 743T402 891T608 944Q687 944 739 907T791 807Q791 709 715 628T500 494T213 434Q190 338 190 246ZM217 457Q356 471 455 522T610 646T666 795Q666 913 561 913Q462 913 362 778T217 457ZM1143 1535Q1143 1486 1111 1452T1031 1418Q987 1418 966 1445T945 1508Q945 1557 979 1590T1064 1623Q1096 1623 1119 1597T1143 1535ZM748 1535Q748 1486 716 1452T636 1418Q592 1418 571 1445T550 1508Q550 1557 584 1590T668 1623Q701 1623 724 1596T748 1535Z"/><glyph unicode="ì" horiz-adv-x="645" d="M600 287Q526 105 461 41T309 -23Q145 -23 145 137Q145 202 186 307L324 655Q371 778 371 838Q371 880 354 895T305 911Q240 911 184 846T68 625L43 633Q101 772 140 828T226 914T334 944Q409 944 449 898T489 770Q489 717 426 563L309 262Q262 139 262 78Q262 12 336 12Q405 12 463 83T575 295L600 287ZM599 1092L576 1079L507 1153L385 1287L343 1331Q292 1379 292 1432Q292 1459 309 1478T355 1497Q385 1497 404 1480T445 1417T599 1092Z"/><glyph unicode="í" horiz-adv-x="645" d="M600 287Q526 105 461 41T309 -23Q145 -23 145 137Q145 202 186 307L324 655Q371 778 371 838Q371 880 354 895T305 911Q240 911 184 846T68 625L43 633Q101 772 140 828T226 914T334 944Q409 944 449 898T489 770Q489 717 426 563L309 262Q262 139 262 78Q262 12 336 12Q405 12 463 83T575 295L600 287ZM786 1440Q786 1405 759 1378T694 1325L319 1079L305 1096Q496 1297 597 1417Q663 1495 726 1495Q754 1495 770 1478T786 1440Z"/><glyph unicode="î" horiz-adv-x="645" d="M762 1049L739 1036L543 1331L188 1038L174 1051Q225 1108 421 1344Q494 1433 510 1441T565 1450Q591 1450 603 1446T626 1417T686 1252Q729 1128 762 1049ZM600 287Q526 105 461 41T309 -23Q145 -23 145 137Q145 202 186 307L324 655Q371 778 371 838Q371 880 354 895T305 911Q240 911 184 846T68 625L43 633Q101 772 140 828T226 914T334 944Q409 944 449 898T489 770Q489 717 426 563L309 262Q262 139 262 78Q262 12 336 12Q405 12 463 83T575 295L600 287Z"/><glyph unicode="ï" horiz-adv-x="645" d="M788 1319Q788 1271 757 1237T676 1202Q632 1202 611 1229T590 1292Q590 1341 624 1374T709 1407Q741 1407 764 1381T788 1319ZM434 1319Q434 1270 402 1236T322 1202Q278 1202 257 1229T236 1292Q236 1341 270 1374T354 1407Q387 1407 410 1380T434 1319ZM600 287Q526 105 461 41T309 -23Q145 -23 145 137Q145 202 186 307L324 655Q371 778 371 838Q371 880 354 895T305 911Q240 911 184 846T68 625L43 633Q101 772 140 828T226 914T334 944Q409 944 449 898T489 770Q489 717 426 563L309 262Q262 139 262 78Q262 12 336 12Q405 12 463 83T575 295L600 287Z"/><glyph unicode="ð" horiz-adv-x="940" d="M743 1384L936 1536L956 1507L766 1358Q940 1158 940 866Q940 612 859 404T639 84T336 -29Q254 -29 191 13T91 137T55 330Q55 464 136 618T337 858T586 944Q648 944 706 912T793 825H797Q798 839 799 856T802 892T804 927T805 958Q805 1046 781 1141T713 1317L489 1141L471 1169L696 1348Q633 1444 551 1505L569 1524Q670 1463 743 1384ZM741 629Q741 762 696 840T575 918Q485 918 401 832T258 590T199 291Q199 156 245 76T367 -4Q461 -4 545 83T685 328T741 629Z"/><glyph unicode="ñ" horiz-adv-x="1190" d="M1161 287Q1108 157 1067 97T978 7T868 -23Q784 -23 739 18T694 137Q694 174 706 214T739 307Q822 527 863 637T905 797Q905 895 782 895Q696 895 609 824T461 637L252 0H111L332 655Q377 785 377 850Q377 887 361 899T319 911Q249 911 191 842T76 625L51 633Q109 773 148 828T234 914T342 944Q408 944 445 905T482 794Q482 757 471 709L475 707Q530 809 623 876T807 944Q901 944 960 883T1020 735Q1020 704 1009 656T981 563L866 262Q817 130 817 80Q817 12 893 12Q958 12 1017 79T1137 295L1161 287ZM1192 1425Q1117 1295 1045 1231T911 1167Q844 1167 771 1226Q697 1284 645 1284Q597 1284 544 1247T442 1135L418 1143Q455 1207 507 1269T606 1361T694 1391Q767 1391 839 1333Q878 1301 906 1288T961 1274Q1011 1274 1067 1318T1167 1434L1192 1425Z"/><glyph unicode="ò" horiz-adv-x="936" d="M883 584Q883 485 837 369T718 163T549 22T346 -29Q262 -29 195 15T91 141T55 330Q55 464 135 618T333 858T584 944Q717 944 800 847T883 584ZM739 629Q739 723 718 787T660 884T573 918Q478 918 393 830T254 589T199 291Q199 154 245 76T365 -2Q461 -2 545 85T684 329T739 629ZM1001 1092L978 1079L909 1153L787 1287L745 1331Q694 1379 694 1432Q694 1459 711 1478T757 1497Q787 1497 806 1480T847 1417T1001 1092Z"/><glyph unicode="ó" horiz-adv-x="936" d="M883 584Q883 485 837 369T718 163T549 22T346 -29Q262 -29 195 15T91 141T55 330Q55 464 135 618T333 858T584 944Q717 944 800 847T883 584ZM739 629Q739 723 718 787T660 884T573 918Q478 918 393 830T254 589T199 291Q199 154 245 76T365 -2Q461 -2 545 85T684 329T739 629ZM1187 1440Q1187 1405 1160 1378T1095 1325L720 1079L706 1096Q897 1297 998 1417Q1064 1495 1127 1495Q1155 1495 1171 1478T1187 1440Z"/><glyph unicode="ô" horiz-adv-x="936" d="M883 584Q883 485 837 369T718 163T549 22T346 -29Q262 -29 195 15T91 141T55 330Q55 464 135 618T333 858T584 944Q717 944 800 847T883 584ZM739 629Q739 723 718 787T660 884T573 918Q478 918 393 830T254 589T199 291Q199 154 245 76T365 -2Q461 -2 545 85T684 329T739 629ZM1164 1306L1142 1293L925 1588L550 1295L536 1308L716 1507Q851 1657 874 1683T947 1707Q972 1707 983 1703T1001 1688T1164 1306Z"/><glyph unicode="õ" horiz-adv-x="936" d="M883 584Q883 485 837 369T718 163T549 22T346 -29Q262 -29 195 15T91 141T55 330Q55 464 135 618T333 858T584 944Q717 944 800 847T883 584ZM739 629Q739 723 718 787T660 884T573 918Q478 918 393 830T254 589T199 291Q199 154 245 76T365 -2Q461 -2 545 85T684 329T739 629ZM1281 1641Q1206 1511 1134 1447T1000 1383Q933 1383 860 1442Q786 1500 734 1500Q686 1500 633 1463T531 1351L507 1359Q544 1423 596 1485T695 1577T783 1607Q856 1607 928 1549Q967 1517 995 1504T1050 1490Q1100 1490 1156 1534T1256 1650L1281 1641Z"/><glyph unicode="ö" horiz-adv-x="936" d="M883 584Q883 485 837 369T718 163T549 22T346 -29Q262 -29 195 15T91 141T55 330Q55 464 135 618T333 858T584 944Q717 944 800 847T883 584ZM739 629Q739 723 718 787T660 884T573 918Q478 918 393 830T254 589T199 291Q199 154 245 76T365 -2Q461 -2 545 85T684 329T739 629ZM1190 1535Q1190 1486 1158 1452T1078 1418Q1034 1418 1013 1445T992 1508Q992 1557 1026 1590T1111 1623Q1143 1623 1166 1597T1190 1535ZM795 1535Q795 1486 763 1452T683 1418Q639 1418 618 1445T597 1508Q597 1557 631 1590T715 1623Q748 1623 771 1596T795 1535Z"/><glyph unicode="÷" horiz-adv-x="1139" d="M700 907Q700 859 666 825T582 791Q532 791 499 825T465 907Q465 957 499 991T582 1026Q630 1026 665 991T700 907ZM1075 502H88V561H1075V502ZM700 154Q700 105 666 71T582 37Q532 37 499 71T465 154Q465 203 499 237T582 272Q630 272 665 237T700 154Z"/><glyph unicode="ø" horiz-adv-x="936" d="M113 98Q55 196 55 330Q55 464 135 618T333 858T584 944Q715 944 797 850L928 995L946 975Q869 891 815 827Q883 736 883 584Q883 485 837 369T718 163T549 22T346 -29Q212 -29 129 76L-10 -76L-29 -57L113 98ZM731 737L211 166Q228 88 269 43T365 -2Q461 -2 545 85T684 329T739 629Q739 676 731 737ZM205 199L723 770Q705 839 666 878T573 918Q478 918 393 830T254 589T199 291Q199 241 205 199Z"/><glyph unicode="ù" horiz-adv-x="1174" d="M1147 287Q1094 157 1053 97T964 7T854 -23Q767 -23 737 23T707 129Q707 165 715 209L711 211Q651 103 560 38T379 -27Q283 -27 225 37T166 203Q166 224 177 269T205 354L322 655Q367 775 367 831Q367 911 305 911Q240 911 184 843T70 625L45 633Q98 764 137 823T224 911T332 940Q407 940 447 899T487 780Q487 716 444 610L319 291Q283 198 283 125Q283 23 403 23Q486 23 571 89T721 270L924 913H1063L848 262Q834 219 825 171T815 94Q815 59 832 36T879 12Q1013 12 1122 295L1147 287ZM879 1092L856 1079L787 1153L665 1287L623 1331Q572 1379 572 1432Q572 1459 589 1478T635 1497Q665 1497 684 1480T725 1417T879 1092Z"/><glyph unicode="ú" horiz-adv-x="1174" d="M1147 287Q1094 157 1053 97T964 7T854 -23Q767 -23 737 23T707 129Q707 165 715 209L711 211Q651 103 560 38T379 -27Q283 -27 225 37T166 203Q166 224 177 269T205 354L322 655Q367 775 367 831Q367 911 305 911Q240 911 184 843T70 625L45 633Q98 764 137 823T224 911T332 940Q407 940 447 899T487 780Q487 716 444 610L319 291Q283 198 283 125Q283 23 403 23Q486 23 571 89T721 270L924 913H1063L848 262Q834 219 825 171T815 94Q815 59 832 36T879 12Q1013 12 1122 295L1147 287ZM1045 1440Q1045 1405 1018 1378T953 1325L578 1079L564 1096Q755 1297 856 1417Q922 1495 985 1495Q1013 1495 1029 1478T1045 1440Z"/><glyph unicode="û" horiz-adv-x="1174" d="M1147 287Q1094 157 1053 97T964 7T854 -23Q767 -23 737 23T707 129Q707 165 715 209L711 211Q651 103 560 38T379 -27Q283 -27 225 37T166 203Q166 224 177 269T205 354L322 655Q367 775 367 831Q367 911 305 911Q240 911 184 843T70 625L45 633Q98 764 137 823T224 911T332 940Q407 940 447 899T487 780Q487 716 444 610L319 291Q283 198 283 125Q283 23 403 23Q486 23 571 89T721 270L924 913H1063L848 262Q834 219 825 171T815 94Q815 59 832 36T879 12Q1013 12 1122 295L1147 287ZM1063 1090L1041 1077L824 1372L449 1079L435 1092L615 1291Q750 1441 773 1467T846 1491Q871 1491 882 1487T900 1472T1063 1090Z"/><glyph unicode="ü" horiz-adv-x="1174" d="M1147 287Q1094 157 1053 97T964 7T854 -23Q767 -23 737 23T707 129Q707 165 715 209L711 211Q651 103 560 38T379 -27Q283 -27 225 37T166 203Q166 224 177 269T205 354L322 655Q367 775 367 831Q367 911 305 911Q240 911 184 843T70 625L45 633Q98 764 137 823T224 911T332 940Q407 940 447 899T487 780Q487 716 444 610L319 291Q283 198 283 125Q283 23 403 23Q486 23 571 89T721 270L924 913H1063L848 262Q834 219 825 171T815 94Q815 59 832 36T879 12Q1013 12 1122 295L1147 287ZM1069 1319Q1069 1270 1037 1236T957 1202Q913 1202 892 1229T871 1292Q871 1341 905 1374T990 1407Q1022 1407 1045 1381T1069 1319ZM674 1319Q674 1270 642 1236T562 1202Q518 1202 497 1229T476 1292Q476 1341 510 1374T594 1407Q627 1407 650 1380T674 1319Z"/><glyph unicode="ý" horiz-adv-x="1061" d="M1061 913L846 217Q626 -489 184 -489Q64 -489 -3 -445T-70 -317Q-70 -264 -36 -231T47 -197Q87 -197 107 -218T127 -265V-270Q122 -340 69 -349Q38 -355 27 -362T16 -387Q20 -422 61 -441T172 -461Q301 -461 399 -392T572 -186T721 209L717 211Q658 105 564 39T379 -27Q283 -27 225 37T166 203Q166 224 177 269T205 354L322 655Q367 771 367 831Q367 911 305 911Q240 911 184 843T70 625L45 633Q98 764 137 823T224 911T332 940Q407 940 447 899T487 780Q487 716 444 610L319 291Q283 198 283 125Q283 23 403 23Q489 23 576 88T729 270L928 913H1061ZM993 1440Q993 1405 966 1378T901 1325L526 1079L512 1096Q703 1297 804 1417Q870 1495 933 1495Q961 1495 977 1478T993 1440Z"/><glyph unicode="þ" horiz-adv-x="981" d="M399 -27Q317 -27 256 19T176 135H172Q101 -101 64 -223T29 -381Q29 -419 66 -434T174 -452L233 -455L227 -479H-305L-299 -457Q-239 -457 -208 -448T-155 -413T-121 -360T-76 -240L403 1264Q434 1357 434 1401Q434 1440 395 1455T287 1473L223 1475V1499L621 1520L369 754L373 752Q422 832 508 888T676 944Q802 944 870 862T938 623Q938 513 893 386T775 167T608 24T399 -27ZM795 672Q795 895 649 895Q566 895 483 830T340 659L190 180Q203 104 260 54T403 4Q502 4 589 91T735 346T795 672Z"/><glyph unicode="ÿ" horiz-adv-x="1061" d="M1061 913L846 217Q626 -489 184 -489Q64 -489 -3 -445T-70 -317Q-70 -264 -36 -231T47 -197Q87 -197 107 -218T127 -265V-270Q122 -340 69 -349Q38 -355 27 -362T16 -387Q20 -422 61 -441T172 -461Q301 -461 399 -392T572 -186T721 209L717 211Q658 105 564 39T379 -27Q283 -27 225 37T166 203Q166 224 177 269T205 354L322 655Q367 771 367 831Q367 911 305 911Q240 911 184 843T70 625L45 633Q98 764 137 823T224 911T332 940Q407 940 447 899T487 780Q487 716 444 610L319 291Q283 198 283 125Q283 23 403 23Q489 23 576 88T729 270L928 913H1061ZM1058 1319Q1058 1270 1026 1236T946 1202Q902 1202 881 1229T860 1292Q860 1341 894 1374T979 1407Q1011 1407 1034 1381T1058 1319ZM663 1319Q663 1270 631 1236T551 1202Q507 1202 486 1229T465 1292Q465 1341 499 1374T583 1407Q616 1407 639 1380T663 1319Z"/><glyph unicode="ı" horiz-adv-x="645" d="M600 287Q526 105 461 41T309 -23Q145 -23 145 137Q145 202 186 307L324 655Q371 778 371 838Q371 880 354 895T305 911Q240 911 184 846T68 625L43 633Q101 772 140 828T226 914T334 944Q409 944 449 898T489 770Q489 717 426 563L309 262Q262 139 262 78Q262 12 336 12Q405 12 463 83T575 295L600 287Z"/><glyph unicode="Ł" horiz-adv-x="1257" d="M343 119Q343 72 386 55T557 37Q678 37 772 50T897 86Q952 126 1027 217T1153 397H1182L1044 0H-76L-68 23Q-38 23 23 31T104 47Q171 71 193 150L328 639L104 565L94 602Q291 669 340 682L494 1235Q502 1272 502 1284Q502 1313 480 1328T400 1357T307 1374L315 1399H905L899 1374Q806 1368 739 1350Q675 1329 649 1247L506 739L909 872L918 834L494 694L362 223Q343 154 343 119Z"/><glyph unicode="ł" horiz-adv-x="561" d="M190 80Q190 43 208 29T260 14Q395 14 504 295L528 287Q461 115 394 46T236 -23Q152 -23 114 17T76 135Q76 185 113 307L209 612L41 557L33 590L221 653L416 1264Q444 1350 444 1401Q444 1439 409 1454T297 1472L233 1475V1499L633 1520L371 702L596 776L604 741L358 662L229 258Q190 137 190 80Z"/><glyph unicode="Œ" horiz-adv-x="2064" d="M2068 1399L1980 1079H1950Q1950 1159 1932 1219T1883 1315T1804 1357T1653 1364H1411L1239 752H1419Q1496 752 1555 779T1654 865T1726 1004H1759L1599 434H1571L1575 458Q1583 507 1583 547Q1583 584 1579 614T1558 664T1524 695T1476 711T1411 717H1231L1092 223Q1071 158 1071 125Q1071 74 1110 56T1278 37Q1463 37 1534 48T1634 84Q1696 135 1772 234T1880 393H1911L1778 0H627Q478 0 360 64T177 247T111 526Q111 768 219 968T516 1283T928 1399H2068ZM276 471Q276 346 321 246T448 92T631 37Q733 37 795 58T894 139T970 325T1082 712T1173 1068T1194 1223Q1194 1296 1124 1328T909 1360Q723 1360 579 1248T356 930T276 471Z"/><glyph unicode="œ" horiz-adv-x="1436" d="M715 174Q564 -29 346 -29Q262 -29 195 15T91 141T55 330Q55 464 135 618T333 858T584 944Q684 944 754 882T850 705Q930 820 1032 882T1245 944Q1325 944 1376 906T1427 807Q1427 711 1354 631T1140 496T850 434Q827 338 827 246Q827 140 873 83T1004 25Q1197 25 1356 313L1380 303Q1294 140 1191 56T973 -29Q881 -29 811 27T715 174ZM854 457Q979 469 1065 509T1204 600T1280 704T1303 795Q1303 913 1198 913Q1099 913 999 778T854 457ZM739 629Q739 723 718 787T660 884T573 918Q478 918 393 830T254 589T199 291Q199 154 245 76T365 -2Q461 -2 545 85T684 329T739 629Z"/><glyph unicode="Š" horiz-adv-x="1069" d="M1155 1419L1038 954H1014Q992 1191 920 1287T707 1384Q566 1384 474 1306T381 1104Q381 1036 402 989T472 900T649 784Q802 698 859 650T945 550T973 430Q973 300 904 195T713 32T438 -27Q336 -27 242 2T94 76L0 -20H-49L66 459H92Q120 230 217 122T475 14Q584 14 669 54T802 169T850 330Q850 401 831 447T764 533T557 662Q384 759 322 836T260 1010Q260 1121 321 1217T490 1369T731 1425Q811 1425 887 1397T1010 1323L1106 1419H1155ZM607 1896L629 1909L846 1614L1221 1907L1235 1894L912 1534Q885 1505 871 1500T824 1495Q784 1495 774 1508T607 1896Z"/><glyph unicode="š" horiz-adv-x="741" d="M700 737Q700 685 676 653T604 621Q573 621 549 641T524 696Q524 753 609 797Q625 805 627 813Q621 864 579 892T471 920Q388 920 335 868T281 733Q281 674 321 622T450 509Q536 448 577 389T618 260Q618 183 577 116T464 10T303 -29Q207 -29 143 1T44 82T10 201Q10 255 43 291T123 328Q163 328 186 306T209 246Q209 211 187 189T129 166Q104 166 92 164T80 139Q80 105 108 71T187 18T301 -2Q397 -2 458 47T520 176Q520 243 480 297T349 413Q261 471 220 531T178 666Q178 737 217 801T325 905T473 944Q543 944 594 920T673 846T700 737ZM317 1505L339 1518L556 1223L931 1516L945 1503L622 1143Q595 1114 581 1109T534 1104Q494 1104 484 1117T317 1505Z"/><glyph unicode="Ÿ" horiz-adv-x="1255" d="M1464 1329Q1464 1285 1437 1258T1368 1231Q1331 1231 1309 1250T1286 1298Q1286 1318 1294 1341T1313 1376L1305 1384Q1211 1374 1096 1274T895 1022T764 690L629 152Q623 126 623 111Q627 72 670 51Q680 45 742 34T834 23L829 0H240L244 23Q357 32 391 43Q457 66 475 143L604 666Q616 712 625 791T635 944Q635 1118 567 1218T375 1319Q299 1319 237 1260T143 1100L117 1108Q223 1423 473 1423Q605 1423 679 1315T754 1020Q754 941 735 823H754Q1002 1425 1343 1425Q1397 1425 1430 1399T1464 1329ZM1241 1710Q1241 1661 1209 1627T1129 1593Q1085 1593 1064 1620T1043 1683Q1043 1732 1077 1765T1162 1798Q1194 1798 1217 1772T1241 1710ZM846 1710Q846 1661 814 1627T734 1593Q690 1593 669 1620T648 1683Q648 1732 682 1765T766 1798Q799 1798 822 1771T846 1710Z"/><glyph unicode="Ž" horiz-adv-x="1190" d="M1366 1399L1358 1374L72 35H473Q727 35 801 88Q873 144 959 243T1096 420H1124L975 0H-127L-121 25L1165 1364H793Q682 1364 630 1357T518 1306T386 1182T262 1022H233L373 1399H1366ZM666 1896L688 1909L905 1614L1280 1907L1294 1894L971 1534Q944 1505 930 1500T883 1495Q843 1495 833 1508T666 1896Z"/><glyph unicode="ž" horiz-adv-x="834" d="M893 881Q893 840 869 807T774 715L125 201L127 195Q172 192 212 180T295 153Q371 128 409 121T501 113Q582 113 623 146T665 233Q665 311 569 330L578 354Q656 338 698 291T741 164Q741 88 685 32T557 -25Q503 -25 446 -2T315 71Q235 125 190 146T104 168Q62 157 62 102L63 53Q63 -27 6 -27Q-14 -27 -32 -11T-51 43Q-51 78 -19 115T63 193L183 292Q504 557 731 717L729 723L709 722Q650 722 532 757Q396 797 344 797Q213 797 213 698Q213 657 246 624T338 573L326 551Q123 619 123 745Q123 823 180 881T313 940Q363 940 413 917T522 844Q585 792 627 770T709 748Q748 748 765 763T782 811V850Q782 895 802 918T848 942Q866 942 879 927T893 881ZM618 1505L640 1518L857 1223L1232 1516L1246 1503L923 1143Q896 1114 882 1109T835 1104Q795 1104 785 1117T618 1505Z"/><glyph unicode="ƒ" horiz-adv-x="922" d="M1079 1159Q1079 1114 1058 1085T999 1055Q961 1055 936 1074T911 1135Q911 1167 938 1225Q932 1237 911 1243T872 1249Q644 1249 518 811L483 690H741L731 655H477Q380 330 315 135Q234 -101 89 -249T-201 -397Q-273 -397 -321 -365T-369 -281Q-369 -238 -345 -208T-279 -178Q-238 -178 -214 -200T-190 -266Q-190 -288 -202 -312T-227 -348Q-215 -369 -193 -369Q-85 -369 -7 -273T158 78Q183 151 204 216T334 655H117L125 690H340Q391 878 464 995T651 1195T883 1278Q972 1278 1025 1244T1079 1159Z"/><glyph unicode="ˆ" horiz-adv-x="1024" d="M993 1090L971 1077L754 1372L379 1079L365 1092L545 1291Q680 1441 703 1467T776 1491Q801 1491 812 1487T830 1472T993 1090Z"/><glyph unicode="ˇ" horiz-adv-x="1024" d="M457 1505L479 1518L696 1223L1071 1516L1085 1503L762 1143Q735 1114 721 1109T674 1104Q634 1104 624 1117T457 1505Z"/><glyph unicode="˘" horiz-adv-x="1024" d="M1085 1477Q1007 1325 893 1215T688 1104Q600 1104 538 1213T471 1477L492 1485Q518 1362 577 1296T717 1229Q793 1229 882 1293T1065 1485L1085 1477Z"/><glyph unicode="˙" horiz-adv-x="1024" d="M858 1350Q858 1298 822 1262T735 1225Q689 1225 654 1258T618 1341Q618 1390 652 1426T735 1462Q787 1462 822 1430T858 1350Z"/><glyph unicode="˚" horiz-adv-x="1024" d="M700 1085Q614 1085 555 1132T496 1251Q496 1345 573 1412T756 1479Q843 1479 899 1431T956 1309Q956 1216 879 1151T700 1085ZM866 1333Q866 1452 758 1452Q712 1452 673 1420T611 1335T588 1227Q588 1174 614 1143T696 1112Q766 1112 816 1179T866 1333Z"/><glyph unicode="˛" horiz-adv-x="1024" d="M465 0Q209 -185 209 -305Q209 -358 262 -390T410 -428L397 -463Q249 -463 168 -425T86 -317Q86 -239 170 -158T420 0H465Z"/><glyph unicode="˜" horiz-adv-x="1024" d="M1069 1425Q994 1295 922 1231T788 1167Q721 1167 648 1226Q574 1284 522 1284Q474 1284 421 1247T319 1135L295 1143Q332 1207 384 1269T483 1361T571 1391Q644 1391 716 1333Q755 1301 783 1288T838 1274Q888 1274 944 1318T1044 1434L1069 1425Z"/><glyph unicode="˝" horiz-adv-x="1024" d="M1120 1468Q1120 1411 1034 1354L876 1245Q736 1145 664 1098L651 1114L733 1203Q905 1390 944 1438Q979 1481 1006 1500T1069 1520Q1094 1520 1107 1504T1120 1468ZM745 1468Q745 1409 659 1354Q617 1327 503 1245Q373 1150 293 1098L281 1114L361 1203Q519 1376 569 1438Q604 1481 631 1500T694 1520Q719 1520 732 1504T745 1468Z"/><glyph unicode="̄" horiz-adv-x="1024" d="M1049 1233H373L399 1333H1075L1049 1233Z"/><glyph unicode="Δ" horiz-adv-x="1536" d="M-51 0L768 1536H999L1327 0H-51ZM248 147H1061L823 1255L248 147Z"/><glyph unicode="Ω" horiz-adv-x="1139" d="M1075 502H88V561H1075V502Z"/><glyph unicode="μ" horiz-adv-x="1151" d="M1128 287Q1061 115 994 46T836 -23Q749 -23 719 23T688 132Q688 166 696 209L692 211Q632 103 541 38T360 -27Q202 -27 152 147H147L123 33Q84 -148 84 -227Q84 -343 58 -403T-14 -463Q-38 -463 -56 -445T-74 -393Q-74 -363 -64 -331T-12 -213Q59 -66 117 129L352 913H492L309 303Q291 241 281 200T270 127Q270 74 296 49T385 23Q466 23 550 87T702 270L905 913H1044L829 262Q797 166 797 94Q797 59 814 36T860 12Q925 12 984 79T1104 295L1128 287Z"/><glyph unicode="π" horiz-adv-x="1407" d="M176 0L340 1028H59L84 1176H1415L1393 1028H1075L973 360Q965 306 965 266Q965 206 990 173T1112 139Q1163 139 1183 141T1237 152L1208 20Q1136 -16 1004 -16Q831 -16 798 47T765 191Q765 246 776 315L889 1028H524L365 0H176Z"/><glyph unicode="–" horiz-adv-x="1114" d="M1018 498H113L137 588H1042L1018 498Z"/><glyph unicode="—" horiz-adv-x="1913" d="M1761 477H160L184 565H1786L1761 477Z"/><glyph unicode="‘" horiz-adv-x="340" d="M504 1460L512 1436Q401 1377 346 1318T266 1188H334Q392 1188 416 1161T440 1100Q440 1049 402 1012T309 975Q249 975 224 1007T199 1104Q199 1213 278 1304T504 1460Z"/><glyph unicode="’" horiz-adv-x="340" d="M256 1024L248 1049Q349 1101 408 1160T494 1296H426Q378 1296 349 1318T319 1384Q319 1436 357 1472T451 1509Q511 1509 536 1477T561 1380Q561 1272 483 1181T256 1024Z"/><glyph unicode="‚" horiz-adv-x="340" d="M-123 -268L-131 -244Q65 -144 115 4H47Q-2 4 -30 26T-59 92Q-59 143 -22 180T72 217Q132 217 157 185T182 88Q182 -22 103 -112T-123 -268Z"/><glyph unicode="“" horiz-adv-x="688" d="M852 1460L860 1436Q749 1377 694 1318T614 1188H682Q740 1188 764 1161T788 1100Q788 1049 750 1012T657 975Q597 975 572 1007T547 1104Q547 1213 626 1304T852 1460ZM504 1460L512 1436Q401 1377 346 1318T266 1188H334Q392 1188 416 1161T440 1100Q440 1049 402 1012T309 975Q249 975 224 1007T199 1104Q199 1213 278 1304T504 1460Z"/><glyph unicode="”" horiz-adv-x="688" d="M604 1024L596 1049Q702 1103 759 1163T842 1296H774Q725 1296 697 1318T668 1384Q668 1435 705 1472T799 1509Q859 1509 884 1477T909 1380Q909 1272 831 1181T604 1024ZM256 1024L248 1049Q349 1101 408 1160T494 1296H426Q378 1296 349 1318T319 1384Q319 1436 357 1472T451 1509Q511 1509 536 1477T561 1380Q561 1272 483 1181T256 1024Z"/><glyph unicode="„" horiz-adv-x="688" d="M225 -268L217 -244Q413 -144 463 4H395Q346 4 318 26T289 92Q289 143 326 180T420 217Q480 217 505 185T530 88Q530 -22 451 -112T225 -268ZM-123 -268L-131 -244Q65 -144 115 4H47Q-2 4 -30 26T-59 92Q-59 143 -22 180T72 217Q132 217 157 185T182 88Q182 -22 103 -112T-123 -268Z"/><glyph unicode="†" horiz-adv-x="836" d="M821 896Q791 896 772 908T725 965Q696 1012 683 1021T656 1031Q631 1031 613 977T496 622T373 229L348 236Q430 579 512 1001L516 1041Q516 1079 480 1079Q462 1079 410 1051Q361 1024 335 1024Q304 1024 279 1045T253 1103Q253 1134 267 1152T305 1172Q365 1172 365 1094L375 1093L427 1101L474 1107Q495 1107 525 1093T567 1061Q576 1109 581 1221Q584 1324 591 1352T617 1398T658 1417Q687 1417 705 1399T724 1348L719 1317Q711 1288 662 1199Q609 1102 592 1055Q608 1062 628 1062H634Q669 1060 689 1052T763 996Q775 985 786 981Q810 1024 853 1024Q902 1024 902 980Q902 943 882 920T821 896Z"/><glyph unicode="‡" horiz-adv-x="891" d="M889 1021L868 1024Q838 1032 796 1071Q742 1120 712 1120Q692 1120 673 1091T604 928T537 745L512 754Q532 845 554 968T576 1118Q576 1152 561 1162T514 1172H505L413 1159Q380 1159 356 1175T331 1222Q331 1247 347 1265T382 1283Q407 1283 424 1264T442 1212V1204L478 1202H497Q534 1202 571 1188T623 1151V1167L620 1269Q620 1339 640 1372T694 1405Q720 1405 736 1388T753 1343Q753 1318 743 1292T674 1179L651 1143Q664 1149 681 1149H691Q750 1144 792 1116L834 1092Q859 1135 899 1135Q947 1135 947 1087Q947 1060 931 1041T889 1021ZM140 420Q178 420 234 369Q287 320 321 320Q349 320 380 392T494 692L520 686Q512 655 483 507T454 321Q454 288 469 278T514 267L566 274L615 281Q649 281 674 265T699 217Q699 196 684 177T647 157Q623 157 606 175T588 229V236L557 238L532 237Q503 237 464 251T408 289L407 266L411 171Q411 106 392 70T340 34Q311 34 294 53T277 98Q277 152 358 261L381 297Q363 289 341 289Q320 289 295 297Q261 308 239 323T197 348Q173 304 134 304Q114 304 99 315T83 352Q83 378 99 399T140 420Z"/><glyph unicode="•" horiz-adv-x="819" d="M737 666Q737 595 700 531T600 429T473 391Q409 391 347 429T247 531T209 666Q209 737 246 802T346 905T473 944Q537 944 599 906T699 803T737 666Z"/><glyph unicode="…" horiz-adv-x="1266" d="M1128 96Q1128 48 1096 16T1016 -16Q969 -16 936 16T903 96Q903 142 936 175T1016 209Q1063 209 1095 176T1128 96ZM707 96Q707 50 675 17T594 -16Q547 -16 514 16T481 96Q481 142 514 175T594 209Q642 209 674 176T707 96ZM285 96Q285 47 252 16T172 -16Q125 -16 92 16T59 96Q59 142 92 175T172 209Q218 209 251 177T285 96Z"/><glyph unicode="‰" horiz-adv-x="2441" d="M823 1012Q823 916 770 827T616 676T414 614Q305 614 234 684T162 866Q162 965 216 1059T360 1211T547 1268Q665 1268 744 1196T823 1012ZM1530 1384L195 -201L162 -180L1495 1405L1530 1384ZM2339 371Q2339 272 2284 182T2128 32T1929 -27Q1820 -27 1749 43T1677 225Q1677 324 1730 417T1874 569T2062 627Q2181 627 2260 555T2339 371ZM1556 371Q1556 275 1503 186T1349 35T1147 -27Q1038 -27 967 43T895 225Q895 324 949 418T1093 570T1280 627Q1400 627 1478 555T1556 371ZM688 1057Q688 1135 651 1185T553 1235Q485 1235 427 1176T333 1018T297 823Q297 736 327 693T414 649Q484 649 548 705T650 858T688 1057ZM2204 416Q2204 495 2166 544T2068 594Q2001 594 1943 535T1848 377T1812 182Q1812 95 1842 52T1929 8Q1999 8 2063 65T2166 218T2204 416ZM1421 416Q1421 494 1384 544T1286 594Q1219 594 1161 535T1066 377T1030 182Q1030 95 1060 52T1147 8Q1217 8 1281 64T1383 217T1421 416Z"/><glyph unicode="‹" horiz-adv-x="680" d="M420 51L399 37L96 383Q68 414 68 434Q68 454 79 478T133 530Q517 786 641 879L653 864L223 455L420 51Z"/><glyph unicode="›" horiz-adv-x="680" d="M0 51L430 455L233 864L254 879Q332 777 561 530Q580 509 583 500T587 481L582 459Q576 439 567 426T516 383L12 37L0 51Z"/><glyph unicode="⁄" horiz-adv-x="659" d="M1145 1513L-440 -418L-485 -391L1098 1540L1145 1513Z"/><glyph unicode="€" horiz-adv-x="1219" d="M240 698H129V725H248Q301 879 402 1004T634 1200T901 1270Q998 1270 1069 1241T1179 1161T1219 1047Q1219 976 1185 935T1092 893Q1054 893 1034 914T1014 967Q1014 997 1024 1013T1047 1042T1075 1070T1096 1112V1118Q1096 1167 1037 1202T887 1237Q746 1237 617 1098T412 725H932V698H406Q378 606 367 522H793V496H362Q354 435 354 352Q354 198 422 115T629 31Q855 31 1063 305L1081 293Q982 141 857 56T596 -29Q412 -29 307 94T201 438V467L203 496H72V522H205Q214 610 240 698Z"/><glyph unicode="℗" horiz-adv-x="1923" d="M1855 514Q1855 279 1736 75T1413 -250T977 -371Q743 -371 539 -250T215 75T96 514Q96 745 215 949T538 1274T977 1395Q1211 1395 1414 1274T1736 949T1855 514ZM1802 514Q1802 730 1693 922T1390 1230T977 1346Q760 1346 568 1234T263 930T150 514Q150 296 259 103T563 -206T977 -322Q1197 -322 1390 -206T1693 102T1802 514ZM1399 758Q1399 630 1296 550T1040 469H918V156Q918 104 970 92T1110 74V51H594V74Q692 82 728 98T764 156V868Q764 919 717 932Q645 951 588 956V979H1102Q1235 979 1317 918T1399 758ZM1221 723Q1221 822 1165 886T1020 950H918V502H993Q1067 502 1116 534T1193 617T1221 723Z"/><glyph unicode="™" horiz-adv-x="1288" d="M1458 887H1198V903L1214 905Q1263 909 1274 915Q1294 928 1294 952V1319H1282L1122 893H1114L1096 944L950 1309H938V1028Q938 981 947 955T975 921T1042 903V887H811V903L825 905Q887 911 899 937T911 1022V1296Q911 1324 904 1340T867 1368T817 1380V1399H991L1147 1020L1260 1331Q1271 1361 1276 1399H1456V1380L1443 1379L1393 1368Q1372 1360 1372 1333V952Q1372 926 1393 918Q1395 917 1397 916T1458 903V887ZM737 1247H729Q689 1366 653 1372L624 1374H549V950Q549 926 571 915L637 903V887H377V903L392 905Q435 907 452 917T469 946V1374H401L362 1372Q341 1369 318 1325T285 1247H276V1399H737V1247Z"/><glyph unicode="Ω" horiz-adv-x="1139" d="M1075 502H88V561H1075V502Z"/><glyph unicode="∂" horiz-adv-x="1264" d="M1223 596Q1223 532 1179 488T1069 444Q1033 444 1007 457T956 488T902 523T831 547L813 530Q801 459 733 408L731 387Q756 355 784 338T840 307Q952 256 952 152Q952 89 905 43T793 -4Q729 -4 684 40T639 150Q639 175 658 238Q676 301 676 342V365L662 375L641 373H621Q560 373 506 410L479 408Q450 364 436 283Q424 203 383 158T276 113Q213 113 166 159T119 270Q119 335 167 379T289 424H319Q391 424 440 451L446 479Q426 523 426 567Q426 594 432 618L422 645Q405 651 367 651Q331 651 295 644Q258 637 236 637Q169 637 124 683T78 793Q78 855 122 902T233 950Q346 950 386 826Q404 768 416 743T449 698L479 700Q539 762 621 762L643 776Q643 817 632 847T608 902T584 953T573 1010Q573 1075 618 1117T729 1159Q795 1159 838 1114T881 1004Q881 963 865 934T814 880Q763 843 740 820T700 766L709 741Q785 702 807 623L831 610Q860 620 882 636T950 698Q1006 754 1073 754Q1133 754 1178 709T1223 596ZM758 569Q758 627 719 668T621 709Q563 709 523 669T483 569Q483 509 522 468T621 426Q681 426 719 468T758 569Z"/><glyph unicode="∆" horiz-adv-x="1536" d="M-51 0L768 1536H999L1327 0H-51ZM248 147H1061L823 1255L248 147Z"/><glyph unicode="∏" horiz-adv-x="1536" d="M184 0L395 1348H143L172 1524H1612L1583 1348H1335L1124 0H915L1133 1356H604L391 0H184Z"/><glyph unicode="∑" horiz-adv-x="1151" d="M-76 0L-51 143L584 801L156 1360L184 1524H1196L1167 1343H416L823 788L236 184H1049L1020 0H-76Z"/><glyph unicode="−" horiz-adv-x="1139" d="M1075 502H88V561H1075V502Z"/><glyph unicode="∕" horiz-adv-x="659" d="M1145 1513L-440 -418L-485 -391L1098 1540L1145 1513Z"/><glyph unicode="∙" horiz-adv-x="578" d="M442 557Q442 502 404 464T309 426Q253 426 215 464T176 557Q176 612 215 651T309 690Q364 690 403 651T442 557Z"/><glyph unicode="√" horiz-adv-x="1280" d="M80 444L25 612L369 895L520 256L1251 1548H1440L483 -129H457L276 608L80 444Z"/><glyph unicode="∞" horiz-adv-x="1536" d="M1071 395Q924 395 840 479Q801 524 768 588Q628 395 440 395Q285 395 191 508T96 809Q96 983 207 1100T468 1217Q691 1217 780 1028Q892 1217 1100 1217Q1247 1217 1345 1113T1444 819Q1444 639 1341 517T1071 395ZM471 1049Q377 1049 317 982T256 793Q256 668 302 611T449 553Q626 553 700 809Q630 1049 471 1049ZM1071 555Q1155 555 1217 625T1280 815Q1280 915 1234 988T1079 1061Q973 1061 920 969Q881 895 848 805Q860 651 920 608Q983 555 1071 555Z"/><glyph unicode="∫" horiz-adv-x="1264" d="M1223 596Q1223 532 1179 488T1069 444Q1033 444 1007 457T956 488T902 523T831 547L813 530Q801 459 733 408L731 387Q756 355 784 338T840 307Q952 256 952 152Q952 89 905 43T793 -4Q729 -4 684 40T639 150Q639 175 658 238Q676 301 676 342V365L662 375L641 373H621Q560 373 506 410L479 408Q450 364 436 283Q424 203 383 158T276 113Q213 113 166 159T119 270Q119 335 167 379T289 424H319Q391 424 440 451L446 479Q426 523 426 567Q426 594 432 618L422 645Q405 651 367 651Q331 651 295 644Q258 637 236 637Q169 637 124 683T78 793Q78 855 122 902T233 950Q346 950 386 826Q404 768 416 743T449 698L479 700Q539 762 621 762L643 776Q643 817 632 847T608 902T584 953T573 1010Q573 1075 618 1117T729 1159Q795 1159 838 1114T881 1004Q881 963 865 934T814 880Q763 843 740 820T700 766L709 741Q785 702 807 623L831 610Q860 620 882 636T950 698Q1006 754 1073 754Q1133 754 1178 709T1223 596ZM758 569Q758 627 719 668T621 709Q563 709 523 669T483 569Q483 509 522 468T621 426Q681 426 719 468T758 569Z"/><glyph unicode="≈" horiz-adv-x="1139" d="M1018 74L604 487L190 74L145 119L559 532L145 946L188 987L600 575L1016 991L1063 944L647 528L1059 117L1018 74Z"/><glyph unicode="≠" horiz-adv-x="1536" d="M209 403V592H588L797 981H209V1163H893L995 1356H1167L1065 1163H1327V981H969L760 592H1327V403H659L549 188H373L487 403H209Z"/><glyph unicode="≤" horiz-adv-x="1536" d="M1348 236L209 709V872L1348 1343V1141L436 793L1348 440V236ZM213 41V215H1348V41H213Z"/><glyph unicode="≥" horiz-adv-x="1536" d="M213 236V440L1128 793L213 1141V1343L1352 872V709L213 236ZM213 41V215H1348V41H213Z"/><glyph unicode="◊" horiz-adv-x="1151" d="M471 -47L68 756L471 1561H655L1061 756L655 -47H471ZM559 156L864 768L571 1356L264 739L559 156Z"/><glyph unicode="" horiz-adv-x="1264" d="M1223 596Q1223 532 1179 488T1069 444Q1033 444 1007 457T956 488T902 523T831 547L813 530Q801 459 733 408L731 387Q756 355 784 338T840 307Q952 256 952 152Q952 89 905 43T793 -4Q729 -4 684 40T639 150Q639 175 658 238Q676 301 676 342V365L662 375L641 373H621Q560 373 506 410L479 408Q450 364 436 283Q424 203 383 158T276 113Q213 113 166 159T119 270Q119 335 167 379T289 424H319Q391 424 440 451L446 479Q426 523 426 567Q426 594 432 618L422 645Q405 651 367 651Q331 651 295 644Q258 637 236 637Q169 637 124 683T78 793Q78 855 122 902T233 950Q346 950 386 826Q404 768 416 743T449 698L479 700Q539 762 621 762L643 776Q643 817 632 847T608 902T584 953T573 1010Q573 1075 618 1117T729 1159Q795 1159 838 1114T881 1004Q881 963 865 934T814 880Q763 843 740 820T700 766L709 741Q785 702 807 623L831 610Q860 620 882 636T950 698Q1006 754 1073 754Q1133 754 1178 709T1223 596ZM758 569Q758 627 719 668T621 709Q563 709 523 669T483 569Q483 509 522 468T621 426Q681 426 719 468T758 569Z"/><glyph unicode="ﬀ" horiz-adv-x="1239" d="M1147 1346L1171 1372Q1321 1522 1499 1522Q1580 1522 1630 1481T1681 1376Q1681 1333 1656 1306T1591 1278Q1551 1278 1522 1299T1493 1354Q1493 1379 1507 1412T1524 1460Q1524 1474 1510 1482T1479 1491Q1359 1491 1267 1378T1116 1055L1075 911H1333L1317 860H1063L1011 658Q910 266 854 80T721 -230T552 -418T358 -483Q273 -483 225 -444T176 -334Q176 -298 202 -270T266 -242Q306 -242 333 -265T360 -326Q360 -353 348 -373T322 -416Q324 -434 337 -443T362 -453Q473 -453 550 -353T700 -8Q784 267 887 680L932 860H453L401 658Q307 296 247 96T111 -229T-59 -418T-252 -483Q-337 -483 -385 -444T-434 -334Q-434 -298 -408 -270T-344 -242Q-304 -242 -277 -265T-250 -326Q-250 -353 -262 -373T-289 -416Q-287 -434 -273 -443T-248 -453Q-144 -453 -71 -366T71 -68T276 680L322 860H104L119 911H336L358 993Q422 1225 577 1364T924 1503Q1022 1503 1082 1461T1147 1346ZM1085 1262L1057 1260Q1018 1260 988 1281T958 1335Q958 1361 972 1394T989 1442Q986 1454 956 1463T903 1473Q624 1473 506 1055L465 911H946L969 993Q1009 1145 1085 1262Z"/><glyph unicode="ﬁ" horiz-adv-x="1137" d="M866 860H453L401 658Q307 296 247 96T111 -229T-59 -418T-252 -483Q-337 -483 -385 -444T-434 -334Q-434 -298 -408 -270T-344 -242Q-304 -242 -277 -265T-250 -326Q-250 -353 -262 -373T-289 -416Q-287 -434 -273 -443T-248 -453Q-144 -453 -71 -366T71 -68T276 680L322 860H104L119 911H336L358 993Q426 1243 572 1382T889 1522Q994 1522 1058 1480T1122 1366Q1122 1332 1100 1305T1032 1278Q992 1278 963 1299T934 1354Q934 1376 948 1410T965 1460Q961 1473 937 1482T889 1491Q755 1491 661 1383T506 1055L465 911H1018Q1008 842 977 737T918 563L801 262Q754 139 754 78Q754 12 827 12Q892 12 949 76T1067 295L1092 287Q1040 159 1000 99T911 8T801 -23Q637 -23 637 137Q637 206 678 307L815 655Q866 784 866 860Z"/><glyph unicode="ﬂ" horiz-adv-x="1176" d="M1042 1300Q1020 1284 991 1284Q956 1284 932 1304T907 1356Q907 1374 934 1446Q926 1475 912 1483T868 1491Q752 1491 660 1380T506 1055L465 911H723L707 860H453L401 658Q307 296 247 96T111 -229T-59 -418T-252 -483Q-337 -483 -385 -444T-434 -334Q-434 -298 -408 -270T-344 -242Q-304 -242 -277 -265T-250 -326Q-250 -353 -262 -373T-289 -416Q-287 -434 -273 -443T-248 -453Q-144 -453 -71 -366T71 -68T276 680L322 860H104L119 911H336L358 993Q427 1242 571 1382T889 1522Q951 1522 992 1499T1053 1442L1247 1520L844 258Q818 177 812 143T805 80Q805 43 822 29T874 14Q1011 14 1118 295L1143 287Q1090 157 1049 97T960 7T850 -23Q690 -23 690 135Q690 188 727 307L1042 1300Z"/><glyph unicode="ﬃ" horiz-adv-x="1747" d="M936 860H453L401 658Q307 296 247 96T111 -229T-59 -418T-252 -483Q-337 -483 -385 -444T-434 -334Q-434 -298 -408 -270T-344 -242Q-304 -242 -277 -265T-250 -326Q-250 -353 -262 -373T-289 -416Q-287 -434 -273 -443T-248 -453Q-144 -453 -71 -366T71 -68T276 680L322 860H104L119 911H336L358 993Q422 1225 577 1364T924 1503Q1021 1503 1081 1461T1147 1346Q1217 1425 1308 1473T1499 1522Q1603 1522 1668 1480T1733 1366Q1733 1332 1710 1305T1642 1278Q1602 1278 1573 1299T1544 1354Q1544 1379 1558 1412T1575 1460Q1571 1473 1547 1482T1499 1491Q1365 1491 1271 1383T1116 1055L1075 911H1628Q1618 842 1587 737T1528 563L1411 262Q1364 139 1364 78Q1364 12 1438 12Q1507 12 1565 83T1677 295L1702 287Q1650 159 1610 99T1521 8T1411 -23Q1247 -23 1247 137Q1247 202 1288 307L1425 655Q1477 787 1477 860H1063L1011 658Q910 266 854 80T721 -230T552 -418T358 -483Q273 -483 225 -444T176 -334Q176 -298 202 -270T266 -242Q306 -242 333 -265T360 -326Q360 -353 348 -373T322 -416Q324 -434 337 -443T362 -453Q473 -453 550 -353T700 -8Q708 18 716 46T733 104T759 196T786 295T936 860ZM1085 1262L1057 1260Q1018 1260 988 1281T958 1335Q958 1361 972 1394T989 1442Q986 1454 956 1463T903 1473Q765 1473 665 1368T506 1055L465 911H948Q979 1047 1010 1121T1085 1262Z"/><glyph unicode="ﬄ" horiz-adv-x="1786" d="M936 860H453L401 658Q307 296 247 96T111 -229T-59 -418T-252 -483Q-337 -483 -385 -444T-434 -334Q-434 -298 -408 -270T-344 -242Q-304 -242 -277 -265T-250 -326Q-250 -353 -262 -373T-289 -416Q-287 -434 -273 -443T-248 -453Q-144 -453 -71 -366T71 -68T276 680L322 860H104L119 911H336L358 993Q422 1225 577 1364T924 1503Q1021 1503 1081 1461T1147 1346L1171 1372Q1321 1522 1499 1522Q1561 1522 1602 1499T1663 1442L1858 1520L1454 258Q1428 177 1422 143T1415 80Q1415 43 1433 29T1485 14Q1620 14 1729 295L1753 287Q1700 157 1659 97T1570 7T1460 -23Q1300 -23 1300 135Q1300 188 1337 306T1653 1300Q1629 1284 1602 1284Q1567 1284 1543 1304T1518 1356Q1518 1381 1528 1401T1544 1446Q1536 1475 1522 1483T1479 1491Q1361 1491 1269 1379T1116 1055L1075 911H1333L1317 860H1063L1011 658Q910 266 854 80T721 -230T552 -418T358 -483Q273 -483 225 -444T176 -334Q176 -298 202 -270T266 -242Q306 -242 333 -265T360 -326Q360 -353 348 -373T322 -416Q324 -434 337 -443T362 -453Q473 -453 550 -353T700 -8Q708 18 716 46T733 104T759 196T786 295T936 860ZM1085 1262L1057 1260Q1018 1260 988 1281T958 1335Q958 1361 972 1394T989 1442Q986 1454 956 1463T903 1473Q765 1473 665 1368T506 1055L465 911H948Q979 1046 1010 1121T1085 1262Z"/></font>
</defs>
</svg>
