<?xml version="1.0" encoding="UTF-8"?><svg xmlns="http://www.w3.org/2000/svg" width="100%" height="100%"><defs><font id="web" horiz-adv-x="1342"><!--



NOTICE: This font software is the valuable property 
of Webtype LLC, The Font Bureau, Webtype and/or its 
suppliers and its use by you is covered under the terms 
of the Web Font license agreement between you and Webtype 
LLC. You may ONLY use this font software with the licensed 
web site. Except as specifically permitted by the license, 
you may not copy this font software. If you have any 
questions, please contact Webtype.com. 

For more information, please visit http://www.webtype.com/store/license/?id=23

Licensed to: fordused.co.za|kamloopsford.strathcom2.com

Serial number: SH-139
--><font-face font-family="" units-per-em="2048" panose-1="2 0 6 3 0 0 0 2 0 4" ascent="2220" descent="-766" alphabetic="0"/><missing-glyph horiz-adv-x="1024" d="M0 1434H1024V0H0V1434ZM102 102H922V1331H102V102Z"/><glyph unicode=" " horiz-adv-x="461"/><glyph unicode="!" horiz-adv-x="778" d="M244 301H532V0H244V301ZM258 1518H520L494 451H283L258 1518Z"/><glyph unicode="&quot;" horiz-adv-x="1081" d="M188 1518H434L420 866H205L188 1518ZM647 1518H895L879 866H664L647 1518Z"/><glyph unicode="#" horiz-adv-x="1575" d="M360 403H125V623H399L446 864H125V1085H487L573 1518H801L715 1085H981L1065 1518H1292L1210 1085H1452V864H1169L1122 623H1452V403H1081L1004 0H774L852 403H588L510 0H281L360 403ZM907 610L961 879H662L608 610H907Z"/><glyph unicode="$" horiz-adv-x="1382" d="M588 1657H807V1515Q911 1507 1011 1477T1182 1403L1071 1217Q1002 1259 900 1284T694 1309Q540 1309 469 1263T397 1108Q397 1044 426 1004T515 939T760 879Q936 847 1020 813T1155 729T1230 612T1255 453Q1255 46 807 5V-193H588V3Q429 15 310 53T100 156L213 332Q317 265 429 233T682 201Q863 201 945 255T1028 434Q1028 506 997 550T901 622T670 678Q519 704 451 725T331 776T244 850T188 955T168 1096Q168 1296 272 1397T588 1515V1657Z"/><glyph unicode="%" horiz-adv-x="2413" d="M526 557Q307 557 193 683T78 1049Q78 1287 193 1414T526 1542Q741 1542 855 1414T969 1049Q969 811 856 684T526 557ZM526 748Q756 748 756 1049Q756 1346 526 1346Q293 1346 293 1049Q293 895 351 822T526 748ZM1888 -20Q1673 -20 1558 106T1442 473Q1442 712 1558 839T1888 967Q2102 967 2217 840T2333 473Q2333 233 2218 107T1888 -20ZM1888 170Q2118 170 2118 473Q2118 624 2061 696T1888 768Q1657 768 1657 473Q1657 170 1888 170ZM1518 1520H1741L893 0H670L1518 1520Z"/><glyph unicode="&amp;" horiz-adv-x="1675" d="M631 -20Q336 -20 211 82T86 416Q86 667 325 815L401 859Q360 961 344 1036T328 1180Q328 1358 425 1450T702 1542Q876 1542 964 1456T1053 1180Q1053 1061 983 968T738 784L708 769Q853 554 1062 392Q1119 476 1167 608T1260 903L1460 852Q1408 649 1357 515T1239 278Q1311 244 1373 230T1526 215H1544V0H1518Q1370 0 1273 24T1077 103Q985 39 877 10T631 -20ZM494 678Q317 566 317 420Q317 323 348 276T446 204T631 180Q799 180 891 235Q639 446 494 678ZM844 1180Q844 1256 813 1294T702 1333Q622 1333 588 1295T553 1180Q553 1079 616 935Q709 985 752 1019T820 1093T844 1180Z"/><glyph unicode="'" horiz-adv-x="625" d="M188 1520H434L420 866H205L188 1520Z"/><glyph unicode="(" horiz-adv-x="1022" d="M651 -385Q524 -279 427 -123T274 221T219 618Q219 807 272 995T427 1354T651 1628L823 1507Q637 1318 550 1096T463 618Q463 359 555 130T823 -264L651 -385Z"/><glyph unicode=")" horiz-adv-x="1022" d="M201 -264Q387 -75 472 144T557 618Q557 877 464 1112T201 1507L369 1628Q568 1458 685 1191T803 618Q803 323 681 50T369 -385L201 -264Z"/><glyph unicode="*" horiz-adv-x="1212" d="M532 879L221 680L127 852L457 1016L127 1184L221 1354L532 1153L512 1520H698L678 1151L991 1354L1085 1184L754 1016L1085 850L991 682L678 881L698 516H512L532 879Z"/><glyph unicode="+" horiz-adv-x="1452" d="M606 608H205V836H606V1235H844V836H1247V608H844V207H606V608Z"/><glyph unicode="," horiz-adv-x="545" d="M127 -162Q215 -117 240 -88T266 0H127V307H416V84Q416 -40 397 -99T333 -199T188 -287L127 -162Z"/><glyph unicode="-" horiz-adv-x="897" d="M92 766H803V541H92V766Z"/><glyph unicode="." horiz-adv-x="545" d="M127 307H416V0H127V307Z"/><glyph unicode="/" horiz-adv-x="1094" d="M850 1518H1094L244 0H0L850 1518Z"/><glyph unicode="0" horiz-adv-x="1538" d="M770 -23Q445 -23 295 161T145 760Q145 1041 210 1208T412 1459T770 1542Q1090 1542 1241 1358T1393 760Q1393 349 1242 163T770 -23ZM770 197Q905 197 988 254T1109 428T1147 760Q1147 975 1110 1089T989 1258T770 1313Q632 1313 550 1258T429 1090T391 760Q391 544 429 428T550 255T770 197Z"/><glyph unicode="1" horiz-adv-x="807" d="M344 1290H70V1518H578V0H344V1290Z"/><glyph unicode="2" horiz-adv-x="1264" d="M72 199L575 664Q734 810 787 873T865 993T889 1118Q889 1229 822 1275T598 1321Q487 1321 377 1297T186 1229L80 1423Q205 1490 326 1516T621 1542Q883 1542 1004 1444T1126 1141Q1126 1034 1096 949T999 778T776 549L406 209H1147V0H72V199Z"/><glyph unicode="3" horiz-adv-x="1290" d="M621 -25Q440 -25 302 11T27 129L145 319Q279 245 387 216T608 186Q795 186 867 246T940 455Q940 559 906 610T796 686T580 711H342V924H575Q759 924 828 970T897 1135Q897 1242 833 1284T604 1327Q501 1327 389 1299T193 1221L66 1405Q175 1472 321 1507T625 1542Q893 1542 1011 1456T1130 1182Q1130 1027 1087 945T948 834Q1071 804 1121 712T1171 436Q1171 197 1042 86T621 -25Z"/><glyph unicode="4" horiz-adv-x="1401" d="M90 532L762 1518H1020L352 547H857L905 1010H1075V547H1337V342H1075V0H854V342H90V532Z"/><glyph unicode="5" horiz-adv-x="1339" d="M662 -23Q507 -23 370 12T94 131L215 322Q350 246 450 216T655 186Q854 186 936 260T1018 489Q1018 648 938 722T672 797Q574 797 500 782T352 733L152 795L190 1518H1143V1303H406L387 948Q514 1008 729 1008Q925 1008 1034 955T1200 791T1257 498Q1257 311 1196 197T1011 30T662 -23Z"/><glyph unicode="6" horiz-adv-x="1452" d="M764 -23Q439 -23 288 135T137 637Q137 991 222 1174T499 1437T1034 1518H1137V1303H1028Q866 1303 749 1281T556 1215T437 1099T377 889Q434 960 547 992T838 1024Q1098 1024 1220 905T1343 512Q1343 234 1202 106T764 -23ZM766 184Q946 184 1028 257T1110 504Q1110 673 1027 748T766 823Q583 823 483 749T383 532Q383 351 474 268T766 184Z"/><glyph unicode="7" horiz-adv-x="1149" d="M848 1303H35V1518H1108V1331L526 0H276L848 1303Z"/><glyph unicode="8" horiz-adv-x="1468" d="M733 -31Q434 -31 278 83T121 426Q121 762 365 834Q264 871 218 947T172 1159Q172 1356 311 1449T733 1542Q1012 1542 1154 1451T1296 1159Q1296 897 1102 834Q1350 760 1350 426Q1350 198 1192 84T733 -31ZM733 174Q924 174 1016 240T1108 444Q1108 585 1015 651T733 717Q544 717 452 651T360 444Q360 307 451 241T733 174ZM733 918Q904 918 984 967T1065 1130Q1065 1241 985 1290T733 1339Q563 1339 483 1290T403 1130Q403 1017 483 968T733 918Z"/><glyph unicode="9" horiz-adv-x="1452" d="M326 209H436Q600 209 717 232T911 299T1030 418T1087 625Q1029 553 916 523T627 492Q369 492 245 614T121 1004Q121 1281 262 1411T700 1542Q1027 1542 1177 1383T1327 883Q1327 527 1241 344T963 80T430 0H326V209ZM696 686Q883 686 982 760T1081 975Q1081 1156 990 1240T700 1325Q576 1325 500 1292T389 1192T354 1006Q354 837 436 762T696 686Z"/><glyph unicode=":" horiz-adv-x="586" d="M147 297H436V0H147V297ZM147 1147H436V848H147V1147Z"/><glyph unicode=";" horiz-adv-x="586" d="M147 -162Q238 -116 262 -87T287 0H147V297H436V84Q436 -36 416 -96T348 -200T209 -287L147 -162ZM147 1147H436V848H147V1147Z"/><glyph unicode="&lt;" horiz-adv-x="1452" d="M221 621V797L1151 1260V1034L467 709L1151 385V154L221 621Z"/><glyph unicode="=" horiz-adv-x="1452" d="M217 598H1237V373H217V598ZM217 1069H1237V846H217V1069Z"/><glyph unicode="&gt;" horiz-adv-x="1452" d="M301 385L985 707L301 1032V1260L1233 795V618L301 154V385Z"/><glyph unicode="?" horiz-adv-x="1399" d="M541 424Q531 503 531 563Q531 685 583 758T778 901Q902 964 938 992T989 1053T1004 1137Q1004 1213 975 1248T880 1300T702 1317Q466 1317 262 1214L162 1423Q260 1476 409 1509T719 1542Q1000 1542 1124 1453T1249 1157Q1249 1064 1223 997T1142 879T967 766Q884 726 845 696T788 629T770 521L774 424H541ZM512 272H801V0H512V272Z"/><glyph unicode="@" horiz-adv-x="2200" d="M1124 -338Q631 -338 398 -109T164 598Q164 1066 397 1305T1098 1544Q2040 1544 2040 598Q2040 379 2006 269T1895 111T1669 63Q1577 63 1520 80T1432 128T1393 219Q1341 143 1248 109T999 74Q779 74 669 205T559 608Q559 1139 1010 1139Q1155 1139 1238 1111T1366 1006L1417 1126L1563 1114V358Q1563 292 1578 260T1625 212T1714 195Q1791 195 1830 227T1885 336T1901 598Q1901 1007 1705 1207T1098 1407Q696 1407 500 1205T303 598Q303 194 503 -3T1122 -201Q1273 -201 1422 -170T1675 -86L1735 -207Q1469 -338 1124 -338ZM1049 264Q1208 264 1279 345T1350 608Q1350 787 1281 861T1049 936Q908 936 841 856T774 608Q774 432 842 348T1049 264Z"/><glyph unicode="A" horiz-adv-x="1550" d="M647 1528H901L1511 0H1255L1143 291H399L287 0H39L647 1528ZM1055 520L770 1231L485 520H1055Z"/><glyph unicode="B" horiz-adv-x="1493" d="M166 1518H846Q1122 1518 1249 1428T1376 1137Q1376 1004 1325 918T1161 795Q1294 761 1354 671T1415 420Q1415 197 1282 99T838 0H166V1518ZM864 219Q1023 219 1094 271T1165 442Q1165 558 1094 610T862 662H410V219H864ZM854 889Q994 889 1059 938T1124 1100Q1124 1202 1061 1248T854 1294H410V889H854Z"/><glyph unicode="C" horiz-adv-x="1516" d="M844 -23Q458 -23 269 168T80 760Q80 1149 276 1345T858 1542Q1042 1542 1179 1490T1421 1335L1241 1157Q1166 1228 1074 1265T856 1303Q587 1303 459 1166T330 758Q330 478 459 345T858 211Q944 211 1008 225T1126 268T1255 365L1432 197Q1315 78 1174 28T844 -23Z"/><glyph unicode="D" horiz-adv-x="1575" d="M166 1518H684Q1006 1518 1175 1446T1420 1212T1497 760Q1497 476 1416 313T1162 75T668 0H166V1518ZM680 229Q899 229 1019 278T1193 438T1247 760Q1247 981 1197 1086T1030 1236T688 1282H414V229H680Z"/><glyph unicode="E" horiz-adv-x="1358" d="M166 1518H1237V1280H414V899H1217V664H414V233H1245V0H166V1518Z"/><glyph unicode="F" horiz-adv-x="1282" d="M166 1518H1206V1280H414V872H1186V637H414V0H166V1518Z"/><glyph unicode="G" horiz-adv-x="1614" d="M842 -23Q573 -23 406 58T159 309T80 760Q80 1156 273 1349T856 1542Q1242 1542 1440 1339L1262 1157Q1178 1236 1081 1269T854 1303Q586 1303 457 1169T328 758Q328 552 381 433T548 256T852 199Q1014 199 1109 237T1248 359T1292 598V637H823V860H1538V645Q1538 392 1468 252T1245 44T842 -23Z"/><glyph unicode="H" horiz-adv-x="1630" d="M166 1518H414V907H1217V1518H1464V0H1217V662H414V0H166V1518Z"/><glyph unicode="I" horiz-adv-x="614" d="M184 1518H430V0H184V1518Z"/><glyph unicode="J" horiz-adv-x="874" d="M242 -2H134L53 0V227H213Q352 227 412 280T473 467V1518H719V457Q719 221 607 110T242 -2Z"/><glyph unicode="K" horiz-adv-x="1499" d="M166 1518H410V760L1075 1518H1360L831 919L1434 0H1151L668 734L410 442V0H166V1518Z"/><glyph unicode="L" horiz-adv-x="1233" d="M166 1518H414V227H1190V0H166V1518Z"/><glyph unicode="M" horiz-adv-x="1937" d="M166 1518H489L971 352L1452 1518H1772V0H1528V1102L1069 0H864L406 1100V0H166V1518Z"/><glyph unicode="N" horiz-adv-x="1640" d="M166 1518H434L1233 422V1518H1475V0H1247L408 1149V0H166V1518Z"/><glyph unicode="O" horiz-adv-x="1726" d="M862 -25Q80 -25 80 760Q80 1542 862 1542Q1647 1542 1647 760Q1647 -25 862 -25ZM862 207Q1131 207 1264 342T1397 756Q1397 1033 1265 1168T862 1303Q594 1303 462 1168T330 756Q330 478 461 343T862 207Z"/><glyph unicode="P" horiz-adv-x="1501" d="M166 1518H862Q1148 1518 1284 1402T1421 1034Q1421 769 1280 644T852 518H408V0H166V1518ZM862 743Q1027 743 1100 810T1174 1022Q1174 1166 1103 1229T858 1292H408V743H862Z"/><glyph unicode="Q" horiz-adv-x="1726" d="M1112 -391Q949 -391 857 -360T724 -257T682 -48L683 0Q471 29 341 120T146 370T80 760Q80 1154 273 1348T862 1542Q1259 1542 1453 1349T1647 760Q1647 508 1569 342T1335 88T919 -9L918 -38Q918 -99 935 -126T992 -165T1112 -176H1288V-389L1112 -391ZM862 207Q1133 207 1265 339T1397 756Q1397 1039 1264 1171T862 1303Q591 1303 461 1171T330 756Q330 471 460 339T862 207Z"/><glyph unicode="R" horiz-adv-x="1526" d="M166 1518H860Q1143 1518 1277 1404T1411 1044Q1411 847 1325 733T1062 574L1391 0H1124L807 553H408V0H166V1518ZM854 780Q1019 780 1090 839T1161 1034Q1161 1174 1091 1233T850 1292H408V780H854Z"/><glyph unicode="S" horiz-adv-x="1479" d="M739 -20Q331 -20 66 166L190 356Q429 197 733 197Q954 197 1044 250T1135 432Q1135 497 1102 539T1001 607T729 666Q477 704 362 755T197 891T147 1106Q147 1334 287 1438T737 1542Q1094 1542 1309 1399L1176 1196Q1095 1248 978 1280T735 1313Q551 1313 472 1268T393 1112Q393 1048 426 1009T531 944T791 889Q1012 853 1108 820T1263 737T1351 616T1380 444Q1380 205 1226 93T739 -20Z"/><glyph unicode="T" horiz-adv-x="1427" d="M590 1280H43V1518H1386V1280H840V0H590V1280Z"/><glyph unicode="U" horiz-adv-x="1632" d="M815 -27Q641 -27 515 8T311 110T194 286T156 565V1518H403V598Q403 446 445 365T577 244T817 205Q970 205 1062 244T1195 365T1237 598V1518H1479V565Q1479 340 1407 215T1186 32T815 -27Z"/><glyph unicode="V" horiz-adv-x="1540" d="M39 1518H299L772 301L1241 1518H1501L895 -10H641L39 1518Z"/><glyph unicode="W" horiz-adv-x="2218" d="M55 1518H313L655 401L1006 1518H1227L1579 401L1919 1518H2163L1688 -10H1466L1110 1116L756 -10H532L55 1518Z"/><glyph unicode="X" horiz-adv-x="1526" d="M121 1518H397L771 983L1130 1518H1407L901 797L1460 0H1180L755 609L344 0H68L623 798L121 1518Z"/><glyph unicode="Y" horiz-adv-x="1495" d="M16 1518H285L752 784L1221 1518H1477L870 562V0H625V559L16 1518Z"/><glyph unicode="Z" horiz-adv-x="1389" d="M80 197L971 1280H115V1518H1282V1303L397 227H1305V0H80V197Z"/><glyph unicode="[" horiz-adv-x="1001" d="M238 1589H809V1372H479V-127H815V-338H238V1589Z"/><glyph unicode="\" horiz-adv-x="1094" d="M0 1518H244L1094 0H850L0 1518Z"/><glyph unicode="]" horiz-adv-x="1001" d="M188 -127H520V1372H188V1589H762V-338H188V-127Z"/><glyph unicode="^" horiz-adv-x="1208" d="M477 1783H729L1044 1433H817L600 1627L387 1433H162L477 1783Z"/><glyph unicode="_" horiz-adv-x="928" d="M-76 -98H1004V-289H-76V-98Z"/><glyph unicode="`" horiz-adv-x="1208" d="M201 1612H489L788 1262H571L201 1612Z"/><glyph unicode="a" horiz-adv-x="1296" d="M487 -20Q279 -20 176 62T72 330Q72 496 140 584T365 711T819 750H876Q871 844 846 880T766 933T608 950Q438 950 276 854L152 1040Q235 1098 369 1136T633 1174Q818 1174 918 1134T1062 1003T1106 715V330Q1106 249 1123 229T1214 209V2Q1198 -2 1116 -2Q1022 -2 980 22T913 117Q862 46 757 13T487 -20ZM297 348Q297 258 350 221T528 184Q711 184 794 257T877 494V553H834Q631 553 514 537T347 480T297 348Z"/><glyph unicode="b" horiz-adv-x="1360" d="M770 -20Q603 -20 503 10T350 109L303 -10L141 8V1589H379V1047Q426 1111 523 1142T784 1174Q1031 1174 1152 1032T1274 575Q1274 264 1149 122T770 -20ZM729 193Q884 193 958 278T1032 565Q1032 769 960 856T729 944Q541 944 461 859T381 565Q381 359 458 276T729 193Z"/><glyph unicode="c" horiz-adv-x="1178" d="M653 -20Q363 -20 225 121T86 575Q86 791 146 917T334 1109T664 1174Q945 1174 1102 995L928 831Q870 892 806 917T664 942Q487 942 407 856T326 569Q326 365 407 279T664 193Q743 193 805 217T940 307L1100 156Q993 56 892 18T653 -20Z"/><glyph unicode="d" horiz-adv-x="1360" d="M580 -20Q331 -20 209 124T86 580Q86 888 211 1029T588 1171Q743 1171 839 1142T979 1047V1589H1219V10L1036 -8L1010 115Q958 46 856 13T580 -20ZM633 197Q820 197 899 284T979 580Q979 787 902 866T633 946Q475 946 402 863T328 580Q328 371 403 284T633 197Z"/><glyph unicode="e" horiz-adv-x="1241" d="M659 -23Q465 -23 339 37T149 224T86 575Q86 793 149 921T336 1112T655 1174Q776 1174 860 1148T1001 1073T1087 956T1133 802T1148 565L1147 475H317Q327 365 364 305T472 213T659 182Q766 182 849 205T1020 293L1147 127Q1043 46 927 12T659 -23ZM922 682Q913 815 887 863T805 937T649 963Q538 963 471 933T367 845T318 682H922Z"/><glyph unicode="f" horiz-adv-x="848" d="M57 1147H274V1231Q274 1438 366 1527T659 1616H740L799 1614V1407H690Q598 1407 554 1368T510 1231V1147H799V930H510V0H274V930H57V1147Z"/><glyph unicode="g" horiz-adv-x="1278" d="M616 418Q517 418 438 430L431 420Q418 399 418 373Q418 326 460 312T633 297Q864 297 982 270T1152 179T1204 -10Q1204 -201 1065 -284T610 -367Q381 -367 267 -341T101 -254T49 -84Q49 133 279 180Q207 225 207 334Q207 422 254 494Q178 547 147 617T115 786Q115 981 236 1076T616 1171H642L1157 1253V1057H977Q1054 1014 1087 950T1120 786Q1120 595 999 507T616 418ZM616 602Q758 602 821 644T885 786Q885 883 821 927T616 971Q473 971 410 928T346 786Q346 688 409 645T616 602ZM618 -182Q746 -182 820 -167T928 -118T963 -23Q963 51 895 77T618 104Q496 104 425 90T322 47T289 -43Q289 -120 361 -151T618 -182Z"/><glyph unicode="h" horiz-adv-x="1315" d="M141 1589H379V1059Q468 1174 768 1174Q919 1174 1009 1127T1139 984T1180 696V0H942V649Q942 780 918 832T838 910T688 936Q576 936 510 906T412 813T381 629V0H141V1589Z"/><glyph unicode="i" horiz-adv-x="543" d="M154 1147H389V0H154V1147ZM152 1534H391V1272H152V1534Z"/><glyph unicode="j" horiz-adv-x="543" d="M4 -152H25Q105 -150 129 -121T154 10V1147H389V12Q389 -138 360 -210T262 -313T49 -344H4V-152ZM152 1534H391V1272H152V1534Z"/><glyph unicode="k" horiz-adv-x="1174" d="M141 1589H377V596L844 1147H1108L709 672L1147 0H883L550 498L377 299V0H141V1589Z"/><glyph unicode="l" horiz-adv-x="649" d="M428 -2Q276 -2 215 71T154 315V1589H389V344Q389 264 413 238T512 211H555V2Q525 -2 428 -2Z"/><glyph unicode="m" horiz-adv-x="2068" d="M141 1133L328 1147L348 1047Q436 1174 756 1174Q900 1174 985 1142T1100 1038Q1198 1174 1534 1174Q1683 1174 1769 1129T1895 991T1935 696V0H1696V649Q1696 712 1692 764T1664 855T1592 915T1454 936Q1344 936 1280 906T1186 815T1157 629V0H920V649Q920 784 898 835T823 911T676 936Q567 936 503 907T410 818T381 629V0H141V1133Z"/><glyph unicode="n" horiz-adv-x="1315" d="M141 1133L328 1147L348 1047Q455 1174 768 1174Q919 1174 1009 1127T1139 984T1180 696V0H942V649Q942 780 918 832T838 910T688 936Q576 936 510 906T412 813T381 629V0H141V1133Z"/><glyph unicode="o" horiz-adv-x="1323" d="M662 -23Q365 -23 226 123T86 575Q86 884 227 1029T662 1174Q955 1174 1096 1029T1237 575Q1237 269 1098 123T662 -23ZM662 193Q832 193 914 281T997 569Q997 766 916 855T662 944Q487 944 407 855T326 569Q326 371 407 282T662 193Z"/><glyph unicode="p" horiz-adv-x="1360" d="M141 1133L328 1147L348 1036Q399 1107 505 1140T784 1174Q1032 1174 1153 1032T1274 575Q1274 265 1150 124T772 -18Q616 -18 523 10T381 106V-338H141V1133ZM729 197Q888 197 960 283T1032 567Q1032 772 959 858T729 944Q540 944 461 859T381 567Q381 360 459 279T729 197Z"/><glyph unicode="q" horiz-adv-x="1360" d="M979 98Q924 33 834 7T580 -20Q330 -20 208 124T86 578Q86 889 211 1031T588 1174Q753 1174 852 1145T1010 1047L1057 1157L1219 1143V-338H979V98ZM633 197Q820 197 899 284T979 578Q979 786 902 866T633 946Q475 946 402 863T328 578Q328 373 401 285T633 197Z"/><glyph unicode="r" horiz-adv-x="780" d="M141 1133L328 1147L352 1016Q391 1078 492 1116T733 1159V920Q550 918 466 840T381 590V0H141V1133Z"/><glyph unicode="s" horiz-adv-x="1122" d="M553 -20Q248 -20 41 119L164 303Q249 248 353 217T567 186Q716 186 768 217T821 328Q821 369 803 393T744 432T569 471Q356 504 272 544T146 653T104 834Q104 1008 216 1091T569 1174Q845 1174 1020 1071L907 874Q844 909 758 930T575 952Q450 952 395 925T340 834Q340 792 358 768T416 727T575 690Q682 672 770 653T921 598T1018 501T1053 340Q1053 146 938 63T553 -20Z"/><glyph unicode="t" horiz-adv-x="879" d="M57 1147H263L305 1454L492 1493V1147H784V930H492V365Q492 293 506 266T555 225T651 211H784V0L697 -2H606Q471 -2 396 30T287 130T254 330V930H57V1147Z"/><glyph unicode="u" horiz-adv-x="1300" d="M653 -20Q456 -20 345 28T184 180T135 508V1147H373V502Q373 437 377 382T408 286T492 222T653 199Q733 199 786 213T871 255T917 332T932 506V1147H1165V512Q1165 284 1117 180T959 28T653 -20Z"/><glyph unicode="v" horiz-adv-x="1184" d="M8 1147H262L594 274L928 1147H1176L721 -10H463L8 1147Z"/><glyph unicode="w" horiz-adv-x="1839" d="M23 1147H272L543 334L805 1147H1040L1303 336L1573 1147H1817L1423 -10H1182L920 786L657 -10H416L23 1147Z"/><glyph unicode="x" horiz-adv-x="1167" d="M63 1147H328L593 773L848 1147H1106L718 597L1141 0H874L574 423L285 0H25L450 599L63 1147Z"/><glyph unicode="y" horiz-adv-x="1141" d="M8 1147H262L577 303L885 1147H1135L657 -82Q603 -229 515 -286T264 -344H212L158 -342V-152H244Q336 -152 371 -131T422 -57L449 17L8 1147Z"/><glyph unicode="z" horiz-adv-x="1067" d="M55 172L680 930H88V1147H995V971L367 203H1018V0H55V172Z"/><glyph unicode="{" horiz-adv-x="1077" d="M682 -338Q489 -338 398 -272T307 -59Q307 19 362 192Q416 365 416 420Q416 479 367 500T154 522V727Q279 727 327 736T395 768T416 831Q416 885 362 1060Q307 1234 307 1311Q307 1455 397 1522T682 1589H891V1372H735Q631 1372 592 1344T553 1243Q553 1205 603 1032Q653 859 653 788Q653 664 526 627Q653 588 653 463Q653 393 603 218Q553 43 553 2Q553 -71 592 -99T735 -127H891V-338H682Z"/><glyph unicode="|" horiz-adv-x="719" d="M238 1589H479V-338H238V1589Z"/><glyph unicode="}" horiz-adv-x="1077" d="M186 -127H344Q448 -127 487 -99T526 2Q526 37 500 131Q443 333 434 382T424 463Q424 587 551 627Q424 664 424 788Q424 855 475 1032Q510 1153 518 1187T526 1243Q526 1316 487 1344T344 1372H186V1589H395Q588 1589 679 1523T770 1311Q770 1239 716 1060Q662 880 662 831Q662 772 711 751T924 729V524Q799 524 751 515T683 484T662 420Q662 369 716 192Q770 15 770 -59Q770 -206 680 -272T395 -338H186V-127Z"/><glyph unicode="~" horiz-adv-x="1208" d="M162 922Q230 1008 307 1058T459 1109Q512 1109 549 1093T616 1057T676 1021T743 1004Q811 1004 907 1119L1047 1006Q887 808 748 808Q698 808 662 824T593 859T531 895T463 912Q386 912 305 808L162 922Z"/><glyph unicode=" " horiz-adv-x="461"/><glyph unicode="¡" horiz-adv-x="778" d="M283 1067H496L520 0H258L283 1067ZM246 1518H535V1217H246V1518Z"/><glyph unicode="¢" horiz-adv-x="1176" d="M90 575Q90 767 139 889T290 1077T537 1159V1294H764V1161Q864 1150 949 1106T1094 995L924 836Q860 900 801 923T664 946Q488 946 405 857T322 569Q322 368 405 278T664 188Q741 188 800 210T938 303L1094 156Q1015 82 939 44T764 -7V-193H537V-8Q310 16 200 155T90 575Z"/><glyph unicode="£" horiz-adv-x="1315" d="M61 877H251L248 888Q211 1041 211 1133Q211 1343 331 1443T698 1544Q936 1544 1128 1464L1036 1255Q893 1319 692 1319Q565 1319 506 1269T446 1100Q446 1021 482 877H909V682H530Q561 536 566 496T571 418Q571 334 556 265Q720 197 856 197Q926 197 963 213T1016 266T1032 389V444H1239V381Q1239 165 1156 75T862 -16Q760 -16 653 14T457 95Q340 0 72 0V205Q172 205 229 217T314 254T349 318T356 412Q356 491 318 630L304 682H61V877Z"/><glyph unicode="¤" horiz-adv-x="1152" d="M1056 392L940 284L740 500Q668 452 572 452Q480 452 408 500L208 284L92 392L300 608Q272 648 262 686T252 780Q252 883 300 952L92 1168L208 1276L408 1060Q480 1108 572 1108Q668 1108 740 1060L944 1276L1060 1156L852 952Q880 912 890 872T900 780Q900 684 848 608L1056 392ZM748 780Q748 860 698 910T572 960Q496 960 448 910T400 780Q400 700 450 652T572 604Q652 604 700 652T748 780Z"/><glyph unicode="¥" horiz-adv-x="1339" d="M143 338H551V467H143V666H550L25 1518H279L670 864L1061 1518H1313L787 666H1194V467H786V338H1194V139H786V0H551V139H143V338Z"/><glyph unicode="¦" horiz-adv-x="719" d="M238 465H479V-338H238V465ZM238 1589H479V786H238V1589Z"/><glyph unicode="§" horiz-adv-x="1178" d="M453 1143Q453 1296 491 1373T614 1490T842 1530Q941 1530 981 1526V1319H870Q803 1319 764 1303T708 1255T690 1145V1075Q1059 1043 1059 756Q1059 617 976 541T713 444V373Q713 217 675 141T551 26T324 -14Q224 -14 184 -10V186H295Q362 186 401 203T456 253T473 362V443Q288 461 204 538T119 756Q119 895 200 972T453 1071V1143ZM588 600Q731 600 797 635T864 750Q864 830 798 864T588 899Q444 899 379 865T313 750Q313 671 378 636T588 600Z"/><glyph unicode="¨" horiz-adv-x="1208" d="M272 1516H489V1268H272V1516ZM721 1516H936V1268H721V1516Z"/><glyph unicode="©" horiz-adv-x="1679" d="M854 258Q602 258 478 389T354 768Q354 1015 483 1146T862 1278Q1092 1278 1229 1145L1118 1028Q1016 1122 860 1122Q693 1122 606 1033T518 768Q518 412 862 412Q1025 412 1128 510L1235 401Q1153 322 1061 290T854 258ZM838 -25Q601 -25 430 70T170 343T80 760Q80 999 170 1176T430 1449T838 1544Q1075 1544 1247 1449T1509 1177T1599 760Q1599 520 1509 342T1247 70T838 -25ZM838 74Q1154 74 1326 253T1499 760Q1499 1087 1327 1266T838 1446Q522 1446 350 1268T178 760Q178 429 350 252T838 74Z"/><glyph unicode="ª" horiz-adv-x="1235" d="M453 573Q125 573 125 858Q125 1044 261 1122T735 1200H775Q773 1272 752 1302T687 1345T565 1358Q424 1358 301 1282L197 1434Q260 1479 368 1509T586 1540Q736 1540 816 1508T932 1403T967 1169V862Q967 796 981 780T1057 764V590Q1035 586 979 586Q883 586 846 614T797 715Q752 634 675 604T453 573ZM213 449H969V268H213V449ZM315 874Q315 809 357 775T500 741Q639 741 707 800T776 991V1044H748Q575 1044 485 1031T355 982T315 874Z"/><glyph unicode="«" horiz-adv-x="1479" d="M201 571L510 1147H719L426 571L719 0H510L201 571ZM705 571L1014 1147H1225L934 571L1225 0H1014L705 571Z"/><glyph unicode="¬" horiz-adv-x="1536" d="M1116 352V728H212V920H1296V352H1116Z"/><glyph unicode="­" horiz-adv-x="897" d="M92 766H803V541H92V766Z"/><glyph unicode="®" horiz-adv-x="1679" d="M838 -25Q601 -25 430 70T170 343T80 760Q80 999 170 1176T430 1449T838 1544Q1075 1544 1247 1449T1509 1177T1599 760Q1599 520 1509 342T1247 70T838 -25ZM838 74Q1154 74 1326 253T1499 760Q1499 1087 1327 1266T838 1446Q522 1446 350 1268T178 760Q178 429 350 252T838 74ZM469 1239H909Q1033 1239 1109 1208T1220 1115T1255 942Q1255 812 1204 744T1035 648L1251 272H1087L881 637H621V272H469V1239ZM905 774Q1017 774 1059 811T1102 936Q1102 1027 1058 1063T903 1100H621V774H905Z"/><glyph unicode="¯" horiz-adv-x="1208" d="M205 1448H1004V1245H205V1448Z"/><glyph unicode="°" horiz-adv-x="1165" d="M582 557Q358 557 236 687T113 1051Q113 1284 236 1413T582 1542Q806 1542 929 1412T1053 1051Q1053 818 929 688T582 557ZM582 743Q717 743 787 818T858 1044Q858 1195 787 1269T582 1343Q448 1343 378 1269T307 1044Q307 743 582 743Z"/><glyph unicode="±" horiz-adv-x="1452" d="M205 248H606V608H205V836H606V1235H844V836H1247V608H844V248H1247V23H205V248Z"/><glyph unicode="²" horiz-adv-x="977" d="M129 688L434 971Q565 1089 597 1136T629 1251Q629 1316 587 1345T449 1374Q376 1374 310 1357T201 1317L117 1458Q189 1496 273 1514T471 1532Q650 1532 730 1468T811 1272Q811 1204 793 1153T732 1049T578 891L379 707H821V555H129V688Z"/><glyph unicode="³" horiz-adv-x="1010" d="M489 543Q373 543 282 565T98 643L190 778Q260 738 326 719T473 700Q589 700 632 734T676 856Q676 942 627 971T455 1001H301V1149H451Q570 1149 608 1174T647 1264Q647 1326 608 1349T469 1372Q315 1372 205 1307L117 1446Q183 1487 281 1510T494 1534Q670 1534 753 1479T836 1303Q836 1215 806 1164T707 1087Q787 1066 824 1006T862 836Q862 684 775 614T489 543Z"/><glyph unicode="´" horiz-adv-x="1208" d="M719 1612H1008L637 1262H420L719 1612Z"/><glyph unicode="µ" horiz-adv-x="1309" d="M141 1147H381V502Q381 437 385 382T416 286T499 222T662 199Q766 199 822 222T904 286T934 384T938 506V1147H1174V512Q1174 287 1127 183T973 29T676 -20Q449 -20 381 61V-338H141V1147Z"/><glyph unicode="¶" horiz-adv-x="1329" d="M928 537H719V0H494V548Q292 576 196 689T100 1034Q100 1216 156 1317T335 1468T659 1518H1153V0H928V537ZM928 737V1298H655Q475 1298 408 1237T340 1022Q340 867 410 802T651 737H928Z"/><glyph unicode="·" horiz-adv-x="545" d="M127 874H416V561H127V874Z"/><glyph unicode="¸" horiz-adv-x="1208" d="M612 -487Q467 -487 356 -424L420 -303Q512 -350 604 -350Q679 -350 713 -329T748 -256Q748 -202 710 -188T612 -174L563 -176L510 -139L541 14H680L662 -88H681Q775 -88 818 -107T885 -166T909 -272Q909 -385 837 -436T612 -487Z"/><glyph unicode="¹" horiz-adv-x="719" d="M303 1354H125V1518H492V555H303V1354Z"/><glyph unicode="º" horiz-adv-x="1231" d="M616 575Q381 575 266 695T150 1061Q150 1296 262 1419T616 1542Q1081 1542 1081 1061Q1081 575 616 575ZM616 756Q883 756 883 1055Q883 1352 616 1352Q350 1352 350 1055Q350 912 412 834T616 756ZM209 446H1024V264H209V446Z"/><glyph unicode="»" horiz-adv-x="1479" d="M547 573L256 1147H465L774 573L465 0H256L547 573ZM1051 573L760 1147H971L1280 573L971 0H760L1051 573Z"/><glyph unicode="¼" horiz-adv-x="1960" d="M1554 199H1077V342L1505 967H1712L1290 356H1556L1591 584H1735V356H1888V199H1735V0H1554V199ZM274 1346H96V1518H469V551H274V1346ZM1245 1518H1456L610 0H397L1245 1518Z"/><glyph unicode="½" horiz-adv-x="2083" d="M1251 141L1554 420Q1683 539 1707 568T1741 624T1751 692Q1751 755 1710 783T1573 811Q1435 811 1323 754L1239 903Q1313 941 1397 959T1595 977Q1772 977 1852 913T1933 713Q1933 655 1921 611T1880 525T1801 431T1511 160H1935V0H1251V141ZM274 1346H96V1518H469V551H274V1346ZM1245 1518H1456L610 0H397L1245 1518Z"/><glyph unicode="¾" horiz-adv-x="2195" d="M469 545Q350 545 263 567T76 645L176 791Q248 749 311 730T451 711Q569 711 611 742T653 860Q653 941 607 970T432 999H281V1159H428Q546 1159 586 1181T627 1268Q627 1327 590 1349T446 1372Q300 1372 188 1307L96 1452Q164 1496 264 1519T473 1542Q651 1542 732 1486T813 1309Q813 1143 678 1094Q842 1048 842 840Q842 687 754 616T469 545ZM1788 199H1311V342L1739 967H1946L1524 356H1792L1827 584H1970V356H2122V199H1970V0H1788V199ZM1481 1518H1692L844 0H633L1481 1518Z"/><glyph unicode="¿" horiz-adv-x="1399" d="M678 -25Q396 -25 272 65T147 360Q147 454 174 521T256 641T430 752Q513 792 552 822T609 889T627 997L623 1094H856Q866 1017 866 958Q866 834 814 761T618 616Q495 554 459 526T408 466T393 381Q393 305 422 270T515 218T694 201Q929 201 1135 303L1235 94Q1137 41 988 8T678 -25ZM596 1518H885V1245H596V1518Z"/><glyph unicode="À" horiz-adv-x="1550" d="M647 1528H901L1511 0H1255L1143 291H399L287 0H39L647 1528ZM1055 520L770 1231L485 520H1055ZM369 1956H657L956 1606H739L369 1956Z"/><glyph unicode="Á" horiz-adv-x="1550" d="M647 1528H901L1511 0H1255L1143 291H399L287 0H39L647 1528ZM1055 520L770 1231L485 520H1055ZM887 1956H1176L805 1606H588L887 1956Z"/><glyph unicode="Â" horiz-adv-x="1550" d="M647 1528H901L1511 0H1255L1143 291H399L287 0H39L647 1528ZM1055 520L770 1231L485 520H1055ZM645 1956H897L1212 1606H985L768 1800L555 1606H330L645 1956Z"/><glyph unicode="Ã" horiz-adv-x="1550" d="M647 1528H901L1511 0H1255L1143 291H399L287 0H39L647 1528ZM1055 520L770 1231L485 520H1055ZM330 1720Q398 1806 475 1856T627 1907Q680 1907 717 1891T784 1855T844 1819T911 1802Q979 1802 1075 1917L1215 1804Q1055 1606 916 1606Q866 1606 830 1622T761 1657T699 1693T631 1710Q554 1710 473 1606L330 1720Z"/><glyph unicode="Ä" horiz-adv-x="1550" d="M647 1528H901L1511 0H1255L1143 291H399L287 0H39L647 1528ZM1055 520L770 1231L485 520H1055ZM440 1860H657V1612H440V1860ZM889 1860H1104V1612H889V1860Z"/><glyph unicode="Å" horiz-adv-x="1550" d="M608 1430Q506 1500 506 1661Q506 1793 576 1865T774 1937Q901 1937 971 1862T1042 1661Q1042 1505 938 1432L1511 0H1260L1143 291H397L287 0H39L608 1430ZM1055 520L770 1231L485 520H1055ZM774 1511Q842 1511 878 1549T915 1661Q915 1736 878 1774T774 1812Q708 1812 670 1775T631 1661Q631 1588 668 1550T774 1511Z"/><glyph unicode="Æ" horiz-adv-x="2271" d="M977 1518H2150V1280H1327V895H2130V666H1327V227H2159V0H1090V297H459L266 0H23L977 1518ZM1090 510V1298L584 510H1090Z"/><glyph unicode="Ç" horiz-adv-x="1516" d="M762 -487Q617 -487 506 -424L570 -303Q662 -350 754 -350Q829 -350 863 -329T898 -256Q898 -202 860 -188T762 -174L713 -176L660 -139L691 14H830L812 -88H831Q925 -88 968 -107T1035 -166T1059 -272Q1059 -385 987 -436T762 -487ZM844 -23Q458 -23 269 168T80 760Q80 1149 276 1345T858 1542Q1042 1542 1179 1490T1421 1335L1241 1157Q1166 1228 1074 1265T856 1303Q587 1303 459 1166T330 758Q330 478 459 345T858 211Q944 211 1008 225T1126 268T1255 365L1432 197Q1315 78 1174 28T844 -23Z"/><glyph unicode="È" horiz-adv-x="1358" d="M166 1518H1237V1280H414V899H1217V664H414V233H1245V0H166V1518ZM273 1956H561L860 1606H643L273 1956Z"/><glyph unicode="É" horiz-adv-x="1358" d="M791 1956H1080L709 1606H492L791 1956ZM166 1518H1237V1280H414V899H1217V664H414V233H1245V0H166V1518Z"/><glyph unicode="Ê" horiz-adv-x="1358" d="M549 1956H801L1116 1606H889L672 1800L459 1606H234L549 1956ZM166 1518H1237V1280H414V899H1217V664H414V233H1245V0H166V1518Z"/><glyph unicode="Ë" horiz-adv-x="1358" d="M344 1860H561V1612H344V1860ZM793 1860H1008V1612H793V1860ZM166 1518H1237V1280H414V899H1217V664H414V233H1245V0H166V1518Z"/><glyph unicode="Ì" horiz-adv-x="614" d="M-141 1952H158L430 1604H205L-141 1952ZM184 1518H430V0H184V1518Z"/><glyph unicode="Í" horiz-adv-x="614" d="M455 1952H754L408 1604H184L455 1952ZM184 1518H430V0H184V1518Z"/><glyph unicode="Î" horiz-adv-x="614" d="M180 1952H430L707 1604H477L303 1802L129 1604H-94L180 1952ZM184 1518H430V0H184V1518Z"/><glyph unicode="Ï" horiz-adv-x="614" d="M184 1518H430V0H184V1518ZM-22 1860H195V1612H-22V1860ZM427 1860H642V1612H427V1860Z"/><glyph unicode="Ð" horiz-adv-x="1575" d="M0 879H166V1518H684Q1006 1518 1175 1446T1420 1212T1497 760Q1497 479 1415 315T1159 76T668 0H166V672H0V879ZM680 229Q899 229 1019 278T1193 438T1247 760Q1247 981 1197 1086T1030 1236T688 1282H414V879H727V672H414V229H680Z"/><glyph unicode="Ñ" horiz-adv-x="1640" d="M166 1518H434L1233 422V1518H1475V0H1247L408 1149V0H166V1518ZM375 1720Q443 1806 520 1856T672 1907Q725 1907 762 1891T829 1855T889 1819T956 1802Q1024 1802 1120 1917L1260 1804Q1100 1606 961 1606Q911 1606 875 1622T806 1657T744 1693T676 1710Q599 1710 518 1606L375 1720Z"/><glyph unicode="Ò" horiz-adv-x="1726" d="M862 -25Q80 -25 80 760Q80 1542 862 1542Q1647 1542 1647 760Q1647 -25 862 -25ZM862 207Q1131 207 1264 342T1397 756Q1397 1033 1265 1168T862 1303Q594 1303 462 1168T330 756Q330 478 461 343T862 207ZM459 1956H747L1046 1606H829L459 1956Z"/><glyph unicode="Ó" horiz-adv-x="1726" d="M977 1956H1266L895 1606H678L977 1956ZM862 -25Q80 -25 80 760Q80 1542 862 1542Q1647 1542 1647 760Q1647 -25 862 -25ZM862 207Q1131 207 1264 342T1397 756Q1397 1033 1265 1168T862 1303Q594 1303 462 1168T330 756Q330 478 461 343T862 207Z"/><glyph unicode="Ô" horiz-adv-x="1726" d="M735 1956H987L1302 1606H1075L858 1800L645 1606H420L735 1956ZM862 -25Q80 -25 80 760Q80 1542 862 1542Q1647 1542 1647 760Q1647 -25 862 -25ZM862 207Q1131 207 1264 342T1397 756Q1397 1033 1265 1168T862 1303Q594 1303 462 1168T330 756Q330 478 461 343T862 207Z"/><glyph unicode="Õ" horiz-adv-x="1726" d="M862 -25Q80 -25 80 760Q80 1542 862 1542Q1647 1542 1647 760Q1647 -25 862 -25ZM862 207Q1131 207 1264 342T1397 756Q1397 1033 1265 1168T862 1303Q594 1303 462 1168T330 756Q330 478 461 343T862 207ZM420 1720Q488 1806 565 1856T717 1907Q770 1907 807 1891T874 1855T934 1819T1001 1802Q1069 1802 1165 1917L1305 1804Q1145 1606 1006 1606Q956 1606 920 1622T851 1657T789 1693T721 1710Q644 1710 563 1606L420 1720Z"/><glyph unicode="Ö" horiz-adv-x="1726" d="M530 1860H747V1612H530V1860ZM979 1860H1194V1612H979V1860ZM862 -25Q80 -25 80 760Q80 1542 862 1542Q1647 1542 1647 760Q1647 -25 862 -25ZM862 207Q1131 207 1264 342T1397 756Q1397 1033 1265 1168T862 1303Q594 1303 462 1168T330 756Q330 478 461 343T862 207Z"/><glyph unicode="×" horiz-adv-x="1452" d="M264 406L580 721L264 1036L412 1188L727 872L1040 1188L1188 1036L872 721L1188 408L1040 256L727 571L410 256L264 406Z"/><glyph unicode="Ø" horiz-adv-x="1726" d="M862 -25Q684 -25 544 15L487 -84H252L357 100Q80 290 80 760Q80 1154 273 1348T862 1542Q1031 1542 1166 1506L1223 1604H1456L1354 1426Q1647 1245 1647 760Q1647 364 1454 170T862 -25ZM862 199Q1138 199 1271 332T1405 756Q1405 1087 1225 1216L652 223Q742 199 862 199ZM862 1311Q586 1311 454 1176T322 756Q322 434 486 304L1056 1291Q971 1311 862 1311Z"/><glyph unicode="Ù" horiz-adv-x="1632" d="M815 -27Q641 -27 515 8T311 110T194 286T156 565V1518H403V598Q403 446 445 365T577 244T817 205Q970 205 1062 244T1195 365T1237 598V1518H1479V565Q1479 340 1407 215T1186 32T815 -27ZM410 1956H698L997 1606H780L410 1956Z"/><glyph unicode="Ú" horiz-adv-x="1632" d="M928 1956H1217L846 1606H629L928 1956ZM815 -27Q641 -27 515 8T311 110T194 286T156 565V1518H403V598Q403 446 445 365T577 244T817 205Q970 205 1062 244T1195 365T1237 598V1518H1479V565Q1479 340 1407 215T1186 32T815 -27Z"/><glyph unicode="Û" horiz-adv-x="1632" d="M686 1956H938L1253 1606H1026L809 1800L596 1606H371L686 1956ZM815 -27Q641 -27 515 8T311 110T194 286T156 565V1518H403V598Q403 446 445 365T577 244T817 205Q970 205 1062 244T1195 365T1237 598V1518H1479V565Q1479 340 1407 215T1186 32T815 -27Z"/><glyph unicode="Ü" horiz-adv-x="1632" d="M481 1860H698V1612H481V1860ZM930 1860H1145V1612H930V1860ZM815 -27Q641 -27 515 8T311 110T194 286T156 565V1518H403V598Q403 446 445 365T577 244T817 205Q970 205 1062 244T1195 365T1237 598V1518H1479V565Q1479 340 1407 215T1186 32T815 -27Z"/><glyph unicode="Ý" horiz-adv-x="1495" d="M16 1518H285L752 784L1221 1518H1477L870 562V0H625V559L16 1518ZM860 1956H1149L778 1606H561L860 1956Z"/><glyph unicode="Þ" horiz-adv-x="1501" d="M166 1518H408V1294H862Q1063 1294 1185 1244T1364 1090T1421 807Q1421 617 1362 509T1178 347T852 293H408V0H166V1518ZM862 520Q1031 520 1102 583T1174 799Q1174 904 1144 961T1047 1044T858 1069H408V520H862Z"/><glyph unicode="ß" horiz-adv-x="1374" d="M141 1083Q141 1602 684 1602Q1186 1602 1186 1196Q1186 1048 1140 963T987 836Q1160 803 1232 710T1305 444Q1305 267 1247 176T1057 42T696 0H569V215H690Q830 215 912 239T1031 313T1069 461Q1069 557 1029 605T899 676T645 698V897Q805 897 877 951T950 1133Q950 1252 886 1305T680 1358Q527 1358 452 1289T377 1075V0H141V1083Z"/><glyph unicode="à" horiz-adv-x="1296" d="M487 -20Q279 -20 176 62T72 330Q72 496 140 584T365 711T819 750H876Q871 844 846 880T766 933T608 950Q438 950 276 854L152 1040Q235 1098 369 1136T633 1174Q818 1174 918 1134T1062 1003T1106 715V330Q1106 249 1123 229T1214 209V2Q1198 -2 1116 -2Q1022 -2 980 22T913 117Q862 46 757 13T487 -20ZM297 348Q297 258 350 221T528 184Q711 184 794 257T877 494V553H834Q631 553 514 537T347 480T297 348ZM246 1612H534L833 1262H616L246 1612Z"/><glyph unicode="á" horiz-adv-x="1296" d="M487 -20Q279 -20 176 62T72 330Q72 496 140 584T365 711T819 750H876Q871 844 846 880T766 933T608 950Q438 950 276 854L152 1040Q235 1098 369 1136T633 1174Q818 1174 918 1134T1062 1003T1106 715V330Q1106 249 1123 229T1214 209V2Q1198 -2 1116 -2Q1022 -2 980 22T913 117Q862 46 757 13T487 -20ZM297 348Q297 258 350 221T528 184Q711 184 794 257T877 494V553H834Q631 553 514 537T347 480T297 348ZM764 1612H1053L682 1262H465L764 1612Z"/><glyph unicode="â" horiz-adv-x="1296" d="M487 -20Q279 -20 176 62T72 330Q72 496 140 584T365 711T819 750H876Q871 844 846 880T766 933T608 950Q438 950 276 854L152 1040Q235 1098 369 1136T633 1174Q818 1174 918 1134T1062 1003T1106 715V330Q1106 249 1123 229T1214 209V2Q1198 -2 1116 -2Q1022 -2 980 22T913 117Q862 46 757 13T487 -20ZM297 348Q297 258 350 221T528 184Q711 184 794 257T877 494V553H834Q631 553 514 537T347 480T297 348ZM522 1612H774L1089 1262H862L645 1456L432 1262H207L522 1612Z"/><glyph unicode="ã" horiz-adv-x="1296" d="M487 -20Q279 -20 176 62T72 330Q72 496 140 584T365 711T819 750H876Q871 844 846 880T766 933T608 950Q438 950 276 854L152 1040Q235 1098 369 1136T633 1174Q818 1174 918 1134T1062 1003T1106 715V330Q1106 249 1123 229T1214 209V2Q1198 -2 1116 -2Q1022 -2 980 22T913 117Q862 46 757 13T487 -20ZM297 348Q297 258 350 221T528 184Q711 184 794 257T877 494V553H834Q631 553 514 537T347 480T297 348ZM207 1376Q275 1462 352 1512T504 1563Q557 1563 594 1547T661 1511T721 1475T788 1458Q856 1458 952 1573L1092 1460Q932 1262 793 1262Q743 1262 707 1278T638 1313T576 1349T508 1366Q431 1366 350 1262L207 1376Z"/><glyph unicode="ä" horiz-adv-x="1296" d="M487 -20Q279 -20 176 62T72 330Q72 496 140 584T365 711T819 750H876Q871 844 846 880T766 933T608 950Q438 950 276 854L152 1040Q235 1098 369 1136T633 1174Q818 1174 918 1134T1062 1003T1106 715V330Q1106 249 1123 229T1214 209V2Q1198 -2 1116 -2Q1022 -2 980 22T913 117Q862 46 757 13T487 -20ZM297 348Q297 258 350 221T528 184Q711 184 794 257T877 494V553H834Q631 553 514 537T347 480T297 348ZM317 1516H534V1268H317V1516ZM766 1516H981V1268H766V1516Z"/><glyph unicode="å" horiz-adv-x="1296" d="M487 -20Q279 -20 176 62T72 330Q72 496 140 584T365 711T819 750H876Q871 844 846 880T766 933T608 950Q438 950 276 854L152 1040Q235 1098 369 1136T633 1174Q818 1174 918 1134T1062 1003T1106 715V330Q1106 249 1123 229T1214 209V2Q1198 -2 1116 -2Q1022 -2 980 22T913 117Q862 46 757 13T487 -20ZM297 348Q297 258 350 221T528 184Q711 184 794 257T877 494V553H834Q631 553 514 537T347 480T297 348ZM649 1233Q521 1233 450 1305T379 1509Q379 1642 449 1716T649 1790Q777 1790 847 1714T917 1509Q917 1382 846 1308T649 1233ZM649 1362Q718 1362 754 1401T790 1509Q790 1579 754 1619T649 1659Q580 1659 543 1621T506 1509Q506 1437 543 1400T649 1362Z"/><glyph unicode="æ" horiz-adv-x="2021" d="M1440 -23Q1266 -23 1150 24T971 172Q908 67 807 24T492 -20Q275 -20 174 62T72 330Q72 489 143 579T371 709T819 750H876Q871 844 846 880T766 933T608 950Q524 950 436 926T270 856L152 1040Q235 1098 369 1136T633 1174Q783 1174 877 1140T1015 1034Q1146 1174 1436 1174Q1690 1174 1808 1054T1929 653L1927 475H1098Q1108 365 1145 305T1253 213T1440 182Q1545 182 1628 205T1800 293L1929 127Q1823 45 1710 11T1440 -23ZM297 348Q297 258 351 221T530 184Q713 184 795 257T877 494V553H834Q603 553 495 536T342 477T297 348ZM1702 680Q1696 808 1669 860T1586 937T1430 963Q1319 963 1252 933T1148 845T1099 680H1702Z"/><glyph unicode="ç" horiz-adv-x="1178" d="M859 -487Q714 -487 603 -424L667 -303Q759 -350 851 -350Q926 -350 960 -329T995 -256Q995 -202 957 -188T859 -174L810 -176L757 -139L788 14H927L909 -88H928Q1022 -88 1065 -107T1132 -166T1156 -272Q1156 -385 1084 -436T859 -487ZM653 -20Q363 -20 225 121T86 575Q86 791 146 917T334 1109T664 1174Q945 1174 1102 995L928 831Q870 892 806 917T664 942Q487 942 407 856T326 569Q326 365 407 279T664 193Q743 193 805 217T940 307L1100 156Q993 56 892 18T653 -20Z"/><glyph unicode="è" horiz-adv-x="1241" d="M659 -23Q465 -23 339 37T149 224T86 575Q86 793 149 921T336 1112T655 1174Q776 1174 860 1148T1001 1073T1087 956T1133 802T1148 565L1147 475H317Q327 365 364 305T472 213T659 182Q766 182 849 205T1020 293L1147 127Q1043 46 927 12T659 -23ZM922 682Q913 815 887 863T805 937T649 963Q538 963 471 933T367 845T318 682H922ZM215 1612H503L802 1262H585L215 1612Z"/><glyph unicode="é" horiz-adv-x="1241" d="M733 1612H1022L651 1262H434L733 1612ZM659 -23Q465 -23 339 37T149 224T86 575Q86 793 149 921T336 1112T655 1174Q776 1174 860 1148T1001 1073T1087 956T1133 802T1148 565L1147 475H317Q327 365 364 305T472 213T659 182Q766 182 849 205T1020 293L1147 127Q1043 46 927 12T659 -23ZM922 682Q913 815 887 863T805 937T649 963Q538 963 471 933T367 845T318 682H922Z"/><glyph unicode="ê" horiz-adv-x="1241" d="M491 1612H743L1058 1262H831L614 1456L401 1262H176L491 1612ZM659 -23Q465 -23 339 37T149 224T86 575Q86 793 149 921T336 1112T655 1174Q776 1174 860 1148T1001 1073T1087 956T1133 802T1148 565L1147 475H317Q327 365 364 305T472 213T659 182Q766 182 849 205T1020 293L1147 127Q1043 46 927 12T659 -23ZM922 682Q913 815 887 863T805 937T649 963Q538 963 471 933T367 845T318 682H922Z"/><glyph unicode="ë" horiz-adv-x="1241" d="M286 1516H503V1268H286V1516ZM735 1516H950V1268H735V1516ZM659 -23Q465 -23 339 37T149 224T86 575Q86 793 149 921T336 1112T655 1174Q776 1174 860 1148T1001 1073T1087 956T1133 802T1148 565L1147 475H317Q327 365 364 305T472 213T659 182Q766 182 849 205T1020 293L1147 127Q1043 46 927 12T659 -23ZM922 682Q913 815 887 863T805 937T649 963Q538 963 471 933T367 845T318 682H922Z"/><glyph unicode="ì" horiz-adv-x="543" d="M-113 1606H176L389 1260H170L-113 1606ZM154 1147H389V0H154V1147Z"/><glyph unicode="í" horiz-adv-x="543" d="M367 1606H657L375 1260H158L367 1606ZM154 1147H389V0H154V1147Z"/><glyph unicode="î" horiz-adv-x="543" d="M152 1606H389L645 1260H422L268 1458L113 1260H-102L152 1606ZM154 1147H389V0H154V1147Z"/><glyph unicode="ï" horiz-adv-x="543" d="M-23 1522H172V1278H-23V1522ZM373 1522H567V1278H373V1522ZM154 1147H389V0H154V1147Z"/><glyph unicode="ð" horiz-adv-x="1325" d="M592 1364L734 1397Q677 1465 606 1536L829 1622Q913 1549 985 1456L1264 1522V1354L1079 1310Q1237 1008 1237 608Q1237 280 1099 129T659 -23Q374 -23 230 117T86 545Q86 830 212 970T594 1110Q732 1110 816 1086T950 1008Q921 1126 840 1254L592 1196V1364ZM659 193Q832 193 914 278T997 551Q997 737 915 820T659 903Q487 903 407 818T326 551Q326 368 407 281T659 193Z"/><glyph unicode="ñ" horiz-adv-x="1315" d="M141 1133L328 1147L348 1047Q455 1174 768 1174Q919 1174 1009 1127T1139 984T1180 696V0H942V649Q942 780 918 832T838 910T688 936Q576 936 510 906T412 813T381 629V0H141V1133ZM213 1376Q281 1462 358 1512T510 1563Q563 1563 600 1547T667 1511T727 1475T794 1458Q862 1458 958 1573L1098 1460Q938 1262 799 1262Q749 1262 713 1278T644 1313T582 1349T514 1366Q437 1366 356 1262L213 1376Z"/><glyph unicode="ò" horiz-adv-x="1323" d="M662 -23Q365 -23 226 123T86 575Q86 884 227 1029T662 1174Q955 1174 1096 1029T1237 575Q1237 269 1098 123T662 -23ZM662 193Q832 193 914 281T997 569Q997 766 916 855T662 944Q487 944 407 855T326 569Q326 371 407 282T662 193ZM256 1612H544L843 1262H626L256 1612Z"/><glyph unicode="ó" horiz-adv-x="1323" d="M774 1612H1063L692 1262H475L774 1612ZM662 -23Q365 -23 226 123T86 575Q86 884 227 1029T662 1174Q955 1174 1096 1029T1237 575Q1237 269 1098 123T662 -23ZM662 193Q832 193 914 281T997 569Q997 766 916 855T662 944Q487 944 407 855T326 569Q326 371 407 282T662 193Z"/><glyph unicode="ô" horiz-adv-x="1323" d="M532 1612H784L1099 1262H872L655 1456L442 1262H217L532 1612ZM662 -23Q365 -23 226 123T86 575Q86 884 227 1029T662 1174Q955 1174 1096 1029T1237 575Q1237 269 1098 123T662 -23ZM662 193Q832 193 914 281T997 569Q997 766 916 855T662 944Q487 944 407 855T326 569Q326 371 407 282T662 193Z"/><glyph unicode="õ" horiz-adv-x="1323" d="M662 -23Q365 -23 226 123T86 575Q86 884 227 1029T662 1174Q955 1174 1096 1029T1237 575Q1237 269 1098 123T662 -23ZM662 193Q832 193 914 281T997 569Q997 766 916 855T662 944Q487 944 407 855T326 569Q326 371 407 282T662 193ZM217 1376Q285 1462 362 1512T514 1563Q567 1563 604 1547T671 1511T731 1475T798 1458Q866 1458 962 1573L1102 1460Q942 1262 803 1262Q753 1262 717 1278T648 1313T586 1349T518 1366Q441 1366 360 1262L217 1376Z"/><glyph unicode="ö" horiz-adv-x="1323" d="M327 1516H544V1268H327V1516ZM776 1516H991V1268H776V1516ZM662 -23Q365 -23 226 123T86 575Q86 884 227 1029T662 1174Q955 1174 1096 1029T1237 575Q1237 269 1098 123T662 -23ZM662 193Q832 193 914 281T997 569Q997 766 916 855T662 944Q487 944 407 855T326 569Q326 371 407 282T662 193Z"/><glyph unicode="÷" horiz-adv-x="1452" d="M598 426H854V188H598V426ZM205 836H1247V608H205V836ZM598 1257H854V1018H598V1257Z"/><glyph unicode="ø" horiz-adv-x="1323" d="M662 -23Q524 -23 424 5L367 -86H152L258 88Q165 169 126 288T86 575Q86 889 225 1031T662 1174Q799 1174 899 1145L954 1237H1171L1065 1060Q1237 925 1237 575Q1237 264 1100 121T662 -23ZM662 186Q837 186 919 276T1001 569Q1001 761 928 849L926 852L532 200Q588 186 662 186ZM662 950Q487 950 405 862T322 569Q322 380 392 290L783 937Q730 950 662 950Z"/><glyph unicode="ù" horiz-adv-x="1300" d="M653 -20Q456 -20 345 28T184 180T135 508V1147H373V502Q373 437 377 382T408 286T492 222T653 199Q733 199 786 213T871 255T917 332T932 506V1147H1165V512Q1165 284 1117 180T959 28T653 -20ZM246 1612H534L833 1262H616L246 1612Z"/><glyph unicode="ú" horiz-adv-x="1300" d="M764 1612H1053L682 1262H465L764 1612ZM653 -20Q456 -20 345 28T184 180T135 508V1147H373V502Q373 437 377 382T408 286T492 222T653 199Q733 199 786 213T871 255T917 332T932 506V1147H1165V512Q1165 284 1117 180T959 28T653 -20Z"/><glyph unicode="û" horiz-adv-x="1300" d="M522 1612H774L1089 1262H862L645 1456L432 1262H207L522 1612ZM653 -20Q456 -20 345 28T184 180T135 508V1147H373V502Q373 437 377 382T408 286T492 222T653 199Q733 199 786 213T871 255T917 332T932 506V1147H1165V512Q1165 284 1117 180T959 28T653 -20Z"/><glyph unicode="ü" horiz-adv-x="1300" d="M317 1516H534V1268H317V1516ZM766 1516H981V1268H766V1516ZM653 -20Q456 -20 345 28T184 180T135 508V1147H373V502Q373 437 377 382T408 286T492 222T653 199Q733 199 786 213T871 255T917 332T932 506V1147H1165V512Q1165 284 1117 180T959 28T653 -20Z"/><glyph unicode="ý" horiz-adv-x="1141" d="M8 1147H262L577 303L885 1147H1135L657 -82Q603 -229 515 -286T264 -344H212L158 -342V-152H244Q336 -152 371 -131T422 -57L449 17L8 1147ZM945 1612H1234L863 1262H646L945 1612Z"/><glyph unicode="þ" horiz-adv-x="1360" d="M141 1589H379V1047Q426 1111 523 1142T784 1174Q1032 1174 1153 1032T1274 575Q1274 265 1150 123T772 -20Q616 -20 523 8T381 104V-338H141V1589ZM729 197Q888 197 960 283T1032 567Q1032 772 959 858T729 944Q540 944 461 859T381 567Q381 360 459 279T729 197Z"/><glyph unicode="ÿ" horiz-adv-x="1141" d="M8 1147H262L577 303L885 1147H1135L657 -82Q603 -229 515 -286T264 -344H212L158 -342V-152H244Q336 -152 371 -131T422 -57L449 17L8 1147ZM498 1516H715V1268H498V1516ZM947 1516H1162V1268H947V1516Z"/><glyph unicode="Ă" horiz-adv-x="1550" d="M647 1528H901L1511 0H1255L1143 291H399L287 0H39L647 1528ZM1055 520L770 1231L485 520H1055ZM772 1579Q649 1579 567 1616T437 1726T361 1937L535 1972Q558 1864 611 1819T772 1774Q879 1774 932 1818T1008 1972L1186 1939Q1155 1798 1106 1726T975 1617T772 1579Z"/><glyph unicode="ă" horiz-adv-x="1296" d="M487 -20Q279 -20 176 62T72 330Q72 496 140 584T365 711T819 750H876Q871 844 846 880T766 933T608 950Q438 950 276 854L152 1040Q235 1098 369 1136T633 1174Q818 1174 918 1134T1062 1003T1106 715V330Q1106 249 1123 229T1214 209V2Q1198 -2 1116 -2Q1022 -2 980 22T913 117Q862 46 757 13T487 -20ZM297 348Q297 258 350 221T528 184Q711 184 794 257T877 494V553H834Q631 553 514 537T347 480T297 348ZM649 1235Q526 1235 444 1272T314 1382T238 1593L412 1628Q435 1520 488 1475T649 1430Q756 1430 809 1474T885 1628L1063 1595Q1032 1454 983 1382T852 1273T649 1235Z"/><glyph unicode="Ą" horiz-adv-x="1550" d="M647 1528H901L1511 0H1442Q1345 -57 1298 -115T1251 -219Q1251 -267 1279 -287T1372 -307Q1441 -307 1518 -283L1563 -416Q1456 -463 1341 -463Q1200 -463 1133 -416T1065 -264Q1065 -186 1116 -111T1249 14L1143 291H399L287 0H39L647 1528ZM1055 520L770 1231L485 520H1055Z"/><glyph unicode="ą" horiz-adv-x="1296" d="M487 -20Q279 -20 176 62T72 330Q72 496 140 584T365 711T819 750H877Q874 839 849 877T766 932T608 950Q438 950 276 854L152 1040Q235 1098 369 1136T633 1174Q818 1174 918 1134T1062 1003T1106 715V330Q1106 249 1123 229T1214 209V2Q1001 -120 1001 -219Q1001 -267 1029 -287T1122 -307Q1211 -307 1276 -279L1327 -412Q1221 -463 1094 -463Q950 -463 884 -416T817 -264Q817 -180 871 -107T1014 8Q980 18 963 35Q927 64 913 117Q862 46 757 13T487 -20ZM528 184Q711 184 794 257T877 494V553H834Q618 553 506 536T345 479T297 348Q297 258 350 221T528 184Z"/><glyph unicode="Ć" horiz-adv-x="1516" d="M871 1956H1160L789 1606H572L871 1956ZM844 -23Q458 -23 269 168T80 760Q80 1149 276 1345T858 1542Q1042 1542 1179 1490T1421 1335L1241 1157Q1166 1228 1074 1265T856 1303Q587 1303 459 1166T330 758Q330 478 459 345T858 211Q944 211 1008 225T1126 268T1255 365L1432 197Q1315 78 1174 28T844 -23Z"/><glyph unicode="ć" horiz-adv-x="1178" d="M962 1612H1251L880 1262H663L962 1612ZM653 -20Q363 -20 225 121T86 575Q86 791 146 917T334 1109T664 1174Q945 1174 1102 995L928 831Q870 892 806 917T664 942Q487 942 407 856T326 569Q326 365 407 279T664 193Q743 193 805 217T940 307L1100 156Q993 56 892 18T653 -20Z"/><glyph unicode="Č" horiz-adv-x="1516" d="M314 1956H543L758 1761L973 1956H1196L881 1606H629L314 1956ZM844 -23Q458 -23 269 168T80 760Q80 1149 276 1345T858 1542Q1042 1542 1179 1490T1421 1335L1241 1157Q1166 1228 1074 1265T856 1303Q587 1303 459 1166T330 758Q330 478 459 345T858 211Q944 211 1008 225T1126 268T1255 365L1432 197Q1315 78 1174 28T844 -23Z"/><glyph unicode="č" horiz-adv-x="1178" d="M405 1612H634L849 1417L1064 1612H1287L972 1262H720L405 1612ZM653 -20Q363 -20 225 121T86 575Q86 791 146 917T334 1109T664 1174Q945 1174 1102 995L928 831Q870 892 806 917T664 942Q487 942 407 856T326 569Q326 365 407 279T664 193Q743 193 805 217T940 307L1100 156Q993 56 892 18T653 -20Z"/><glyph unicode="Ď" horiz-adv-x="1575" d="M342 1956H571L786 1761L1001 1956H1224L909 1606H657L342 1956ZM166 1518H684Q1006 1518 1175 1446T1420 1212T1497 760Q1497 476 1416 313T1162 75T668 0H166V1518ZM680 229Q899 229 1019 278T1193 438T1247 760Q1247 981 1197 1086T1030 1236T688 1282H414V229H680Z"/><glyph unicode="ď" horiz-adv-x="1624" d="M1362 1186Q1438 1224 1462 1251T1487 1333H1374V1589H1618V1403Q1618 1295 1602 1245T1544 1157T1417 1079L1362 1186ZM580 -20Q331 -20 209 124T86 580Q86 888 211 1029T588 1171Q743 1171 839 1142T979 1047V1589H1219V10L1036 -8L1010 115Q958 46 856 13T580 -20ZM633 197Q820 197 899 284T979 580Q979 787 902 866T633 946Q475 946 402 863T328 580Q328 371 403 284T633 197Z"/><glyph unicode="Đ" horiz-adv-x="1575" d="M0 879H166V1518H684Q1006 1518 1175 1446T1420 1212T1497 760Q1497 479 1415 315T1159 76T668 0H166V672H0V879ZM680 229Q899 229 1019 278T1193 438T1247 760Q1247 981 1197 1086T1030 1236T688 1282H414V879H727V672H414V229H680Z"/><glyph unicode="đ" horiz-adv-x="1360" d="M580 -20Q331 -20 209 124T86 580Q86 888 211 1029T588 1171Q743 1171 839 1142T979 1047V1255H692V1458H979V1589H1219V1458H1360V1255H1219V10L1036 -8L1010 115Q958 46 856 13T580 -20ZM633 197Q820 197 899 284T979 580Q979 787 902 866T633 946Q475 946 402 863T328 580Q328 371 403 284T633 197Z"/><glyph unicode="Ę" horiz-adv-x="1358" d="M166 1518H1237V1280H414V899H1217V664H414V233H1245V0H1079Q988 -57 944 -115T899 -219Q899 -267 927 -287T1020 -307Q1109 -307 1196 -272L1247 -406Q1194 -433 1122 -448T989 -463Q848 -463 781 -416T713 -264Q713 -188 756 -119T877 0H166V1518Z"/><glyph unicode="ę" horiz-adv-x="1241" d="M659 -23Q465 -23 339 37T149 224T86 575Q86 793 149 921T336 1112T655 1174Q776 1174 860 1148T1001 1073T1087 956T1133 802T1148 565L1147 475H317Q331 314 412 248T659 182Q766 182 849 205T1020 293L1147 127Q1045 50 938 14Q844 -39 789 -102T733 -219Q733 -267 761 -287T854 -307Q943 -307 1030 -272L1081 -406Q1028 -433 956 -448T823 -463Q682 -463 615 -416T547 -264Q547 -198 581 -135T680 -23H659ZM649 963Q492 963 413 897T317 682H922Q913 815 887 863T805 937T649 963Z"/><glyph unicode="Ě" horiz-adv-x="1358" d="M234 1956H463L678 1761L893 1956H1116L801 1606H549L234 1956ZM166 1518H1237V1280H414V899H1217V664H414V233H1245V0H166V1518Z"/><glyph unicode="ě" horiz-adv-x="1241" d="M176 1612H405L620 1417L835 1612H1058L743 1262H491L176 1612ZM659 -23Q465 -23 339 37T149 224T86 575Q86 793 149 921T336 1112T655 1174Q776 1174 860 1148T1001 1073T1087 956T1133 802T1148 565L1147 475H317Q327 365 364 305T472 213T659 182Q766 182 849 205T1020 293L1147 127Q1043 46 927 12T659 -23ZM922 682Q913 815 887 863T805 937T649 963Q538 963 471 933T367 845T318 682H922Z"/><glyph unicode="Ĺ" horiz-adv-x="1233" d="M476 1956H765L394 1606H177L476 1956ZM166 1518H414V227H1190V0H166V1518Z"/><glyph unicode="ĺ" horiz-adv-x="649" d="M458 2018H747L376 1668H159L458 2018ZM428 -2Q276 -2 215 71T154 315V1589H389V344Q389 264 413 238T512 211H555V2Q525 -2 428 -2Z"/><glyph unicode="Ľ" horiz-adv-x="1233" d="M588 1186Q664 1224 688 1251T713 1333H600V1589H844V1403Q844 1295 828 1245T770 1157T643 1079L588 1186ZM166 1518H414V227H1190V0H166V1518Z"/><glyph unicode="ľ" horiz-adv-x="803" d="M541 1186Q617 1224 641 1251T666 1333H553V1589H797V1403Q797 1295 781 1245T723 1157T596 1079L541 1186ZM428 -2Q276 -2 215 71T154 315V1589H389V344Q389 264 413 238T512 211H555V2Q525 -2 428 -2Z"/><glyph unicode="Ł" horiz-adv-x="1233" d="M0 784L166 877V1518H414V1016L725 1190V977L414 803V227H1190V0H166V665L0 573V784Z"/><glyph unicode="ł" horiz-adv-x="776" d="M47 932L240 1043V1589H477V1179L686 1300V1098L477 977V336Q477 255 500 228T598 201H643V2Q613 -2 516 -2Q363 -2 302 70T240 309V840L47 729V932Z"/><glyph unicode="Ń" horiz-adv-x="1640" d="M932 1956H1221L850 1606H633L932 1956ZM166 1518H434L1233 422V1518H1475V0H1247L408 1149V0H166V1518Z"/><glyph unicode="ń" horiz-adv-x="1315" d="M770 1612H1059L688 1262H471L770 1612ZM141 1133L328 1147L348 1047Q455 1174 768 1174Q919 1174 1009 1127T1139 984T1180 696V0H942V649Q942 780 918 832T838 910T688 936Q576 936 510 906T412 813T381 629V0H141V1133Z"/><glyph unicode="Ň" horiz-adv-x="1640" d="M375 1956H604L819 1761L1034 1956H1257L942 1606H690L375 1956ZM166 1518H434L1233 422V1518H1475V0H1247L408 1149V0H166V1518Z"/><glyph unicode="ň" horiz-adv-x="1315" d="M213 1612H442L657 1417L872 1612H1095L780 1262H528L213 1612ZM141 1133L328 1147L348 1047Q455 1174 768 1174Q919 1174 1009 1127T1139 984T1180 696V0H942V649Q942 780 918 832T838 910T688 936Q576 936 510 906T412 813T381 629V0H141V1133Z"/><glyph unicode="Ő" horiz-adv-x="1726" d="M686 1950H963L631 1604H428L686 1950ZM1194 1950H1470L1141 1604H936L1194 1950ZM862 -25Q80 -25 80 760Q80 1542 862 1542Q1647 1542 1647 760Q1647 -25 862 -25ZM862 207Q1131 207 1264 342T1397 756Q1397 1033 1265 1168T862 1303Q594 1303 462 1168T330 756Q330 478 461 343T862 207Z"/><glyph unicode="ő" horiz-adv-x="1323" d="M483 1606H760L428 1260H225L483 1606ZM991 1606H1267L938 1260H733L991 1606ZM662 -23Q365 -23 226 123T86 575Q86 884 227 1029T662 1174Q955 1174 1096 1029T1237 575Q1237 269 1098 123T662 -23ZM662 193Q832 193 914 281T997 569Q997 766 916 855T662 944Q487 944 407 855T326 569Q326 371 407 282T662 193Z"/><glyph unicode="Œ" horiz-adv-x="2583" d="M1413 1518H2462V1280H1638V895H2441V666H1638V227H2470V0H1413V170Q1234 -25 862 -25Q466 -25 273 170T80 760Q80 1154 273 1348T862 1542Q1234 1542 1413 1348V1518ZM862 207Q1133 207 1265 339T1397 756Q1397 1039 1264 1171T862 1303Q591 1303 461 1171T330 756Q330 471 460 339T862 207Z"/><glyph unicode="œ" horiz-adv-x="2152" d="M1571 -23Q1232 -23 1112 155Q987 -23 662 -23Q362 -23 224 120T86 575Q86 889 225 1031T662 1174Q826 1174 935 1131T1114 993Q1234 1174 1567 1174Q1821 1174 1939 1054T2060 653L2058 475H1229Q1239 365 1276 305T1384 213T1571 182Q1676 182 1759 205T1931 293L2060 127Q1954 45 1841 11T1571 -23ZM662 193Q832 193 914 281T997 569Q997 766 916 855T662 944Q487 944 407 855T326 569Q326 371 407 282T662 193ZM1833 680Q1827 808 1800 860T1717 937T1561 963Q1450 963 1383 933T1279 845T1230 680H1833Z"/><glyph unicode="Ŕ" horiz-adv-x="1526" d="M875 1956H1164L793 1606H576L875 1956ZM166 1518H860Q1143 1518 1277 1404T1411 1044Q1411 847 1325 733T1062 574L1391 0H1124L807 553H408V0H166V1518ZM854 780Q1019 780 1090 839T1161 1034Q1161 1174 1091 1233T850 1292H408V780H854Z"/><glyph unicode="ŕ" horiz-adv-x="780" d="M519 1612H808L437 1262H220L519 1612ZM141 1133L328 1147L352 1016Q391 1078 492 1116T733 1159V920Q550 918 466 840T381 590V0H141V1133Z"/><glyph unicode="Ř" horiz-adv-x="1526" d="M318 1956H547L762 1761L977 1956H1200L885 1606H633L318 1956ZM166 1518H860Q1143 1518 1277 1404T1411 1044Q1411 847 1325 733T1062 574L1391 0H1124L807 553H408V0H166V1518ZM854 780Q1019 780 1090 839T1161 1034Q1161 1174 1091 1233T850 1292H408V780H854Z"/><glyph unicode="ř" horiz-adv-x="766" d="M-56 1612H173L388 1417L603 1612H826L511 1262H259L-56 1612ZM141 1133L328 1147L352 1016Q391 1078 492 1116T733 1159V920Q550 918 466 840T381 590V0H141V1133Z"/><glyph unicode="Ś" horiz-adv-x="1479" d="M852 1956H1141L770 1606H553L852 1956ZM739 -20Q331 -20 66 166L190 356Q429 197 733 197Q954 197 1044 250T1135 432Q1135 497 1102 539T1001 607T729 666Q477 704 362 755T197 891T147 1106Q147 1334 287 1438T737 1542Q1094 1542 1309 1399L1176 1196Q1095 1248 978 1280T735 1313Q551 1313 472 1268T393 1112Q393 1048 426 1009T531 944T791 889Q1012 853 1108 820T1263 737T1351 616T1380 444Q1380 205 1226 93T739 -20Z"/><glyph unicode="ś" horiz-adv-x="1122" d="M933 1612H1222L851 1262H634L933 1612ZM553 -20Q248 -20 41 119L164 303Q249 248 353 217T567 186Q716 186 768 217T821 328Q821 369 803 393T744 432T569 471Q356 504 272 544T146 653T104 834Q104 1008 216 1091T569 1174Q845 1174 1020 1071L907 874Q844 909 758 930T575 952Q450 952 395 925T340 834Q340 792 358 768T416 727T575 690Q682 672 770 653T921 598T1018 501T1053 340Q1053 146 938 63T553 -20Z"/><glyph unicode="Ş" horiz-adv-x="1479" d="M739 -20Q331 -20 66 166L190 356Q429 197 733 197Q954 197 1044 250T1135 432Q1135 497 1102 539T1001 607T729 666Q477 704 362 755T197 891T147 1106Q147 1334 287 1438T737 1542Q1094 1542 1309 1399L1176 1196Q1095 1248 978 1280T735 1313Q551 1313 472 1268T393 1112Q393 1048 426 1009T531 944T791 889Q1012 853 1108 820T1263 737T1351 616T1380 444Q1380 205 1226 93T739 -20ZM745 -487Q600 -487 489 -424L553 -303Q645 -350 737 -350Q812 -350 846 -329T881 -256Q881 -202 843 -188T745 -174L696 -176L643 -139L674 14H813L795 -88H814Q908 -88 951 -107T1018 -166T1042 -272Q1042 -385 970 -436T745 -487Z"/><glyph unicode="ş" horiz-adv-x="1122" d="M553 -20Q248 -20 41 119L164 303Q249 248 353 217T567 186Q716 186 768 217T821 328Q821 369 803 393T744 432T569 471Q356 504 272 544T146 653T104 834Q104 1008 216 1091T569 1174Q845 1174 1020 1071L907 874Q844 909 758 930T575 952Q450 952 395 925T340 834Q340 792 358 768T416 727T575 690Q682 672 770 653T921 598T1018 501T1053 340Q1053 146 938 63T553 -20ZM826 -487Q681 -487 570 -424L634 -303Q726 -350 818 -350Q893 -350 927 -329T962 -256Q962 -202 924 -188T826 -174L777 -176L724 -139L755 14H894L876 -88H895Q989 -88 1032 -107T1099 -166T1123 -272Q1123 -385 1051 -436T826 -487Z"/><glyph unicode="Š" horiz-adv-x="1479" d="M295 1956H524L739 1761L954 1956H1177L862 1606H610L295 1956ZM739 -20Q331 -20 66 166L190 356Q429 197 733 197Q954 197 1044 250T1135 432Q1135 497 1102 539T1001 607T729 666Q477 704 362 755T197 891T147 1106Q147 1334 287 1438T737 1542Q1094 1542 1309 1399L1176 1196Q1095 1248 978 1280T735 1313Q551 1313 472 1268T393 1112Q393 1048 426 1009T531 944T791 889Q1012 853 1108 820T1263 737T1351 616T1380 444Q1380 205 1226 93T739 -20Z"/><glyph unicode="š" horiz-adv-x="1122" d="M376 1612H605L820 1417L1035 1612H1258L943 1262H691L376 1612ZM553 -20Q248 -20 41 119L164 303Q249 248 353 217T567 186Q716 186 768 217T821 328Q821 369 803 393T744 432T569 471Q356 504 272 544T146 653T104 834Q104 1008 216 1091T569 1174Q845 1174 1020 1071L907 874Q844 909 758 930T575 952Q450 952 395 925T340 834Q340 792 358 768T416 727T575 690Q682 672 770 653T921 598T1018 501T1053 340Q1053 146 938 63T553 -20Z"/><glyph unicode="Ţ" horiz-adv-x="1427" d="M581 -483Q659 -445 682 -417T706 -336H583V-80H839V-266Q839 -371 822 -423T764 -513T639 -588L581 -483ZM590 1280H43V1518H1386V1280H840V0H590V1280Z"/><glyph unicode="ţ" horiz-adv-x="879" d="M252 -483Q330 -445 353 -417T377 -336H254V-80H510V-266Q510 -371 493 -423T435 -513T310 -588L252 -483ZM57 1147H263L305 1454L492 1493V1147H784V930H492V365Q492 293 506 266T555 225T651 211H784V0L697 -2H606Q471 -2 396 30T287 130T254 330V930H57V1147Z"/><glyph unicode="Ť" horiz-adv-x="1427" d="M268 1956H497L712 1761L927 1956H1150L835 1606H583L268 1956ZM590 1280H43V1518H1386V1280H840V0H590V1280Z"/><glyph unicode="ť" horiz-adv-x="879" d="M631 1417Q709 1457 730 1484T752 1565H645V1808H877V1628Q877 1525 861 1476T806 1391T684 1317L631 1417ZM57 1147H263L305 1454L492 1493V1147H784V930H492V365Q492 293 506 266T555 225T651 211H784V0L697 -2H606Q471 -2 396 30T287 130T254 330V930H57V1147Z"/><glyph unicode="Ů" horiz-adv-x="1632" d="M813 1577Q685 1577 614 1649T543 1853Q543 1986 613 2060T813 2134Q941 2134 1011 2058T1081 1853Q1081 1726 1010 1652T813 1577ZM813 1706Q882 1706 918 1745T954 1853Q954 1923 918 1963T813 2003Q744 2003 707 1965T670 1853Q670 1781 707 1744T813 1706ZM815 -27Q641 -27 515 8T311 110T194 286T156 565V1518H403V598Q403 446 445 365T577 244T817 205Q970 205 1062 244T1195 365T1237 598V1518H1479V565Q1479 340 1407 215T1186 32T815 -27Z"/><glyph unicode="ů" horiz-adv-x="1300" d="M649 1233Q521 1233 450 1305T379 1509Q379 1642 449 1716T649 1790Q777 1790 847 1714T917 1509Q917 1382 846 1308T649 1233ZM649 1362Q718 1362 754 1401T790 1509Q790 1579 754 1619T649 1659Q580 1659 543 1621T506 1509Q506 1437 543 1400T649 1362ZM653 -20Q456 -20 345 28T184 180T135 508V1147H373V502Q373 437 377 382T408 286T492 222T653 199Q733 199 786 213T871 255T917 332T932 506V1147H1165V512Q1165 284 1117 180T959 28T653 -20Z"/><glyph unicode="Ű" horiz-adv-x="1632" d="M815 -27Q641 -27 515 8T311 110T194 286T156 565V1518H403V598Q403 446 445 365T577 244T817 205Q970 205 1062 244T1195 365T1237 598V1518H1479V565Q1479 340 1407 215T1186 32T815 -27ZM637 1950H914L582 1604H379L637 1950ZM1145 1950H1421L1092 1604H887L1145 1950Z"/><glyph unicode="ű" horiz-adv-x="1300" d="M653 -20Q456 -20 345 28T184 180T135 508V1147H373V502Q373 437 377 382T408 286T492 222T653 199Q733 199 786 213T871 255T917 332T932 506V1147H1165V512Q1165 284 1117 180T959 28T653 -20ZM473 1606H750L418 1260H215L473 1606ZM981 1606H1257L928 1260H723L981 1606Z"/><glyph unicode="Ÿ" horiz-adv-x="1495" d="M16 1518H285L752 784L1221 1518H1477L870 562V0H625V559L16 1518ZM413 1860H630V1612H413V1860ZM862 1860H1077V1612H862V1860Z"/><glyph unicode="Ź" horiz-adv-x="1389" d="M809 1956H1098L727 1606H510L809 1956ZM80 197L971 1280H115V1518H1282V1303L397 227H1305V0H80V197Z"/><glyph unicode="ź" horiz-adv-x="1067" d="M908 1612H1197L826 1262H609L908 1612ZM55 172L680 930H88V1147H995V971L367 203H1018V0H55V172Z"/><glyph unicode="Ż" horiz-adv-x="1389" d="M80 197L971 1280H115V1518H1282V1303L397 227H1305V0H80V197ZM573 1857H815V1601H573V1857Z"/><glyph unicode="ż" horiz-adv-x="1067" d="M55 172L680 930H88V1147H995V971L367 203H1018V0H55V172ZM672 1513H914V1257H672V1513Z"/><glyph unicode="Ž" horiz-adv-x="1389" d="M252 1956H481L696 1761L911 1956H1134L819 1606H567L252 1956ZM80 197L971 1280H115V1518H1282V1303L397 227H1305V0H80V197Z"/><glyph unicode="ž" horiz-adv-x="1067" d="M351 1612H580L795 1417L1010 1612H1233L918 1262H666L351 1612ZM55 172L680 930H88V1147H995V971L367 203H1018V0H55V172Z"/><glyph unicode="ƒ" horiz-adv-x="1174" d="M176 936H439L492 1180Q520 1324 566 1388T696 1485T913 1518H1004V1292H926Q859 1292 818 1275T754 1221T715 1108L678 936H1004V719H632L406 -340H166L393 719H176V936Z"/><glyph unicode="Ț" horiz-adv-x="1427" d="M581 -483Q659 -445 682 -417T706 -336H583V-80H839V-266Q839 -371 822 -423T764 -513T639 -588L581 -483ZM590 1280H43V1518H1386V1280H840V0H590V1280Z"/><glyph unicode="ț" horiz-adv-x="879" d="M252 -483Q330 -445 353 -417T377 -336H254V-80H510V-266Q510 -371 493 -423T435 -513T310 -588L252 -483ZM57 1147H263L305 1454L492 1493V1147H784V930H492V365Q492 293 506 266T555 225T651 211H784V0L697 -2H606Q471 -2 396 30T287 130T254 330V930H57V1147Z"/><glyph unicode="ˆ" horiz-adv-x="1208" d="M477 1612H729L1044 1262H817L600 1456L387 1262H162L477 1612Z"/><glyph unicode="ˇ" horiz-adv-x="1208" d="M162 1612H391L606 1417L821 1612H1044L729 1262H477L162 1612Z"/><glyph unicode="˘" horiz-adv-x="1208" d="M604 1235Q481 1235 399 1272T269 1382T193 1593L367 1628Q390 1520 443 1475T604 1430Q711 1430 764 1474T840 1628L1018 1595Q987 1454 938 1382T807 1273T604 1235Z"/><glyph unicode="˙" horiz-adv-x="1208" d="M483 1513H725V1257H483V1513Z"/><glyph unicode="˚" horiz-adv-x="1208" d="M604 1233Q476 1233 405 1305T334 1509Q334 1642 404 1716T604 1790Q732 1790 802 1714T872 1509Q872 1382 801 1308T604 1233ZM604 1362Q673 1362 709 1401T745 1509Q745 1579 709 1619T604 1659Q535 1659 498 1621T461 1509Q461 1437 498 1400T604 1362Z"/><glyph unicode="˛" horiz-adv-x="1208" d="M629 -463Q486 -463 419 -415T352 -264Q352 -181 405 -106T543 16H745Q640 -44 590 -107T539 -219Q539 -267 567 -287T659 -307Q749 -307 836 -272L887 -406Q830 -433 760 -448T629 -463Z"/><glyph unicode="˜" horiz-adv-x="1208" d="M162 1376Q230 1462 307 1512T459 1563Q512 1563 549 1547T616 1511T676 1475T743 1458Q811 1458 907 1573L1047 1460Q887 1262 748 1262Q698 1262 662 1278T593 1313T531 1349T463 1366Q386 1366 305 1262L162 1376Z"/><glyph unicode="˝" horiz-adv-x="1208" d="M428 1606H705L373 1260H170L428 1606ZM936 1606H1212L883 1260H678L936 1606Z"/><glyph unicode="̄" horiz-adv-x="1208" d="M205 1448H1004V1245H205V1448Z"/><glyph unicode="̦" horiz-adv-x="545" d="M141 -483Q219 -445 242 -417T266 -336H143V-80H399V-266Q399 -371 382 -423T324 -513T199 -588L141 -483Z"/><glyph unicode="μ" horiz-adv-x="1309" d="M141 1147H381V502Q381 437 385 382T416 286T499 222T662 199Q766 199 822 222T904 286T934 384T938 506V1147H1174V512Q1174 287 1127 183T973 29T676 -20Q449 -20 381 61V-338H141V1147Z"/><glyph unicode="–" horiz-adv-x="1483" d="M92 766H1391V541H92V766Z"/><glyph unicode="—" horiz-adv-x="1929" d="M92 766H1837V541H92V766Z"/><glyph unicode="‘" horiz-adv-x="545" d="M127 1135Q127 1256 146 1321T211 1431T356 1524L418 1397Q329 1349 304 1317T279 1219H416V909H127V1135Z"/><glyph unicode="’" horiz-adv-x="545" d="M127 1030Q210 1070 238 1104T266 1206H127V1518H416V1292Q416 1162 397 1100T330 993T188 903L127 1030Z"/><glyph unicode="‚" horiz-adv-x="545" d="M127 -158Q211 -115 238 -81T266 23H127V332H416V104Q416 -20 396 -83T327 -192T188 -283L127 -158Z"/><glyph unicode="“" horiz-adv-x="973" d="M127 1139Q127 1260 145 1321T209 1427T352 1518L412 1395Q323 1348 299 1316T274 1221H410V918H127V1139ZM563 1139Q563 1263 581 1324T645 1429T784 1518L846 1395Q756 1348 733 1316T709 1221H844V918H563V1139Z"/><glyph unicode="”" horiz-adv-x="973" d="M127 1038Q215 1084 239 1117T264 1217H127V1518H410V1296Q410 1171 391 1111T327 1007T184 918L127 1038ZM559 1038Q647 1084 672 1118T698 1217H563V1518H844V1296Q844 1171 825 1110T761 1006T621 918L559 1038Z"/><glyph unicode="„" horiz-adv-x="973" d="M127 -154Q215 -110 239 -77T264 23H127V324H410V104Q410 -18 390 -80T321 -188T184 -274L127 -154ZM559 -154Q646 -111 672 -77T698 23H563V324H844V104Q844 -16 824 -78T758 -186T621 -274L559 -154Z"/><glyph unicode="†" horiz-adv-x="1165" d="M465 893H109V1118H465V1589H700V1118H1059V893H700V-340H465V893Z"/><glyph unicode="‡" horiz-adv-x="1165" d="M465 164H109V391H465V893H109V1118H465V1589H700V1118H1059V893H700V391H1059V164H700V-340H465V164Z"/><glyph unicode="•" horiz-adv-x="748" d="M195 825H555V420H195V825Z"/><glyph unicode="…" horiz-adv-x="1563" d="M127 307H416V0H127V307ZM635 307H926V0H635V307ZM1145 307H1436V0H1145V307Z"/><glyph unicode="‰" horiz-adv-x="3387" d="M526 557Q307 557 193 683T78 1049Q78 1287 193 1414T526 1542Q741 1542 855 1414T969 1049Q969 811 856 684T526 557ZM526 748Q756 748 756 1049Q756 1346 526 1346Q293 1346 293 1049Q293 895 351 822T526 748ZM1888 -20Q1673 -20 1558 106T1442 473Q1442 712 1558 839T1888 967Q2102 967 2217 840T2333 473Q2333 233 2218 107T1888 -20ZM1888 170Q2118 170 2118 473Q2118 624 2061 696T1888 768Q1657 768 1657 473Q1657 170 1888 170ZM2865 -20Q2648 -20 2535 107T2421 473Q2421 710 2535 838T2865 967Q3079 967 3194 840T3310 473Q3310 233 3195 107T2865 -20ZM2865 170Q3097 170 3097 473Q3097 768 2865 768Q2634 768 2634 473Q2634 170 2865 170ZM1518 1520H1741L893 0H670L1518 1520Z"/><glyph unicode="‹" horiz-adv-x="930" d="M176 571L485 1147H700L408 571L700 0H485L176 571Z"/><glyph unicode="›" horiz-adv-x="930" d="M522 573L229 1147H446L756 573L446 0H229L522 573Z"/><glyph unicode="€" horiz-adv-x="1413" d="M70 690H300L299 764V819H70V1018H316L331 1099Q382 1324 519 1433T891 1542Q1026 1542 1115 1524T1294 1458L1184 1251Q1058 1317 897 1317Q743 1317 658 1243T546 1018H1032V819H528V768L529 690H1032V492H549Q579 340 663 267T893 193Q971 193 1042 208T1184 268L1305 78Q1213 22 1116 -1T881 -25Q712 -25 598 33T416 201T318 492H70V690Z"/><glyph unicode="™" horiz-adv-x="2251" d="M1012 1518H1217L1501 825L1786 1518H1991V582H1812V1200L1561 582H1438L1184 1200V582H1012V1518ZM428 1348H115V1518H924V1348H610V582H428V1348Z"/><glyph unicode="∙" horiz-adv-x="545" d="M127 874H416V561H127V874Z"/><glyph unicode="ﬀ" horiz-adv-x="1542" d="M967 930H510V0H274V930H57V1147H274V1231Q274 1438 366 1527T659 1616H740L799 1614V1407H690Q598 1407 554 1368T510 1231V1147H967V1231Q967 1436 1059 1526T1354 1616H1434L1493 1614V1407H1384Q1291 1407 1249 1368T1206 1231V1147H1493V930H1206V0H967V930Z"/><glyph unicode="ﬁ" horiz-adv-x="1358" d="M57 1147H274V1231Q274 1438 366 1527T659 1616H740L799 1614V1407H690Q598 1407 554 1368T510 1231V1147H799V930H510V0H274V930H57V1147ZM967 1147H1206V0H967V1147ZM965 1534H1206V1272H965V1534Z"/><glyph unicode="ﬂ" horiz-adv-x="1460" d="M57 1147H274V1231Q274 1438 366 1527T659 1616H740L799 1614V1407H690Q598 1407 554 1368T510 1231V1147H799V930H510V0H274V930H57V1147ZM1243 -2Q1091 -2 1029 70T967 315V1589H1206V344Q1206 261 1230 236T1327 211H1370V2Q1340 -2 1243 -2Z"/><glyph unicode="ﬃ" horiz-adv-x="2052" d="M967 930H510V0H274V930H57V1147H274V1231Q274 1438 366 1527T659 1616H740L799 1614V1407H690Q598 1407 554 1368T510 1231V1147H967V1231Q967 1436 1059 1526T1354 1616H1434L1493 1614V1407H1384Q1291 1407 1249 1368T1206 1231V1147H1493V930H1206V0H967V930ZM1661 1147H1898V0H1661V1147ZM1659 1534H1901V1272H1659V1534Z"/><glyph unicode="ﬄ" horiz-adv-x="2157" d="M967 930H510V0H274V930H57V1147H274V1231Q274 1438 366 1527T659 1616H740L799 1614V1407H690Q598 1407 554 1368T510 1231V1147H967V1231Q967 1436 1059 1526T1354 1616H1434L1493 1614V1407H1384Q1291 1407 1249 1368T1206 1231V1147H1493V930H1206V0H967V930ZM1937 -2Q1785 -2 1723 70T1661 315V1589H1898V344Q1898 265 1921 238T2019 211H2064V2Q2034 -2 1937 -2Z"/></font>
</defs>
</svg>
