<?xml version="1.0" encoding="utf-8"?>
<!-- Generator: Adobe Illustrator 16.0.0, SVG Export Plug-In . SVG Version: 6.00 Build 0)  -->
<!DOCTYPE svg PUBLIC "-//W3C//DTD SVG 1.1//EN" "http://www.w3.org/Graphics/SVG/1.1/DTD/svg11.dtd">
<svg version="1.1" id="Layer_1" xmlns="http://www.w3.org/2000/svg" xmlns:xlink="http://www.w3.org/1999/xlink" x="0px" y="0px"
	 width="320px" height="260px" viewBox="0 0 320 260" enable-background="new 0 0 320 260" xml:space="preserve">
<g>
	<g>
		<path fill="#FFDD5B" d="M302.41,50.77c0-2.046,1.754-3.652,3.795-3.652c2.049,0,3.795,1.606,3.795,3.652
			c0,2.045-1.664,3.652-3.631,3.652C304.246,54.421,302.41,52.814,302.41,50.77z M306.205,53.851c1.754,0,3.229-1.364,3.229-3.082
			c0-1.718-1.475-3.083-3.229-3.083c-1.746,0-3.223,1.365-3.223,3.083C302.982,52.487,304.459,53.851,306.205,53.851z
			 M304.328,52.47c0.467-0.045,0.598-0.078,0.598-0.644v-2.32c0-0.537-0.131-0.52-0.598-0.586v-0.324h1.975
			c1.01,0,1.771,0.16,1.771,1.053c0,0.795-0.713,0.942-1.182,1.053c1.002,0.603,0.682,1.492,1.1,1.492
			c0.246,0,0.262-0.422,0.262-0.533h0.32c0,0.356-0.148,1.119-0.861,1.119c-1.393,0-0.516-1.979-1.713-1.979h-0.18v0.971
			c0,0.635,0.064,0.619,0.613,0.697v0.312h-2.105V52.47z M305.82,50.462h0.344c0.467,0,0.918-0.115,0.918-0.73
			c0-0.488-0.148-0.812-0.697-0.812s-0.564,0.209-0.564,0.615V50.462z"/>
	</g>
	<g>
		<path fill="#FFDD5B" d="M38.302,145.677c0,44.298,53.504,80.342,119.276,80.342c65.768,0,119.272-36.044,119.272-80.342
			c0-44.301-53.505-80.34-119.272-80.34C91.806,65.336,38.302,101.376,38.302,145.677z M41.089,145.677
			c0-42.833,52.254-77.681,116.489-77.681c64.235,0,116.489,34.847,116.489,77.681c0,42.832-52.254,77.678-116.489,77.678
			C93.343,223.355,41.089,188.508,41.089,145.677z"/>
		<path fill="#FFDD5B" d="M127.514,109.955c-0.315,0-0.832-0.042-1.508-0.082l-1.267-0.082c-0.795-0.041-1.627-0.082-2.5-0.082
			c-0.635,0-1.348,0-2.615,0.041c-1.234,0.041-1.468,0.082-2.742,0.164c-0.553,0.042-0.914,0.042-1.144,0.042
			c-1.037,0-1.59-0.332-1.59-0.906c0-0.209,0.078-0.373,0.156-0.5c0.315-0.373,0.479-0.414,2.025-0.619
			c1.59-0.25,1.984-0.783,1.984-2.685l0.041-1.492V89.371v-1.574c-0.041-1.324-0.197-1.611-0.951-1.611
			c-0.438,0-0.754,0.082-1.623,0.455c-0.639,0.291-0.955,0.373-1.275,0.373c-0.479,0-0.791-0.291-0.791-0.787
			c0-0.706,0.394-0.993,2.418-1.57c3.332-1.037,4.956-1.656,7.099-2.771c0.275-0.164,0.517-0.246,0.672-0.246
			c0.443,0,0.672,0.414,0.672,1.197v1.447v1.365v18.104c0,3.349,0.279,3.885,2.066,4.176c1.787,0.246,2.221,0.455,2.221,1.119
			C128.862,109.623,128.346,109.955,127.514,109.955z M120.534,89.576c0-1.984-0.083-2.644-0.402-3.222
			c-0.312-0.582-1.103-0.951-1.976-0.951c-0.205,0-0.401,0-0.68,0.041c1.349,0.164,1.631,0.537,1.668,2.147v1.779v14.095
			c0,2.935,0,3.099-0.238,3.759c-0.16,0.541-0.554,0.873-1.431,1.246c2.386-0.255,3.058-1.246,3.058-4.509V89.576z"/>
		<path fill="#FFDD5B" d="M141.995,110.656c-5.792,0-10.271-3.181-10.271-7.312c0-2.606,1.902-4.963,4.915-6.078
			c0.557-0.205,0.914-0.415,0.914-0.578c0-0.041-0.078-0.123-0.234-0.209l-1.078-0.618c-2.254-1.283-3.602-3.513-3.602-6.075
			c0-4.84,4.123-8.144,10.07-8.144c5.795,0,9.755,2.644,9.755,6.488c0,2.152-1.271,3.677-3.927,4.795
			c-0.988,0.414-1.226,0.537-1.226,0.623c0,0.082,0.16,0.205,0.353,0.287l1.193,0.66c3.094,1.693,4.763,4.218,4.763,7.193
			C153.619,106.852,148.7,110.656,141.995,110.656z M136.125,107.807c-1.308-1.078-2.139-2.815-2.139-4.508
			c0-1.447,0.631-3.14,1.582-4.172c0.517-0.619,0.992-0.951,2.181-1.57c-1.664,0.619-2.218,0.905-3.168,1.692
			c-1.23,1.033-1.984,2.648-1.984,4.095c0,2.931,2.615,5.451,6.542,6.279C137.355,108.717,137.039,108.549,136.125,107.807z
			 M144.97,97.511l-5.234-2.394c-3.57-1.655-5-3.394-5-6.123c0-2.849,1.504-4.914,4.562-6.238c-3.493,0.951-5.788,3.681-5.788,6.82
			c0,2.812,1.701,5,4.993,6.492l4.758,2.148c3.611,1.651,5.275,3.508,5.275,5.91c0,1.447-0.709,2.935-1.861,3.885
			c-0.791,0.705-1.308,0.951-2.857,1.488c3.451-0.705,5.829-3.262,5.829-6.238C149.647,100.818,148.143,98.999,144.97,97.511z
			 M145.524,100.445c-0.833-0.532-1.902-1.115-3.209-1.775c-0.594-0.291-1.193-0.541-1.787-0.746
			c-0.32-0.123-0.557-0.164-0.672-0.164c-0.438,0-1.152,0.582-1.549,1.238c-0.631,1.119-0.988,2.484-0.988,3.89
			c0,3.472,2.217,6.074,5.234,6.074c2.816,0,5.111-2.188,5.111-4.791C147.663,102.679,146.913,101.355,145.524,100.445z
			 M142.47,83.375c-2.336,0-4.247,1.737-4.247,3.89c0,1.361,0.799,2.599,2.066,3.304c0.635,0.332,1.705,0.828,3.176,1.447
			c0.988,0.455,1.504,0.619,1.742,0.619c0.16,0,0.316-0.082,0.512-0.287c0.996-0.951,1.508-2.315,1.508-3.681
			C147.229,85.563,145.245,83.375,142.47,83.375z M144.609,82.919c2.542,1.615,3.497,3.144,3.497,5.668
			c0,1.857-0.636,3.218-2.066,4.418c2.025-1.156,3.25-2.976,3.25-4.836C149.291,85.813,147.63,83.952,144.609,82.919z"/>
		<path fill="#FFDD5B" d="M168.768,110.393c-2.377,1.365-5.033,2.147-7.136,2.147c-2.615,0-4.521-1.405-4.521-3.349
			c0-1.406,1.147-2.521,2.619-2.521c1.147,0,1.979,0.578,2.578,1.906c0.238,0.533,0.43,0.91,0.553,1.114
			c0.279,0.578,0.599,0.783,1.152,0.783c0.434,0,0.991-0.123,1.389-0.291c2.693-1.156,4.677-4.418,4.677-7.771
			c0-4.05-2.742-7.189-6.271-7.189c-1.426,0-3.205,0.373-4.16,0.869c-0.672,0.328-0.991,0.533-1.028,0.533
			c-0.123,0.045-0.279,0.086-0.394,0.086c-0.361,0-0.64-0.333-0.64-0.746c0-0.164,0.041-0.328,0.123-0.492
			c0.197-0.291,0.467-0.582,0.824-0.787c0.32-0.209,1.078-0.664,2.308-1.324c4.201-2.397,6.217-4.836,6.217-7.443
			c0-1.983-1.5-3.43-3.483-3.43c-1.307,0-2.615,0.705-3.455,1.906l-0.865,1.197c-0.278,0.414-0.516,0.582-0.836,0.582
			c-0.438,0-0.709-0.295-0.709-0.705c0-0.541,0.517-1.533,1.226-2.356c1.742-2.066,4.123-3.062,7.259-3.062
			c4.32,0,7.099,1.779,7.099,4.55c0,2.107-1.668,4.131-4.525,5.619l-2.894,1.447l-0.832,0.459c1.668-0.253,2.263-0.332,3.176-0.332
			c4.836,0,8.087,3.017,8.087,7.48C176.305,103.532,173.489,107.664,168.768,110.393z M158.935,109.319
			c0-0.951,0.279-1.447,1.106-1.942c-1.344,0.041-2.103,0.701-2.103,1.861c0,1.192,0.799,2.025,2.623,2.603
			C159.332,111.057,158.935,110.393,158.935,109.319z M164.841,94.105c-1.065,0-1.66,0.082-3.172,0.541
			c1.111-0.168,1.549-0.209,2.139-0.209c4.127,0,7.107,3.308,7.107,7.898c0,3.181-1.353,5.788-4.206,8.14
			c1.746-0.947,2.336-1.488,3.484-3.099c1.39-1.902,1.984-3.722,1.984-5.87C172.178,97.04,169.284,94.105,164.841,94.105z
			 M164.841,81.292c-0.906,0-1.463,0.164-2.295,0.619c0.594-0.164,0.873-0.205,1.262-0.205c2.267,0,4.091,1.86,4.091,4.135
			c0,0.656-0.119,1.361-0.356,2.025c-0.513,1.365-1.029,2.024-2.779,3.635l-0.828,0.787c3.524-2.357,5.229-4.672,5.229-7.152
			C169.165,82.907,167.382,81.292,164.841,81.292z"/>
		<path fill="#FFDD5B" d="M199.508,83.621c-0.238,0.417-0.631,1.283-1.226,2.647l-1.783,3.968
			c-2.263,5.004-4.329,9.795-5.202,11.988l-2.336,5.952c-0.562,1.406-0.873,2.234-0.955,2.521c-0.237,0.787-0.471,1.16-0.795,1.283
			c-0.192,0.041-0.868,0.123-1.467,0.123c-0.315,0-0.434-0.083-0.434-0.287c0-0.123,0.082-0.373,0.196-0.582
			c0.763-1.611,1.152-2.476,2.107-4.792c0.829-2.029,1.546-3.804,2.14-5.332c1.664-4.136,3.127-8.062,3.885-10.337l0.476-1.361
			c0.082-0.126,0.082-0.25,0.082-0.332c0-0.287-0.238-0.373-0.996-0.373h-6.147c-0.353,0-1.546,0-3.603,0.086
			c-1.828,0.041-2.541,0.078-3.377,0.205c-0.196,0.041-0.434,0.082-0.549,0.082c-0.639,0-0.717-0.287-0.832-2.111l-0.082-2.435
			l-0.041-1.364v-0.127c0-0.783,0.122-0.947,0.593-0.947c0.197,0,0.476,0.041,0.833,0.041c0.717,0.082,2.103,0.123,4.242,0.123
			h5.238h9.677c0.398,0,0.599,0.164,0.599,0.455C199.75,82.96,199.667,83.297,199.508,83.621z M197.246,83.21h-11.108
			c-2.656,0-3.881-0.041-5.549-0.123c-0.316-0.045-0.554-0.045-0.672-0.045c-0.319,0-0.394,0.127-0.394,0.537v0.664
			c2.615,0.123,3.845,0.164,7.177,0.164h11.066l0.196-0.456c0.12-0.246,0.197-0.41,0.197-0.541
			C198.159,83.251,198.044,83.21,197.246,83.21z"/>
		<path fill="#FFDD5B" d="M137.486,183.951c-0.049,0.155-0.139,0.787-0.274,1.844l-0.373,2.55l-0.226,1.804
			c-0.099,0.435-0.512,0.786-1.021,0.786c-0.18,0-0.365-0.04-0.5-0.155c-0.418-0.238-0.606-0.508-1.385-2.041
			c-1.197-2.237-2.308-2.861-5.263-2.861h-1.656c-0.738,0.033-0.828,0.114-0.828,0.746v17.854c0,3.188,0.274,3.696,2.258,3.968
			c1.984,0.237,2.443,0.434,2.443,1.064c0,0.55-0.644,0.861-1.754,0.861c-0.226,0-0.734-0.041-1.377-0.041
			c-0.562-0.041-1.016-0.074-1.386-0.074l-2.028-0.041l-2.123-0.081l-1.98,0.041l-2.258,0.081c-0.369,0-0.877,0.033-1.385,0.074
			c-0.644,0-1.152,0.041-1.336,0.041c-1.107,0-1.75-0.312-1.75-0.861c0-0.631,0.459-0.827,2.398-1.064
			c1.931-0.271,2.213-0.779,2.213-3.968v-17.543c0-0.869-0.237-1.058-1.246-1.058c-1.984,0-3.504,0.271-4.426,0.86
			c-0.324,0.197-0.877,0.632-1.566,1.337c-0.651,0.59-1.151,1.14-1.615,1.688c-0.603,0.746-0.922,0.942-1.431,0.942
			c-0.553,0-0.967-0.352-0.967-0.787c0-0.278,0.045-0.59,0.181-0.982l0.697-1.886c0.274-0.746,0.508-1.451,0.644-2.001
			c0.598-2.238,0.828-2.672,1.705-2.672c0.135,0,0.324,0.041,0.414,0.082c0.23,0.082,0.373,0.196,0.463,0.312
			c0.045,0.04,0.135,0.279,0.324,0.664c0.275,0.632,0.549,0.713,2.074,0.713h17.747l1.939-0.041c1.611-0.04,1.889-0.155,2.533-1.057
			c0.373-0.591,0.693-0.746,1.197-0.746c0.606,0,1.062,0.311,1.062,0.704C137.622,183.246,137.58,183.556,137.486,183.951z
			 M109.779,183.475l-0.185,0.591l-0.602,2.122c-0.275,0.943-0.459,1.451-1.107,2.828c0.233-0.278,0.418-0.476,0.508-0.591
			c1.754-2.081,1.935-2.277,3.09-2.786C110.328,184.967,110.103,184.738,109.779,183.475z M120.472,185.713h-1.565l-0.045,18.927
			c0,3.223-0.139,3.689-1.565,4.238c0.922,0,1.287-0.082,1.885-0.434c1.012-0.624,1.291-1.37,1.291-3.648V185.713z M133.109,185.361
			c-0.189,0-0.324,0-1.152-0.042c1.103,0.476,1.471,0.746,2.024,1.418c0.414,0.591,0.599,1.017,0.877,2.083l0.09-0.91l0.143-1.328
			l0.181-1.336l0.09-0.476C134.674,185.246,134.306,185.361,133.109,185.361z"/>
		<path fill="#FFDD5B" d="M166.911,205.035c-0.09,0.394-0.181,0.86-0.275,1.409c-0.229,1.099-0.369,1.845-0.369,2.197
			c-0.09,1.336-0.369,1.729-1.106,1.729c-0.271,0-0.828,0-1.566-0.041c-0.598-0.041-2.029-0.074-4.287-0.115l-3.599-0.081
			l-3.733,0.041h-2.443c-1.11,0.04-2.217,0.04-3.279,0.04c-1.565,0-1.885,0.041-3.36,0.115c-0.599,0.041-0.972,0.041-1.25,0.041
			c-1.008,0-1.565-0.312-1.565-0.861c0-0.631,0.369-0.827,2.172-1.064c1.705-0.271,1.976-0.779,1.976-3.968v-14.519
			c0-3.188-0.271-3.688-1.976-3.935c-1.803-0.27-2.172-0.467-2.172-1.09c0-0.558,0.557-0.868,1.565-0.868
			c0.144,0,0.553,0.04,1.25,0.081c0.778,0.033,2.164,0.074,3.778,0.074c1.246,0.041,2.165,0.041,3.086,0.041
			c4.476,0,10.985-0.156,13.518-0.312c0.503-0.041,0.873-0.082,1.057-0.082c0.648,0,0.877,0.237,0.877,0.787
			c0,0.196,0,0.467-0.049,0.786v1.181c0,0.705,0,1.328,0.049,1.877c0.044,0.238,0.044,0.476,0.044,0.672
			c0,0.706-0.229,1.017-0.873,1.017c-0.647,0-0.967-0.196-1.524-0.975c-0.738-1.107-1.935-2.238-2.676-2.632
			c-0.644-0.353-1.84-0.591-2.906-0.591c-1.566,0-3.41,0.074-4.058,0.238c-0.689,0.115-0.877,0.353-0.877,1.254l-0.045,1.337v4.943
			c0,0.827,0.09,1.254,0.279,1.377c0.185,0.155,0.274,0.155,1.8,0.155c1.246,0,1.938-0.041,2.721-0.114
			c0.603-0.041,1.057-0.164,1.385-0.354c0.549-0.319,0.783-0.63,1.799-2.516c0.32-0.549,0.599-0.746,1.103-0.746
			c0.603,0,1.062,0.394,1.062,0.983c0,0.156-0.049,0.426-0.09,0.902c-0.045,0.27-0.045,0.704-0.094,1.335
			c-0.094,1.1-0.094,1.452-0.094,1.919c0,0.353,0,0.705,0.045,0.983l0.143,1.73c0.041,0.311,0.041,0.59,0.041,0.786
			c0,0.664-0.365,0.976-1.013,0.976c-0.738,0-1.012-0.271-1.611-1.525c-0.877-1.852-2.033-2.557-4.381-2.557
			c-2.816,0-3.095,0.156-3.095,1.729v4.238c0,2.755,0.279,3.812,1.156,4.599c0.692,0.623,1.848,0.935,3.504,0.935
			c3.136,0,5.398-1.058,6.87-3.214l0.922-1.418c0.37-0.509,0.743-0.705,1.292-0.705c0.647,0,1.017,0.354,1.017,0.902
			C167.054,204.321,167.009,204.714,166.911,205.035z M146.806,189.639c0-1.369-0.09-1.959-0.365-2.508
			c-0.414-0.943-1.385-1.46-2.815-1.46c1.43,0.517,1.57,0.984,1.57,4.124v14.845c0,3.223-0.14,3.689-1.57,4.238
			c0.926,0,1.295-0.082,1.894-0.434c1.012-0.624,1.287-1.37,1.287-3.648V189.639z M160.414,196.279c0-1.098,0-1.532,0.185-2.672
			c-0.972,2-1.57,2.435-3.734,2.632c1.242,0.196,1.795,0.426,2.397,1.017c0.595,0.549,0.828,0.909,1.336,2.122
			C160.414,198.001,160.414,197.378,160.414,196.279z M163.685,188.189c0-0.156,0-0.509-0.045-1.058v-1.066
			c0-0.549-0.091-0.581-1.058-0.581h-0.274h-1.709c-0.185,0-0.508,0.032-0.877,0.032c1.111,0.319,1.476,0.508,2.352,1.221
			c0.689,0.591,1.013,0.943,1.661,1.845C163.685,188.425,163.685,188.27,163.685,188.189z M163.086,207.625
			c-0.876,0.746-1.476,1.017-2.951,1.254l0.877,0.041h1.705l1.296,0.032c0.368,0,0.414-0.073,0.459-0.385
			c0.139-0.983,0.365-2.196,0.644-3.459C164.243,206.485,163.918,206.919,163.086,207.625z"/>
		<path fill="#FFDD5B" d="M202.336,210.371h-0.927l-3.131-0.156c-1.017-0.04-1.984-0.081-2.951-0.081
			c-1.385,0-3.045,0.041-5.119,0.155c-0.644,0.041-1.385,0.082-1.565,0.082c-0.832,0-1.295-0.271-1.295-0.819
			c0-0.394,0.233-0.673,0.651-0.829c0.271-0.081,0.414-0.122,1.332-0.236c1.201-0.156,1.705-0.436,1.705-0.902
			c0-0.197-0.086-0.509-0.319-0.983l-0.877-2.001l-1.197-2.352c-0.144-0.361-0.283-0.55-0.373-0.673
			c-0.135-0.115-0.319-0.237-0.549-0.237h-0.648h-7.284c-1.062,0-1.291,0.155-1.61,1.024l-0.464,1.336
			c-0.369,1.058-0.644,2.156-0.644,2.705c0,1.181,0.829,1.771,2.857,2.009c1.565,0.155,1.979,0.344,1.979,1.017
			c0,0.631-0.549,0.942-1.611,0.942c-0.234,0-0.741-0.041-1.201-0.041c-2.025-0.155-2.349-0.196-3.504-0.196
			c-1.106,0-1.562,0.041-3.456,0.196c-0.508,0.041-0.922,0.041-1.295,0.041c-0.877,0-1.381-0.353-1.381-0.942
			c0-0.55,0.414-0.828,1.43-0.983c0.967-0.115,1.426-0.271,1.796-0.582c0.647-0.477,0.922-0.91,2.262-3.697l2.353-4.829l3.594-7.656
			l2.209-4.476c0.418-0.819,0.787-1.565,1.062-2.237c0.553-1.214,1.151-1.566,2.492-1.566c0.967,0,1.34,0.271,1.799,1.337
			c0.644,1.327,1.472,3.099,2.628,5.377l3.455,6.943l2.722,5.542l1.75,3.254c1.25,2.319,1.66,2.672,3.181,2.672
			c1.201,0,1.619,0.229,1.619,0.902C203.812,210.174,203.487,210.371,202.336,210.371z M176.748,208.526
			c-0.644-0.394-0.972-1.057-0.972-2c0-0.475,0.049-0.787,0.275-1.656l0.188-0.746l-0.323,0.673l-0.783,1.688
			c-0.737,1.524-1.246,2.041-2.816,2.632c1.34-0.123,1.894-0.123,2.767-0.123c0.508,0,1.291,0,2.352,0.041l1.292,0.082
			C177.481,208.837,177.211,208.755,176.748,208.526z M186.981,198.788c-0.098-0.237-0.18-0.394-0.233-0.467l-3.041-6.05
			c-0.184-0.312-0.365-0.55-0.463-0.55c-0.139,0-0.365,0.395-0.688,0.984c-0.185,0.393-0.508,1.058-0.972,1.959
			c-0.553,1.139-0.968,1.968-1.197,2.558c-0.278,0.549-0.458,0.901-0.553,1.058c-0.09,0.237-0.185,0.426-0.185,0.623
			c0,0.36,0.279,0.475,1.013,0.475h5.443c0.778,0,0.967-0.041,0.967-0.311C187.072,198.984,187.027,198.903,186.981,198.788z
			 M192.466,204.714l-7.837-16.174l-0.828,1.647l7.418,15.198c0.647,1.377,0.836,1.845,0.836,2.354c0,0.434-0.238,0.746-0.836,1.098
			c1.385-0.196,2.078-0.705,2.078-1.688C193.298,206.64,193.023,205.895,192.466,204.714z"/>
		<path fill="#FFDD5B" d="M43.741,145.758c0,41.094,51.078,74.531,113.862,74.531c62.772,0,113.845-33.438,113.845-74.531
			c0-41.095-51.073-74.528-113.845-74.528C94.819,71.23,43.741,104.663,43.741,145.758z M44.675,145.758
			c0-40.603,50.656-73.639,112.927-73.639c62.259,0,112.919,33.036,112.919,73.639c0,40.603-50.66,73.646-112.919,73.646
			C95.331,219.404,44.675,186.361,44.675,145.758z"/>
		<path fill-rule="evenodd" clip-rule="evenodd" fill="#FFDD5B" d="M245.543,162.367c0,1.016-0.938,1.845-2.099,1.845
			c-1.146,0-2.081-0.829-2.081-1.845c0-1.025,0.935-1.844,2.081-1.844C244.605,160.522,245.543,161.342,245.543,162.367z
			 M209.689,159.079c0,1.025-0.938,1.845-2.095,1.845c-1.151,0-2.09-0.82-2.09-1.845c0-1.016,0.939-1.844,2.09-1.844
			C208.75,157.235,209.689,158.063,209.689,159.079z M208.389,138.873c0,1.025-0.931,1.844-2.086,1.844
			c-1.156,0-2.091-0.819-2.091-1.844c0-1.016,0.935-1.836,2.091-1.836C207.458,137.037,208.389,137.857,208.389,138.873z
			 M207.811,148.726c0,1.017-0.935,1.844-2.09,1.844c-1.148,0-2.082-0.828-2.082-1.844c0-1.016,0.934-1.844,2.082-1.844
			C206.876,146.882,207.811,147.71,207.811,148.726z M250.737,139.094c-0.598,0.213-1.323,0.082-2.192,0.082
			c-0.713,0-1.824,0.148-2.229-0.082c-0.315-0.18-0.578-1.065-0.771-1.639c-1.393-4.211-3.049-8.204-5.492-11.278
			c-2.664-3.345-7.074-6.206-13.57-5.337c-5.423,0.722-8.505,4.411-10.3,8.866c-1.562,3.885-2.324,8.846-2.578,14.249
			c-0.053,1.287-0.131,2.254,0.307,3.058c0.35,0.304,0.689,0.517,1.242,0.729c0.319,0.123,1.353,0.287,1.373,0.606
			c0.017,0.229-0.631,0.427-0.856,0.558c-0.262,0.155-0.7,0.319-0.901,0.475c-0.64,0.476-0.804,1.115-1.07,1.853
			c0.312,6.304,1.242,11.665,3.559,16.058c2.094,3.96,5.66,8.075,12.406,6.755c5.546-1.082,7.025-6.147,6.783-12.738
			c-0.197-5.205-1.529-7.812-6.181-8.525c-0.623-0.098-1.459-0.172-2.229-0.213c-0.599-0.041-1.894,0.082-2.151-0.262
			c-0.186-0.254-0.087-1.246-0.087-1.812c0-0.73-0.151-1.443,0.087-1.763c0.336-0.443,3.103-0.213,3.905-0.213h26.785
			c0.717,0,1.599-0.082,1.931,0.082c0.467,0.238,0.385,0.91,0.385,1.771c0,0.664,0.119,1.779-0.123,2.024
			c-0.271,0.262-1.688,0.172-2.192,0.213c-2.619,0.197-5.054,0.435-5.881,2.583c-0.533,1.385-0.427,3.263-0.427,5.124v16.443
			c-0.477,0.631-2.378,0.607-3.222,0.304c-0.463-0.083-0.718-0.5-0.992-0.779c-0.573-0.59-1.095-1.131-1.713-1.803
			c-0.496-0.55-0.964-0.943-1.931-0.688c-0.546,0.139-1.106,0.532-1.628,0.819c-3.664,1.935-8.062,3.435-13.436,3.656
			c-6.34,0.254-11.156-1.697-15.283-4.223c-3.939-2.409-7.377-5.909-9.829-9.729c-1.853-2.894-3.378-6.312-4.12-10.542
			c-0.229-1.295-0.275-3.05-0.947-3.918c-0.323-0.426-1.062-0.959-1.717-1.205c-0.156-0.058-0.627,0-0.644-0.304
			c-0.012-0.237,0.471-0.352,0.685-0.434c0.344-0.131,0.508-0.188,0.82-0.254c0.652-0.508,1.111-0.778,1.373-1.467
			c0.369-0.976,0.349-2.164,0.513-3.14c0.532-3.124,1.426-5.754,2.615-8.311c1.512-3.225,3.418-6.226,5.886-8.693
			c4.742-4.754,10.939-8.915,19.956-9.34c6.439-0.308,10.395,1.815,14.555,3.914c0.582,0.295,1.418,0.75,2.145,0.644
			c0.663-0.095,1.192-0.729,1.585-1.206c0.41-0.479,0.845-1.238,1.378-1.418c0.344-0.115,2.636-0.073,2.918,0.086
			c0.508,0.283,0.5,1.292,0.557,2.238c0.395,5.812,0.706,11.226,1.119,17.003C250.938,138.365,251,138.783,250.737,139.094z"/>
		<path fill-rule="evenodd" clip-rule="evenodd" fill="#FFDD5B" d="M88.449,137.61c0,1.025-0.938,1.844-2.09,1.844
			c-1.156,0-2.09-0.819-2.09-1.844c0-1.016,0.935-1.836,2.09-1.836C87.511,135.774,88.449,136.594,88.449,137.61z M88.302,159.079
			c0,1.017-0.935,1.845-2.091,1.845c-1.156,0-2.09-0.829-2.09-1.845c0-1.016,0.934-1.844,2.09-1.844
			C87.367,157.235,88.302,158.063,88.302,159.079z M88.302,148.349c0,1.017-0.935,1.845-2.091,1.845c-1.156,0-2.09-0.828-2.09-1.845
			s0.934-1.844,2.09-1.844C87.367,146.504,88.302,147.332,88.302,148.349z M69.591,177.147c-0.25-0.779-0.111-2.181-0.082-3.1
			c0.508-0.434,1.188-0.27,1.758-0.303c3.275-0.14,6.295-0.55,7.381-2.927c0.443-0.959,0.479-2.049,0.479-3.615v-14.46
			c0-0.713,0.099-1.476,0-2.024c-0.18-0.942-1.312-1.574-2.238-1.853c-0.446-0.131-1.049-0.164-1.074-0.426
			c-0.021-0.304,0.73-0.508,1.074-0.656c1.107-0.452,1.988-1.058,2.238-2.32c-0.037-7.747,0.054-15.61-0.049-23.291
			c-0.369-0.558-1.09-0.418-1.672-0.385c-9.558,0.562-14.723,5.099-15.153,14.938c-0.033,0.705,0.078,1.737-0.168,1.983
			c-0.312,0.296-1.804,0.124-2.537,0.124c-1.021,0-1.979,0.065-2.619-0.083c-0.319-0.336-0.143-0.861-0.082-1.295
			c0.844-5.982,1.672-12,2.615-18.123c0.127-0.815,0.18-2.278,0.685-2.496c1.041-0.438,1.226,0.59,1.717,0.905h45.544
			c1.013,0,2.23,0.177,3.008,0c0.242-0.057,0.623-0.336,0.771-0.517c0.188-0.237,0.246-0.733,0.815-0.688
			c1.024,0.078,0.947,1.438,1.074,2.238c0.869,5.726,1.783,11.497,2.619,17.171c0.106,0.738,0.525,2.476,0.213,2.804
			c-0.208,0.213-1.975,0.083-2.619,0.083c-0.972,0-2.324,0.105-2.578-0.083c-0.304-0.229-0.217-1.288-0.258-1.894
			c-0.599-9.371-5.021-14.626-14.55-15.068c-0.651-0.029-1.525-0.111-1.885,0.127c-0.463,0.315-0.385,1.582-0.385,2.672v18.335
			c0,0.967-0.164,2.132,0,3.017c0.131,0.754,0.873,1.418,1.455,1.68c0.221,0.099,1.574,0.238,1.632,0.599
			c0.065,0.41-0.459,0.483-0.644,0.557c-1.156,0.492-2.152,0.967-2.402,2.369c-0.143,0.795-0.041,1.656-0.041,2.542v12.919
			c0,1.811,0.021,3.426,0.598,4.517c0.668,1.246,1.988,1.91,3.566,2.237c0.774,0.165,2.611,0.369,3.988,0.386
			c0.455,0.009,1.074-0.058,1.246,0.172c0.16,0.222,0.086,1.05,0.086,1.64c0,0.606,0.086,1.328-0.172,1.549
			c-0.246,0.214-1.291,0.132-1.976,0.132H77.879C75.055,177.237,72.071,177.302,69.591,177.147z"/>
		<path fill-rule="evenodd" clip-rule="evenodd" fill="#FFDD5B" d="M172.973,154.153c0,1.024-0.938,1.845-2.095,1.845
			c-1.151,0-2.086-0.82-2.086-1.845c0-1.017,0.935-1.844,2.086-1.844C172.034,152.309,172.973,153.136,172.973,154.153z
			 M167.209,134.584c0,1.018-0.93,1.838-2.09,1.838c-1.147,0-2.086-0.82-2.086-1.838c0-1.021,0.939-1.845,2.086-1.845
			C166.279,132.739,167.209,133.563,167.209,134.584z M170.238,144.431c0,1.024-0.938,1.844-2.094,1.844
			c-1.156,0-2.09-0.82-2.09-1.844c0-1.017,0.934-1.845,2.09-1.845C169.3,142.586,170.238,143.415,170.238,144.431z M142.728,154.153
			c0,1.024-0.93,1.845-2.09,1.845c-1.151,0-2.086-0.82-2.086-1.845c0-1.017,0.935-1.844,2.086-1.844
			C141.798,152.309,142.728,153.136,142.728,154.153z M137.691,135.471c0,1.017-0.93,1.844-2.086,1.844
			c-1.161,0-2.091-0.828-2.091-1.844c0-1.019,0.93-1.846,2.091-1.846C136.761,133.625,137.691,134.453,137.691,135.471z
			 M140.286,144.939c0,1.017-0.938,1.844-2.091,1.844c-1.156,0-2.09-0.828-2.09-1.844c0-1.016,0.934-1.845,2.09-1.845
			C139.347,143.094,140.286,143.923,140.286,144.939z M145.913,117.997c0.086,0.352,0.041,0.959,0.041,1.594
			c0,0.57,0.103,1.295-0.127,1.504c-0.324,0.304-1.889,0.156-2.401,0.217c-1.767,0.213-3.283,0.754-3.476,2.586
			c-0.172,1.598,0.36,3.16,0.684,4.385c0.685,2.583,1.537,5.353,2.271,7.884c0.394,1.319,0.64,2.722,1.123,3.958
			c0.152,0.402,0.816,1.124,1.328,1.296c0.447,0.139,1.066,0.024,1.496,0.164c0.119,0.426-0.369,0.59-0.554,0.819
			c-0.192,0.254-0.41,0.59-0.557,0.861c-0.606,1.107-0.127,2.475,0.213,3.664c1.004,3.492,2.07,7.312,3.05,10.583
			c0.258-0.106,0.312-0.451,0.389-0.68c3.09-9.132,5.779-17.133,8.111-23.938c-1.692-4.657-1.91-10.957-7.427-11.628
			c-0.352-0.037-0.836-0.021-1.033-0.213c-0.443-0.435-0.086-2.533-0.082-3.14c0.471-0.303,1.09-0.172,1.627-0.172h22.924
			c0.869,0,2.959-0.229,3.394,0.127c0.279,0.234,0.168,0.938,0.168,1.639c0,0.713,0.098,1.456-0.168,1.636
			c-0.365,0.238-1.606,0.131-2.062,0.168c-2.008,0.168-3.951,0.533-4.849,1.853c-0.791,1.164-0.151,3.447,0.218,4.734l2.447,8.523
			c0.401,1.418,0.586,2.5,2.23,2.672c0.258,0.025,1.164-0.115,1.241,0.213c0.058,0.238-0.328,0.427-0.553,0.606
			c-0.726,0.558-1.217,1.443-1.074,2.755c0.061,0.606,0.348,1.254,0.512,1.893c1.091,4.271,2.476,8.804,3.652,12.952
			c0.345-0.229,0.373-0.778,0.513-1.205c2.651-8.025,5.43-16.058,8.115-24.192c0.57-1.746,1.271-3.394,1.5-5.295
			c0.496-4.25-2.377-5.25-6.177-5.554c-0.344-0.025-1.242,0.062-1.508-0.172c-0.247-0.217-0.172-0.881-0.172-1.549
			c0-0.647-0.086-1.336,0.086-1.59c0.258-0.381,1.688-0.213,2.451-0.213h15.841c0.627,0,2.16-0.208,2.443,0.172
			c0.233,0.315,0.172,2.812-0.045,3.099c-0.279,0.357-1.553,0.274-2.103,0.386c-4.734,0.951-5.755,5.82-7.21,10.074
			c-4.156,12.13-8.41,24.525-12.706,36.763c-0.615,1.746-1.279,3.607-1.931,5.468c-0.221,0.623-0.557,1.427-0.521,1.942
			c0.045,0.5,0.566,0.681,0.479,1.246c-0.422,0.5-1.271,0.345-2.021,0.345h-4.722c-0.77,0-1.599,0.147-2.102-0.262
			c-0.181-0.6,0.492-0.746,0.557-1.206c0.049-0.353-0.205-0.999-0.344-1.5c-1.98-6.968-4.074-14.312-5.972-21.182
			c-0.479-0.435-1.028-0.935-1.754-1.123c-0.373-0.098-0.935,0.098-1.25-0.213c0.147-0.493,0.705-0.656,1.033-0.992
			c0.414-0.418,0.853-1.041,0.734-1.935c-0.09-0.664-0.357-1.393-0.558-2.114c-0.553-1.919-1.213-4.32-1.807-6.116
			c-0.278,0.188-0.344,0.673-0.471,1.041c-3.664,10.509-7.099,21.239-10.861,31.855c-0.229,0.655-0.726,1.688-0.685,2.238
			c0.028,0.475,0.603,0.517,0.549,1.032c-0.049,0.631-1.127,0.476-2.099,0.476h-5.147c-0.603,0-1.967,0.132-2.103-0.385
			c-0.172-0.664,0.746-0.706,0.857-1.165c0.074-0.311-0.185-1.049-0.34-1.64c-1.598-5.836-3.303-11.984-4.894-17.779
			c-0.599-2.173-1.111-4.304-1.808-6.411c-0.098-0.311-0.545-0.664-0.836-0.942c-0.537-0.5-0.901-0.665-1.865-0.697
			c-0.381-0.009-0.808,0.197-0.947-0.132c0.209-0.516,0.885-0.631,1.332-0.984c0.369-0.294,0.902-0.852,0.988-1.294
			c0.107-0.558-0.172-1.37-0.344-1.976c-1.213-4.336-2.283-8.263-3.476-12.577c-1.189-4.295-1.972-8.697-6.308-9.726
			c-0.656-0.156-1.578-0.205-1.758-0.517c-0.274-0.458-0.164-2.525,0.082-2.885c0.447-0.664,2.541-0.386,3.861-0.386h21.293
			C145.011,117.742,145.536,117.652,145.913,117.997z"/>
		<path fill-rule="evenodd" clip-rule="evenodd" fill="#FFDD5B" d="M203.906,119.431c-0.193,0.065-0.292,0.271-0.226,0.463
			c0.197,0.603,0.054,3.422-0.361,3.574c-4.599-0.086-6.574,2.889-6.898,3.938c-0.172,0.533-16.747,48.567-16.916,49.059
			l-0.049,0.148l0.074,0.147c0.422,0.771,0.873,2.065,0.5,2.402c-0.528,0.467-1.893,0.639-2.365,0.582l-7.291-0.066
			c-0.201,0-0.361,0.156-0.361,0.361s0.16,0.36,0.361,0.36l7.246,0.074c0.156,0.024,2.021,0.008,2.889-0.771
			c0.279-0.245,0.381-0.606,0.381-0.991c0-0.845-0.451-1.771-0.656-2.147c0.98-2.828,16.724-48.457,16.871-48.937
			c0.233-0.746,1.967-3.513,6.205-3.435c0.185,0,0.438-0.062,0.656-0.365c0.656-0.917,0.554-3.701,0.397-4.168
			C204.303,119.472,204.094,119.365,203.906,119.431z M252.294,121.193c-0.106,0.004-0.205,0.058-0.27,0.136
			c-0.07,0.078-0.095,0.188-0.083,0.291c0.083,0.508,1.119,13.63,1.283,17.745c0.025,0.582-0.054,1.361-0.226,1.59
			c-0.259,0.246-2.185,0.229-4.037,0.213c-0.201,0-0.361,0.156-0.361,0.353s0.156,0.361,0.353,0.369
			c3.009,0.025,4.247,0.017,4.628-0.517c0.41-0.557,0.365-1.893,0.356-2.041l-0.692-10.507
			C252.667,121.189,252.667,121.189,252.294,121.193z M228.6,122.833c-6.627,0.463-13.436,6.943-12.673,23.754
			c0.012,0.196,0.172,0.353,0.377,0.344c0.196-0.008,0.349-0.18,0.34-0.377c-0.742-16.294,5.718-22.565,12.005-23.004
			c4.238-0.295,6.932,1.472,7.227,1.672c0.168,0.11,0.389,0.07,0.495-0.094c0.12-0.164,0.074-0.385-0.086-0.5
			C235.965,124.411,233.081,122.525,228.6,122.833z M218.169,150.07c-1.796,1.099-1.984,2.058-1.955,3.845
			c0.053,4.042,2.062,13.412,5.713,16.935c0.144,0.14,0.365,0.132,0.5-0.007c0.14-0.148,0.135-0.369-0.008-0.509
			c-3.254-3.147-5.427-11.837-5.492-16.428c-0.021-1.648,0.106-2.295,1.618-3.222c0.169-0.098,0.222-0.319,0.12-0.492
			C218.559,150.03,218.341,149.972,218.169,150.07z M261.3,149.997c-0.197,0.008-0.35,0.18-0.337,0.377
			c0.004,0.032,0.144,2.836-0.029,3.738c-0.102,0.525-0.512,0.721-1.446,0.713l-0.271-0.007c-1.037-0.025-3.468-0.083-4.722,0.532
			c-1.278,0.623-1.554,1.344-1.778,1.918l-0.083,0.221c-0.25,0.599-0.241,3.632-0.188,8.944c0.041,4.778,0.106,12.009-0.357,12.689
			c-0.561,0.352-1.922,0.532-3.738-0.229c-0.176-0.074-0.389,0.017-0.467,0.196c-0.073,0.181,0.013,0.394,0.193,0.467
			c2.065,0.869,3.651,0.64,4.442,0.132c0.647-0.41,0.726-3.665,0.64-13.264c-0.032-3.828-0.069-8.165,0.131-8.656l0.099-0.239
			c0.192-0.507,0.39-1.032,1.418-1.532c1.103-0.542,3.492-0.484,4.394-0.467l0.283,0.008c0.521,0.008,1.89,0.024,2.151-1.288
			c0.193-0.983,0.045-3.795,0.041-3.91C261.672,150.145,261.5,149.989,261.3,149.997z M225.792,154.792
			c-0.016,0.197,0.127,0.369,0.328,0.385l0.778,0.066c2.058,0.147,5.173,0.377,6.132,1.484c0.136,0.155,0.36,0.172,0.504,0.041
			c0.155-0.131,0.164-0.353,0.037-0.508c-1.156-1.328-4.315-1.566-6.62-1.738l-0.773-0.058
			C225.981,154.448,225.809,154.595,225.792,154.792z M208.262,173.811c-0.151,0.122-0.176,0.352-0.054,0.499
			c4.578,5.706,23.499,10.641,33.761,2.697c0.16-0.123,0.189-0.353,0.066-0.509c-0.119-0.155-0.345-0.18-0.5-0.065
			c-9.977,7.723-28.33,2.951-32.769-2.565C208.644,173.711,208.417,173.687,208.262,173.811z M193.917,151.054
			c-0.049,0.188,0.069,0.385,0.263,0.426c0.975,0.222,1.418,1.263,1.639,1.763l0.09,0.197c0.083,0.18,0.283,0.254,0.459,0.172
			c0.184-0.082,0.262-0.312,0.18-0.492l-0.078-0.164c-0.238-0.557-0.808-1.869-2.136-2.18
			C194.143,150.735,193.95,150.857,193.917,151.054z M181.109,123.489c0,0.201,0.164,0.36,0.356,0.36c1.176,0,4,0.16,4.947,1.631
			c0.103,0.164,0.324,0.213,0.496,0.106c0.164-0.106,0.209-0.328,0.106-0.496c-1.094-1.705-3.943-1.958-5.549-1.958
			C181.272,123.132,181.109,123.292,181.109,123.489z M178.158,140.241l-0.381,0.484c-0.529,0.64-0.979,1.188-0.754,2.369
			c0.156,0.844,2.074,7.403,2.185,7.788c0.054,0.18,0.254,0.295,0.447,0.238c0.188-0.066,0.299-0.263,0.238-0.451
			c-0.956-3.165-2.05-7.067-2.165-7.707c-0.164-0.852,0.095-1.164,0.603-1.778l0.401-0.517c0.127-0.147,0.09-0.369-0.062-0.492
			C178.514,140.053,178.285,140.086,178.158,140.241z M178.248,123.104c-0.619,0-4.3,0.221-5.332,1.389
			c-0.468,0.537-0.902,1.483-0.308,2.992c0.106,0.299,1.787,5.882,2.967,10.027c0.049,0.196,0.25,0.304,0.442,0.254
			c0.185-0.058,0.3-0.254,0.246-0.442c-0.5-1.754-2.869-9.794-2.988-10.093c-0.373-0.947-0.312-1.705,0.172-2.263
			c0.763-0.86,4.033-1.143,4.706-1.143C178.817,123.828,178.908,123.111,178.248,123.104z M159.435,154.071
			c0,0.196,0.164,0.36,0.361,0.36c0.782,0,1.586,0.574,1.717,0.82c0.094,0.172,0.308,0.238,0.483,0.147
			c0.172-0.09,0.238-0.312,0.148-0.483c-0.258-0.493-1.304-1.205-2.349-1.205C159.599,153.71,159.435,153.874,159.435,154.071z
			 M159.43,148.292c-10.525,30.298-9.918,28.929-9.91,29.035l0.365,1.024l0.057,0.132c0.042,0.114,0.103,0.468-0.028,0.714
			c-0.09,0.146-0.242,0.245-0.476,0.303l-8.862-0.017c-0.197,0-0.356,0.163-0.356,0.36s0.16,0.36,0.356,0.36h8.944
			c0.619-0.131,0.889-0.435,1.008-0.655c0.316-0.558,0.119-1.221,0.095-1.295l-0.082-0.189l-0.304-0.811
			c0.152-0.623,6.316-18.519,9.87-28.732c0.066-0.18-0.037-0.385-0.225-0.45C159.701,148.005,159.492,148.103,159.43,148.292z
			 M128.751,149.857c-0.201,0.008-0.348,0.172-0.34,0.369c0.004,0.197,0.172,0.353,0.369,0.344c0.607-0.024,1.984,0.557,2.427,1.271
			c0.098,0.164,0.323,0.213,0.492,0.106c0.168-0.098,0.217-0.319,0.115-0.492C131.207,150.48,129.563,149.817,128.751,149.857z
			 M148.913,142.471c-0.451,0.451-1.459,1.648-1.111,3.025l1.611,5.624c-0.058-0.197,0.234,0.237,0.422,0.188
			c0.193-0.058,0.218-0.582,0.267-0.385l-1.606-5.599c-0.258-1.025,0.557-1.984,0.918-2.345c0.144-0.139,0.144-0.369,0-0.508
			C149.278,142.324,149.048,142.324,148.913,142.471z M148.831,123.538c-0.024,0.197,0.115,0.377,0.316,0.397
			c0.897,0.106,2.483,0.553,3.103,1.582c0.107,0.168,0.32,0.222,0.492,0.115c0.168-0.098,0.221-0.32,0.123-0.487
			c-0.824-1.361-2.771-1.82-3.64-1.918C149.032,123.202,148.856,123.341,148.831,123.538z M147.069,122.952l-0.951,0.11
			c-1.472,0.131-2.177-0.057-2.746,0.401c-0.898,0.718-1.181,1.91-0.89,2.829l0.373,1.32c3.521,12.466,3.599,12.564,3.689,12.671
			c0.115,0.14,0.303,0.164,0.455,0.073c0.152-0.098,0.209-0.303,0.135-0.458c-0.201-0.476-2.75-9.511-3.59-12.483l-0.377-1.345
			c-0.221-0.672,0.004-1.528,0.647-2.049c0.451-0.357,1.443-0.16,2.369-0.246l1.033-0.119
			C147.934,123.509,147.614,122.84,147.069,122.952z M119.911,123.39c-0.193,0.012-0.344,0.188-0.328,0.385
			c0.012,0.196,0.185,0.344,0.385,0.328c0.971-0.074,2.697,0.943,3.312,1.64c0.131,0.155,0.353,0.168,0.504,0.037
			c0.147-0.131,0.16-0.356,0.033-0.508C123.107,124.459,121.181,123.292,119.911,123.39z M115.23,118.386
			c-0.193,0.033-0.332,0.213-0.299,0.41l3.25,20.84c-0.017-0.016-0.144,0.763-0.881,0.721l-4.726-0.032
			c-0.201,0-0.356,0.156-0.361,0.361c0,0.196,0.16,0.353,0.357,0.36l4.709,0.025c1.119,0.065,1.542-0.918,1.607-1.451l-3.25-20.935
			C115.607,118.488,115.423,118.357,115.23,118.386z M97.307,124.243c-0.418,0.053-0.833,0.139-1.086,0.41l-0.172,0.611
			c-0.02,0.017,0.124,0.246,0.172,20.758c0,0.196,0.156,0.352,0.349,0.352c0.201,0,0.356-0.155,0.356-0.352
			c-0.021-7.009-0.217-20.16-0.18-20.631l0.024-0.295c0.045-0.041,0.263-0.106,0.623-0.151c0.565-0.07,5.435,0.532,6.218,1.717
			c0.106,0.168,0.324,0.213,0.488,0.103c0.16-0.106,0.205-0.324,0.098-0.487C103.102,124.603,97.598,124.209,97.307,124.243z
			 M98.676,149.898c-0.964,0.14-2.82,1.017-2.956,3.23l0.188,17.248c0,0.197,0.164,0.353,0.361,0.353
			c0.196-0.008,0.356-0.164,0.356-0.361l-0.192-17.222c0.131-2.156,2.262-2.524,2.349-2.541c0.197-0.033,0.328-0.213,0.299-0.41
			C99.049,149.997,98.868,149.866,98.676,149.898z M105.061,176.465v2.092c0,0.04-0.029,0.803-0.692,1.082H71.792
			c-0.192,0-0.352,0.155-0.352,0.36c0,0.196,0.16,0.36,0.352,0.36h32.741c1.229-0.468,1.242-1.746,1.242-1.803v-2.092
			c0-0.196-0.156-0.359-0.356-0.359C105.221,176.106,105.061,176.269,105.061,176.465z M75.05,150.513
			c-0.033,0.197,0.107,0.377,0.303,0.401c0.828,0.123,1.984,1.517,2.111,1.771c0.086,0.172,0.299,0.246,0.471,0.164
			c0.172-0.082,0.258-0.278,0.18-0.451c-0.127-0.303-1.476-2.024-2.66-2.188C75.26,150.177,75.075,150.316,75.05,150.513z
			 M72.85,124.907c-2.033,0.697-4.107,1.558-5.476,3.164c-2.812,3.299-3.185,8.49-3.381,11.277c-0.045,0.68-0.094,1.377-0.16,1.524
			c-0.062,0.083-0.488,0.148-0.894,0.115h-4.82c-0.197,0-0.361,0.157-0.361,0.353c0,0.205,0.164,0.361,0.361,0.361h4.783
			c0.258,0.025,1.238,0.083,1.554-0.484c0.135-0.246,0.172-0.705,0.254-1.812c0.188-2.713,0.549-7.749,3.209-10.867
			c1.258-1.476,3.221-2.291,5.156-2.951c1.68-0.574,3.217-0.935,4.303-0.766c0.193,0.028,0.373-0.106,0.41-0.304
			c0.025-0.192-0.106-0.373-0.299-0.406C76.178,123.911,74.464,124.353,72.85,124.907z"/>
		<path fill-rule="evenodd" clip-rule="evenodd" fill="#FFDD5B" d="M168.935,53.368c-0.75-0.455-2.222-0.356-3.164-0.381
			c3.333,1.18,7.706,2.627,11.497,4.053c0.36-0.729-1.25-1.688-1.344-2.61c1.074,0.164,2.364,2.07,2.09,3.418
			c-4.443-1.25-9.091-3.045-13.567-4.394c-1.738-2.369-1.418-5.463-2.496-8.066c-0.074-1.037-0.574-2.541-0.964-4.131
			c-0.312-1.271-1.123-3.267-0.643-4.14c0.807-1.464,3.242-1.054,4.984-1.094c1.734-0.074,3.804,0.065,5.57,0.073
			c3.665,0.275,7.099,0.222,10.886,0.799c22.777,1.586,47.733,8.275,73.9,18.985c20.976,8.583,38.199,20.268,51.463,32.425
			c-0.182,0.562-0.182,1.058-0.25,1.578c-2.354,2.078-4.842,3.803-7.326,5.549c-2.438,1.759-4.688,4.004-7.335,5.238
			c-11.821-5.533-22.31-7.648-32.326-8.558c1.426-2.894,4.299-4.459,6.882-5.291c-6.907-2.328-12.993-2.549-19.88-4.833
			c3.702-2.849,8.874-1.939,13.436-2.591c2.001,0.254,3.833,0.058,5.939,0.578c-13.993-8.091-30.376-14.968-47.995-19.453
			c-17.133-4.361-33.638-6.467-49.106-7.353c0.512,0.664,2.135-0.073,2.229,1.029c-0.033,0.397-3.747-0.229-2.607-0.894
			C168.849,53.327,168.891,53.348,168.935,53.368z M295.023,79.042c-11.115-8.095-23.51-15.714-38.716-22.01
			c-30.404-12.578-56.172-18.768-82.523-19.739c-3.639-0.213-7.414-0.759-10.738-0.165c0.041,2.57,0.954,4.845,1.426,7.268
			c0.151,1.226,0.537,2.365,0.746,3.57c0.434,1.16,0.278,2.529,1.065,3.566c20.268,1.254,41.241,4.455,64.206,11.525
			c23.858,7.345,47.545,20.674,61.611,34.786c3.3-2.554,6.698-5.23,9.926-7.739c1.045-0.812,2.461-1.508,3.025-2.767
			C302.572,84.272,298.032,81.923,295.023,79.042z M282.523,90.67c-3.669-2.815-7.768-5.574-12.063-8.009
			c-7.897-1.819-15.439-2.726-21.882-0.832c7.373,2.237,14.591,2.59,21.907,5.615c-3.246,0.516-6.234,1.709-8.809,3.942
			c9.448,1.062,20.272,3.492,29.933,8.226C289.752,96.113,286.113,93.425,282.523,90.67z"/>
		<path fill-rule="evenodd" clip-rule="evenodd" fill="#FFDD5B" d="M143.359,53.515c1.086,0.623-2.488,1.246-2.521,0.873
			c0.106-1.045,1.656-0.356,2.156-0.992c-14.882,0.976-30.773,3.119-47.291,7.398c-16.989,4.402-32.802,11.054-46.332,18.837
			c2.025-0.508,3.787-0.34,5.713-0.599c4.382,0.574,9.362-0.336,12.899,2.328c-6.644,2.226-12.497,2.484-19.166,4.754
			c2.484,0.763,5.234,2.222,6.579,4.943c-9.645,0.951-19.751,3.045-31.167,8.39c-2.537-1.14-4.681-3.25-7.013-4.89
			c-2.374-1.627-4.751-3.238-6.993-5.185c-0.062-0.496-0.058-0.963-0.226-1.492c12.862-11.624,29.531-22.834,49.783-31.146
			c25.265-10.37,49.324-16.923,71.244-18.628c3.644-0.582,6.943-0.562,10.477-0.857c1.693-0.02,3.684-0.167,5.353-0.118
			c1.68,0.02,4.025-0.386,4.787,0.991c0.451,0.824-0.349,2.718-0.664,3.923c-0.385,1.508-0.881,2.935-0.955,3.918
			c-1.062,2.471-0.783,5.398-2.476,7.652c-4.316,1.32-8.804,3.058-13.087,4.279c-0.254-1.271,1.008-3.086,2.041-3.254
			c-0.098,0.877-1.656,1.8-1.315,2.488c3.655-1.385,7.877-2.795,11.086-3.938c-0.906,0.033-2.315-0.05-3.042,0.385
			C143.273,53.556,143.314,53.54,143.359,53.515z M12.025,86.953c0.529,1.18,1.885,1.828,2.881,2.586
			c3.09,2.349,6.329,4.849,9.472,7.234c13.661-13.48,36.561-26.306,59.57-33.474c22.149-6.894,42.348-10.111,61.854-11.48
			c0.762-0.988,0.623-2.283,1.049-3.385c0.213-1.14,0.599-2.222,0.75-3.385c0.479-2.296,1.377-4.452,1.443-6.89
			c-3.197-0.533-6.829,0.021-10.329,0.258c-25.347,1.155-50.188,7.242-79.54,19.419C44.491,63.926,32.51,71.25,21.743,79.009
			C18.829,81.764,14.439,84.026,12.025,86.953z M24.842,98.446c9.333-4.57,19.768-6.968,28.859-8.055
			c-2.456-2.094-5.312-3.192-8.439-3.655c7.07-2.923,14.014-3.329,21.125-5.509c-6.181-1.734-13.439-0.808-21.047,0.987
			c-4.16,2.34-8.127,4.988-11.677,7.686C30.182,92.535,26.657,95.117,24.842,98.446z"/>
		<path fill="#FFDD5B" stroke="#FFDD5B" stroke-width="0.5" stroke-miterlimit="10" d="M150.237,43.158
			c-0.078,0.028-0.11,0.115-0.082,0.192c0.029,0.074,0.115,0.111,0.193,0.082c5-1.988,11.206-0.365,11.271-0.348
			c0.074,0.021,0.156-0.029,0.176-0.106c0.02-0.078-0.024-0.156-0.102-0.181C161.627,42.781,155.332,41.138,150.237,43.158z"/>
		<path fill="#FFDD5B" stroke="#FFDD5B" stroke-width="0.5" stroke-miterlimit="10" d="M147.417,53.155
			c-0.074,0.024-0.119,0.102-0.094,0.176c0.021,0.074,0.103,0.119,0.181,0.094c10.32-3.205,17.907,0.14,17.977,0.172
			c0.078,0.032,0.159,0,0.196-0.074c0.029-0.069,0-0.152-0.073-0.188C165.529,53.302,157.848,49.913,147.417,53.155z"/>
		<path fill-rule="evenodd" clip-rule="evenodd" fill="#FFDD5B" d="M300.262,83.907c-0.109,0.758-1.947,1.816-2.844,2.385
			c-0.935,1.107-2.16,1.459-3.095,2.574c-1.119,0.631-2.135,1.537-3.164,2.39c-1.091,0.365-2.136,2.246-3.193,1.763
			C292.082,90.039,296.003,86.543,300.262,83.907z"/>
		<path fill-rule="evenodd" clip-rule="evenodd" fill="#FFDD5B" d="M301.59,84.83c0.23,0.061,0.172,0.221,0.336,0.308
			c-2.053,1.647-4.148,3.181-6.201,4.832c-1.087,0.726-2.05,1.75-3.165,2.394c-1.09,0.619-1.827,2.136-3.18,2.074
			C293.38,91.064,297.503,87.99,301.59,84.83z"/>
		<path fill-rule="evenodd" clip-rule="evenodd" fill="#FFDD5B" d="M302.799,86.001c-0.045,0.832-1.984,1.513-2.713,2.439
			c-3.193,2.315-6.263,4.942-9.501,7.168c0.222-1.082,1.57-1.713,2.583-2.505c0.996-0.766,2.11-1.553,2.983-2.324
			c2.053-1.451,4.029-3.115,6.078-4.582c0.119-0.07,0.238-0.144,0.312-0.32C302.627,85.919,302.713,85.961,302.799,86.001z"/>
		<path fill-rule="evenodd" clip-rule="evenodd" fill="#FFDD5B" d="M303.738,86.736c0.076,0.115,0.15,0.229,0.336,0.307
			c-4.205,3.053-8.194,6.664-12.477,9.492c-0.037-0.959,1.91-1.533,2.582-2.508c1.099-0.59,2.021-1.635,3.107-2.258
			c1.959-1.709,4.016-3.156,6.008-4.771C303.422,86.851,303.623,86.903,303.738,86.736z"/>
		<path fill-rule="evenodd" clip-rule="evenodd" fill="#FFDD5B" d="M268.734,82.948c0.574,0.472,0.148,2.217,0.091,3.271
			C268.444,85.251,268.968,83.964,268.734,82.948z"/>
		<path fill-rule="evenodd" clip-rule="evenodd" fill="#FFDD5B" d="M267.566,82.719c0.542,0.414,0.046,2.115,0.021,3.082
			C267.144,84.928,267.789,83.673,267.566,82.719z"/>
		<path fill-rule="evenodd" clip-rule="evenodd" fill="#FFDD5B" d="M168.591,37.522c0.229,0.062,0.168,0.221,0.337,0.307
			c0.516,2.304,1.16,4.562,1.602,6.89c0.266,1.147,0.623,2.262,0.804,3.443c0.147,1.053,0.966,2.414,0.541,3.324
			C170.497,47.003,169.267,41.899,168.591,37.522z"/>
		<path fill-rule="evenodd" clip-rule="evenodd" fill="#FFDD5B" d="M276.776,87.256c0.337,2.017,0.045,4.243-0.09,6.419
			C276.457,91.625,276.74,89.4,276.776,87.256z"/>
		<path fill-rule="evenodd" clip-rule="evenodd" fill="#FFDD5B" d="M265.099,82.203c0.512,0.319,0.295,1.812,0.192,2.701
			C265.05,84.063,265.263,83.067,265.099,82.203z"/>
		<path fill-rule="evenodd" clip-rule="evenodd" fill="#FFDD5B" d="M277.71,87.994c0.599,1.886,0.136,4.14,0.537,6.091
			c-0.787-0.451-0.562-1.877-0.586-2.881C277.633,90.084,277.768,88.94,277.71,87.994z"/>
		<path fill-rule="evenodd" clip-rule="evenodd" fill="#FFDD5B" d="M278.567,88.547c0.972,1.68,0.365,3.914,0.472,5.902
			C278.387,92.65,278.641,90.543,278.567,88.547z"/>
		<path fill-rule="evenodd" clip-rule="evenodd" fill="#FFDD5B" d="M166.911,37.367c1.443,4.566,2.36,9.32,3.221,14.091
			c-1.291-2.135-1.069-4.808-1.992-7.07c-0.107-1.242-0.487-2.385-0.746-3.57C167.366,39.678,166.538,38.293,166.911,37.367z"/>
		<path fill-rule="evenodd" clip-rule="evenodd" fill="#FFDD5B" d="M263.878,82.1c0.471,0.226,0.232,1.619,0.172,2.386
			C263.722,83.788,264.062,82.85,263.878,82.1z"/>
		<path fill-rule="evenodd" clip-rule="evenodd" fill="#FFDD5B" d="M279.505,89.28c0.333,0.095,0.177,0.365,0.6,0.431
			c-0.115,1.742,0.155,3.349,0.04,5.095c-1.041-0.525-0.155-1.722-0.631-2.443c0.177-0.947-0.099-1.742-0.058-2.64
			C279.432,89.588,279.416,89.453,279.505,89.28z"/>
		<path fill-rule="evenodd" clip-rule="evenodd" fill="#FFDD5B" d="M262.653,81.997c0.622,0.033,0.073,1.39,0.221,1.943
			C262.189,83.932,263.004,82.477,262.653,81.997z"/>
		<path fill-rule="evenodd" clip-rule="evenodd" fill="#FFDD5B" d="M280.432,90.018c0.09,0.037,0.176,0.078,0.262,0.12
			c0.427,1.451,0.329,3.652,0.296,4.901C280.022,93.642,280.678,91.674,280.432,90.018z"/>
		<path fill-rule="evenodd" clip-rule="evenodd" fill="#FFDD5B" d="M165.5,37.33c1.32,4.361,2.472,9.349,3.132,13.591
			c-1.042-2.012-1.119-4.361-1.783-6.509c-0.537-2.188-0.889-4.439-1.586-6.575C165.435,37.498,165.161,37.481,165.5,37.33z"/>
		<path fill-rule="evenodd" clip-rule="evenodd" fill="#FFDD5B" d="M281.293,90.568c1.377,1.221,0.692,3.164,0.803,4.828
			C280.756,94.163,281.707,92.129,281.293,90.568z"/>
		<path fill-rule="evenodd" clip-rule="evenodd" fill="#FFDD5B" d="M282.871,91.293c0.3,1.349,0.401,2.767,0.267,4.271
			c-1.237-0.844-0.25-2.762-0.762-3.886C282.441,91.289,282.752,91.543,282.871,91.293z"/>
		<path fill-rule="evenodd" clip-rule="evenodd" fill="#FFDD5B" d="M283.416,91.846c0.271-0.287,0.324,0.365,0.787,0.365
			c-0.041,1.291,0.017,2.545-0.024,3.836C282.965,94.986,283.892,93.17,283.416,91.846z"/>
		<path fill-rule="evenodd" clip-rule="evenodd" fill="#FFDD5B" d="M164.214,37.354c1.361,4.385,2.479,9.422,3.074,13.718
			C165.902,46.695,164.812,41.654,164.214,37.354z"/>
		<path fill-rule="evenodd" clip-rule="evenodd" fill="#FFDD5B" d="M284.604,92.703c0.095,0.041,0.181,0.082,0.267,0.123
			c0.775,1.004,0.181,2.488,0.554,3.636c-0.144,0.274-0.586-0.201-0.844-0.234C284.748,94.999,284.527,93.908,284.604,92.703z"/>
		<path fill-rule="evenodd" clip-rule="evenodd" fill="#FFDD5B" d="M260.127,81.604c0.295,0.537,0.184,1.213,0.09,1.886
			C259.889,82.969,260.111,82.251,260.127,81.604z"/>
		<path fill-rule="evenodd" clip-rule="evenodd" fill="#FFDD5B" d="M285.67,93.502c0.381,0.258,0.631,0.557,0.877,0.861
			c-0.172,0.914-0.028,1.713,0.119,2.516c-0.25,0.107-0.562,0.033-0.906-0.106C285.736,95.683,285.654,94.605,285.67,93.502z"/>
		<path fill-rule="evenodd" clip-rule="evenodd" fill="#FFDD5B" d="M286.941,94.543c1.229,1.451,2.832,2.771,4.111,4.201
			c-1.349-0.299-2.381-0.808-4.054-1.558C287.059,96.281,286.879,95.458,286.941,94.543z"/>
		<path fill-rule="evenodd" clip-rule="evenodd" fill="#FFDD5B" d="M257.414,81.28c0.356,0.443,0.095,1.103,0.017,1.697
			C257.09,82.53,257.385,81.858,257.414,81.28z"/>
		<path fill-rule="evenodd" clip-rule="evenodd" fill="#FFDD5B" d="M254.975,81.391c0.233,0.348,0.246,0.767,0.062,1.258
			C254.979,82.239,254.758,81.891,254.975,81.391z"/>
		<path fill-rule="evenodd" clip-rule="evenodd" fill="#FFDD5B" d="M253.885,81.35c0.299,0.319,0.106,0.811,0.062,1.254
			C253.713,82.26,253.7,81.838,253.885,81.35z"/>
		<path fill-rule="evenodd" clip-rule="evenodd" fill="#FFDD5B" d="M252.734,81.432c0.221,0.242,0.229,0.562,0.04,0.947
			C252.557,82.137,252.544,81.817,252.734,81.432z"/>
		<path fill-rule="evenodd" clip-rule="evenodd" fill="#FFDD5B" d="M268.358,88.617c0.295,0.869,0.278,2.365,0.012,3.083
			C268.226,90.724,268.28,89.67,268.358,88.617z"/>
		<path fill-rule="evenodd" clip-rule="evenodd" fill="#FFDD5B" d="M267.333,88.764c0.058,0.902,0.218,1.767,0,2.767
			C267.25,90.633,267,89.805,267.333,88.764z"/>
		<path fill-rule="evenodd" clip-rule="evenodd" fill="#FFDD5B" d="M264.997,89.69c0.172,0.471,0.062,1.042,0.077,1.57
			C264.538,90.912,264.927,90.248,264.997,89.69z"/>
		<path fill-rule="evenodd" clip-rule="evenodd" fill="#FFDD5B" d="M175.136,54.064c0.209,0.524,0.631,1.443,0.283,1.82
			C174.977,55.441,174.592,54.507,175.136,54.064z"/>
		<path fill-rule="evenodd" clip-rule="evenodd" fill="#FFDD5B" d="M174.235,53.958c0.447,0.373,0.68,1.271,0.393,1.566
			C174.182,55.147,173.948,54.249,174.235,53.958z"/>
		<path fill-rule="evenodd" clip-rule="evenodd" fill="#FFDD5B" d="M173.329,53.848c0.66,0.303,0.693,1.271,0.394,1.565
			C173.218,55.024,173.284,54.434,173.329,53.848z"/>
		<path fill-rule="evenodd" clip-rule="evenodd" fill="#FFDD5B" d="M172.612,53.675c0.549,0.373,0.344,1.012,0.398,1.565
			C172.345,54.901,172.546,54.27,172.612,53.675z"/>
		<path fill-rule="evenodd" clip-rule="evenodd" fill="#FFDD5B" d="M176.157,55.303c0.242,0.274,0.418,0.889-0.008,1.069
			C175.904,56.102,175.727,55.487,176.157,55.303z"/>
		<path fill-rule="evenodd" clip-rule="evenodd" fill="#FFDD5B" d="M171.842,53.626c0.303,0.282,0.365,0.651,0.303,1.061
			C171.624,54.491,171.391,53.835,171.842,53.626z"/>
		<path fill-rule="evenodd" clip-rule="evenodd" fill="#FFDD5B" d="M273.404,85.248c0.605,0.263,0.109,1.021,0.077,1.569
			c-0.103,1.566-0.295,3.8-0.267,5.419c-0.135,0.074-0.263,0.156-0.114,0.254C272.653,90.691,273.497,87.522,273.404,85.248z"/>
		<path fill-rule="evenodd" clip-rule="evenodd" fill="#FFDD5B" d="M274.789,86.042c0.11,2.267-0.127,4.652-0.377,7.05
			C274.3,90.822,274.53,88.436,274.789,86.042z"/>
		<path fill-rule="evenodd" clip-rule="evenodd" fill="#FFDD5B" d="M266.403,82.489c0.631,0.279-0.16,1.976,0.188,2.701
			C266.03,84.891,266.509,83.309,266.403,82.489z"/>
		<path fill-rule="evenodd" clip-rule="evenodd" fill="#FFDD5B" d="M275.781,86.649c0.201,2.058-0.234,4.341-0.086,6.418
			c-0.559-0.004-0.246-0.935-0.246-1.193C275.457,90.313,275.583,88.281,275.781,86.649z"/>
		<path fill-rule="evenodd" clip-rule="evenodd" fill="#FFDD5B" d="M261.545,81.641c0.151,0.623,0.008,1.349-0.164,2.078
			C261.287,83.079,261.374,82.375,261.545,81.641z"/>
		<path fill-rule="evenodd" clip-rule="evenodd" fill="#FFDD5B" d="M258.775,81.444c0.463,0.369-0.049,1.082,0.074,1.57
			C258.665,82.964,258.603,81.968,258.775,81.444z"/>
		<path fill-rule="evenodd" clip-rule="evenodd" fill="#FFDD5B" d="M256.131,81.305c0.323,0.385,0.028,0.984,0.135,1.443
			C255.815,82.411,256.171,81.788,256.131,81.305z"/>
		<path fill-rule="evenodd" clip-rule="evenodd" fill="#FFDD5B" d="M266.062,89.1c0.32,0.586,0.062,1.865-0.086,2.271
			C265.775,90.899,265.98,89.953,266.062,89.1z"/>
		<path fill-rule="evenodd" clip-rule="evenodd" fill="#FFDD5B" d="M16.66,83.662c0.103,0.717,1.857,1.701,2.714,2.229
			c0.889,1.041,2.07,1.365,2.951,2.41c1.078,0.586,2.041,1.43,3.024,2.233c1.045,0.333,2.033,2.099,3.058,1.636
			C24.473,89.387,20.73,86.113,16.66,83.662z"/>
		<path fill-rule="evenodd" clip-rule="evenodd" fill="#FFDD5B" d="M15.378,84.542c-0.222,0.062-0.168,0.213-0.328,0.295
			c1.959,1.541,3.963,2.972,5.922,4.521c1.037,0.672,1.955,1.635,3.021,2.23c1.041,0.578,1.742,2.008,3.041,1.938
			C23.214,90.371,19.28,87.498,15.378,84.542z"/>
		<path fill-rule="evenodd" clip-rule="evenodd" fill="#FFDD5B" d="M14.201,85.662c0.041,0.791,1.898,1.414,2.586,2.287
			c3.053,2.161,5.984,4.619,9.075,6.698c-0.197-1.025-1.492-1.607-2.468-2.349c-0.942-0.718-2.008-1.447-2.836-2.168
			c-1.963-1.357-3.853-2.914-5.812-4.283c-0.106-0.066-0.221-0.135-0.291-0.304C14.369,85.583,14.287,85.621,14.201,85.662z"/>
		<path fill-rule="evenodd" clip-rule="evenodd" fill="#FFDD5B" d="M13.295,86.366c-0.074,0.111-0.147,0.218-0.32,0.295
			c4.009,2.849,7.808,6.226,11.907,8.865c0.041-0.906-1.819-1.426-2.459-2.344c-1.054-0.553-1.926-1.533-2.967-2.111
			c-1.873-1.599-3.841-2.951-5.743-4.463C13.599,86.473,13.406,86.526,13.295,86.366z"/>
		<path fill-rule="evenodd" clip-rule="evenodd" fill="#FFDD5B" d="M46.987,82.469c-0.553,0.451-0.164,2.103-0.111,3.09
			C47.249,84.645,46.757,83.436,46.987,82.469z"/>
		<path fill-rule="evenodd" clip-rule="evenodd" fill="#FFDD5B" d="M48.114,82.243c-0.521,0.397-0.058,1.996-0.042,2.914
			C48.499,84.325,47.893,83.145,48.114,82.243z"/>
		<path fill-rule="evenodd" clip-rule="evenodd" fill="#FFDD5B" d="M143.708,38.583c-0.221,0.062-0.168,0.213-0.324,0.292
			c-0.516,2.185-1.156,4.328-1.606,6.533c-0.267,1.086-0.619,2.152-0.803,3.267c-0.151,1-0.947,2.291-0.545,3.148
			C141.786,47.568,143.019,42.728,143.708,38.583z"/>
		<path fill-rule="evenodd" clip-rule="evenodd" fill="#FFDD5B" d="M39.22,86.616c-0.34,1.911-0.086,4.017,0.029,6.075
			C39.486,90.748,39.236,88.646,39.22,86.616z"/>
		<path fill-rule="evenodd" clip-rule="evenodd" fill="#FFDD5B" d="M50.491,81.727c-0.492,0.312-0.299,1.722-0.209,2.558
			C50.528,83.489,50.328,82.551,50.491,81.727z"/>
		<path fill-rule="evenodd" clip-rule="evenodd" fill="#FFDD5B" d="M38.318,87.322c-0.598,1.791-0.172,3.918-0.578,5.771
			c0.763-0.434,0.554-1.783,0.591-2.729C38.371,89.301,38.252,88.223,38.318,87.322z"/>
		<path fill-rule="evenodd" clip-rule="evenodd" fill="#FFDD5B" d="M37.482,87.85c-0.947,1.603-0.381,3.713-0.504,5.591
			C37.617,91.736,37.396,89.744,37.482,87.85z"/>
		<path fill-rule="evenodd" clip-rule="evenodd" fill="#FFDD5B" d="M145.323,38.42c-1.426,4.332-2.357,8.841-3.229,13.361
			c1.271-2.033,1.078-4.557,1.992-6.709c0.106-1.176,0.484-2.258,0.746-3.385C144.872,40.617,145.675,39.293,145.323,38.42z"/>
		<path fill-rule="evenodd" clip-rule="evenodd" fill="#FFDD5B" d="M51.667,81.616c-0.451,0.222-0.238,1.537-0.188,2.263
			C51.807,83.214,51.487,82.333,51.667,81.616z"/>
		<path fill-rule="evenodd" clip-rule="evenodd" fill="#FFDD5B" d="M36.58,88.556c-0.324,0.094-0.18,0.344-0.578,0.414
			c0.086,1.648-0.185,3.172-0.09,4.82c1.008-0.5,0.16-1.632,0.627-2.316c-0.164-0.893,0.106-1.647,0.074-2.5
			C36.642,88.846,36.658,88.719,36.58,88.556z"/>
		<path fill-rule="evenodd" clip-rule="evenodd" fill="#FFDD5B" d="M52.848,81.51c-0.599,0.041-0.086,1.319-0.229,1.844
			C53.274,83.337,52.504,81.968,52.848,81.51z"/>
		<path fill-rule="evenodd" clip-rule="evenodd" fill="#FFDD5B" d="M35.674,89.264c-0.086,0.037-0.164,0.074-0.254,0.115
			c-0.418,1.377-0.344,3.455-0.323,4.64C36.043,92.687,35.428,90.83,35.674,89.264z"/>
		<path fill-rule="evenodd" clip-rule="evenodd" fill="#FFDD5B" d="M146.679,38.371c-1.307,4.14-2.463,8.87-3.135,12.891
			c1.021-1.915,1.123-4.136,1.771-6.173c0.545-2.078,0.906-4.213,1.59-6.238C146.741,38.531,147.003,38.514,146.679,38.371z"/>
		<path fill-rule="evenodd" clip-rule="evenodd" fill="#FFDD5B" d="M34.847,89.789c-1.332,1.173-0.693,3-0.82,4.579
			C35.326,93.187,34.432,91.272,34.847,89.789z"/>
		<path fill-rule="evenodd" clip-rule="evenodd" fill="#FFDD5B" d="M33.318,90.49c-0.295,1.283-0.406,2.627-0.291,4.046
			c1.197-0.808,0.266-2.615,0.766-3.681C33.731,90.482,33.428,90.727,33.318,90.49z"/>
		<path fill-rule="evenodd" clip-rule="evenodd" fill="#FFDD5B" d="M32.797,91.019c-0.266-0.271-0.32,0.352-0.762,0.352
			c0.029,1.221-0.041,2.41-0.021,3.631C33.195,93.986,32.322,92.277,32.797,91.019z"/>
		<path fill-rule="evenodd" clip-rule="evenodd" fill="#FFDD5B" d="M147.917,38.383c-1.344,4.165-2.472,8.936-3.078,13.01
			C146.208,47.24,147.307,42.457,147.917,38.383z"/>
		<path fill-rule="evenodd" clip-rule="evenodd" fill="#FFDD5B" d="M31.637,91.843c-0.086,0.041-0.168,0.078-0.25,0.114
			c-0.758,0.959-0.205,2.361-0.57,3.452c0.135,0.253,0.562-0.197,0.815-0.234C31.478,94.011,31.707,92.978,31.637,91.843z"/>
		<path fill-rule="evenodd" clip-rule="evenodd" fill="#FFDD5B" d="M55.278,81.121c-0.283,0.508-0.188,1.147-0.102,1.783
			C55.492,82.403,55.291,81.731,55.278,81.121z"/>
		<path fill-rule="evenodd" clip-rule="evenodd" fill="#FFDD5B" d="M30.608,92.609c-0.377,0.246-0.615,0.533-0.853,0.824
			c0.152,0.861,0.017,1.619-0.131,2.381c0.234,0.098,0.537,0.025,0.869-0.111C30.522,94.67,30.608,93.654,30.608,92.609z"/>
		<path fill-rule="evenodd" clip-rule="evenodd" fill="#FFDD5B" d="M29.379,93.609c-1.197,1.381-2.75,2.64-3.993,4.008
			c1.296-0.295,2.3-0.787,3.91-1.508C29.243,95.249,29.428,94.465,29.379,93.609z"/>
		<path fill-rule="evenodd" clip-rule="evenodd" fill="#FFDD5B" d="M57.89,80.788c-0.345,0.422-0.095,1.042-0.029,1.607
			C58.193,81.968,57.914,81.333,57.89,80.788z"/>
		<path fill-rule="evenodd" clip-rule="evenodd" fill="#FFDD5B" d="M60.234,80.871c-0.221,0.328-0.238,0.729-0.07,1.188
			C60.217,81.673,60.439,81.342,60.234,80.871z"/>
		<path fill-rule="evenodd" clip-rule="evenodd" fill="#FFDD5B" d="M61.283,80.821c-0.287,0.303-0.111,0.771-0.066,1.188
			C61.443,81.682,61.463,81.284,61.283,80.821z"/>
		<path fill-rule="evenodd" clip-rule="evenodd" fill="#FFDD5B" d="M62.394,80.891c-0.218,0.23-0.226,0.533-0.049,0.894
			C62.558,81.551,62.566,81.251,62.394,80.891z"/>
		<path fill-rule="evenodd" clip-rule="evenodd" fill="#FFDD5B" d="M47.302,87.826c-0.291,0.828-0.291,2.246-0.041,2.918
			C47.413,89.817,47.368,88.826,47.302,87.826z"/>
		<path fill-rule="evenodd" clip-rule="evenodd" fill="#FFDD5B" d="M48.286,87.957c-0.062,0.857-0.226,1.677-0.029,2.619
			C48.347,89.728,48.594,88.937,48.286,87.957z"/>
		<path fill-rule="evenodd" clip-rule="evenodd" fill="#FFDD5B" d="M50.52,88.813c-0.164,0.447-0.07,0.983-0.086,1.484
			C50.958,89.969,50.585,89.338,50.52,88.813z"/>
		<path fill-rule="evenodd" clip-rule="evenodd" fill="#FFDD5B" d="M137.26,54.294c-0.208,0.496-0.619,1.369-0.283,1.721
			C137.404,55.593,137.785,54.708,137.26,54.294z"/>
		<path fill-rule="evenodd" clip-rule="evenodd" fill="#FFDD5B" d="M138.133,54.184c-0.434,0.356-0.668,1.209-0.393,1.484
			C138.175,55.307,138.408,54.458,138.133,54.184z"/>
		<path fill-rule="evenodd" clip-rule="evenodd" fill="#FFDD5B" d="M139.002,54.073c-0.635,0.291-0.68,1.205-0.393,1.483
			C139.101,55.183,139.036,54.622,139.002,54.073z"/>
		<path fill-rule="evenodd" clip-rule="evenodd" fill="#FFDD5B" d="M139.691,53.901c-0.529,0.36-0.341,0.959-0.39,1.483
			C139.941,55.061,139.752,54.462,139.691,53.901z"/>
		<path fill-rule="evenodd" clip-rule="evenodd" fill="#FFDD5B" d="M136.269,55.475c-0.234,0.262-0.406,0.844,0.004,1.016
			C136.506,56.225,136.679,55.643,136.269,55.475z"/>
		<path fill-rule="evenodd" clip-rule="evenodd" fill="#FFDD5B" d="M140.437,53.851c-0.299,0.267-0.36,0.615-0.303,1.004
			C140.638,54.663,140.868,54.044,140.437,53.851z"/>
		<path fill-rule="evenodd" clip-rule="evenodd" fill="#FFDD5B" d="M42.479,84.686c-0.583,0.25-0.115,0.967-0.083,1.488
			c0.083,1.476,0.242,3.591,0.205,5.119c0.123,0.074,0.25,0.148,0.111,0.242C43.15,89.83,42.372,86.838,42.479,84.686z"/>
		<path fill-rule="evenodd" clip-rule="evenodd" fill="#FFDD5B" d="M41.138,85.448c-0.127,2.144,0.086,4.406,0.303,6.668
			C41.568,89.969,41.368,87.715,41.138,85.448z"/>
		<path fill-rule="evenodd" clip-rule="evenodd" fill="#FFDD5B" d="M49.237,82.014c-0.606,0.271,0.14,1.865-0.209,2.558
			C49.577,84.28,49.126,82.784,49.237,82.014z"/>
		<path fill-rule="evenodd" clip-rule="evenodd" fill="#FFDD5B" d="M40.179,86.035c-0.209,1.947,0.188,4.103,0.028,6.07
			c0.533-0.008,0.246-0.885,0.246-1.131C40.461,89.498,40.355,87.576,40.179,86.035z"/>
		<path fill-rule="evenodd" clip-rule="evenodd" fill="#FFDD5B" d="M53.914,81.166c-0.147,0.59-0.017,1.274,0.139,1.963
			C54.151,82.526,54.073,81.858,53.914,81.166z"/>
		<path fill-rule="evenodd" clip-rule="evenodd" fill="#FFDD5B" d="M56.582,80.952c-0.447,0.356,0.041,1.024-0.082,1.488
			C56.676,82.395,56.742,81.444,56.582,80.952z"/>
		<path fill-rule="evenodd" clip-rule="evenodd" fill="#FFDD5B" d="M59.123,80.8c-0.308,0.365-0.037,0.931-0.135,1.365
			C59.422,81.846,59.078,81.255,59.123,80.8z"/>
		<path fill-rule="evenodd" clip-rule="evenodd" fill="#FFDD5B" d="M49.503,88.269c-0.315,0.553-0.074,1.762,0.058,2.139
			C49.766,89.965,49.573,89.072,49.503,88.269z"/>
		<path fill="#FFDD5B" d="M66.017,219.306c0.36-3.132-0.168-4.542-1.292-5.182c-1.311-0.746-3.279-0.017-5.771,4.337
			c-1.955,3.427-1.558,5.188-0.353,5.878c1.357,0.778,2.452-0.024,3.345-1.582c0.754-1.312,1.033-2.451,0.5-3.477l3.418,1.951
			c-0.405,0.173-0.824,0.606-1.147,1.172l-3.533,6.182c-0.078-0.771-0.275-1.074-0.591-1.255c-0.549-0.304-1.692,0.033-3.459-0.976
			c-3.029-1.729-2.181-5.819-0.279-9.14c2.119-3.714,5.509-7.288,9.054-5.263c1.278,0.729,1.406,1.451,2.049,1.82
			c0.353,0.205,0.742,0.18,1.197,0.041L66.017,219.306z"/>
		<path fill="#FFDD5B" d="M70.444,217.715c0.488-0.983,0.676-1.853,0.344-2.771c0.418,0.336,0.791,0.549,1.406,0.853
			c0.5,0.245,2.479,1.065,3.308,1.468c2.963,1.459,2.742,3.91,1.902,5.622c-0.918,1.861-2.095,2.738-3.656,2.574
			c0.672,1.033,0.972,1.878-0.463,5.337c-0.553,1.32-0.774,2.304-0.483,3.304l-2.082-1.024c-0.664-0.328-0.5-0.984,0.537-3.459
			c1.127-2.722,0.996-3.518-0.783-4.395l-0.901-0.442l-1.894,3.853c-0.528,1.066-0.545,2-0.25,2.819l-3.742-1.844
			c0.816-0.353,1.242-0.688,1.779-1.779L70.444,217.715z M70.607,222.683l0.66,0.328c1.901,0.942,3.045,0.852,3.828-0.738
			c0.706-1.426,0.435-2.385-1.098-3.147c-1.012-0.491-1.525-0.229-1.762,0.254L70.607,222.683z"/>
		<path fill="#FFDD5B" d="M73.468,234.421c0.963-0.639,2.119-2.106,2.886-3.147l6.685-8.722c0.213-0.287,0.435-0.631,0.542-0.886
			c0.074-0.181,0.11-0.36,0.041-0.517l3.016,1.254c-0.126,0.074-0.205,0.173-0.266,0.32c-0.094,0.221-0.267,1.009-0.365,1.672
			l-1.672,10.206c-0.201,1.278-0.431,3.132-0.218,4.263l-3.566-1.492c0.524-0.41,0.89-0.967,1.144-1.573
			c0.16-0.386,0.344-0.968,0.34-1.32l-4.099-1.714c-0.295,0.279-0.599,0.738-0.828,1.279c-0.266,0.647-0.34,1.369-0.192,1.812
			L73.468,234.421z M82.433,232.11l1.229-7.05l-0.032-0.016l-4.23,5.803L82.433,232.11z"/>
		<path fill="#FFDD5B" d="M90.667,226.455c0.279-0.82,0.209-1.73-0.139-2.443l3.967,1.353c-0.094,0.172-0.192,0.336-0.258,0.532
			c-0.082,0.238-0.131,0.599-0.11,1.001l0.139,9.688l0.033,0.017l2.202-6.427c0.664-1.95,0.762-2.902,0.123-4.082l4.115,1.41
			c-0.709,0.344-1.32,1.024-1.603,1.845l-4.127,12.058c-0.177,0.532-0.222,0.885-0.127,1.164l-2.927-1
			c0.086-0.09,0.164-0.188,0.217-0.368c0.062-0.173,0.053-0.599,0.049-1.017l-0.16-10.813l-0.037-0.016l-2.483,7.271
			c-0.664,1.943-0.767,2.894-0.123,4.074l-4.115-1.401c0.709-0.353,1.32-1.033,1.603-1.853L90.667,226.455z"/>
		<path fill="#FFDD5B" d="M101.95,230.446c0.287-1.058,0.299-1.95-0.208-2.787c0.479,0.254,1.11,0.443,1.946,0.664
			c1.078,0.295,2.074,0.409,2.939,0.647c3.455,0.927,4.644,4.337,3.422,8.911c-1.328,4.959-3.66,8.033-8.054,6.86
			c-0.885-0.237-1.856-0.646-2.791-0.893c-0.84-0.222-1.274-0.246-1.705-0.312c0.644-0.385,1.287-1.27,1.631-2.558L101.95,230.446z
			 M101.696,240.43c-0.344,1.288-0.123,1.779,1.024,2.091c2.415,0.647,3.992-1.229,4.997-4.977c0.922-3.45,0.562-5.713-1.644-6.304
			c-1.332-0.36-1.886-0.122-2.185,1.009L101.696,240.43z"/>
		<path fill="#FFDD5B" d="M111.295,240.849c0.717,2.787,1.611,4.205,3.25,4.541c1.479,0.295,2.34-0.623,2.574-1.787
			c0.226-1.099-0.074-1.878-0.963-2.656l-2.115-1.803c-1.185-1.025-1.64-2.592-1.328-4.132c0.537-2.647,2.652-4.123,5.017-3.648
			c1.16,0.229,1.476,0.656,2.218,0.804c0.475,0.099,0.795,0.065,1.316-0.255l-1.091,5.395c-0.373-1.95-1.475-3.222-2.779-3.492
			c-1.053-0.214-1.976,0.173-2.222,1.386c-0.172,0.852,0.12,1.483,1.214,2.344l1.521,1.189c1.315,1.024,2.065,2.558,1.578,4.983
			c-0.602,2.977-2.754,4.64-5.238,4.132c-1.196-0.238-2.233-1.017-2.832-1.14c-0.369-0.073-0.824,0.099-1.394,0.451L111.295,240.849
			z"/>
		<path fill="#FFDD5B" d="M133.232,233.783c1.065,0.122,1.844,0.778,2.397,0.845c0.431,0.04,0.754-0.132,1.115-0.443l-0.758,6.656
			c-0.008,0.024-0.008,0.049-0.024,0.049c-0.017-0.008-0.013-0.032-0.029-0.057c-0.66-2.796-1.5-4.28-2.771-4.427
			c-1.34-0.156-2.869,0.893-3.411,5.599c-0.458,3.992,0.759,5.377,2.312,5.558c1.558,0.172,2.897-0.968,3.926-2.656l0.049,0.033
			c-0.447,3.705-2.033,5.895-4.874,5.574c-2.254-0.262-4.459-2.483-3.729-8.845C128.083,236.037,130.531,233.471,133.232,233.783z"
			/>
		<path fill="#FFDD5B" d="M139.093,237.242c0.065-1.09-0.103-1.968-0.762-2.688c0.512,0.147,0.942,0.196,1.623,0.237
			c0.558,0.033,2.706,0.017,3.62,0.073c3.299,0.189,4.049,2.525,3.939,4.436c-0.123,2.074-0.861,3.345-2.37,3.795
			c1.025,0.688,1.636,1.353,1.656,5.099c0.004,1.427,0.18,2.419,0.832,3.23l-2.316-0.14c-0.733-0.04-0.84-0.705-0.844-3.394
			c-0.024-2.943-0.451-3.623-2.43-3.737l-1.004-0.058l-0.25,4.287c-0.07,1.188,0.274,2.049,0.869,2.688l-4.164-0.237
			c0.615-0.648,0.877-1.123,0.947-2.337L139.093,237.242z M141.167,241.766l0.741,0.042c2.115,0.123,3.14-0.402,3.243-2.182
			c0.09-1.582-0.529-2.368-2.238-2.467c-1.127-0.065-1.496,0.385-1.529,0.918L141.167,241.766z"/>
		<path fill="#FFDD5B" d="M150.093,237.578c0-0.869-0.36-1.705-0.917-2.262l3.992-0.009c-0.541,0.796-0.742,1.262-0.738,2.222
			l0.008,8.795c0,2.246,0.685,3.018,2.103,3.018c1.209,0,2.324-0.771,2.32-3.018l-0.004-8.803c0-0.952-0.201-1.418-0.738-2.214
			h3.992c-0.557,0.558-0.918,1.401-0.918,2.262l0.004,7.469c0,4.484-1.25,6.771-4.795,6.778c-2.554,0-4.3-1.614-4.304-4.836
			L150.093,237.578z"/>
		<path fill="#FFDD5B" d="M161.952,245.439c1.401,2.524,2.619,3.673,4.287,3.574c1.504-0.074,2.111-1.188,2.045-2.377
			c-0.061-1.115-0.549-1.796-1.606-2.32l-2.492-1.213c-1.411-0.697-2.242-2.099-2.328-3.664c-0.156-2.706,1.525-4.665,3.931-4.796
			c1.184-0.065,1.594,0.262,2.353,0.221c0.479-0.032,0.788-0.139,1.213-0.581l0.299,5.5c-0.853-1.803-2.242-2.754-3.574-2.681
			c-1.074,0.058-1.865,0.664-1.8,1.901c0.045,0.861,0.492,1.395,1.767,1.96l1.771,0.771c1.528,0.664,2.647,1.959,2.783,4.427
			c0.167,3.024-1.5,5.181-4.029,5.319c-1.222,0.066-2.419-0.434-3.034-0.393c-0.373,0.017-0.774,0.295-1.229,0.786L161.952,245.439z
			"/>
		<path fill="#FFDD5B" d="M178.092,236.488c-0.14-1.091-0.463-1.918-1.242-2.5c0.533,0.049,0.964,0.016,1.636-0.066
			c0.554-0.073,2.661-0.483,3.57-0.606c2.229-0.286,4.025,1.132,4.419,4.214c0.237,1.845,0.065,4.18-2.931,5.246
			c-1.959,0.696-2.152,1.033-1.988,2.279l0.263,2.065c0.151,1.18,0.652,1.959,1.356,2.483l-4.14,0.533
			c0.488-0.746,0.652-1.263,0.497-2.468L178.092,236.488z M181.113,241.652l0.037-0.008c0.16-0.419,0.529-0.722,1.479-1.148
			c1.325-0.598,1.774-1.573,1.603-2.918c-0.119-0.976-0.774-2.229-2.27-2.041c-0.98,0.131-1.546,0.656-1.361,2.132L181.113,241.652z
			"/>
		<path fill="#FFDD5B" d="M188.244,235.119c-0.189-1.091-0.553-1.902-1.365-2.443c0.537,0.024,0.963-0.033,1.64-0.147
			c0.545-0.099,2.631-0.606,3.537-0.771c3.255-0.574,4.521,1.524,4.857,3.41c0.361,2.041-0.065,3.451-1.426,4.229
			c1.156,0.436,1.901,0.951,2.783,4.583c0.337,1.385,0.738,2.312,1.566,2.951l-2.283,0.402c-0.725,0.13-0.983-0.493-1.615-3.1
			c-0.705-2.869-1.283-3.427-3.226-3.082l-0.991,0.172l0.75,4.23c0.209,1.172,0.746,1.926,1.464,2.418l-4.099,0.729
			c0.442-0.771,0.59-1.295,0.377-2.483L188.244,235.119z M191.314,239.021l0.725-0.124c2.09-0.368,2.956-1.114,2.652-2.868
			c-0.275-1.559-1.062-2.181-2.742-1.878c-1.119,0.196-1.377,0.713-1.279,1.246L191.314,239.021z"/>
		<path fill="#FFDD5B" d="M199.282,232.839c-0.189-0.844-0.726-1.582-1.39-2.008l7.927-1.796c0.508-0.114,0.763-0.295,1.073-0.606
			l1.197,5.287c-1.435-1.778-2.636-2.205-4.615-1.754c-1.39,0.312-1.784,0.902-1.5,2.181l0.508,2.229
			c0.365-0.033,0.82-0.114,1.226-0.205c1.295-0.295,2.197-0.713,2.562-2.041l1.136,5.033c-0.89-1.017-1.885-1.009-3.185-0.713
			c-0.401,0.091-0.853,0.213-1.192,0.344l0.684,3.025c0.295,1.295,0.829,1.681,2.525,1.295c2.017-0.459,3.058-1.647,3.426-4.246
			l1.378,6.074c-0.41-0.263-0.853-0.327-1.763-0.123l-7.816,1.771c0.415-0.665,0.582-1.566,0.398-2.411L199.282,232.839z"/>
		<path fill="#FFDD5B" d="M211.558,238.16c1.901,2.173,3.327,3.042,4.938,2.599c1.46-0.401,1.815-1.614,1.5-2.754
			c-0.295-1.091-0.906-1.64-2.053-1.935l-2.697-0.673c-1.525-0.377-2.636-1.573-3.046-3.082c-0.718-2.614,0.513-4.886,2.836-5.517
			c1.145-0.312,1.619-0.082,2.349-0.278c0.468-0.132,0.734-0.304,1.059-0.829l1.45,5.32c-1.213-1.582-2.762-2.222-4.049-1.869
			c-1.041,0.279-1.689,1.042-1.361,2.238c0.222,0.828,0.771,1.262,2.136,1.542l1.89,0.376c1.64,0.328,3,1.361,3.651,3.747
			c0.804,2.926-0.373,5.377-2.819,6.049c-1.181,0.319-2.456,0.09-3.045,0.246c-0.361,0.099-0.693,0.46-1.037,1.032L211.558,238.16z"
			/>
		<path fill="#FFDD5B" d="M222.866,228.25c-0.299-0.943-0.651-1.337-1.426-1.091c-1.234,0.385-1.591,2.173-1.279,4.395l-0.033,0.008
			l-1.967-6.181c0.275,0.09,0.66,0.155,1.013,0.049l7.304-2.319c0.36-0.123,0.632-0.402,0.804-0.632l1.967,6.189l-0.037,0.008
			c-1.036-2-2.353-3.246-3.586-2.853c-0.771,0.245-0.828,0.778-0.533,1.714l3.054,9.615c0.267,0.819,0.865,1.508,1.562,1.877
			l-3.976,1.262c0.365-0.704,0.451-1.614,0.188-2.435L222.866,228.25z"/>
		<path fill="#FFDD5B" d="M230.404,224.126c-0.291-0.812-0.91-1.484-1.619-1.829l3.931-1.393c-0.341,0.713-0.401,1.631-0.111,2.442
			l3.887,10.951c0.286,0.82,0.905,1.492,1.622,1.828l-3.93,1.395c0.34-0.714,0.393-1.624,0.106-2.435L230.404,224.126z"/>
		<path fill="#FFDD5B" d="M244.97,222.584c-2.213-2.237-3.64-2.705-4.841-2.229c-1.405,0.55-2.069,2.542-0.225,7.214
			c1.438,3.672,3.065,4.459,4.353,3.951c1.459-0.573,1.524-1.927,0.864-3.599c-0.558-1.41-1.267-2.336-2.406-2.566l3.669-1.442
			c-0.123,0.427-0.045,1.024,0.197,1.623l2.606,6.632c-0.647-0.427-1.009-0.459-1.349-0.328c-0.582,0.23-1.033,1.345-2.926,2.082
			c-3.247,1.279-5.902-1.935-7.305-5.5c-1.565-3.976-2.229-8.854,1.562-10.354c1.377-0.541,2.017-0.188,2.701-0.459
			c0.385-0.147,0.607-0.459,0.779-0.91L244.97,222.584z"/>
		<path fill="#FFDD5B" d="M246.639,217.863c-0.35-0.787-1.021-1.41-1.759-1.697l7.423-3.304c0.483-0.213,0.696-0.434,0.942-0.803
			l2.201,4.951c-1.747-1.476-3.013-1.647-4.869-0.827c-1.295,0.582-1.574,1.245-1.041,2.434l0.93,2.091
			c0.345-0.099,0.783-0.278,1.16-0.442c1.222-0.542,2.021-1.123,2.115-2.5l2.103,4.713c-1.082-0.82-2.05-0.623-3.267-0.082
			c-0.382,0.172-0.796,0.386-1.106,0.574l1.263,2.836c0.545,1.214,1.139,1.484,2.729,0.778c1.895-0.844,2.681-2.212,2.534-4.836
			l2.532,5.697c-0.454-0.18-0.897-0.164-1.75,0.213l-7.328,3.263c0.282-0.737,0.271-1.647-0.086-2.442L246.639,217.863z"/>
		<polygon fill-rule="evenodd" clip-rule="evenodd" fill="#FFDD5B" points="202.065,42.375 199.856,43.035 199.901,43.474 
			202.221,43.125 		"/>
		<path fill="#FFDD5B" d="M175.457,41.748c0.049-0.442-0.091-0.889-0.349-1.205l2.578,0.279c-0.061,0.053-0.106,0.156-0.119,0.25
			c-0.008,0.119-0.012,0.312,0.004,0.483l0.677,5.362h0.021l1.799-5.095c0.058-0.16,0.094-0.348,0.106-0.471
			c0.012-0.094-0.012-0.201-0.065-0.267l2.627,0.279c-0.319,0.254-0.544,0.664-0.598,1.103l-0.631,5.919
			c-0.049,0.438,0.09,0.885,0.344,1.205l-2.041-0.221c0.258-0.237,0.558-0.685,0.644-1.504l0.603-5.55l-0.017-0.004l-2.217,6.23
			c-0.037,0.094-0.065,0.176-0.078,0.304c-0.013,0.119-0.017,0.274,0.032,0.414l-1.573-0.168c0.078-0.126,0.103-0.278,0.118-0.397
			c0.013-0.131,0.005-0.213-0.016-0.316l-0.763-6.328l-0.012-0.004l-0.574,5.337c-0.09,0.819,0.11,1.32,0.311,1.607l-2.041-0.218
			c0.311-0.258,0.549-0.664,0.59-1.103L175.457,41.748z"/>
		<path fill="#FFDD5B" d="M184.383,42.74c0.057-0.439-0.078-0.89-0.328-1.209l2.14,0.258c-0.319,0.25-0.558,0.655-0.606,1.094
			l-0.721,5.906c-0.049,0.438,0.082,0.89,0.336,1.209l-2.147-0.258c0.324-0.25,0.565-0.652,0.615-1.094L184.383,42.74z"/>
		<path fill="#FFDD5B" d="M187.986,43.187c0.062-0.443-0.065-0.894-0.315-1.217l2.135,0.292c-0.319,0.242-0.561,0.643-0.623,1.082
			l-0.66,4.943c-0.09,0.685,0.074,0.946,0.443,0.996c0.873,0.151,1.5-0.644,2.004-1.722l-0.459,3.402
			c-0.152-0.205-0.353-0.315-0.833-0.377l-3.103-0.414c0.324-0.246,0.562-0.647,0.623-1.09L187.986,43.187z"/>
		<path fill="#FFDD5B" d="M193.163,43.896c0.065-0.438-0.05-0.889-0.292-1.217l2.127,0.32c-0.324,0.241-0.574,0.639-0.64,1.077
			l-0.738,4.927c-0.106,0.685,0.049,0.951,0.418,1.009c0.869,0.168,1.512-0.619,2.033-1.689l-0.517,3.39
			c-0.144-0.205-0.344-0.315-0.819-0.389l-3.099-0.463c0.329-0.242,0.579-0.639,0.644-1.078L193.163,43.896z"/>
		<path fill="#FFDD5B" d="M198.22,44.675c0.078-0.439-0.032-0.894-0.274-1.226l4.144,0.709c0.267,0.049,0.422,0.012,0.635-0.074
			l-0.466,2.734c-0.333-1.124-0.825-1.558-1.862-1.738c-0.725-0.123-1.032,0.078-1.147,0.738l-0.197,1.156
			c0.176,0.053,0.414,0.106,0.623,0.144c0.681,0.114,1.193,0.094,1.627-0.464l-0.442,2.603c-0.226-0.651-0.706-0.849-1.381-0.963
			c-0.213-0.037-0.451-0.062-0.64-0.07l-0.267,1.565c-0.118,0.668,0.058,0.955,0.951,1.107c1.049,0.18,1.787-0.176,2.471-1.336
			l-0.537,3.148c-0.144-0.205-0.34-0.324-0.819-0.406l-4.087-0.701c0.336-0.233,0.59-0.627,0.665-1.061L198.22,44.675z"/>
		<path fill="#FFDD5B" d="M203.233,49.683c0.386,1.426,0.849,2.152,1.697,2.316c0.767,0.147,1.209-0.324,1.325-0.922
			c0.114-0.565-0.05-0.963-0.513-1.357l-1.099-0.917c-0.619-0.525-0.856-1.324-0.705-2.111c0.262-1.361,1.349-2.123,2.57-1.885
			c0.606,0.115,0.771,0.332,1.156,0.406c0.245,0.049,0.405,0.033,0.68-0.135l-0.541,2.771c-0.205-1.004-0.778-1.652-1.451-1.783
			c-0.549-0.106-1.024,0.094-1.147,0.717c-0.082,0.43,0.074,0.754,0.644,1.193l0.791,0.606c0.681,0.521,1.082,1.308,0.836,2.549
			c-0.295,1.525-1.397,2.381-2.684,2.127c-0.619-0.119-1.165-0.512-1.472-0.573c-0.192-0.037-0.426,0.049-0.716,0.237
			L203.233,49.683z"/>
		<path fill="#FFDD5B" d="M210.243,46.929c0.09-0.435,0-0.893-0.227-1.234l2.111,0.451c-0.34,0.221-0.61,0.603-0.705,1.033
			l-1.246,5.82c-0.094,0.435,0,0.894,0.218,1.234l-2.106-0.451c0.344-0.221,0.614-0.603,0.704-1.037L210.243,46.929z"/>
		<path fill="#FFDD5B" d="M213.722,47.667c0.098-0.43,0.024-0.893-0.189-1.237l2.521,0.61c-0.069,0.041-0.131,0.139-0.152,0.229
			c-0.032,0.119-0.058,0.312-0.061,0.484l-0.025,5.397l0.021,0.008l2.441-4.82c0.079-0.152,0.144-0.336,0.169-0.451
			c0.021-0.094,0.012-0.205-0.025-0.278l2.562,0.623c-0.345,0.209-0.631,0.586-0.73,1.012l-1.401,5.787
			c-0.102,0.431-0.024,0.894,0.189,1.238l-1.992-0.484c0.283-0.201,0.643-0.606,0.836-1.406l1.308-5.427l-0.017-0.004l-3,5.89
			c-0.054,0.086-0.086,0.16-0.119,0.291c-0.028,0.115-0.057,0.271-0.024,0.414l-1.537-0.373c0.099-0.111,0.144-0.262,0.168-0.377
			c0.033-0.127,0.037-0.213,0.033-0.312l0.064-6.381l-0.016-0.004l-1.263,5.217c-0.192,0.8-0.061,1.324,0.099,1.636l-1.996-0.484
			c0.348-0.209,0.635-0.582,0.733-1.017L213.722,47.667z"/>
		<path fill="#FFDD5B" d="M222.464,49.843c0.119-0.426,0.054-0.893-0.147-1.246l4.049,1.123c0.264,0.074,0.423,0.054,0.64-0.008
			l-0.741,2.673c-0.218-1.156-0.664-1.636-1.681-1.918c-0.705-0.192-1.033-0.024-1.209,0.619l-0.316,1.127
			c0.173,0.074,0.406,0.152,0.606,0.209c0.665,0.185,1.182,0.213,1.665-0.295l-0.705,2.545c-0.156-0.677-0.61-0.914-1.279-1.099
			c-0.2-0.058-0.438-0.11-0.626-0.135l-0.423,1.529c-0.181,0.66-0.033,0.959,0.832,1.196c1.029,0.291,1.795,0.004,2.598-1.074
			l-0.852,3.074c-0.123-0.221-0.308-0.356-0.771-0.488l-3.996-1.106c0.353-0.201,0.643-0.565,0.766-0.992L222.464,49.843z"/>
		<path fill="#FFDD5B" d="M226.952,55.339c0.234,1.459,0.62,2.226,1.443,2.479c0.75,0.229,1.241-0.192,1.418-0.779
			c0.168-0.545,0.054-0.955-0.364-1.397l-1.001-1.033c-0.557-0.586-0.713-1.406-0.479-2.172c0.409-1.328,1.574-1.967,2.758-1.603
			c0.586,0.18,0.729,0.41,1.107,0.529c0.237,0.069,0.405,0.074,0.688-0.065l-0.828,2.696c-0.095-1.016-0.603-1.721-1.259-1.926
			c-0.536-0.164-1.028-0.012-1.209,0.59c-0.135,0.422-0.012,0.763,0.504,1.258l0.73,0.685c0.622,0.594,0.931,1.414,0.561,2.623
			c-0.459,1.488-1.647,2.222-2.901,1.836c-0.603-0.184-1.095-0.64-1.394-0.729c-0.188-0.058-0.438,0.004-0.746,0.16L226.952,55.339z
			"/>
		<path fill="#FFDD5B" d="M237.114,54.434c0.188-0.525,0.233-0.984,0.003-1.427c0.238,0.144,0.558,0.271,0.979,0.418
			c0.546,0.197,1.046,0.299,1.48,0.459c1.746,0.623,2.221,2.418,1.405,4.701c-0.889,2.472-2.209,3.943-4.427,3.152
			c-0.446-0.16-0.931-0.41-1.405-0.578c-0.418-0.147-0.644-0.181-0.86-0.234c0.344-0.168,0.713-0.59,0.942-1.233L237.114,54.434z
			 M236.577,59.524c-0.229,0.644-0.132,0.902,0.446,1.107c1.217,0.438,2.103-0.451,2.767-2.32c0.618-1.722,0.524-2.898-0.582-3.292
			c-0.681-0.242-0.968-0.144-1.172,0.422L236.577,59.524z"/>
		<path fill="#FFDD5B" d="M243.585,56.11c0.04-0.135,0.069-0.229,0.103-0.315c0.127-0.324,0.29-0.402,0.577-0.291
			c0.287,0.11,0.365,0.279,0.238,0.603c-0.037,0.09-0.078,0.176-0.14,0.308l-0.644,1.315c-0.078,0.155-0.185,0.229-0.368,0.16
			c-0.186-0.07-0.214-0.192-0.169-0.369L243.585,56.11z"/>
		<path fill="#FFDD5B" d="M246.069,57.635c0.168-0.41,0.164-0.877,0-1.25l3.894,1.59c0.246,0.103,0.41,0.103,0.631,0.066
			l-1.049,2.565c-0.082-1.172-0.468-1.701-1.443-2.102c-0.676-0.279-1.024-0.148-1.274,0.471l-0.442,1.086
			c0.164,0.094,0.381,0.193,0.578,0.279c0.64,0.258,1.139,0.349,1.688-0.099l-1.004,2.443c-0.078-0.688-0.5-0.979-1.136-1.242
			c-0.196-0.078-0.426-0.16-0.606-0.209l-0.606,1.471c-0.258,0.627-0.148,0.947,0.685,1.287c0.996,0.406,1.787,0.213,2.709-0.767
			l-1.214,2.956c-0.094-0.234-0.258-0.39-0.704-0.574l-3.837-1.57c0.373-0.16,0.709-0.483,0.878-0.893L246.069,57.635z"/>
		<path fill="#FFDD5B" d="M248.089,66.148c0.496-0.16,1.287-0.713,2.033-1.386l1.979-1.771l0.013-2.538
			c0-0.77-0.11-1.41-0.263-1.688l2.028,0.91c-0.209,0.025-0.303,0.14-0.405,0.356c-0.058,0.131-0.118,0.328-0.118,0.586
			c-0.014,0.455,0.028,1.558-0.005,1.754l1.168-1.037c0.234-0.196,0.377-0.377,0.455-0.553c0.119-0.262,0.119-0.447,0.028-0.606
			l1.992,0.894c-0.606,0.188-1.591,0.955-2.286,1.582l-1.255,1.14l-0.024,2.922c0,0.43,0.082,1.229,0.323,1.971l-2.024-0.91
			c0.185-0.062,0.332-0.258,0.414-0.443c0.069-0.155,0.118-0.549,0.118-0.926c-0.004-0.742-0.077-1.504-0.037-2.037l-1.552,1.401
			c-0.206,0.181-0.373,0.422-0.46,0.606c-0.094,0.217-0.11,0.472-0.033,0.701L248.089,66.148z"/>
		<path fill="#FFDD5B" d="M260.167,62.409c0.501,0.247,0.767,0.693,1.025,0.816c0.201,0.103,0.394,0.074,0.619-0.016l-1.501,3.086
			c-0.003,0.008-0.012,0.021-0.02,0.016c-0.004-0.004,0-0.012-0.004-0.029c0.155-1.467-0.005-2.328-0.6-2.619
			c-0.622-0.303-1.545-0.061-2.61,2.124c-0.901,1.844-0.541,2.725,0.185,3.078c0.726,0.353,1.573,0.033,2.365-0.606l0.021,0.024
			c-0.849,1.718-1.992,2.5-3.324,1.853c-1.054-0.513-1.755-1.968-0.319-4.914C257.279,62.61,258.902,61.794,260.167,62.409z"/>
		<path fill="#FFDD5B" d="M263.021,65.32c0.201-0.394,0.237-0.856,0.114-1.242l3.727,1.955c0.237,0.127,0.394,0.144,0.623,0.127
			l-1.295,2.451c0.032-1.172-0.3-1.734-1.234-2.226c-0.647-0.344-1-0.246-1.312,0.344l-0.549,1.037
			c0.155,0.107,0.36,0.23,0.553,0.333c0.603,0.319,1.103,0.459,1.689,0.066l-1.23,2.336c-0.013-0.697-0.405-1.024-1.017-1.345
			c-0.192-0.098-0.409-0.205-0.581-0.271l-0.742,1.41c-0.32,0.599-0.238,0.926,0.557,1.349c0.943,0.496,1.755,0.381,2.767-0.504
			l-1.487,2.824c-0.074-0.242-0.221-0.414-0.647-0.644l-3.673-1.93c0.39-0.119,0.755-0.41,0.963-0.804L263.021,65.32z"/>
		<path fill="#FFDD5B" d="M268.611,68.447c0.279-0.487,0.398-0.926,0.259-1.405c0.201,0.184,0.39,0.307,0.693,0.479
			c0.254,0.139,1.246,0.627,1.663,0.865c1.009,0.574,1.312,1.708,0.529,3.09c-0.48,0.832-1.263,1.729-2.836,1.233
			c-1.024-0.319-1.201-0.246-1.529,0.315l-0.521,0.922c-0.304,0.529-0.341,1.008-0.209,1.439l-1.877-1.07
			c0.434-0.152,0.66-0.312,0.971-0.853L268.611,68.447z M268.263,71.497l0.017,0.008c0.196-0.119,0.442-0.136,0.971-0.008
			c0.729,0.168,1.214-0.09,1.559-0.697c0.25-0.435,0.368-1.152-0.308-1.537c-0.447-0.254-0.841-0.217-1.218,0.447L268.263,71.497z"
			/>
		<path fill="#FFDD5B" d="M275.001,72.968c0.263-0.426,0.299-0.697-0.053-0.918c-0.574-0.352-1.386,0.099-2.148,0.964l-0.016-0.008
			l1.745-2.828c0.058,0.135,0.16,0.311,0.324,0.41l3.373,2.083c0.16,0.106,0.365,0.115,0.513,0.106l-1.746,2.828l-0.021-0.008
			c0.434-1.069,0.471-2-0.099-2.352c-0.353-0.221-0.582-0.062-0.844,0.365l-2.714,4.39c-0.233,0.377-0.3,0.84-0.209,1.233
			l-1.833-1.131c0.398-0.09,0.779-0.36,1.013-0.737L275.001,72.968z"/>
		<path fill="#FFDD5B" d="M279.445,74.841c0.241-0.373,0.319-0.836,0.237-1.229l1.804,1.176c-0.394,0.086-0.792,0.344-1.033,0.713
			l-3.259,4.98c-0.241,0.373-0.319,0.832-0.237,1.229l-1.804-1.181c0.402-0.082,0.792-0.34,1.033-0.709L279.445,74.841z"/>
		<path fill="#FFDD5B" d="M284.539,81.899c-1.536,2.217-3.036,3.14-4.549,2.094c-1.509-1.049-1.173-2.778,0.373-5
			c1.935-2.787,3.397-2.894,4.549-2.09C286.068,77.702,286.478,79.112,284.539,81.899z M283.551,81.21
			c1.296-1.865,1.332-2.788,0.64-3.267c-0.692-0.483-1.542-0.127-2.841,1.738c-1.172,1.688-1.386,2.746-0.64,3.267
			C281.46,83.469,282.379,82.899,283.551,81.21z"/>
		<path fill="#FFDD5B" d="M288.011,80.735c0.262-0.353,0.373-0.808,0.319-1.209l1.729,1.303c-0.078,0.065-0.147,0.131-0.213,0.217
			c-0.078,0.103-0.16,0.267-0.214,0.463l-1.455,4.754l0.013,0.008l2.091-2.775c0.635-0.84,0.831-1.292,0.704-1.972l1.796,1.357
			c-0.397,0.053-0.812,0.283-1.073,0.639l-3.927,5.209c-0.173,0.234-0.25,0.397-0.25,0.549l-1.275-0.959
			c0.062-0.032,0.11-0.069,0.168-0.147c0.054-0.074,0.119-0.283,0.181-0.492l1.627-5.295l-0.012-0.012l-2.365,3.144
			c-0.635,0.84-0.832,1.287-0.705,1.967l-1.795-1.353c0.396-0.057,0.807-0.287,1.073-0.639L288.011,80.735z"/>
		<path fill="#FFDD5B" d="M28.407,79.358c-0.225-0.381-0.623-0.644-1.033-0.729l2.373-1.443c-0.021,0.086,0,0.197,0.049,0.279
			c0.065,0.103,0.18,0.254,0.299,0.377l3.874,3.799l0.017-0.008l-1.586-5.188c-0.057-0.164-0.135-0.336-0.197-0.439
			c-0.053-0.082-0.144-0.152-0.225-0.172l2.418-1.467c-0.115,0.401-0.058,0.877,0.168,1.254l3.09,5.086
			c0.229,0.377,0.623,0.644,1.037,0.726l-1.885,1.144c0.078-0.353,0.061-0.902-0.369-1.606l-2.897-4.771l-0.013,0.008l1.931,6.349
			c0.024,0.099,0.053,0.18,0.119,0.295c0.065,0.099,0.151,0.229,0.283,0.304l-1.451,0.881c-0.012-0.148-0.082-0.287-0.144-0.39
			c-0.069-0.115-0.131-0.176-0.201-0.238l-4.541-4.517l-0.013,0.009l2.783,4.586c0.426,0.705,0.906,0.972,1.254,1.07l-1.881,1.144
			c0.115-0.406,0.065-0.877-0.168-1.254L28.407,79.358z"/>
		<polygon fill-rule="evenodd" clip-rule="evenodd" fill="#FFDD5B" points="39.175,69.574 37.838,71.46 38.146,71.779 39.765,70.07 
					"/>
		<path fill="#FFDD5B" d="M37.425,73.931c-0.222-0.381-0.607-0.656-1.021-0.75l3.902-2.25c0.25-0.144,0.356-0.278,0.476-0.483
			l1.394,2.402c-1.017-0.635-1.705-0.635-2.68-0.07c-0.681,0.389-0.804,0.754-0.472,1.332l0.59,1.017
			c0.18-0.078,0.414-0.201,0.606-0.312c0.64-0.373,1.054-0.734,1.054-1.451l1.319,2.287c-0.615-0.348-1.135-0.172-1.774,0.192
			c-0.197,0.12-0.415,0.258-0.574,0.378l0.791,1.381c0.345,0.586,0.677,0.684,1.513,0.201c0.996-0.574,1.365-1.34,1.188-2.689
			l1.59,2.767c-0.246-0.062-0.492-0.021-0.938,0.242l-3.849,2.222c0.127-0.406,0.082-0.877-0.136-1.263L37.425,73.931z"/>
		<path fill="#FFDD5B" d="M44.319,70.008c-0.213-0.389-0.594-0.672-1.004-0.774l2.029-1.106c-0.131,0.397-0.103,0.873,0.11,1.258
			l2.386,4.378c0.336,0.606,0.631,0.717,0.984,0.528c0.844-0.422,0.918-1.455,0.705-2.635l1.644,3.013
			c-0.25-0.07-0.492-0.033-0.951,0.217l-2.947,1.607c0.14-0.397,0.106-0.873-0.106-1.258L44.319,70.008z"/>
		<path fill="#FFDD5B" d="M52.381,73.718c0.098-0.598-0.074-1.549-0.217-2.201l-1.09-5.546c-0.033-0.184-0.094-0.385-0.16-0.512
			c-0.042-0.086-0.103-0.16-0.193-0.185l1.615-0.819c-0.021,0.074-0.008,0.135,0.029,0.208c0.053,0.107,0.312,0.431,0.545,0.689
			l3.521,3.988c0.447,0.496,1.111,1.193,1.644,1.468l-1.902,0.975c0.021-0.348-0.069-0.676-0.226-0.975
			c-0.094-0.193-0.262-0.456-0.41-0.57l-2.188,1.119c0.004,0.213,0.073,0.484,0.213,0.75c0.16,0.32,0.43,0.586,0.664,0.668
			L52.381,73.718z M54.725,69.312l-2.402-2.787l-0.021,0.012l0.799,3.603L54.725,69.312z"/>
		<path fill="#FFDD5B" d="M57.033,63.41c-0.185-0.397-0.553-0.701-0.951-0.828l2.099-0.983c0.025,0.09,0.045,0.185,0.09,0.283
			c0.057,0.123,0.168,0.267,0.324,0.406l3.627,3.459l0.016-0.008l-1.476-3.148c-0.446-0.951-0.758-1.336-1.451-1.525l2.181-1.024
			c-0.156,0.394-0.156,0.869,0.029,1.266l2.771,5.907c0.127,0.262,0.238,0.41,0.381,0.475l-1.553,0.726
			c0-0.065-0.004-0.126-0.045-0.213c-0.041-0.086-0.201-0.242-0.361-0.39l-4.041-3.861l-0.021,0.008l1.672,3.562
			c0.446,0.951,0.758,1.332,1.451,1.524l-2.185,1.021c0.156-0.389,0.156-0.861-0.029-1.262L57.033,63.41z"/>
		<path fill="#FFDD5B" d="M69.505,59.914c-1.213-1.094-1.992-1.295-2.652-1.017c-0.767,0.328-1.131,1.381-0.127,3.742
			c0.791,1.865,1.68,2.221,2.389,1.922c0.795-0.34,0.833-1.045,0.472-1.889c-0.303-0.718-0.697-1.173-1.312-1.259l2-0.856
			c-0.066,0.225-0.021,0.533,0.114,0.84l1.423,3.353c-0.357-0.197-0.554-0.205-0.734-0.127c-0.328,0.14-0.574,0.722-1.606,1.165
			c-1.779,0.758-3.234-0.832-4.004-2.635c-0.853-2.013-1.217-4.521,0.865-5.406c0.75-0.32,1.099-0.156,1.476-0.32
			c0.213-0.086,0.332-0.258,0.431-0.492L69.505,59.914z"/>
		<path fill="#FFDD5B" d="M71.919,56.889c-0.156-0.41-0.496-0.742-0.886-0.898l4.201-1.61c0.271-0.103,0.398-0.217,0.549-0.406
			l0.996,2.595c-0.897-0.783-1.586-0.897-2.636-0.492c-0.733,0.279-0.91,0.619-0.672,1.242l0.414,1.094
			c0.201-0.049,0.443-0.127,0.656-0.209c0.688-0.262,1.156-0.557,1.267-1.266l0.942,2.463c-0.549-0.438-1.094-0.344-1.783-0.082
			c-0.213,0.082-0.447,0.184-0.623,0.279l0.562,1.487c0.25,0.631,0.558,0.783,1.459,0.439c1.074-0.41,1.565-1.111,1.598-2.467
			l1.144,2.979c-0.246-0.103-0.488-0.094-0.972,0.09l-4.152,1.586c0.188-0.377,0.217-0.848,0.062-1.267L71.919,56.889z"/>
		<path fill="#FFDD5B" d="M80.162,58.151c1.09,1.033,1.898,1.414,2.771,1.115c0.795-0.271,0.963-0.91,0.771-1.488
			c-0.188-0.541-0.537-0.803-1.172-0.897l-1.496-0.225c-0.849-0.131-1.479-0.693-1.742-1.456c-0.442-1.307,0.181-2.533,1.443-2.963
			c0.623-0.213,0.885-0.115,1.282-0.246c0.254-0.09,0.402-0.188,0.57-0.476l0.906,2.672c-0.701-0.758-1.565-1.017-2.267-0.783
			c-0.565,0.193-0.901,0.615-0.701,1.213c0.144,0.418,0.451,0.615,1.209,0.701l1.049,0.106c0.902,0.095,1.672,0.565,2.083,1.767
			c0.504,1.472-0.09,2.783-1.418,3.238c-0.643,0.217-1.349,0.155-1.668,0.266c-0.201,0.066-0.373,0.262-0.554,0.578L80.162,58.151z"
			/>
		<path fill="#FFDD5B" d="M90.449,50.581c-0.119-0.426-0.422-0.791-0.799-0.983l4.341-1.193c0.283-0.078,0.418-0.18,0.586-0.348
			l0.733,2.672c-0.815-0.865-1.479-1.041-2.565-0.742c-0.762,0.209-0.976,0.525-0.795,1.172l0.315,1.127
			c0.197-0.024,0.451-0.086,0.668-0.147c0.709-0.192,1.201-0.438,1.385-1.135l0.697,2.549c-0.505-0.496-1.054-0.455-1.767-0.258
			c-0.217,0.058-0.467,0.14-0.651,0.213l0.422,1.537c0.185,0.655,0.476,0.832,1.41,0.578c1.103-0.303,1.66-0.955,1.824-2.299
			l0.849,3.074c-0.234-0.119-0.476-0.14-0.972-0.004l-4.283,1.176c0.218-0.356,0.295-0.824,0.176-1.25L90.449,50.581z"/>
		<path fill="#FFDD5B" d="M98.573,55.737c0.328-0.43,0.656-1.353,0.873-2.344l0.582-2.627l-1.594-2.008
			c-0.484-0.611-0.988-1.05-1.291-1.177l2.316-0.533c-0.16,0.148-0.177,0.295-0.119,0.529c0.029,0.139,0.106,0.332,0.267,0.541
			c0.279,0.364,1.008,1.209,1.106,1.385l0.353-1.541c0.074-0.304,0.078-0.537,0.033-0.722c-0.062-0.278-0.176-0.422-0.36-0.492
			l2.283-0.529c-0.397,0.525-0.758,1.734-0.967,2.664l-0.356,1.68l1.828,2.325c0.271,0.339,0.844,0.918,1.533,1.348l-2.32,0.537
			c0.11-0.16,0.115-0.406,0.07-0.603c-0.033-0.164-0.238-0.508-0.479-0.812c-0.471-0.574-1.021-1.136-1.32-1.582l-0.451,2.065
			c-0.061,0.271-0.057,0.565-0.012,0.767c0.058,0.234,0.209,0.443,0.418,0.578L98.573,55.737z"/>
		<path fill="#FFDD5B" d="M110.336,53.159l0.455,0.476c0.148,0.155,0.349,0.262,0.508,0.233c0.263-0.049,0.381-0.192,0.5-0.508
			c0.082,0.045,0.16,0.18,0.193,0.365c0.123,0.643-0.136,1.324-0.812,1.455c-1.229,0.233-1.533-1.574-2.455-1.398
			c-0.488,0.09-0.803,0.603-0.799,1.234c-0.258-0.147-0.402-0.361-0.459-0.648c-0.057-0.323-0.012-0.639,0.172-0.967
			c-0.93-0.492-1.521-1.729-1.861-3.524c-0.627-3.337,0.402-4.468,1.886-4.75c1.476-0.278,2.849,0.397,3.483,3.738
			C111.533,50.929,111.349,52.421,110.336,53.159z M109.873,49.102c-0.426-2.234-1.086-2.898-1.979-2.73
			c-0.885,0.172-1.263,1.028-0.84,3.262c0.381,2.021,1.012,2.91,1.972,2.726C109.984,52.179,110.254,51.122,109.873,49.102z"/>
		<path fill="#FFDD5B" d="M113.48,45.458c-0.062-0.438-0.32-0.836-0.668-1.074L115,44.068c-0.238,0.442-0.308,0.697-0.242,1.185
			l0.647,4.456c0.164,1.135,0.594,1.471,1.373,1.36c0.66-0.098,1.213-0.578,1.049-1.709l-0.639-4.459
			c-0.074-0.483-0.213-0.705-0.57-1.065l2.185-0.32c-0.262,0.328-0.401,0.783-0.336,1.221l0.549,3.787
			c0.328,2.271-0.192,3.529-2.135,3.812c-1.397,0.201-2.476-0.476-2.709-2.107L113.48,45.458z"/>
		<path fill="#FFDD5B" d="M122.001,44.322c-0.045-0.439-0.295-0.844-0.631-1.094l2.295-0.25c-0.274,0.315-0.422,0.767-0.377,1.205
			l0.644,5.918c0.045,0.439,0.291,0.844,0.631,1.099l-2.299,0.25c0.275-0.32,0.426-0.771,0.381-1.209L122.001,44.322z"/>
		<path fill="#FFDD5B" d="M126.707,47.933c0.795,1.271,1.483,1.84,2.402,1.771c0.836-0.065,1.16-0.639,1.115-1.246
			c-0.041-0.574-0.32-0.914-0.91-1.168l-1.39-0.59c-0.787-0.336-1.263-1.042-1.32-1.84c-0.106-1.381,0.803-2.41,2.135-2.512
			c0.656-0.049,0.886,0.11,1.304,0.082c0.267-0.021,0.434-0.082,0.664-0.315l0.213,2.812c-0.484-0.91-1.262-1.377-1.996-1.32
			c-0.594,0.045-1.029,0.365-0.984,0.996c0.037,0.443,0.283,0.709,0.992,0.979l0.992,0.369c0.849,0.316,1.48,0.968,1.578,2.23
			c0.115,1.549-0.787,2.672-2.188,2.779c-0.672,0.053-1.345-0.188-1.681-0.16c-0.205,0.016-0.422,0.164-0.676,0.422L126.707,47.933z
			"/>
		<path fill="#FFDD5B" d="M22.013,41.383c-0.356-0.971-0.746-1.381-1.553-1.086c-1.283,0.471-1.582,2.365-1.152,4.705l-0.037,0.012
			l-2.357-6.443c0.295,0.078,0.701,0.139,1.074,0.004l7.603-2.783c0.373-0.135,0.648-0.447,0.82-0.692l2.357,6.443l-0.037,0.012
			c-1.18-2.065-2.631-3.319-3.914-2.853c-0.808,0.295-0.84,0.861-0.488,1.833l3.668,10.013c0.315,0.857,0.971,1.562,1.729,1.914
			l-4.14,1.512c0.349-0.754,0.402-1.721,0.086-2.578L22.013,41.383z"/>
		<path fill="#FFDD5B" d="M29.248,37.022c-0.295-0.86-0.947-1.578-1.697-1.942l3.988-1.382c-0.266,0.98-0.299,1.513,0.029,2.472
			l1.431,4.128l4.275-1.48l-1.431-4.127c-0.328-0.956-0.688-1.353-1.5-1.959l3.988-1.381c-0.369,0.75-0.435,1.713-0.135,2.578
			l4.021,11.612c0.295,0.864,0.947,1.578,1.697,1.947l-3.988,1.377c0.267-0.98,0.3-1.513-0.028-2.468l-1.815-5.246l-4.275,1.476
			l1.815,5.246c0.328,0.959,0.688,1.357,1.504,1.963l-3.992,1.381c0.369-0.753,0.435-1.717,0.139-2.578L29.248,37.022z"/>
		<path fill="#FFDD5B" d="M41.461,32.837c-0.283-0.873-0.917-1.598-1.655-1.979l8.168-2.64c0.529-0.176,0.775-0.381,1.083-0.742
			l1.758,5.447c-1.681-1.738-2.984-2.065-5.025-1.41c-1.43,0.463-1.795,1.123-1.369,2.442l0.746,2.299
			c0.373-0.069,0.853-0.201,1.267-0.332c1.34-0.435,2.246-0.959,2.504-2.39l1.676,5.189c-1.037-0.988-2.082-0.886-3.418-0.451
			c-0.418,0.131-0.881,0.311-1.229,0.471l1.017,3.124c0.43,1.34,1.024,1.697,2.779,1.126c2.078-0.672,3.058-2.024,3.201-4.795
			l2.024,6.271c-0.459-0.242-0.926-0.274-1.865,0.033l-8.062,2.607c0.373-0.746,0.468-1.709,0.181-2.578L41.461,32.837z"/>
		<path fill="#FFDD5B" d="M57.832,27.694c-0.254-0.877-0.869-1.623-1.599-2.029l7.173-2.082c0.524-0.151,0.783-0.356,1.098-0.705
			l1.513,5.189c-1.106-1.607-2.435-1.963-4.152-1.468c-1.332,0.389-1.468,1.07-1.181,2.062l0.75,2.586
			c0.246-0.045,0.655-0.139,1.127-0.279c1.242-0.356,1.623-0.75,2.049-2.082l1.476,5.07c-0.885-0.873-1.795-0.917-2.836-0.615
			c-0.397,0.115-0.795,0.255-1.094,0.37l1.48,5.094c0.254,0.877,0.869,1.627,1.598,2.029L61,42.068
			c0.401-0.738,0.516-1.697,0.262-2.574L57.832,27.694z"/>
		<path fill="#FFDD5B" d="M67.39,24.96c-0.242-0.881-0.84-1.635-1.565-2.054l4.25-1.16c-0.414,0.726-0.545,1.685-0.308,2.562
			l3.247,11.854c0.242,0.885,0.844,1.64,1.57,2.058l-4.254,1.164c0.41-0.729,0.545-1.685,0.303-2.566L67.39,24.96z"/>
		<path fill="#FFDD5B" d="M73.391,23.325c-0.222-0.886-0.808-1.656-1.521-2.083l4.295-1.082c0.012,0.201,0.021,0.401,0.078,0.614
			c0.066,0.267,0.226,0.606,0.467,0.951l5.709,8.513l0.041-0.008l-1.758-6.964c-0.525-2.107-0.988-3.008-2.234-3.689l4.455-1.115
			c-0.426,0.717-0.578,1.668-0.352,2.553l3.287,13.067c0.139,0.574,0.307,0.914,0.549,1.111l-3.168,0.795
			c0.024-0.135,0.033-0.262-0.012-0.455c-0.054-0.193-0.304-0.562-0.549-0.935l-6.365-9.489l-0.041,0.008l1.984,7.874
			c0.528,2.106,0.988,3.004,2.233,3.684l-4.455,1.119c0.427-0.717,0.578-1.668,0.353-2.558L73.391,23.325z"/>
		<path fill="#FFDD5B" d="M86.035,20.206c-0.197-0.894-0.763-1.677-1.459-2.127l8.382-1.853c0.537-0.119,0.812-0.303,1.148-0.631
			l1.229,5.591c-1.504-1.894-2.771-2.345-4.869-1.882c-1.463,0.324-1.89,0.947-1.594,2.296l0.521,2.36
			c0.381-0.032,0.873-0.115,1.299-0.209c1.369-0.303,2.328-0.742,2.718-2.14l1.172,5.325c-0.938-1.082-1.988-1.078-3.357-0.775
			c-0.426,0.095-0.905,0.225-1.266,0.356l0.709,3.201c0.304,1.377,0.857,1.783,2.656,1.386c2.136-0.467,3.242-1.722,3.648-4.468
			l1.422,6.435c-0.435-0.287-0.902-0.361-1.865-0.144l-8.275,1.824c0.451-0.705,0.627-1.656,0.43-2.545L86.035,20.206z"/>
		<path fill="#FFDD5B" d="M98.434,26.116c1.824,2.438,3.258,3.472,4.992,3.14c1.57-0.299,2.045-1.545,1.812-2.783
			c-0.221-1.164-0.828-1.799-2.008-2.201l-2.783-0.931c-1.573-0.524-2.643-1.881-2.955-3.5c-0.537-2.815,0.938-5.107,3.447-5.582
			c1.226-0.238,1.709,0.049,2.496-0.099c0.5-0.099,0.799-0.254,1.185-0.783l1.09,5.722c-1.152-1.767-2.734-2.566-4.119-2.303
			c-1.115,0.213-1.865,0.959-1.624,2.242c0.172,0.897,0.718,1.397,2.127,1.804l1.963,0.557c1.697,0.479,3.045,1.681,3.541,4.25
			c0.599,3.152-0.844,5.636-3.476,6.14c-1.271,0.242-2.59-0.11-3.226,0.012c-0.397,0.074-0.771,0.422-1.188,1.004L98.434,26.116z"/>
		<path fill="#FFDD5B" d="M111.099,16.914c-0.16-1.021-0.467-1.5-1.312-1.361c-1.348,0.213-2.004,2.017-2.028,4.398l-0.037,0.004
			l-1.083-6.771c0.267,0.131,0.656,0.266,1.049,0.205l7.993-1.283c0.394-0.061,0.721-0.315,0.938-0.524l1.086,6.775l-0.041,0.004
			c-0.767-2.25-1.951-3.763-3.295-3.545c-0.849,0.135-0.992,0.685-0.828,1.709l1.688,10.526c0.14,0.902,0.66,1.717,1.332,2.209
			l-4.349,0.697c0.484-0.676,0.722-1.615,0.574-2.517L111.099,16.914z"/>
		<path fill="#FFDD5B" d="M127.235,14.66c-0.119-1.029-0.402-1.521-1.254-1.427c-1.356,0.152-2.099,1.922-2.234,4.295l-0.037,0.004
			l-0.762-6.816c0.267,0.143,0.652,0.299,1.045,0.258l8.045-0.897c0.394-0.042,0.734-0.279,0.956-0.48l0.762,6.816l-0.041,0.008
			c-0.652-2.287-1.763-3.853-3.124-3.697c-0.852,0.09-1.02,0.631-0.902,1.66l1.177,10.595c0.103,0.91,0.578,1.75,1.226,2.271
			l-4.382,0.488c0.525-0.652,0.804-1.578,0.701-2.484L127.235,14.66z"/>
		<path fill="#FFDD5B" d="M135.572,12.151c-0.065-0.914-0.512-1.771-1.144-2.316l8.566-0.635c0.549-0.041,0.844-0.188,1.222-0.463
			l0.426,5.709c-1.222-2.086-2.415-2.718-4.558-2.558c-1.492,0.11-2.009,0.668-1.902,2.045l0.18,2.415
			c0.381,0.017,0.878,0.008,1.312-0.025c1.402-0.102,2.41-0.401,3-1.729l0.397,5.435c-0.774-1.205-1.815-1.349-3.213-1.246
			c-0.438,0.033-0.93,0.094-1.303,0.172l0.242,3.271c0.107,1.406,0.599,1.886,2.435,1.75c2.181-0.16,3.456-1.246,4.247-3.902
			l0.492,6.57c-0.389-0.344-0.836-0.483-1.828-0.41l-8.447,0.627c0.541-0.635,0.856-1.545,0.791-2.46L135.572,12.151z"/>
		<path fill="#FFDD5B" d="M146.273,26.062c0.652-1.038,1.124-2.951,1.402-4.296l2.586-11.32c0.082-0.377,0.147-0.795,0.135-1.094
			c-0.008-0.192-0.049-0.394-0.189-0.512l3.456-0.115c-0.09,0.127-0.119,0.254-0.115,0.426c0.004,0.246,0.185,1.078,0.381,1.762
			l2.877,10.546c0.368,1.324,0.967,3.206,1.66,4.197l-4.083,0.135c0.324-0.627,0.431-1.324,0.41-2.016
			c-0.012-0.442-0.094-1.082-0.258-1.422l-4.693,0.16c-0.155,0.398-0.25,0.967-0.233,1.586c0.028,0.742,0.278,1.471,0.614,1.832
			L146.273,26.062z M153.889,19.906l-1.918-7.32h-0.041l-1.521,7.436L153.889,19.906z"/>
		<path fill="#FFDD5B" d="M158.881,19.415c1.312,2.75,2.517,4.041,4.283,4.054c1.599,0.012,2.308-1.115,2.316-2.374
			c0.012-1.185-0.456-1.93-1.533-2.553l-2.558-1.452c-1.435-0.828-2.222-2.365-2.213-4.017c0.021-2.86,1.918-4.82,4.464-4.799
			c1.258,0.008,1.668,0.381,2.472,0.385c0.512,0.008,0.836-0.09,1.312-0.533l-0.045,5.828c-0.778-1.955-2.181-3.053-3.586-3.066
			c-1.14-0.008-2.017,0.578-2.029,1.886c-0.004,0.914,0.426,1.508,1.738,2.185l1.816,0.926c1.569,0.803,2.66,2.242,2.639,4.857
			c-0.024,3.209-1.922,5.365-4.599,5.345c-1.295-0.012-2.524-0.611-3.172-0.615c-0.397-0.004-0.836,0.262-1.353,0.754
			L158.881,19.415z"/>
		<path fill="#FFDD5B" d="M185.351,18.201c-0.397,5.562-2.07,8.784-5.824,8.518c-3.759-0.267-4.96-3.689-4.566-9.255
			c0.492-6.988,2.959-8.718,5.824-8.517C183.646,9.151,185.847,11.213,185.351,18.201z M182.883,18.029
			c0.328-4.677-0.557-6.349-2.287-6.472c-1.726-0.123-2.84,1.406-3.176,6.083c-0.299,4.234,0.43,6.336,2.291,6.468
			C181.563,24.243,182.584,22.259,182.883,18.029z"/>
		<path fill="#FFDD5B" d="M188.502,12.36c0.103-0.906-0.172-1.832-0.692-2.488l7.418,0.84c0.549,0.061,0.861-0.029,1.287-0.229
			l-0.602,5.373c-0.402-1.91-1.492-2.754-3.267-2.955c-1.374-0.151-1.762,0.422-1.882,1.451l-0.303,2.676
			c0.242,0.049,0.659,0.123,1.144,0.176c1.291,0.148,1.791-0.069,2.696-1.135l-0.594,5.25c-0.483-1.152-1.299-1.541-2.373-1.66
			c-0.418-0.049-0.836-0.07-1.156-0.082l-0.598,5.275c-0.103,0.906,0.176,1.832,0.692,2.488l-4.377-0.496
			c0.652-0.524,1.127-1.361,1.229-2.271L188.502,12.36z"/>
		<path fill="#FFDD5B" d="M205.983,16.385c0.181-1.021,0.046-1.57-0.799-1.717c-1.349-0.238-2.553,1.258-3.353,3.496l-0.037-0.004
			l1.185-6.759c0.213,0.213,0.532,0.471,0.926,0.537l7.976,1.397c0.39,0.065,0.779-0.065,1.054-0.193l-1.181,6.754l-0.036-0.003
			c0.012-2.377-0.62-4.193-1.969-4.427c-0.839-0.147-1.155,0.324-1.332,1.344l-1.835,10.501c-0.16,0.898,0.065,1.84,0.54,2.525
			l-4.34-0.759c0.677-0.483,1.205-1.295,1.365-2.192L205.983,16.385z"/>
		<path fill="#FFDD5B" d="M214.82,16.34c0.205-0.89,0.021-1.84-0.426-2.545l4.119,0.91c-0.733,0.696-1.05,1.135-1.267,2.119
			l-0.942,4.267l4.41,0.979l0.942-4.263c0.226-0.988,0.127-1.517-0.246-2.459l4.119,0.914c-0.705,0.451-1.271,1.234-1.467,2.127
			l-2.664,11.997c-0.197,0.893-0.021,1.844,0.426,2.549l-4.119-0.914c0.742-0.697,1.054-1.131,1.271-2.123l1.205-5.418l-4.418-0.98
			l-1.201,5.423c-0.217,0.987-0.119,1.516,0.254,2.455l-4.119-0.914c0.705-0.451,1.271-1.234,1.468-2.127L214.82,16.34z"/>
		<path fill="#FFDD5B" d="M227.76,19.316c0.237-0.881,0.102-1.836-0.315-2.562L235.74,19c0.533,0.143,0.857,0.102,1.308-0.029
			l-1.496,5.521c-0.463-2.374-1.377-3.361-3.45-3.922c-1.443-0.394-2.115-0.037-2.477,1.295l-0.631,2.336
			c0.353,0.147,0.828,0.299,1.246,0.414c1.36,0.369,2.405,0.423,3.401-0.635l-1.422,5.263c-0.336-1.394-1.263-1.877-2.623-2.242
			c-0.423-0.119-0.902-0.221-1.283-0.274l-0.86,3.168c-0.369,1.357-0.062,1.98,1.718,2.459c2.11,0.569,3.668-0.029,5.299-2.271
			l-1.722,6.357c-0.25-0.451-0.627-0.73-1.578-0.988l-8.181-2.218c0.718-0.418,1.315-1.176,1.554-2.058L227.76,19.316z"/>
		<path fill="#FFDD5B" d="M247.942,22.739c-0.61,0.311-1.131,0.889-1.373,1.585c-0.115,0.328-0.233,0.861-0.34,1.452l-1.705,9.041
			l0.037,0.013l5.401-9.435c0.205-0.373,0.414-0.742,0.504-1c0.083-0.233,0.132-0.5,0.132-0.738l3.037,1.054
			c-0.123,0.242-0.222,0.467-0.304,0.701c-0.095,0.283-0.213,0.738-0.278,1.156l-1.804,10.895l0.032,0.012l4.202-7.947
			c0.422-0.795,0.721-1.315,0.934-1.922c0.25-0.746,0.144-1.41-0.319-2.045l4.037,1.402c-0.942,0.693-1.803,1.828-2.627,3.344
			l-5.669,10.444c-0.164,0.304-0.303,0.574-0.348,0.713c-0.066,0.185-0.041,0.406,0.037,0.586l-3.255-1.123
			c0.114-0.201,0.221-0.451,0.291-0.66c0.136-0.393,0.217-0.971,0.349-1.812l1.578-9.714l-0.037-0.012l-5.395,9.357
			c-0.168,0.307-0.295,0.553-0.381,0.812c-0.106,0.299-0.037,0.611,0.098,0.816l-3.537-1.226c0.214-0.16,0.361-0.345,0.419-0.508
			c0.086-0.258,0.164-0.541,0.218-0.865l1.918-10.98c0.273-1.554,0.545-3.726,0.2-4.763L247.942,22.739z"/>
		<path fill="#FFDD5B" d="M267.743,39.235c-2.066,5.181-4.64,7.739-8.141,6.349c-3.495-1.389-3.602-5.021-1.536-10.202
			c2.59-6.513,5.468-7.41,8.136-6.349C268.87,30.091,270.333,32.727,267.743,39.235z M265.444,38.322
			c1.733-4.357,1.397-6.222-0.214-6.861c-1.606-0.635-3.131,0.479-4.873,4.836c-1.565,3.943-1.517,6.168,0.217,6.857
			C262.303,43.843,263.874,42.264,265.444,38.322z"/>
		<path fill="#FFDD5B" d="M272.333,34.789c0.467-1.062,0.623-1.992,0.233-2.943c0.455,0.332,0.86,0.541,1.524,0.828
			c0.537,0.238,2.669,1.009,3.558,1.402c3.205,1.401,3.082,3.988,2.271,5.844c-0.878,2.008-2.078,2.992-3.734,2.886
			c0.762,1.062,1.123,1.947-0.238,5.66c-0.516,1.418-0.709,2.468-0.353,3.509l-2.249-0.983c-0.714-0.312-0.57-1.004,0.405-3.672
			c1.062-2.931,0.885-3.763-1.033-4.603l-0.976-0.426l-1.819,4.16c-0.509,1.152-0.476,2.136-0.127,2.984l-4.037-1.767
			c0.844-0.414,1.278-0.787,1.791-1.963L272.333,34.789z M272.735,40.027l0.713,0.315c2.054,0.897,3.263,0.754,4.013-0.963
			c0.676-1.537,0.349-2.545-1.308-3.267c-1.098-0.483-1.623-0.176-1.853,0.344L272.735,40.027z"/>
		<path fill="#FFDD5B" d="M283.617,39.543c0.39-0.828,0.427-1.792,0.148-2.578l3.987,1.881c-0.787,0.283-1.509,0.926-1.897,1.75
			L281.46,49.9c-0.606,1.295-0.459,1.914,0.229,2.238c1.603,0.836,3.333-0.336,4.984-2.152l-3.021,6.406
			c-0.168-0.488-0.491-0.832-1.385-1.254l-5.792-2.73c0.787-0.287,1.504-0.926,1.897-1.75L283.617,39.543z"/>
		<path fill="#FFDD5B" d="M292.082,43.834c0.523-1.037,0.732-1.951,0.393-2.926c0.435,0.36,1.05,0.696,1.865,1.106
			c1.05,0.533,2.049,0.873,2.901,1.3c3.375,1.705,3.871,5.488,1.611,9.964c-2.447,4.849-5.521,7.525-9.812,5.361
			c-0.869-0.439-1.787-1.066-2.696-1.529c-0.82-0.41-1.271-0.529-1.702-0.688c0.751-0.258,1.615-1.041,2.247-2.295L292.082,43.834z
			 M289.663,54.114c-0.632,1.254-0.512,1.815,0.606,2.381c2.356,1.188,4.402-0.41,6.242-4.07c1.701-3.369,1.82-5.795-0.332-6.882
			c-1.307-0.66-1.926-0.529-2.483,0.574L289.663,54.114z"/>
	</g>
</g>
</svg>
