<?xml version="1.0" encoding="utf-8"?>
<!-- Generator: Adobe Illustrator 18.1.1, SVG Export Plug-In . SVG Version: 6.00 Build 0)  -->
<svg version="1.1" id="Layer_1" xmlns="http://www.w3.org/2000/svg" xmlns:xlink="http://www.w3.org/1999/xlink" x="0px" y="0px"
	 width="1000px" height="1000px" viewBox="79 -202.7 1000 1000" enable-background="new 79 -202.7 1000 1000" xml:space="preserve">
<g id="Layer_4" display="none">
	<rect x="1124.1" y="-1895.7" display="inline" fill="#303089" width="1369.4" height="1172.9"/>
</g>
<g id="Layer_5" display="none">
</g>
<path id="path4458" fill="#24A3DD" d="M214.8-111.4c-5.2,0-9.4,4.2-9.4,9.4c0,5.2,4.2,9.4,9.4,9.4s9.4-4.2,9.4-9.4
	S220-111.4,214.8-111.4 M214.8-96.5c-3,0-5.5-2.5-5.5-5.5s2.5-5.5,5.5-5.5s5.5,2.5,5.5,5.5S217.8-96.5,214.8-96.5"/>
<rect id="rect4460" x="223.5" y="-98.4" transform="matrix(-0.7069 0.7074 -0.7074 -0.7069 321.3179 -315.2023)" fill="#24A3DD" width="5" height="14.8"/>
<g id="g4464">
	<path id="path4466" fill="#24A3DD" d="M272.4-107.5c-3,0-5.5,2.5-5.5,5.5s2.5,5.5,5.5,5.5s5.5-2.5,5.5-5.5S275.4-107.5,272.4-107.5
		"/>
	<path id="path4468" fill="#24A3DD" d="M276.8-122.6c-13.7,0-24.9,11.1-24.9,24.9s11.1,24.9,24.9,24.9c13.7,0,24.9-11.1,24.9-24.9
		S290.5-122.6,276.8-122.6 M287-83.8l-10-10c-1.4,0.8-2.9,1.2-4.6,1.2c-5.2,0-9.4-4.2-9.4-9.4c0-5.2,4.2-9.4,9.4-9.4
		s9.4,4.2,9.4,9.4c0,1.7-0.4,3.2-1.2,4.6l10,10L287-83.8z"/>
</g>
<g id="g4470">
	<path id="path4472" fill="#24A3DD" d="M106.9-100.4v-12.2h-5.7v12.2H89v5.7h12.2v12.2h5.7v-12.2h12.2v-5.7H106.9L106.9-100.4z
		 M118.1-95.7h-12.2v12.2h-3.7v-12.2H90v-3.7h12.2v-12.2h3.7v12.2h12.2L118.1-95.7L118.1-95.7z"/>
	<path id="path4474" fill="#24A3DD" d="M104-122.6c-13.8,0-25,11.3-25,25c0,13.8,11.2,25,25,25s25-11.2,25-25
		C129-111.3,117.8-122.6,104-122.6 M104-73.5c-13.3,0-24.1-10.8-24.1-24.1s10.8-24.1,24.1-24.1s24.1,10.8,24.1,24.1
		C128.1-84.2,117.3-73.5,104-73.5"/>
</g>
<g id="g4476">
	<polygon id="polygon4478" fill="#24A3DD" points="106.9,23.6 106.9,11.4 101.2,11.4 101.2,23.6 89,23.6 89,29.3 101.2,29.3 
		101.2,41.5 106.9,41.5 106.9,29.3 119.1,29.3 119.1,23.6 	"/>
	<path id="path4480" fill="#24A3DD" d="M104.1,1.5c-13.8,0-25,11.2-25,25s11.2,25,25,25s25-11.2,25-25S117.8,1.5,104.1,1.5
		 M104.1,50.5C90.8,50.5,80,39.7,80,26.4S90.8,2.3,104.1,2.3s24.1,10.8,24.1,24.1C128.1,39.8,117.3,50.5,104.1,50.5"/>
</g>
<path id="path4484" fill="#24A3DD" d="M348.4-89.8l-0.1-0.4c-0.3-1-1.4-2-2.4-2.3l-3.7-1c-1-0.3-2.4,0.1-3.2,0.8l-1.3,1.3
	c-4.9-1.3-8.7-5.1-10-10l1.3-1.3c0.7-0.7,1.1-2.2,0.8-3.2l-1-3.7c-0.3-1-1.3-2.1-2.3-2.4l-0.4-0.1c-1-0.3-2.4,0-3.1,0.7l-2,2
	c-0.4,0.4-0.6,1.4-0.6,1.4c-0.1,6.4,2.4,12.5,6.9,17s10.6,7,17,6.9c0,0,1.1-0.2,1.4-0.6l2-2C348.4-87.4,348.7-88.8,348.4-89.8"/>
<path id="path4490" fill="#FFFFFF" d="M406-89.8l-0.1-0.4c-0.3-1-1.4-2-2.4-2.3l-3.7-1c-1-0.3-2.4,0.1-3.2,0.8l-1.3,1.3
	c-4.9-1.3-8.7-5.1-10-10l1.4-1.3c0.7-0.7,1.1-2.2,0.8-3.2l-1-3.7c-0.3-1-1.3-2.1-2.3-2.4l-0.4-0.1c-1-0.3-2.4,0-3.1,0.7l-2,2
	c-0.4,0.4-0.6,1.4-0.6,1.4c-0.1,6.4,2.4,12.5,6.9,17s10.6,7,17,6.9c0,0,1.1-0.2,1.4-0.6l2-2C405.9-87.4,406.3-88.8,406-89.8"/>
<path id="path4498" fill="#24A3DD" d="M452.3-103.4v-8.1c4,4,8,8,11.9,11.9c-3.9,3.9-7.9,7.9-11.9,11.9v-8c-0.8,0-1.4,0-2.1,0
	c-2.5,0.1-5,0.6-7.3,1.6c-3.5,1.5-5.9,4-6.8,7.7c0.1-0.7,0.2-1.5,0.3-2.2c0.5-3.2,1.5-6.2,3.4-8.8c2.4-3.4,5.7-5.3,9.8-5.9
	c0.8-0.1,1.6-0.1,2.3-0.2C451.9-103.3,452.1-103.3,452.3-103.4"/>
<g id="g4500">
	<path id="path4502" fill="#24A3DD" d="M507.2-122.6c-13.8,0-25,11.2-25,25s11.2,25,25,25s25-11.2,25-25S521-122.6,507.2-122.6
		 M509.9-87.7v-8c-0.8,0-1.5,0-2.1,0c-2.5,0.1-5,0.6-7.3,1.6c-3.5,1.5-5.9,4-6.8,7.7c0.1-0.7,0.2-1.5,0.3-2.2
		c0.5-3.2,1.5-6.2,3.4-8.8c2.4-3.4,5.7-5.3,9.8-5.9c0.8-0.1,1.6-0.1,2.3-0.2c0.1,0,0.3,0,0.5-0.1v-8.1c4,4,8,8,11.9,11.9
		C517.8-95.6,513.8-91.6,509.9-87.7"/>
</g>
<polygon id="polygon4506" fill="#FFFFFF" points="679.9,-93.2 665.6,-102.7 665.6,-88.9 694.1,-88.9 694.1,-102.7 "/>
<polygon id="polygon4508" fill="#FFFFFF" points="665.8,-106.4 679.9,-97.1 693.9,-106.4 "/>
<g id="g4512">
	<path id="path4514" fill="#24A3DD" d="M737.5-122.6c-13.8,0-25,11.2-25,25s11.2,25,25,25s25-11.2,25-25S751.3-122.6,737.5-122.6
		 M751.5-106.4l-14,9.4l-14-9.4H751.5L751.5-106.4z M751.7-88.9h-28.5v-13.8l14.2,9.5l14.2-9.5L751.7-88.9L751.7-88.9z"/>
</g>
<polygon id="polygon4518" fill="#FFFFFF" points="578.1,-110.1 566.5,-110.1 570.4,-106.2 561.2,-96.8 561.2,-81.3 566.7,-81.3 
	566.7,-94.5 574.3,-102.3 578.1,-98.5 "/>
<polygon id="polygon4520" fill="#FFFFFF" points="562.8,-102.3 554.8,-110.3 551.3,-106.8 559.3,-98.8 "/>
<g id="g4524">
	<path id="path4526" fill="#24A3DD" d="M622.3-122.6c-13.8,0-25,11.2-25,25s11.2,25,25,25s25-11.2,25-25S636.1-122.6,622.3-122.6
		 M608.9-106.8l3.5-3.5l8,8l-3.5,3.5L608.9-106.8z M635.7-98.5l-3.9-3.9l-7.6,7.8v13.2h-5.5v-15.5l9.2-9.5l-3.9-3.9h11.6L635.7-98.5
		L635.7-98.5z"/>
</g>
<polygon id="polygon4530" fill="none" stroke="#FFFFFF" stroke-miterlimit="10" points="790.3,-86.7 790.3,-108 804.5,-97.3 "/>
<rect id="rect4538" x="947.1" y="-98.7" fill="#24A3DD" width="27.3" height="2.3"/>
<polygon id="polygon4544" fill="#24A3DD" points="1031.9,-98.5 1019.4,-98.5 1019.4,-111 1017.1,-111 1017.1,-98.5 1004.7,-98.5 
	1004.7,-96.2 1017.1,-96.2 1017.1,-83.8 1019.4,-83.8 1019.4,-96.2 1031.9,-96.2 "/>
<path id="path4548" fill="#FFFFFF" d="M474-194.8l-4.4,4.4l12.7,12.7l-12.9,12.9l4.4,4.4l17.3-17.3L474-194.8z M470.5-164.8
	l12.9-12.9l-12.7-12.7l3.3-3.3l16,16l-16.2,16.2L470.5-164.8z"/>
<path id="path4550" fill="#FFFFFF" d="M479.6-202.6c-13.8,0-25,11.2-25,25s11.2,25,25,25s25-11.2,25-25
	C504.6-191.4,493.4-202.6,479.6-202.6 M479.6-153.5c-13.3,0-24.1-10.8-24.1-24.1s10.8-24.1,24.1-24.1s24.1,10.8,24.1,24.1
	S492.9-153.5,479.6-153.5"/>
<path id="path4552" fill="#24A3DD" d="M541-202.6c-13.8,0-25,11.2-25,25s11.2,25,25,25s25-11.2,25-25
	C566-191.4,554.8-202.6,541-202.6 M541-153.5c-13.3,0-24.1-10.8-24.1-24.1s10.8-24.1,24.1-24.1s24.1,10.8,24.1,24.1
	S554.3-153.5,541-153.5"/>
<path id="path4554" fill="#24A3DD" d="M535.2-194.8l-4.4,4.4l12.7,12.7l-12.9,12.9l4.4,4.4l17.3-17.3L535.2-194.8z M531.7-164.8
	l12.9-12.9l-12.7-12.7l3.3-3.3l16,16L535-161.5L531.7-164.8z"/>
<polygon id="polygon4558" fill="#FFFFFF" points="97.5,-185 100.8,-188.3 111.8,-177.4 100.6,-166.2 97.3,-169.5 105.1,-177.3 "/>
<path id="path4560" fill="#FFFFFF" d="M157-202.6c-13.8,0-25,11.2-25,25s11.2,25,25,25s25-11.2,25-25
	C182-191.4,170.8-202.6,157-202.6 M153.6-166.2l-3.3-3.3l7.9-7.9l-7.7-7.7l3.3-3.3l11,11L153.6-166.2z"/>
<polygon id="polygon4564" fill="#24A3DD" points="597.5,-185 600.8,-188.3 611.8,-177.4 600.6,-166.2 597.3,-169.5 605.1,-177.3 "/>
<path id="path4566" fill="#24A3DD" d="M657-202.6c-13.8,0-25,11.2-25,25s11.2,25,25,25s25-11.2,25-25
	C682-191.4,670.8-202.6,657-202.6 M653.6-166.2l-3.3-3.3l7.9-7.9l-7.7-7.7l3.3-3.3l11,11L653.6-166.2z"/>
<rect id="rect4568" x="200.5" y="-202.6" fill="#24A3DD" width="50" height="56"/>
<polygon id="polygon4570" fill="#FFFFFF" points="217.1,-160.6 218.3,-159.3 234.2,-175.3 218,-191.5 216.8,-190.3 231.7,-175.3 "/>
<rect id="rect4572" x="258.5" y="-202.6" fill="#FFFFFF" width="50" height="56"/>
<polygon id="polygon4574" fill="#24A3DD" points="275.1,-160.6 276.3,-159.3 292.2,-175.3 276,-191.5 274.8,-190.3 289.7,-175.3 "/>
<rect id="rect4576" x="389.5" y="-202.6" fill="#FFFFFF" width="50" height="56"/>
<polygon id="polygon4578" fill="#24A3DD" points="422.9,-190.3 421.7,-191.5 405.8,-175.6 422,-159.3 423.2,-160.6 408.3,-175.6 "/>
<g id="g4580" opacity="0.5">
	<g id="g4582">
		<g id="g4584">
			<g id="g4586">
				<g id="g4588">
					<g id="g4590">
						<g id="g4592">
							<g id="g4594">
								<g id="g4596">
									<g id="g4598">
										<g id="g4600">
											<g id="g4602">
												<g id="g4604">
													<g>
														<g>
															<g>
																<g>
																	<g>
																		<g>
																			<g>
																				<g>
																					<g>
																						<g>
																							<g>
																								<g>
																									<g>
																										<g>
																											<g>
																												<rect id="rect4612" x="323.5" y="-202.6" fill="#231F20" width="50" height="56"/>
																											</g>
																										</g>
																									</g>
																								</g>
																							</g>
																						</g>
																					</g>
																				</g>
																			</g>
																		</g>
																	</g>
																</g>
															</g>
														</g>
													</g>
												</g>
											</g>
										</g>
									</g>
								</g>
							</g>
						</g>
					</g>
				</g>
			</g>
		</g>
	</g>
</g>
<rect x="323.5" y="-202.6" fill="none" width="50" height="56"/>
<polygon id="polygon4614" fill="#FFFFFF" points="356.9,-190.3 355.7,-191.5 339.8,-175.6 356,-159.3 357.2,-160.6 342.3,-175.6 "/>
<path id="path4616" fill="#FFFFFF" d="M719.9-180.4v-12.2h-5.7v12.2H702v5.7h12.2v12.1h5.7v-12.2h12.2v-5.7L719.9-180.4L719.9-180.4
	z M731.1-175.8h-12.2v12.2h-3.7v-12.2H703v-3.7h12.2v-12.1h3.7v12.2h12.2L731.1-175.8L731.1-175.8z"/>
<path id="path4618" fill="#FFFFFF" d="M717.1-202.6c-13.8,0-25,11.2-25,25s11.2,25,25,25s25-11.2,25-25
	C742.1-191.4,730.9-202.6,717.1-202.6 M717.1-153.5c-13.3,0-24.1-10.8-24.1-24.1s10.8-24.1,24.1-24.1s24.1,10.8,24.1,24.1
	C741.2-164.3,730.4-153.5,717.1-153.5"/>
<polygon id="polygon4620" fill="#FFFFFF" points="779.9,-180.4 779.9,-192.6 774.2,-192.6 774.2,-180.4 762.1,-180.4 762.1,-174.8 
	774.2,-174.8 774.2,-162.6 779.9,-162.6 779.9,-174.8 792.1,-174.8 792.1,-180.4 "/>
<path id="path4622" fill="#FFFFFF" d="M777.1-202.6c-13.8,0-25,11.2-25,25s11.2,25,25,25s25-11.2,25-25
	C802.1-191.4,790.9-202.6,777.1-202.6 M777.1-153.5c-13.3,0-24.1-10.8-24.1-24.1s10.8-24.1,24.1-24.1s24.1,10.8,24.1,24.1
	C801.2-164.3,790.4-153.5,777.1-153.5"/>
<path id="path4624" fill="#24A3DD" d="M849.1-177.6l8.6-8.6l-4-4l-8.6,8.6l-8.6-8.6l-4,4l8.6,8.6l-8.6,8.6l4,4l8.6-8.6l8.6,8.6l4-4
	L849.1-177.6z M853.7-166.4l-8.6-8.6l-8.6,8.6l-2.6-2.6l8.6-8.6l-8.6-8.6l2.6-2.6l8.6,8.6l8.6-8.6l2.6,2.6l-8.6,8.6l8.6,8.6
	L853.7-166.4z"/>
<path id="path4626" fill="#24A3DD" d="M845.1-202.6c-13.8,0-25,11.2-25,25s11.2,25,25,25s25-11.2,25-25
	C870.1-191.4,858.9-202.6,845.1-202.6 M845.1-153.5c-13.3,0-24.1-10.8-24.1-24.1s10.8-24.1,24.1-24.1s24.1,10.8,24.1,24.1
	C869.2-164.3,858.4-153.5,845.1-153.5"/>
<polygon id="polygon4628" fill="#24A3DD" points="909.1,-177.6 917.7,-186.2 913.7,-190.2 905.1,-181.6 896.5,-190.2 892.5,-186.2 
	901.1,-177.6 892.5,-169 896.5,-165 905.1,-173.6 913.7,-165 917.7,-169 "/>
<path id="path4630" fill="#24A3DD" d="M905.1-202.6c-13.8,0-25,11.2-25,25s11.2,25,25,25s25-11.2,25-25
	C930.1-191.4,918.9-202.6,905.1-202.6 M905.1-153.5c-13.3,0-24.1-10.8-24.1-24.1s10.8-24.1,24.1-24.1s24.1,10.8,24.1,24.1
	C929.2-164.3,918.4-153.5,905.1-153.5"/>
<path id="path4632" fill="#FFFFFF" d="M991.4-183l-10.8,7.5c-0.2,0.2-0.5,0.2-0.8,0.2c-0.2,0-0.4,0-0.6-0.1
	c-0.4-0.2-0.7-0.6-0.7-1.1v-15.1c0-0.5,0.3-0.9,0.7-1.1c0.4-0.2,1-0.2,1.4,0.1l10.8,7.5c0.3,0.2,0.5,0.6,0.5,1
	C992-183.6,991.8-183.3,991.4-183 M1006.5-197.1c0-0.2-0.1-0.4-0.1-0.6c0-0.1,0-0.2-0.1-0.3c-0.6-1.9-2.4-3.3-4.5-3.3h0.3
	c0,0-8.5-1.3-19.7-1.4c-11.3,0.1-19.7,1.4-19.7,1.4h0.3c-2.1,0-3.9,1.4-4.5,3.3c0,0.1-0.1,0.2-0.1,0.3c0,0.2-0.1,0.4-0.1,0.6
	c-0.3,2.2-0.8,6.7-0.9,12.1c0.1,5.4,0.6,9.8,0.9,12.1c0,0.2,0.1,0.4,0.1,0.6c0,0.1,0.1,0.2,0.1,0.3c0.6,1.9,2.4,3.3,4.5,3.3h-0.3
	c0,0,8.5,1.3,19.7,1.4c11.3-0.1,19.7-1.4,19.7-1.4h-0.3c2.1,0,3.9-1.4,4.5-3.3c0-0.1,0.1-0.2,0.1-0.3c0.1-0.2,0.1-0.4,0.1-0.6
	c0.3-2.2,0.8-6.7,0.9-12.1C1007.3-190.4,1006.8-194.8,1006.5-197.1"/>
<polygon id="polygon4578-1" fill="#2D96CD" points="1060.8,-22.9 1069.6,-31.7 1078.3,-23.1 1079,-23.8 1069.6,-33.2 1060,-23.6 "/>
<polygon id="polygon4578-1-1" fill="#2D96CD" points="1069.6,25.5 1060,16 1060.8,15.3 1069.6,24.1 1078.3,15.4 1079,16.2 "/>
<polygon id="polygon4636" fill="#24A3DD" points="847.4,-93.2 833.1,-102.7 833.1,-88.9 861.6,-88.9 861.6,-102.7 "/>
<polygon id="polygon4638" fill="#24A3DD" points="833.3,-106.4 847.4,-97.1 861.4,-106.4 "/>
<polygon id="polygon4644" fill="#24A3DD" points="918.8,-110.1 907.2,-110.1 911.1,-106.2 901.8,-96.8 901.8,-81.3 907.4,-81.3 
	907.4,-94.5 915,-102.3 918.8,-98.5 "/>
<polygon id="polygon4646" fill="#24A3DD" points="903.5,-102.3 895.5,-110.3 892,-106.8 900,-98.8 "/>
<g id="g4650">
	<path id="path4652" fill="#FFFFFF" d="M104.5-59.1c-13.8,0-25,11.2-25,25s11.2,25,25,25s25-11.2,25-25S118.3-59.1,104.5-59.1
		 M118.5-42.9l-14,9.4l-14-9.4H118.5z M118.7-25.4H90.2v-13.8l14.2,9.5l14.2-9.5L118.7-25.4L118.7-25.4z"/>
</g>
<path id="path4654" fill="#FFFFFF" d="M156.3-59.1c-13.7,0-24.9,11.1-24.9,24.9c0,13.7,11.1,24.9,24.9,24.9
	c13.7,0,24.9-11.1,24.9-24.9S170-59.1,156.3-59.1z M142.7-43.3l3.5-3.5l8,8l-3.5,3.5L142.7-43.3z M169.5-35l-3.9-3.9l-7.6,7.8v13.2
	h-5.5v-15.5l9.2-9.5l-3.9-3.9h11.6C169.5-46.6,169.5-35,169.5-35z"/>
<polygon id="polygon4660" fill="#FFFFFF" points="227.7,-35.7 215.4,-35.7 215.4,-48 213.2,-48 213.2,-35.7 200.9,-35.7 
	200.9,-33.5 213.2,-33.5 213.2,-21.3 215.4,-21.3 215.4,-33.5 227.7,-33.5 "/>
<path id="path4662" fill="#FFFFFF" d="M264.8-59.1c-13.8,0-25,11.2-25,25s11.2,25,25,25c13.8,0,25-11.2,25-25S278.6-59.1,264.8-59.1
	z M278-23.2l-2,2c-0.4,0.4-1.4,0.6-1.4,0.6c-6.4,0.1-12.5-2.4-17-6.9s-7-10.6-6.9-17c0,0,0.2-1,0.6-1.4l2-2c0.7-0.7,2.1-1.1,3.1-0.7
	l0.4,0.1c1,0.3,2,1.4,2.3,2.4l1,3.7c0.3,1-0.1,2.4-0.8,3.2l-1.3,1.3c1.3,4.9,5.1,8.7,10,10l1.3-1.3c0.7-0.7,2.2-1.1,3.2-0.8l3.7,1
	c1,0.3,2.1,1.3,2.4,2.3l0.1,0.4C279.1-25.3,278.8-23.9,278-23.2z"/>
<rect id="rect4668" x="301.4" y="-35.4" fill="#FFFFFF" width="27.3" height="2.3"/>
<g id="g4670">
	<circle id="circle4672" fill="none" stroke="#FFFFFF" stroke-width="4" stroke-miterlimit="10" cx="392" cy="-33.4" r="20"/>
	<path id="path4674" fill="#FFFFFF" d="M388.4-33.4c0-2,1.6-3.5,3.5-3.5s3.5,1.6,3.5,3.5s-1.6,3.5-3.5,3.5S388.4-31.5,388.4-33.4"/>
	
		<line id="line4676" fill="none" stroke="#FFFFFF" stroke-width="4" stroke-miterlimit="10" x1="392" y1="-59.1" x2="392" y2="-44.9"/>
	<line id="line4678" fill="none" stroke="#FFFFFF" stroke-width="4" stroke-miterlimit="10" x1="392" y1="-22" x2="392" y2="-7.8"/>
	
		<line id="line4680" fill="none" stroke="#FFFFFF" stroke-width="4" stroke-miterlimit="10" x1="417.6" y1="-33.4" x2="403.4" y2="-33.4"/>
	
		<line id="line4682" fill="none" stroke="#FFFFFF" stroke-width="4" stroke-miterlimit="10" x1="380.5" y1="-33.4" x2="366.3" y2="-33.4"/>
</g>
<g id="g4684">
	<path id="path4686" fill="#BBBBBB" d="M456.1-40.4l14.6,13.3l-2.7,2.9l-14.6-13.3L456.1-40.4z"/>
	<path id="path4688" fill="#BBBBBB" d="M446-59.1c-7.2,0-13.1,5.8-13.1,12.9s5.8,12.9,13.1,12.9s13.1-5.8,13.1-12.9
		S453.2-59.1,446-59.1z M446-36.3c-5.5,0-10-4.4-10-9.9s4.5-9.9,10-9.9s10,4.4,10,9.9S451.5-36.3,446-36.3z"/>
</g>
<g id="g4690">
	<g id="g4692">
		<path id="path4694" fill="#2495CF" d="M513-11.4c-12.2,0-22-9.9-22-22s9.9-22,22-22c12.1,0,22,9.9,22,22S525.1-11.4,513-11.4z
			 M513-51.5c-10,0-18,8.1-18,18s8.1,18,18,18c9.9,0,18-8.1,18-18S522.9-51.5,513-51.5z"/>
	</g>
	<g id="g4696">
		<path id="path4698" fill="#2495CF" d="M509.4-33.4c0-2,1.6-3.5,3.5-3.5s3.5,1.6,3.5,3.5s-1.6,3.5-3.5,3.5
			C511-29.9,509.4-31.5,509.4-33.4"/>
	</g>
	<g id="g4700">
		<rect id="rect4702" x="511" y="-59.1" fill="#2495CF" width="4" height="14.2"/>
	</g>
	<g id="g4704">
		<rect id="rect4706" x="511" y="-22" fill="#2495CF" width="4" height="14.2"/>
	</g>
	<g id="g4708">
		<rect id="rect4710" x="524.4" y="-35.4" fill="#2495CF" width="14.2" height="4"/>
	</g>
	<g id="g4712">
		<rect id="rect4714" x="487.3" y="-35.4" fill="#2495CF" width="14.2" height="4"/>
	</g>
</g>
<g id="g4716">
	<path id="path4718" fill="#2495CF" d="M577.1-40.4l14.6,13.3l-2.7,2.9l-14.6-13.3L577.1-40.4z"/>
	<path id="path4720" fill="#2495CF" d="M567-59.1c-7.2,0-13.1,5.8-13.1,12.9s5.8,12.9,13.1,12.9s13.1-5.8,13.1-12.9
		S574.2-59.1,567-59.1z M567-36.3c-5.5,0-10-4.4-10-9.9s4.5-9.9,10-9.9s10,4.4,10,9.9S572.5-36.3,567-36.3z"/>
</g>
<path id="path4722" fill="#B3B3B3" d="M815.3-59.6c-13.8,0-25,11.2-25,25s11.2,25,25,25s24.9-11.2,24.9-25S829-59.6,815.3-59.6z
	 M804.6-30.5c-1.9,0-3.4-1.5-3.4-3.4s1.5-3.4,3.4-3.4s3.4,1.5,3.4,3.4S806.5-30.5,804.6-30.5z M815.3-30.5c-1.9,0-3.4-1.5-3.4-3.4
	s1.5-3.4,3.4-3.4s3.4,1.5,3.4,3.4S817.2-30.5,815.3-30.5z M826.1-30.5c-1.9,0-3.4-1.5-3.4-3.4s1.5-3.4,3.4-3.4s3.4,1.5,3.4,3.4
	S828-30.5,826.1-30.5z"/>
<path id="path4724" fill="#24A3DD" d="M710.5-59.4c-13.8,0-25,11.2-25,25s11.2,25,25,25s24.9-11.2,24.9-25
	C735.5-48.2,724.3-59.4,710.5-59.4z M699.8-30.3c-1.9,0-3.4-1.5-3.4-3.4s1.5-3.4,3.4-3.4s3.4,1.5,3.4,3.4S701.7-30.3,699.8-30.3z
	 M710.6-30.3c-1.9,0-3.4-1.5-3.4-3.4s1.5-3.4,3.4-3.4s3.4,1.5,3.4,3.4S712.5-30.3,710.6-30.3z M721.4-30.3c-1.9,0-3.4-1.5-3.4-3.4
	s1.5-3.4,3.4-3.4s3.4,1.5,3.4,3.4S723.3-30.3,721.4-30.3z"/>
<circle id="circle4728" fill="#B3B3B3" cx="754.1" cy="-33.9" r="3.4"/>
<circle id="circle4730" fill="#B3B3B3" cx="764.9" cy="-33.9" r="3.4"/>
<circle id="circle4732" fill="#B3B3B3" cx="775.7" cy="-33.9" r="3.4"/>
<circle id="circle4736" fill="#2D96CD" cx="649.4" cy="-33.9" r="3.4"/>
<circle id="circle4738" fill="#2D96CD" cx="660.1" cy="-33.9" r="3.4"/>
<circle id="circle4740" fill="#2D96CD" cx="670.9" cy="-33.9" r="3.4"/>
<rect id="rect4742" x="148.7" y="1.6" opacity="0.6" enable-background="new    " width="50" height="50.1"/>
<polygon id="polygon4744" fill="#FFFFFF" points="184.3,16.5 183.9,16.1 173.8,26.2 163.6,16.1 163.2,16.5 173.3,26.6 163.2,36.7 
	163.6,37.1 173.8,27 183.9,37.1 184.3,36.7 174.2,26.6 "/>
<g>
	<g>
		<g>
			<g>
				<g>
					<g>
						<g>
							<g>
								<g>
									<g>
										<g>
											<g>
												<g>
													<defs>
														<polygon id="SVGID_5_" points="83.8,110.8 85.2,102.3 79,96.3 87.6,95 91.4,87.3 95.2,95 103.8,96.3 97.6,102.3 
															99,110.8 91.4,106.8 														"/>
													</defs>
													<clipPath id="SVGID_6_">
														<use xlink:href="#SVGID_5_"  overflow="visible"/>
													</clipPath>
													
														<polygon id="polygon3134" clip-path="url(#SVGID_6_)" fill="none" stroke="#2D96CD" stroke-width="2" stroke-miterlimit="10" points="
														83.8,110.8 85.2,102.3 79,96.3 87.6,95 91.4,87.3 95.2,95 103.8,96.3 97.6,102.3 99,110.8 91.4,106.8 													"/>
												</g>
											</g>
										</g>
									</g>
								</g>
							</g>
						</g>
					</g>
				</g>
			</g>
		</g>
	</g>
</g>
<g id="g3243">
	<g id="g3251">
		<g>
			<g>
				<g>
					<g>
						<g>
							<g>
								<g>
									<g>
										<g>
											<g>
												<g>
													<g>
														<g>
															<g>
																<g>
																	<defs>
																		<polygon id="SVGID_7_" points="123.8,110.8 125.2,102.3 119,96.3 127.6,95 131.4,87.3 135.2,95 143.8,96.3 
																			137.6,102.3 139,110.8 131.4,106.8 																		"/>
																	</defs>
																	<clipPath id="SVGID_8_">
																		<use xlink:href="#SVGID_7_"  overflow="visible"/>
																	</clipPath>
																	<polygon id="polygon3259" clip-path="url(#SVGID_8_)" fill="none" points="135.2,95 143.8,96.3 137.6,102.3 
																		139,110.8 131.4,106.8 123.8,110.8 125.2,102.3 119,96.3 127.6,95 131.4,87.3 																	"/>
																</g>
															</g>
														</g>
													</g>
												</g>
											</g>
										</g>
									</g>
								</g>
							</g>
						</g>
					</g>
				</g>
			</g>
		</g>
	</g>
</g>
<polygon id="SVGID_5_-8" fill="#2D96CD" points="135.2,95 143.8,96.3 137.6,102.3 139,110.8 131.4,106.8 123.8,110.8 125.2,102.3 
	119,96.3 127.6,95 131.4,87.3 "/>
<g>
	<g>
		<path id="SVGID_9_" fill="#1B394E" d="M200,95v15.4h17V95h-6v-0.9h7v17.2h-19V94.1h7V95H200z M208,89.1v13.6h1V89l3.3,2.9
			c0.1,0.1,0.2,0.1,0.3,0l0.4-0.4c0.1-0.1,0.1-0.2,0-0.3l-3.8-3.4c0,0,0-0.1-0.1-0.1l-0.4-0.4c-0.1-0.1-0.2-0.1-0.3,0l-4.2,3.8
			c-0.1,0.1-0.1,0.2,0,0.3l0.4,0.4c0.1,0.1,0.2,0.1,0.3,0L208,89.1z"/>
	</g>
</g>
<g>
	<g>
		<path id="SVGID_11_" fill="#2E95CC" d="M160,95v15.4h17V95h-6v-0.9h7v17.2h-19V94.1h7V95H160z M168,89.1v13.6h1V89l3.3,2.9
			c0.1,0.1,0.2,0.1,0.3,0l0.4-0.4c0.1-0.1,0.1-0.2,0-0.3l-3.8-3.4c0,0,0-0.1-0.1-0.1l-0.4-0.4c-0.1-0.1-0.2-0.1-0.3,0l-4.2,3.8
			c-0.1,0.1-0.1,0.2,0,0.3l0.4,0.4c0.1,0.1,0.2,0.1,0.3,0L168,89.1z"/>
	</g>
</g>
<g>
	<circle fill="#2E95CC" cx="104.1" cy="158.3" r="25"/>
	<g>
		<path fill="#FFFFFF" d="M93.3,151.4c-4.2,6-2.7,14.3,3.3,18.6c0.6,0.4,1.2,0.8,1.8,1.1c-4.6-4.5-5.4-11.8-1.7-17.3l2.9,2.1
			l0.7-10.4l-9.6,4L93.3,151.4z"/>
		<path fill="#FFFFFF" d="M114.8,165.2c4.2-6,2.7-14.3-3.3-18.6c-0.6-0.4-1.2-0.8-1.8-1.1c4.6,4.5,5.4,11.8,1.7,17.3l-2.9-2.1
			l-0.7,10.4l9.6-4L114.8,165.2z"/>
	</g>
</g>
<g>
	<g>
		<path fill="#656666" d="M163.9,134.2c13.2,0,24,10.8,24,24s-10.8,24-24,24s-24-10.8-24-24S150.7,134.2,163.9,134.2 M163.9,133.2
			c-13.8,0-25,11.2-25,25s11.2,25,25,25s25-11.2,25-25S177.7,133.2,163.9,133.2L163.9,133.2z"/>
	</g>
	<g>
		<path fill="#656666" d="M153.1,151.4c-4.2,6-2.7,14.3,3.3,18.6c0.6,0.4,1.2,0.8,1.8,1.1c-4.6-4.5-5.4-11.8-1.7-17.3l2.9,2.1
			l0.7-10.4l-9.6,4L153.1,151.4z"/>
		<path fill="#656666" d="M174.7,165.2c4.2-6,2.7-14.3-3.3-18.6c-0.6-0.4-1.2-0.8-1.8-1.1c4.6,4.5,5.4,11.8,1.7,17.3l-2.9-2.1
			l-0.7,10.4l9.6-4L174.7,165.2z"/>
	</g>
</g>
<g>
	<circle fill="#2E95CC" cx="227.8" cy="158.3" r="25"/>
	<g>
		<path fill="#FFFFFF" d="M233.5,169.3c-0.1-0.4-0.3-1-1-1.1c-0.5-0.1-1.1,0.2-2.2,0.7c-0.2,0.1-0.5,0.2-0.7,0.3
			c0-0.6-0.1-1.3-0.8-1.6c-1.3-0.6-4.9,2-5.7,2.6c-0.4-0.3-0.9-1.3-1.2-1.7c-0.6-1-0.9-1.5-1.6-1.6c-0.4,0-1-0.1-5.1,3.3
			c-0.4,0.3-0.5,0.9-0.1,1.3c0.3,0.4,0.9,0.5,1.3,0.1c1.4-1.2,2.9-2.2,3.6-2.7c0.1,0.1,0.2,0.3,0.3,0.5c0.7,1.2,1.5,2.5,2.6,2.6
			c0.1,0,0.2,0,0.2,0c0.4,0,0.7-0.1,1-0.4c0.9-0.7,2.6-1.8,3.6-2.2c0,0.5,0.1,1.1,0.6,1.5c0.3,0.2,0.7,0.3,1,0.2
			c0.5-0.1,1.2-0.4,1.8-0.8c0.2-0.1,0.4-0.2,0.7-0.3c0.3,0.8,0.8,1,1.2,0.9h0.2c2.8-0.1,3.9-0.4,4.4-1c-0.6-0.3-1.2-0.7-1.8-1.1
			C235.4,169.2,234.7,169.3,233.5,169.3z"/>
		<path fill="#FFFFFF" d="M223.3,143.7c-0.6,0-1.3,0.3-2.1,0.8c-1,0.7-1.5,1.5-1.6,2.2c0,0.5,0.2,0.8,0.2,0.8l1.4,2
			c0.2-0.7,0.7-1.5,1.9-2.3c1-0.7,1.9-1,2.7-1h0.1l-1.4-2C224.4,144.2,224.1,143.7,223.3,143.7z"/>
		<path fill="#FFFFFF" d="M233.3,161.5c1.2-0.8,2.1-1,2.8-1l-9.1-12.8c0,0-0.4-0.5-1.2-0.5c-0.6,0-1.3,0.3-2.1,0.8
			c-1,0.7-1.5,1.5-1.6,2.2c0,0.5,0.2,0.8,0.2,0.8l9.1,12.8C231.7,163.1,232.2,162.3,233.3,161.5z"/>
		<path fill="#FFFFFF" d="M237.4,162.3l-0.2-0.3l0,0l0,0c0,0-1-1.3-3.3,0.3s-1.4,3-1.4,3l0,0l0.2,0.3c2.6,2,5.6,4.1,6.6,4.3
			C239.4,169,238.4,165.4,237.4,162.3z"/>
	</g>
</g>
<g>
	<g>
		<path fill="#656666" d="M289.4,134.2c13.3,0,24,10.8,24,24c0,13.3-10.8,24-24,24c-13.3,0-24-10.8-24-24
			C265.3,145,276.1,134.2,289.4,134.2 M289.4,133.2c-13.8,0-25.1,11.2-25.1,25.1c0,13.8,11.2,25.1,25.1,25.1
			c13.8,0,25.1-11.2,25.1-25.1C314.4,144.4,303.2,133.2,289.4,133.2L289.4,133.2z"/>
	</g>
	<g>
		<path fill="#656666" d="M295.1,169.3c-0.1-0.4-0.4-1-1-1.1s-1.1,0.2-2.2,0.7c-0.2,0.1-0.5,0.2-0.7,0.3c0-0.6-0.1-1.3-0.8-1.6
			c-1.3-0.6-4.9,2-5.7,2.6c-0.4-0.3-0.9-1.3-1.2-1.7c-0.6-1-0.9-1.5-1.6-1.6c-0.4,0-1-0.1-5.1,3.3c-0.4,0.3-0.5,0.9-0.1,1.3
			c0.3,0.4,0.9,0.5,1.3,0.1c1.4-1.2,2.9-2.2,3.6-2.7c0.1,0.2,0.2,0.3,0.3,0.5c0.7,1.2,1.5,2.5,2.6,2.7c0.1,0,0.2,0,0.2,0
			c0.4,0,0.7-0.1,1-0.4c0.9-0.7,2.6-1.8,3.6-2.2c0,0.5,0.1,1.1,0.6,1.5c0.3,0.2,0.7,0.3,1,0.2c0.5-0.1,1.2-0.4,1.8-0.8
			c0.2-0.1,0.4-0.2,0.7-0.3c0.3,0.8,0.9,1,1.2,0.9h0.2c2.8-0.1,3.9-0.4,4.4-1c-0.6-0.3-1.2-0.7-1.8-1.1
			C297,169.2,296.3,169.3,295.1,169.3z"/>
		<path fill="#656666" d="M284.8,143.6c-0.6,0-1.3,0.3-2.1,0.8c-1,0.7-1.5,1.5-1.6,2.2c0,0.5,0.2,0.8,0.2,0.8l1.4,2
			c0.2-0.7,0.7-1.5,1.9-2.3c1-0.7,1.9-1,2.7-1h0.1l-1.4-2C286,144.1,285.6,143.6,284.8,143.6z"/>
		<path fill="#656666" d="M294.9,161.5c1.2-0.8,2.1-1,2.8-1l-9.2-12.8c0,0-0.4-0.5-1.2-0.5c-0.6,0-1.3,0.3-2.1,0.8
			c-1,0.7-1.5,1.5-1.6,2.2c0,0.5,0.2,0.8,0.2,0.8l9.2,12.8C293.3,163.1,293.8,162.3,294.9,161.5z"/>
		<path fill="#656666" d="M299,162.3l-0.2-0.3l0,0l0,0c0,0-1-1.3-3.3,0.3s-1.4,3-1.4,3l0,0l0.2,0.3c2.6,2,5.6,4.1,6.6,4.3
			C301,169,300,165.4,299,162.3z"/>
	</g>
</g>
<g>
	<circle fill="#2E97D0" cx="355.1" cy="158.3" r="25"/>
	<path fill="#FFFFFF" d="M345.5,170c0.7,0,1.3-0.3,1.8-0.7l12.5-12.5l0.4,0.1c0.7,0.3,1.5,0.4,2.3,0.4c1.8,0,3.5-0.7,4.8-2
		c1.6-1.6,2.3-4,1.8-6.2l-4.1,4.1h-3.1l-2.2-2.2v-3.1l4.1-4.1c-0.5-0.1-0.9-0.1-1.4-0.1c-1.8,0-3.5,0.7-4.8,2
		c-1.8,1.9-2.5,4.6-1.6,7.1l0.1,0.4l-12.5,12.5c-0.5,0.5-0.7,1.1-0.7,1.8s0.3,1.3,0.7,1.8C344.1,169.8,344.8,170,345.5,170z"/>
</g>
<g>
	<g>
		<path fill="#656666" d="M419.6,134.3c13.2,0,23.9,10.7,23.9,23.9s-10.7,23.9-23.9,23.9s-23.9-10.7-23.9-23.9
			C395.6,145,406.4,134.3,419.6,134.3 M419.6,133.2c-13.8,0-25,11.2-25,25s11.2,25,25,25s25-11.2,25-25
			C444.5,144.4,433.4,133.2,419.6,133.2L419.6,133.2z"/>
	</g>
	<path fill="#656666" d="M410,169.9c0.7,0,1.3-0.3,1.8-0.7l12.4-12.4l0.4,0.1c0.7,0.3,1.5,0.4,2.3,0.4c1.8,0,3.5-0.7,4.8-2
		c1.6-1.6,2.3-4,1.8-6.2l-4.1,4.1h-3.1l-2.2-2.2v-3.1l4.1-4.1c-0.5-0.1-0.9-0.1-1.4-0.1c-1.8,0-3.5,0.7-4.8,2
		c-1.8,1.8-2.5,4.6-1.6,7.1l0.1,0.3l-12.4,12.5c-0.5,0.5-0.7,1.1-0.7,1.8s0.3,1.3,0.7,1.8C408.7,169.7,409.3,169.9,410,169.9z"/>
</g>
<g>
	<circle fill="#2F96CD" cx="485.2" cy="158.2" r="24.9"/>
	<path fill="#FFFFFF" d="M502,151.6h-4.9v-3.1l-0.3-0.1c-3.2-1.6-7.4-2.6-11.6-2.6c-4.3,0-8.4,0.9-11.6,2.6l-0.3,0.1v3.1h-4.9
		l1.8,6.1l-1.8,6.1h4.9v3.4l0,0l0.4,0.1c4,1.3,11.3,3.2,11.4,3.3h0.1h0.1c0.1,0,7.4-2,11.4-3.3l0.4-0.1v-3.4h4.9l-1.8-6.1L502,151.6
		z M485,168c0,0-5.6-1.5-8.6-2.5l-0.6-0.2v-14.8l0.5-0.3c2.5-1.3,5.7-2,9-2s6.5,0.7,9,2l0.5,0.3v14.8l-0.6,0.2
		c-3.1,1-8.6,2.5-8.7,2.5l-0.2,0.1L485,168z M491.2,151.7l1.9,1.9l-11,11l-4.7-4.7l1.9-1.9l2.8,2.8L491.2,151.7z"/>
</g>
<g>
	<g>
		<path fill="#656666" d="M548.3,134.3c13.2,0,24,10.8,24,24s-10.8,24-24,24s-24-10.8-24-24C524.3,145,535.1,134.3,548.3,134.3
			 M548.3,133.2c-13.8,0-25,11.2-25,25s11.2,25,25,25s25-11.2,25-25S562.1,133.2,548.3,133.2L548.3,133.2z"/>
	</g>
	<g>
		<path fill="#656666" d="M565.1,151.7h-4.9v-3.1l-0.3-0.1c-3.3-1.7-7.4-2.6-11.7-2.6s-8.4,0.9-11.7,2.6l-0.3,0.1v3.1h-4.9l1.8,6.1
			l-1.8,6.1h4.9v3.4l0,0l0.4,0.1c4,1.3,11.4,3.3,11.4,3.3h0.1h0.1c0.1,0,7.4-2,11.4-3.3l0.4-0.1v-3.4h4.9l-1.8-6.1L565.1,151.7z
			 M557.4,165.1l-0.3,0.1c-3.1,1-8.6,2.5-8.7,2.5h-0.1h-0.1c-0.1,0-5.6-1.5-8.7-2.5l-0.3-0.1l0,0V151l0.2-0.1
			c2.5-1.3,5.6-1.9,8.8-1.9s6.4,0.7,8.8,1.9l0.2,0.1L557.4,165.1L557.4,165.1z"/>
		<polygon fill="#656666" points="545.1,160.9 542.3,158.1 540.4,160 545.1,164.8 556.2,153.7 554.3,151.8 		"/>
	</g>
</g>
<g>
	<circle fill="#2F96CD" cx="613.1" cy="158.3" r="25"/>
	<path fill="#FFFFFF" d="M620.7,147.6C620.7,147.6,620.7,147.5,620.7,147.6c0-0.1,0-0.2-0.1-0.2c0,0,0,0,0-0.1l-0.1-0.1
		c0,0,0,0-0.1-0.1l0,0c0,0-0.1,0-0.1-0.1c0,0,0,0-0.1,0l0,0h-0.1H620h-0.1h-0.1h-0.1c0,0-0.1,0-0.1,0.1l0,0l-16.1,14.6
		c-0.2,0.2-0.3,0.5-0.1,0.7c0.1,0.2,0.3,0.3,0.5,0.3c0.1,0,0.1,0,0.2,0l8.5-2.3l2.3,8.5c0.1,0.3,0.3,0.5,0.6,0.5l0,0
		c0.3,0,0.5-0.2,0.6-0.5L620.7,147.6L620.7,147.6C620.7,147.7,620.7,147.6,620.7,147.6z"/>
</g>
<g>
	<path fill="#656666" d="M684.9,147.6C684.9,147.6,684.9,147.5,684.9,147.6c0-0.1,0-0.2,0-0.2s0,0,0-0.1l-0.1-0.1c0,0,0,0-0.1-0.1
		l0,0c0,0-0.1,0-0.1-0.1c0,0,0,0-0.1,0l0,0h-0.1h-0.1h-0.1h-0.1c0,0,0,0-0.1,0c0,0-0.1,0-0.1,0.1l0,0l-16.1,14.7
		c-0.2,0.2-0.3,0.5-0.1,0.7c0.1,0.2,0.3,0.3,0.5,0.3c0.1,0,0.1,0,0.2,0l8.5-2.3l2.3,8.5c0.1,0.3,0.3,0.4,0.6,0.4l0,0
		c0.3,0,0.5-0.2,0.6-0.5l4.6-21.3l0,0C684.9,147.7,684.9,147.6,684.9,147.6z"/>
	<g>
		<path fill="#656666" d="M677.3,134.3c13.2,0,24,10.8,24,24s-10.8,24-24,24s-24-10.8-24-24C653.3,145,664.1,134.3,677.3,134.3
			 M677.3,133.2c-13.8,0-25,11.2-25,25s11.2,25,25,25s25-11.2,25-25S691.1,133.2,677.3,133.2L677.3,133.2z"/>
	</g>
</g>
<g>
	<circle fill="#2E97D0" cx="741.1" cy="158.3" r="25.1"/>
	<g>
		<path fill="#FFFFFF" d="M756.2,152c0.8-0.1,1.5-0.3,1.5-0.9c0-0.6-0.4-0.9-0.9-1s-2-0.4-2.1,0.2c-0.1,0.6-0.1,1,0.1,1.3l-0.5,0.5
			c0,0-0.3-0.3-0.4-0.7s-0.7-2.3-2-4.1c-1-1.5-1.4-1.6-1.7-1.6s-2.3-0.4-7.9-0.4c-5.7,0-7.6,0.4-7.9,0.4s-0.6,0.1-1.7,1.6
			c-1.3,1.9-1.9,3.8-2,4.1c-0.1,0.4-0.4,0.7-0.4,0.7l-0.5-0.5c0.1-0.3,0.1-0.7,0.1-1.3c-0.1-0.6-1.5-0.3-2.1-0.2
			c-0.5,0.1-0.9,0.4-0.9,1s0.7,0.7,1.5,0.9c0.6,0.1,0.9,0.5,1,0.7c0.9-0.3,1.9-0.5,3-0.5c1.4,0,2.8,0.3,4,1c2.1,1.1,3.6,2.9,4.2,5.1
			c0.4,1.4,0.5,2.9,0.2,4.3c0.2,0,0.3,0,0.5,0.1l5,2.6c1.5,0,2.9,0,3.1,0c0,0,0.7,0.2,1.6,0.1c0.2,0,0.8-0.2,1.5-0.3v1.7
			c0,0.4,0.4,0.8,0.8,0.8h2.6c0.4,0,0.8-0.4,0.8-0.8v-2.9c0,0,0.2-5.9,0.2-6.5s0-1.5-0.3-1.9s-0.9-1.2-0.9-1.2s-0.2-0.9-0.7-1.5
			C755.2,152.8,755.3,152.1,756.2,152z M755,156.8c0,0-0.3,0.6-4.6,0.9c0,0-1.1-0.7-1.2-0.9c-0.2-0.2-0.1-0.2,0.1-0.3s4.2-1,5.3-1.7
			C754.6,154.8,755.4,155.4,755,156.8z"/>
		<path fill="#FFFFFF" d="M739.9,158.5c-0.6-2-2-3.7-3.9-4.6c-1.1-0.6-2.4-0.9-3.7-0.9c-2.9,0-5.6,1.6-7,4.2c-1,1.9-1.2,4-0.6,6
			s2,3.7,3.9,4.6c1.1,0.6,2.4,0.9,3.7,0.9c2.5,0,4.7-1.2,6.2-3.1l1.3-2.5C740.4,161.7,740.4,160.1,739.9,158.5z M738.3,163.9
			c-1.1,2.2-3.4,3.5-5.9,3.5c-1.1,0-2.1-0.3-3.1-0.8c-1.6-0.8-2.7-2.2-3.2-3.9s-0.4-3.5,0.5-5.1c1.1-2.2,3.4-3.5,5.9-3.5
			c1.1,0,2.1,0.3,3.1,0.8c1.6,0.8,2.7,2.2,3.2,3.9C739.3,160.6,739.1,162.4,738.3,163.9z"/>
		<path fill="#FFFFFF" d="M735,155.9c-2.7-1.4-6.1-0.4-7.5,2.3c-1.1,2.1-0.7,4.6,0.8,6.3c-0.6-1.4-0.5-3.1,0.3-4.6
			c1.4-2.7,4.8-3.8,7.5-2.3c0.6,0.3,1.1,0.7,1.6,1.2C737.1,157.6,736.2,156.6,735,155.9z"/>
		<path fill="#FFFFFF" d="M751,168.5l-9.9-5.2c-0.1-0.1-0.2-0.1-0.3,0s-0.2,0.1-0.3,0.2l-1.3,2.6c-0.1,0.2,0,0.5,0.2,0.6l9.9,5.2
			c0.1,0,0.1,0.1,0.2,0.1c0.2,0,0.3-0.1,0.4-0.2l1.4-2.6c0.1-0.1,0.1-0.2,0-0.3C751.2,168.6,751.1,168.5,751,168.5z"/>
	</g>
</g>
<g>
	<g>
		<path fill="#656666" d="M806.2,134.3c13.2,0,23.9,10.7,23.9,23.9s-10.7,23.9-23.9,23.9s-23.9-10.7-23.9-23.9
			S793,134.3,806.2,134.3 M806.2,133.2c-13.8,0-25,11.2-25,25s11.2,25,25,25s25-11.2,25-25S820,133.2,806.2,133.2L806.2,133.2z"/>
	</g>
	<g>
		<path fill="#656666" d="M821.2,151.7c0.8-0.1,1.5-0.3,1.5-0.9s-0.4-0.9-0.9-1s-2-0.4-2.1,0.2c-0.1,0.6-0.1,1,0.1,1.3l-0.5,0.5
			c0,0-0.3-0.3-0.4-0.7s-0.7-2.3-2-4.1c-1-1.5-1.4-1.6-1.7-1.6s-2.3-0.4-7.9-0.4s-7.6,0.4-7.9,0.4s-0.6,0.1-1.7,1.6
			c-1.3,1.9-1.9,3.7-2,4.1c-0.1,0.4-0.4,0.7-0.4,0.7l-0.5-0.5c0.1-0.3,0.1-0.7,0.1-1.3c-0.1-0.6-1.5-0.3-2.1-0.2
			c-0.5,0.1-0.9,0.4-0.9,1s0.7,0.7,1.5,0.9c0.6,0.1,0.9,0.5,1,0.7c0.9-0.3,1.9-0.5,3-0.5c1.4,0,2.8,0.3,4,1c2,1.1,3.5,2.9,4.2,5.1
			c0.4,1.4,0.5,2.9,0.2,4.3c0.2,0,0.3,0,0.5,0.1l5,2.6c1.5,0,2.9,0,3.1,0c0,0,0.7,0.2,1.6,0.1c0.2,0,0.8-0.2,1.5-0.3v1.7
			c0,0.4,0.4,0.8,0.8,0.8h2.6c0.4,0,0.8-0.4,0.8-0.8v-2.8c0,0,0.2-5.9,0.2-6.5s0-1.5-0.3-1.9s-0.9-1.2-0.9-1.2s-0.2-0.9-0.7-1.5
			C820.2,152.5,820.4,151.8,821.2,151.7z M820,156.5c0,0-0.3,0.6-4.6,0.9c0,0-1-0.7-1.2-0.9s-0.1-0.2,0.1-0.3s4.2-1,5.3-1.7
			C819.6,154.5,820.5,155.1,820,156.5z"/>
		<path fill="#656666" d="M805.1,158.2c-0.6-2-2-3.6-3.8-4.6c-1.1-0.6-2.4-0.9-3.6-0.9c-2.9,0-5.6,1.6-6.9,4.2c-1,1.9-1.2,4-0.6,6
			s2,3.6,3.8,4.6c1.1,0.6,2.4,0.9,3.6,0.9c2.5,0,4.7-1.1,6.2-3l1.3-2.5C805.5,161.3,805.5,159.7,805.1,158.2z M803.4,163.6
			c-1.1,2.2-3.4,3.5-5.8,3.5c-1.1,0-2.1-0.3-3.1-0.8c-1.6-0.8-2.7-2.2-3.2-3.9s-0.4-3.5,0.5-5c1.1-2.2,3.4-3.5,5.8-3.5
			c1.1,0,2.1,0.3,3.1,0.8c1.6,0.8,2.7,2.2,3.2,3.9C804.4,160.2,804.2,162,803.4,163.6z"/>
		<path fill="#656666" d="M800.2,155.6c-2.7-1.4-6-0.4-7.5,2.3c-1.1,2.1-0.7,4.6,0.8,6.2c-0.6-1.4-0.5-3.1,0.3-4.6
			c1.4-2.7,4.8-3.7,7.5-2.3c0.6,0.3,1.1,0.7,1.6,1.2C802.3,157.3,801.4,156.2,800.2,155.6z"/>
		<path fill="#656666" d="M816.1,168.1l-9.8-5.2c-0.1-0.1-0.2-0.1-0.3,0c-0.1,0-0.2,0.1-0.3,0.2l-1.3,2.6c-0.1,0.2,0,0.5,0.2,0.6
			l9.8,5.2c0.1,0,0.1,0.1,0.2,0.1c0.2,0,0.3-0.1,0.4-0.2l1.4-2.6c0.1-0.1,0.1-0.2,0-0.3C816.2,168.2,816.2,168.2,816.1,168.1z"/>
	</g>
</g>
<g>
	<path fill="#F6EB0F" d="M882.7,164.6c1-1.9,1.5-4,1.5-6.3s-0.5-4.4-1.5-6.3l-5,2.9c0.5,1,0.7,2.2,0.7,3.4s-0.3,2.3-0.7,3.4
		L882.7,164.6z"/>
	<path fill="#F16622" d="M871.1,150.3c2.4,0.2,4.5,1.5,5.8,3.4l5-2.9c-2.3-3.6-6.3-6-10.8-6.3V150.3z"/>
	<path fill="#EC1E24" d="M863.8,153.6c1.3-1.9,3.4-3.2,5.9-3.4v-5.8c-4.5,0.2-8.5,2.7-10.8,6.3L863.8,153.6z"/>
	<path fill="#324DA0" d="M869.6,166.4c-2.4-0.2-4.5-1.5-5.9-3.4l-5,2.9c2.3,3.6,6.3,6,10.8,6.3L869.6,166.4L869.6,166.4z"/>
	<path fill="#7A57A3" d="M862.3,158.3c0-1.2,0.3-2.3,0.7-3.4l-5-2.9c-1,1.9-1.5,4-1.5,6.3s0.5,4.4,1.5,6.3l5-2.9
		C862.5,160.7,862.3,159.5,862.3,158.3z"/>
	<path fill="#659941" d="M877,163c-1.3,1.9-3.4,3.2-5.8,3.4v5.8c4.5-0.2,8.5-2.7,10.8-6.3L877,163z"/>
	<g>
		<path fill="#656666" d="M870.4,134.3c13.3,0,24.1,10.8,24.1,24.1s-10.8,24.1-24.1,24.1s-24.1-10.8-24.1-24.1
			C846.3,145.1,857.1,134.3,870.4,134.3 M870.4,133.2c-13.9,0-25.1,11.2-25.1,25.1s11.2,25.1,25.1,25.1s25.1-11.2,25.1-25.1
			C895.5,144.5,884.2,133.2,870.4,133.2L870.4,133.2z"/>
	</g>
</g>
<g>
	<path fill="#F6EB0F" d="M956.4,169.6c1.7-3.4,2.7-7.2,2.7-11.3s-1-7.9-2.7-11.3l-9,5.2c0.9,1.9,1.3,3.9,1.3,6.1s-0.5,4.2-1.3,6.1
		L956.4,169.6z"/>
	<path fill="#F16622" d="M935.4,143.7c4.4,0.4,8.2,2.7,10.6,6.1l9-5.2c-4.2-6.5-11.4-10.9-19.6-11.3V143.7L935.4,143.7z"/>
	<path fill="#EC1E24" d="M922.1,149.8c2.4-3.4,6.2-5.7,10.6-6.1v-10.4c-8.2,0.4-15.4,4.8-19.6,11.3L922.1,149.8z"/>
	<path fill="#324DA0" d="M932.7,172.8c-4.4-0.4-8.2-2.7-10.6-6.1l-9,5.2c4.2,6.5,11.4,10.9,19.6,11.3V172.8L932.7,172.8z"/>
	<path fill="#7A57A3" d="M919.4,158.3c0-2.2,0.5-4.2,1.3-6.1l-9-5.2c-1.7,3.4-2.7,7.2-2.7,11.3s1,7.9,2.7,11.3l9-5.2
		C919.9,162.5,919.4,160.4,919.4,158.3z"/>
	<path fill="#659941" d="M946,166.7c-2.4,3.4-6.2,5.7-10.6,6.1v10.4c8.2-0.4,15.4-4.8,19.6-11.3L946,166.7z"/>
</g>
<g>
	<circle fill="#2E95CC" cx="997.8" cy="158.3" r="25"/>
	<g>
		<path fill="#FFFFFF" d="M998.8,149.2c0,0,0.1,0,0.1-0.1h6.4l-4.2,7c-0.2,0.4-0.1,0.9,0.3,1.1c0.4,0.2,0.9,0.1,1.1-0.3l4.2-7l4.2,7
			c0.1,0.2,0.4,0.4,0.7,0.4c0.1,0,0.3,0,0.4-0.1c0.4-0.2,0.5-0.7,0.3-1.1l-4.8-8.1l0,0v-0.1l0,0c-0.1-0.1-0.1-0.2-0.3-0.3l0,0
			c-0.1-0.1-0.2-0.1-0.4-0.1h-6.9c0-0.1,0-0.1,0-0.1c0-1.1-0.9-2.1-2.1-2.1c-1.1,0-2.1,0.9-2.1,2.1c0,0.1,0,0.1,0,0.1h-6.9
			c-0.1,0-0.3,0-0.4,0.1l0,0c-0.1,0.1-0.2,0.1-0.3,0.3l0,0v0.1l0,0l-4.8,8.1c-0.2,0.4-0.1,0.9,0.3,1.1c0.4,0.2,0.9,0.1,1.1-0.3
			l4.2-7l4.2,7c0.1,0.2,0.4,0.4,0.7,0.4c0.1,0,0.3,0,0.4-0.1c0.4-0.2,0.5-0.7,0.3-1.1l-4.2-7h6.4c0,0,0.1,0,0.1,0.1v18.5
			c-3.3,0.2-6.4,1.1-9.1,2.6v1h20.2v-1c-2.7-1.5-5.8-2.4-9.1-2.6L998.8,149.2L998.8,149.2L998.8,149.2z"/>
		<path fill="#FFFFFF" d="M995,158.6c0-0.3-0.2-0.5-0.5-0.5h-11.2c-0.3,0-0.5,0.2-0.5,0.5c0,3.4,2.7,6.1,6.1,6.1
			C992.2,164.7,995,162,995,158.6z"/>
		<path fill="#FFFFFF" d="M1012.3,158.1h-11.2c-0.3,0-0.5,0.2-0.5,0.5c0,3.4,2.7,6.1,6.1,6.1s6.1-2.7,6.1-6.1
			C1012.8,158.3,1012.6,158.1,1012.3,158.1z"/>
	</g>
</g>
<g>
	<g>
		<path fill="#656666" d="M104.1,206.4c13.2,0,24,10.8,24,24s-10.8,24-24,24s-24-10.8-24-24C80.1,217.2,90.8,206.4,104.1,206.4
			 M104.1,205.4c-13.8,0-25,11.2-25,25s11.2,25,25,25s25-11.2,25-25C129.1,216.6,117.9,205.4,104.1,205.4L104.1,205.4z"/>
	</g>
	<g>
		<path fill="#656666" d="M105.1,221.3C105.1,221.3,105.2,221.3,105.1,221.3l6.5-0.1l-4.2,7c-0.2,0.4-0.1,0.9,0.3,1.1
			c0.4,0.2,0.9,0.1,1.1-0.3l4.2-7l4.2,7c0.1,0.2,0.4,0.4,0.7,0.4c0.1,0,0.3,0,0.4-0.1c0.4-0.2,0.5-0.7,0.3-1.1l-4.8-8.1l0,0V220l0,0
			c-0.1-0.1-0.2-0.2-0.3-0.3l0,0c-0.1-0.1-0.2-0.1-0.4-0.1h-6.9v-0.1c0-1.1-0.9-2.1-2.1-2.1c-1.1,0-2.1,0.9-2.1,2.1
			c0,0.1,0,0.1,0,0.1h-6.9c-0.1,0-0.3,0-0.4,0.1l0,0c-0.1,0.1-0.2,0.1-0.3,0.3l0,0v0.1l0,0l-4.8,8.1c-0.2,0.4-0.1,0.9,0.3,1.1
			s0.9,0.1,1.1-0.3l4.2-7l4.2,7c0.1,0.2,0.4,0.4,0.7,0.4c0.1,0,0.3,0,0.4-0.1c0.4-0.2,0.5-0.7,0.3-1.1l-4.2-7h6.4c0,0,0.1,0,0.1,0.1
			v18.5c-3.3,0.2-6.4,1.1-9.1,2.6v1h20.2v-1c-2.7-1.5-5.8-2.4-9.1-2.6L105.1,221.3L105.1,221.3L105.1,221.3z"/>
		<path fill="#656666" d="M101.2,230.8c0-0.3-0.2-0.5-0.5-0.5H89.5c-0.3,0-0.5,0.2-0.5,0.5c0,3.4,2.7,6.1,6.1,6.1
			S101.2,234.2,101.2,230.8z"/>
		<path fill="#656666" d="M118.6,230.3h-11.2c-0.3,0-0.5,0.2-0.5,0.5c0,3.4,2.7,6.1,6.1,6.1s6.1-2.7,6.1-6.1
			C119.1,230.5,118.9,230.3,118.6,230.3z"/>
	</g>
</g>
<g>
	<circle fill="#2E95CC" cx="164.8" cy="230.4" r="25"/>
	<path fill="#FFFFFF" d="M174.5,216.1h-19.3c-0.6,0-1,0.5-1,1v26.6c0,0.6,0.5,1,1,1h19.3c0.6,0,1-0.5,1-1v-26.6
		C175.5,216.6,175,216.1,174.5,216.1z M160.5,242.7h-4.4v-4.6h4.4C160.5,238.1,160.5,242.7,160.5,242.7z M160.5,236.1h-4.4v-4.6h4.4
		V236.1z M160.5,229.4h-4.4v-4.6h4.4V229.4z M167,242.7h-4.4v-4.6h4.4V242.7z M167,236.1h-4.4v-4.6h4.4V236.1z M167,229.4h-4.4v-4.6
		h4.4V229.4z M173.5,242.7h-4.4v-4.6h4.4V242.7L173.5,242.7z M173.5,236.1h-4.4v-4.6h4.4V236.1L173.5,236.1z M173.5,229.4h-4.4v-4.6
		h4.4V229.4L173.5,229.4z M173.5,222.8h-17.4v-4.7h17.4V222.8L173.5,222.8z"/>
</g>
<g>
	<path fill="#656666" d="M227.8,206.4c13.2,0,24,10.8,24,24s-10.8,24-24,24s-24-10.8-24-24S214.5,206.4,227.8,206.4 M227.8,205.4
		c-13.8,0-25,11.2-25,25s11.2,25,25,25s25-11.2,25-25C252.8,216.6,241.6,205.4,227.8,205.4L227.8,205.4z"/>
</g>
<path fill="#656666" d="M237.4,216.1h-19.3c-0.6,0-1,0.5-1,1v26.6c0,0.6,0.5,1,1,1h19.3c0.6,0,1-0.5,1-1v-26.6
	C238.5,216.6,238,216.1,237.4,216.1z M223.5,242.7h-4.4v-4.6h4.4V242.7z M223.5,236.1h-4.4v-4.6h4.4V236.1z M223.5,229.4h-4.4v-4.6
	h4.4V229.4z M230,242.7h-4.4v-4.6h4.4V242.7z M230,236.1h-4.4v-4.6h4.4V236.1z M230,229.4h-4.4v-4.6h4.4V229.4z M236.5,242.7h-4.4
	v-4.6h4.4V242.7z M236.5,236.1h-4.4v-4.6h4.4V236.1z M236.5,229.4h-4.4v-4.6h4.4V229.4z M236.5,222.8h-17.4v-4.7h17.4V222.8
	L236.5,222.8z"/>
<g>
	<circle fill="#2E97D0" cx="290.7" cy="230.5" r="25.1"/>
	<path fill="#FFFFFF" d="M290.7,217.2c-4.7,0-8.6,3.8-8.6,8.6c0,7.5,7.7,18,8.6,18c0.8,0,8.6-10.5,8.6-18
		C299.3,221,295.4,217.2,290.7,217.2z M290.7,230c-2.4,0-4.3-1.9-4.3-4.3c0-2.4,1.9-4.3,4.3-4.3c2.3,0,4.3,1.9,4.3,4.3
		S293.1,230,290.7,230z"/>
</g>
<g>
	<path fill="#656666" d="M355.1,206.4c13.2,0,24,10.8,24,24s-10.8,24-24,24s-24-10.8-24-24S341.8,206.4,355.1,206.4 M355.1,205.4
		c-13.8,0-25,11.2-25,25s11.2,25,25,25s25-11.2,25-25C380.1,216.6,368.9,205.4,355.1,205.4L355.1,205.4z"/>
</g>
<path fill="#656666" d="M355.1,217.2c-4.7,0-8.5,3.8-8.5,8.5c0,7.4,7.7,18,8.5,18s8.5-10.5,8.5-18
	C363.6,221,359.8,217.2,355.1,217.2z M355.1,230c-2.3,0-4.2-1.9-4.2-4.2s1.9-4.2,4.2-4.2s4.2,1.9,4.2,4.2
	C359.3,228.1,357.4,230,355.1,230z"/>
<g>
	<circle fill="#2E95CC" cx="419.6" cy="230.4" r="25"/>
	<path fill="#FFFFFF" d="M431.3,238.9v-2.2h-2v-11.8h2v-3l-12-5.1l-11.6,5.1v3h2v11.8h-2v2.2H406v3h27v-3H431.3L431.3,238.9
		L431.3,238.9z M426.3,236.7h-5.2v-11.8h5.2V236.7z M412.8,225h5.2v11.8h-5.2V225z"/>
</g>
<g>
	<g>
		<path fill="#656666" d="M485.2,206.4c13.2,0,24,10.8,24,24s-10.8,24-24,24s-24-10.8-24-24S472,206.4,485.2,206.4 M485.2,205.4
			c-13.8,0-25,11.2-25,25s11.2,25,25,25s25-11.2,25-25C510.2,216.6,499,205.4,485.2,205.4L485.2,205.4z"/>
	</g>
	<path fill="#656666" d="M497,238.9v-2.2h-2v-11.8h2v-3l-12-5.1l-11.6,5.1v3h2v11.8h-2v2.2h-1.7v3h26.9v-3H497L497,238.9L497,238.9z
		 M492,236.7h-5.2v-11.8h5.2V236.7z M478.5,225h5.2v11.8h-5.2V225z"/>
</g>
<g>
	<circle fill="#2E95CC" cx="548.3" cy="230.4" r="25"/>
	<g>
		<path fill="#FFFFFF" d="M547.5,221c-1.2-0.9-3-2-5.4-2.2c-0.6-0.1-1.2-0.1-1.8-0.1c-3.1,0-5.5,0.9-5.6,0.9c-0.4,0.1-0.7,0.5-0.7,1
			v16.6c0,0.3,0.2,0.6,0.4,0.8c0.3,0.2,0.6,0.2,0.9,0.1c0,0,2.1-0.8,4.9-0.8c0.5,0,1.1,0,1.6,0.1c3.4,0.4,5.6,2.9,5.6,2.9l0,0
			L547.5,221L547.5,221z"/>
		<path fill="#FFFFFF" d="M561.9,219.6c-0.1,0-2.5-0.9-5.6-0.9c-0.6,0-1.2,0-1.8,0.1c-2.3,0.3-4.2,1.3-5.4,2.2v19.4l0,0
			c0,0,2.2-2.5,5.6-2.9c0.5-0.1,1.1-0.1,1.6-0.1c2.7,0,4.9,0.8,4.9,0.8c0.3,0.1,0.7,0.1,0.9-0.1c0.3-0.2,0.4-0.5,0.4-0.8v-16.7
			C562.6,220.1,562.3,219.7,561.9,219.6z"/>
	</g>
</g>
<g>
	<g>
		<path fill="#656666" d="M613.1,206.4c13.2,0,24,10.8,24,24s-10.8,24-24,24s-24-10.8-24-24C589,217.2,599.8,206.4,613.1,206.4
			 M613.1,205.4c-13.8,0-25,11.2-25,25s11.2,25,25,25s25-11.2,25-25C638.1,216.6,626.9,205.4,613.1,205.4L613.1,205.4z"/>
	</g>
	<g>
		<path fill="#656666" d="M612.3,222c-1.2-0.9-3-2-5.4-2.2c-0.6-0.1-1.2-0.1-1.8-0.1c-3.1,0-5.5,0.9-5.6,0.9c-0.4,0.1-0.7,0.5-0.7,1
			v16.6c0,0.3,0.2,0.6,0.4,0.8c0.3,0.2,0.6,0.2,0.9,0.1c0,0,2.1-0.8,4.9-0.8c0.5,0,1.1,0,1.6,0.1c3.4,0.4,5.6,2.9,5.6,2.9l0,0
			L612.3,222L612.3,222L612.3,222z"/>
		<path fill="#656666" d="M626.6,220.6c-0.1,0-2.5-0.9-5.6-0.9c-0.6,0-1.2,0-1.8,0.1c-2.3,0.3-4.2,1.3-5.4,2.2v19.4l0,0
			c0,0,2.2-2.5,5.6-2.9c0.5-0.1,1.1-0.1,1.6-0.1c2.7,0,4.9,0.8,4.9,0.8c0.3,0.1,0.7,0.1,0.9-0.1c0.3-0.2,0.4-0.5,0.4-0.8v-16.6
			C627.3,221.1,627,220.7,626.6,220.6z"/>
	</g>
</g>
<g>
	<circle fill="#2E97D0" cx="677.3" cy="230.4" r="25"/>
	<g>
		<polygon fill="#FFFFFF" points="677.3,230.9 689.2,222.5 665.5,222.5 		"/>
		<path fill="#FFFFFF" d="M690.2,223.1l-12.6,8.8c-0.2,0.1-0.4,0.1-0.6,0l-12.6-8.8v15.2h25.7L690.2,223.1L690.2,223.1z
			 M666.6,236.9c-0.1,0-0.3-0.1-0.4-0.2c-0.2-0.2-0.2-0.5,0-0.8l5.5-5.5c0.2-0.2,0.5-0.2,0.8,0c0.2,0.2,0.2,0.5,0,0.8l-5.5,5.5
			C666.9,236.9,666.7,236.9,666.6,236.9z M688.4,236.8c-0.1,0.1-0.2,0.2-0.4,0.2c-0.1,0-0.3-0.1-0.4-0.2l-5.5-5.5
			c-0.2-0.2-0.2-0.5,0-0.8c0.2-0.2,0.5-0.2,0.8,0l5.5,5.5C688.6,236.2,688.6,236.6,688.4,236.8z"/>
	</g>
</g>
<g>
	<g>
		<path fill="#656666" d="M740.3,206.4c13.3,0,24,10.8,24,24s-10.8,24-24,24c-13.3,0-24-10.8-24-24S727,206.4,740.3,206.4
			 M740.3,205.4c-13.8,0-25.1,11.2-25.1,25.1c0,13.8,11.2,25.1,25.1,25.1c13.8,0,25.1-11.2,25.1-25.1S754.1,205.4,740.3,205.4
			L740.3,205.4z"/>
	</g>
	<g>
		<polygon fill="#656666" points="740.3,230.9 752.2,222.6 728.4,222.6 		"/>
		<path fill="#656666" d="M753.2,223.2l-12.6,8.9c-0.2,0.1-0.4,0.1-0.6,0l-12.6-8.9v15.1h25.8L753.2,223.2L753.2,223.2z M729.6,237
			c-0.1,0-0.3-0.1-0.4-0.2c-0.2-0.2-0.2-0.5,0-0.8l5.5-5.5c0.2-0.2,0.5-0.2,0.8,0c0.2,0.2,0.2,0.5,0,0.8l-5.5,5.5
			C729.8,237,729.7,237,729.6,237z M751.4,236.8c-0.1,0.1-0.2,0.2-0.4,0.2c-0.1,0-0.3-0.1-0.4-0.2l-5.5-5.5c-0.2-0.2-0.2-0.5,0-0.8
			c0.2-0.2,0.5-0.2,0.8,0l5.5,5.5C751.6,236.3,751.6,236.6,751.4,236.8z"/>
	</g>
</g>
<g>
	<circle fill="#2E95CC" cx="806.2" cy="230.3" r="24.9"/>
	<path fill="#FFFFFF" d="M818.5,219.7H794c-0.8,0-1.5,0.7-1.5,1.5v18.3c0,0.8,0.7,1.5,1.5,1.5h24.5c0.8,0,1.5-0.7,1.5-1.5v-18.3
		C820,220.4,819.3,219.7,818.5,219.7z M817.9,239.1h-23.4v-17.3h23.4V239.1L817.9,239.1z M801.3,225.6c0,1-0.8,1.8-1.8,1.8l0,0
		c-1,0-1.8-0.8-1.8-1.8l0,0c0-1,0.8-1.8,1.8-1.8l0,0C800.5,223.9,801.3,224.7,801.3,225.6L801.3,225.6z M801.3,231
		c0.2-0.2,0.6-0.3,0.9-0.1l3.3,1.9c0.3,0.2,0.7,0.1,0.9-0.2l4.1-5c0.2-0.3,0.5-0.2,0.6,0.1l5.1,9.5c0.2,0.3,0,0.5-0.3,0.5h-19.7
		c-0.3,0-0.4-0.2-0.2-0.4L801.3,231z"/>
</g>
<g>
	<g>
		<path fill="#656666" d="M870.4,206.4c13.3,0,24,10.8,24,24c0,13.3-10.8,24-24,24c-13.3,0-24-10.8-24-24
			C846.3,217.2,857.1,206.4,870.4,206.4 M870.4,205.4c-13.8,0-25.1,11.2-25.1,25.1c0,13.8,11.2,25.1,25.1,25.1
			c13.8,0,25.1-11.2,25.1-25.1C895.4,216.6,884.2,205.4,870.4,205.4L870.4,205.4z"/>
	</g>
	<path fill="#656666" d="M882.7,219.8h-24.6c-0.8,0-1.5,0.7-1.5,1.5v18.4c0,0.8,0.7,1.5,1.5,1.5h24.6c0.8,0,1.5-0.7,1.5-1.5v-18.4
		C884.2,220.5,883.5,219.8,882.7,219.8z M882.1,239.3h-23.5v-17.4h23.5V239.3z M865.4,225.8c0,1-0.8,1.8-1.8,1.8l0,0
		c-1,0-1.8-0.8-1.8-1.8l0,0c0-1,0.8-1.8,1.8-1.8l0,0C864.6,224,865.4,224.8,865.4,225.8L865.4,225.8z M865.4,231.1
		c0.2-0.3,0.6-0.3,0.9-0.2l3.4,1.9c0.3,0.2,0.7,0.1,0.9-0.2l4.1-5.1c0.2-0.3,0.5-0.2,0.7,0.1l5.1,9.5c0.2,0.3,0,0.5-0.3,0.5h-19.9
		c-0.3,0-0.4-0.2-0.2-0.5L865.4,231.1z"/>
</g>
<g>
	<circle fill="#2E97D0" cx="934.1" cy="230.5" r="25.1"/>
	
		<rect x="918.9" y="228.7" transform="matrix(0.7071 -0.7071 0.7071 0.7071 110.702 727.9049)" fill="#FFFFFF" width="30.2" height="3.3"/>
	<path fill="#FFFFFF" d="M941.1,231.9c-3.1,0-5.6,2.5-5.6,5.6s2.5,5.6,5.6,5.6s5.5-2.5,5.5-5.6S944.1,231.9,941.1,231.9z
		 M941.1,240.1c-1.5,0-2.7-1.2-2.7-2.7s1.2-2.7,2.7-2.7s2.7,1.2,2.7,2.7C943.8,238.9,942.6,240.1,941.1,240.1z"/>
	<path fill="#FFFFFF" d="M927.1,229c3.1,0,5.6-2.5,5.6-5.5c0-3.1-2.5-5.6-5.6-5.6s-5.6,2.5-5.6,5.6C921.6,226.5,924,229,927.1,229z
		 M927.1,220.8c1.5,0,2.7,1.2,2.7,2.7s-1.2,2.7-2.7,2.7s-2.7-1.2-2.7-2.7S925.6,220.8,927.1,220.8z"/>
</g>
<g>
	<g>
		<path fill="#656666" d="M997.8,206.4c13.3,0,24,10.8,24,24c0,13.3-10.8,24-24,24c-13.3,0-24-10.8-24-24S984.6,206.4,997.8,206.4
			 M997.8,205.4c-13.8,0-25.1,11.2-25.1,25.1c0,13.8,11.2,25.1,25.1,25.1c13.8,0,25.1-11.2,25.1-25.1S1011.7,205.4,997.8,205.4
			L997.8,205.4z"/>
	</g>
	
		<rect x="982.6" y="228.7" transform="matrix(0.7071 -0.7071 0.7071 0.7071 129.3656 772.9613)" fill="#656666" width="30.2" height="3.3"/>
	<path fill="#656666" d="M1004.8,231.9c-3.1,0-5.6,2.5-5.6,5.6s2.5,5.6,5.6,5.6s5.6-2.5,5.6-5.6
		C1010.3,234.4,1007.9,231.9,1004.8,231.9z M1004.8,240.1c-1.5,0-2.7-1.2-2.7-2.7s1.2-2.7,2.7-2.7s2.7,1.2,2.7,2.7
		S1006.3,240.1,1004.8,240.1z"/>
	<path fill="#656666" d="M990.8,229c3.1,0,5.6-2.5,5.6-5.6s-2.5-5.6-5.6-5.6s-5.5,2.5-5.5,5.6S987.8,229,990.8,229z M990.8,220.8
		c1.5,0,2.7,1.2,2.7,2.7s-1.2,2.7-2.7,2.7s-2.7-1.2-2.7-2.7S989.3,220.8,990.8,220.8z"/>
</g>
<g>
	<circle fill="#2E95CC" cx="104.1" cy="302.5" r="25.1"/>
	<path fill="#FFFFFF" d="M119.1,301.6h-5.7v-11.3c0-0.3-0.3-0.6-0.6-0.6H89c-0.3,0-0.6,0.3-0.6,0.6V305c0,0.3,0.3,0.6,0.6,0.6h3.8
		c0,0.9-0.3,2.8-1.9,3.8c-0.2,0.1-0.3,0.4-0.2,0.7c0.1,0.2,0.3,0.4,0.5,0.4l0,0c3.4-0.2,4.8-3,5.1-4.9h4.4v7.5
		c0,0.3,0.3,0.6,0.6,0.6h12.4c0.3,1.4,1.4,3.5,3.9,3.6l0,0c0.2,0,0.5-0.2,0.5-0.4c0.1-0.2,0-0.5-0.2-0.6c-1-0.7-1.3-1.9-1.3-2.6h2.5
		c0.3,0,0.6-0.3,0.6-0.6v-11C119.7,301.8,119.4,301.6,119.1,301.6z M100.8,302.1v2.3h-4.9c-0.3,0-0.5,0.2-0.6,0.5
		c0,0.1-0.3,2.7-2.3,3.8c1-1.7,0.8-3.7,0.8-3.9c0-0.3-0.3-0.5-0.6-0.5h-3.7v-13.5h22.8v10.7h-11C101,301.6,100.8,301.8,100.8,302.1z
		"/>
</g>
<g>
	<g>
		<path fill="#656666" d="M164.8,278.4c13.2,0,24,10.7,24,24c0,13.2-10.7,23.9-24,23.9c-13.2,0-24-10.7-24-23.9
			C140.9,289.2,151.6,278.4,164.8,278.4 M164.8,277.4c-13.8,0-25,11.2-25,25s11.2,25,25,25s25-11.2,25-25S178.6,277.4,164.8,277.4
			L164.8,277.4z"/>
	</g>
	<path fill="none" d="M150.4,290.9v13.5h3.7c0.3,0,0.5,0.2,0.6,0.5c0,0.1,0.2,2.1-0.8,3.8c2-1.1,2.2-3.7,2.2-3.8
		c0-0.3,0.3-0.5,0.6-0.5h4.9v-2.3c0-0.3,0.3-0.6,0.6-0.6h11v-10.6H150.4L150.4,290.9z"/>
	<path fill="#656666" d="M179.8,301.5h-5.6v-11.2c0-0.3-0.3-0.6-0.6-0.6h-23.8c-0.3,0-0.6,0.3-0.6,0.6V305c0,0.3,0.3,0.6,0.6,0.6
		h3.7c0,0.9-0.3,2.8-1.8,3.8c-0.2,0.1-0.3,0.4-0.2,0.6s0.3,0.4,0.5,0.4l0,0c3.4-0.2,4.8-3,5.1-4.9h4.4v7.5c0,0.3,0.3,0.6,0.6,0.6
		h12.3c0.3,1.4,1.4,3.5,3.9,3.6l0,0c0.2,0,0.5-0.2,0.5-0.4c0.1-0.2,0-0.5-0.2-0.6c-1-0.7-1.3-1.9-1.3-2.6h2.5c0.3,0,0.6-0.3,0.6-0.6
		v-10.9C180.4,301.8,180.1,301.5,179.8,301.5z M161.6,302.1v2.3h-4.9c-0.3,0-0.5,0.2-0.6,0.5c0,0.1-0.3,2.7-2.2,3.8
		c1-1.7,0.8-3.7,0.8-3.8c0-0.3-0.3-0.5-0.6-0.5h-3.7v-13.5h22.7v10.7h-11C161.8,301.5,161.6,301.8,161.6,302.1z"/>
</g>
<g>
	<circle fill="#2E95CC" cx="227.8" cy="302.5" r="25.1"/>
	<path fill="#FFFFFF" d="M225.9,300.2c-1.4,0.9-3.5,3.2-3.7,3.9c-0.1,0.7,1.1,2.1,1.3,2.4s0.7,1.7-0.8,2.8c-1.4,1-5,3.6-5.6,4
		c-1.3,1-2.4-1.2-2.9-1.9c-0.5-0.6-2.6-6,9.2-14.5s16.2-4.7,16.7-4.1s2.2,2.4,0.9,3.3c-0.6,0.4-4.1,3-5.6,4c-1.4,1-2.6,0.1-2.9-0.2
		c-0.2-0.3-1.2-1.9-1.9-2C230.1,297.9,227.3,299.2,225.9,300.2z"/>
</g>
<g>
	<path fill="#656666" d="M290.7,278.4c13.2,0,24,10.8,24,24s-10.8,24-24,24s-24-10.8-24-24C266.7,289.2,277.5,278.4,290.7,278.4
		 M290.7,277.4c-13.8,0-25,11.2-25,25s11.2,25,25,25s25-11.2,25-25S304.5,277.4,290.7,277.4L290.7,277.4z"/>
</g>
<path fill="#656666" d="M288.9,300.1c-1.4,0.9-3.5,3.2-3.6,3.9c-0.1,0.7,1.1,2.1,1.3,2.4c0.2,0.3,0.7,1.7-0.8,2.8
	c-1.4,1-4.9,3.5-5.5,4c-1.3,1-2.4-1.2-2.9-1.9c-0.5-0.6-2.6-6,9.2-14.4s16.2-4.7,16.6-4.1c0.5,0.6,2.2,2.4,0.9,3.3
	c-0.6,0.4-4.1,2.9-5.5,4c-1.4,1-2.6,0.1-2.9-0.2c-0.2-0.3-1.2-1.9-1.9-2C293,297.8,290.2,299.1,288.9,300.1z"/>
<g>
	<circle fill="#2E95CC" cx="355.1" cy="302.5" r="25.1"/>
	<g>
		<polygon fill="#FFFFFF" points="369.9,304.6 359.8,304.6 359.8,299.5 351.7,307.6 359.8,315.7 359.8,310.7 369.9,310.7 		"/>
		<polygon fill="#FFFFFF" points="358.4,297.4 350.3,289.3 350.3,294.3 340.2,294.3 340.2,300.4 350.3,300.4 350.3,305.5 		"/>
	</g>
</g>
<g>
	<g>
		<path fill="#656666" d="M419.6,278.5c13.3,0,24,10.8,24,24c0,13.3-10.8,24-24,24c-13.3,0-24-10.8-24-24
			C395.5,289.2,406.3,278.5,419.6,278.5 M419.6,277.4c-13.8,0-25.1,11.2-25.1,25.1c0,13.8,11.2,25.1,25.1,25.1
			c13.8,0,25.1-11.2,25.1-25.1C444.6,288.6,433.4,277.4,419.6,277.4L419.6,277.4z"/>
	</g>
	<g>
		<polygon fill="#656666" points="434.4,304.6 424.3,304.6 424.3,299.5 416.2,307.6 424.3,315.7 424.3,310.7 434.4,310.7 		"/>
		<polygon fill="#656666" points="422.9,297.4 414.8,289.3 414.8,294.3 404.8,294.3 404.8,300.4 414.8,300.4 414.8,305.5 		"/>
	</g>
</g>
<circle fill="#2E95CC" cx="485.2" cy="302.5" r="25"/>
<g>
	
		<rect x="475.7" y="293.2" transform="matrix(0.6556 -0.7551 0.7551 0.6556 -60.6153 463.3846)" fill="#FFFFFF" width="3.9" height="9.9"/>
	<polygon fill="#FFFFFF" points="497.7,288 487.8,291.3 490.6,293.5 481.6,304.4 481.6,317 485.5,317 485.5,305.8 493.6,296 
		496.3,298.2 	"/>
</g>
<g>
	<g>
		<path fill="#656666" d="M547.5,278.5c13.3,0,24,10.8,24,24c0,13.3-10.8,24-24,24c-13.3,0-24-10.8-24-24
			C523.5,289.2,534.3,278.5,547.5,278.5 M547.5,277.4c-13.8,0-25.1,11.2-25.1,25.1c0,13.8,11.2,25.1,25.1,25.1
			c13.8,0,25.1-11.2,25.1-25.1S561.4,277.4,547.5,277.4L547.5,277.4z"/>
	</g>
	<g>
		
			<rect x="538.2" y="293.3" transform="matrix(0.6559 -0.7549 0.7549 0.6559 -39.2886 510.372)" fill="#656666" width="3.9" height="9.9"/>
		<polygon fill="#656666" points="560,287.9 550.2,291.2 552.9,293.5 543.9,304.4 543.9,317 547.8,317 547.8,305.8 555.9,296 
			558.6,298.2 		"/>
	</g>
</g>
<circle fill="#2E95CC" cx="613.1" cy="302.5" r="25"/>
<path fill="#FFFFFF" d="M626.1,298.3c-2.3-7.2-10.1-11.1-17.2-8.8c-7.2,2.3-11.1,10.1-8.8,17.2c2.3,7.2,10.1,11.1,17.2,8.8
	C624.4,313.2,628.4,305.4,626.1,298.3z M614.4,296.7c0.1-0.7,0.2-1.4,0.2-2.1c0.1-0.7,0.1-1.3,0.1-1.8v-0.3c2.9,0.5,5.6,2.3,7.1,5
	l-0.4,0.1c-0.5,0.2-1.1,0.4-1.7,0.7s-1.3,0.6-1.9,0.9c-0.3,0.1-0.8,0.4-1.3,0.6c-0.3,0.1-0.6,0.3-0.9,0.4c-0.1-0.1-0.1-0.2-0.2-0.3
	c-0.3-0.3-0.7-0.5-1.1-0.7c-0.1,0-0.2-0.1-0.3-0.1c0-0.3,0.1-0.7,0.1-1C614.3,297.5,614.3,297,614.4,296.7z M609.9,292.8
	c0.2-0.1,0.5-0.1,0.7-0.2v0.1c0.1,0.6,0.1,1.3,0.2,1.9c0.1,0.7,0.2,1.4,0.3,2.1c0.1,0.3,0.1,0.9,0.2,1.5c0,0.4,0.1,0.7,0.1,1.1
	c-0.1,0-0.2,0.1-0.3,0.1c-0.3,0.2-0.5,0.4-0.8,0.6c-0.1,0.1-0.1,0.2-0.2,0.3c-0.3-0.1-0.7-0.3-1.1-0.5c-0.5-0.2-1.1-0.5-1.4-0.6
	c-0.6-0.3-1.3-0.6-1.9-0.9s-1.2-0.5-1.7-0.7h-0.1C605.3,295.4,607.3,293.6,609.9,292.8z M606.6,307.8c-0.4,0.5-0.8,0.9-1.2,1.3
	l-0.1,0.1c-0.9-1-1.6-2.2-2-3.5c-0.4-1.4-0.6-2.7-0.4-4.1h0.1c0.5,0.1,1.1,0.3,1.7,0.4c0.7,0.1,1.4,0.3,2.1,0.4
	c0.4,0.1,0.9,0.2,1.5,0.3c0.4,0.1,0.8,0.2,1.2,0.3c0,0.1,0,0.2,0,0.3s0.1,0.3,0.1,0.4s0.1,0.3,0.1,0.4s0.1,0.2,0.2,0.3
	c-0.2,0.3-0.5,0.6-0.8,0.9c-0.4,0.5-0.8,0.9-1.1,1.1C607.6,306.8,607.1,307.3,606.6,307.8z M616.2,312.2c-2.6,0.8-5.3,0.6-7.5-0.5
	v-0.1c0.3-0.4,0.6-1,0.9-1.5c0.3-0.6,0.7-1.2,1-1.9c0.1-0.3,0.4-0.8,0.7-1.3c0.2-0.3,0.4-0.7,0.6-1c0.1,0,0.2,0.1,0.3,0.1
	c0.3,0.1,0.7,0.1,1,0.1c0.1,0,0.2,0,0.3,0c0.2,0.3,0.4,0.6,0.5,0.9c0.3,0.5,0.6,1,0.7,1.3c0.3,0.6,0.6,1.3,1,1.9
	c0.3,0.6,0.6,1.1,0.9,1.6l0.1,0.2C616.7,312,616.4,312.1,616.2,312.2z M620.3,309.6l-0.1-0.2c-0.4-0.5-0.8-0.9-1.2-1.4
	s-0.9-1-1.4-1.6c-0.2-0.2-0.6-0.6-0.9-1.1c-0.2-0.3-0.5-0.5-0.7-0.8c0.1-0.1,0.1-0.2,0.2-0.3c0.2-0.4,0.4-0.8,0.4-1.2
	c0-0.1,0-0.2,0-0.3c0.3-0.1,0.6-0.1,0.9-0.2c0.6-0.1,1.1-0.3,1.4-0.3c0.7-0.1,1.4-0.2,2.1-0.4c0.7-0.1,1.3-0.3,1.8-0.4l0.3-0.1h0.1
	C623.5,304.4,622.4,307.4,620.3,309.6z"/>
<g>
	<g>
		<path fill="#656666" d="M677.3,278.5c13.3,0,24,10.8,24,24c0,13.3-10.8,24-24,24c-13.3,0-24-10.8-24-24
			C653.3,289.2,664.1,278.5,677.3,278.5 M677.3,277.4c-13.8,0-25.1,11.2-25.1,25.1c0,13.8,11.2,25.1,25.1,25.1
			c13.8,0,25.1-11.2,25.1-25.1S691.1,277.4,677.3,277.4L677.3,277.4z"/>
	</g>
	<path fill="#656666" d="M690.3,298.3c-2.3-7.2-10.1-11.1-17.2-8.8c-7.2,2.3-11.1,10.1-8.8,17.2c2.3,7.2,10.1,11.1,17.2,8.8
		C688.7,313.2,692.7,305.4,690.3,298.3z M679.4,294.6c0.1-0.7,0.1-1.3,0.1-1.9c0-0.1,0-0.1,0-0.2c2.6,0.6,4.9,2.2,6.4,4.4
		c-0.1,0-0.2,0.1-0.3,0.1c-0.5,0.2-1.1,0.4-1.7,0.7c-0.6,0.3-1.3,0.6-1.9,0.9c-0.4,0.2-1.6,0.7-2.3,1c-0.2-0.2-0.5-0.3-0.7-0.5
		c0.1-0.8,0.2-2.1,0.2-2.6S679.3,295.3,679.4,294.6z M674.2,292.8c0.1,0,0.1,0,0.2-0.1v0.1c0,0.5,0.1,1.2,0.2,1.8
		c0.1,0.7,0.2,1.4,0.3,2.1c0.1,0.6,0.2,2,0.3,2.8c-0.1,0.1-0.3,0.2-0.4,0.3c-0.8-0.4-2.1-0.9-2.6-1.1c-0.7-0.3-1.3-0.6-1.9-0.9
		s-1.2-0.5-1.7-0.7C669.8,295.2,671.8,293.6,674.2,292.8z M670.5,307.5c-0.4,0.5-0.9,0.9-1.2,1.3c-0.7-0.9-1.3-2-1.7-3.1
		c-0.4-1.2-0.5-2.4-0.5-3.6c0.5,0.1,1.1,0.3,1.7,0.4c0.7,0.1,1.4,0.3,2.1,0.4c0.6,0.1,2,0.4,2.9,0.6c0,0.1,0,0.1,0,0.2
		s0,0.1,0.1,0.2c-0.6,0.6-1.5,1.7-2,2.2C671.5,306.4,671,307,670.5,307.5z M680.5,312.2c-2.4,0.8-4.9,0.6-7.1-0.3
		c0.3-0.5,0.6-1,1-1.6c0.3-0.6,0.7-1.2,1-1.9c0.3-0.5,1-1.7,1.4-2.4c0.2,0,0.4,0,0.5,0c0.4,0.7,1.1,1.9,1.4,2.4
		c0.3,0.7,0.7,1.3,1,1.9s0.6,1.1,0.9,1.6c0,0,0,0.1,0.1,0.1C680.6,312.1,680.5,312.2,680.5,312.2z M684.9,309.2
		c0-0.1-0.1-0.1-0.1-0.2c-0.3-0.4-0.7-0.9-1.2-1.4c-0.4-0.5-0.9-1-1.5-1.6c-0.3-0.4-1.1-1.3-1.7-1.9c0.1-0.3,0.2-0.5,0.3-0.8
		c0.8-0.2,2-0.5,2.5-0.6c0.7-0.1,1.4-0.2,2.1-0.4c0.7-0.1,1.3-0.3,1.8-0.4c0.1,0,0.2-0.1,0.3-0.1
		C687.6,304.6,686.7,307.2,684.9,309.2z"/>
</g>
<circle opacity="0.7" fill="#231F20" stroke="#A7A9AC" stroke-width="2" stroke-miterlimit="10" enable-background="new    " cx="266.9" cy="26.5" r="21.4"/>
<line fill="none" stroke="#FFFFFF" stroke-width="1.5" stroke-miterlimit="10" x1="258.6" y1="30.5" x2="268.1" y2="21.1"/>
<line fill="none" stroke="#FFFFFF" stroke-width="1.5" stroke-miterlimit="10" x1="267" y1="21.1" x2="276.4" y2="30.5"/>
<polygon id="polygon4578-1_1_" fill="#FFFFFF" points="796.7,379.3 805.5,370.6 814.2,379.2 814.9,378.5 805.5,369.1 795.9,378.6 
	"/>
<polygon id="polygon4578-1-1_1_" fill="#FFFFFF" points="805.5,427.8 795.9,418.2 796.7,417.5 805.5,426.3 814.2,417.7 814.9,418.4 
	"/>
<polygon id="polygon4578-1_2_" fill="#2E95CC" points="1068.8,294.8 1077.6,303.6 1068.9,312.3 1069.6,313 1079,303.6 1069.5,294 
	"/>
<polygon id="polygon4578-1_3_" fill="#FFFFFF" points="1068.8,318.8 1077.6,327.7 1068.9,336.3 1069.6,337 1079,327.7 1069.5,318 
	"/>
<path fill="#B3B3B3" d="M279.3,92.7h-0.8v-4.6c0-0.3,0-0.6-0.1-0.8c-0.1-0.4-0.2-0.8-0.4-1.1c-0.2-0.4-0.4-0.7-0.7-1l-2.8-2.8l0,0
	c-0.4-0.4-0.9-0.7-1.4-0.9c-0.3-0.1-0.5-0.2-0.8-0.3s-0.5-0.1-0.8-0.1h-14.1c-0.7,0-1.3,0.3-1.8,0.7c-0.4,0.4-0.7,1.1-0.7,1.8v9.1
	h-0.4c-2.3,0-4.1,1.9-4.1,4.1v3.7v8.3h4.5v5.4c0,0.7,0.3,1.3,0.7,1.8c0.4,0.4,1.1,0.7,1.8,0.7H276c0.7,0,1.3-0.3,1.8-0.7
	c0.4-0.4,0.7-1.1,0.7-1.8v-5.4h5v-8.3v-3.7C283.5,94.6,281.6,92.7,279.3,92.7z M272.3,83.9L272.3,83.9c0.2,0.1,0.4,0.2,0.4,0.3
	l2.8,2.8l0,0c0.1,0.1,0.2,0.2,0.3,0.4h-3.5L272.3,83.9L272.3,83.9z M257.4,83.6h12.8v3.7V89v0.4h5.8v3.3h-18.6L257.4,83.6
	L257.4,83.6z M276,114.2h-18.6v-5.4v-5H276v5V114.2z M280.1,97.3c-0.6,0-1.1-0.5-1.1-1.1s0.5-1.1,1.1-1.1s1.1,0.5,1.1,1.1
	S280.7,97.3,280.1,97.3z"/>
<circle id="circle4736_1_" fill="#2D96CD" cx="649.4" cy="25.8" r="3.4"/>
<circle id="circle4738_1_" fill="#2D96CD" cx="660.1" cy="25.8" r="3.4"/>
<circle id="circle4740_1_" fill="#2D96CD" cx="670.9" cy="25.8" r="3.4"/>
<polygon id="polygon4544_1_" fill="#24A3DD" points="719.3,16.5 710.5,25.3 701.6,16.5 700,18.1 708.9,27 700.1,35.7 701.7,37.4 
	710.5,28.6 719.3,37.4 720.9,35.7 712.1,27 720.9,18.1 "/>
<g>
	<g>
		<g>
			<g>
				<g>
					<g>
						<g>
							<g>
								<g>
									<g>
										<g>
											<g>
												<g>
													<defs>
														<polygon id="SVGID_10_" points="315.9,111 317.3,102.5 311.2,96.5 319.7,95.3 323.5,87.5 327.4,95.3 335.9,96.5 
															329.7,102.5 331.2,111 323.5,107 														"/>
													</defs>
													<clipPath id="SVGID_12_">
														<use xlink:href="#SVGID_10_"  overflow="visible"/>
													</clipPath>
													<polygon id="polygon3271_1_" clip-path="url(#SVGID_12_)" fill="#B3B3B3" points="327.4,95.3 335.9,96.5 329.7,102.5 
														331.2,111 323.5,107 315.9,111 317.3,102.5 311.2,96.5 319.7,95.3 323.5,87.5 													"/>
												</g>
											</g>
										</g>
									</g>
								</g>
							</g>
						</g>
					</g>
				</g>
			</g>
		</g>
	</g>
</g>
<path id="path4484_1_" opacity="0.6" enable-background="new    " d="M381,107.6l-0.1-0.4c-0.3-1-1.4-2-2.4-2.3l-3.7-1
	c-1-0.3-2.4,0.1-3.2,0.8l-1.3,1.3c-4.9-1.3-8.7-5.1-10-10l1.3-1.3c0.7-0.7,1.1-2.2,0.8-3.2l-1-3.7c-0.3-1-1.3-2.1-2.3-2.4l-0.4-0.1
	c-1-0.3-2.4,0-3.1,0.7l-2,2c-0.4,0.4-0.6,1.4-0.6,1.4c-0.1,6.4,2.4,12.5,6.9,17s10.6,7,17,6.9c0,0,1.1-0.2,1.4-0.6l2-2
	C381,110,381.3,108.6,381,107.6"/>
<rect id="rect4538_1_" x="339.4" y="24.6" fill="#24A3DD" width="27.3" height="2.3"/>
<polygon id="polygon4544_2_" fill="#24A3DD" points="334,24.7 321.5,24.7 321.5,12.2 319.2,12.2 319.2,24.7 306.8,24.7 306.8,27 
	319.2,27 319.2,39.4 321.5,39.4 321.5,27 334,27 "/>
<polygon id="polygon4530_1_" fill="none" stroke="#FFFFFF" stroke-miterlimit="10" points="220.3,411.4 220.3,390.1 234.5,400.8 "/>
<path id="path4552_1_" fill="#24A3DD" d="M604-202.6c-13.8,0-25,11.2-25,25s11.2,25,25,25s25-11.2,25-25
	C629-191.4,617.8-202.6,604-202.6 M604-153.5c-13.3,0-24.1-10.8-24.1-24.1s10.8-24.1,24.1-24.1s24.1,10.8,24.1,24.1
	S617.3-153.5,604-153.5"/>
<path id="path4552_2_" fill="#FFFFFF" d="M104-202.6c-13.8,0-25,11.2-25,25s11.2,25,25,25s25-11.2,25-25
	C129-191.4,117.8-202.6,104-202.6 M104-153.5c-13.3,0-24.1-10.8-24.1-24.1s10.8-24.1,24.1-24.1s24.1,10.8,24.1,24.1
	S117.3-153.5,104-153.5"/>
<path id="path4552_3_" fill="#24A3DD" d="M1018.3-122.1c-13.8,0-25,11.2-25,25s11.2,25,25,25s25-11.2,25-25
	S1032.1-122.1,1018.3-122.1 M1018.3-73c-13.3,0-24.1-10.8-24.1-24.1s10.8-24.1,24.1-24.1s24.1,10.8,24.1,24.1S1031.6-73,1018.3-73"
	/>
<path id="path4552_4_" fill="#24A3DD" d="M960.7-122.6c-13.8,0-25,11.2-25,25s11.2,25,25,25s25-11.2,25-25S974.5-122.6,960.7-122.6
	 M960.7-73.5c-13.3,0-24.1-10.8-24.1-24.1s10.8-24.1,24.1-24.1s24.1,10.8,24.1,24.1S974-73.5,960.7-73.5"/>
<path id="path4552_5_" fill="#24A3DD" d="M905.4-122.6c-13.8,0-25,11.2-25,25s11.2,25,25,25s25-11.2,25-25
	C930.4-111.3,919.2-122.6,905.4-122.6 M905.4-73.5c-13.3,0-24.1-10.8-24.1-24.1s10.8-24.1,24.1-24.1s24.1,10.8,24.1,24.1
	C929.5-84.2,918.7-73.5,905.4-73.5"/>
<path id="path4552_6_" fill="#24A3DD" d="M847.4-122.6c-13.8,0-25,11.2-25,25s11.2,25,25,25s25-11.2,25-25S861.2-122.6,847.4-122.6
	 M847.4-73.5c-13.3,0-24.1-10.8-24.1-24.1s10.8-24.1,24.1-24.1s24.1,10.8,24.1,24.1S860.7-73.5,847.4-73.5"/>
<path id="path4552_7_" fill="#FFFFFF" d="M795.1-122.6c-13.8,0-25,11.2-25,25s11.2,25,25,25s25-11.2,25-25S808.9-122.6,795.1-122.6
	 M795.1-73.5c-13.3,0-24.1-10.8-24.1-24.1s10.8-24.1,24.1-24.1s24.1,10.8,24.1,24.1C819.2-84.3,808.4-73.5,795.1-73.5"/>
<path id="path4552_8_" fill="#FFFFFF" d="M679.7-122.6c-13.8,0-25,11.2-25,25s11.2,25,25,25s25-11.2,25-25S693.5-122.6,679.7-122.6
	 M679.7-73.5c-13.3,0-24.1-10.8-24.1-24.1s10.8-24.1,24.1-24.1s24.1,10.8,24.1,24.1S693-73.5,679.7-73.5"/>
<path id="path4552_9_" fill="#FFFFFF" d="M564.8-122.6c-13.8,0-25,11.2-25,25s11.2,25,25,25s25-11.2,25-25S578.6-122.6,564.8-122.6
	 M564.8-73.5c-13.3,0-24.1-10.8-24.1-24.1s10.8-24.1,24.1-24.1s24.1,10.8,24.1,24.1C588.9-84.3,578.1-73.5,564.8-73.5"/>
<path id="path4552_10_" fill="#24A3DD" d="M449.6-122.6c-13.8,0-25,11.2-25,25s11.2,25,25,25s25-11.2,25-25S463.4-122.6,449.6-122.6
	 M449.6-73.5c-13.3,0-24.1-10.8-24.1-24.1s10.8-24.1,24.1-24.1s24.1,10.8,24.1,24.1S462.9-73.5,449.6-73.5"/>
<path id="path4552_11_" fill="#FFFFFF" d="M391.9-122.6c-13.8,0-25,11.2-25,25s11.2,25,25,25s25-11.2,25-25S405.7-122.6,391.9-122.6
	 M391.9-73.5c-13.3,0-24.1-10.8-24.1-24.1s10.8-24.1,24.1-24.1S416-110.9,416-97.6S405.2-73.5,391.9-73.5"/>
<path id="path4552_12_" fill="#24A3DD" d="M334.4-122.6c-13.8,0-25,11.2-25,25s11.2,25,25,25s25-11.2,25-25S348.2-122.6,334.4-122.6
	 M334.4-73.5c-13.3,0-24.1-10.8-24.1-24.1s10.8-24.1,24.1-24.1s24.1,10.8,24.1,24.1S347.7-73.5,334.4-73.5"/>
<path id="path4552_13_" fill="#24A3DD" d="M219.2-122.6c-13.8,0-25,11.2-25,25s11.2,25,25,25s25-11.2,25-25S233-122.6,219.2-122.6
	 M219.2-73.5c-13.3,0-24.1-10.8-24.1-24.1s10.8-24.1,24.1-24.1s24.1,10.8,24.1,24.1S232.5-73.5,219.2-73.5"/>
<path id="path4552_14_" fill="#FFFFFF" d="M214.1-59.1c-13.4,0-24.3,10.9-24.3,24.3s10.9,24.3,24.3,24.3c13.4,0,24.3-10.9,24.3-24.3
	C238.5-48.2,227.6-59.1,214.1-59.1 M214.1-11.3c-12.9,0-23.4-10.5-23.4-23.4s10.5-23.4,23.4-23.4s23.4,10.5,23.4,23.4
	S227.1-11.3,214.1-11.3"/>
<path id="path4552_15_" fill="#FFFFFF" d="M315-59.1c-13.8,0-25,11.2-25,25s11.2,25,25,25s25-11.2,25-25S328.8-59.1,315-59.1
	 M315-10c-13.3,0-24.1-10.8-24.1-24.1s10.8-24.1,24.1-24.1s24.1,10.8,24.1,24.1S328.3-10,315-10"/>
<path id="path4552_16_" fill="#24A3DD" d="M660.1-59.6c-13.8,0-25,11.2-25,25s11.2,25,25,25s25-11.2,25-25S673.9-59.6,660.1-59.6
	 M660.1-10.5c-13.3,0-24.1-10.8-24.1-24.1s10.8-24.1,24.1-24.1s24.1,10.8,24.1,24.1C684.2-21.3,673.4-10.5,660.1-10.5"/>
<path id="path4552_17_" fill="#B3B3B3" d="M764.9-59.6c-13.8,0-25,11.2-25,25s11.2,25,25,25s25-11.2,25-25S778.7-59.6,764.9-59.6
	 M764.9-10.5c-13.3,0-24.1-10.8-24.1-24.1s10.8-24.1,24.1-24.1S789-47.9,789-34.6S778.2-10.5,764.9-10.5"/>
<path id="path4552_18_" fill="#FFFFFF" d="M225.1,375.5c-13.8,0-25,11.2-25,25s11.2,25,25,25s25-11.2,25-25S238.9,375.5,225.1,375.5
	 M225.1,424.6c-13.3,0-24.1-10.8-24.1-24.1s10.8-24.1,24.1-24.1s24.1,10.8,24.1,24.1C249.2,413.8,238.4,424.6,225.1,424.6"/>
<circle fill="#2E95CC" cx="740.3" cy="302.5" r="25"/>
<g>
	<path fill="#24A3DD" d="M298.3,390L298.3,390c0-0.1,0-0.2,0-0.2s0,0,0-0.1l-0.1-0.1c0,0,0,0-0.1-0.1l0,0c0,0-0.1,0-0.1-0.1
		c0,0,0,0-0.1,0l0,0h-0.1h-0.1h-0.1h-0.1h-0.1c0,0-0.1,0-0.1,0.1l0,0l-16.1,14.8c-0.2,0.2-0.3,0.5-0.1,0.7c0.1,0.2,0.3,0.3,0.5,0.3
		c0.1,0,0.1,0,0.2,0l8.5-2.3l2.3,8.5c0.1,0.3,0.3,0.4,0.6,0.4l0,0c0.3,0,0.5-0.2,0.6-0.5L298.3,390L298.3,390
		C298.3,390.1,298.3,390.1,298.3,390z"/>
	<g>
		<path fill="#24A3DD" d="M290.7,376.7c13.2,0,24,10.8,24,24s-10.8,24-24,24s-24-10.8-24-24S277.5,376.7,290.7,376.7 M290.7,375.7
			c-13.8,0-25,11.2-25,25s11.2,25,25,25s25-11.2,25-25C315.7,386.9,304.5,375.7,290.7,375.7L290.7,375.7z"/>
	</g>
</g>
<g>
	<g>
		<g>
			<path id="SVGID_15_" fill="#FFFFFF" d="M729.5,305.2c1,0,1.9-0.9,1.9-2s-0.8-2-1.9-2c-1,0-1.8,0.9-1.8,2S728.5,305.2,729.5,305.2
				 M751.7,306.4l-1.7-1.8l-1.7,1.8l-1.6-1.8l-1.7,1.8l-1.6-1.8l-2.2,2.3h-2.7c-1.2,2.2-3.4,3.7-6,3.7c-3.8,0-6.9-3.3-6.9-7.3
				s3.1-7.3,6.9-7.3c2.5,0,4.7,1.5,5.9,3.7h13.9l2.3,2.5c0.4,0.4,0.3,0.7,0,1.1L751.7,306.4"/>
		</g>
	</g>
</g>
<polygon id="polygon4574_1_" fill="#2E97D0" points="147.8,402.7 149,404 164.9,388 148.7,371.8 147.5,373 162.4,388 "/>
<polygon id="polygon4578_1_" fill="#2F96CD" points="96.1,373.8 94.9,372.6 79,388.5 95.2,404.8 96.4,403.5 81.5,388.5 "/>
<g id="Layer_1_1_" sodipodi:docname="icons.svg" inkscape:version="0.48.5 r10040" xmlns:dc="http://purl.org/dc/elements/1.1/" xmlns:cc="http://creativecommons.org/ns#" xmlns:rdf="http://www.w3.org/1999/02/22-rdf-syntax-ns#" xmlns:svg="http://www.w3.org/2000/svg" xmlns:sodipodi="http://sodipodi.sourceforge.net/DTD/sodipodi-0.dtd" xmlns:inkscape="http://www.inkscape.org/namespaces/inkscape">
	<g>
		<polygon id="SVGID_17_" fill="#FFFFFF" points="817.4,296.7 819.1,298.3 810.6,306.9 802,298.3 803.7,296.7 810.6,303.5 		"/>
	</g>
</g>
<circle fill="#FFFFFF" stroke="#24A3DD" stroke-miterlimit="10" cx="415.9" cy="102.4" r="9.9"/>
<circle fill="#FFFFFF" stroke="#B3B3B3" stroke-miterlimit="10" cx="438.1" cy="102.4" r="9.9"/>
<circle fill="#FFFFFF" stroke="#B3B3B3" stroke-miterlimit="10" cx="470.9" cy="102.2" r="12.3"/>
<circle fill="#2F96CD" cx="497.8" cy="102.2" r="12.3"/>
<polygon fill="#2F96CD" points="528.5,98.2 520.9,107 536.3,107 "/>
<polygon fill="#2F96CD" points="544.6,107 552.3,98.2 536.9,98.2 "/>
<circle fill="#B3B3B3" cx="573.7" cy="102.2" r="12.3"/>
<path fill="#FFFFFF" stroke="#FF0000" stroke-miterlimit="10" d="M687.1,84.1c0,0-0.7-0.8-1.6-0.8s-1.6,0.8-1.6,0.8
	s-12.3,21-13.8,23.9c0,2.5,1.5,3.4,1.5,3.4h13.8h13.8c0,0,1.6-0.9,1.6-3.4C699.3,105.1,687.1,84.1,687.1,84.1z"/>
<circle fill="#FF0000" stroke="#FFFFFF" stroke-miterlimit="10" cx="685.5" cy="105.9" r="2"/>
<path fill="#FF0000" d="M685.5,89.7c0,0-1.8,0.2-1.6,2.7s1.6,9.4,1.6,9.4s1.3-6.9,1.6-9.4S685.5,89.7,685.5,89.7z"/>
<circle fill="#2E97D0" cx="416" cy="98.7" r="0.9"/>
<polyline fill="none" stroke="#FFFFFF" stroke-miterlimit="10" points="490.9,103.2 494.4,107 504.8,96.5 "/>
<line fill="none" stroke="#FFFFFF" stroke-miterlimit="10" x1="569.3" y1="97.4" x2="578.5" y2="107"/>
<line fill="none" stroke="#FFFFFF" stroke-miterlimit="10" x1="568.8" y1="106.9" x2="578.5" y2="97.6"/>
<polyline fill="#FFFFFF" stroke="#626466" stroke-miterlimit="10" points="648.7,98.9 644.7,98.9 644.7,106.8 652.6,106.8 
	652.6,102.8 "/>
<path fill="#FFFFFF" stroke="#626466" stroke-miterlimit="10" d="M653.9,96.8"/>
<line fill="none" stroke="#626466" stroke-miterlimit="10" x1="649.5" y1="102.2" x2="654.2" y2="97.3"/>
<line fill="none" stroke="#626466" stroke-miterlimit="10" x1="654" y1="97.6" x2="653.9" y2="100.3"/>
<line fill="none" stroke="#626466" stroke-miterlimit="10" x1="653.9" y1="97.5" x2="651.3" y2="97.7"/>
<line fill="none" stroke="#24A3DD" stroke-miterlimit="10" x1="415.9" y1="100.3" x2="415.9" y2="106.9"/>
<circle fill="#B3B3B3" cx="438.1" cy="98.7" r="0.9"/>
<line fill="none" stroke="#B3B3B3" stroke-miterlimit="10" x1="438" y1="100.3" x2="438" y2="106.9"/>
<rect x="1049" y="372.9" fill="none" stroke="#2E95CC" stroke-miterlimit="10" width="5.4" height="8"/>
<line fill="none" stroke="#2E95CC" stroke-miterlimit="10" x1="1062.3" y1="365.8" x2="1062.3" y2="387.4"/>
<path fill="none" stroke="#2E95CC" stroke-width="2" stroke-miterlimit="10" d="M1064.9,370.4c0,0,5.5,6.4,0,13"/>
<path fill="none" stroke="#2E95CC" stroke-width="2" stroke-miterlimit="10" d="M1069.3,366.8c0,0,8.2,7.3,0,19.5"/>
<path fill="none" stroke="#2E95CC" stroke-width="2" stroke-miterlimit="10" d="M1073.8,363.2c0,0,9.9,11.2,0,26"/>
<line fill="none" stroke="#2E95CC" stroke-miterlimit="10" x1="1054.4" y1="372.9" x2="1062.2" y2="366.2"/>
<line fill="none" stroke="#2E95CC" stroke-miterlimit="10" x1="1054.4" y1="380.8" x2="1062.2" y2="387"/>
<polygon id="polygon4530_2_" fill="none" stroke="#FFFFFF" stroke-width="2" stroke-miterlimit="10" points="919.9,86.5 919.9,41.7 
	949.7,64.2 "/>
<path id="path4552_19_" fill="#FFFFFF" d="M930.1,11.8c-28.7,0-52,23.3-52,52s23.3,52,52,52s52-23.3,52-52S958.8,11.8,930.1,11.8
	 M930.1,113.9c-27.7,0-50.1-22.5-50.1-50.1c0-27.7,22.5-50.1,50.1-50.1c27.7,0,50.1,22.5,50.1,50.1S957.8,113.9,930.1,113.9"/>
<polygon id="polygon4578-1_4_" fill="#656666" points="1068.8,340.8 1077.6,349.7 1068.9,358.3 1069.6,359 1079,349.7 1069.5,340 
	"/>
<g>
	<path fill="none" stroke="#2D96CD" stroke-miterlimit="10" d="M338.7,400.2h19.4c0.4,0,0.7-0.2,0.9-0.5c0.3-0.3,0.4-0.7,0.4-1.2
		v-5.4c0-0.5-0.1-0.9-0.4-1.2c-0.2-0.3-0.5-0.5-0.9-0.5H352h-7.2h-6.1c-0.4,0-0.7,0.1-0.9,0.5c-0.3,0.3-0.4,0.7-0.4,1.2v5.4
		c0,0.5,0.1,0.9,0.4,1.2C338.1,400,338.4,400.2,338.7,400.2z"/>
</g>
<g>
	<g>
		<g>
			<g>
				<g>
					<g>
						<g>
							<g>
								<g>
									<g>
										<g>
											<g>
												<g>
													<g>
														<defs>
															<path id="SVGID_13_" d="M347.8,386.2v-10.8h1.7v10.5l3.6-3.3c0.1-0.1,0.3-0.1,0.4,0l0.5,0.5c0.1,0.1,0.1,0.3,0,0.4
																l-4.7,4.3c0,0.1,0,0.1-0.1,0.2l-0.5,0.5c-0.1,0.1-0.3,0.1-0.4,0l-5.2-4.9c-0.1-0.1-0.1-0.3,0-0.4l0.5-0.5
																c0.1-0.1,0.3-0.1,0.4,0L347.8,386.2z"/>
														</defs>
														<clipPath id="SVGID_14_">
															<use xlink:href="#SVGID_13_"  overflow="visible"/>
														</clipPath>
														<rect x="338" y="370.4" clip-path="url(#SVGID_14_)" fill="#2D96CD" width="21.1" height="23.1"/>
													</g>
												</g>
											</g>
										</g>
									</g>
								</g>
							</g>
						</g>
					</g>
				</g>
			</g>
		</g>
	</g>
</g>
<g>
	<path fill="none" stroke="#1B394E" stroke-miterlimit="10" d="M368.6,400.4H388c0.4,0,0.7-0.1,0.9-0.5c0.3-0.3,0.4-0.7,0.4-1.2
		v-5.4c0-0.5-0.1-0.9-0.4-1.2c-0.2-0.3-0.5-0.5-0.9-0.5h-6.1h-7.2h-6.1c-0.4,0-0.7,0.1-0.9,0.5c-0.3,0.3-0.4,0.7-0.4,1.2v5.4
		c0,0.5,0.1,0.9,0.4,1.2C367.9,400.3,368.2,400.4,368.6,400.4z"/>
</g>
<g>
	<g>
		<g>
			<path id="SVGID_21_" fill="#1B394E" d="M377.6,386.5v-10.8h1.7v10.5l3.6-3.3c0.1-0.1,0.3-0.1,0.4,0l0.5,0.5
				c0.1,0.1,0.1,0.3,0,0.4l-4.7,4.3c0,0.1,0,0.1-0.1,0.2l-0.5,0.5c-0.1,0.1-0.3,0.1-0.4,0l-5.2-4.9c-0.1-0.1-0.1-0.3,0-0.4l0.5-0.5
				c0.1-0.1,0.3-0.1,0.4,0L377.6,386.5z"/>
		</g>
		<g>
			<g>
				<g>
					<g>
						<g>
							<g>
								<g>
									<g>
										<g>
											<g>
												<g>
													<g>
														<defs>
															<path id="SVGID_16_" d="M377.6,386.5v-10.8h1.7v10.5l3.6-3.3c0.1-0.1,0.3-0.1,0.4,0l0.5,0.5c0.1,0.1,0.1,0.3,0,0.4
																l-4.7,4.3c0,0.1,0,0.1-0.1,0.2l-0.5,0.5c-0.1,0.1-0.3,0.1-0.4,0l-5.2-4.9c-0.1-0.1-0.1-0.3,0-0.4l0.5-0.5
																c0.1-0.1,0.3-0.1,0.4,0L377.6,386.5z"/>
														</defs>
														<clipPath id="SVGID_18_">
															<use xlink:href="#SVGID_16_"  overflow="visible"/>
														</clipPath>
														<rect x="367.9" y="370.7" clip-path="url(#SVGID_18_)" fill="#1B394E" width="21.1" height="23.1"/>
													</g>
												</g>
											</g>
										</g>
									</g>
								</g>
							</g>
						</g>
					</g>
				</g>
			</g>
		</g>
	</g>
</g>
<g>
	<g opacity="0.4" enable-background="new    ">
		<g>
			<g>
				<g>
					<g>
						<g>
							<g>
								<g>
									<g>
										<g>
											<g>
												<g>
													<g>
														<defs>
															<rect id="SVGID_19_" x="398.7" y="375.7" width="35" height="35"/>
														</defs>
														<clipPath id="SVGID_20_">
															<use xlink:href="#SVGID_19_"  overflow="visible"/>
														</clipPath>
														<rect x="393.7" y="370.7" clip-path="url(#SVGID_20_)" width="45" height="45"/>
													</g>
												</g>
											</g>
										</g>
									</g>
								</g>
							</g>
						</g>
					</g>
				</g>
			</g>
		</g>
	</g>
</g>
<g>
	<g>
		<g>
			<g>
				<g>
					<g>
						<g>
							<g>
								<g>
									<g>
										<g>
											<g>
												<defs>
													<path id="SVGID_22_" d="M410.3,401.8l1.9,1.9H407c-1.4,0-1.4-1.3-1.4-1.3v-5.2l2,2l4.6-4.6l2.7,2.6L410.3,401.8z
														 M422.1,384.6l-1.9-1.9h5.2c1.4,0,1.4,1.3,1.4,1.3v5.2l-2-2l-4.6,4.6l-2.7-2.6L422.1,384.6z"/>
												</defs>
												<clipPath id="SVGID_23_">
													<use xlink:href="#SVGID_22_"  overflow="visible"/>
												</clipPath>
												<rect x="400.7" y="377.7" clip-path="url(#SVGID_23_)" fill="#FFFFFF" width="31" height="31"/>
											</g>
										</g>
									</g>
								</g>
							</g>
						</g>
					</g>
				</g>
			</g>
		</g>
	</g>
</g>
<circle opacity="0.15" stroke="#FFFFFF" stroke-width="0.5" stroke-miterlimit="10" enable-background="new    " cx="481.6" cy="411" r="34.3"/>
<path fill="#FFFFFF" d="M478,422.4c0,0-18.5-7.7,2-10.7c0,3.9,0,3.9,0,3.9l15-8l-15-7.9v4c0,0-8.5-1-13,7c0,0-0.8,2.7,0,5.9
	C467.8,419.8,475,421.8,478,422.4z"/>
<circle opacity="0.15" enable-background="new    " cx="563.8" cy="411.1" r="34.3"/>
<path fill="#FFFFFF" d="M563.8,375.5c-19.6,0-35.6,15.9-35.6,35.6s15.9,35.6,35.6,35.6s35.6-15.9,35.6-35.6
	C599.4,391.4,583.5,375.5,563.8,375.5z M563.8,445.4c-19,0-34.3-15.4-34.3-34.3s15.4-34.3,34.3-34.3c18.9,0,34.3,15.4,34.3,34.3
	S582.8,445.4,563.8,445.4z"/>
<path fill="#FFFFFF" d="M567.4,399.6c0,0,18.5,7.7-2,10.7c0-3.9,0-3.9,0-3.9l-15,8l15,7.9v-4c0,0,8.5,1,13-7c0,0,0.8-2.7,0-5.9
	S570.4,400.3,567.4,399.6z"/>
<path fill="#FFFFFF" d="M638.1,375.1c-11.8,0-21.4,9.6-21.4,21.4s9.6,21.4,21.4,21.4s21.4-9.6,21.4-21.4S649.9,375.1,638.1,375.1z
	 M633.2,406.7l-7.3-7.2l2.1-2.1l5.4,5.4l15.3-15.3l1.9,1.9L633.2,406.7z"/>
<g id="Layer_1_2_" sodipodi:docname="icons.svg" inkscape:version="0.48.5 r10040" xmlns:dc="http://purl.org/dc/elements/1.1/" xmlns:cc="http://creativecommons.org/ns#" xmlns:rdf="http://www.w3.org/1999/02/22-rdf-syntax-ns#" xmlns:svg="http://www.w3.org/2000/svg" xmlns:sodipodi="http://sodipodi.sourceforge.net/DTD/sodipodi-0.dtd" xmlns:inkscape="http://www.inkscape.org/namespaces/inkscape">
	<g>
		<polygon id="SVGID_1_" fill="#2E95CC" points="849.4,296.7 851,298.3 842.5,306.9 834,298.3 835.6,296.7 842.5,303.5 		"/>
	</g>
</g>
<path fill="#FFFFFF" d="M481.6,375.5c-19.6,0-35.6,15.9-35.6,35.6s15.9,35.6,35.6,35.6s35.6-15.9,35.6-35.6S501.2,375.5,481.6,375.5
	z M481.6,445.4c-19,0-34.3-15.4-34.3-34.3s15.4-34.3,34.3-34.3c19,0,34.3,15.4,34.3,34.3S500.5,445.4,481.6,445.4z"/>
<g>
	<g>
		<path id="SVGID_2_" fill="#FFFFFF" d="M718.4,95.3v15.4h17V95.3h-6v-0.9h7v17.2h-19V94.4h7v0.9H718.4z M726.4,89.5v13.6h1V89.3
			l3.3,2.9c0.1,0.1,0.2,0.1,0.3,0l0.4-0.4c0.1-0.1,0.1-0.2,0-0.3l-3.8-3.4c0,0,0-0.1-0.1-0.1l-0.4-0.4c-0.1-0.1-0.2-0.1-0.3,0
			l-4.2,3.8c-0.1,0.1-0.1,0.2,0,0.3l0.4,0.4c0.1,0.1,0.2,0.1,0.3,0L726.4,89.5z"/>
	</g>
</g>
<g>
	<path fill="none" stroke="#FFFFFF" stroke-miterlimit="10" d="M675.8,399.8h19.4c0.4,0,0.7-0.2,0.9-0.5c0.3-0.3,0.4-0.7,0.4-1.2
		v-5.4c0-0.5-0.1-0.9-0.4-1.2c-0.2-0.3-0.5-0.5-0.9-0.5h-6.1h-7.2h-6.1c-0.4,0-0.7,0.2-0.9,0.5c-0.3,0.3-0.4,0.7-0.4,1.2v5.4
		c0,0.5,0.1,0.9,0.4,1.2C675.1,399.6,675.4,399.8,675.8,399.8z"/>
</g>
<g>
	<g>
		<g>
			<g>
				<g>
					<path id="SVGID_28_" fill="#FFFFFF" d="M684.8,385.8V375h1.7v10.5l3.6-3.3c0.1-0.1,0.3-0.1,0.4,0l0.5,0.5
						c0.1,0.1,0.1,0.3,0,0.4l-4.7,4.3c0,0.1,0,0.1-0.1,0.2l-0.5,0.5c-0.1,0.1-0.3,0.1-0.4,0l-5.2-4.9c-0.1-0.1-0.1-0.3,0-0.4
						l0.5-0.5c0.1-0.1,0.3-0.1,0.4,0L684.8,385.8z"/>
				</g>
				<g>
					<g>
						<g>
							<g>
								<g>
									<g>
										<g>
											<g>
												<g>
													<g>
														<defs>
															<path id="SVGID_24_" d="M684.8,385.8V375h1.7v10.5l3.6-3.3c0.1-0.1,0.3-0.1,0.4,0l0.5,0.5c0.1,0.1,0.1,0.3,0,0.4
																l-4.7,4.3c0,0.1,0,0.1-0.1,0.2l-0.5,0.5c-0.1,0.1-0.3,0.1-0.4,0l-5.2-4.9c-0.1-0.1-0.1-0.3,0-0.4l0.5-0.5
																c0.1-0.1,0.3-0.1,0.4,0L684.8,385.8z"/>
														</defs>
														<clipPath id="SVGID_25_">
															<use xlink:href="#SVGID_24_"  overflow="visible"/>
														</clipPath>
														<rect x="675.1" y="370" clip-path="url(#SVGID_25_)" fill="#FFFFFF" width="21.1" height="23.1"/>
													</g>
												</g>
											</g>
										</g>
									</g>
								</g>
							</g>
						</g>
					</g>
				</g>
			</g>
		</g>
	</g>
</g>
<circle fill="none" stroke="#FFFFFF" stroke-width="1.5" stroke-miterlimit="10" cx="723.3" cy="386.6" r="11.3"/>
<line fill="none" stroke="#FFFFFF" stroke-width="1.5" stroke-miterlimit="10" x1="730.9" y1="395" x2="739.5" y2="403"/>
<polygon id="polygon4544_3_" fill="#FFFFFF" points="729.1,386.1 723.6,386.1 723.6,380.7 722.6,380.7 722.6,386.1 717.2,386.1 
	717.2,387.1 722.6,387.1 722.6,392.5 723.6,392.5 723.6,387.1 729.1,387.1 "/>
<circle fill="none" stroke="#FFFFFF" stroke-width="1.5" stroke-miterlimit="10" cx="755.3" cy="386.6" r="11.3"/>
<line fill="none" stroke="#FFFFFF" stroke-width="1.5" stroke-miterlimit="10" x1="762.9" y1="395" x2="771.5" y2="403"/>
<rect id="rect4538_2_" x="749.2" y="386.2" fill="#FFFFFF" width="11.9" height="0.9"/>
<g id="Layer_3">
	<path id="path4550_1_" fill="#FFFFFF" stroke="#FFFFFF" stroke-width="2.5" stroke-miterlimit="10" d="M901.8,370
		c-14.9,0-27.1,12.1-27.1,27.1s12.1,27.1,27.1,27.1s27.1-12.1,27.1-27.1S916.7,370,901.8,370 M901.8,423.2
		c-14.4,0-26.1-11.7-26.1-26.1s11.7-26.1,26.1-26.1s26.1,11.7,26.1,26.1C927.9,411.5,916.2,423.2,901.8,423.2"/>
	
		<g id="Layer_1_3_" sodipodi:docname="icons.svg" inkscape:version="0.48.5 r10040" xmlns:dc="http://purl.org/dc/elements/1.1/" xmlns:cc="http://creativecommons.org/ns#" xmlns:rdf="http://www.w3.org/1999/02/22-rdf-syntax-ns#" xmlns:svg="http://www.w3.org/2000/svg" xmlns:sodipodi="http://sodipodi.sourceforge.net/DTD/sodipodi-0.dtd" xmlns:inkscape="http://www.inkscape.org/namespaces/inkscape">
		<g>
			<polygon id="SVGID_3_" fill="#FFFFFF" points="896.8,388 898.9,385.9 910.1,397.1 898.9,408.3 896.8,406.1 905.8,397.1 			"/>
		</g>
	</g>
</g>
<g id="Layer_3_1_">
	<path id="path4550_2_" fill="#FFFFFF" stroke="#FFFFFF" stroke-width="2.5" stroke-miterlimit="10" d="M964.3,370
		c-14.9,0-27.1,12.1-27.1,27.1s12.1,27.1,27.1,27.1s27.1-12.1,27.1-27.1S979.2,370,964.3,370 M964.3,423.2
		c-14.4,0-26.1-11.7-26.1-26.1s11.7-26.1,26.1-26.1s26.1,11.7,26.1,26.1C990.4,411.5,978.7,423.2,964.3,423.2"/>
	
		<g id="Layer_1_4_" sodipodi:docname="icons.svg" inkscape:version="0.48.5 r10040" xmlns:dc="http://purl.org/dc/elements/1.1/" xmlns:cc="http://creativecommons.org/ns#" xmlns:rdf="http://www.w3.org/1999/02/22-rdf-syntax-ns#" xmlns:svg="http://www.w3.org/2000/svg" xmlns:sodipodi="http://sodipodi.sourceforge.net/DTD/sodipodi-0.dtd" xmlns:inkscape="http://www.inkscape.org/namespaces/inkscape">
		<g>
			<polygon id="SVGID_4_" fill="#FFFFFF" points="959.3,388 961.4,385.9 972.6,397.1 961.4,408.3 959.3,406.1 968.3,397.1 			"/>
		</g>
	</g>
</g>
<path fill="#FFFFFF" d="M106.1,423.2c-15,0-27.1,12.1-27.1,27.1s12.1,27.1,27.1,27.1s27.1-12.1,27.1-27.1S121,423.2,106.1,423.2z
	 M103.2,461.5l-2.2-2.2l9-9l-9-9l2.2-2.2l11.2,11.2L103.2,461.5z"/>
<g>
	<g>
		<path fill="#2E95CC" d="M104,489.4c13.2,0,23.9,10.7,23.9,23.9c0,13.2-10.7,23.9-23.9,23.9s-24-10.7-24-23.9
			C80,500.1,90.8,489.4,104,489.4 M104,488.4c-13.8,0-25,11.2-25,25c0,13.8,11.2,25,25,25s25-11.2,25-25
			C128.9,499.6,117.8,488.4,104,488.4L104,488.4z"/>
	</g>
	<g>
		<path fill="#2E95CC" d="M118.9,506.8c0.8-0.1,1.5-0.3,1.5-0.9s-0.4-0.9-0.9-1s-2-0.4-2.1,0.2s-0.1,1,0.1,1.3l-0.5,0.5
			c0,0-0.3-0.3-0.4-0.7c-0.1-0.4-0.7-2.3-2-4.1c-1-1.5-1.4-1.6-1.7-1.6s-2.3-0.4-7.9-0.4s-7.6,0.4-7.9,0.4s-0.6,0.1-1.7,1.6
			c-1.3,1.9-1.9,3.7-2,4.1s-0.4,0.7-0.4,0.7l-0.5-0.5c0.1-0.3,0.1-0.7,0.1-1.3c-0.1-0.6-1.5-0.3-2.1-0.2c-0.5,0.1-0.9,0.4-0.9,1
			s0.7,0.7,1.5,0.9c0.6,0.1,0.9,0.5,1,0.7c0.9-0.3,1.9-0.5,3-0.5c1.4,0,2.8,0.3,4,1c2,1.1,3.5,2.9,4.2,5.1c0.4,1.4,0.5,2.9,0.2,4.3
			c0.2,0,0.3,0,0.5,0.1l5,2.6c1.5,0,2.9,0,3.1,0c0,0,0.7,0.2,1.6,0.1c0.2,0,0.8-0.2,1.5-0.3v1.7c0,0.4,0.4,0.8,0.8,0.8h2.6
			c0.4,0,0.8-0.4,0.8-0.8v-2.8c0,0,0.2-5.9,0.2-6.5c0-0.6,0-1.5-0.3-1.9s-0.9-1.2-0.9-1.2s-0.2-0.9-0.7-1.5
			C117.9,507.7,118.1,506.9,118.9,506.8z M117.8,511.6c0,0-0.3,0.6-4.6,0.9c0,0-1-0.7-1.2-0.9c-0.2-0.2-0.1-0.2,0.1-0.3
			c0.2-0.1,4.2-1,5.3-1.7C117.4,509.6,118.2,510.2,117.8,511.6z"/>
		<path fill="#2E95CC" d="M102.8,513.3c-0.6-2-2-3.6-3.8-4.6c-1.1-0.6-2.4-0.9-3.6-0.9c-2.9,0-5.6,1.6-6.9,4.2c-1,1.9-1.2,4-0.6,6
			s2,3.6,3.8,4.6c1.1,0.6,2.4,0.9,3.6,0.9c2.5,0,4.7-1.1,6.2-3l1.3-2.5C103.3,516.5,103.3,514.8,102.8,513.3z M101.1,518.7
			c-1.1,2.2-3.4,3.5-5.8,3.5c-1.1,0-2.1-0.3-3.1-0.8c-1.6-0.8-2.7-2.2-3.2-3.9s-0.4-3.5,0.5-5c1.1-2.2,3.4-3.5,5.8-3.5
			c1.1,0,2.1,0.3,3.1,0.8c1.6,0.8,2.7,2.2,3.2,3.9S102,517.1,101.1,518.7z"/>
		<path fill="#2E95CC" d="M97.9,510.7c-2.7-1.4-6-0.4-7.5,2.3c-1.1,2.1-0.7,4.6,0.8,6.2c-0.6-1.4-0.5-3.1,0.3-4.6
			c1.4-2.7,4.8-3.7,7.5-2.3c0.6,0.3,1.1,0.7,1.6,1.2C100,512.4,99.1,511.4,97.9,510.7z"/>
		<path fill="#2E95CC" d="M113.8,523.2L104,518c-0.1-0.1-0.2-0.1-0.3,0c-0.1,0-0.2,0.1-0.3,0.2l-1.3,2.6c-0.1,0.2,0,0.5,0.2,0.6
			l9.8,5.2c0.1,0,0.1,0.1,0.2,0.1c0.2,0,0.3-0.1,0.4-0.2l1.4-2.6c0.1-0.1,0.1-0.2,0-0.3C114,523.4,113.9,523.3,113.8,523.2z"/>
	</g>
</g>
<path id="path4552_20_" fill="#24A3DD" d="M159.9,488.3c-13.8,0-25,11.2-25,25s11.2,25,25,25s25-11.2,25-25S173.7,488.3,159.9,488.3
	 M159.9,537.4c-13.3,0-24.1-10.8-24.1-24.1s10.8-24.1,24.1-24.1S184,500,184,513.3S173.2,537.4,159.9,537.4"/>
<g>
	<path fill="#2E95CC" d="M150.3,525.1c0.7,0,1.3-0.3,1.8-0.7l12.4-12.4l0.4,0.1c0.7,0.3,1.5,0.4,2.3,0.4c1.8,0,3.5-0.7,4.8-2
		c1.6-1.6,2.3-4,1.8-6.2l-4.1,4.1h-3.1l-2.2-2.2v-3.1l4.1-4.1c-0.5-0.1-0.9-0.1-1.4-0.1c-1.8,0-3.5,0.7-4.8,2
		c-1.8,1.8-2.5,4.6-1.6,7.1l0.1,0.3l-12.4,12.5c-0.5,0.5-0.7,1.1-0.7,1.8s0.3,1.3,0.7,1.8C149,524.8,149.6,525.1,150.3,525.1z"/>
</g>
<polygon fill="#2E95CC" points="156.6,521.9 165.4,513.1 170.8,513.1 173.4,515.6 162.3,527.3 "/>
<polygon fill="#2E95CC" points="159.2,508.1 150.9,516.4 148.3,513.9 146.1,506.2 151.6,500.4 159.4,502.4 "/>
<circle fill="#FFFFFF" cx="151.1" cy="505" r="1.2"/>
<rect x="101" y="547.3" fill="#616161" width="3" height="3"/>
<g enable-background="new    ">
	<g>
		<g>
			<g>
				<g>
					<g>
						<g>
							<g>
								<g>
									<g>
										<defs>
											<path id="SVGID_26_" d="M240.4,502.3L240.4,502.3l-4.5-3.9v2.3c0,0.8-0.8,1.6-1.5,1.6h-0.8h-8.3h-0.8
												c-0.8,0-1.5-0.8-1.5-1.6v-0.8v-9.3v-0.8c0-0.8,0.8-1.6,1.5-1.6h0.8h8.3h0.8c0.8,0,1.5,0.8,1.5,1.6v3.1l4.5-4.7
												c0,0,0.8,0.8,0.8,1.6v11.7L240.4,502.3z"/>
										</defs>
										<clipPath id="SVGID_27_">
											<use xlink:href="#SVGID_26_"  overflow="visible"/>
										</clipPath>
										<g clip-path="url(#SVGID_27_)">
											<rect x="218.1" y="483.3" fill="#2D96CD" width="28" height="24"/>
										</g>
									</g>
								</g>
							</g>
						</g>
					</g>
				</g>
			</g>
		</g>
	</g>
</g>
<g enable-background="new    ">
	<g>
		<g>
			<g>
				<g>
					<g>
						<g>
							<g>
								<g>
									<g>
										<defs>
											<path id="SVGID_29_" d="M200.1,496.3c0.1-0.2,0.4-0.2,0.6-0.1l2.2,1.4c0.2,0.1,0.4,0.1,0.6-0.1l2.7-3.5
												c0.1-0.2,0.3-0.2,0.4,0l3.3,6.7c0.1,0.2,0,0.4-0.2,0.4h-12.9c-0.2,0-0.3-0.1-0.1-0.3L200.1,496.3z M200,492.5
												c0,0.7-0.5,1.3-1.2,1.3c-0.6,0-1.2-0.6-1.2-1.3c0-0.7,0.5-1.3,1.2-1.3C199.5,491.3,200,491.8,200,492.5z M211,502h-15.3
												v-12.1H211V502z M211.3,488.3h-16.1c-0.5,0-1,0.5-1,1v12.8c0,0.6,0.4,1,1,1h16.1c0.5,0,1-0.5,1-1v-12.7
												C212.3,488.8,211.9,488.3,211.3,488.3z"/>
										</defs>
										<clipPath id="SVGID_30_">
											<use xlink:href="#SVGID_29_"  overflow="visible"/>
										</clipPath>
										<g clip-path="url(#SVGID_30_)">
											<rect x="189.3" y="483.3" fill="#2D96CD" width="28" height="24.9"/>
										</g>
									</g>
								</g>
							</g>
						</g>
					</g>
				</g>
			</g>
		</g>
	</g>
</g>
<g enable-background="new    ">
	<g>
		<g>
			<g>
				<g>
					<g>
						<g>
							<g>
								<g>
									<defs>
										<rect id="SVGID_31_" x="249.8" y="488.1" width="25" height="22"/>
									</defs>
									<clipPath id="SVGID_32_">
										<use xlink:href="#SVGID_31_"  overflow="visible"/>
									</clipPath>
									
										<line clip-path="url(#SVGID_32_)" fill="none" stroke="#979797" stroke-linecap="square" stroke-miterlimit="10" x1="251.8" y1="488.1" x2="273.8" y2="510.1"/>
								</g>
							</g>
						</g>
					</g>
				</g>
				<g>
					<g>
						<g>
							<g>
								<g>
									<defs>
										<rect id="SVGID_33_" x="249.8" y="488.1" width="25" height="22"/>
									</defs>
									<clipPath id="SVGID_34_">
										<use xlink:href="#SVGID_33_"  overflow="visible"/>
									</clipPath>
									
										<line clip-path="url(#SVGID_34_)" fill="none" stroke="#979797" stroke-linecap="square" stroke-miterlimit="10" x1="272.8" y1="488.1" x2="250.8" y2="510.1"/>
								</g>
							</g>
						</g>
					</g>
				</g>
			</g>
		</g>
	</g>
</g>
<g>
	<circle fill="none" stroke="#24A3DD" stroke-width="2" stroke-miterlimit="10" cx="303.7" cy="502.4" r="13"/>
</g>
<g>
	<g>
		<path fill="#24A3DD" d="M302.1,498.4l5.4,4.1l-5.4,4.2v-4.2V498.4 M300.6,495.4v2.2v5v5.1v2.1l9.4-7.2L300.6,495.4L300.6,495.4z"
			/>
	</g>
</g>
<g>
	<circle fill="#3999CE" cx="353.9" cy="513.5" r="25"/>
</g>
<path fill="#FFFFFF" d="M354.5,504.1c-7.1,0-12.9,5.9-12.9,13v0.2h8.7l9.9-6.2c-1.5-1.5-3.6-2.3-5.7-2.3c-3.3,0-6.3,2-7.6,5
	c-0.1,0.3-0.2,0.5-0.3,0.8l-2-0.6c0.1-0.3,0.2-0.7,0.4-1c1.7-3.8,5.4-6.3,9.5-6.3c2.9,0,5.7,1.2,7.7,3.4l-1,0.9l-4.9,6.4h11.1
	c0,0,0-0.1,0-0.2C367.4,510,361.7,504.1,354.5,504.1z"/>
<path fill="#3999CE" d="M418.5,504.1c-7.1,0-12.9,5.9-12.9,13v0.2h8.7l9.9-6.2c-1.5-1.5-3.6-2.3-5.7-2.3c-3.3,0-6.3,2-7.6,5
	c-0.1,0.3-0.2,0.5-0.3,0.8l-2-0.6c0.1-0.3,0.2-0.7,0.4-1c1.7-3.8,5.4-6.3,9.5-6.3c2.9,0,5.7,1.2,7.7,3.4l-1,0.9l-4.9,6.4h11.1
	c0,0,0-0.1,0-0.2C431.4,510,425.7,504.1,418.5,504.1z"/>
<path id="path4552_21_" fill="#24A3DD" d="M417.9,488.5c-13.8,0-25,11.2-25,25s11.2,25,25,25s25-11.2,25-25S431.7,488.5,417.9,488.5
	 M417.9,537.6c-13.3,0-24.1-10.8-24.1-24.1s10.8-24.1,24.1-24.1s24.1,10.8,24.1,24.1C442,526.8,431.2,537.6,417.9,537.6"/>
<g>
	<g>
		<path fill="#3999CE" d="M482.8,489.6c13.2,0,23.9,10.7,23.9,23.9c0,13.2-10.7,23.9-23.9,23.9s-23.9-10.7-23.9-23.9
			C458.8,500.3,469.6,489.6,482.8,489.6 M482.8,488.5c-13.8,0-25,11.2-25,25s11.2,25,25,25s25-11.2,25-25
			C507.7,499.7,496.6,488.5,482.8,488.5L482.8,488.5z"/>
	</g>
	<path fill="#3999CE" d="M473.2,525.2c0.7,0,1.3-0.3,1.8-0.7l12.4-12.4l0.4,0.1c0.7,0.3,1.5,0.4,2.3,0.4c1.8,0,3.5-0.7,4.8-2
		c1.6-1.6,2.3-4,1.8-6.2l-4.1,4.1h-3.1l-2.2-2.2v-3.1l4.1-4.1c-0.5-0.1-0.9-0.1-1.4-0.1c-1.8,0-3.5,0.7-4.8,2
		c-1.8,1.8-2.5,4.6-1.6,7.1l0.1,0.3l-12.4,12.5c-0.5,0.5-0.7,1.1-0.7,1.8s0.3,1.3,0.7,1.8C471.9,525,472.5,525.2,473.2,525.2z"/>
</g>
<g>
	<g>
		<path fill="#3999CE" d="M555.1,489.4c13.3,0,24,10.8,24,24c0,13.3-10.8,24-24,24c-13.3,0-24-10.8-24-24S541.9,489.4,555.1,489.4
			 M555.1,488.4c-13.8,0-25.1,11.2-25.1,25.1c0,13.8,11.2,25.1,25.1,25.1c13.8,0,25.1-11.2,25.1-25.1
			C580.2,499.6,569,488.4,555.1,488.4L555.1,488.4z"/>
	</g>
	
		<rect x="539.9" y="511.7" transform="matrix(0.7071 -0.7071 0.7071 0.7071 -200.402 542.7982)" fill="#3999CE" width="30.2" height="3.3"/>
	<path fill="#3999CE" d="M562.1,514.9c-3.1,0-5.6,2.5-5.6,5.6s2.5,5.6,5.6,5.6s5.6-2.5,5.6-5.6C567.6,517.4,565.2,514.9,562.1,514.9
		z M562.1,523.1c-1.5,0-2.7-1.2-2.7-2.7s1.2-2.7,2.7-2.7s2.7,1.2,2.7,2.7S563.6,523.1,562.1,523.1z"/>
	<path fill="#3999CE" d="M548.1,512c3.1,0,5.6-2.5,5.6-5.6s-2.5-5.6-5.6-5.6s-5.5,2.5-5.5,5.6S545.1,512,548.1,512z M548.1,503.8
		c1.5,0,2.7,1.2,2.7,2.7s-1.2,2.7-2.7,2.7s-2.7-1.2-2.7-2.7S546.6,503.8,548.1,503.8z"/>
</g>
<g>
	<g>
		<path fill="#3999CE" d="M619.7,489.5c13.2,0,24,10.8,24,24s-10.8,24-24,24s-24-10.8-24-24C595.6,500.3,606.4,489.5,619.7,489.5
			 M619.7,488.5c-13.8,0-25,11.2-25,25s11.2,25,25,25s25-11.2,25-25S633.5,488.5,619.7,488.5L619.7,488.5z"/>
	</g>
	<g>
		<path fill="#3999CE" d="M618.9,505.1c-1.2-0.9-3-2-5.4-2.2c-0.6-0.1-1.2-0.1-1.8-0.1c-3.1,0-5.5,0.9-5.6,0.9
			c-0.4,0.1-0.7,0.5-0.7,1v16.6c0,0.3,0.2,0.6,0.4,0.8c0.3,0.2,0.6,0.2,0.9,0.1c0,0,2.1-0.8,4.9-0.8c0.5,0,1.1,0,1.6,0.1
			c3.4,0.4,5.6,2.9,5.6,2.9l0,0L618.9,505.1L618.9,505.1L618.9,505.1z"/>
		<path fill="#3999CE" d="M633.2,503.7c-0.1,0-2.5-0.9-5.6-0.9c-0.6,0-1.2,0-1.8,0.1c-2.3,0.3-4.2,1.3-5.4,2.2v19.4l0,0
			c0,0,2.2-2.5,5.6-2.9c0.5-0.1,1.1-0.1,1.6-0.1c2.7,0,4.9,0.8,4.9,0.8c0.3,0.1,0.7,0.1,0.9-0.1c0.3-0.2,0.4-0.5,0.4-0.8v-16.6
			C633.9,504.2,633.6,503.8,633.2,503.7z"/>
	</g>
</g>
<g>
	<g>
		<path fill="#3999CE" d="M683.6,489.6c13.2,0,24,10.7,24,24c0,13.2-10.7,23.9-24,23.9c-13.2,0-24-10.7-24-23.9
			C659.7,500.4,670.4,489.6,683.6,489.6 M683.6,488.6c-13.8,0-25,11.2-25,25c0,13.8,11.2,25,25,25s25-11.2,25-25
			S697.4,488.6,683.6,488.6L683.6,488.6z"/>
	</g>
	<path fill="none" d="M669.2,502.1v13.5h3.7c0.3,0,0.5,0.2,0.6,0.5c0,0.1,0.2,2.1-0.8,3.8c2-1.1,2.2-3.7,2.2-3.8
		c0-0.3,0.3-0.5,0.6-0.5h4.9v-2.3c0-0.3,0.3-0.6,0.6-0.6h11v-10.6H669.2L669.2,502.1z"/>
	<path fill="#3999CE" d="M698.6,512.7H693v-11.2c0-0.3-0.3-0.6-0.6-0.6h-23.8c-0.3,0-0.6,0.3-0.6,0.6v14.7c0,0.3,0.3,0.6,0.6,0.6
		h3.7c0,0.9-0.3,2.8-1.8,3.8c-0.2,0.1-0.3,0.4-0.2,0.6c0.1,0.2,0.3,0.4,0.5,0.4l0,0c3.4-0.2,4.8-3,5.1-4.9h4.4v7.5
		c0,0.3,0.3,0.6,0.6,0.6h12.3c0.3,1.4,1.4,3.5,3.9,3.6l0,0c0.2,0,0.5-0.2,0.5-0.4c0.1-0.2,0-0.5-0.2-0.6c-1-0.7-1.3-1.9-1.3-2.6h2.5
		c0.3,0,0.6-0.3,0.6-0.6v-10.9C699.2,513,698.9,512.7,698.6,512.7z M680.4,513.3v2.3h-4.9c-0.3,0-0.5,0.2-0.6,0.5
		c0,0.1-0.3,2.7-2.2,3.8c1-1.7,0.8-3.7,0.8-3.8c0-0.3-0.3-0.5-0.6-0.5h-3.7v-13.5h22.7v10.7h-11C680.6,512.7,680.4,513,680.4,513.3z
		"/>
</g>
<polygon id="polygon4578-1_5_" fill="#656666" points="756.7,488.6 748.8,496.4 741.1,488.7 740.5,489.3 748.8,497.7 757.4,489.2 
	"/>
<rect x="786" y="488.2" fill="#3999CE" width="64" height="64"/>
<polygon fill="#FFFFFF" points="806.2,522.4 818,522.4 818,534.2 828.3,511.9 "/>
<g>
	<path fill="#3A99CE" d="M154.3,582.4c-3.1,3-3.5,7.8-1.3,11.3l7.8,10.6l7.8-10.6c2.2-3.5,1.7-8.2-1.3-11.3
		C163.7,578.8,157.8,578.8,154.3,582.4z M163.4,591.6c-1.5,1.5-3.9,1.5-5.4,0c-1.5-1.5-1.5-3.9,0-5.4c1.5-1.5,3.9-1.5,5.4,0
		C164.9,587.7,164.9,590.1,163.4,591.6z"/>
	<path fill="#3A99CE" d="M160.8,567.2c-13.8,0-25,11.2-25,25s11.2,25,25,25c13.8,0,25-11.2,25-25S174.6,567.2,160.8,567.2z
		 M160.8,616.2c-13.2,0-24-10.8-24-24c0-13.2,10.8-24,24-24s24,10.8,24,24C184.8,605.4,174.1,616.2,160.8,616.2z"/>
</g>
</svg>
