<?xml version="1.0" encoding="utf-8"?>
<!-- Generator: Adobe Illustrator 18.1.1, SVG Export Plug-In . SVG Version: 6.00 Build 0)  -->
<svg version="1.1"
	 id="Layer_1" inkscape:version="0.48.5 r10040" sodipodi:docname="icons-rtl.svg" xmlns:dc="http://purl.org/dc/elements/1.1/" xmlns:cc="http://creativecommons.org/ns#" xmlns:rdf="http://www.w3.org/1999/02/22-rdf-syntax-ns#" xmlns:svg="http://www.w3.org/2000/svg" xmlns:sodipodi="http://sodipodi.sourceforge.net/DTD/sodipodi-0.dtd" xmlns:inkscape="http://www.inkscape.org/namespaces/inkscape"
	 xmlns="http://www.w3.org/2000/svg" xmlns:xlink="http://www.w3.org/1999/xlink" x="0px" y="0px" width="1000px" height="1000px"
	 viewBox="491 -493 1000 1000" enable-background="new 491 -493 1000 1000" xml:space="preserve">
<sodipodi:namedview  guidetolerance="10" gridtolerance="10" pagecolor="#ffffff" borderopacity="1" objecttolerance="10" bordercolor="#666666" showgrid="false" inkscape:cx="380.5" inkscape:cy="729.26903" inkscape:zoom="1" id="namedview3771" inkscape:window-maximized="1" inkscape:window-x="1912" inkscape:window-height="961" inkscape:window-y="-8" inkscape:pageshadow="2" inkscape:window-width="1280" inkscape:pageopacity="0" inkscape:current-layer="Layer_1">
	</sodipodi:namedview>
<path id="path3511" fill="#24A3DD" d="M635.6-401.7c-5.2,0-9.4,4.2-9.4,9.4c0,5.2,4.2,9.4,9.4,9.4s9.4-4.2,9.4-9.4
	C645-397.5,640.7-401.7,635.6-401.7 M635.6-386.8c-3,0-5.5-2.5-5.5-5.5s2.5-5.5,5.5-5.5s5.5,2.4,5.5,5.5
	C641.1-389.3,638.6-386.8,635.6-386.8"/>
<rect id="rect3513" x="622" y="-388.6" transform="matrix(-0.7068 -0.7074 0.7074 -0.7068 1335.5477 -208.8018)" fill="#24A3DD" width="5" height="14.8"/>
<g id="g3517">
	<path id="path3519" fill="#24A3DD" d="M693.2-397.8c-3,0-5.5,2.4-5.5,5.5c0,3,2.5,5.5,5.5,5.5s5.5-2.5,5.5-5.5
		S696.2-397.8,693.2-397.8"/>
	<path id="path3521" fill="#24A3DD" d="M688.8-412.9c-13.7,0-24.9,11.1-24.9,24.9s11.1,24.9,24.9,24.9c13.7,0,24.9-11.1,24.9-24.9
		S702.5-412.9,688.8-412.9 M675-377.7l10-10c-0.8-1.4-1.2-2.9-1.2-4.6c0-5.2,4.2-9.4,9.4-9.4s9.4,4.2,9.4,9.4c0,5.2-4.2,9.4-9.4,9.4
		c-1.7,0-3.2-0.4-4.6-1.2l-10,10L675-377.7z"/>
</g>
<path id="path3525" fill="#24A3DD" d="M518.9-390.7v-12.2h-5.7v12.2H501v5.7h12.2v12.2h5.7V-385h12.2v-5.7H518.9L518.9-390.7z
	 M530.1-386h-12.2v12.2h-3.7V-386H502v-3.7h12.2v-12.2h3.7v12.2h12.2L530.1-386L530.1-386z"/>
<path id="path3527" fill="#24A3DD" d="M516-412.9c-13.8,0-25,11.3-25,25c0,13.8,11.2,25,25,25s25-11.2,25-25
	C541-401.6,529.8-412.9,516-412.9 M516-363.8c-13.3,0-24.1-10.8-24.1-24.1S502.7-412,516-412c13.3,0,24.1,10.8,24.1,24.1
	C540.1-374.5,529.3-363.8,516-363.8"/>
<g id="g3529">
	<polygon id="polygon3531" fill="#24A3DD" points="518.9,-266.7 518.9,-278.9 513.2,-278.9 513.2,-266.7 501,-266.7 501,-261 
		513.2,-261 513.2,-248.8 518.9,-248.8 518.9,-261 531.1,-261 531.1,-266.7 	"/>
	<path id="path3533" fill="#24A3DD" d="M516.1-288.8c-13.8,0-25,11.2-25,25c0,13.8,11.2,25,25,25s25-11.2,25-25
		C541.1-277.6,529.8-288.8,516.1-288.8 M516.1-239.8c-13.3,0-24.1-10.8-24.1-24.1c0-13.3,10.8-24.1,24.1-24.1
		c13.3,0,24.1,10.8,24.1,24.1C540.1-250.5,529.3-239.8,516.1-239.8"/>
</g>
<path id="path3537" fill="#24A3DD" d="M732.4-380.1c-0.3,1,0,2.4,0.7,3.1l2,2c0.4,0.4,1.4,0.6,1.4,0.6c6.4,0.1,12.5-2.4,17-6.9
	s7-10.6,6.9-17c0,0-0.2-1-0.6-1.4l-2-2c-0.7-0.7-2.1-1.1-3.1-0.7l-0.4,0.1c-1,0.3-2,1.4-2.3,2.4l-1,3.7c-0.3,1,0.1,2.4,0.8,3.2
	l1.3,1.3c-1.3,4.9-5.1,8.7-10,10l-1.3-1.3c-0.7-0.7-2.2-1.1-3.2-0.8l-3.7,1c-1,0.3-2.1,1.3-2.4,2.3L732.4-380.1"/>
<path id="path3543" fill="#FFFFFF" d="M790-380.1c-0.3,1,0,2.4,0.7,3.1l2,2c0.4,0.4,1.4,0.6,1.4,0.6c6.4,0.1,12.5-2.4,17-6.9
	s7-10.6,6.9-17c0,0-0.2-1-0.6-1.4l-2-2c-0.7-0.7-2.1-1.1-3.1-0.7l-0.4,0.1c-1,0.3-2,1.4-2.3,2.4l-1,3.7c-0.3,1,0.1,2.4,0.8,3.2
	l1.4,1.3c-1.3,4.9-5.1,8.7-10,10l-1.3-1.3c-0.7-0.7-2.2-1.1-3.2-0.8l-3.7,1c-1,0.3-2.1,1.3-2.4,2.3L790-380.1"/>
<path id="path3551" fill="#24A3DD" d="M858.9-393.7c0.2,0,0.3,0,0.5,0.1c0.8,0.1,1.6,0.1,2.4,0.2c4.1,0.6,7.4,2.5,9.8,5.9
	c1.9,2.6,2.9,5.6,3.4,8.8c0.1,0.7,0.2,1.5,0.3,2.2c-0.9-3.8-3.4-6.2-6.8-7.7c-2.3-1-4.8-1.4-7.4-1.6c-0.7,0-1.4,0-2.1,0v8
	c-4-4-8-8-11.9-11.9c3.9-3.9,7.9-7.9,11.9-11.9L858.9-393.7"/>
<g id="g3553">
	<path id="path3555" fill="#24A3DD" d="M919.2-412.9c-13.8,0-25,11.2-25,25s11.2,25,25,25s25-11.2,25-25S933-412.9,919.2-412.9
		 M916.4-378c-4-4-8-8-11.9-11.9c3.9-3.9,7.9-7.9,11.9-11.9v8.1c0.2,0,0.3,0,0.5,0.1c0.8,0.1,1.6,0.1,2.3,0.2
		c4.1,0.6,7.4,2.5,9.8,5.9c1.9,2.6,2.9,5.6,3.4,8.8c0.1,0.7,0.2,1.5,0.3,2.2c-0.9-3.8-3.4-6.2-6.8-7.7c-2.3-1-4.8-1.4-7.4-1.6
		c-0.7,0-1.4,0-2.1,0V-378"/>
</g>
<polygon id="polygon3559" fill="#FFFFFF" points="1091.9,-383.5 1077.6,-393 1077.6,-379.2 1106.1,-379.2 1106.1,-393 "/>
<polygon id="polygon3561" fill="#FFFFFF" points="1077.8,-396.7 1091.9,-387.4 1105.9,-396.7 "/>
<g id="g3565">
	<path id="path3567" fill="#24A3DD" d="M1149.5-412.9c-13.8,0-25,11.2-25,25s11.2,25,25,25s25-11.2,25-25S1163.3-412.9,1149.5-412.9
		 M1163.5-396.7l-14,9.4l-14-9.4H1163.5L1163.5-396.7z M1163.7-379.2h-28.5V-393l14.2,9.5l14.2-9.5L1163.7-379.2L1163.7-379.2z"/>
</g>
<polygon id="polygon3571" fill="#FFFFFF" points="963.4,-388.8 967.2,-392.6 974.8,-384.8 974.8,-371.6 980.3,-371.6 980.3,-387.1 
	971.1,-396.5 975,-400.4 963.4,-400.4 "/>
<polygon id="polygon3573" fill="#FFFFFF" points="982.2,-389.1 990.2,-397.1 986.7,-400.6 978.7,-392.6 "/>
<g id="g3577">
	<path id="path3579" fill="#24A3DD" d="M1034.3-412.9c-13.8,0-25,11.2-25,25s11.2,25,25,25c13.8,0,25-11.2,25-25
		S1048.2-412.9,1034.3-412.9 M1039.8-389.1l-3.5-3.5l8-8l3.5,3.5L1039.8-389.1z M1020.9-388.8v-11.6h11.6l-3.9,3.9l9.2,9.5v15.5
		h-5.5v-13.2l-7.6-7.8L1020.9-388.8L1020.9-388.8z"/>
</g>
<polygon id="polygon3583" fill="none" stroke="#FFFFFF" stroke-miterlimit="10" points="1197.7,-387.6 1211.9,-398.3 1211.9,-377 
	"/>
<rect id="rect3591" x="1359.1" y="-389" fill="#24A3DD" width="27.3" height="2.3"/>
<polygon id="polygon3597" fill="#24A3DD" points="1443.9,-388.8 1431.4,-388.8 1431.4,-401.3 1429.1,-401.3 1429.1,-388.8 
	1416.7,-388.8 1416.7,-386.5 1429.1,-386.5 1429.1,-374.1 1431.4,-374.1 1431.4,-386.5 1443.9,-386.5 "/>
<path id="path3601" fill="#FFFFFF" d="M880.1-468l17.3,17.3l4.4-4.4L888.9-468l12.7-12.7l-4.4-4.4L880.1-468z M897.4-451.8
	L881.2-468l16-16l3.3,3.3L887.8-468l12.9,12.9L897.4-451.8z"/>
<path id="path3603" fill="#FFFFFF" d="M891.6-492.9c-13.8,0-25,11.2-25,25s11.2,25,25,25s25-11.2,25-25S905.4-492.9,891.6-492.9
	 M891.6-443.8c-13.3,0-24.1-10.8-24.1-24.1s10.8-24.1,24.1-24.1s24.1,10.8,24.1,24.1S904.9-443.8,891.6-443.8"/>
<path id="path3605" fill="#24A3DD" d="M953-492.9c-13.8,0-25,11.2-25,25s11.2,25,25,25s25-11.2,25-25S966.8-492.9,953-492.9
	 M953-443.8c-13.3,0-24.1-10.8-24.1-24.1S939.7-492,953-492s24.1,10.8,24.1,24.1S966.3-443.8,953-443.8"/>
<path id="path3607" fill="#24A3DD" d="M941.7-468l17.3,17.3l4.4-4.4L950.5-468l12.7-12.7l-4.4-4.4L941.7-468z M959-451.8L942.8-468
	l16-16l3.3,3.3L949.4-468l12.9,12.9L959-451.8z"/>
<polygon id="polygon3611" fill="#FFFFFF" points="514.8,-467.6 522.7,-459.8 519.4,-456.5 508.2,-467.7 519.2,-478.6 522.5,-475.3 
	"/>
<path id="path3613" fill="#FFFFFF" d="M569-492.9c-13.8,0-25,11.2-25,25s11.2,25,25,25s25-11.2,25-25S582.8-492.9,569-492.9
	 M561.2-467.7l11-11l3.3,3.3l-7.7,7.7l7.9,7.9l-3.3,3.3L561.2-467.7z"/>
<polygon id="polygon3617" fill="#24A3DD" points="1014.8,-467.6 1022.7,-459.8 1019.4,-456.5 1008.2,-467.7 1019.2,-478.6 
	1022.5,-475.3 "/>
<path id="path3619" fill="#24A3DD" d="M1069-492.9c-13.8,0-25,11.2-25,25s11.2,25,25,25s25-11.2,25-25S1082.8-492.9,1069-492.9
	 M1061.2-467.7l11-11l3.3,3.3l-7.7,7.7l7.9,7.9l-3.3,3.3L1061.2-467.7z"/>
<rect id="rect3621" x="612.5" y="-492.9" fill="#24A3DD" width="50" height="56"/>
<polygon id="polygon3623" fill="#FFFFFF" points="631.3,-465.6 646.2,-480.6 645,-481.8 628.8,-465.6 644.7,-449.6 645.9,-450.9 "/>
<rect id="rect3625" x="670.5" y="-492.9" fill="#FFFFFF" width="50" height="56"/>
<polygon id="polygon3627" fill="#24A3DD" points="689.3,-465.6 704.2,-480.6 703,-481.8 686.8,-465.6 702.7,-449.6 703.9,-450.9 "/>
<rect id="rect3629" x="801.5" y="-492.9" fill="#FFFFFF" width="50" height="56"/>
<polygon id="polygon3631" fill="#24A3DD" points="832.7,-465.9 817.8,-450.9 819,-449.6 835.2,-465.9 819.3,-481.8 818.1,-480.6 "/>
<g id="g3633" opacity="0.5">
	<g id="g3635">
		<g id="g3637">
			<g id="g3639">
				<g id="g3641">
					<g id="g3643">
						<g id="g3645">
							<g id="g3647">
								<g id="g3649">
									<g id="g3651">
										<g id="g3653">
											<g>
												<g>
													<g>
														<g>
															<g>
																<g>
																	<g>
																		<g>
																			<g>
																				<g>
																					<g>
																						<g>
																							<g>
																								<g>
																									<g>
																										<g>
																											<g>
																												<rect id="rect3661" x="735.5" y="-492.9" fill="#231F20" width="50" height="56"/>
																											</g>
																										</g>
																									</g>
																								</g>
																							</g>
																						</g>
																					</g>
																				</g>
																			</g>
																		</g>
																	</g>
																</g>
															</g>
														</g>
													</g>
												</g>
											</g>
										</g>
									</g>
								</g>
							</g>
						</g>
					</g>
				</g>
			</g>
		</g>
	</g>
</g>
<rect x="735.5" y="-492.9" fill="none" width="50" height="56"/>
<polygon id="polygon3663" fill="#FFFFFF" points="766.7,-465.9 751.8,-450.9 753,-449.6 769.2,-465.9 753.3,-481.8 752.1,-480.6 "/>
<path id="path3665" fill="#FFFFFF" d="M1114.1-470.7v5.7h12.2v12.1h5.7v-12.2h12.2v-5.7H1132v-12.1h-5.7v12.2H1114.1z M1115.1-469.7
	h12.2v-12.2h3.7v12.2h12.2v3.7H1131v12.1h-3.7v-12.2h-12.2L1115.1-469.7L1115.1-469.7z"/>
<path id="path3667" fill="#FFFFFF" d="M1129.1-492.9c-13.8,0-25,11.2-25,25s11.2,25,25,25s25-11.2,25-25S1142.9-492.9,1129.1-492.9
	 M1129.1-443.8c-13.3,0-24.1-10.8-24.1-24.1s10.8-24.1,24.1-24.1s24.1,10.8,24.1,24.1S1142.4-443.8,1129.1-443.8"/>
<polygon id="polygon3669" fill="#FFFFFF" points="1191.9,-470.7 1191.9,-482.9 1186.2,-482.9 1186.2,-470.7 1174.1,-470.7 
	1174.1,-465.1 1186.2,-465.1 1186.2,-452.9 1191.9,-452.9 1191.9,-465.1 1204.1,-465.1 1204.1,-470.7 "/>
<path id="path3671" fill="#FFFFFF" d="M1189.1-492.9c-13.8,0-25,11.2-25,25s11.2,25,25,25s25-11.2,25-25S1202.9-492.9,1189.1-492.9
	 M1189.1-443.8c-13.3,0-24.1-10.8-24.1-24.1s10.8-24.1,24.1-24.1s24.1,10.8,24.1,24.1S1202.4-443.8,1189.1-443.8"/>
<path id="path3673" fill="#24A3DD" d="M1261.1-467.9l8.6-8.6l-4-4l-8.6,8.6l-8.6-8.6l-4,4l8.6,8.6l-8.6,8.6l4,4l8.6-8.6l8.6,8.6l4-4
	L1261.1-467.9z M1265.7-456.7l-8.6-8.6l-8.6,8.6l-2.6-2.6l8.6-8.6l-8.6-8.6l2.6-2.6l8.6,8.6l8.6-8.6l2.6,2.6l-8.6,8.6l8.6,8.6
	L1265.7-456.7z"/>
<path id="path3675" fill="#24A3DD" d="M1257.1-492.9c-13.8,0-25,11.2-25,25s11.2,25,25,25s25-11.2,25-25S1270.9-492.9,1257.1-492.9
	 M1257.1-443.8c-13.3,0-24.1-10.8-24.1-24.1s10.8-24.1,24.1-24.1s24.1,10.8,24.1,24.1S1270.4-443.8,1257.1-443.8"/>
<polygon id="polygon3677" fill="#24A3DD" points="1321.1,-467.9 1329.7,-476.5 1325.7,-480.5 1317.1,-471.9 1308.5,-480.5 
	1304.5,-476.5 1313.1,-467.9 1304.5,-459.3 1308.5,-455.3 1317.1,-463.9 1325.7,-455.3 1329.7,-459.3 "/>
<path id="path3679" fill="#24A3DD" d="M1317.1-492.9c-13.8,0-25,11.2-25,25s11.2,25,25,25s25-11.2,25-25S1330.9-492.9,1317.1-492.9
	 M1317.1-443.8c-13.3,0-24.1-10.8-24.1-24.1s10.8-24.1,24.1-24.1s24.1,10.8,24.1,24.1S1330.4-443.8,1317.1-443.8"/>
<path id="path3681" fill="#FFFFFF" d="M1403.4-473.3l-10.8,7.5c-0.2,0.2-0.5,0.2-0.8,0.2c-0.2,0-0.4,0-0.6-0.1
	c-0.4-0.2-0.7-0.6-0.7-1.1v-15.1c0-0.5,0.3-0.9,0.7-1.1c0.4-0.2,1-0.2,1.4,0.1l10.8,7.5c0.3,0.2,0.5,0.6,0.5,1
	C1404-473.9,1403.8-473.6,1403.4-473.3 M1418.5-487.4c0-0.2-0.1-0.4-0.1-0.6c0-0.1,0-0.2-0.1-0.3c-0.6-1.9-2.4-3.3-4.5-3.3h0.3
	c0,0-8.5-1.3-19.7-1.4c-11.3,0.1-19.7,1.4-19.7,1.4h0.3c-2.1,0-3.9,1.4-4.5,3.3c0,0.1-0.1,0.2-0.1,0.3c-0.1,0.2-0.1,0.4-0.1,0.6
	c-0.3,2.2-0.8,6.7-0.9,12.1c0.1,5.4,0.6,9.8,0.9,12.1c0,0.2,0.1,0.4,0.1,0.6c0,0.1,0.1,0.2,0.1,0.3c0.6,1.9,2.4,3.3,4.5,3.3h-0.3
	c0,0,8.5,1.3,19.7,1.4c11.3-0.1,19.7-1.4,19.7-1.4h-0.3c2.1,0,3.9-1.4,4.5-3.3c0-0.1,0.1-0.2,0.1-0.3c0.1-0.2,0.1-0.4,0.1-0.6
	c0.3-2.2,0.8-6.7,0.9-12.1C1419.3-480.7,1418.8-485.1,1418.5-487.4"/>
<polygon id="polygon3685" fill="#24A3DD" points="1259.4,-383.5 1245.1,-393 1245.1,-379.2 1273.6,-379.2 1273.6,-393 "/>
<polygon id="polygon3687" fill="#24A3DD" points="1245.3,-396.7 1259.4,-387.4 1273.4,-396.7 "/>
<polygon id="polygon3693" fill="#24A3DD" points="1304.1,-388.8 1307.9,-392.6 1315.5,-384.8 1315.5,-371.6 1321,-371.6 
	1321,-387.1 1311.8,-396.5 1315.7,-400.4 1304.1,-400.4 "/>
<polygon id="polygon3695" fill="#24A3DD" points="1322.9,-389.1 1330.9,-397.1 1327.4,-400.6 1319.4,-392.6 "/>
<g id="g3699">
	<path id="path3701" fill="#FFFFFF" d="M516.5-349.4c-13.8,0-25,11.2-25,25s11.2,25,25,25s25-11.2,25-25S530.3-349.4,516.5-349.4
		 M530.5-333.2l-14,9.4l-14-9.4H530.5z M530.7-315.7h-28.5v-13.8l14.2,9.5l14.2-9.5L530.7-315.7L530.7-315.7z"/>
</g>
<path id="path3703" fill="#FFFFFF" d="M543.4-324.5c0,13.7,11.1,24.9,24.9,24.9c13.7,0,24.9-11.1,24.9-24.9
	c0-13.7-11.1-24.9-24.9-24.9S543.4-338.3,543.4-324.5z M573.8-325.6l-3.5-3.5l8-8l3.5,3.5L573.8-325.6z M555-336.9h11.6l-3.9,3.9
	l9.2,9.5v15.5h-5.5v-13.2l-7.6-7.8l-3.9,3.9L555-336.9L555-336.9z"/>
<polygon id="polygon3709" fill="#FFFFFF" points="639.7,-326 627.4,-326 627.4,-338.3 625.2,-338.3 625.2,-326 612.9,-326 
	612.9,-323.8 625.2,-323.8 625.2,-311.6 627.4,-311.6 627.4,-323.8 639.7,-323.8 "/>
<path id="path3711" fill="#FFFFFF" d="M651.8-324.4c0,13.8,11.2,25,25,25s25-11.2,25-25s-11.2-25-25-25S651.8-338.2,651.8-324.4z
	 M662.8-316.6l0.1-0.4c0.3-1,1.4-2,2.4-2.3l3.7-1c1-0.3,2.4,0.1,3.2,0.8l1.3,1.3c4.9-1.3,8.7-5.1,10-10l-1.3-1.3
	c-0.7-0.7-1.1-2.2-0.8-3.2l1-3.7c0.3-1,1.3-2.1,2.3-2.4l0.4-0.1c1-0.3,2.4,0,3.1,0.7l2,2c0.4,0.4,0.6,1.4,0.6,1.4
	c0.1,6.4-2.4,12.5-6.9,17s-10.6,7-17,6.9c0,0-1.1-0.2-1.4-0.6l-2-2C662.8-314.2,662.5-315.6,662.8-316.6z"/>
<rect id="rect3717" x="713.4" y="-325.7" fill="#FFFFFF" width="27.3" height="2.3"/>
<g id="g3719">
	<circle id="circle3721" fill="none" stroke="#FFFFFF" stroke-width="4" stroke-miterlimit="10" cx="804" cy="-323.7" r="20"/>
	<path id="path3723" fill="#FFFFFF" d="M800.4-323.7c0-2,1.6-3.5,3.5-3.5s3.5,1.6,3.5,3.5s-1.6,3.5-3.5,3.5S800.4-321.8,800.4-323.7
		"/>
	
		<line id="line3725" fill="none" stroke="#FFFFFF" stroke-width="4" stroke-miterlimit="10" x1="804" y1="-349.4" x2="804" y2="-335.2"/>
	
		<line id="line3727" fill="none" stroke="#FFFFFF" stroke-width="4" stroke-miterlimit="10" x1="804" y1="-312.3" x2="804" y2="-298.1"/>
	
		<line id="line3729" fill="none" stroke="#FFFFFF" stroke-width="4" stroke-miterlimit="10" x1="829.6" y1="-323.7" x2="815.4" y2="-323.7"/>
	
		<line id="line3731" fill="none" stroke="#FFFFFF" stroke-width="4" stroke-miterlimit="10" x1="792.5" y1="-323.7" x2="778.3" y2="-323.7"/>
</g>
<g id="g3733">
	<path id="path3735" fill="#BBBBBB" d="M862.2-327.8l-14.6,13.3l-2.7-2.9l14.6-13.3L862.2-327.8z"/>
	<path id="path3737" fill="#BBBBBB" d="M856.6-336.5c0,7.1,5.9,12.9,13.1,12.9s13.1-5.8,13.1-12.9s-5.9-12.9-13.1-12.9
		S856.6-343.6,856.6-336.5z M859.6-336.5c0-5.5,4.5-9.9,10-9.9s10,4.4,10,9.9s-4.5,9.9-10,9.9S859.6-331,859.6-336.5z"/>
</g>
<g id="g3739">
	<g id="g3741">
		<path id="path3743" fill="#2495CF" d="M925-301.7c-12.2,0-22-9.9-22-22s9.9-22,22-22s22,9.9,22,22
			C947-311.6,937.1-301.7,925-301.7z M925-341.8c-10,0-18,8.1-18,18s8.1,18,18,18s18-8.1,18-18S934.9-341.8,925-341.8z"/>
	</g>
	<g id="g3745">
		<path id="path3747" fill="#2495CF" d="M921.4-323.7c0-2,1.6-3.5,3.5-3.5s3.5,1.6,3.5,3.5s-1.6,3.5-3.5,3.5
			S921.4-321.8,921.4-323.7"/>
	</g>
	<g id="g3749">
		<rect id="rect3751" x="923" y="-349.4" fill="#2495CF" width="4" height="14.2"/>
	</g>
	<g id="g3753">
		<rect id="rect3755" x="923" y="-312.3" fill="#2495CF" width="4" height="14.2"/>
	</g>
	<g id="g3757">
		<rect id="rect3759" x="936.4" y="-325.7" fill="#2495CF" width="14.2" height="4"/>
	</g>
	<g id="g3761">
		<rect id="rect3763" x="899.3" y="-325.7" fill="#2495CF" width="14.2" height="4"/>
	</g>
</g>
<g id="g3765">
	<path id="path3767" fill="#2495CF" d="M983.2-327.8l-14.6,13.3l-2.7-2.9l14.6-13.3L983.2-327.8z"/>
	<path id="path3769" fill="#2495CF" d="M977.6-336.5c0,7.1,5.9,12.9,13.1,12.9s13.1-5.8,13.1-12.9s-5.9-12.9-13.1-12.9
		S977.6-343.6,977.6-336.5z M980.6-336.5c0-5.5,4.5-9.9,10-9.9s10,4.4,10,9.9s-4.5,9.9-10,9.9S980.6-331,980.6-336.5z"/>
</g>
<polygon id="polygon4578-1" fill="#2D96CD" points="510,-187.2 500.6,-196.6 491,-187 491.8,-186.3 500.6,-195.1 509.3,-186.5 "/>
<polygon id="polygon4578-1-1" fill="#2D96CD" points="500.6,-139.4 509.3,-148 510,-147.3 500.6,-137.9 491,-147.5 491.8,-148.2 "/>
<g>
	<circle fill="#2E95CC" cx="516.1" cy="-71.8" r="25"/>
	<g>
		<path fill="#FFFFFF" d="M529.5-80.6l-9.6-4l0.7,10.4l2.9-2.1c3.8,5.5,3,12.8-1.7,17.3c0.6-0.3,1.2-0.7,1.8-1.1
			c6-4.3,7.4-12.6,3.3-18.6L529.5-80.6z"/>
		<path fill="#FFFFFF" d="M502.7-63.1l9.6,4l-0.7-10.4l-2.9,2.1c-3.8-5.5-3-12.8,1.7-17.3c-0.6,0.3-1.2,0.7-1.8,1.1
			c-6,4.3-7.4,12.6-3.3,18.6L502.7-63.1z"/>
	</g>
</g>
<g>
	<g>
		<path fill="#656666" d="M575.9-95.9c13.2,0,24,10.8,24,24s-10.8,24-24,24s-24-10.8-24-24S562.7-95.9,575.9-95.9 M575.9-96.9
			c-13.8,0-25,11.2-25,25s11.2,25,25,25s25-11.2,25-25C601-85.7,589.8-96.9,575.9-96.9L575.9-96.9z"/>
	</g>
	<g>
		<path fill="#656666" d="M589.4-80.6l-9.6-4l0.7,10.4l2.9-2.1c3.8,5.5,3,12.8-1.7,17.3c0.6-0.3,1.2-0.7,1.8-1.1
			c6-4.3,7.4-12.6,3.3-18.6L589.4-80.6z"/>
		<path fill="#656666" d="M562.5-63.1l9.6,4l-0.7-10.4l-2.9,2.1c-3.8-5.5-3-12.8,1.7-17.3c-0.6,0.3-1.2,0.7-1.8,1.1
			c-6,4.3-7.4,12.6-3.3,18.6L562.5-63.1z"/>
	</g>
</g>
<g>
	<circle fill="#2E95CC" cx="639.8" cy="-71.8" r="25"/>
	<g>
		<path fill="#FFFFFF" d="M631.8-61c-0.6,0.4-1.3,0.8-1.8,1.1c0.5,0.6,1.6,0.9,4.4,1h0.2c0.4,0,0.9-0.1,1.2-0.9
			c0.2,0.1,0.5,0.2,0.7,0.3c0.7,0.4,1.3,0.7,1.8,0.8c0.4,0.1,0.7,0,1-0.2c0.5-0.4,0.5-1,0.6-1.5c1,0.4,2.7,1.5,3.6,2.2
			c0.3,0.3,0.7,0.4,1,0.4c0.1,0,0.2,0,0.2,0c1.1-0.2,1.9-1.5,2.6-2.6c0.1-0.1,0.2-0.3,0.3-0.5c0.7,0.4,2.2,1.5,3.6,2.7
			c0.4,0.3,1,0.3,1.3-0.1c0.3-0.4,0.3-1-0.1-1.3c-4.1-3.3-4.8-3.3-5.1-3.3c-0.7,0-1,0.6-1.6,1.6c-0.3,0.4-0.8,1.4-1.2,1.7
			c-0.8-0.6-4.4-3.2-5.7-2.6c-0.7,0.3-0.8,1.1-0.8,1.6c-0.2-0.1-0.5-0.2-0.7-0.3c-1.1-0.6-1.7-0.8-2.2-0.7c-0.7,0.1-0.9,0.7-1,1.1
			C632.9-60.8,632.2-60.9,631.8-61z"/>
		<path fill="#FFFFFF" d="M643.2-85.9l-1.4,2h0.1c0.8,0,1.7,0.3,2.7,1c1.2,0.8,1.7,1.6,1.9,2.3l1.4-2c0,0,0.2-0.3,0.2-0.8
			c0-0.7-0.6-1.5-1.6-2.2c-0.8-0.6-1.5-0.8-2.1-0.8C643.5-86.4,643.2-85.9,643.2-85.9z"/>
		<path fill="#FFFFFF" d="M636.1-66.3l9.1-12.8c0,0,0.2-0.3,0.2-0.8c0-0.7-0.6-1.5-1.6-2.2c-0.8-0.6-1.5-0.8-2.1-0.8
			c-0.8,0-1.2,0.5-1.2,0.5l-9.1,12.8c0.7,0,1.6,0.2,2.8,1S635.9-67,636.1-66.3z"/>
		<path fill="#FFFFFF" d="M628.3-60.2c0.9-0.2,4-2.3,6.6-4.3l0.2-0.3l0,0c0,0,0.9-1.3-1.4-3c-2.3-1.6-3.2-0.4-3.3-0.3l0,0l0,0
			l-0.2,0.3C629.2-64.7,628.2-61.1,628.3-60.2z"/>
	</g>
</g>
<g>
	<g>
		<path fill="#656666" d="M701.4-95.9c13.3,0,24,10.8,24,24s-10.8,24-24,24c-13.3,0-24-10.8-24-24S688.1-95.9,701.4-95.9
			 M701.4-96.9c-13.8,0-25.1,11.2-25.1,25.1s11.2,25.1,25.1,25.1c13.8,0,25.1-11.2,25.1-25.1S715.2-96.9,701.4-96.9L701.4-96.9z"/>
	</g>
	<g>
		<path fill="#656666" d="M693.4-61c-0.6,0.4-1.3,0.8-1.8,1.1c0.5,0.6,1.6,0.9,4.4,1h0.2c0.4,0,0.9-0.1,1.2-0.9
			c0.2,0.1,0.5,0.2,0.7,0.3c0.7,0.4,1.3,0.7,1.8,0.8c0.4,0.1,0.7,0,1-0.2c0.5-0.4,0.5-1,0.6-1.5c1,0.4,2.7,1.5,3.6,2.2
			c0.3,0.3,0.7,0.4,1,0.4c0.1,0,0.2,0,0.2,0c1.1-0.2,1.9-1.5,2.6-2.7c0.1-0.1,0.2-0.3,0.3-0.5c0.7,0.4,2.2,1.5,3.6,2.7
			c0.4,0.3,1,0.3,1.3-0.1c0.3-0.4,0.3-1-0.1-1.4c-4.1-3.4-4.8-3.3-5.1-3.3c-0.7,0-1,0.6-1.6,1.6c-0.3,0.4-0.8,1.4-1.2,1.7
			c-0.8-0.6-4.5-3.2-5.7-2.6c-0.7,0.3-0.8,1.1-0.8,1.6c-0.2-0.1-0.5-0.2-0.7-0.4c-1.1-0.6-1.7-0.8-2.2-0.7c-0.7,0.1-0.9,0.7-1,1.1
			C694.4-60.8,693.8-60.9,693.4-61z"/>
		<path fill="#656666" d="M704.7-86l-1.4,2h0.1c0.8,0,1.7,0.3,2.7,1c1.2,0.8,1.7,1.6,1.9,2.3l1.4-2c0,0,0.2-0.3,0.2-0.8
			c0-0.7-0.6-1.5-1.6-2.2c-0.8-0.6-1.5-0.8-2.1-0.8C705.1-86.5,704.8-86,704.7-86z"/>
		<path fill="#656666" d="M697.7-66.3l9.2-12.8c0,0,0.2-0.3,0.2-0.8c0-0.7-0.6-1.5-1.6-2.2c-0.8-0.6-1.5-0.8-2.1-0.8
			c-0.8,0-1.2,0.5-1.2,0.5L693-69.6c0.7,0,1.6,0.2,2.8,1S697.5-67,697.7-66.3z"/>
		<path fill="#656666" d="M689.9-60.2c0.9-0.2,4-2.3,6.6-4.3l0.2-0.3l0,0c0,0,0.9-1.3-1.4-3c-2.3-1.6-3.2-0.4-3.3-0.3l0,0l0,0
			l-0.2,0.3C690.7-64.7,689.7-61.1,689.9-60.2z"/>
	</g>
</g>
<g>
	<circle fill="#2E97D0" cx="767.1" cy="-71.8" r="25"/>
	<path fill="#FFFFFF" d="M778.5-60.8c0.5-0.5,0.7-1.1,0.7-1.8s-0.3-1.3-0.7-1.8L766-76.9l0.1-0.3c0.9-2.5,0.3-5.3-1.6-7.1
		c-1.3-1.3-3-2-4.8-2c-0.5,0-0.9,0-1.4,0.1l4.1,4.1v3.1l-2.2,2.2h-3.1l-4.1-4.1c-0.5,2.2,0.2,4.6,1.8,6.2c1.3,1.3,3,2,4.8,2
		c0.8,0,1.6-0.1,2.3-0.4l0.4-0.1l12.5,12.5c0.5,0.5,1.1,0.7,1.8,0.7C777.4-60.1,778-60.3,778.5-60.8z"/>
</g>
<g>
	<g>
		<path fill="#656666" d="M831.6-95.8c13.2,0,23.9,10.7,23.9,23.9S844.8-48,831.6-48s-23.9-10.7-23.9-23.9S818.4-95.8,831.6-95.8
			 M831.6-96.9c-13.8,0-25,11.2-25,25s11.2,25,25,25s25-11.2,25-25S845.4-96.9,831.6-96.9L831.6-96.9z"/>
	</g>
	<path fill="#656666" d="M843-60.9c0.5-0.5,0.7-1.1,0.7-1.8s-0.3-1.3-0.7-1.8l-12.5-12.4l0.1-0.3c0.9-2.5,0.3-5.2-1.6-7.1
		c-1.3-1.3-3-2-4.8-2c-0.5,0-0.9,0-1.4,0.1l4.1,4.1v3.1l-2.2,2.2h-3.1l-4.1-4.1c-0.5,2.2,0.2,4.6,1.8,6.2c1.3,1.3,3,2,4.8,2
		c0.8,0,1.6-0.1,2.3-0.4l0.4-0.1l12.5,12.4c0.5,0.5,1.1,0.7,1.8,0.7C841.9-60.2,842.5-60.4,843-60.9z"/>
</g>
<g>
	<circle fill="#2F96CD" cx="897.3" cy="-71.9" r="24.9"/>
	<path fill="#FFFFFF" d="M882.3-72.4l-1.8,6.1h4.9v3.4l0.4,0.1c4,1.3,11.3,3.2,11.4,3.3h0.1h0.1c0.1,0,7.4-2,11.4-3.3l0.4-0.1l0,0
		v-3.4h4.9l-1.8-6.1l1.8-6.1h-4.9v-3.1l-0.3-0.1c-3.2-1.6-7.4-2.6-11.6-2.6s-8.4,0.9-11.6,2.6l-0.3,0.1v3.1h-4.9L882.3-72.4z
		 M897.3-62l-0.2-0.1c0,0-5.6-1.5-8.7-2.5l-0.6-0.2v-14.8l0.5-0.3c2.5-1.3,5.7-2,9-2s6.5,0.7,9,2l0.5,0.3v14.8l-0.6,0.2
		c-3.1,1-8.6,2.5-8.6,2.5L897.3-62z M900.4-69.3l2.8-2.8l1.9,1.9l-4.7,4.7l-11-11l1.9-1.9L900.4-69.3z"/>
</g>
<g>
	<g>
		<path fill="#656666" d="M960.3-95.8c13.2,0,24,10.8,24,24s-10.8,24-24,24s-24-10.8-24-24C936.3-85.1,947.1-95.8,960.3-95.8
			 M960.3-96.9c-13.8,0-25,11.2-25,25s11.2,25,25,25s25-11.2,25-25C985.4-85.7,974.2-96.9,960.3-96.9L960.3-96.9z"/>
	</g>
	<g>
		<path fill="#656666" d="M945.3-72.3l-1.8,6.1h4.9v3.4l0.4,0.1c4,1.3,11.4,3.3,11.4,3.3h0.1h0.1c0.1,0,7.4-2,11.4-3.3l0.4-0.1l0,0
			v-3.4h4.9l-1.8-6.1l1.8-6.1h-4.9v-3.1l-0.3-0.1c-3.3-1.7-7.4-2.6-11.7-2.6s-8.4,0.9-11.7,2.6l-0.3,0.1v3.1h-4.9L945.3-72.3z
			 M951.3-65v-14.1l0.2-0.1c2.5-1.3,5.6-1.9,8.8-1.9s6.4,0.7,8.8,1.9l0.2,0.1V-65l0,0l-0.3,0.1c-3.1,1-8.6,2.5-8.7,2.5h-0.1h-0.1
			c-0.1,0-5.6-1.5-8.7-2.5L951.3-65L951.3-65z"/>
		<polygon fill="#656666" points="954.4,-78.3 952.4,-76.4 963.5,-65.3 968.3,-70.1 966.3,-72 963.5,-69.2 		"/>
	</g>
</g>
<g>
	<circle fill="#2F96CD" cx="1025.1" cy="-71.8" r="25"/>
	<path fill="#FFFFFF" d="M1017.5-82.4L1017.5-82.4l4.6,21.3c0.1,0.3,0.3,0.5,0.6,0.5l0,0c0.3,0,0.5-0.2,0.6-0.5l2.3-8.5l8.5,2.3
		c0.1,0,0.1,0,0.2,0c0.2,0,0.4-0.1,0.5-0.3c0.1-0.2,0.1-0.6-0.1-0.7l-16.2-14.6l0,0c0,0-0.1,0-0.1-0.1h-0.1h-0.1h-0.1h-0.1h-0.1l0,0
		c0,0,0,0-0.1,0c0,0-0.1,0-0.1,0.1l0,0c0,0,0,0-0.1,0.1l-0.1,0.1c0,0,0,0,0,0.1L1017.5-82.4C1017.5-82.5,1017.5-82.5,1017.5-82.4
		C1017.4-82.5,1017.4-82.4,1017.5-82.4z"/>
</g>
<g>
	<path fill="#656666" d="M1081.7-82.4L1081.7-82.4l4.6,21.3c0.1,0.3,0.3,0.5,0.6,0.5l0,0c0.3,0,0.5-0.2,0.6-0.4l2.3-8.5l8.5,2.3
		c0.1,0,0.1,0,0.1,0c0.2,0,0.4-0.1,0.5-0.3c0.1-0.2,0.1-0.6-0.1-0.7l-16.1-14.7l0,0c0,0-0.1,0-0.1-0.1h-0.1h-0.1h-0.1h-0.1h-0.1l0,0
		c0,0,0,0-0.1,0c0,0-0.1,0-0.1,0.1l0,0c0,0,0,0-0.1,0.1l-0.1,0.1c0,0,0,0,0,0.1L1081.7-82.4C1081.7-82.5,1081.7-82.5,1081.7-82.4
		C1081.7-82.5,1081.7-82.4,1081.7-82.4z"/>
	<g>
		<path fill="#656666" d="M1089.3-95.8c13.2,0,24,10.8,24,24s-10.8,24-24,24s-24-10.8-24-24C1065.3-85.1,1076.1-95.8,1089.3-95.8
			 M1089.3-96.9c-13.8,0-25,11.2-25,25s11.2,25,25,25s25-11.2,25-25C1114.4-85.7,1103.2-96.9,1089.3-96.9L1089.3-96.9z"/>
	</g>
</g>
<g>
	<circle fill="#2E97D0" cx="1153.2" cy="-71.8" r="25.1"/>
	<g>
		<path fill="#FFFFFF" d="M1139.1-77.3c-0.5,0.6-0.7,1.5-0.7,1.5s-0.6,0.8-0.9,1.2c-0.3,0.4-0.3,1.4-0.3,1.9c0,0.6,0.2,6.5,0.2,6.5
			v2.9c0,0.5,0.4,0.8,0.8,0.8h2.7c0.5,0,0.8-0.4,0.8-0.8v-1.6c0.7,0.2,1.2,0.3,1.5,0.3c0.9,0.1,1.6-0.1,1.6-0.1c0.2,0,1.6,0,3.1,0
			l5-2.6c0.1-0.1,0.3-0.1,0.5-0.1c-0.3-1.4-0.2-2.9,0.2-4.3c0.7-2.2,2.2-4,4.2-5.1c1.2-0.7,2.6-1,4-1c1,0,2,0.2,3,0.5
			c0.1-0.2,0.4-0.6,1-0.7c0.8-0.1,1.5-0.3,1.5-0.9s-0.4-0.9-0.9-1s-2-0.4-2.1,0.2s-0.1,1,0.1,1.3l-0.5,0.5c0,0-0.3-0.3-0.4-0.7
			c-0.1-0.4-0.7-2.3-2-4.1c-1-1.5-1.4-1.6-1.7-1.6c-0.3,0-2.3-0.4-7.9-0.4c-5.7,0-7.6,0.4-7.9,0.4s-0.6,0.1-1.7,1.6
			c-1.3,1.9-1.9,3.8-2,4.1c-0.1,0.4-0.4,0.7-0.4,0.7l-0.5-0.5c0.1-0.3,0.1-0.7,0.1-1.3c-0.1-0.6-1.6-0.3-2.1-0.2
			c-0.5,0.1-0.9,0.4-0.9,1s0.7,0.7,1.5,0.9C1138.9-78,1139.1-77.3,1139.1-77.3z M1139.7-75.3c1.1,0.6,5.1,1.6,5.3,1.7
			s0.3,0.2,0.1,0.3c-0.2,0.2-1.2,0.9-1.2,0.9c-4.3-0.3-4.6-0.9-4.6-0.9C1138.8-74.7,1139.7-75.3,1139.7-75.3z"/>
		<path fill="#FFFFFF" d="M1154.3-66.9l1.3,2.5c1.5,1.9,3.7,3.1,6.2,3.1c1.3,0,2.5-0.3,3.7-0.9c1.9-1,3.2-2.6,3.9-4.6
			c0.6-2,0.4-4.1-0.6-6c-1.4-2.6-4-4.2-7-4.2c-1.3,0-2.5,0.3-3.7,0.9c-1.9,1-3.2,2.6-3.9,4.6C1153.9-70,1153.9-68.4,1154.3-66.9z
			 M1155.5-71.2c0.5-1.7,1.7-3.1,3.2-3.9c0.9-0.5,2-0.8,3.1-0.8c2.5,0,4.7,1.4,5.9,3.5c0.8,1.6,1,3.4,0.5,5
			c-0.5,1.7-1.7,3.1-3.2,3.9c-1,0.5-2,0.8-3.1,0.8c-2.5,0-4.7-1.4-5.9-3.5C1155.2-67.7,1155-69.5,1155.5-71.2z"/>
		<path fill="#FFFFFF" d="M1156.7-71.3c0.4-0.5,1-0.9,1.6-1.2c2.7-1.4,6.1-0.4,7.5,2.3c0.8,1.5,0.8,3.1,0.3,4.6
			c1.5-1.7,1.9-4.2,0.8-6.3c-1.4-2.7-4.8-3.8-7.5-2.3C1158-73.5,1157.1-72.5,1156.7-71.3z"/>
		<path fill="#FFFFFF" d="M1143.1-61.3c0,0.1,0,0.2,0,0.3l1.4,2.6c0.1,0.1,0.2,0.2,0.4,0.2c0.1,0,0.1,0,0.2-0.1l9.9-5.2
			c0.2-0.1,0.3-0.4,0.2-0.6l-1.3-2.6c-0.1-0.1-0.1-0.2-0.3-0.2c-0.1,0-0.2,0-0.3,0l-9.9,5.2C1143.2-61.5,1143.1-61.5,1143.1-61.3z"
			/>
	</g>
</g>
<g>
	<g>
		<path fill="#656666" d="M1218.3-95.8c13.2,0,23.9,10.7,23.9,23.9S1231.5-48,1218.3-48c-13.2,0-23.9-10.7-23.9-23.9
			C1194.3-85.1,1205.1-95.8,1218.3-95.8 M1218.3-96.9c-13.8,0-25,11.2-25,25s11.2,25,25,25s25-11.2,25-25
			C1243.2-85.7,1232.1-96.9,1218.3-96.9L1218.3-96.9z"/>
	</g>
	<g>
		<path fill="#656666" d="M1204.3-77.6c-0.5,0.6-0.7,1.5-0.7,1.5s-0.6,0.8-0.9,1.2c-0.3,0.4-0.3,1.4-0.3,1.9c0,0.6,0.2,6.5,0.2,6.5
			v2.8c0,0.5,0.4,0.8,0.8,0.8h2.6c0.4,0,0.8-0.4,0.8-0.8v-1.7c0.7,0.2,1.2,0.3,1.5,0.3c0.9,0.1,1.6-0.1,1.6-0.1c0.2,0,1.6,0,3.1,0
			l5-2.6c0.1-0.1,0.3-0.1,0.5-0.1c-0.3-1.4-0.2-2.9,0.2-4.3c0.7-2.2,2.2-4,4.2-5.1c1.2-0.6,2.6-1,4-1c1,0,2,0.2,3,0.5
			c0.1-0.2,0.4-0.6,1-0.7c0.8-0.1,1.5-0.3,1.5-0.9s-0.4-0.9-0.9-1s-2-0.4-2.1,0.2s-0.1,1,0.1,1.3l-0.5,0.5c0,0-0.3-0.3-0.4-0.7
			c-0.1-0.4-0.7-2.3-2-4.1c-1-1.5-1.4-1.6-1.7-1.6c-0.3,0-2.3-0.4-7.9-0.4s-7.6,0.4-7.9,0.4s-0.6,0.1-1.7,1.6
			c-1.3,1.9-1.9,3.7-2,4.1s-0.4,0.7-0.4,0.7l-0.5-0.5c0.1-0.3,0.1-0.7,0.1-1.3c-0.1-0.6-1.5-0.3-2.1-0.2c-0.5,0.1-0.9,0.4-0.9,1
			s0.7,0.7,1.5,0.9C1204.1-78.3,1204.3-77.6,1204.3-77.6z M1204.9-75.6c1.1,0.6,5.1,1.6,5.3,1.7c0.2,0.1,0.3,0.2,0.1,0.3
			c-0.2,0.2-1.2,0.9-1.2,0.9c-4.2-0.3-4.6-0.9-4.6-0.9C1204-75,1204.9-75.6,1204.9-75.6z"/>
		<path fill="#656666" d="M1219.5-67.3l1.3,2.5c1.5,1.9,3.7,3,6.2,3c1.3,0,2.5-0.3,3.6-0.9c1.9-1,3.2-2.6,3.8-4.6
			c0.6-2,0.4-4.1-0.6-6c-1.4-2.6-4-4.2-6.9-4.2c-1.3,0-2.5,0.3-3.6,0.9c-1.9,1-3.2,2.6-3.8,4.6C1219-70.4,1219-68.8,1219.5-67.3z
			 M1220.6-71.6c0.5-1.7,1.7-3.1,3.2-3.9c0.9-0.5,2-0.8,3.1-0.8c2.5,0,4.7,1.4,5.8,3.5c0.8,1.6,1,3.3,0.5,5s-1.7,3.1-3.2,3.9
			c-1,0.5-2,0.8-3.1,0.8c-2.5,0-4.7-1.3-5.8-3.5C1220.3-68.1,1220.1-69.9,1220.6-71.6z"/>
		<path fill="#656666" d="M1221.8-71.6c0.4-0.5,0.9-0.9,1.6-1.2c2.7-1.4,6-0.4,7.5,2.3c0.8,1.5,0.8,3.1,0.3,4.6
			c1.5-1.7,1.9-4.1,0.8-6.2c-1.4-2.7-4.8-3.7-7.5-2.3C1223.1-73.9,1222.2-72.8,1221.8-71.6z"/>
		<path fill="#656666" d="M1208.3-61.7c0,0.1,0,0.2,0,0.3l1.3,2.5c0.1,0.1,0.2,0.2,0.4,0.2c0.1,0,0.1,0,0.2-0.1l9.8-5.2
			c0.2-0.1,0.3-0.4,0.2-0.6l-1.4-2.6c-0.1-0.1-0.1-0.2-0.3-0.2c-0.1,0-0.2,0-0.3,0l-9.8,5.2C1208.4-61.9,1208.3-61.9,1208.3-61.7z"
			/>
	</g>
</g>
<g>
	<circle fill="#2E95CC" cx="1279.6" cy="-71.9" r="24.9"/>
	<path fill="#FFFFFF" d="M1265.9-81.1v18.3c0,0.8,0.7,1.5,1.5,1.5h24.5c0.8,0,1.5-0.7,1.5-1.5v-18.3c0-0.8-0.7-1.5-1.5-1.5h-24.5
		C1266.5-82.5,1265.9-81.9,1265.9-81.1z M1267.9-80.4h23.4v17.3h-23.4V-80.4z M1284.6-76.6c0-1,0.8-1.8,1.8-1.8l0,0
		c1,0,1.8,0.8,1.8,1.8l0,0c0,1-0.8,1.8-1.8,1.8l0,0C1285.4-74.8,1284.6-75.6,1284.6-76.6L1284.6-76.6z M1289.8-65
		c0.2,0.2,0.1,0.5-0.2,0.5h-19.7c-0.3,0-0.5-0.2-0.3-0.5l5.1-9.5c0.2-0.3,0.4-0.3,0.7-0.1l4.1,5c0.2,0.3,0.6,0.3,0.9,0.2l3.3-1.9
		c0.3-0.2,0.7-0.1,0.9,0.2L1289.8-65z"/>
</g>
<g>
	<g>
		<path fill="#656666" d="M1343.7-95.8c13.3,0,24,10.8,24,24s-10.8,24-24,24c-13.3,0-24-10.8-24-24S1330.5-95.8,1343.7-95.8
			 M1343.7-96.8c-13.9,0-25.1,11.2-25.1,25.1s11.2,25.1,25.1,25.1c13.8,0,25.1-11.2,25.1-25.1S1357.6-96.8,1343.7-96.8L1343.7-96.8z
			"/>
	</g>
	<path fill="#656666" d="M1329.9-81v18.4c0,0.8,0.7,1.5,1.5,1.5h24.6c0.8,0,1.5-0.7,1.5-1.5V-81c0-0.8-0.7-1.5-1.5-1.5h-24.6
		C1330.6-82.5,1329.9-81.8,1329.9-81z M1332-80.3h23.5v17.4H1332V-80.3z M1348.7-76.5c0-1,0.8-1.8,1.8-1.8l0,0c1,0,1.8,0.8,1.8,1.8
		l0,0c0,1-0.8,1.8-1.8,1.8l0,0C1349.5-74.7,1348.7-75.5,1348.7-76.5L1348.7-76.5z M1354-64.8c0.2,0.3,0.1,0.5-0.2,0.5H1334
		c-0.3,0-0.5-0.2-0.3-0.5l5.1-9.5c0.2-0.3,0.4-0.3,0.7-0.1l4.1,5c0.2,0.3,0.6,0.3,0.9,0.2l3.4-1.9c0.3-0.2,0.7-0.1,0.9,0.1
		L1354-64.8z"/>
</g>
<g>
	<circle fill="#2E97D0" cx="1407.5" cy="-71.8" r="25.1"/>
	
		<rect x="1392.4" y="-73.5" transform="matrix(0.7071 0.7071 -0.7071 0.7071 361.4197 -1016.2759)" fill="#FFFFFF" width="30.2" height="3.3"/>
	<path fill="#FFFFFF" d="M1394.9-64.8c0,3.1,2.5,5.5,5.6,5.5s5.6-2.5,5.6-5.5s-2.5-5.6-5.6-5.6C1397.4-70.3,1394.9-67.9,1394.9-64.8
		z M1397.8-64.8c0-1.5,1.2-2.7,2.7-2.7s2.7,1.2,2.7,2.7s-1.2,2.7-2.7,2.7S1397.8-63.3,1397.8-64.8z"/>
	<path fill="#FFFFFF" d="M1420-78.8c0-3.1-2.5-5.6-5.5-5.6c-3.1,0-5.6,2.5-5.6,5.6s2.5,5.6,5.6,5.6C1417.5-73.2,1420-75.7,1420-78.8
		z M1417.1-78.8c0,1.5-1.2,2.7-2.7,2.7s-2.7-1.2-2.7-2.7s1.2-2.7,2.7-2.7S1417.1-80.2,1417.1-78.8z"/>
</g>
<g>
	<g>
		<path fill="#656666" d="M516.1-11.9c13.3,0,24,10.8,24,24c0,13.3-10.8,24-24,24s-24-10.8-24-24C492-1.1,502.8-11.9,516.1-11.9
			 M516.1-12.9c-13.9,0-25.1,11.2-25.1,25.1s11.2,25.1,25.1,25.1c13.8,0,25.1-11.2,25.1-25.1C541.1-1.7,529.9-12.9,516.1-12.9
			L516.1-12.9z"/>
	</g>
	
		<rect x="501.1" y="10.5" transform="matrix(0.7071 0.7071 -0.7071 0.7071 159.7851 -361.4163)" fill="#656666" width="30.2" height="3.3"/>
	<path fill="#656666" d="M503.6,19.1c0,3.1,2.5,5.5,5.6,5.5c3.1,0,5.6-2.5,5.6-5.5s-2.5-5.6-5.6-5.6C506,13.6,503.6,16.1,503.6,19.1
		z M506.4,19.1c0-1.5,1.2-2.7,2.7-2.7s2.7,1.2,2.7,2.7s-1.2,2.7-2.7,2.7S506.4,20.6,506.4,19.1z"/>
	<path fill="#656666" d="M528.6,5.2c0-3.1-2.5-5.6-5.5-5.6c-3.1,0-5.6,2.5-5.6,5.6s2.5,5.6,5.6,5.6C526.1,10.7,528.6,8.2,528.6,5.2z
		 M525.8,5.2c0,1.5-1.2,2.7-2.7,2.7s-2.7-1.2-2.7-2.7s1.2-2.7,2.7-2.7S525.8,3.7,525.8,5.2z"/>
</g>
<g>
	<circle fill="#2E95CC" cx="576" cy="12.2" r="25.1"/>
	<path fill="#FFFFFF" d="M560.4,11.8v11c0,0.3,0.3,0.6,0.6,0.6h2.5c0,0.7-0.3,1.9-1.3,2.6c-0.2,0.1-0.3,0.4-0.2,0.6s0.3,0.4,0.5,0.4
		l0,0c2.6-0.1,3.6-2.2,3.9-3.6h12.4c0.3,0,0.6-0.3,0.6-0.6v-7.5h4.4c0.3,1.8,1.7,4.7,5.1,4.9l0,0c0.2,0,0.5-0.1,0.5-0.4
		c0.1-0.2,0-0.5-0.2-0.7c-1.6-1-1.8-2.9-1.9-3.8h3.8c0.3,0,0.6-0.3,0.6-0.6V0c0-0.3-0.3-0.6-0.6-0.6h-24c-0.3,0-0.6,0.3-0.6,0.6
		v11.3h-5.7C560.6,11.2,560.4,11.5,560.4,11.8z M578.7,11.2h-11V0.5h22.8v13.6h-3.7c-0.3,0-0.5,0.2-0.6,0.5c0,0.1-0.2,2.1,0.8,3.8
		c-2-1.1-2.2-3.7-2.3-3.8c0-0.3-0.3-0.5-0.6-0.5h-4.9v-2.3C579.3,11.5,579,11.2,578.7,11.2z"/>
</g>
<g>
	<g>
		<path fill="#656666" d="M636.8-11.9c13.2,0,24,10.7,24,24S650.1,36,636.8,36c-13.2,0-23.9-10.7-23.9-23.9S623.6-11.9,636.8-11.9
			 M636.8-12.9c-13.8,0-25,11.2-25,25s11.2,25,25,25s25-11.2,25-25S650.6-12.9,636.8-12.9L636.8-12.9z"/>
	</g>
	<path fill="none" d="M628.5,0.5v10.7h11c0.3,0,0.6,0.3,0.6,0.6v2.3h4.9c0.3,0,0.5,0.2,0.6,0.5c0,0.1,0.3,2.7,2.2,3.8
		c-1-1.7-0.8-3.7-0.8-3.8c0-0.3,0.3-0.5,0.6-0.5h3.7V0.6L628.5,0.5L628.5,0.5z"/>
	<path fill="#656666" d="M621.2,11.8v10.9c0,0.3,0.3,0.6,0.6,0.6h2.5c0,0.7-0.3,1.9-1.3,2.6c-0.2,0.1-0.3,0.4-0.2,0.6
		s0.3,0.4,0.5,0.4l0,0c2.6-0.1,3.6-2.2,3.9-3.6h12.3c0.3,0,0.6-0.3,0.6-0.6v-7.5h4.4c0.3,1.8,1.7,4.7,5.1,4.8l0,0
		c0.2,0,0.5-0.2,0.5-0.4c0.1-0.2,0-0.5-0.2-0.6c-1.6-1-1.8-2.9-1.9-3.8h3.7c0.3,0,0.6-0.3,0.6-0.6V-0.1c0-0.3-0.3-0.6-0.6-0.6H628
		c-0.3,0-0.6,0.3-0.6,0.6v11.2h-5.6C621.5,11.2,621.2,11.5,621.2,11.8z M639.5,11.2h-11V0.5h22.7v13.6h-3.7c-0.3,0-0.5,0.2-0.6,0.5
		c0,0.1-0.2,2.1,0.8,3.8c-2-1.1-2.2-3.7-2.2-3.8c0-0.3-0.3-0.5-0.6-0.5H640v-2.3C640,11.5,639.8,11.2,639.5,11.2z"/>
</g>
<g>
	<circle fill="#2E95CC" cx="699.7" cy="12.2" r="25.1"/>
	<path fill="#FFFFFF" d="M696.7,7.7c-0.7,0.1-1.7,1.7-1.9,2s-1.4,1.2-2.9,0.2c-1.4-1-5-3.6-5.6-4c-1.3-1,0.4-2.7,0.9-3.3
		s4.9-4.4,16.7,4.1s9.6,13.8,9.2,14.5c-0.5,0.6-1.5,2.8-2.9,1.9c-0.6-0.4-4.1-3-5.6-4c-1.4-1-1-2.5-0.8-2.8s1.4-1.7,1.3-2.4
		c-0.1-0.7-2.3-3-3.7-3.9C700.2,8.9,697.4,7.5,696.7,7.7z"/>
</g>
<g>
	<g>
		<path fill="#656666" d="M762.6-11.9c13.2,0,24,10.8,24,24s-10.8,24-24,24s-24-10.8-24-24S749.4-11.9,762.6-11.9 M762.6-12.9
			c-13.8,0-25,11.2-25,25s11.2,25,25,25s25-11.2,25-25C787.7-1.7,776.5-12.9,762.6-12.9L762.6-12.9z"/>
	</g>
	<path fill="#656666" d="M759.6,7.6c-0.7,0.1-1.7,1.7-1.9,2s-1.4,1.2-2.9,0.2c-1.4-1-4.9-3.5-5.5-4c-1.3-1,0.4-2.7,0.9-3.3
		s4.9-4.4,16.6,4.1c11.8,8.4,9.6,13.8,9.2,14.4c-0.5,0.6-1.5,2.8-2.9,1.9c-0.6-0.4-4.1-2.9-5.5-4c-1.4-1-1-2.5-0.8-2.8
		c0.2-0.3,1.4-1.7,1.3-2.4c-0.1-0.7-2.3-3-3.6-3.9C763.2,8.8,760.3,7.5,759.6,7.6z"/>
</g>
<g>
	<circle fill="#2E95CC" cx="827" cy="12.2" r="25.1"/>
	<g>
		<polygon fill="#FFFFFF" points="812.2,20.3 822.3,20.3 822.3,25.4 830.4,17.3 822.3,9.2 822.3,14.2 812.2,14.2 		"/>
		<polygon fill="#FFFFFF" points="831.7,15.1 831.7,10.1 841.8,10.1 841.8,4 831.7,4 831.7,-1.1 823.6,7 		"/>
	</g>
</g>
<g>
	<g>
		<path fill="#656666" d="M891.5-11.9c13.3,0,24,10.8,24,24c0,13.3-10.8,24-24,24s-24-10.8-24-24S878.2-11.9,891.5-11.9 M891.5-12.9
			c-13.8,0-25.1,11.2-25.1,25.1c0,13.8,11.2,25.1,25.1,25.1c13.8,0,25.1-11.2,25.1-25.1S905.3-12.9,891.5-12.9L891.5-12.9z"/>
	</g>
	<g>
		<polygon fill="#656666" points="876.7,20.3 886.8,20.3 886.8,25.4 894.9,17.3 886.8,9.2 886.8,14.2 876.7,14.2 		"/>
		<polygon fill="#656666" points="896.2,15.1 896.2,10.1 906.3,10.1 906.3,4 896.2,4 896.2,-1.1 888.1,7 		"/>
	</g>
</g>
<g>
	<circle fill="#2E95CC" cx="957.1" cy="12.2" r="25"/>
	<g>
		
			<rect x="962.8" y="2.9" transform="matrix(0.6557 0.755 -0.755 0.6557 338.0618 -725.6858)" fill="#FFFFFF" width="3.9" height="9.9"/>
		<polygon fill="#FFFFFF" points="946.1,7.9 948.8,5.7 956.9,15.4 956.9,26.7 960.8,26.7 960.8,14 951.8,3.2 954.5,0.9 944.7,-2.4 
					"/>
	</g>
</g>
<g>
	<g>
		<path fill="#656666" d="M1019.5-11.9c13.3,0,24,10.8,24,24c0,13.3-10.8,24-24,24c-13.3,0-24-10.8-24-24
			C995.4-1.1,1006.2-11.9,1019.5-11.9 M1019.5-12.9c-13.8,0-25.1,11.2-25.1,25.1c0,13.8,11.2,25.1,25.1,25.1
			c13.8,0,25.1-11.2,25.1-25.1C1044.5-1.7,1033.3-12.9,1019.5-12.9L1019.5-12.9z"/>
	</g>
	<g>
		
			<rect x="1024.9" y="2.9" transform="matrix(0.6564 0.7544 -0.7544 0.6564 358.7641 -771.9179)" fill="#656666" width="3.9" height="9.9"/>
		<polygon fill="#656666" points="1008.4,7.9 1011.1,5.7 1019.2,15.4 1019.2,26.7 1023.1,26.7 1023.1,14 1014.1,3.2 1016.9,0.9 
			1007,-2.4 		"/>
	</g>
</g>
<polygon id="polygon4578-1_1_" fill="#FFFFFF" points="542.2,-185.3 551,-194.1 559.7,-185.5 560.4,-186.2 551,-195.6 541.4,-186 
	"/>
<polygon id="polygon4578-1-1_1_" fill="#FFFFFF" points="551,-136.9 541.4,-146.4 542.2,-147.1 551,-138.3 559.7,-147 560.4,-146.3 
	"/>
<polygon id="polygon4578-1_2_" fill="#2E95CC" points="501.3,93.5 492.5,84.6 501.1,76 500.4,75.3 491,84.6 500.6,94.3 "/>
<polygon id="polygon4578-1_3_" fill="#FFFFFF" points="501.3,69.5 492.5,60.6 501.1,51.9 500.4,51.2 491,60.6 500.6,70.2 "/>
<rect x="515.7" y="113.3" fill="none" stroke="#2E97D0" stroke-miterlimit="10" width="5.4" height="8"/>
<line fill="none" stroke="#2E97D0" stroke-miterlimit="10" x1="507.8" y1="106.2" x2="507.8" y2="127.9"/>
<path fill="none" stroke="#2E97D0" stroke-width="2" stroke-miterlimit="10" d="M505.2,110.8c0,0-5.5,6.4,0,13"/>
<path fill="none" stroke="#2E97D0" stroke-width="2" stroke-miterlimit="10" d="M500.8,107.3c0,0-8.2,7.3,0,19.5"/>
<path fill="none" stroke="#2E97D0" stroke-width="2" stroke-miterlimit="10" d="M496.3,103.7c0,0-9.9,11.2,0,26"/>
<line fill="none" stroke="#2E97D0" stroke-miterlimit="10" x1="515.7" y1="113.3" x2="507.9" y2="106.7"/>
<line fill="none" stroke="#2E97D0" stroke-miterlimit="10" x1="515.7" y1="121.3" x2="507.9" y2="127.5"/>
<g id="Your_Icon">
	<path fill="#B3B3B3" d="M673.3,103.1v3.7v8.3h5v5.4c0,0.7,0.3,1.3,0.7,1.8c0.4,0.4,1.1,0.7,1.8,0.7h18.6c0.7,0,1.3-0.3,1.8-0.7
		c0.4-0.4,0.7-1.1,0.7-1.8v-5.4h4.6v-8.3v-3.7c0-2.3-1.9-4.1-4.1-4.1H702v-9.1c0-0.7-0.3-1.3-0.7-1.8c-0.4-0.4-1.1-0.7-1.8-0.7
		h-14.1c-0.3,0-0.6,0-0.8,0.1c-0.3,0.1-0.5,0.1-0.8,0.3c-0.5,0.2-1,0.5-1.4,0.9l0,0l-2.8,2.8c-0.3,0.3-0.5,0.6-0.7,1
		s-0.3,0.8-0.4,1.2c-0.1,0.3-0.1,0.5-0.1,0.8v4.6h-0.8C675.1,98.9,673.3,100.8,673.3,103.1z M684.5,93.6H681
		c0.1-0.2,0.2-0.4,0.3-0.4l0,0l2.8-2.8c0.1-0.1,0.2-0.2,0.4-0.3l0,0V93.6z M699.4,98.9h-18.6v-3.3h5.8v-0.4v-1.7v-3.7h12.8V98.9z
		 M680.7,115.1v-5h18.6v5v5.4h-18.6V115.1z M675.6,102.3c0-0.6,0.5-1.1,1.1-1.1s1.1,0.5,1.1,1.1s-0.5,1.1-1.1,1.1
		C676.1,103.5,675.6,103,675.6,102.3z"/>
</g>
<path id="path4484_1_" opacity="0.6" enable-background="new    " d="M624.6,112.4c-0.3,1,0,2.4,0.7,3.1l2,2
	c0.3,0.4,1.4,0.6,1.4,0.6c6.4,0.1,12.5-2.4,17-6.9s7-10.6,6.9-17c0,0-0.2-1-0.6-1.4l-2-2c-0.7-0.7-2.1-1-3.1-0.7l-0.4,0.1
	c-1,0.3-2,1.4-2.3,2.4l-1,3.7c-0.3,1,0.1,2.5,0.8,3.2l1.3,1.3c-1.3,4.9-5.1,8.7-10,10l-1.3-1.3c-0.8-0.7-2.2-1.1-3.2-0.8l-3.7,1
	c-1,0.3-2.1,1.3-2.4,2.3L624.6,112.4"/>
<circle fill="#24A3DD" cx="601.9" cy="105.6" r="12.3"/>
<polyline fill="none" stroke="#FFFFFF" stroke-miterlimit="10" points="608.8,106.6 605.3,110.4 595,99.9 "/>
<polyline fill="none" stroke="#626466" stroke-miterlimit="10" points="561.6,102.3 565.6,102.3 565.6,110.1 557.7,110.1 
	557.7,106.2 "/>
<path fill="none" stroke="#626466" stroke-miterlimit="10" d="M556.4,100.1"/>
<line fill="none" stroke="#626466" stroke-miterlimit="10" x1="560.9" y1="105.5" x2="556.1" y2="100.7"/>
<line fill="none" stroke="#626466" stroke-miterlimit="10" x1="556.3" y1="101" x2="556.4" y2="103.6"/>
<line fill="none" stroke="#626466" stroke-miterlimit="10" x1="556.4" y1="100.9" x2="559" y2="101"/>
<polygon id="polygon4530_1_" fill="none" stroke="#FFFFFF" stroke-miterlimit="10" points="580,-263.5 594.2,-274.2 594.2,-252.9 
	"/>
<path id="path3527_1_" fill="#FFFFFF" d="M516.1-492.9c-13.8,0-25,11.2-25,25s11.2,25,25,25s25-11.2,25-25S529.8-492.9,516.1-492.9
	 M516.1-443.8c-13.3,0-24.2-10.8-24.2-24.1S502.7-492,516-492s24.2,10.8,24.2,24.1S529.3-443.8,516.1-443.8"/>
<path id="path3527_2_" fill="#24A3DD" d="M1016-492.9c-13.8,0-25,11.2-25,25s11.2,25,25,25c13.8,0,25-11.2,25-25
	S1029.8-492.9,1016-492.9 M1016-443.8c-13.3,0-24.1-10.8-24.1-24.1s10.8-24.1,24.1-24.1c13.3,0,24.1,10.8,24.1,24.1
	S1029.3-443.8,1016-443.8"/>
<path id="path3527_3_" fill="#24A3DD" d="M1430.3-412.6c-13.8,0-25,11.2-25,25s11.2,25,25,25s25-11.2,25-25
	S1444.1-412.6,1430.3-412.6 M1430.3-363.5c-13.3,0-24.1-10.8-24.1-24.1s10.8-24.1,24.1-24.1c13.3,0,24.1,10.8,24.1,24.1
	S1443.6-363.5,1430.3-363.5"/>
<path id="path3527_4_" fill="#24A3DD" d="M1372.7-412.9c-13.8,0-25,11.2-25,25s11.2,25,25,25s25-11.2,25-25
	S1386.5-412.9,1372.7-412.9 M1372.7-363.8c-13.3,0-24.1-10.8-24.1-24.1s10.8-24.1,24.1-24.1c13.3,0,24.1,10.8,24.1,24.1
	S1386-363.8,1372.7-363.8"/>
<path id="path3527_5_" fill="#24A3DD" d="M1317.4-412.9c-13.8,0-25,11.2-25,25s11.2,25,25,25s25-11.2,25-25
	S1331.2-412.9,1317.4-412.9 M1317.4-363.8c-13.3,0-24.1-10.8-24.1-24.1s10.8-24.1,24.1-24.1s24.1,10.8,24.1,24.1
	S1330.7-363.8,1317.4-363.8"/>
<path id="path3527_6_" fill="#24A3DD" d="M1259.4-412.9c-13.8,0-25,11.2-25,25s11.2,25,25,25s25-11.2,25-25
	S1273.2-412.9,1259.4-412.9 M1259.4-363.8c-13.3,0-24.1-10.8-24.1-24.1s10.8-24.1,24.1-24.1s24.1,10.8,24.1,24.1
	S1272.7-363.8,1259.4-363.8"/>
<path id="path3527_7_" fill="#FFFFFF" d="M1207.1-412.9c-13.8,0-25,11.2-25,25s11.2,25,25,25s25-11.2,25-25
	S1220.9-412.9,1207.1-412.9 M1207.1-363.8c-13.3,0-24.1-10.8-24.1-24.1s10.8-24.1,24.1-24.1s24.1,10.8,24.1,24.1
	S1220.4-363.8,1207.1-363.8"/>
<path id="path3527_8_" fill="#FFFFFF" d="M1091.7-412.9c-13.8,0-25,11.2-25,25s11.2,25,25,25s25-11.2,25-25
	S1105.5-412.9,1091.7-412.9 M1091.7-363.8c-13.3,0-24.1-10.8-24.1-24.1s10.8-24.1,24.1-24.1c13.3,0,24.1,10.8,24.1,24.1
	S1105-363.8,1091.7-363.8"/>
<path id="path3527_9_" fill="#FFFFFF" d="M976.7-412.9c-13.8,0-25,11.2-25,25s11.2,25,25,25s25-11.2,25-25S990.5-412.9,976.7-412.9
	 M976.7-363.8c-13.3,0-24.1-10.8-24.1-24.1s10.8-24.1,24.1-24.1s24.1,10.8,24.1,24.1C1000.8-374.6,990-363.8,976.7-363.8"/>
<path id="path3527_10_" fill="#24A3DD" d="M861.6-412.9c-13.8,0-25,11.2-25,25s11.2,25,25,25s25-11.2,25-25S875.4-412.9,861.6-412.9
	 M861.6-363.8c-13.3,0-24.1-10.8-24.1-24.1s10.8-24.1,24.1-24.1s24.1,10.8,24.1,24.1S874.9-363.8,861.6-363.8"/>
<path id="path3527_11_" fill="#FFFFFF" d="M804-412.9c-13.8,0-25,11.2-25,25s11.2,25,25,25s25-11.2,25-25S817.8-412.9,804-412.9
	 M804-363.8c-13.3,0-24.1-10.8-24.1-24.1S790.7-412,804-412s24.1,10.8,24.1,24.1S817.3-363.8,804-363.8"/>
<path id="path3527_12_" fill="#24A3DD" d="M746.4-412.9c-13.8,0-25,11.2-25,25s11.2,25,25,25s25-11.2,25-25S760.2-412.9,746.4-412.9
	 M746.4-363.8c-13.3,0-24.1-10.8-24.1-24.1s10.8-24.1,24.1-24.1s24.1,10.8,24.1,24.1S759.7-363.8,746.4-363.8"/>
<path id="path3527_13_" fill="#24A3DD" d="M631.2-412.9c-13.8,0-25,11.2-25,25s11.2,25,25,25s25-11.2,25-25S645-412.9,631.2-412.9
	 M631.2-363.8c-13.3,0-24.1-10.8-24.1-24.1s10.8-24.1,24.1-24.1s24.1,10.8,24.1,24.1S644.5-363.8,631.2-363.8"/>
<path id="path3527_14_" fill="#FFFFFF" d="M626.3-349.5c-13.5,0-24.5,11-24.5,24.5s11,24.5,24.5,24.5s24.5-11,24.5-24.5
	C650.9-338.6,639.9-349.5,626.3-349.5 M626.3-301.4c-13,0-23.6-10.6-23.6-23.6s10.6-23.6,23.6-23.6s23.6,10.6,23.6,23.6
	C650-312,639.4-301.4,626.3-301.4"/>
<path id="path3527_15_" fill="#FFFFFF" d="M727-349.4c-13.8,0-25,11.2-25,25s11.2,25,25,25s25-11.2,25-25S740.8-349.4,727-349.4
	 M727-300.3c-13.3,0-24.1-10.8-24.1-24.1s10.8-24.1,24.1-24.1s24.1,10.8,24.1,24.1S740.3-300.3,727-300.3"/>
<path id="path3527_16_" fill="#FFFFFF" d="M589.4-288.8c-13.8,0-25,11.2-25,25c0,13.8,11.2,25,25,25s25-11.2,25-25
	C614.4-277.6,603.1-288.8,589.4-288.8 M589.4-239.8c-13.3,0-24.1-10.8-24.1-24.1c0-13.3,10.8-24.1,24.1-24.1s24.1,10.8,24.1,24.1
	C613.4-250.5,602.7-239.8,589.4-239.8"/>
<circle fill="#2E95CC" cx="1090.4" cy="10.7" r="25"/>
<path fill="#FFFFFF" d="M1077.3,9.5l2,3.4h2.1V11h2v1.9h2v-1.8h2V13h2v-1.9h1.8c0.5,2.1,2.5,1.9,2.5,1.9l0,0c1,2.4,3,4.1,5.5,4.1
	c3.3,0,6-3.2,6-7c0-3.9-2.7-7-6-7c-2.1,0-4,1.3-5.1,3.2l0,0h-14.8L1077.3,9.5z M1100.2,9.7c0-0.8,0.7-1.5,1.5-1.5s1.5,0.7,1.5,1.5
	s-0.7,1.5-1.5,1.5C1100.9,11.2,1100.2,10.5,1100.2,9.7z"/>
<g>
	<path fill="#24A3DD" d="M1033.3-334.9L1033.3-334.9l4.6,21.3c0.1,0.3,0.3,0.5,0.6,0.5l0,0c0.3,0,0.5-0.2,0.6-0.4l2.3-8.5l8.5,2.3
		c0.1,0,0.1,0,0.2,0c0.2,0,0.4-0.1,0.5-0.3c0.1-0.2,0.1-0.6-0.1-0.7l-16.1-14.6l0,0c0,0-0.1,0-0.1-0.1h-0.1h-0.1h-0.1h-0.1h-0.1l0,0
		c0,0,0,0-0.1,0c0,0-0.1,0-0.1,0.1l0,0c0,0,0,0-0.1,0.1l-0.1,0.1c0,0,0,0,0,0.1v0.1c0,0,0,0,0,0.1
		C1033.3-335,1033.3-335,1033.3-334.9z"/>
	<g>
		<path fill="#24A3DD" d="M1041-348.4c13.2,0,24,10.8,24,24s-10.8,24-24,24s-24-10.8-24-24S1027.7-348.4,1041-348.4 M1041-349.4
			c-13.8,0-25,11.2-25,25s11.2,25,25,25s25-11.2,25-25S1054.8-349.4,1041-349.4L1041-349.4z"/>
	</g>
</g>
<g>
	<g>
		<g>
			<g>
				<g>
					<g>
						<g>
							<g>
								<g>
									<g>
										<g>
											<g>
												<polygon fill="none" points="744.5,-177.6 746.1,-175.9 737.6,-167.4 729.1,-175.9 730.7,-177.6 737.6,-170.7 
																									"/>
											</g>
										</g>
									</g>
								</g>
							</g>
						</g>
					</g>
				</g>
			</g>
		</g>
	</g>
</g>
<polygon id="polygon4578-1_5_" fill="#656666" points="501.3,167.7 492.5,158.9 501.1,150.2 500.4,149.5 491,158.9 500.6,168.5 "/>
<polygon id="polygon4530_2_" fill="none" stroke="#FFFFFF" stroke-width="2" stroke-miterlimit="10" points="1124.5,-298.9 
	1154.3,-321.4 1154.3,-276.7 "/>
<path id="path4552_19_" fill="#FFFFFF" d="M1144.1-351.4c-28.7,0-52,23.3-52,52s23.3,52,52,52s52-23.3,52-52
	S1172.8-351.4,1144.1-351.4 M1144.1-249.2c-27.7,0-50.1-22.5-50.1-50.1s22.5-50.1,50.1-50.1s50.1,22.5,50.1,50.1
	S1171.7-249.2,1144.1-249.2"/>
<g display="none" opacity="0.4" enable-background="new    ">
	<g display="inline">
		<g>
			<g>
				<g>
					<g>
						<g>
							<g>
								<g>
									<defs>
										<rect id="SVGID_2_" x="1215.6" y="-406.6" width="35" height="35"/>
									</defs>
									<clipPath id="SVGID_4_">
										<use xlink:href="#SVGID_2_"  overflow="visible"/>
									</clipPath>
									<rect x="1210.6" y="-411.6" clip-path="url(#SVGID_4_)" width="45" height="45"/>
								</g>
							</g>
						</g>
					</g>
				</g>
			</g>
		</g>
	</g>
</g>
<g>
	<g>
		<g>
			<g>
				<g>
					<g>
						<g>
							<g>
								<g>
									<g>
										<defs>
											<path id="SVGID_5_" d="M743.3,108l2.7-2.6l4.6,4.6l2-2v5.2c0,0,0,1.3-1.4,1.3H746l1.9-1.9L743.3,108z M740.8,100.1
												l-2.7,2.6l-4.6-4.6l-2,2v-5.2c0,0,0-1.3,1.4-1.3h5.2l-1.9,1.9L740.8,100.1z"/>
										</defs>
										<clipPath id="SVGID_6_">
											<use xlink:href="#SVGID_5_"  overflow="visible"/>
										</clipPath>
										<rect x="726.6" y="88.5" clip-path="url(#SVGID_6_)" fill="#FFFFFF" width="31" height="31"/>
									</g>
								</g>
							</g>
						</g>
					</g>
				</g>
			</g>
		</g>
	</g>
</g>
<g>
	<path fill="#FFFFFF" d="M950.4,107.3c0,11.8,9.6,21.4,21.4,21.4s21.4-9.6,21.4-21.4s-9.6-21.4-21.4-21.4S950.4,95.5,950.4,107.3z
		 M959.4,100.1l1.9-1.9l15.3,15.3l5.4-5.4l2.1,2.1l-7.3,7.2L959.4,100.1z"/>
</g>
<g>
	<circle opacity="0.15" enable-background="new    " cx="903.5" cy="121.8" r="34.3"/>
</g>
<g>
	<path fill="#FFFFFF" d="M867.9,121.8c0,19.6,15.9,35.6,35.6,35.6c19.6,0,35.6-15.9,35.6-35.6s-15.9-35.6-35.6-35.6
		C883.8,86.3,867.9,102.2,867.9,121.8z M869.1,121.8c0-18.9,15.4-34.3,34.3-34.3c18.9,0,34.3,15.4,34.3,34.3s-15.3,34.3-34.2,34.3
		S869.1,140.8,869.1,121.8z"/>
</g>
<g>
	<path fill="#FFFFFF" d="M899.9,110.4c0,0-18.5,7.7,2,10.7c0-3.9,0-3.9,0-3.9l15,8l-15,7.9v-4c0,0-8.5,1-13-7c0,0-0.8-2.7,0-5.9
		C889.7,113,896.9,111,899.9,110.4z"/>
</g>
<g>
	
		<circle opacity="0.15" stroke="#FFFFFF" stroke-width="0.5" stroke-miterlimit="10" enable-background="new    " cx="823.6" cy="121.8" r="34.3"/>
</g>
<g>
	<path fill="#FFFFFF" d="M827.2,133.3c0,0,18.5-7.7-2-10.7c0,3.9,0,3.9,0,3.9l-15-8l15-7.9v4c0,0,8.5-1,13,7c0,0,0.8,2.7,0,5.9
		S830.2,132.6,827.2,133.3z"/>
</g>
<g>
	<path fill="#FFFFFF" d="M788.1,121.9c0,19.6,15.9,35.6,35.6,35.6c19.6,0,35.6-15.9,35.6-35.6s-15.9-35.6-35.6-35.6
		C804,86.4,788.1,102.3,788.1,121.9z M789.3,121.9c0-18.9,15.4-34.3,34.3-34.3s34.3,15.4,34.3,34.3s-15.4,34.3-34.3,34.3
		S789.3,140.9,789.3,121.9z"/>
</g>
<circle fill="none" stroke="#FFFFFF" stroke-width="1.5" stroke-miterlimit="10" cx="1053.1" cy="98.6" r="11.3"/>
<g>
	<line fill="none" stroke="#FFFFFF" stroke-width="1.5" stroke-miterlimit="10" x1="1045.5" y1="107" x2="1036.9" y2="115"/>
</g>
<g>
	<polygon id="polygon4544_3_" fill="#FFFFFF" points="1047.3,99.1 1052.8,99.1 1052.8,104.6 1053.8,104.6 1053.8,99.1 1059.2,99.1 
		1059.2,98.1 1053.8,98.1 1053.8,92.7 1052.8,92.7 1052.8,98.1 1047.3,98.1 	"/>
</g>
<g>
	<g>
		<circle fill="none" stroke="#FFFFFF" stroke-width="1.5" stroke-miterlimit="10" cx="1094.2" cy="98.6" r="11.3"/>
	</g>
	<g>
		<g>
			<line fill="none" stroke="#FFFFFF" stroke-width="1.5" stroke-miterlimit="10" x1="1086.6" y1="107" x2="1078" y2="115"/>
		</g>
		<g>
			<g>
				<rect id="rect4538_2_" x="1088.4" y="98.2" fill="#FFFFFF" width="11.9" height="0.9"/>
			</g>
		</g>
	</g>
</g>
<path id="path4550_1_" fill="#FFFFFF" stroke="#FFFFFF" stroke-width="2.5" stroke-miterlimit="10" d="M1304.1,91
	c-15,0-27.1,12.1-27.1,27.1s12.1,27.1,27.1,27.1c14.9,0,27.1-12.1,27.1-27.1C1331.1,103.1,1319,91,1304.1,91 M1304.1,144.2
	c-14.4,0-26.1-11.7-26.1-26.1s11.7-26.1,26.1-26.1s26.1,11.7,26.1,26.1S1318.5,144.2,1304.1,144.2"/>
<g id="Layer_1_3_" inkscape:version="0.48.5 r10040" sodipodi:docname="icons.svg" xmlns:dc="http://purl.org/dc/elements/1.1/" xmlns:cc="http://creativecommons.org/ns#" xmlns:rdf="http://www.w3.org/1999/02/22-rdf-syntax-ns#" xmlns:svg="http://www.w3.org/2000/svg" xmlns:sodipodi="http://sodipodi.sourceforge.net/DTD/sodipodi-0.dtd" xmlns:inkscape="http://www.inkscape.org/namespaces/inkscape">
	<g>
		<polygon id="SVGID_3_" fill="#FFFFFF" points="1300,118.1 1309.1,127.1 1306.9,129.3 1295.7,118.1 1306.9,106.9 1309.1,109.1 		
			"/>
	</g>
</g>
<path fill="#FFFFFF" d="M1209,118.1c0,15,12.1,27.1,27.1,27.1s27.1-12.1,27.1-27.1S1251.1,91,1236.1,91S1209,103.1,1209,118.1z
	 M1227.7,118.1l11.2-11.2l2.2,2.2l-9,9l9,9l-2.2,2.2L1227.7,118.1z"/>
<g>
	<g>
		<path fill="#2E95CC" d="M571.9,188.6c13.2,0,23.9,10.7,23.9,23.9s-10.7,23.9-23.9,23.9S548,225.8,548,212.6
			S558.7,188.6,571.9,188.6 M571.9,187.6c-13.8,0-25,11.2-25,25s11.2,25,25,25s25-11.2,25-25S585.7,187.6,571.9,187.6L571.9,187.6z"
			/>
	</g>
	<g>
		<path fill="#2E95CC" d="M557.9,206.9c-0.5,0.6-0.7,1.5-0.7,1.5s-0.6,0.8-0.9,1.2s-0.3,1.4-0.3,1.9c0,0.6,0.2,6.5,0.2,6.5v2.8
			c0,0.4,0.4,0.8,0.8,0.8h2.6c0.5,0,0.8-0.4,0.8-0.8v-1.7c0.7,0.2,1.2,0.3,1.5,0.3c0.9,0.1,1.6-0.1,1.6-0.1c0.2,0,1.6,0,3.1,0l5-2.6
			c0.2-0.1,0.3-0.1,0.5-0.1c-0.3-1.4-0.2-2.9,0.2-4.3c0.7-2.2,2.2-4,4.2-5.1c1.2-0.7,2.6-1,4-1c1,0,2,0.2,3,0.5
			c0.1-0.2,0.3-0.6,1-0.7c0.8-0.1,1.5-0.3,1.5-0.9c0-0.6-0.4-0.9-0.9-1s-2-0.4-2.1,0.2c-0.1,0.6-0.1,1,0.1,1.3l-0.5,0.5
			c0,0-0.3-0.3-0.4-0.7c-0.1-0.4-0.7-2.3-2-4.1c-1-1.5-1.3-1.6-1.7-1.6c-0.3,0-2.3-0.4-7.9-0.4c-5.6,0-7.6,0.4-7.9,0.4
			c-0.3,0-0.6,0.1-1.7,1.6c-1.3,1.9-1.9,3.7-2,4.1c-0.1,0.4-0.4,0.7-0.4,0.7l-0.5-0.5c0.1-0.3,0.1-0.7,0.1-1.3
			c-0.1-0.6-1.5-0.3-2.1-0.2c-0.5,0.1-0.9,0.4-0.9,1s0.7,0.7,1.5,0.9C557.7,206.2,557.9,206.9,557.9,206.9z M558.5,208.9
			c1.1,0.6,5.1,1.6,5.3,1.7c0.2,0.1,0.3,0.2,0.1,0.3c-0.2,0.2-1.2,0.9-1.2,0.9c-4.2-0.3-4.6-0.9-4.6-0.9
			C557.6,209.5,558.5,208.9,558.5,208.9z"/>
		<path fill="#2E95CC" d="M573.1,217.2l1.3,2.5c1.5,1.9,3.7,3,6.2,3c1.3,0,2.5-0.3,3.6-0.9c1.9-1,3.2-2.6,3.8-4.6s0.4-4.1-0.6-6
			c-1.4-2.6-4-4.2-6.9-4.2c-1.3,0-2.5,0.3-3.6,0.9c-1.9,1-3.2,2.6-3.8,4.6C572.6,214.1,572.6,215.7,573.1,217.2z M574.3,212.9
			c0.5-1.7,1.7-3.1,3.2-3.9c0.9-0.5,2-0.8,3.1-0.8c2.5,0,4.7,1.4,5.8,3.5c0.8,1.6,1,3.3,0.5,5s-1.7,3.1-3.2,3.9
			c-1,0.5-2,0.8-3.1,0.8c-2.5,0-4.7-1.4-5.8-3.5C573.9,216.4,573.7,214.6,574.3,212.9z"/>
		<path fill="#2E95CC" d="M575.4,212.9c0.4-0.5,1-0.9,1.6-1.2c2.7-1.4,6-0.4,7.5,2.3c0.8,1.5,0.8,3.1,0.3,4.6
			c1.5-1.7,1.9-4.1,0.8-6.2c-1.4-2.7-4.8-3.7-7.5-2.3C576.8,210.6,575.9,211.7,575.4,212.9z"/>
		<path fill="#2E95CC" d="M561.9,222.8c0,0.1,0,0.2,0,0.3l1.4,2.6c0.1,0.1,0.2,0.2,0.4,0.2c0.1,0,0.1,0,0.2-0.1l9.8-5.2
			c0.2-0.1,0.3-0.4,0.2-0.6l-1.3-2.6c-0.1-0.1-0.2-0.2-0.3-0.2s-0.2,0-0.3,0l-9.8,5.2C562,222.6,561.9,222.6,561.9,222.8z"/>
	</g>
</g>
<path id="path4552_20_" fill="#24A3DD" d="M516,187.6c-13.8,0-25,11.2-25,25s11.2,25,25,25s25-11.2,25-25S529.8,187.6,516,187.6
	 M516,236.7c-13.3,0-24.1-10.8-24.1-24.1s10.8-24.1,24.1-24.1c13.3,0,24.1,10.8,24.1,24.1S529.3,236.7,516,236.7"/>
<g>
	<path fill="#2E95CC" d="M527.3,223.6c0.5-0.5,0.7-1.1,0.7-1.8s-0.3-1.3-0.7-1.8l-12.4-12.5l0.1-0.3c0.9-2.5,0.3-5.2-1.6-7.1
		c-1.3-1.3-3-2-4.8-2c-0.5,0-0.9,0-1.4,0.1l4.1,4.1v3.1l-2.2,2.2H506l-4.1-4.1c-0.5,2.2,0.2,4.5,1.8,6.2c1.3,1.3,3,2,4.8,2
		c0.8,0,1.6-0.1,2.3-0.4l0.4-0.1l12.4,12.4c0.5,0.5,1.1,0.7,1.8,0.7C526.2,224.3,526.9,224.1,527.3,223.6z"/>
</g>
<polygon fill="#2E95CC" points="519.2,221.1 510.4,212.3 505.1,212.3 502.5,214.8 513.6,226.5 "/>
<polygon fill="#2E95CC" points="516.7,207.4 525,215.6 527.6,213.2 529.8,205.5 524.3,199.6 516.4,201.6 "/>
<circle fill="#FFFFFF" cx="524.8" cy="204.3" r="1.2"/>
<g>
	<circle fill="#2E95CC" cx="1152" cy="10.7" r="25"/>
	<g>
		<path fill="#FFFFFF" d="M1152.7,1.3v19.4l0,0c0,0,2.3-2.5,5.6-2.9c0.5-0.1,1.1-0.1,1.6-0.1c2.8,0,4.9,0.8,4.9,0.8
			c0.3,0.1,0.7,0.1,0.9-0.1c0.3-0.2,0.4-0.5,0.4-0.8V1c0-0.4-0.3-0.8-0.7-1c-0.1,0-2.5-0.9-5.6-0.9c-0.6,0-1.2,0-1.8,0.1
			C1155.8-0.7,1153.9,0.4,1152.7,1.3L1152.7,1.3z"/>
		<path fill="#FFFFFF" d="M1137.7,0.8v16.7c0,0.3,0.2,0.6,0.4,0.8c0.3,0.2,0.6,0.2,0.9,0.1c0,0,2.1-0.8,4.9-0.8c0.5,0,1.1,0,1.6,0.1
			c3.4,0.4,5.6,2.9,5.6,2.9l0,0V1.2c-1.2-0.9-3-2-5.4-2.2c-0.6-0.1-1.2-0.1-1.8-0.1c-3.1,0-5.5,0.9-5.6,0.9
			C1138,0,1137.7,0.4,1137.7,0.8z"/>
	</g>
</g>
<g>
	<g>
		<path fill="#656666" d="M1217.1-13.3c13.2,0,24,10.8,24,24s-10.8,24-24,24s-24-10.8-24-24S1203.8-13.3,1217.1-13.3 M1217.1-14.3
			c-13.8,0-25,11.2-25,25s11.2,25,25,25s25-11.2,25-25S1230.9-14.3,1217.1-14.3L1217.1-14.3z"/>
	</g>
	<g>
		<path fill="#656666" d="M1216.3,2.3c-1.2-0.9-3-2-5.4-2.2c-0.6-0.1-1.2-0.1-1.8-0.1c-3.1,0-5.5,0.9-5.6,0.9
			c-0.4,0.1-0.7,0.5-0.7,1v16.6c0,0.3,0.2,0.6,0.4,0.8c0.3,0.2,0.6,0.2,0.9,0.1c0,0,2.1-0.8,4.9-0.8c0.5,0,1.1,0,1.6,0.1
			c3.4,0.4,5.6,2.9,5.6,2.9l0,0L1216.3,2.3L1216.3,2.3L1216.3,2.3z"/>
		<path fill="#656666" d="M1230.7,0.9c-0.1,0-2.5-0.9-5.6-0.9c-0.6,0-1.2,0-1.8,0.1c-2.3,0.3-4.2,1.3-5.4,2.2v19.4l0,0
			c0,0,2.2-2.5,5.6-2.9c0.5-0.1,1.1-0.1,1.6-0.1c2.7,0,4.9,0.8,4.9,0.8c0.3,0.1,0.7,0.1,0.9-0.1s0.4-0.5,0.4-0.8V2
			C1231.3,1.4,1231.1,1,1230.7,0.9z"/>
	</g>
</g>
<g>
	<circle fill="#2E95CC" cx="1279.6" cy="9.8" r="25"/>
	<g>
		<path fill="#FFFFFF" d="M1280.6,0.7c0,0,0.1,0,0.1-0.1h6.4l-4.2,7c-0.2,0.4-0.1,0.9,0.3,1.1c0.4,0.2,0.9,0.1,1.1-0.3l4.2-7l4.2,7
			c0.1,0.2,0.4,0.4,0.7,0.4c0.1,0,0.3,0,0.4-0.1c0.4-0.2,0.5-0.7,0.3-1.1l-4.8-8.1l0,0v-0.1l0,0c-0.1-0.1-0.1-0.2-0.3-0.3l0,0
			c-0.1-0.1-0.2-0.1-0.4-0.1h-6.9c0-0.1,0-0.1,0-0.1c0-1.1-0.9-2.1-2.1-2.1c-1.1,0-2.1,0.9-2.1,2.1c0,0.1,0,0.1,0,0.1h-6.9
			c-0.1,0-0.3,0-0.4,0.1l0,0c-0.1,0.1-0.2,0.1-0.3,0.3l0,0v0.1l0,0l-4.8,8.1c-0.2,0.4-0.1,0.9,0.3,1.1s0.9,0.1,1.1-0.3l4.2-7l4.2,7
			c0.1,0.2,0.4,0.4,0.7,0.4c0.1,0,0.3,0,0.4-0.1c0.4-0.2,0.5-0.7,0.3-1.1l-4.2-7h6.4c0,0,0.1,0,0.1,0.1v18.5
			c-3.3,0.2-6.4,1.1-9.1,2.6v1h20.2v-1c-2.7-1.5-5.8-2.4-9.1-2.6L1280.6,0.7L1280.6,0.7L1280.6,0.7z"/>
		<path fill="#FFFFFF" d="M1276.8,10.2c0-0.3-0.2-0.5-0.5-0.5h-11.2c-0.3,0-0.5,0.2-0.5,0.5c0,3.4,2.7,6.1,6.1,6.1
			C1274,16.3,1276.8,13.5,1276.8,10.2z"/>
		<path fill="#FFFFFF" d="M1294.1,9.7H1283c-0.3,0-0.5,0.2-0.5,0.5c0,3.4,2.7,6.1,6.1,6.1s6.1-2.7,6.1-6.1
			C1294.6,9.9,1294.4,9.7,1294.1,9.7z"/>
	</g>
</g>
<g>
	<g>
		<path fill="#656666" d="M1343.7-13.2c13.2,0,24,10.8,24,24s-10.8,24-24,24s-24-10.8-24-24S1330.5-13.2,1343.7-13.2 M1343.7-14.2
			c-13.8,0-25,11.2-25,25s11.2,25,25,25s25-11.2,25-25C1368.8-3,1357.6-14.2,1343.7-14.2L1343.7-14.2z"/>
	</g>
	<g>
		<path fill="#656666" d="M1344.8,1.7c0,0,0.1,0,0.1-0.1h6.4l-4.2,7c-0.2,0.4-0.1,0.9,0.3,1.1c0.4,0.2,0.9,0.1,1.1-0.3l4.2-7l4.2,7
			c0.1,0.2,0.4,0.4,0.7,0.4c0.1,0,0.3,0,0.4-0.1c0.4-0.2,0.5-0.7,0.3-1.1l-4.8-8.1l0,0V0.4l0,0c-0.1-0.1-0.2-0.2-0.3-0.3l0,0
			c-0.1-0.1-0.2-0.1-0.4-0.1h-6.9v-0.1c0-1.1-0.9-2.1-2.1-2.1c-1.1,0-2.1,0.9-2.1,2.1c0,0.1,0,0.1,0,0.1h-6.9c-0.1,0-0.3,0-0.4,0.1
			l0,0c-0.1,0.1-0.2,0.1-0.3,0.3l0,0v0.1l0,0l-4.8,8.1c-0.2,0.4-0.1,0.9,0.3,1.1s0.9,0.1,1.1-0.3l4.2-7l4.2,7
			c0.1,0.2,0.4,0.4,0.7,0.4c0.1,0,0.3,0,0.4-0.1c0.4-0.2,0.5-0.7,0.3-1.1l-4.2-7h6.4c0,0,0.1,0,0.1,0.1v18.5
			c-3.3,0.2-6.4,1.1-9.1,2.6v1h20.2v-1c-2.7-1.5-5.8-2.4-9.1-2.6L1344.8,1.7L1344.8,1.7L1344.8,1.7z"/>
		<path fill="#656666" d="M1340.9,11.2c0-0.3-0.2-0.5-0.5-0.5h-11.2c-0.3,0-0.5,0.2-0.5,0.5c0,3.4,2.7,6.1,6.1,6.1
			C1338.2,17.3,1340.9,14.6,1340.9,11.2z"/>
		<path fill="#656666" d="M1358.3,10.7h-11.2c-0.3,0-0.5,0.2-0.5,0.5c0,3.4,2.7,6.1,6.1,6.1s6.1-2.7,6.1-6.1
			C1358.8,10.9,1358.5,10.7,1358.3,10.7z"/>
	</g>
</g>
<circle fill="#FFFFFF" stroke="#24A3DD" stroke-miterlimit="10" cx="620.3" cy="197.6" r="9.9"/>
<circle fill="#FFFFFF" stroke="#B3B3B3" stroke-miterlimit="10" cx="642.5" cy="197.6" r="9.9"/>
<circle fill="#2E97D0" cx="620.4" cy="193.9" r="0.9"/>
<line fill="none" stroke="#24A3DD" stroke-miterlimit="10" x1="620.3" y1="195.5" x2="620.3" y2="202.1"/>
<circle fill="#B3B3B3" cx="642.4" cy="193.9" r="0.9"/>
<line fill="none" stroke="#B3B3B3" stroke-miterlimit="10" x1="642.4" y1="195.5" x2="642.4" y2="202.1"/>
<g id="Layer_1_2_" inkscape:version="0.48.5 r10040" sodipodi:docname="icons.svg" xmlns:dc="http://purl.org/dc/elements/1.1/" xmlns:cc="http://creativecommons.org/ns#" xmlns:rdf="http://www.w3.org/1999/02/22-rdf-syntax-ns#" xmlns:svg="http://www.w3.org/2000/svg" xmlns:sodipodi="http://sodipodi.sourceforge.net/DTD/sodipodi-0.dtd" xmlns:inkscape="http://www.inkscape.org/namespaces/inkscape">
	<g>
		<polygon id="SVGID_1_" fill="#2E95CC" points="772.9,-177.6 774.6,-175.9 766,-167.4 757.5,-175.9 759.1,-177.6 766,-170.7 		"/>
	</g>
</g>
<g enable-background="new    ">
	<g>
		<g>
			<g>
				<g>
					<g>
						<defs>
							<path id="SVGID_7_" d="M715.7,201.4L715.7,201.4l-4.5-3.9v2.3c0,0.8-0.8,1.6-1.5,1.6h-0.8h-8.3h-0.8c-0.8,0-1.5-0.8-1.5-1.6
								V199v-9.3v-0.8c0-0.8,0.8-1.6,1.5-1.6h0.8h8.3h0.8c0.8,0,1.5,0.8,1.5,1.6v3.1l4.5-4.7c0,0,0.8,0.8,0.8,1.6v11.7L715.7,201.4z
								"/>
						</defs>
						<clipPath id="SVGID_8_">
							<use xlink:href="#SVGID_7_"  overflow="visible"/>
						</clipPath>
						<g clip-path="url(#SVGID_8_)">
							<rect x="693.4" y="182.5" fill="#2D96CD" width="28" height="24"/>
						</g>
					</g>
				</g>
			</g>
		</g>
	</g>
</g>
<g enable-background="new    ">
	<g>
		<g>
			<g>
				<g>
					<g>
						<defs>
							<path id="SVGID_9_" d="M675.4,195.4c0.1-0.2,0.4-0.2,0.6-0.1l2.2,1.4c0.2,0.1,0.4,0.1,0.6-0.1l2.7-3.5c0.1-0.2,0.3-0.2,0.4,0
								l3.3,6.7c0.1,0.2,0,0.4-0.2,0.4h-12.9c-0.2,0-0.3-0.1-0.1-0.3L675.4,195.4z M675.3,191.7c0,0.7-0.5,1.3-1.2,1.3
								c-0.6,0-1.2-0.6-1.2-1.3s0.5-1.3,1.2-1.3S675.3,190.9,675.3,191.7z M686.3,201.2H671v-12.1h15.3V201.2z M686.6,187.4h-16.1
								c-0.5,0-1,0.5-1,1v12.8c0,0.6,0.4,1,1,1h16.1c0.5,0,1-0.5,1-1v-12.7C687.6,187.9,687.2,187.4,686.6,187.4z"/>
						</defs>
						<clipPath id="SVGID_10_">
							<use xlink:href="#SVGID_9_"  overflow="visible"/>
						</clipPath>
						<g clip-path="url(#SVGID_10_)">
							<rect x="664.6" y="182.4" fill="#2D96CD" width="28" height="24.9"/>
						</g>
					</g>
				</g>
			</g>
		</g>
	</g>
</g>
<g enable-background="new    ">
	<g>
		<g>
			<g>
				<g>
					<defs>
						<rect id="SVGID_11_" x="725.1" y="187.2" width="25" height="22"/>
					</defs>
					<clipPath id="SVGID_12_">
						<use xlink:href="#SVGID_11_"  overflow="visible"/>
					</clipPath>
					
						<line clip-path="url(#SVGID_12_)" fill="none" stroke="#979797" stroke-linecap="square" stroke-miterlimit="10" x1="727.1" y1="187.3" x2="749.1" y2="209.3"/>
				</g>
				<g>
					<defs>
						<rect id="SVGID_13_" x="725.1" y="187.2" width="25" height="22"/>
					</defs>
					<clipPath id="SVGID_14_">
						<use xlink:href="#SVGID_13_"  overflow="visible"/>
					</clipPath>
					
						<line clip-path="url(#SVGID_14_)" fill="none" stroke="#979797" stroke-linecap="square" stroke-miterlimit="10" x1="748.1" y1="187.3" x2="726.1" y2="209.3"/>
				</g>
			</g>
		</g>
	</g>
</g>
<g>
	<circle fill="none" stroke="#24A3DD" stroke-width="2" stroke-miterlimit="10" cx="778.7" cy="200.6" r="13"/>
</g>
<g>
	<g>
		<path fill="#24A3DD" d="M777.1,196.6l5.4,4.1l-5.4,4.2v-4.2V196.6 M775.6,193.6v2.2v5v5.1v2.1l9.4-7.2L775.6,193.6L775.6,193.6z"
			/>
	</g>
</g>
</svg>
