<?xml version="1.0" standalone="no"?>
<!DOCTYPE svg PUBLIC "-//W3C//DTD SVG 1.1//EN" "http://www.w3.org/Graphics/SVG/1.1/DTD/svg11.dtd" >
<svg xmlns="http://www.w3.org/2000/svg">
<metadata></metadata>
<defs>
<font id="superstore.lightitalicregular" horiz-adv-x="845" >
<font-face units-per-em="2048" ascent="1638" descent="-410" />
<missing-glyph horiz-adv-x="378" />
<glyph unicode="&#x3b;&#x3b;For&#x20;Education&#x20;Used&#x20;Only&#x3b;&#x3b;" horiz-adv-x="1269" d="M203 512q18 109 75.5 204t141.5 165.5t186 111.5t211 41t196 -41t145.5 -111.5t83 -165.5t5.5 -204q-18 -109 -76.5 -204t-141.5 -165.5t-185.5 -111.5t-210.5 -41q-109 0 -197 41t-146.5 111.5t-82 165.5t-4.5 204zM270 512q-16 -94 4.5 -177t70.5 -144.5t127 -97.5 t171 -36t183 36t162 97.5t124 144.5t68 177q16 94 -5.5 177t-71.5 144.5t-127 97.5t-171 36t-183.5 -36t-162 -97.5t-122.5 -144.5t-67 -177zM436.5 314.5q-12.5 50.5 1.5 129.5l23 127q14 80 45 130.5t74 79t95 39.5t109 11q45 0 96.5 -5t116.5 -35l-36 -62 q-47 29 -98.5 33t-74.5 4q-37 0 -77.5 -7t-77.5 -27.5t-64.5 -58.5t-38.5 -102l-22 -127q-12 -63 2 -101t44 -59.5t69 -28.5t75 -7q20 0 74.5 4t110.5 33l14 -60q-76 -31 -129 -36t-98 -5q-57 0 -106.5 10.5t-82 40t-45 80z" />
<glyph unicode="&#x3b;&#x3b;Registered&#x3b;&#x3b;" horiz-adv-x="1269" d="M203 512q18 109 75.5 204t141.5 165.5t186 111.5t211 41t196 -41t145.5 -111.5t83 -165.5t5.5 -204q-18 -109 -76.5 -204t-141.5 -165.5t-185.5 -111.5t-210.5 -41q-109 0 -197 41t-146.5 111.5t-82 165.5t-4.5 204zM270 512q-16 -94 4.5 -177t70.5 -144.5t127 -97.5 t171 -36t183 36t162 97.5t124 144.5t68 177q16 94 -5.5 177t-71.5 144.5t-127 97.5t-171 36t-183.5 -36t-162 -97.5t-122.5 -144.5t-67 -177zM463 219l106 598h305q74 0 105 -51t14 -141q-12 -76 -58 -126t-99 -69q16 -53 28.5 -105.5t22.5 -105.5h-66l-51 211h-199 l-39 -211h-69zM582 496h215q59 0 87.5 35.5t39.5 93.5q10 55 -6.5 91t-75.5 36h-215z" />
<glyph unicode="&#x3b;&#x3b;Multiply&#x3b;&#x3b;" horiz-adv-x="790" d="M133 158l277 235l-193 236l59 51l195 -236l277 236l43 -51l-279 -236l193 -233l-60 -51l-192 233l-277 -236z" />
<glyph unicode="&#x3b;&#x3b;Divide&#x3b;&#x3b;" horiz-adv-x="964" d="M174 356l12 72h740l-13 -72h-739zM451 147q4 23 22.5 38.5t40.5 15.5q23 0 35 -15.5t8 -38.5t-21.5 -38t-39.5 -15q-23 0 -36 15t-9 38zM539 643q4 23 21.5 38t39.5 15q23 0 36 -15t9 -38t-22.5 -38t-40.5 -15q-23 0 -35 15t-8 38z" />
<glyph unicode="&#x2018;&#x2018;" horiz-adv-x="534" d="M274 928l123 174h54l-93 -174h-84zM438 928l123 174h53l-92 -174h-84z" />
<glyph unicode="&#x2019;&#x2019;" horiz-adv-x="534" d="M274 928l93 174h84l-123 -174h-54zM438 928l92 174h84l-122 -174h-54z" />
<glyph unicode="&#x3b;&#x3b;Trademark&#x3b;&#x3b;" horiz-adv-x="1325" d="M281 963l12 61h457l-13 -61h-196l-101 -574h-65l100 574h-194zM709 389l112 635h117l68 -565l270 565h117l-113 -635h-66l103 580l-277 -580h-90l-73 580l-103 -580h-65z" />
<glyph horiz-adv-x="0" />
<glyph unicode="&#xd;" horiz-adv-x="579" />
<glyph unicode=" "  horiz-adv-x="378" />
<glyph unicode="&#x09;" horiz-adv-x="378" />
<glyph unicode="&#xa0;" horiz-adv-x="378" />
<glyph unicode="!" horiz-adv-x="313" d="M109 43q4 23 22.5 38t40.5 15q23 0 35 -15t8 -38t-21.5 -38t-39.5 -15q-23 0 -36 15t-9 38zM152 176q20 117 38.5 222.5t36 207t33.5 203.5t35 215h84q-23 -117 -42.5 -220.5t-37.5 -204.5t-37.5 -204.5t-40.5 -218.5h-69z" />
<glyph unicode="&#x22;" horiz-adv-x="448" d="M293 928l12 174h78q-14 -47 -25.5 -88t-23.5 -86h-41zM440 928l9 174h79q-14 -47 -25 -88t-24 -86h-39z" />
<glyph unicode="#" horiz-adv-x="1267" d="M143 0l142 279h-125l14 71h148l170 330h-138l13 72h161q35 66 71 136t71 136h71l-139 -272h461l139 272h76l-141 -272h149l-12 -72h-176l-168 -330h164l-15 -71h-188l-143 -279h-72l141 279h-459l-143 -279h-72zM395 350h461l168 330h-459z" />
<glyph unicode="$" horiz-adv-x="937" d="M135 78l51 61q57 -41 122 -57t132 -21l76 428q-59 18 -113.5 41t-95.5 53.5t-61.5 71.5t-9.5 97q25 139 119 209.5t253 70.5h2l21 113h71l-20 -113q66 -4 127 -12t106 -27l-38 -67q-43 16 -98.5 23t-108.5 9l-74 -413q57 -20 111.5 -43t94.5 -53.5t60 -71.5t10 -98 q-14 -82 -51 -136.5t-87 -88.5t-111.5 -48t-122.5 -16l-19 -105h-71l18 105q-84 2 -152.5 20.5t-140.5 67.5zM307 752q-6 -37 10.5 -63.5t47 -48.5t73.5 -39t90 -34l70 394h-4q-49 0 -96 -9.5t-85 -33t-66 -63.5t-40 -103zM512 61q117 4 192.5 52.5t96.5 165.5 q6 37 -8.5 64.5t-45 50t-73.5 40t-90 33.5z" />
<glyph unicode="%" horiz-adv-x="1114" d="M141 0h80l934 1024h-80zM236 707l30 176q14 78 70.5 115.5t142.5 37.5t128 -37.5t28 -115.5l-31 -176q-16 -86 -69.5 -120t-141.5 -34t-131 34t-26 120zM303 677.5q-2 -15.5 6 -28t29.5 -20.5t67.5 -8q45 0 69.5 8t36.5 20.5t15 27.5t5 30l31 176q2 10 4 25.5t-5 28.5 t-28.5 23.5t-66.5 10.5t-69.5 -10.5t-37 -23.5t-16.5 -28.5t-6 -25.5l-31 -176q-2 -14 -4 -29.5zM662 154l30 176q14 78 69.5 115.5t141.5 37.5t129 -37.5t29 -115.5l-31 -176q-16 -86 -69.5 -120t-141.5 -34t-131 34t-26 120zM729 124.5q-2 -15.5 5 -28t28.5 -20.5t66.5 -8 t70 8t37 20.5t16 27.5t6 30l31 176q2 10 3 25.5t-6 28.5t-28.5 23.5t-66.5 10.5t-69.5 -10.5t-37 -23.5t-15.5 -28.5t-5 -25.5l-31 -176q-2 -14 -4 -29.5z" />
<glyph unicode="&#x26;" horiz-adv-x="1044" d="M162 287q16 88 99 144t192 95q-37 57 -46.5 121t3.5 135q10 61 27.5 107.5t50 79t86 49t133.5 16.5t126 -16.5t67.5 -49t21.5 -78.5t-11 -108q-12 -66 -47 -110.5t-85 -76.5t-111.5 -55.5t-124.5 -45.5q20 -31 41.5 -59.5t52.5 -67.5t75 -92.5t111 -133.5q49 59 85 125 t55 144h71q-23 -100 -67.5 -176t-102.5 -136l84 -98h-82l-57 57q-88 -49 -157.5 -58t-129.5 -9q-86 0 -160.5 5t-126 32.5t-71.5 88t-2 171.5zM232.5 152.5q15.5 -46.5 55.5 -66.5t102 -22.5t142 -2.5q14 0 27.5 -1t28.5 -1q35 0 73.5 7.5t100.5 35.5q-63 74 -108.5 126.5 t-78 94.5t-56 75.5t-46.5 68.5q-96 -35 -162.5 -78t-77.5 -102q-16 -88 -0.5 -134.5zM481 782q-10 -59 0.5 -114.5t36.5 -118.5q59 20 113.5 40.5t97.5 46.5t71.5 61.5t39.5 84.5q8 49 11 83t-11.5 55.5t-49 32t-100.5 10.5q-68 0 -105.5 -10.5t-57 -32t-29 -55.5t-17.5 -83 z" />
<glyph unicode="'" horiz-adv-x="303" d="M293 928l12 174h78q-14 -47 -25.5 -88t-23.5 -86h-41z" />
<glyph unicode="(" horiz-adv-x="399" d="M174 211q2 84 10.5 166t20.5 147q10 61 30.5 138t48 160t60.5 163t70 148h71q-35 -70 -68.5 -151t-61 -163t-48 -160.5t-33.5 -142.5q-10 -61 -16 -140t-7 -163t2 -168t11 -154h-69q-12 70 -17.5 153t-3.5 167z" />
<glyph unicode=")" horiz-adv-x="399" d="M94 -109q33 70 66 154t61.5 168t51 163t32.5 140q12 63 18.5 142t7.5 161t-4 163t-16 151h72q12 -68 17.5 -148t4 -163t-8.5 -159.5t-17 -138.5q-12 -66 -33.5 -147.5t-49.5 -165.5t-61.5 -167t-70.5 -153h-70z" />
<glyph unicode="*" horiz-adv-x="749" d="M262 852l31 84l215 -64l12 230h94l-65 -230l235 64l2 -84l-237 -23l129 -178l-82 -47l-82 193l-147 -193l-66 47l191 178z" />
<glyph unicode="+" horiz-adv-x="966" d="M174 356l12 72h336l60 330h71l-59 -330h334l-13 -72h-333l-60 -333h-71l59 333h-336z" />
<glyph unicode="," horiz-adv-x="292" d="M94 -94l39 213h68l-33 -185z" />
<glyph unicode="-" horiz-adv-x="823" d="M174 356l12 72h598l-12 -72h-598z" />
<glyph unicode="." horiz-adv-x="331" d="M119 43q4 23 22.5 38t40.5 15q23 0 35 -15t8 -38t-21.5 -38t-39.5 -15q-23 0 -36 15t-9 38z" />
<glyph unicode="/" horiz-adv-x="708" d="M61 0l713 1133h72l-713 -1133h-72z" />
<glyph unicode="0" horiz-adv-x="929" d="M156 311l80 451q27 147 124 209.5t287 62.5q193 0 266.5 -62.5t47.5 -209.5l-80 -451q-16 -88 -47 -149.5t-81.5 -99t-122 -55t-167.5 -17.5q-193 0 -265.5 72.5t-41.5 248.5zM227.5 177q14.5 -52 50 -77.5t87 -32t110.5 -6.5q57 0 111.5 6.5t98.5 32t77 77.5t49 142 l78 437q12 76 -4.5 117.5t-53 62t-89 24t-109.5 3.5t-110.5 -3.5t-96.5 -24t-75 -62.5t-44 -117l-78 -437q-16 -90 -1.5 -142z" />
<glyph unicode="1" horiz-adv-x="550" d="M240 895l305 129h73l-180 -1024h-71l165 952l-276 -118z" />
<glyph unicode="2" horiz-adv-x="847" d="M94 0l12 72q12 76 65.5 141.5t126.5 121.5t155 107.5t153.5 100.5t121.5 96t58 98l15 86q8 51 -5.5 79t-43 41t-69.5 16.5t-85 3.5h-41q-43 0 -84 -3.5t-74.5 -15.5t-57.5 -38.5t-32 -76.5h-71q10 55 33.5 94.5t64.5 64t103.5 35.5t152.5 11q178 0 239.5 -49t40.5 -162 l-14 -86q-12 -66 -63.5 -122t-123 -108t-153.5 -101.5t-153.5 -101.5t-123 -108.5t-63.5 -123.5h580l-13 -72h-651z" />
<glyph unicode="3" horiz-adv-x="831" d="M120 128q-7 44 1 99h72q-6 -51 9 -82.5t46 -50t72.5 -26t89.5 -7.5q49 0 95 8.5t84 28t63.5 54t35.5 90.5l17 84q8 51 -6.5 81.5t-43 46t-70.5 19.5t-87 4h-95l13 72h94q94 0 171 43t95 145l15 86q10 53 -6.5 82t-48 41t-77 14.5t-92.5 2.5t-91 -1t-80 -13.5t-61.5 -40 t-35.5 -79.5h-72q10 55 34 94.5t65 64t103.5 35.5t152.5 11q178 0 239.5 -49t40.5 -162l-14 -86q-10 -66 -41 -120t-98 -99q55 -39 66 -86t1 -106l-16 -84q-12 -66 -36 -113t-67 -78t-106.5 -46t-153.5 -15q-94 0 -152.5 16.5t-88 47t-36.5 74.5z" />
<glyph unicode="4" horiz-adv-x="862" d="M80 283l12 71l631 670h108l-118 -670h149l-12 -71h-150l-49 -283h-71l49 283h-549zM178 354h463l104 598z" />
<glyph unicode="5" horiz-adv-x="851" d="M137 205h74q-2 -45 16.5 -74t49 -44t70.5 -20.5t83 -5.5q49 0 95 8.5t84 28t63.5 54t36.5 90.5l34 188q8 53 -6 85t-46 48.5t-76 20.5t-93 4q-43 0 -85 -3t-76.5 -15.5t-61.5 -37t-41 -65.5h-74l99 557h608l-14 -72h-537l-61 -352q78 41 137 50t119 9q145 0 223 -56 t57 -173l-35 -188q-23 -131 -108.5 -191.5t-253.5 -60.5q-86 0 -142.5 13t-89 41t-44 68t-5.5 93z" />
<glyph unicode="6" horiz-adv-x="821" d="M133 242l27 143q6 45 22 74q31 55 62.5 111.5t68.5 123t83 147.5t106 183h71l-247 -446q61 29 111 31.5t79 2.5q145 0 223 -56t58 -171l-27 -143q-23 -131 -119 -191.5t-243 -60.5q-160 0 -227.5 66.5t-47.5 185.5zM205 242q-10 -55 4 -90t45 -54.5t74 -28t92 -8.5 t95 8.5t84 28t63.5 54t35.5 90.5l27 143q8 53 -6 84t-46 47t-76 20.5t-93 4.5q-47 0 -92 -4.5t-82 -20.5t-63.5 -47t-35.5 -84z" />
<glyph unicode="7" horiz-adv-x="706" d="M197 0l522 952h-522l14 72h594l-14 -72l-515 -952h-79z" />
<glyph unicode="8" horiz-adv-x="862" d="M149.5 135q-6.5 47 4.5 107l16 84q10 59 41 110t92 80q-53 37 -62.5 98.5t1.5 122.5l14 86q20 115 102 163t254 48t236.5 -49t44.5 -162l-14 -86q-12 -66 -46 -125t-100 -94q55 -29 69.5 -81t4.5 -111l-16 -84q-23 -131 -106 -191.5t-257 -60.5q-94 0 -152.5 17.5t-89 49 t-37 78.5zM225 242q-10 -55 4.5 -90t45 -54.5t73.5 -28t92 -8.5t95.5 8.5t84 28t63.5 54t36 90.5l16 84q8 51 -5 80.5t-43 45t-72 19.5t-87 4h-16q-47 0 -92 -3t-82 -17.5t-62.5 -44t-33.5 -84.5zM313 737q-10 -53 4.5 -90t45 -59.5t72.5 -31.5t91 -9t95.5 9t85 31.5 t64.5 59.5t36 90l14 86q10 53 -5 82t-48 41t-77 14.5t-93 2.5q-47 0 -92 -2.5t-81 -14.5t-61.5 -40.5t-35.5 -82.5z" />
<glyph unicode="9" horiz-adv-x="780" d="M162 629l24 143q23 131 120 191.5t245 60.5q160 0 227.5 -66.5t44.5 -185.5l-24 -143q-10 -47 -25 -74q-31 -55 -61.5 -111.5t-68.5 -123t-84 -147.5t-103 -183h-72l246 446q-61 -29 -111.5 -32t-79.5 -3q-145 0 -222 56.5t-56 171.5zM233 629q-10 -53 5.5 -84t46 -47.5 t74.5 -20.5t94 -4q47 0 92 4t82 20.5t63.5 47t36.5 84.5l25 143q8 55 -5.5 90t-44 54.5t-73.5 27.5t-92 8t-95.5 -8t-84.5 -27.5t-64.5 -54.5t-34.5 -90z" />
<glyph unicode=":" horiz-adv-x="331" d="M119 43q4 23 22.5 38t40.5 15q23 0 35 -15t8 -38t-21.5 -38t-39.5 -15q-23 0 -36 15t-9 38zM233 694q4 23 22.5 38.5t41.5 15.5t35 -15.5t8 -38.5t-21.5 -38t-39.5 -15q-23 0 -36.5 15t-9.5 38z" />
<glyph unicode=";" horiz-adv-x="331" d="M109 -94l38 213h68l-33 -185zM233 694q4 23 22.5 38.5t41.5 15.5t35 -15.5t8 -38.5t-21.5 -38t-39.5 -15q-23 0 -36.5 15t-9.5 38z" />
<glyph unicode="&#x3c;" horiz-adv-x="874" d="M168 324l16 90l705 309l-12 -72l-637 -280q147 -78 286.5 -152t249.5 -133l-12 -72z" />
<glyph unicode="=" horiz-adv-x="825" d="M150 205l12 71h598l-12 -71h-598zM199 483l12 72h598l-12 -72h-598z" />
<glyph unicode="&#x3e;" horiz-adv-x="874" d="M115 14l12 72q133 59 297 133t338 152l-535 280l13 72l594 -309l-17 -90z" />
<glyph unicode="?" horiz-adv-x="727" d="M258 43q4 23 22.5 38t41.5 15t35 -15t8 -38t-21.5 -38t-40.5 -15t-36 15t-9 38zM289 1004q47 20 104.5 25t118.5 5q152 0 208 -54t38 -163q-8 -51 -34 -87t-59.5 -63.5t-72.5 -49t-74 -47t-62.5 -57.5t-39.5 -77l-43 -246h-72l43 246q10 55 37 92t62.5 65t74.5 50.5 t74 47t60.5 54t33.5 72.5t-5 72t-41 45t-65.5 22.5t-78.5 6.5q-47 0 -99.5 -2.5t-97.5 -18.5z" />
<glyph unicode="@" horiz-adv-x="1093" d="M140 149.5q5 45.5 16 98.5l90 514q14 84 51 137t94.5 83t132 41t166.5 11h78q92 0 162.5 -11t117 -41t63.5 -83t3 -137l-133 -762h-72l15 86q-27 -37 -73 -56.5t-92 -28.5t-83 -10t-43 -1q-154 0 -210 70.5t-34 189.5l33 190q20 115 113.5 168.5t236.5 53.5q6 0 36 -1.5 t67.5 -7.5t76.5 -18t62 -37l28 164q14 76 -8 117t-65 59t-100.5 21.5t-114.5 3.5h-78q-57 0 -114.5 -3.5t-108 -21.5t-86 -59t-50.5 -117l-90 -514q-6 -39 -10 -72t1 -55.5t23.5 -35.5t55.5 -13h25l-13 -72h-24q-66 0 -96.5 18.5t-42 52t-6.5 79zM461 250 q-18 -102 36 -145.5t156 -43.5q57 0 108.5 14.5t91.5 37t64.5 51.5t30.5 57l47 273q-12 33 -36.5 51t-56.5 28.5t-68.5 13.5t-73.5 3q-47 0 -91 -4t-80 -20.5t-61.5 -47.5t-33.5 -84z" />
<glyph unicode="A" horiz-adv-x="978" d="M31 0l592 1024h94l231 -1024h-84l-59 279h-537l-153 -279h-84zM311 350h480l-136 602z" />
<glyph unicode="B" horiz-adv-x="952" d="M113 0l180 1024h508q125 0 166 -62q25 -38 25 -108q0 -46 -11 -106q-16 -86 -43 -139.5t-80 -98.5q35 -46 45 -98q4 -20 4 -45q0 -40 -10 -93q-27 -152 -89.5 -213t-186.5 -61h-508zM197 72h436q53 0 87 13t54.5 39t31.5 63.5t19 86.5q9 45 11 82v14q0 28 -8 50 q-10 26 -36 40.5t-73 14.5h-453zM281 549h436q53 0 87 13t54.5 39t31.5 62.5t19 84.5q9 48 11 86v14q0 29 -10 51q-12 27 -41 40t-83 13h-436z" />
<glyph unicode="C" horiz-adv-x="958" d="M172 401l39 222q25 135 79 216t125.5 125t154.5 57t163 13q72 0 151 -8t175 -47l-35 -64q-63 29 -136 38.5t-151 9.5q-55 0 -124.5 -5.5t-136 -37t-119 -100t-74.5 -195.5l-39 -224q-10 -56 -10 -101q0 -56 16 -94q29 -68 83 -101t122.5 -38.5t124.5 -5.5q78 0 152.5 9.5 t150.5 38.5l10 -64q-109 -41 -190.5 -48t-153.5 -7q-80 0 -158 13t-135 57t-83 125q-13 41 -13 97q0 53 12 119z" />
<glyph unicode="D" horiz-adv-x="985" d="M113 0l180 1024h321q90 0 169 -16.5t133 -62.5q52 -46 74 -126q10 -39 11 -88q0 -53 -12 -119l-35 -200q-23 -127 -73 -207t-118.5 -126t-153.5 -62.5t-175 -16.5h-321zM197 72h223q55 0 126.5 5t138.5 36.5t121 101.5t77 197l35 200q10 55 10 99q0 58 -17 98 q-30 70 -86.5 101.5t-126 36.5t-125.5 5h-223z" />
<glyph unicode="E" horiz-adv-x="860" d="M113 0l180 1024h655l-14 -72h-584l-69 -397h583l-12 -72h-584l-71 -411h583l-12 -72h-655z" />
<glyph unicode="F" horiz-adv-x="813" d="M113 0l180 1024h649l-14 -72h-578l-63 -360h508l-13 -72h-508l-90 -520h-71z" />
<glyph unicode="G" horiz-adv-x="987" d="M172 401l39 222q25 135 79 216t125.5 125t154.5 57t163 13q72 0 151 -8t175 -47l-35 -64q-63 29 -136 38.5t-151 9.5q-55 0 -124.5 -5.5t-136 -37t-118.5 -100t-75 -195.5l-39 -224q-10 -55 -10 -99q0 -58 17 -98q30 -69 85 -100.5t124.5 -37t125.5 -5.5q33 0 98.5 4.5 t155.5 26.5l63 359h-209l13 71h278l-84 -477q-113 -41 -198 -48t-156 -7q-80 0 -158 13t-134 57t-82 125q-13 41 -13 97q0 53 12 119z" />
<glyph unicode="H" horiz-adv-x="1001" d="M113 0l180 1024h72l-82 -465h632l82 465h72l-180 -1024h-72l84 487h-633l-84 -487h-71z" />
<glyph unicode="I" horiz-adv-x="296" d="M113 0l180 1024h72l-181 -1024h-71z" />
<glyph unicode="J" horiz-adv-x="710" d="M35 27l35 73q63 -27 121.5 -33t89.5 -6q45 0 93 4.5t91 28t75.5 73.5t49.5 144l127 713h71l-126 -713q-18 -104 -51 -167.5t-80.5 -97.5t-108 -45t-131.5 -11q-57 0 -116.5 4t-139.5 33z" />
<glyph unicode="K" horiz-adv-x="970" d="M113 0l180 1024h72l-89 -494l709 494h96l-356 -266l203 -758h-80l-189 719l-399 -279l-76 -440h-71z" />
<glyph unicode="L" horiz-adv-x="786" d="M113 0l180 1024h72l-168 -952h540l-12 -72h-612z" />
<glyph unicode="M" horiz-adv-x="1208" d="M113 0l180 1024h131l192 -952l529 952h131l-180 -1024h-72l170 965l-543 -965h-94l-203 965l-170 -965h-71z" />
<glyph unicode="N" horiz-adv-x="1044" d="M113 0l180 1024h119l458 -963l170 963h72l-180 -1024h-119l-461 963l-168 -963h-71z" />
<glyph unicode="O" horiz-adv-x="999" d="M156 311l80 449q27 150 144.5 212t301.5 62q92 0 162.5 -15t116 -48t63.5 -85q11 -31 10 -70q0 -26 -4 -56l-80 -449q-16 -88 -54 -149.5t-95.5 -99t-134 -55t-168.5 -17.5t-163 17.5t-116 55t-63 99.5q-9 31 -8 69q0 37 8 80zM231 330q-7 -39 -7 -72q0 -42 12 -72 q20 -54 61 -81t98.5 -35.5t114.5 -8.5t116.5 8.5t110.5 36t90 81t56 143.5l71 411q5 30 5 54q0 39 -13 67q-22 45 -65 66.5t-99.5 28t-113.5 6.5t-115.5 -6.5t-110 -28t-88.5 -66.5t-51 -121z" />
<glyph unicode="P" horiz-adv-x="886" d="M113 0l180 1024h475q127 0 163 -82q21 -47 20 -114q0 -50 -11 -111q-25 -145 -90.5 -232.5t-192.5 -87.5h-403l-70 -397h-71zM266 469h404q53 0 88 20.5t56.5 55.5t33.5 79t20 93q8 47 12 90q1 11 0 21q0 30 -8 54q-10 32 -37.5 51t-80.5 19h-404z" />
<glyph unicode="Q" horiz-adv-x="999" d="M156 311l80 449q27 150 144.5 212t301.5 62q92 0 162.5 -15t116 -48t63.5 -85q11 -31 11 -70q0 -26 -5 -56l-80 -449q-23 -129 -93.5 -200.5t-180.5 -100.5q29 -27 58.5 -43t57 -25.5t51 -13.5t40.5 -6l-15 -74q-20 0 -51 6.5t-65.5 21.5t-72.5 44t-71 76q-53 -6 -110 -6 q-92 0 -163 17.5t-116 55t-63 99.5q-8 31 -8 69q0 37 8 80zM231 330q-7 -39 -7 -72q0 -41 12 -72q20 -53 61 -80.5t98.5 -36t114.5 -8.5t116.5 8.5t110.5 36t90 81t56 143.5l71 411q5 30 5 54q0 39 -13 67q-22 45 -65 66.5t-99.5 28t-113.5 6.5t-115.5 -6.5t-110 -28 t-88.5 -66.5t-51 -121z" />
<glyph unicode="R" horiz-adv-x="876" d="M113 0l180 1024h473q129 0 167 -77q22 -44 21 -112q0 -52 -12 -118q-27 -145 -82 -214t-162 -95q29 -86 50.5 -148.5t37 -110t26.5 -82t24 -67.5h-78l-135 408h-367l-72 -408h-71zM268 479h402q55 0 90 19.5t56.5 51.5t33.5 75t20 92q8 47 12 90q1 10 0 19q0 32 -8 56 q-12 32 -39.5 51t-82.5 19h-402z" />
<glyph unicode="S" horiz-adv-x="884" d="M113 80l53 61q63 -47 139 -63.5t154 -16.5q129 0 214 47.5t107 172.5q2 11 2 21q0 43 -34 73q-42 37 -109.5 64.5t-147 52t-146 57.5t-106.5 81q-30 36 -30 86q0 18 4 38q25 139 120 209.5t255 70.5q80 0 164 -8t141 -31l-39 -67q-29 10 -65.5 17t-74.5 11.5t-75 5.5 t-68 1q-49 0 -96 -9.5t-85 -33t-65.5 -63.5t-39.5 -103q-2 -11 -2 -21q-1 -43 33 -72q42 -36 110 -64t147.5 -52.5t146.5 -56.5q66 -32 105 -82q30 -38 30 -91q0 -16 -3 -34q-16 -86 -56 -142.5t-95.5 -89.5t-121 -46t-130.5 -13q-98 0 -176 17.5t-160 72.5z" />
<glyph unicode="T" horiz-adv-x="854" d="M223 952l15 72h739l-14 -72h-338l-166 -952h-72l166 952h-330z" />
<glyph unicode="U" horiz-adv-x="999" d="M156 311l127 713h71l-125 -705q-7 -39 -7 -72q0 -41 12 -70q20 -52 62 -77.5t99.5 -32t114.5 -6.5t116.5 6.5t110.5 32t89 77.5t55 142l125 705h71l-127 -713q-31 -176 -143.5 -248.5t-308.5 -72.5q-197 0 -285 72q-65 54 -65 164q0 39 8 85z" />
<glyph unicode="V" horiz-adv-x="978" d="M211 1024h84l207 -952l542 952h84l-591 -1024h-95z" />
<glyph unicode="W" horiz-adv-x="1179" d="M211 1024h78l26 -952l338 618h115l121 -618l362 952h78q-98 -258 -196.5 -512t-196.5 -512h-111l-125 633l-346 -633h-110q-8 258 -18.5 512t-14.5 512z" />
<glyph unicode="X" horiz-adv-x="905" d="M31 0q115 131 231.5 262t235.5 254q-76 123 -142.5 250t-136.5 258h84l248 -461l412 461h84q-117 -131 -228.5 -258t-230.5 -250q76 -123 145.5 -254t140.5 -262h-83l-256 471l-420 -471h-84z" />
<glyph unicode="Y" horiz-adv-x="899" d="M211 1024h80l252 -481l426 481h80l-482 -549l-82 -475h-71l82 475z" />
<glyph unicode="Z" horiz-adv-x="886" d="M92 0l12 72l768 880h-614l14 72h701l-15 -72l-761 -880h610l-12 -72h-703z" />
<glyph unicode="[" horiz-adv-x="397" d="M92 -109l219 1242h172l-12 -72h-100l-195 -1098h100l-12 -72h-172z" />
<glyph unicode="\" horiz-adv-x="708" d="M260 1133h72l315 -1133h-72z" />
<glyph unicode="]" horiz-adv-x="397" d="M92 -109l12 72h101l194 1098h-100l12 72h172l-219 -1242h-172z" />
<glyph unicode="^" horiz-adv-x="724" d="M203 518l295 506h90l114 -506h-67q-23 117 -51.5 225.5t-51.5 223.5q-63 -115 -130.5 -223.5t-131.5 -225.5h-67z" />
<glyph unicode="_" horiz-adv-x="739" d="M-29 -174l13 72h737l-12 -72h-738z" />
<glyph unicode="`" horiz-adv-x="370" d="M309 1102h82q10 -43 14.5 -87t14.5 -91h-47z" />
<glyph unicode="a" horiz-adv-x="858" d="M123 144q0 44 8 87q23 119 115 173.5t227 54.5q51 0 130 -8.5t142 -38.5l35 192q3 21 3 38q0 28 -8 48q-13 31 -44 46.5t-74 18.5t-92 3t-93 -3t-80 -18.5t-61.5 -46.5t-33.5 -84h-72v8q23 117 110 166t243 49q160 0 228 -49q51 -37 51 -113q0 -25 -5 -53l-107 -614h-71 l14 88q-31 -37 -79 -57.5t-94 -29.5t-82 -10t-42 -1q-109 0 -165 21.5t-79.5 55t-23.5 77.5zM195 161v-6q0 -29 16 -49q18 -22 63.5 -33.5t131.5 -11.5q61 0 114 13.5t94 37t67 53.5t32 60l8 45q2 11 2 20q-1 30 -19 48q-24 24 -64 34.5t-88 12.5t-89 2q-43 0 -86 -6 t-79 -22.5t-60.5 -46t-32.5 -76.5q-8 -43 -10 -75z" />
<glyph unicode="b" d="M113 0l192 1102h72l-62 -348q39 29 79 44t77 22t66.5 8t48.5 1q147 0 221 -50q58 -39 58 -117q0 -22 -5 -48l-63 -360q-10 -61 -35 -109.5t-65 -83t-98 -53t-138 -18.5q-6 0 -39 1t-74 10t-82 29.5t-67 57.5l-15 -88h-71zM221 211q-1 -8 -1 -15q0 -50 60 -90 q68 -46 185 -45q131 0 188.5 53.5t75.5 159.5l57 326q3 20 3 37q0 28 -8 47q-13 31 -43.5 47.5t-73 21.5t-91.5 5q-37 0 -74.5 -3t-74.5 -13.5t-68.5 -30t-56.5 -52.5z" />
<glyph unicode="c" horiz-adv-x="768" d="M147 317l33 185q18 106 62.5 171.5t101.5 99.5t122.5 45t127.5 11q59 0 121.5 -6t138.5 -35l-27 -65q-61 27 -125.5 31t-97.5 4q-47 0 -101 -4t-104.5 -28t-90.5 -76t-56 -148l-33 -185q-7 -41 -6 -74q-1 -44 11 -74q22 -52 63 -75.5t94 -28t100 -4.5q33 0 98.5 4.5 t137.5 30.5l4 -65q-86 -29 -150.5 -35t-124.5 -6q-61 0 -123.5 11t-107.5 45t-65 98q-11 34 -11 82q0 41 8 91z" />
<glyph unicode="d" d="M135 254l64 360q20 115 112 165t240 50q18 0 48 -1t63.5 -8t67.5 -22.5t63 -43.5l61 348h72l-193 -1102h-71l14 88q-39 -37 -87 -57.5t-92 -29.5t-77 -10t-39 -1q-158 0 -213 72q-39 51 -39 127q0 30 6 65zM205 181q4 -40 25.5 -66.5t63.5 -40t107 -13.5q57 0 108.5 12.5 t91.5 33t65.5 48t31.5 56.5l78 448q-12 33 -36.5 52.5t-57.5 30t-69.5 13.5t-73.5 3q-49 0 -93.5 -5t-81 -21.5t-62.5 -47.5t-34 -84l-57 -326q-7 -38 -7 -69q0 -13 1 -24z" />
<glyph unicode="e" horiz-adv-x="829" d="M147 317l46 256q23 133 122 194.5t248 61.5q167 -1 235 -67q52 -50 51 -133q0 -27 -5 -56l-31 -176h-580l-14 -80q-7 -40 -7 -72q0 -45 14 -76q22 -52 66 -75.5t99 -28t103 -4.5q29 0 98.5 4.5t144.5 30.5l4 -67q-88 -29 -155.5 -34t-126.5 -5q-74 0 -139.5 11t-109.5 45 t-62 98q-9 33 -10 77q0 43 9 96zM246 469h508l14 88q4 23 4 43q0 28 -8 50q-14 38 -45 61.5t-75 35t-93 11.5t-97 -11.5t-88 -35t-68 -61.5t-38 -93z" />
<glyph unicode="f" horiz-adv-x="530" d="M184 748l13 71h147l8 47q14 78 31.5 128t43.5 80t62.5 41t88.5 11q20 0 59 -5t76 -23l-31 -62q-62 19 -115 19q-35 0 -57.5 -6.5t-37.5 -25.5t-26.5 -57t-21.5 -100l-8 -47h239l-12 -71h-240l-131 -748h-71l131 748h-148z" />
<glyph unicode="g" d="M84 -340l31 66q88 -25 140 -29t83 -4q45 0 93 2t91 24.5t77 74.5t52 155l21 117q-37 -29 -77 -44.5t-77 -22.5t-66.5 -8t-48.5 -1q-147 0 -222 50q-59 39 -59 118q0 22 5 47l63 360q23 123 101 193.5t237 70.5q6 0 39 -2t73 -11t82 -28.5t66 -56.5l17 88h72l-154 -870 q-18 -109 -53 -173.5t-82 -98t-107.5 -45t-134.5 -11.5q-14 0 -43 1t-63.5 4t-75.5 11.5t-80 22.5zM201 219q-4 -22 -4 -40q0 -26 8 -44q14 -31 45 -47t74 -21.5t92 -5.5q37 0 74.5 3.5t74.5 13.5t69 29.5t54 52.5l80 448q1 8 1 15q0 50 -59 89q-69 46 -186 46 q-66 0 -111.5 -13.5t-76.5 -40t-49.5 -66.5t-28.5 -93z" />
<glyph unicode="h" horiz-adv-x="854" d="M113 0l192 1102h72l-66 -381q35 41 80 62.5t88 31.5t79 12t52 2q160 -1 216 -73q40 -52 40 -128q0 -31 -6 -67l-98 -561h-72l94 545q5 29 5 55q0 68 -39 106q-54 52 -160 52q-117 0 -205 -57.5t-106 -155.5l-95 -545h-71z" />
<glyph unicode="i" horiz-adv-x="313" d="M121 0l143 819h72l-143 -819h-72zM279 1001q4 23 21 38.5t40 15.5q23 1 36 -15q10 -12 10 -29q0 -5 -1 -10q-4 -23 -22.5 -38t-40.5 -15q-23 0 -35 15q-9 11 -9 27q0 5 1 11z" />
<glyph unicode="j" horiz-adv-x="278" d="M-213 -326l49 56q31 -25 59.5 -31t57.5 -6q47 0 69.5 48t38.5 140l166 938h72l-166 -938q-10 -57 -22.5 -104t-33 -82t-53 -54.5t-83.5 -19.5q-33 0 -75 6t-79 47zM244 1001q4 23 21.5 38.5t39.5 15.5q23 0 36 -15q10 -12 10 -29q0 -5 -1 -10q-4 -23 -22.5 -38t-40.5 -15 q-23 0 -35 15q-9 11 -9 27q0 5 1 11z" />
<glyph unicode="k" horiz-adv-x="817" d="M113 0l192 1102h72l-115 -660l494 377h106l-307 -233l221 -586h-84l-203 532l-245 -186l-60 -346h-71z" />
<glyph unicode="l" horiz-adv-x="296" d="M113 0l192 1102h72l-193 -1102h-71z" />
<glyph unicode="m" horiz-adv-x="1224" d="M113 0l143 819h72l-19 -106q25 43 68 67.5t85 34.5t73.5 12t35.5 2q156 0 211 -104q31 39 71 60.5t76 30.5t61.5 11t27.5 2q78 0 125 -18t69.5 -53t25.5 -84q1 -11 1 -23q0 -40 -8 -88l-98 -563h-72l96 549q7 39 7 71q0 54 -20 86q-30 52 -138 52q-6 0 -28 -1 t-52.5 -10.5t-66.5 -29t-73 -55.5q2 -41 0 -59.5t-8 -53.5l-96 -549h-72l97 549q7 42 7 75q0 50 -16 82q-28 52 -139 52q-59 0 -107.5 -18.5t-84 -48t-58 -67.5t-28.5 -75l-97 -549h-71z" />
<glyph unicode="n" horiz-adv-x="854" d="M113 0l143 819h72l-17 -98q35 41 80 62.5t88 31.5t79 12t52 2q160 -1 216 -73q40 -52 40 -128q0 -31 -6 -67l-98 -561h-72l94 545q5 29 5 55q0 68 -39 106q-54 52 -160 52q-117 0 -205 -57.5t-106 -155.5l-95 -545h-71z" />
<glyph unicode="o" horiz-adv-x="831" d="M135 246l64 368q23 117 112.5 166t249.5 49q159 0 233 -49q57 -38 57 -116q0 -23 -5 -50l-64 -368q-25 -135 -123 -195.5t-245 -60.5q-164 0 -232 66q-52 50 -52 134q0 26 5 56zM209 256q-4 -23 -4 -43q0 -28 8 -49q14 -37 45 -60.5t75 -33t93 -9.5t97 9.5t86 33 t65.5 60.5t38.5 92l61 348q3 19 3 35q0 30 -10 51q-15 31 -47 46.5t-77 18.5t-94 3t-95 -3t-84 -18.5t-64.5 -46.5t-35.5 -86z" />
<glyph unicode="p" d="M45 -379l211 1198h72l-17 -88q39 37 88.5 56.5t93.5 28.5t76.5 11t38.5 2q80 0 131.5 -18t80 -53t35.5 -83q3 -20 3 -42q0 -32 -6 -68l-64 -360q-20 -115 -111 -165t-239 -50q-18 0 -48 1t-63.5 8t-68.5 22.5t-63 44.5l-78 -445h-72zM211 160q12 -33 37.5 -52.5 t58.5 -29.5t70 -13.5t74 -3.5q49 0 93 5.5t79.5 21.5t60.5 47t35 84l57 326q7 36 7 66q0 58 -25 93q-39 54 -170 54q-57 0 -109.5 -12.5t-92.5 -33t-64.5 -48t-30.5 -56.5z" />
<glyph unicode="q" d="M127 205l63 360q23 123 101 193.5t237 70.5q6 0 39 -2t73 -11t82 -28.5t66 -56.5l17 88h72l-211 -1198h-72l78 445q-37 -29 -77 -44.5t-77 -22.5t-66.5 -8t-48.5 -1q-147 0 -222 50q-59 39 -59 118q0 22 5 47zM201 219q-4 -22 -4 -40q0 -26 8 -44q14 -31 45 -47t74 -21.5 t92 -5.5q37 0 74.5 3.5t74.5 13.5t69 29.5t54 52.5l80 448q1 8 1 15q0 50 -59 89q-69 46 -186 46q-66 0 -111.5 -13.5t-76.5 -40t-49.5 -66.5t-28.5 -93z" />
<glyph unicode="r" horiz-adv-x="436" d="M111 -10l145 829h72l-17 -98q39 41 76 62.5t71 30.5t61.5 11t47.5 4l-12 -71q-104 -6 -182 -64.5t-94 -150.5l-97 -553h-71z" />
<glyph unicode="s" horiz-adv-x="677" d="M70 61l45 58q53 -41 114.5 -49.5t126.5 -8.5q84 0 151.5 34t84.5 124q2 10 2 19q0 36 -26 59q-32 29 -84 50.5t-114.5 38.5t-112.5 45t-81 69q-22 29 -22 71q0 18 4 37q20 111 95 166t202 55q61 0 130.5 -8t114.5 -24l-32 -66q-23 6 -52.5 11.5t-60.5 8.5t-59.5 5 t-53.5 2q-86 0 -141.5 -30t-71.5 -120q-2 -9 -2 -17q0 -33 26 -57q32 -28 84 -49.5t114.5 -42t113.5 -48t81 -69.5q21 -30 22 -71q0 -16 -4 -35q-12 -68 -43 -112t-74 -70.5t-95.5 -36.5t-103.5 -10q-41 0 -81 2t-76.5 10t-68.5 22.5t-52 36.5z" />
<glyph unicode="t" horiz-adv-x="485" d="M152 748l12 71h151l43 246h72l-43 -246h197l-13 -71h-196l-88 -500q-6 -39 -10.5 -72t1 -55.5t25 -35.5t57.5 -13h89l-13 -72h-88q-66 0 -97.5 23.5t-41.5 60.5q-7 25 -7 52q0 14 2 28q5 43 11 84l88 500h-151z" />
<glyph unicode="u" horiz-adv-x="874" d="M158 258l98 561h72l-97 -545q-4 -27 -5 -51q0 -71 42 -110q54 -52 160 -52q57 0 110.5 14.5t94.5 42t68.5 67.5t35.5 89l97 545h71l-143 -819h-72l17 98q-35 -41 -80 -62.5t-88 -31.5t-79 -12t-52 -2q-160 0 -216 72q-40 52 -41 129q0 31 7 67z" />
<glyph unicode="v" horiz-adv-x="790" d="M164 819h82l160 -758l425 758h82l-462 -819h-111z" />
<glyph unicode="w" horiz-adv-x="1093" d="M201 819h75l17 -758q74 152 160 321t159 318h115q23 -150 47.5 -318.5t46.5 -320.5l283 758h76l-306 -819h-116q-10 72 -23.5 159t-27 175t-25.5 171t-20 150q-33 -68 -74 -150.5t-86 -170.5t-88 -175t-78 -159h-117z" />
<glyph unicode="x" horiz-adv-x="790" d="M53 0l365 412l-223 407h86l194 -356l322 356h86l-367 -407l221 -412h-84l-196 354l-320 -354h-84z" />
<glyph unicode="y" horiz-adv-x="806" d="M158 -379l198 346l-182 852h80l160 -758l426 758h80l-676 -1198h-86z" />
<glyph unicode="z" horiz-adv-x="718" d="M72 0l10 68l608 680h-487l12 71h573l-12 -67l-596 -680h479l-12 -72h-575z" />
<glyph unicode="{" horiz-adv-x="520" d="M197 479l10 64q49 2 78.5 17t46 39t23.5 54.5t14 65.5l57 319q10 49 32.5 72t51.5 23h96l-10 -64h-29q-37 0 -51 -7t-22 -48l-48 -264q-14 -82 -38.5 -146.5t-69.5 -93.5q35 -29 37 -95.5t-13 -146.5l-47 -258q-6 -41 6.5 -48t49.5 -7h28l-12 -64h-96q-29 0 -44.5 23 t-6.5 72l51 282q6 37 8 72t-7 63.5t-30.5 48t-64.5 27.5z" />
<glyph unicode="|" horiz-adv-x="296" d="M92 -109l219 1242h72l-219 -1242h-72z" />
<glyph unicode="}" horiz-adv-x="520" d="M92 -109l12 64h29q37 0 51.5 7t20.5 48l47 258q14 80 38.5 146.5t67.5 95.5q-33 29 -34.5 93.5t12.5 146.5l47 264q8 41 -4 48t-49 7h-29l10 64h97q29 0 45 -23t6 -72l-58 -319q-6 -35 -9 -65.5t5.5 -54.5t32 -39t72.5 -17l-10 -64q-45 -8 -75 -27.5t-48.5 -48 t-28.5 -63.5t-16 -72l-52 -282q-8 -49 -31.5 -72t-52.5 -23h-96z" />
<glyph unicode="~" horiz-adv-x="940" d="M209 551q80 59 170 59q51 0 98 -18.5t92 -40t91.5 -39.5t95.5 -18q41 0 73.5 13t65.5 34q4 -10 10 -29.5t10 -30.5q-78 -59 -172 -59q-43 0 -90 18.5t-96 40t-97 40t-93 18.5t-76 -12.5t-64 -34.5z" />
<glyph unicode="&#xad;" horiz-adv-x="823" d="M174 356l12 72h598l-12 -72h-598z" />
<glyph unicode="&#xbc;" horiz-adv-x="1105" d="M242 0l671 1024h72l-672 -1024h-71zM260 940l182 84h58l-111 -621h-57l98 560l-154 -76zM598 186l8 56l348 379h78l-67 -379h86l-9 -56h-86l-32 -186h-58l33 186h-301zM680 242h227l56 311z" />
<glyph unicode="&#xbd;" horiz-adv-x="1191" d="M242 0l671 1024h72l-672 -1024h-71zM260 940l182 84h58l-111 -621h-57l98 560l-154 -76zM686 0l8 55q8 47 40 85t75 71t92 60.5t91 53t72 51t34 52.5l10 49q8 47 -20.5 72.5t-100.5 25.5q-74 0 -119 -25.5t-53 -72.5l-4 -16h-57l4 16q12 76 79.5 115t159.5 39t136.5 -39 t31.5 -115l-10 -49q-10 -59 -69.5 -103t-129 -84t-130 -84t-70.5 -102h350l-8 -55h-412z" />
<glyph unicode="&#xbe;" horiz-adv-x="1249" d="M197 580l2 12h57l-2 -12q-6 -41 5 -64.5t32.5 -36t48.5 -16.5t49 -4q23 0 50.5 4t53 16.5t46 36t26.5 64.5l6 34q4 23 -5 37.5t-26.5 23.5t-41 13t-43.5 4h-64l10 56h64q45 0 92 25.5t55 72.5l6 37q6 37 -5 56t-32.5 28.5t-49 10.5t-50.5 1t-50.5 -1t-52 -10.5t-45 -28.5 t-26.5 -56l-2 -19h-57l2 19q14 76 75.5 113.5t166.5 37.5q213 0 184 -151l-6 -37q-8 -43 -34 -74t-54 -49q23 -16 39 -44t8 -65l-6 -34q-14 -86 -77 -131.5t-167 -45.5q-115 0 -155 49.5t-27 127.5zM385 0h72l671 1024h-71zM741 186h301l-32 -186h57l33 186h86l8 56h-86 l68 379h-78l-348 -379zM823 242l283 311l-55 -311h-228z" />
<glyph unicode="&#xbf;" horiz-adv-x="727" d="M113 2q14 78 62 122t103.5 78t105.5 72.5t69 108.5l45 246h71l-45 -246q-10 -55 -36.5 -92t-61.5 -64.5t-74 -50t-73.5 -47.5t-60 -54.5t-34.5 -72.5q-8 -43 5.5 -71.5t40 -45t64.5 -22.5t79 -6q47 0 99 2t99 18l11 -61q-49 -20 -105.5 -25.5t-118.5 -5.5 q-152 0 -209 54.5t-36 162.5zM504 776q4 23 22.5 38t40.5 15q23 0 35 -15t8 -38t-21.5 -38t-39.5 -15q-23 0 -36 15.5t-9 37.5z" />
<glyph unicode="&#xff;" horiz-adv-x="1941" />
<glyph unicode="&#x2000;" horiz-adv-x="682" />
<glyph unicode="&#x2001;" horiz-adv-x="1365" />
<glyph unicode="&#x2002;" horiz-adv-x="682" />
<glyph unicode="&#x2003;" horiz-adv-x="1365" />
<glyph unicode="&#x2004;" horiz-adv-x="455" />
<glyph unicode="&#x2005;" horiz-adv-x="341" />
<glyph unicode="&#x2006;" horiz-adv-x="227" />
<glyph unicode="&#x2007;" horiz-adv-x="227" />
<glyph unicode="&#x2008;" horiz-adv-x="170" />
<glyph unicode="&#x2009;" horiz-adv-x="273" />
<glyph unicode="&#x200a;" horiz-adv-x="75" />
<glyph unicode="&#x2010;" horiz-adv-x="823" d="M174 356l12 72h598l-12 -72h-598z" />
<glyph unicode="&#x2011;" horiz-adv-x="823" d="M174 356l12 72h598l-12 -72h-598z" />
<glyph unicode="&#x2012;" horiz-adv-x="823" d="M174 356l12 72h598l-12 -72h-598z" />
<glyph unicode="&#x2013;" horiz-adv-x="997" d="M174 356l12 72h772l-12 -72h-772z" />
<glyph unicode="&#x2014;" horiz-adv-x="1173" d="M174 356l12 72h949l-13 -72h-948z" />
<glyph unicode="&#x2018;" horiz-adv-x="368" d="M272 928l123 174h54l-93 -174h-84z" />
<glyph unicode="&#x2019;" horiz-adv-x="370" d="M274 928l93 174h84l-123 -174h-54z" />
<glyph unicode="&#x2022;" horiz-adv-x="481" d="M205 350q6 41 38.5 68.5t73.5 27.5t65 -27.5t17 -68.5q-8 -41 -41.5 -69.5t-74.5 -28.5t-63.5 28.5t-14.5 69.5z" />
<glyph unicode="&#x2026;" horiz-adv-x="757" d="M119 43q4 23 22.5 38t40.5 15q23 0 35 -15t8 -38t-21.5 -38t-39.5 -15q-23 0 -36 15t-9 38zM332 43q4 23 22.5 38t40.5 15q23 0 35 -15t8 -38t-21.5 -38t-39.5 -15q-23 0 -36 15t-9 38zM545 43q4 23 22.5 38t40.5 15q23 0 35 -15t8 -38t-21.5 -38t-39.5 -15q-23 0 -36 15 t-9 38z" />
<glyph unicode="&#x202f;" horiz-adv-x="273" />
<glyph unicode="&#x205f;" horiz-adv-x="341" />
<glyph unicode="&#x25fc;" horiz-adv-x="819" d="M0 0v819h819v-819h-819z" />
</font>
</defs>
</svg>
