<?xml version="1.0" encoding="utf-8"?>
<!-- Generator: Adobe Illustrator 16.0.0, SVG Export Plug-In . SVG Version: 6.00 Build 0)  -->
<!DOCTYPE svg PUBLIC "-//W3C//DTD SVG 1.1//EN" "http://www.w3.org/Graphics/SVG/1.1/DTD/svg11.dtd">
<svg version="1.1" id="Layer_1" xmlns="http://www.w3.org/2000/svg" xmlns:xlink="http://www.w3.org/1999/xlink" x="0px" y="0px"
	 width="100px" height="100px" viewBox="0 0 100 100" enable-background="new 0 0 100 100" xml:space="preserve">
<path fill="none" stroke="#FFFFFF" stroke-linecap="square" stroke-linejoin="round" stroke-miterlimit="10" d="M24.408,28.944
	c0,0,1.628-13.216,3.908-16.113c8.003-10.168,9.692,5.098,11.563,15.245"/>
<polygon fill="#86726E" points="10.563,25.738 21.104,26.974 21.104,83.062 10.563,79.717 "/>
<polygon fill="#AFA09A" points="21.104,26.974 56.268,24.75 56.268,77.354 21.104,83.062 "/>
<polygon fill="#645049" points="10.563,25.738 44.525,24.272 56.268,24.75 21.104,26.974 "/>
<path fill="none" stroke="#FFFFFF" stroke-linecap="square" stroke-linejoin="round" stroke-miterlimit="10" d="M29.871,28.944
	c0,0-1.211-12.866,1.069-15.763c8.002-10.169,12.531,4.748,14.402,14.895"/>
<g>
	<g>
		<path fill="#2A1D17" d="M54.062,43.277c0-0.211,0.184-0.388,0.394-0.401c0.213-0.013,0.392,0.142,0.392,0.353
			c-0.002,0.211-0.175,0.388-0.378,0.401C54.251,43.643,54.062,43.488,54.062,43.277z M54.453,43.571
			c0.182-0.011,0.335-0.162,0.335-0.338c0.002-0.178-0.151-0.31-0.333-0.298c-0.181,0.011-0.334,0.163-0.334,0.34
			C54.12,43.451,54.273,43.582,54.453,43.571z M54.26,43.44c0.049-0.008,0.062-0.012,0.062-0.07l0.002-0.239
			c0-0.057-0.014-0.053-0.062-0.057v-0.034l0.204-0.014c0.104-0.006,0.183,0.005,0.183,0.098c0,0.083-0.074,0.103-0.122,0.117
			c0.104,0.056,0.069,0.15,0.111,0.147c0.025-0.002,0.028-0.045,0.028-0.056l0.032-0.002c0,0.036-0.015,0.116-0.089,0.121
			c-0.144,0.009-0.051-0.202-0.176-0.193l-0.018,0.001l-0.002,0.101c0,0.066,0.006,0.063,0.063,0.068v0.032l-0.218,0.014V43.44z
			 M54.416,43.223l0.035-0.001c0.048-0.003,0.095-0.019,0.095-0.083c0-0.05-0.016-0.082-0.071-0.078
			c-0.058,0.003-0.059,0.024-0.059,0.067V43.223z"/>
	</g>
	<g>
		<path fill="#2A1D17" d="M26.736,54.788c-0.016,4.579,5.5,7.96,12.297,7.537c6.796-0.425,12.338-4.494,12.355-9.074
			c0.015-4.578-5.503-7.958-12.298-7.535C32.294,46.139,26.751,50.209,26.736,54.788z M27.024,54.771
			c0.015-4.428,5.428-8.367,12.066-8.78c6.639-0.414,12.025,2.851,12.011,7.28c-0.016,4.426-5.428,8.364-12.066,8.778
			C32.397,62.462,27.009,59.197,27.024,54.771z"/>
		<path fill="#2A1D17" d="M35.968,50.521c-0.032,0.002-0.086,0-0.156,0.002l-0.131-0.002c-0.082,0.002-0.168,0.003-0.257,0.008
			c-0.067,0.004-0.139,0.009-0.271,0.021c-0.127,0.012-0.151,0.019-0.283,0.034c-0.058,0.009-0.095,0.011-0.118,0.012
			c-0.107,0.007-0.164-0.023-0.164-0.083c0-0.022,0.008-0.039,0.016-0.053c0.033-0.041,0.05-0.046,0.209-0.077
			c0.166-0.037,0.207-0.093,0.207-0.289l0.003-0.155l0.005-1.487l0.001-0.162c-0.003-0.137-0.019-0.166-0.098-0.162
			c-0.045,0.003-0.078,0.014-0.167,0.057c-0.066,0.035-0.099,0.045-0.132,0.048c-0.05,0.003-0.082-0.026-0.082-0.077
			c0.001-0.073,0.041-0.104,0.251-0.177c0.345-0.129,0.513-0.204,0.735-0.333c0.029-0.018,0.053-0.028,0.07-0.029
			c0.045-0.003,0.068,0.038,0.068,0.12l0,0.15v0.141l-0.007,1.87c0,0.347,0.027,0.401,0.212,0.418
			c0.185,0.014,0.229,0.033,0.229,0.103C36.107,50.479,36.053,50.516,35.968,50.521z M35.254,48.46c0-0.206-0.007-0.273-0.041-0.332
			c-0.032-0.057-0.113-0.091-0.204-0.085c-0.021,0.001-0.042,0.002-0.07,0.009c0.14,0.008,0.169,0.044,0.171,0.21l0,0.185
			l-0.005,1.456c0,0.303,0,0.32-0.025,0.39c-0.018,0.057-0.059,0.093-0.148,0.138c0.246-0.041,0.316-0.148,0.317-0.485L35.254,48.46
			z"/>
		<path fill="#2A1D17" d="M37.464,50.5c-0.599,0.037-1.061-0.263-1.06-0.689c0.001-0.269,0.199-0.525,0.51-0.66
			c0.058-0.025,0.094-0.048,0.095-0.065c0-0.004-0.007-0.013-0.024-0.021l-0.11-0.056c-0.232-0.118-0.371-0.34-0.37-0.605
			c0.001-0.5,0.428-0.868,1.043-0.906c0.599-0.037,1.007,0.21,1.006,0.607c-0.001,0.223-0.133,0.389-0.408,0.522
			c-0.102,0.048-0.127,0.063-0.127,0.072s0.016,0.02,0.036,0.027l0.123,0.061c0.32,0.155,0.491,0.405,0.489,0.712
			C38.667,50.032,38.157,50.457,37.464,50.5z M36.858,50.244c-0.134-0.104-0.22-0.278-0.22-0.453c0-0.15,0.066-0.329,0.166-0.441
			c0.054-0.068,0.103-0.106,0.226-0.176c-0.172,0.074-0.229,0.107-0.329,0.194c-0.126,0.116-0.206,0.287-0.207,0.436
			c0,0.304,0.269,0.546,0.675,0.606C36.985,50.329,36.953,50.314,36.858,50.244z M37.776,49.123l-0.541-0.213
			c-0.367-0.148-0.515-0.319-0.514-0.602c0.001-0.294,0.157-0.516,0.474-0.674c-0.361,0.123-0.6,0.418-0.601,0.744
			c0,0.289,0.174,0.504,0.514,0.638l0.491,0.191c0.372,0.147,0.543,0.329,0.543,0.576c-0.001,0.15-0.074,0.309-0.194,0.415
			c-0.082,0.078-0.136,0.106-0.295,0.171c0.356-0.095,0.603-0.374,0.603-0.682C38.259,49.434,38.104,49.257,37.776,49.123z
			 M37.832,49.422c-0.085-0.05-0.196-0.103-0.331-0.162c-0.061-0.026-0.122-0.048-0.185-0.066c-0.032-0.011-0.057-0.013-0.069-0.012
			c-0.045,0.003-0.119,0.067-0.161,0.138c-0.065,0.119-0.104,0.263-0.104,0.408c-0.002,0.359,0.228,0.614,0.539,0.594
			c0.291-0.018,0.529-0.259,0.529-0.528C38.052,49.64,37.975,49.508,37.832,49.422z M37.523,47.677
			c-0.242,0.015-0.44,0.207-0.441,0.43c-0.001,0.141,0.083,0.263,0.212,0.328c0.066,0.029,0.176,0.075,0.329,0.128
			c0.101,0.042,0.154,0.055,0.179,0.053c0.016,0,0.032-0.01,0.053-0.033c0.104-0.104,0.157-0.249,0.157-0.39
			C38.014,47.872,37.81,47.659,37.523,47.677z M37.745,47.617c0.261,0.15,0.36,0.303,0.359,0.563
			c-0.001,0.191-0.067,0.336-0.215,0.469c0.21-0.132,0.337-0.328,0.337-0.521C38.227,47.886,38.056,47.704,37.745,47.617z"/>
		<path fill="#2A1D17" d="M40.23,50.301c-0.246,0.156-0.521,0.255-0.738,0.269c-0.27,0.018-0.466-0.116-0.465-0.317
			c0-0.146,0.119-0.268,0.271-0.277c0.119-0.008,0.206,0.047,0.266,0.181c0.024,0.052,0.044,0.09,0.056,0.111
			c0.029,0.059,0.062,0.078,0.12,0.073c0.044-0.003,0.102-0.02,0.144-0.039c0.279-0.137,0.484-0.486,0.486-0.833
			c0.001-0.419-0.281-0.727-0.646-0.704c-0.147,0.009-0.332,0.06-0.43,0.117c-0.07,0.04-0.104,0.061-0.106,0.062
			c-0.013,0.005-0.029,0.011-0.041,0.012c-0.038,0.002-0.067-0.03-0.067-0.073c0-0.018,0.005-0.034,0.014-0.052
			c0.02-0.031,0.048-0.063,0.085-0.087c0.033-0.022,0.111-0.075,0.238-0.152c0.436-0.274,0.645-0.539,0.646-0.809
			c0-0.205-0.154-0.344-0.359-0.332c-0.135,0.009-0.271,0.089-0.358,0.22l-0.089,0.128c-0.029,0.045-0.054,0.063-0.087,0.065
			c-0.045,0.003-0.072-0.025-0.072-0.068c0-0.056,0.053-0.163,0.126-0.25c0.181-0.226,0.428-0.345,0.751-0.364
			c0.447-0.028,0.733,0.139,0.732,0.425c0,0.216-0.174,0.437-0.469,0.609l-0.299,0.169l-0.086,0.053
			c0.173-0.038,0.234-0.05,0.329-0.056c0.5-0.031,0.834,0.261,0.833,0.722C41.012,49.543,40.72,49.988,40.23,50.301z M39.215,50.253
			c0-0.098,0.029-0.151,0.116-0.208c-0.14,0.012-0.219,0.086-0.219,0.206c0,0.124,0.082,0.204,0.27,0.252
			C39.256,50.431,39.214,50.365,39.215,50.253z M39.831,48.642c-0.109,0.007-0.171,0.02-0.327,0.077
			c0.115-0.025,0.159-0.032,0.22-0.036c0.427-0.027,0.733,0.295,0.732,0.771c-0.001,0.328-0.142,0.607-0.438,0.869
			c0.181-0.111,0.241-0.17,0.361-0.343c0.144-0.207,0.206-0.397,0.206-0.62C40.588,48.898,40.291,48.614,39.831,48.642z
			 M39.835,47.317c-0.093,0.007-0.15,0.028-0.237,0.08c0.062-0.021,0.09-0.026,0.131-0.029c0.234-0.015,0.422,0.166,0.421,0.4
			c-0.001,0.068-0.013,0.142-0.038,0.211c-0.054,0.145-0.107,0.217-0.289,0.394l-0.085,0.087c0.365-0.267,0.542-0.517,0.542-0.772
			C40.281,47.458,40.099,47.301,39.835,47.317z"/>
		<path fill="#2A1D17" d="M43.417,47.335c-0.025,0.045-0.066,0.137-0.128,0.282l-0.185,0.422c-0.237,0.532-0.452,1.039-0.542,1.272
			l-0.244,0.63c-0.059,0.149-0.091,0.236-0.1,0.266c-0.024,0.083-0.049,0.123-0.083,0.138c-0.02,0.006-0.09,0.019-0.151,0.023
			c-0.033,0.001-0.045-0.006-0.045-0.027c0-0.012,0.009-0.039,0.021-0.062c0.079-0.172,0.12-0.264,0.218-0.509
			c0.087-0.216,0.162-0.403,0.223-0.564c0.174-0.439,0.326-0.855,0.405-1.094l0.051-0.144c0.007-0.014,0.007-0.027,0.007-0.035
			c0-0.03-0.024-0.038-0.103-0.032l-0.635,0.04c-0.036,0.002-0.16,0.01-0.372,0.032c-0.189,0.016-0.262,0.024-0.35,0.043
			c-0.02,0.004-0.044,0.011-0.057,0.012c-0.066,0.004-0.074-0.025-0.086-0.212l-0.007-0.251l-0.003-0.141v-0.013
			c0-0.081,0.012-0.099,0.062-0.102c0.02-0.001,0.049,0,0.085-0.001c0.074,0.004,0.218-0.001,0.439-0.015l0.541-0.033l1-0.062
			c0.041-0.002,0.062,0.014,0.062,0.043C43.442,47.266,43.435,47.301,43.417,47.335z M43.184,47.308l-1.148,0.071
			c-0.275,0.017-0.401,0.02-0.573,0.023c-0.033-0.002-0.058-0.001-0.07-0.001c-0.033,0.002-0.041,0.015-0.041,0.058l0,0.07
			c0.271-0.005,0.397-0.008,0.742-0.03l1.144-0.071l0.02-0.048c0.013-0.025,0.022-0.043,0.022-0.057
			C43.278,47.306,43.266,47.303,43.184,47.308z"/>
		<path fill="#2A1D17" d="M36.973,58.105c-0.005,0.016-0.016,0.081-0.029,0.191l-0.039,0.267l-0.025,0.188
			c-0.01,0.044-0.053,0.084-0.105,0.088c-0.019,0.001-0.037-0.003-0.052-0.013c-0.043-0.022-0.062-0.049-0.143-0.202
			c-0.123-0.224-0.237-0.281-0.542-0.263l-0.171,0.011c-0.077,0.009-0.085,0.017-0.085,0.082l-0.007,1.847
			c0,0.328,0.026,0.379,0.231,0.395c0.206,0.013,0.252,0.029,0.252,0.095c0,0.058-0.067,0.092-0.182,0.1
			c-0.024,0.002-0.076,0.001-0.143,0.006c-0.057-0.002-0.104-0.003-0.142,0.001l-0.21,0.009l-0.219,0.005l-0.205,0.017l-0.233,0.022
			c-0.039,0.003-0.09,0.011-0.143,0.019c-0.066,0.004-0.12,0.01-0.138,0.012c-0.115,0.007-0.182-0.021-0.182-0.077
			c0-0.064,0.048-0.089,0.248-0.126c0.201-0.041,0.229-0.095,0.23-0.425l0.006-1.813c0.001-0.09-0.023-0.106-0.128-0.101
			c-0.205,0.013-0.362,0.051-0.458,0.117c-0.034,0.022-0.091,0.071-0.163,0.149c-0.066,0.064-0.12,0.124-0.167,0.184
			c-0.062,0.082-0.096,0.104-0.149,0.106c-0.057,0.004-0.1-0.03-0.1-0.074c0-0.029,0.005-0.061,0.019-0.104l0.073-0.199
			c0.029-0.078,0.054-0.152,0.068-0.21c0.062-0.235,0.086-0.283,0.177-0.287c0.015-0.001,0.034,0.002,0.043,0.005
			c0.021,0.008,0.037,0.019,0.046,0.03c0.005,0.003,0.015,0.027,0.034,0.065c0.029,0.063,0.058,0.07,0.215,0.061l1.834-0.114
			l0.2-0.017c0.167-0.016,0.195-0.028,0.262-0.126c0.04-0.062,0.072-0.081,0.125-0.084c0.063-0.006,0.109,0.025,0.109,0.065
			C36.986,58.031,36.981,58.064,36.973,58.105z M34.109,58.234l-0.018,0.062l-0.064,0.223c-0.029,0.1-0.048,0.153-0.115,0.3
			c0.024-0.03,0.042-0.052,0.053-0.064c0.182-0.227,0.201-0.248,0.319-0.309C34.166,58.385,34.141,58.363,34.109,58.234z
			 M35.213,58.396l-0.162,0.011l-0.011,1.957c0,0.333-0.016,0.382-0.164,0.448c0.096-0.006,0.133-0.018,0.196-0.058
			c0.105-0.071,0.134-0.15,0.134-0.385L35.213,58.396z M36.519,58.278c-0.02,0.002-0.033,0.002-0.119,0.003
			c0.114,0.043,0.153,0.068,0.209,0.136c0.042,0.057,0.062,0.101,0.09,0.208l0.01-0.095l0.015-0.138l0.02-0.14l0.009-0.049
			C36.681,58.257,36.644,58.271,36.519,58.278z"/>
		<path fill="#2A1D17" d="M40.005,60.095c-0.009,0.041-0.019,0.09-0.028,0.147c-0.025,0.115-0.039,0.193-0.039,0.229
			c-0.009,0.139-0.04,0.182-0.116,0.187c-0.027,0.001-0.084,0.005-0.161,0.006c-0.062-0.001-0.209,0.005-0.442,0.017l-0.373,0.014
			l-0.386,0.027l-0.252,0.017c-0.115,0.012-0.229,0.019-0.339,0.026c-0.162,0.009-0.195,0.016-0.347,0.032
			c-0.063,0.008-0.102,0.01-0.13,0.012c-0.104,0.007-0.161-0.02-0.161-0.078c0-0.065,0.039-0.088,0.225-0.124
			c0.175-0.039,0.204-0.093,0.205-0.423l0.005-1.5c0.001-0.329-0.027-0.381-0.202-0.395c-0.187-0.016-0.226-0.034-0.226-0.098
			c0.001-0.058,0.059-0.095,0.164-0.103c0.014,0,0.057,0.002,0.129,0.002c0.081-0.002,0.223-0.006,0.39-0.017
			c0.129-0.004,0.224-0.01,0.319-0.016c0.462-0.03,1.135-0.088,1.397-0.119c0.052-0.008,0.09-0.014,0.109-0.016
			c0.067-0.004,0.09,0.019,0.089,0.076c0,0.02,0,0.048-0.005,0.08v0.123c0,0.072,0,0.138,0.005,0.193
			c0.004,0.024,0.004,0.049,0.004,0.069c0,0.073-0.023,0.107-0.09,0.111s-0.1-0.014-0.158-0.092
			c-0.075-0.109-0.199-0.219-0.275-0.254c-0.066-0.032-0.189-0.05-0.3-0.042c-0.162,0.009-0.353,0.028-0.42,0.051
			c-0.071,0.015-0.09,0.041-0.091,0.134l-0.004,0.139l-0.002,0.511c0,0.086,0.01,0.129,0.029,0.142
			c0.019,0.015,0.028,0.015,0.185,0.004c0.129-0.007,0.201-0.018,0.283-0.029c0.062-0.008,0.109-0.023,0.142-0.046
			c0.058-0.036,0.082-0.07,0.187-0.271c0.033-0.06,0.062-0.081,0.114-0.084c0.062-0.004,0.11,0.034,0.11,0.095
			c0,0.017-0.005,0.044-0.011,0.094c-0.005,0.029-0.005,0.072-0.01,0.14c-0.01,0.113-0.01,0.15-0.01,0.198
			c0,0.036,0,0.073,0.004,0.102l0.014,0.178c0.004,0.031,0.004,0.061,0.004,0.081c0,0.068-0.038,0.103-0.105,0.107
			c-0.076,0.005-0.104-0.021-0.166-0.146c-0.09-0.187-0.208-0.252-0.451-0.237c-0.292,0.019-0.32,0.035-0.321,0.199l-0.001,0.438
			c-0.001,0.283,0.027,0.392,0.118,0.468c0.071,0.06,0.19,0.085,0.361,0.074c0.324-0.021,0.559-0.145,0.712-0.377l0.096-0.152
			c0.038-0.056,0.077-0.078,0.134-0.081c0.066-0.006,0.104,0.028,0.104,0.086C40.02,60.02,40.015,60.062,40.005,60.095z
			 M37.934,58.634c0.001-0.143-0.008-0.202-0.037-0.257c-0.042-0.097-0.143-0.143-0.29-0.133c0.147,0.044,0.162,0.091,0.161,0.416
			l-0.005,1.533c0,0.335-0.017,0.383-0.164,0.449c0.095-0.006,0.133-0.018,0.195-0.057c0.105-0.071,0.134-0.15,0.135-0.385
			L37.934,58.634z M39.337,59.231c0.001-0.114,0.001-0.158,0.021-0.277c-0.102,0.213-0.163,0.263-0.387,0.297
			c0.128,0.011,0.186,0.032,0.248,0.09c0.06,0.053,0.084,0.087,0.137,0.21C39.336,59.409,39.337,59.345,39.337,59.231z
			 M39.678,58.375c0-0.016,0-0.052-0.004-0.109l0-0.11c0-0.057-0.01-0.059-0.109-0.054l-0.028,0.002l-0.176,0.011
			c-0.02,0.001-0.053,0.007-0.091,0.01c0.116,0.025,0.153,0.044,0.244,0.11c0.07,0.057,0.104,0.091,0.171,0.18
			C39.678,58.399,39.678,58.384,39.678,58.375z M39.61,60.387c-0.091,0.083-0.153,0.115-0.306,0.15l0.09-0.004l0.177-0.011
			l0.134-0.004c0.039-0.001,0.042-0.01,0.047-0.043c0.016-0.103,0.038-0.229,0.068-0.361C39.729,60.263,39.696,60.31,39.61,60.387z"
			/>
		<path fill="#2A1D17" d="M43.665,60.419l-0.096,0.005l-0.323,0.004c-0.105,0.003-0.205,0.006-0.305,0.011
			c-0.143,0.01-0.314,0.023-0.53,0.051c-0.067,0.008-0.143,0.016-0.162,0.018c-0.086,0.005-0.133-0.021-0.133-0.076
			c0-0.041,0.024-0.071,0.067-0.091c0.028-0.01,0.043-0.015,0.137-0.032c0.125-0.024,0.178-0.056,0.178-0.104
			c0-0.021-0.009-0.053-0.034-0.1l-0.09-0.2l-0.123-0.236c-0.015-0.036-0.028-0.056-0.038-0.068
			c-0.014-0.011-0.033-0.022-0.057-0.021l-0.068,0.006l-0.752,0.047c-0.109,0.007-0.133,0.025-0.167,0.117l-0.048,0.14
			c-0.04,0.112-0.067,0.228-0.068,0.285c0,0.121,0.084,0.177,0.294,0.188c0.162,0.006,0.205,0.023,0.205,0.093
			c0,0.064-0.058,0.101-0.167,0.105c-0.024,0.003-0.077,0.003-0.125,0.006c-0.208-0.003-0.241-0.006-0.361,0.001
			c-0.114,0.008-0.162,0.015-0.358,0.044c-0.052,0.006-0.095,0.009-0.133,0.013c-0.09,0.005-0.142-0.028-0.142-0.089
			c0-0.058,0.043-0.088,0.147-0.111c0.1-0.019,0.147-0.037,0.187-0.071c0.067-0.055,0.095-0.1,0.234-0.396l0.246-0.516l0.375-0.813
			l0.229-0.477c0.044-0.088,0.082-0.168,0.11-0.239c0.059-0.129,0.12-0.168,0.258-0.178c0.1-0.006,0.139,0.021,0.186,0.126
			c0.066,0.134,0.15,0.312,0.27,0.539l0.355,0.695l0.278,0.556l0.18,0.325c0.128,0.232,0.17,0.267,0.328,0.256
			c0.124-0.009,0.167,0.013,0.167,0.083C43.817,60.388,43.783,60.411,43.665,60.419z M41.021,60.394
			c-0.066-0.038-0.1-0.104-0.1-0.201c0-0.049,0.006-0.083,0.029-0.174l0.02-0.077l-0.033,0.071l-0.082,0.18
			c-0.077,0.162-0.13,0.218-0.292,0.29c0.139-0.022,0.196-0.025,0.286-0.031c0.053-0.004,0.133-0.008,0.244-0.01h0.133
			C41.097,60.42,41.069,60.413,41.021,60.394z M42.082,59.32c-0.01-0.024-0.019-0.039-0.024-0.047l-0.311-0.605
			c-0.02-0.031-0.038-0.055-0.049-0.055c-0.014,0.002-0.038,0.044-0.071,0.106c-0.02,0.042-0.053,0.113-0.101,0.208
			c-0.059,0.121-0.101,0.211-0.125,0.273c-0.029,0.059-0.048,0.096-0.057,0.111c-0.01,0.025-0.019,0.046-0.019,0.066
			c0,0.037,0.028,0.048,0.104,0.043l0.562-0.035c0.081-0.005,0.1-0.01,0.1-0.038C42.091,59.341,42.086,59.332,42.082,59.32z
			 M42.646,59.896l-0.803-1.621l-0.086,0.176l0.761,1.524c0.066,0.137,0.085,0.185,0.085,0.236c-0.001,0.045-0.025,0.079-0.087,0.12
			c0.144-0.03,0.215-0.086,0.216-0.188C42.732,60.091,42.704,60.015,42.646,59.896z"/>
		<path fill="#2A1D17" d="M27.297,54.762c-0.014,4.248,5.253,7.374,11.741,6.97c6.487-0.403,11.776-4.188,11.791-8.436
			c0.016-4.248-5.252-7.376-11.738-6.971C32.603,46.729,27.312,50.514,27.297,54.762z M27.395,54.756
			c0.015-4.197,5.261-7.939,11.696-8.34c6.435-0.401,11.657,2.688,11.643,6.885c-0.015,4.198-5.261,7.938-11.695,8.34
			C32.604,62.041,27.38,58.952,27.395,54.756z"/>
		<path fill-rule="evenodd" clip-rule="evenodd" fill="#2A1D17" d="M48.147,55.179c-0.001,0.105-0.099,0.197-0.218,0.204
			c-0.118,0.007-0.215-0.073-0.213-0.179c0-0.104,0.097-0.195,0.215-0.203C48.05,54.994,48.147,55.072,48.147,55.179z
			 M44.442,55.069c0,0.106-0.097,0.196-0.217,0.204c-0.119,0.008-0.216-0.071-0.216-0.177c0.001-0.104,0.098-0.197,0.217-0.205
			C44.346,54.885,44.443,54.964,44.442,55.069z M44.316,52.989c-0.001,0.106-0.098,0.197-0.217,0.204
			c-0.12,0.007-0.216-0.07-0.215-0.177c0-0.105,0.097-0.196,0.216-0.203C44.22,52.805,44.316,52.884,44.316,52.989z M44.251,54.012
			c0,0.105-0.097,0.196-0.215,0.203c-0.119,0.008-0.214-0.072-0.214-0.177c0.001-0.105,0.097-0.195,0.216-0.204
			C44.156,53.827,44.252,53.906,44.251,54.012z M48.691,52.738c-0.061,0.027-0.136,0.018-0.226,0.022
			c-0.075,0.006-0.189,0.028-0.23,0.007c-0.034-0.016-0.061-0.106-0.081-0.164c-0.143-0.426-0.312-0.828-0.563-1.13
			c-0.274-0.33-0.729-0.597-1.401-0.465c-0.561,0.11-0.88,0.511-1.066,0.982c-0.163,0.411-0.244,0.93-0.272,1.489
			c-0.005,0.134-0.015,0.234,0.031,0.315c0.036,0.027,0.071,0.048,0.128,0.066c0.034,0.01,0.141,0.021,0.142,0.053
			c0.001,0.025-0.065,0.049-0.089,0.063c-0.026,0.02-0.072,0.038-0.093,0.057c-0.067,0.052-0.084,0.12-0.111,0.197
			c0.03,0.648,0.125,1.198,0.363,1.639c0.215,0.395,0.582,0.797,1.279,0.615c0.574-0.146,0.729-0.679,0.706-1.357
			c-0.018-0.538-0.154-0.799-0.636-0.842c-0.064-0.007-0.15-0.01-0.23-0.009c-0.062,0-0.196,0.021-0.221-0.013
			c-0.02-0.024-0.009-0.128-0.009-0.188c0-0.075-0.016-0.147,0.009-0.183c0.035-0.049,0.321-0.041,0.404-0.047l2.767-0.172
			c0.074-0.006,0.167-0.02,0.2-0.005c0.048,0.021,0.04,0.092,0.04,0.182c0,0.067,0.012,0.182-0.014,0.21
			c-0.027,0.027-0.174,0.027-0.228,0.035c-0.27,0.037-0.521,0.078-0.608,0.304c-0.054,0.148-0.043,0.342-0.045,0.534l-0.006,1.7
			c-0.048,0.068-0.245,0.076-0.333,0.052c-0.047-0.006-0.073-0.048-0.102-0.074c-0.059-0.058-0.112-0.11-0.176-0.176
			c-0.051-0.053-0.1-0.091-0.2-0.06c-0.056,0.019-0.115,0.062-0.168,0.096c-0.38,0.224-0.835,0.406-1.39,0.464
			c-0.655,0.068-1.152-0.103-1.578-0.338c-0.407-0.224-0.76-0.562-1.012-0.942c-0.191-0.286-0.348-0.629-0.421-1.062
			c-0.024-0.134-0.028-0.314-0.097-0.399c-0.033-0.042-0.11-0.094-0.177-0.114c-0.017-0.005-0.065,0.005-0.066-0.026
			c-0.001-0.025,0.049-0.04,0.072-0.05c0.035-0.016,0.052-0.021,0.084-0.031c0.067-0.057,0.115-0.089,0.141-0.161
			c0.04-0.103,0.037-0.225,0.055-0.327c0.057-0.327,0.15-0.604,0.274-0.876c0.156-0.344,0.355-0.665,0.61-0.937
			c0.493-0.521,1.135-0.991,2.065-1.095c0.665-0.072,1.074,0.121,1.502,0.312c0.061,0.025,0.147,0.068,0.223,0.052
			c0.068-0.015,0.123-0.082,0.164-0.135c0.042-0.052,0.087-0.134,0.142-0.156c0.037-0.014,0.273-0.023,0.303-0.009
			c0.052,0.026,0.052,0.13,0.056,0.229c0.038,0.598,0.07,1.155,0.109,1.749C48.712,52.662,48.718,52.705,48.691,52.738z"/>
		<path fill-rule="evenodd" clip-rule="evenodd" fill="#2A1D17" d="M31.922,53.632c-0.001,0.106-0.098,0.195-0.218,0.203
			s-0.215-0.07-0.215-0.177c0-0.105,0.097-0.196,0.217-0.203C31.825,53.447,31.922,53.525,31.922,53.632z M31.899,55.852
			c0,0.105-0.098,0.196-0.218,0.203c-0.12,0.008-0.215-0.071-0.214-0.176c0-0.105,0.097-0.198,0.216-0.204
			C31.803,55.666,31.899,55.747,31.899,55.852z M31.902,54.742c0,0.105-0.098,0.197-0.217,0.205
			c-0.12,0.006-0.215-0.073-0.215-0.178c0-0.104,0.097-0.196,0.216-0.204C31.806,54.557,31.903,54.638,31.902,54.742z
			 M29.958,57.839c-0.026-0.078-0.011-0.224-0.008-0.318c0.053-0.049,0.124-0.037,0.182-0.043c0.338-0.036,0.65-0.099,0.764-0.351
			c0.046-0.103,0.051-0.215,0.051-0.378l0.005-1.493c0-0.075,0.01-0.153,0-0.209c-0.019-0.098-0.135-0.155-0.231-0.178
			c-0.045-0.01-0.108-0.01-0.11-0.037c-0.002-0.031,0.075-0.059,0.111-0.074c0.115-0.054,0.206-0.123,0.232-0.255
			c-0.002-0.801,0.011-1.614,0.003-2.407c-0.039-0.056-0.113-0.035-0.172-0.029c-0.989,0.119-1.523,0.622-1.571,1.642
			c-0.004,0.073,0.007,0.179-0.019,0.207c-0.032,0.031-0.186,0.023-0.262,0.029c-0.106,0.007-0.205,0.019-0.271,0.008
			c-0.032-0.033-0.014-0.089-0.008-0.133c0.089-0.626,0.178-1.252,0.277-1.891c0.014-0.085,0.019-0.237,0.072-0.262
			c0.108-0.053,0.127,0.052,0.177,0.081l4.707-0.294c0.105-0.006,0.23,0.006,0.312-0.018c0.024-0.008,0.064-0.039,0.079-0.06
			c0.019-0.025,0.025-0.077,0.084-0.076c0.106,0.002,0.099,0.143,0.11,0.225c0.089,0.587,0.181,1.178,0.265,1.758
			c0.01,0.075,0.054,0.253,0.022,0.288c-0.022,0.024-0.205,0.022-0.271,0.026c-0.1,0.007-0.241,0.025-0.267,0.007
			c-0.032-0.021-0.022-0.13-0.026-0.192c-0.059-0.965-0.514-1.479-1.499-1.465c-0.067,0.003-0.157-0.002-0.194,0.026
			c-0.049,0.035-0.041,0.165-0.041,0.278l-0.007,1.895c0,0.1-0.018,0.221-0.001,0.312c0.013,0.078,0.089,0.142,0.15,0.165
			c0.022,0.009,0.161,0.015,0.167,0.051c0.008,0.043-0.046,0.053-0.066,0.062c-0.119,0.06-0.222,0.114-0.249,0.262
			c-0.015,0.082-0.004,0.171-0.005,0.263l-0.004,1.334c-0.001,0.188,0,0.355,0.06,0.464c0.069,0.124,0.205,0.186,0.369,0.207
			c0.08,0.013,0.269,0.022,0.412,0.017c0.046-0.004,0.11-0.014,0.128,0.008c0.017,0.022,0.009,0.109,0.009,0.17
			c0,0.062,0.009,0.136-0.019,0.161c-0.026,0.024-0.133,0.021-0.205,0.025l-2.386,0.15C30.523,57.812,30.214,57.839,29.958,57.839z"
			/>
		<path fill-rule="evenodd" clip-rule="evenodd" fill="#2A1D17" d="M40.65,54.797c0,0.105-0.098,0.197-0.217,0.204
			c-0.118,0.008-0.215-0.072-0.214-0.177c0-0.105,0.098-0.197,0.216-0.204C40.554,54.612,40.65,54.693,40.65,54.797z M40.062,52.812
			c0,0.104-0.097,0.195-0.218,0.202c-0.118,0.009-0.215-0.07-0.214-0.176c0-0.105,0.098-0.197,0.216-0.203
			C39.966,52.626,40.062,52.705,40.062,52.812z M40.371,53.811c0,0.104-0.098,0.195-0.217,0.203
			c-0.12,0.008-0.216-0.071-0.216-0.178c0-0.104,0.098-0.195,0.217-0.204C40.274,53.624,40.372,53.704,40.371,53.811z
			 M37.525,54.992c-0.001,0.104-0.097,0.195-0.217,0.203c-0.12,0.007-0.216-0.071-0.215-0.177c0-0.105,0.097-0.197,0.216-0.203
			C37.429,54.808,37.525,54.887,37.525,54.992z M37.01,53.093c0,0.106-0.097,0.196-0.216,0.205c-0.12,0.007-0.216-0.072-0.216-0.178
			c0.001-0.104,0.096-0.196,0.217-0.205C36.915,52.909,37.011,52.988,37.01,53.093z M37.275,54.055c0,0.106-0.098,0.197-0.217,0.204
			c-0.12,0.008-0.215-0.072-0.215-0.176c0-0.106,0.097-0.198,0.216-0.205C37.179,53.87,37.275,53.951,37.275,54.055z M37.867,51.233
			c0.009,0.036,0.003,0.1,0.003,0.165c0,0.058,0.01,0.133-0.014,0.156c-0.033,0.033-0.195,0.028-0.248,0.038
			c-0.182,0.033-0.339,0.1-0.359,0.29c-0.019,0.167,0.036,0.324,0.068,0.447c0.07,0.263,0.157,0.545,0.232,0.802
			c0.041,0.133,0.065,0.276,0.114,0.402c0.016,0.04,0.085,0.11,0.138,0.124c0.046,0.012,0.11-0.003,0.155,0.008
			c0.011,0.044-0.039,0.063-0.059,0.089c-0.02,0.026-0.042,0.062-0.057,0.092c-0.063,0.119-0.014,0.256,0.02,0.378
			c0.103,0.354,0.212,0.741,0.312,1.073c0.026-0.012,0.032-0.048,0.04-0.072c0.323-0.963,0.604-1.809,0.848-2.526
			c-0.174-0.471-0.194-1.121-0.764-1.155c-0.037-0.001-0.087,0.004-0.107-0.015c-0.046-0.041-0.008-0.261-0.007-0.323
			c0.048-0.035,0.112-0.026,0.168-0.029l2.369-0.148c0.09-0.004,0.306-0.041,0.352-0.007c0.029,0.022,0.016,0.096,0.016,0.168
			c0,0.074,0.01,0.149-0.017,0.17c-0.039,0.027-0.167,0.023-0.214,0.031c-0.207,0.03-0.408,0.08-0.502,0.224
			c-0.082,0.123-0.016,0.356,0.021,0.486l0.25,0.866c0.04,0.143,0.06,0.254,0.229,0.261c0.027,0.003,0.121-0.019,0.128,0.013
			c0.005,0.026-0.034,0.048-0.058,0.068c-0.075,0.062-0.126,0.157-0.112,0.291c0.006,0.062,0.035,0.128,0.053,0.191
			c0.11,0.435,0.252,0.896,0.372,1.316c0.036-0.026,0.04-0.083,0.054-0.128c0.276-0.847,0.567-1.694,0.847-2.554
			c0.06-0.183,0.133-0.357,0.157-0.557c0.053-0.441-0.243-0.527-0.637-0.534c-0.036,0-0.127,0.015-0.156-0.008
			c-0.025-0.021-0.016-0.09-0.016-0.158c0-0.067-0.009-0.138,0.009-0.166c0.026-0.04,0.174-0.032,0.253-0.038l1.637-0.103
			c0.065-0.003,0.223-0.035,0.252,0.004c0.023,0.031,0.016,0.29-0.006,0.32c-0.029,0.038-0.161,0.038-0.217,0.053
			c-0.49,0.129-0.597,0.64-0.749,1.087c-0.434,1.282-0.878,2.59-1.326,3.882c-0.064,0.186-0.133,0.382-0.201,0.578
			c-0.024,0.066-0.058,0.151-0.054,0.204c0.003,0.053,0.057,0.067,0.049,0.127c-0.044,0.055-0.132,0.043-0.209,0.047l-0.489,0.031
			c-0.079,0.005-0.165,0.026-0.217-0.014c-0.019-0.061,0.051-0.079,0.058-0.128c0.005-0.036-0.021-0.102-0.035-0.152
			c-0.203-0.708-0.416-1.454-0.61-2.152c-0.049-0.041-0.105-0.09-0.18-0.104c-0.039-0.008-0.096,0.016-0.13-0.014
			c0.016-0.054,0.073-0.073,0.107-0.109c0.043-0.046,0.089-0.113,0.077-0.205c-0.009-0.066-0.037-0.141-0.057-0.215
			c-0.056-0.194-0.124-0.438-0.186-0.62c-0.028,0.021-0.034,0.072-0.048,0.11c-0.382,1.108-0.74,2.241-1.133,3.361
			c-0.024,0.07-0.076,0.18-0.072,0.237c0.002,0.048,0.062,0.048,0.057,0.103c-0.005,0.065-0.117,0.056-0.217,0.062l-0.533,0.033
			c-0.062,0.004-0.202,0.025-0.216-0.025c-0.018-0.068,0.077-0.078,0.088-0.127c0.008-0.033-0.018-0.106-0.035-0.167
			c-0.163-0.592-0.336-1.217-0.499-1.806c-0.061-0.221-0.113-0.438-0.184-0.651c-0.011-0.031-0.056-0.064-0.086-0.092
			c-0.057-0.049-0.094-0.063-0.192-0.061c-0.04,0.002-0.084,0.025-0.098-0.008c0.021-0.054,0.091-0.07,0.138-0.11
			c0.038-0.032,0.093-0.092,0.102-0.139c0.011-0.06-0.017-0.142-0.034-0.203c-0.125-0.439-0.234-0.84-0.356-1.277
			c-0.121-0.436-0.2-0.887-0.648-0.965c-0.067-0.011-0.163-0.011-0.182-0.042c-0.028-0.046-0.016-0.259,0.011-0.299
			c0.045-0.072,0.262-0.056,0.398-0.065l2.201-0.136C37.773,51.214,37.828,51.2,37.867,51.233z"/>
		<path fill-rule="evenodd" clip-rule="evenodd" fill="#2A1D17" d="M43.859,51.009c-0.02,0.008-0.03,0.028-0.024,0.049
			c0.02,0.061,0.004,0.353-0.039,0.372c-0.476,0.02-0.681,0.342-0.715,0.452c-0.018,0.056-1.748,5.127-1.765,5.179l-0.005,0.016
			l0.009,0.016c0.043,0.076,0.088,0.207,0.05,0.244c-0.054,0.053-0.196,0.079-0.245,0.076l-0.753,0.04
			c-0.021,0.001-0.038,0.019-0.038,0.039c0,0.021,0.016,0.036,0.037,0.034l0.748-0.039c0.017,0.002,0.209-0.011,0.3-0.097
			c0.028-0.026,0.039-0.066,0.039-0.105c0-0.087-0.045-0.181-0.067-0.218c0.103-0.299,1.746-5.116,1.761-5.168
			c0.024-0.078,0.205-0.374,0.642-0.395c0.02-0.001,0.045-0.009,0.068-0.041c0.068-0.1,0.059-0.386,0.042-0.434
			C43.9,51.011,43.879,51.001,43.859,51.009z M48.859,50.879c-0.012,0.001-0.021,0.008-0.029,0.017
			c-0.006,0.008-0.009,0.02-0.007,0.03c0.007,0.051,0.11,1.4,0.125,1.824c0.003,0.062-0.006,0.142-0.022,0.166
			c-0.028,0.029-0.226,0.04-0.418,0.051c-0.021,0-0.036,0.017-0.036,0.037c-0.001,0.02,0.014,0.037,0.035,0.037
			c0.311-0.018,0.439-0.027,0.479-0.084c0.042-0.061,0.038-0.199,0.038-0.214l-0.068-1.081
			C48.897,50.876,48.897,50.876,48.859,50.879z M46.41,51.201c-0.685,0.091-1.392,0.804-1.319,2.537
			c0.002,0.021,0.019,0.034,0.04,0.034c0.02-0.003,0.037-0.021,0.035-0.043c-0.071-1.679,0.599-2.369,1.249-2.455
			c0.438-0.058,0.715,0.108,0.746,0.127c0.018,0.011,0.041,0.005,0.051-0.013c0.013-0.018,0.008-0.041-0.009-0.051
			C47.17,51.316,46.872,51.141,46.41,51.201z M45.322,54.083c-0.187,0.125-0.205,0.227-0.203,0.41
			c0.003,0.417,0.208,1.373,0.583,1.714c0.015,0.014,0.038,0.012,0.053-0.003c0.014-0.018,0.014-0.039-0.002-0.054
			c-0.334-0.304-0.556-1.188-0.562-1.661c-0.001-0.171,0.012-0.238,0.168-0.345c0.017-0.011,0.022-0.035,0.014-0.053
			C45.363,54.077,45.341,54.072,45.322,54.083z M49.779,53.798c-0.02,0.002-0.036,0.021-0.036,0.042
			c0.002,0.003,0.016,0.292-0.003,0.386c-0.012,0.055-0.054,0.078-0.15,0.084l-0.029,0.001c-0.107,0.004-0.359,0.014-0.487,0.085
			c-0.132,0.072-0.161,0.148-0.185,0.208l-0.008,0.025c-0.025,0.062-0.027,0.377-0.022,0.926c0.003,0.493,0.006,1.239-0.041,1.313
			c-0.059,0.04-0.2,0.067-0.388-0.001c-0.018-0.006-0.04,0.006-0.047,0.024c-0.007,0.02,0,0.041,0.02,0.047
			c0.212,0.077,0.375,0.043,0.458-0.016c0.066-0.046,0.076-0.382,0.071-1.373c-0.003-0.397-0.005-0.844,0.015-0.896l0.01-0.025
			c0.02-0.054,0.041-0.109,0.147-0.167c0.113-0.063,0.36-0.073,0.454-0.077l0.029-0.001c0.055-0.002,0.195-0.01,0.224-0.146
			c0.02-0.103,0.005-0.394,0.005-0.405C49.818,53.811,49.801,53.796,49.779,53.798z M46.107,54.522
			c-0.001,0.021,0.014,0.039,0.035,0.039l0.08,0.001c0.212,0.001,0.535,0.005,0.633,0.113c0.014,0.016,0.038,0.016,0.052,0.001
			c0.017-0.015,0.018-0.037,0.004-0.053c-0.119-0.129-0.445-0.135-0.683-0.136l-0.08-0.002
			C46.128,54.486,46.11,54.503,46.107,54.522z M44.29,56.601c-0.016,0.015-0.018,0.038-0.005,0.052
			c0.472,0.562,2.424,0.95,3.487,0.062c0.017-0.014,0.02-0.038,0.007-0.053s-0.036-0.016-0.051-0.003
			c-1.033,0.862-2.929,0.487-3.386-0.054C44.329,56.589,44.307,56.588,44.29,56.601z M42.814,54.341
			c-0.004,0.021,0.008,0.04,0.028,0.044c0.102,0.015,0.146,0.121,0.168,0.171l0.009,0.021c0.009,0.017,0.03,0.023,0.048,0.013
			c0.019-0.009,0.027-0.033,0.019-0.051l-0.009-0.018c-0.025-0.055-0.082-0.187-0.219-0.21
			C42.839,54.309,42.819,54.321,42.814,54.341z M41.501,51.575c0,0.02,0.018,0.036,0.038,0.034c0.122-0.006,0.413-0.008,0.51,0.137
			c0.01,0.017,0.033,0.021,0.051,0.008c0.017-0.013,0.021-0.035,0.011-0.051c-0.112-0.17-0.407-0.178-0.572-0.167
			C41.519,51.537,41.501,51.555,41.501,51.575z M41.19,53.324l-0.039,0.054c-0.055,0.069-0.102,0.129-0.079,0.25
			c0.015,0.086,0.211,0.75,0.223,0.791c0.005,0.019,0.026,0.027,0.045,0.021c0.021-0.009,0.032-0.029,0.024-0.047
			c-0.097-0.321-0.208-0.719-0.219-0.784c-0.018-0.087,0.009-0.121,0.062-0.187l0.041-0.057c0.014-0.015,0.009-0.038-0.006-0.051
			C41.227,53.304,41.204,53.31,41.19,53.324z M41.206,51.554c-0.064,0.004-0.444,0.051-0.551,0.177
			c-0.049,0.06-0.094,0.16-0.034,0.312c0.011,0.03,0.183,0.596,0.304,1.017c0.005,0.02,0.026,0.03,0.045,0.023
			c0.019-0.006,0.031-0.027,0.026-0.047c-0.051-0.179-0.293-0.995-0.306-1.024c-0.038-0.096-0.031-0.175,0.019-0.234
			c0.079-0.095,0.417-0.145,0.486-0.148C41.265,51.624,41.274,51.55,41.206,51.554z M39.251,54.876c0,0.021,0.018,0.036,0.038,0.034
			c0.081-0.006,0.163,0.05,0.176,0.074c0.011,0.017,0.032,0.023,0.05,0.012c0.018-0.01,0.025-0.033,0.015-0.051
			c-0.025-0.049-0.134-0.116-0.241-0.108C39.269,54.838,39.251,54.854,39.251,54.876z M39.252,54.278
			c-1.099,3.199-1.036,3.054-1.034,3.064l0.037,0.104l0.006,0.013c0.004,0.012,0.01,0.048-0.003,0.074
			c-0.009,0.015-0.026,0.026-0.05,0.034l-0.915,0.055c-0.021,0.002-0.038,0.02-0.038,0.04s0.017,0.036,0.038,0.035l0.924-0.059
			c0.063-0.017,0.091-0.051,0.104-0.072c0.032-0.06,0.012-0.128,0.009-0.136l-0.008-0.019l-0.031-0.082
			c0.015-0.066,0.659-1.955,1.029-3.033c0.007-0.02-0.002-0.041-0.022-0.045C39.281,54.246,39.259,54.259,39.252,54.278z
			 M36.082,54.638c-0.021,0.002-0.036,0.02-0.035,0.039c0,0.021,0.017,0.036,0.038,0.033c0.062-0.006,0.205,0.045,0.25,0.117
			c0.011,0.016,0.034,0.021,0.052,0.007c0.018-0.01,0.023-0.033,0.012-0.051C36.334,54.687,36.166,54.629,36.082,54.638z
			 M38.168,53.744c-0.046,0.05-0.152,0.179-0.116,0.319l0.165,0.571c-0.006-0.021,0.024,0.023,0.043,0.017s0.022-0.062,0.028-0.041
			l-0.165-0.568c-0.026-0.104,0.059-0.208,0.096-0.248c0.015-0.016,0.015-0.04,0-0.053C38.206,53.727,38.182,53.728,38.168,53.744z
			 M38.166,51.788c-0.003,0.021,0.012,0.038,0.033,0.038c0.093,0.005,0.256,0.042,0.319,0.143c0.012,0.018,0.034,0.023,0.052,0.011
			c0.017-0.012,0.022-0.036,0.012-0.051c-0.084-0.136-0.286-0.171-0.375-0.177C38.188,51.751,38.168,51.768,38.166,51.788z
			 M37.984,51.738l-0.099,0.018c-0.152,0.022-0.226,0.009-0.284,0.059c-0.093,0.08-0.123,0.205-0.092,0.299l0.037,0.135
			c0.359,1.266,0.368,1.275,0.377,1.286c0.012,0.013,0.031,0.015,0.047,0.004c0.015-0.012,0.021-0.034,0.014-0.049
			c-0.02-0.048-0.28-0.965-0.366-1.268l-0.038-0.136c-0.024-0.068,0.001-0.158,0.068-0.217c0.046-0.038,0.148-0.025,0.243-0.039
			L38,51.81C38.074,51.79,38.041,51.724,37.984,51.738z M35.177,51.958c-0.02,0.004-0.036,0.022-0.034,0.043
			c0.002,0.019,0.02,0.034,0.04,0.032c0.101-0.016,0.278,0.079,0.342,0.146c0.013,0.015,0.036,0.015,0.052,0.001
			c0.015-0.014,0.017-0.037,0.003-0.052C35.508,52.049,35.308,51.94,35.177,51.958z M34.695,51.472
			c-0.02,0.004-0.034,0.023-0.03,0.044l0.328,2.133c-0.001-0.002-0.015,0.079-0.092,0.081l-0.488,0.026
			c-0.021,0.002-0.037,0.019-0.038,0.04c0,0.021,0.016,0.036,0.038,0.036l0.486-0.029c0.116,0,0.159-0.104,0.167-0.16l-0.33-2.144
			C34.734,51.479,34.715,51.467,34.695,51.472z M32.841,52.193c-0.042,0.008-0.085,0.02-0.112,0.048l-0.019,0.064
			c-0.001,0.001,0.014,0.023,0.011,2.145c0,0.02,0.017,0.036,0.036,0.034c0.021-0.001,0.036-0.018,0.036-0.038
			c0.001-0.725-0.014-2.084-0.011-2.132l0.003-0.03c0.005-0.005,0.027-0.014,0.064-0.02c0.059-0.011,0.562,0.02,0.642,0.138
			c0.012,0.016,0.034,0.02,0.051,0.007c0.017-0.013,0.021-0.036,0.01-0.051C33.441,52.192,32.871,52.188,32.841,52.193z
			 M32.974,54.836c-0.1,0.02-0.292,0.123-0.307,0.352l0.014,1.783c0,0.019,0.017,0.034,0.037,0.033
			c0.021-0.002,0.038-0.02,0.038-0.04l-0.014-1.778c0.014-0.225,0.234-0.275,0.244-0.277c0.019-0.006,0.033-0.023,0.03-0.045
			C33.012,54.844,32.994,54.83,32.974,54.836z M33.624,57.539l-0.001,0.217c0,0.005-0.003,0.083-0.071,0.117l-3.367,0.21
			c-0.02,0.001-0.037,0.019-0.037,0.039s0.017,0.037,0.036,0.035l3.384-0.211c0.127-0.055,0.129-0.188,0.129-0.194l0.001-0.216
			c0-0.021-0.017-0.036-0.036-0.035C33.641,57.502,33.624,57.521,33.624,57.539z M30.533,55.052c-0.004,0.019,0.01,0.037,0.03,0.038
			c0.086,0.008,0.205,0.145,0.217,0.17c0.009,0.017,0.032,0.024,0.049,0.014c0.017-0.009,0.027-0.029,0.019-0.047
			c-0.013-0.029-0.152-0.199-0.275-0.208C30.554,55.016,30.534,55.031,30.533,55.052z M30.314,52.418
			c-0.21,0.085-0.426,0.188-0.567,0.363c-0.292,0.359-0.332,0.897-0.354,1.187c-0.004,0.07-0.009,0.143-0.017,0.159
			c-0.006,0.009-0.05,0.019-0.092,0.019l-0.499,0.031c-0.02,0-0.036,0.017-0.036,0.037c0,0.022,0.017,0.037,0.036,0.035l0.495-0.03
			c0.026,0.001,0.128,0,0.161-0.062c0.014-0.025,0.018-0.072,0.026-0.188c0.021-0.281,0.06-0.805,0.336-1.144
			c0.131-0.161,0.333-0.258,0.534-0.338c0.174-0.07,0.332-0.118,0.445-0.109c0.02,0.004,0.039-0.011,0.042-0.032
			c0.002-0.021-0.011-0.037-0.031-0.04C30.658,52.294,30.481,52.351,30.314,52.418z"/>
		<path fill-rule="evenodd" clip-rule="evenodd" fill="#2A1D17" d="M40.269,44.404c-0.078-0.042-0.23-0.021-0.327-0.019
			c0.343,0.102,0.795,0.222,1.186,0.346c0.038-0.078-0.128-0.167-0.138-0.262c0.111,0.011,0.243,0.199,0.215,0.34
			c-0.459-0.101-0.938-0.257-1.4-0.367c-0.179-0.233-0.145-0.555-0.256-0.818c-0.007-0.106-0.058-0.259-0.098-0.42
			c-0.032-0.129-0.114-0.33-0.065-0.424c0.084-0.156,0.336-0.129,0.516-0.146c0.179-0.019,0.393-0.018,0.576-0.028
			c0.378,0.005,0.733-0.022,1.124,0.012c2.354,0.018,4.931,0.549,7.631,1.486c2.165,0.753,3.94,1.85,5.305,3.021
			c-0.019,0.06-0.019,0.112-0.025,0.166c-0.243,0.229-0.502,0.423-0.76,0.62c-0.253,0.198-0.485,0.444-0.759,0.589
			c-1.221-0.496-2.303-0.647-3.338-0.677c0.148-0.308,0.446-0.488,0.713-0.59c-0.713-0.197-1.342-0.18-2.052-0.372
			c0.383-0.319,0.917-0.257,1.389-0.354c0.208,0.013,0.396-0.02,0.613,0.021c-1.441-0.746-3.134-1.353-4.953-1.702
			c-1.769-0.34-3.475-0.453-5.071-0.443c0.053,0.064,0.22-0.021,0.229,0.091c-0.003,0.041-0.388,0-0.269-0.075
			C40.26,44.402,40.265,44.403,40.269,44.404z M53.289,46.247c-1.146-0.765-2.424-1.473-3.992-2.025
			c-3.138-1.104-5.799-1.578-8.522-1.509c-0.376,0.002-0.765-0.031-1.109,0.052c0.003,0.265,0.097,0.495,0.145,0.742
			c0.015,0.125,0.055,0.242,0.076,0.364c0.045,0.118,0.028,0.26,0.11,0.362c2.094-0.001,4.26,0.194,6.631,0.778
			c2.462,0.605,4.906,1.83,6.355,3.199c0.34-0.286,0.693-0.584,1.028-0.864c0.107-0.091,0.254-0.172,0.313-0.306
			C54.067,46.74,53.6,46.524,53.289,46.247z M51.992,47.529c-0.377-0.268-0.799-0.526-1.243-0.75
			c-0.815-0.137-1.595-0.184-2.261,0.055c0.762,0.184,1.507,0.173,2.263,0.44c-0.337,0.073-0.646,0.216-0.913,0.464
			c0.976,0.048,2.093,0.229,3.09,0.657C52.739,48.046,52.363,47.791,51.992,47.529z"/>
		<path fill-rule="evenodd" clip-rule="evenodd" fill="#2A1D17" d="M37.625,44.586c0.112,0.057-0.257,0.145-0.261,0.106
			c0.012-0.109,0.171-0.048,0.224-0.117c-1.54,0.197-3.182,0.521-4.89,1.069c-1.757,0.565-3.393,1.354-4.794,2.245
			c0.21-0.066,0.392-0.06,0.59-0.098c0.453,0.031,0.968-0.096,1.333,0.157c-0.688,0.273-1.292,0.337-1.982,0.615
			c0.255,0.062,0.54,0.196,0.678,0.469c-0.998,0.161-2.042,0.442-3.224,1.067c-0.262-0.101-0.482-0.306-0.724-0.46
			c-0.245-0.153-0.49-0.305-0.72-0.491c-0.006-0.051-0.006-0.1-0.023-0.153c1.333-1.284,3.06-2.55,5.156-3.54
			c2.614-1.235,5.103-2.066,7.368-2.384c0.377-0.083,0.718-0.103,1.083-0.156c0.175-0.014,0.38-0.042,0.552-0.047
			c0.174-0.008,0.417-0.066,0.496,0.071c0.045,0.083-0.037,0.283-0.07,0.411c-0.041,0.157-0.092,0.308-0.101,0.41
			c-0.109,0.263-0.082,0.563-0.257,0.807c-0.447,0.165-0.911,0.373-1.354,0.527c-0.026-0.13,0.105-0.326,0.212-0.351
			c-0.011,0.092-0.172,0.197-0.137,0.267c0.378-0.167,0.815-0.34,1.147-0.479c-0.094,0.009-0.239,0.01-0.314,0.06
			C37.617,44.59,37.621,44.588,37.625,44.586z M24.041,48.887c0.054,0.119,0.195,0.177,0.297,0.248
			c0.319,0.224,0.652,0.46,0.976,0.688c1.417-1.482,3.788-2.955,6.168-3.844c2.292-0.855,4.38-1.318,6.396-1.585
			c0.079-0.106,0.066-0.239,0.109-0.357c0.023-0.119,0.063-0.233,0.079-0.354c0.051-0.24,0.144-0.468,0.151-0.722
			c-0.331-0.034-0.706,0.047-1.067,0.093c-2.621,0.283-5.19,1.072-8.227,2.52c-1.52,0.724-2.76,1.559-3.876,2.43
			C24.746,48.307,24.292,48.569,24.041,48.887z M25.362,49.993c0.966-0.533,2.045-0.849,2.985-1.02
			c-0.254-0.2-0.548-0.295-0.871-0.322c0.731-0.349,1.449-0.435,2.185-0.706c-0.638-0.14-1.389,0.003-2.176,0.237
			c-0.43,0.269-0.841,0.568-1.209,0.87C25.916,49.348,25.551,49.637,25.362,49.993z"/>
		<path fill="#2A1D17" d="M38.34,43.47c-0.008,0.003-0.012,0.013-0.01,0.021c0.003,0.008,0.012,0.011,0.021,0.007
			c0.517-0.238,1.159-0.109,1.166-0.108c0.007,0.002,0.016-0.004,0.018-0.012c0.002-0.009-0.002-0.017-0.011-0.018
			C39.517,43.359,38.867,43.229,38.34,43.47z"/>
		<path fill="#2A1D17" d="M38.045,44.521c-0.007,0.004-0.013,0.012-0.01,0.019c0.002,0.008,0.011,0.012,0.018,0.009
			c1.068-0.398,1.851-0.101,1.858-0.098s0.017-0.001,0.02-0.008c0.003-0.008,0-0.016-0.007-0.02
			C39.916,44.421,39.123,44.12,38.045,44.521z"/>
		<path fill-rule="evenodd" clip-rule="evenodd" fill="#2A1D17" d="M53.828,46.717c-0.011,0.079-0.2,0.2-0.294,0.264
			c-0.098,0.12-0.225,0.164-0.321,0.286c-0.114,0.073-0.221,0.173-0.327,0.268c-0.112,0.044-0.221,0.246-0.332,0.203
			C52.981,47.403,53.388,47.017,53.828,46.717z"/>
		<path fill-rule="evenodd" clip-rule="evenodd" fill="#2A1D17" d="M53.966,46.803c0.024,0.005,0.019,0.021,0.035,0.029
			c-0.214,0.184-0.431,0.356-0.644,0.539c-0.112,0.083-0.212,0.195-0.327,0.269c-0.112,0.07-0.191,0.232-0.329,0.234
			C53.114,47.5,53.542,47.156,53.966,46.803z"/>
		<path fill-rule="evenodd" clip-rule="evenodd" fill="#2A1D17" d="M54.091,46.917c-0.006,0.085-0.207,0.168-0.282,0.269
			c-0.331,0.26-0.648,0.551-0.984,0.802c0.023-0.114,0.164-0.187,0.268-0.276c0.104-0.085,0.22-0.174,0.309-0.259
			c0.215-0.163,0.419-0.347,0.631-0.512c0.012-0.009,0.024-0.016,0.031-0.035C54.072,46.91,54.081,46.912,54.091,46.917z"/>
		<path fill-rule="evenodd" clip-rule="evenodd" fill="#2A1D17" d="M54.188,46.987c0.007,0.01,0.015,0.021,0.033,0.028
			c-0.434,0.343-0.847,0.741-1.292,1.062c-0.004-0.1,0.197-0.171,0.268-0.276c0.113-0.068,0.209-0.182,0.323-0.253
			c0.202-0.189,0.417-0.353,0.622-0.531C54.153,47,54.175,47.005,54.188,46.987z"/>
		<path fill-rule="evenodd" clip-rule="evenodd" fill="#2A1D17" d="M50.57,46.82c0.061,0.045,0.015,0.229,0.009,0.338
			C50.54,47.061,50.595,46.924,50.57,46.82z"/>
		<path fill-rule="evenodd" clip-rule="evenodd" fill="#2A1D17" d="M50.451,46.803c0.056,0.041,0.004,0.218,0.001,0.318
			C50.407,47.035,50.473,46.9,50.451,46.803z"/>
		<path fill-rule="evenodd" clip-rule="evenodd" fill="#2A1D17" d="M40.238,42.77c0.024,0.004,0.018,0.021,0.035,0.029
			c0.053,0.234,0.118,0.465,0.163,0.702c0.028,0.117,0.064,0.23,0.082,0.351c0.016,0.107,0.099,0.244,0.055,0.34
			C40.432,43.737,40.306,43.218,40.238,42.77z"/>
		<path fill-rule="evenodd" clip-rule="evenodd" fill="#2A1D17" d="M51.4,47.213c0.035,0.207,0.003,0.439-0.011,0.664
			C51.365,47.667,51.396,47.437,51.4,47.213z"/>
		<path fill-rule="evenodd" clip-rule="evenodd" fill="#2A1D17" d="M50.195,46.766c0.053,0.03,0.03,0.186,0.02,0.278
			C50.19,46.959,50.213,46.854,50.195,46.766z"/>
		<path fill-rule="evenodd" clip-rule="evenodd" fill="#2A1D17" d="M51.497,47.284c0.062,0.19,0.013,0.427,0.054,0.625
			c-0.081-0.042-0.058-0.19-0.06-0.293C51.488,47.5,51.504,47.382,51.497,47.284z"/>
		<path fill-rule="evenodd" clip-rule="evenodd" fill="#2A1D17" d="M51.584,47.335c0.101,0.168,0.037,0.403,0.048,0.608
			C51.565,47.761,51.591,47.541,51.584,47.335z"/>
		<path fill-rule="evenodd" clip-rule="evenodd" fill="#2A1D17" d="M40.064,42.765c0.148,0.462,0.241,0.948,0.328,1.435
			c-0.133-0.213-0.108-0.489-0.203-0.718c-0.011-0.127-0.05-0.243-0.076-0.364C40.111,43,40.026,42.862,40.064,42.765z"/>
		<path fill-rule="evenodd" clip-rule="evenodd" fill="#2A1D17" d="M50.069,46.764c0.048,0.02,0.024,0.166,0.018,0.246
			C50.052,46.94,50.089,46.84,50.069,46.764z"/>
		<path fill-rule="evenodd" clip-rule="evenodd" fill="#2A1D17" d="M51.683,47.405c0.033,0.008,0.018,0.036,0.062,0.04
			c-0.013,0.182,0.015,0.346,0.002,0.526c-0.106-0.046-0.015-0.176-0.063-0.248c0.018-0.099-0.011-0.18-0.005-0.273
			C51.674,47.438,51.673,47.424,51.683,47.405z"/>
		<path fill-rule="evenodd" clip-rule="evenodd" fill="#2A1D17" d="M49.941,46.761c0.065,0,0.008,0.144,0.023,0.2
			C49.895,46.964,49.98,46.808,49.941,46.761z"/>
		<path fill-rule="evenodd" clip-rule="evenodd" fill="#2A1D17" d="M51.778,47.476c0.01,0.003,0.017,0.007,0.026,0.01
			c0.043,0.147,0.033,0.376,0.028,0.505C51.733,47.853,51.801,47.646,51.778,47.476z"/>
		<path fill-rule="evenodd" clip-rule="evenodd" fill="#2A1D17" d="M39.918,42.77c0.135,0.443,0.253,0.951,0.319,1.385
			c-0.107-0.202-0.113-0.445-0.182-0.662c-0.054-0.222-0.09-0.452-0.162-0.669C39.913,42.788,39.884,42.787,39.918,42.77z"/>
		<path fill-rule="evenodd" clip-rule="evenodd" fill="#2A1D17" d="M51.865,47.527c0.143,0.116,0.071,0.323,0.082,0.494
			C51.811,47.901,51.91,47.686,51.865,47.527z"/>
		<path fill-rule="evenodd" clip-rule="evenodd" fill="#2A1D17" d="M52.028,47.591c0.03,0.139,0.041,0.285,0.026,0.441
			c-0.128-0.079-0.023-0.285-0.077-0.397C51.984,47.594,52.016,47.618,52.028,47.591z"/>
		<path fill-rule="evenodd" clip-rule="evenodd" fill="#2A1D17" d="M52.084,47.646c0.03-0.033,0.034,0.035,0.083,0.031
			c-0.004,0.134,0,0.264-0.004,0.397C52.036,47.972,52.133,47.779,52.084,47.646z"/>
		<path fill-rule="evenodd" clip-rule="evenodd" fill="#2A1D17" d="M39.786,42.78c0.139,0.445,0.253,0.958,0.312,1.398
			C39.958,43.735,39.846,43.222,39.786,42.78z"/>
		<path fill-rule="evenodd" clip-rule="evenodd" fill="#2A1D17" d="M52.207,47.726c0.011,0.004,0.019,0.007,0.028,0.011
			c0.079,0.099,0.018,0.256,0.055,0.373c-0.015,0.029-0.06-0.017-0.086-0.019C52.222,47.963,52.2,47.851,52.207,47.726z"/>
		<path fill-rule="evenodd" clip-rule="evenodd" fill="#2A1D17" d="M49.683,46.737c0.029,0.054,0.018,0.124,0.007,0.193
			C49.657,46.879,49.68,46.803,49.683,46.737z"/>
		<path fill-rule="evenodd" clip-rule="evenodd" fill="#2A1D17" d="M52.318,47.803c0.039,0.024,0.064,0.053,0.091,0.082
			c-0.02,0.098-0.005,0.178,0.011,0.26c-0.026,0.013-0.06,0.007-0.095-0.005C52.324,48.027,52.314,47.917,52.318,47.803z"/>
		<path fill-rule="evenodd" clip-rule="evenodd" fill="#2A1D17" d="M52.447,47.901c0.128,0.142,0.294,0.269,0.424,0.407
			c-0.139-0.021-0.245-0.067-0.418-0.135C52.461,48.08,52.442,47.996,52.447,47.901z"/>
		<path fill-rule="evenodd" clip-rule="evenodd" fill="#2A1D17" d="M49.402,46.721c0.035,0.042,0.008,0.113,0,0.174
			C49.368,46.852,49.398,46.78,49.402,46.721z"/>
		<path fill-rule="evenodd" clip-rule="evenodd" fill="#2A1D17" d="M49.149,46.748c0.024,0.034,0.024,0.077,0.006,0.129
			C49.149,46.835,49.127,46.8,49.149,46.748z"/>
		<path fill-rule="evenodd" clip-rule="evenodd" fill="#2A1D17" d="M49.038,46.75c0.029,0.032,0.01,0.083,0.004,0.13
			C49.019,46.846,49.018,46.803,49.038,46.75z"/>
		<path fill-rule="evenodd" clip-rule="evenodd" fill="#2A1D17" d="M48.917,46.766c0.023,0.024,0.023,0.057,0.003,0.098
			C48.899,46.84,48.898,46.808,48.917,46.766z"/>
		<path fill-rule="evenodd" clip-rule="evenodd" fill="#2A1D17" d="M50.53,47.409c0.03,0.087,0.028,0.242,0,0.318
			C50.516,47.627,50.521,47.518,50.53,47.409z"/>
		<path fill-rule="evenodd" clip-rule="evenodd" fill="#2A1D17" d="M50.425,47.431c0.006,0.092,0.021,0.181-0.001,0.285
			C50.414,47.624,50.39,47.54,50.425,47.431z"/>
		<path fill-rule="evenodd" clip-rule="evenodd" fill="#2A1D17" d="M50.183,47.541c0.018,0.049,0.006,0.108,0.008,0.162
			C50.134,47.67,50.175,47.599,50.183,47.541z"/>
		<path fill-rule="evenodd" clip-rule="evenodd" fill="#2A1D17" d="M40.909,44.438c0.021,0.053,0.065,0.145,0.029,0.186
			C40.892,44.581,40.853,44.487,40.909,44.438z"/>
		<path fill-rule="evenodd" clip-rule="evenodd" fill="#2A1D17" d="M40.815,44.432c0.046,0.036,0.07,0.126,0.041,0.16
			C40.811,44.555,40.786,44.464,40.815,44.432z"/>
		<path fill-rule="evenodd" clip-rule="evenodd" fill="#2A1D17" d="M40.723,44.427c0.067,0.027,0.071,0.126,0.04,0.159
			C40.71,44.548,40.717,44.487,40.723,44.427z"/>
		<path fill-rule="evenodd" clip-rule="evenodd" fill="#2A1D17" d="M40.648,44.413c0.056,0.035,0.035,0.103,0.041,0.159
			C40.62,44.542,40.641,44.476,40.648,44.413z"/>
		<path fill-rule="evenodd" clip-rule="evenodd" fill="#2A1D17" d="M41.014,44.558c0.025,0.027,0.042,0.09-0.001,0.111
			C40.987,44.644,40.969,44.581,41.014,44.558z"/>
		<path fill-rule="evenodd" clip-rule="evenodd" fill="#2A1D17" d="M40.569,44.414c0.031,0.026,0.037,0.065,0.031,0.108
			C40.546,44.504,40.522,44.438,40.569,44.414z"/>
		<path fill-rule="evenodd" clip-rule="evenodd" fill="#2A1D17" d="M51.053,47.027c0.062,0.023,0.011,0.104,0.006,0.162
			c-0.01,0.163-0.031,0.395-0.027,0.562c-0.015,0.01-0.027,0.019-0.013,0.028C50.973,47.595,51.062,47.262,51.053,47.027z"/>
		<path fill-rule="evenodd" clip-rule="evenodd" fill="#2A1D17" d="M51.195,47.102c0.011,0.233-0.015,0.481-0.041,0.73
			C51.142,47.599,51.169,47.35,51.195,47.102z"/>
		<path fill-rule="evenodd" clip-rule="evenodd" fill="#2A1D17" d="M50.33,46.788c0.065,0.024-0.017,0.204,0.02,0.277
			C50.292,47.038,50.341,46.871,50.33,46.788z"/>
		<path fill-rule="evenodd" clip-rule="evenodd" fill="#2A1D17" d="M51.297,47.157c0.021,0.211-0.025,0.451-0.01,0.665
			c-0.058,0.004-0.025-0.095-0.025-0.122C51.262,47.538,51.278,47.327,51.297,47.157z"/>
		<path fill-rule="evenodd" clip-rule="evenodd" fill="#2A1D17" d="M49.83,46.73c0.014,0.065,0,0.139-0.018,0.216
			C49.801,46.881,49.81,46.808,49.83,46.73z"/>
		<path fill-rule="evenodd" clip-rule="evenodd" fill="#2A1D17" d="M49.543,46.729c0.045,0.034-0.006,0.111,0.006,0.161
			C49.53,46.887,49.524,46.785,49.543,46.729z"/>
		<path fill-rule="evenodd" clip-rule="evenodd" fill="#2A1D17" d="M49.269,46.731c0.034,0.037,0.001,0.102,0.014,0.148
			C49.236,46.848,49.272,46.781,49.269,46.731z"/>
		<path fill-rule="evenodd" clip-rule="evenodd" fill="#2A1D17" d="M50.293,47.474c0.034,0.057,0.005,0.192-0.011,0.235
			C50.263,47.661,50.284,47.562,50.293,47.474z"/>
		<path fill-rule="evenodd" clip-rule="evenodd" fill="#2A1D17" d="M24.521,48.518c0.011,0.073,0.191,0.164,0.28,0.212
			c0.091,0.103,0.213,0.128,0.303,0.23c0.112,0.054,0.21,0.135,0.312,0.211c0.109,0.027,0.209,0.204,0.316,0.15
			C25.327,49.059,24.941,48.745,24.521,48.518z"/>
		<path fill-rule="evenodd" clip-rule="evenodd" fill="#2A1D17" d="M24.389,48.617c-0.023,0.006-0.018,0.022-0.035,0.031
			c0.202,0.146,0.409,0.283,0.611,0.43c0.107,0.063,0.201,0.156,0.311,0.211c0.107,0.053,0.18,0.196,0.312,0.181
			C25.197,49.168,24.791,48.896,24.389,48.617z"/>
		<path fill-rule="evenodd" clip-rule="evenodd" fill="#2A1D17" d="M24.267,48.74c0.004,0.081,0.195,0.134,0.266,0.22
			c0.314,0.203,0.617,0.438,0.935,0.633c-0.02-0.105-0.153-0.156-0.253-0.228c-0.097-0.067-0.207-0.136-0.292-0.206
			c-0.202-0.127-0.397-0.276-0.599-0.405c-0.011-0.006-0.022-0.013-0.03-0.03C24.284,48.731,24.276,48.735,24.267,48.74z"/>
		<path fill-rule="evenodd" clip-rule="evenodd" fill="#2A1D17" d="M24.173,48.819c-0.007,0.012-0.015,0.022-0.034,0.032
			c0.413,0.269,0.806,0.594,1.228,0.84c0.004-0.095-0.188-0.137-0.252-0.228c-0.109-0.051-0.2-0.145-0.307-0.199
			c-0.193-0.152-0.396-0.28-0.592-0.424C24.205,48.828,24.185,48.835,24.173,48.819z"/>
		<path fill-rule="evenodd" clip-rule="evenodd" fill="#2A1D17" d="M27.656,48.198c-0.058,0.05-0.018,0.219-0.013,0.321
			C27.683,48.421,27.632,48.3,27.656,48.198z"/>
		<path fill-rule="evenodd" clip-rule="evenodd" fill="#2A1D17" d="M27.773,48.168c-0.055,0.044-0.007,0.207-0.006,0.302
			C27.812,48.38,27.75,48.263,27.773,48.168z"/>
		<path fill-rule="evenodd" clip-rule="evenodd" fill="#2A1D17" d="M37.667,43.04c-0.023,0.007-0.017,0.022-0.034,0.032
			c-0.054,0.229-0.12,0.455-0.168,0.685c-0.028,0.114-0.065,0.227-0.084,0.343c-0.016,0.104-0.1,0.243-0.057,0.329
			C37.465,43.981,37.594,43.472,37.667,43.04z"/>
		<path fill-rule="evenodd" clip-rule="evenodd" fill="#2A1D17" d="M26.853,48.678c-0.037,0.198-0.011,0.415,0,0.627
			C26.878,49.103,26.853,48.887,26.853,48.678z"/>
		<path fill-rule="evenodd" clip-rule="evenodd" fill="#2A1D17" d="M28.019,48.099c-0.052,0.036-0.031,0.18-0.022,0.267
			C28.022,48.282,28.001,48.186,28.019,48.099z"/>
		<path fill-rule="evenodd" clip-rule="evenodd" fill="#2A1D17" d="M26.758,48.755c-0.062,0.189-0.019,0.407-0.061,0.601
			c0.079-0.05,0.057-0.188,0.061-0.286C26.763,48.96,26.751,48.85,26.758,48.755z"/>
		<path fill-rule="evenodd" clip-rule="evenodd" fill="#2A1D17" d="M26.672,48.816c-0.099,0.171-0.041,0.386-0.054,0.582
			C26.685,49.217,26.662,49.013,26.672,48.816z"/>
		<path fill-rule="evenodd" clip-rule="evenodd" fill="#2A1D17" d="M37.834,43.013c-0.149,0.457-0.246,0.929-0.339,1.401
			c0.132-0.217,0.114-0.478,0.208-0.707c0.011-0.122,0.05-0.236,0.078-0.354C37.787,43.242,37.87,43.101,37.834,43.013z"/>
		<path fill-rule="evenodd" clip-rule="evenodd" fill="#2A1D17" d="M28.14,48.08c-0.047,0.025-0.024,0.161-0.02,0.234
			C28.154,48.245,28.122,48.155,28.14,48.08z"/>
		<path fill-rule="evenodd" clip-rule="evenodd" fill="#2A1D17" d="M26.579,48.894c-0.034,0.012-0.02,0.037-0.061,0.048
			c0.009,0.169-0.019,0.329-0.01,0.498c0.104-0.059,0.017-0.169,0.065-0.244c-0.016-0.091,0.011-0.171,0.008-0.259
			C26.585,48.924,26.587,48.912,26.579,48.894z"/>
		<path fill-rule="evenodd" clip-rule="evenodd" fill="#2A1D17" d="M28.263,48.062c-0.062,0.008-0.01,0.137-0.025,0.192
			C28.306,48.248,28.226,48.111,28.263,48.062z"/>
		<path fill-rule="evenodd" clip-rule="evenodd" fill="#2A1D17" d="M26.485,48.974c-0.009,0.004-0.017,0.009-0.027,0.014
			c-0.043,0.146-0.037,0.36-0.034,0.481C26.521,49.325,26.458,49.137,26.485,48.974z"/>
		<path fill-rule="evenodd" clip-rule="evenodd" fill="#2A1D17" d="M37.974,42.999c-0.136,0.436-0.257,0.932-0.329,1.353
			c0.107-0.205,0.118-0.435,0.186-0.649c0.057-0.218,0.095-0.442,0.167-0.655C37.98,43.015,38.007,43.011,37.974,42.999z"/>
		<path fill-rule="evenodd" clip-rule="evenodd" fill="#2A1D17" d="M26.398,49.034c-0.138,0.129-0.072,0.314-0.086,0.478
			C26.447,49.381,26.355,49.188,26.398,49.034z"/>
		<path fill-rule="evenodd" clip-rule="evenodd" fill="#2A1D17" d="M26.241,49.116c-0.031,0.134-0.043,0.274-0.032,0.419
			c0.124-0.09,0.028-0.271,0.081-0.385C26.283,49.112,26.252,49.14,26.241,49.116z"/>
		<path fill-rule="evenodd" clip-rule="evenodd" fill="#2A1D17" d="M26.187,49.174c-0.028-0.027-0.033,0.038-0.079,0.041
			c0.002,0.125-0.005,0.249-0.004,0.375C26.228,49.478,26.137,49.307,26.187,49.174z"/>
		<path fill-rule="evenodd" clip-rule="evenodd" fill="#2A1D17" d="M38.102,42.992c-0.14,0.439-0.258,0.939-0.322,1.364
			C37.922,43.918,38.038,43.416,38.102,42.992z"/>
		<path fill-rule="evenodd" clip-rule="evenodd" fill="#2A1D17" d="M26.067,49.266c-0.009,0.006-0.018,0.01-0.027,0.015
			c-0.078,0.104-0.021,0.245-0.06,0.36c0.015,0.025,0.059-0.024,0.085-0.029C26.049,49.492,26.073,49.383,26.067,49.266z"/>
		<path fill-rule="evenodd" clip-rule="evenodd" fill="#2A1D17" d="M28.513,48.006c-0.03,0.055-0.019,0.12-0.011,0.185
			C28.535,48.138,28.514,48.068,28.513,48.006z"/>
		<path fill-rule="evenodd" clip-rule="evenodd" fill="#2A1D17" d="M25.959,49.353c-0.038,0.026-0.063,0.058-0.088,0.09
			c0.016,0.086,0.002,0.166-0.014,0.247c0.024,0.007,0.056-0.001,0.089-0.017C25.95,49.566,25.959,49.46,25.959,49.353z"/>
		<path fill-rule="evenodd" clip-rule="evenodd" fill="#2A1D17" d="M25.832,49.463c-0.123,0.151-0.284,0.291-0.413,0.44
			c0.133-0.039,0.238-0.096,0.405-0.182C25.818,49.634,25.838,49.552,25.832,49.463z"/>
		<path fill-rule="evenodd" clip-rule="evenodd" fill="#2A1D17" d="M28.784,47.954c-0.037,0.046-0.011,0.109-0.004,0.167
			C28.814,48.075,28.785,48.011,28.784,47.954z"/>
		<path fill-rule="evenodd" clip-rule="evenodd" fill="#2A1D17" d="M29.026,47.948c-0.023,0.035-0.025,0.077-0.008,0.123
			C29.023,48.031,29.046,47.996,29.026,47.948z"/>
		<path fill-rule="evenodd" clip-rule="evenodd" fill="#2A1D17" d="M29.134,47.936c-0.029,0.034-0.011,0.081-0.006,0.124
			C29.15,48.024,29.152,47.983,29.134,47.936z"/>
		<path fill-rule="evenodd" clip-rule="evenodd" fill="#2A1D17" d="M29.249,47.936c-0.023,0.025-0.023,0.056-0.005,0.092
			C29.265,48.003,29.267,47.973,29.249,47.936z"/>
		<path fill-rule="evenodd" clip-rule="evenodd" fill="#2A1D17" d="M27.687,48.75c-0.03,0.087-0.031,0.234-0.005,0.303
			C27.698,48.955,27.694,48.853,27.687,48.75z"/>
		<path fill-rule="evenodd" clip-rule="evenodd" fill="#2A1D17" d="M27.788,48.758c-0.007,0.088-0.024,0.174-0.003,0.27
			C27.794,48.94,27.82,48.857,27.788,48.758z"/>
		<path fill-rule="evenodd" clip-rule="evenodd" fill="#2A1D17" d="M28.02,48.832c-0.017,0.048-0.008,0.102-0.01,0.153
			C28.064,48.948,28.025,48.886,28.02,48.832z"/>
		<path fill-rule="evenodd" clip-rule="evenodd" fill="#2A1D17" d="M36.995,44.706c-0.022,0.052-0.064,0.145-0.029,0.18
			C37.009,44.838,37.049,44.744,36.995,44.706z"/>
		<path fill-rule="evenodd" clip-rule="evenodd" fill="#2A1D17" d="M37.085,44.688c-0.046,0.039-0.069,0.129-0.041,0.155
			C37.089,44.804,37.113,44.714,37.085,44.688z"/>
		<path fill-rule="evenodd" clip-rule="evenodd" fill="#2A1D17" d="M37.174,44.671c-0.065,0.034-0.07,0.128-0.041,0.155
			C37.185,44.785,37.178,44.728,37.174,44.671z"/>
		<path fill-rule="evenodd" clip-rule="evenodd" fill="#2A1D17" d="M37.246,44.648c-0.056,0.041-0.036,0.102-0.04,0.156
			C37.271,44.767,37.252,44.707,37.246,44.648z"/>
		<path fill-rule="evenodd" clip-rule="evenodd" fill="#2A1D17" d="M36.893,44.833c-0.024,0.029-0.043,0.09-0.001,0.105
			C36.916,44.909,36.935,44.848,36.893,44.833z"/>
		<path fill-rule="evenodd" clip-rule="evenodd" fill="#2A1D17" d="M37.323,44.639c-0.031,0.03-0.038,0.065-0.032,0.106
			C37.344,44.721,37.367,44.656,37.323,44.639z"/>
		<path fill-rule="evenodd" clip-rule="evenodd" fill="#2A1D17" d="M27.189,48.457c-0.06,0.029-0.012,0.101-0.009,0.154
			c0.008,0.152,0.024,0.369,0.02,0.528c0.013,0.007,0.025,0.014,0.011,0.024C27.257,48.983,27.177,48.68,27.189,48.457z"/>
		<path fill-rule="evenodd" clip-rule="evenodd" fill="#2A1D17" d="M27.051,48.544c-0.014,0.223,0.007,0.455,0.028,0.687
			C27.093,49.008,27.073,48.778,27.051,48.544z"/>
		<path fill-rule="evenodd" clip-rule="evenodd" fill="#2A1D17" d="M27.888,48.138c-0.062,0.032,0.014,0.191-0.022,0.265
			C27.923,48.369,27.877,48.218,27.888,48.138z"/>
		<path fill-rule="evenodd" clip-rule="evenodd" fill="#2A1D17" d="M26.951,48.611c-0.022,0.203,0.018,0.422,0.001,0.628
			c0.055-0.004,0.025-0.094,0.026-0.12C26.979,48.967,26.968,48.769,26.951,48.611z"/>
		<path fill-rule="evenodd" clip-rule="evenodd" fill="#2A1D17" d="M28.373,48.02c-0.016,0.061-0.003,0.132,0.014,0.202
			C28.396,48.159,28.388,48.09,28.373,48.02z"/>
		<path fill-rule="evenodd" clip-rule="evenodd" fill="#2A1D17" d="M28.648,47.98c-0.046,0.04,0.003,0.106-0.009,0.154
			C28.657,48.128,28.664,48.03,28.648,47.98z"/>
		<path fill-rule="evenodd" clip-rule="evenodd" fill="#2A1D17" d="M28.911,47.948c-0.032,0.04-0.005,0.096-0.015,0.142
			C28.941,48.054,28.906,47.995,28.911,47.948z"/>
		<path fill-rule="evenodd" clip-rule="evenodd" fill="#2A1D17" d="M27.914,48.781c-0.033,0.06-0.008,0.183,0.005,0.221
			C27.94,48.956,27.92,48.864,27.914,48.781z"/>
		<path fill="#2A1D17" d="M29.574,62.22c0.039-0.326-0.015-0.469-0.131-0.527c-0.135-0.068-0.339,0.02-0.598,0.486
			c-0.203,0.366-0.163,0.545-0.039,0.61c0.141,0.07,0.254-0.02,0.347-0.187c0.079-0.14,0.108-0.26,0.054-0.362l0.352,0.18
			c-0.042,0.021-0.085,0.067-0.119,0.129l-0.367,0.661c-0.008-0.079-0.028-0.108-0.062-0.125c-0.055-0.028-0.174,0.014-0.356-0.078
			c-0.312-0.16-0.223-0.589-0.025-0.944c0.22-0.396,0.572-0.788,0.938-0.602c0.131,0.067,0.145,0.14,0.211,0.174
			c0.037,0.02,0.077,0.014,0.124-0.002L29.574,62.22z"/>
		<path fill="#2A1D17" d="M30.032,62.027c0.051-0.105,0.071-0.196,0.038-0.289c0.042,0.031,0.082,0.052,0.145,0.08
			c0.052,0.021,0.256,0.093,0.341,0.129c0.305,0.133,0.282,0.388,0.194,0.569c-0.095,0.197-0.217,0.297-0.378,0.29
			c0.068,0.103,0.099,0.188-0.051,0.554c-0.058,0.141-0.081,0.244-0.051,0.345l-0.215-0.093c-0.068-0.029-0.051-0.098,0.057-0.36
			c0.117-0.289,0.104-0.37-0.08-0.449l-0.092-0.04l-0.198,0.411c-0.055,0.113-0.058,0.21-0.027,0.293l-0.386-0.166
			c0.084-0.042,0.129-0.079,0.184-0.195L30.032,62.027z M30.048,62.539l0.067,0.029c0.196,0.085,0.314,0.069,0.396-0.101
			c0.073-0.151,0.045-0.249-0.112-0.318c-0.104-0.043-0.158-0.014-0.183,0.038L30.048,62.539z"/>
		<path fill="#2A1D17" d="M30.339,63.733c0.1-0.072,0.219-0.229,0.299-0.343l0.694-0.944c0.021-0.032,0.044-0.069,0.055-0.095
			c0.009-0.021,0.012-0.038,0.005-0.056l0.311,0.111c-0.013,0.009-0.021,0.02-0.027,0.035c-0.01,0.024-0.028,0.106-0.039,0.175
			l-0.176,1.065c-0.021,0.134-0.045,0.326-0.024,0.442l-0.368-0.132c0.054-0.046,0.093-0.105,0.119-0.17
			c0.017-0.04,0.036-0.101,0.036-0.139l-0.423-0.15c-0.03,0.03-0.061,0.079-0.086,0.138c-0.027,0.068-0.035,0.144-0.02,0.188
			L30.339,63.733z M31.266,63.438l0.13-0.737l-0.003-0.002l-0.439,0.627L31.266,63.438z"/>
		<path fill="#2A1D17" d="M32.119,62.801c0.029-0.088,0.022-0.182-0.013-0.252l0.409,0.113c-0.009,0.02-0.02,0.036-0.026,0.058
			c-0.009,0.024-0.014,0.062-0.012,0.103l0.011,1.002l0.003,0.001l0.23-0.679c0.07-0.205,0.08-0.304,0.014-0.422l0.424,0.118
			c-0.073,0.04-0.137,0.116-0.166,0.202l-0.431,1.271c-0.018,0.057-0.023,0.093-0.013,0.122l-0.302-0.085
			c0.009-0.01,0.017-0.02,0.023-0.039c0.006-0.02,0.006-0.062,0.004-0.105l-0.013-1.116l-0.002-0.002l-0.261,0.768
			c-0.068,0.206-0.079,0.304-0.013,0.422l-0.425-0.118c0.073-0.04,0.137-0.114,0.167-0.202L32.119,62.801z"/>
		<path fill="#2A1D17" d="M33.283,63.141c0.031-0.11,0.032-0.203-0.02-0.287c0.049,0.023,0.114,0.038,0.201,0.057
			c0.111,0.023,0.214,0.028,0.303,0.047c0.356,0.074,0.479,0.417,0.351,0.899c-0.14,0.521-0.381,0.854-0.835,0.761
			c-0.091-0.019-0.191-0.055-0.288-0.074c-0.087-0.017-0.132-0.017-0.177-0.021c0.066-0.044,0.134-0.139,0.17-0.274L33.283,63.141z
			 M33.254,64.173c-0.037,0.136-0.014,0.187,0.105,0.211c0.249,0.051,0.412-0.153,0.518-0.547c0.097-0.362,0.061-0.593-0.167-0.641
			c-0.138-0.029-0.194,0-0.226,0.117L33.254,64.173z"/>
		<path fill="#2A1D17" d="M34.246,64.155c0.073,0.283,0.165,0.424,0.333,0.448c0.153,0.021,0.242-0.078,0.267-0.202
			c0.024-0.114-0.006-0.192-0.099-0.268l-0.218-0.173c-0.122-0.099-0.169-0.257-0.136-0.417c0.056-0.278,0.276-0.445,0.521-0.411
			c0.12,0.017,0.151,0.059,0.228,0.069c0.05,0.007,0.082,0.001,0.137-0.035l-0.114,0.564c-0.038-0.198-0.151-0.323-0.286-0.343
			c-0.109-0.016-0.205,0.03-0.231,0.157c-0.018,0.089,0.012,0.153,0.125,0.235l0.157,0.112c0.136,0.098,0.212,0.251,0.162,0.505
			c-0.063,0.312-0.287,0.498-0.543,0.461c-0.124-0.017-0.23-0.09-0.292-0.101c-0.038-0.004-0.085,0.017-0.145,0.058L34.246,64.155z"
			/>
		<path fill="#2A1D17" d="M36.516,63.283c0.109,0.006,0.189,0.068,0.247,0.072c0.044,0.001,0.078-0.02,0.115-0.054l-0.08,0.693
			c-0.001,0.004-0.001,0.006-0.003,0.006c-0.001,0-0.001-0.004-0.002-0.007c-0.067-0.285-0.154-0.433-0.285-0.44
			c-0.139-0.006-0.296,0.112-0.354,0.603c-0.048,0.415,0.077,0.551,0.237,0.559c0.16,0.008,0.3-0.117,0.406-0.3l0.005,0.004
			c-0.047,0.386-0.211,0.622-0.505,0.606c-0.233-0.012-0.46-0.229-0.383-0.89C35.982,63.55,36.236,63.27,36.516,63.283z"/>
		<path fill="#2A1D17" d="M37.12,63.604c0.006-0.113-0.01-0.202-0.079-0.273c0.053,0.012,0.098,0.015,0.167,0.015
			c0.058-0.001,0.28-0.016,0.374-0.016c0.341-0.003,0.418,0.233,0.406,0.433c-0.014,0.216-0.091,0.351-0.248,0.408
			c0.106,0.063,0.17,0.129,0.17,0.516c0,0.146,0.019,0.25,0.085,0.328l-0.239,0.001c-0.076,0-0.085-0.067-0.085-0.345
			c-0.002-0.305-0.046-0.372-0.25-0.371h-0.104l-0.028,0.444c-0.008,0.124,0.028,0.21,0.088,0.271l-0.43,0.004
			c0.064-0.07,0.091-0.121,0.1-0.248L37.12,63.604z M37.333,64.059l0.077-0.003c0.218,0,0.325-0.062,0.336-0.244
			c0.01-0.165-0.054-0.242-0.231-0.241c-0.117,0-0.154,0.05-0.158,0.104L37.333,64.059z"/>
		<path fill="#2A1D17" d="M38.256,63.567c0-0.091-0.037-0.174-0.094-0.229l0.412-0.025c-0.057,0.086-0.078,0.136-0.077,0.233
			l-0.002,0.91c-0.001,0.231,0.07,0.308,0.216,0.298c0.125-0.008,0.24-0.095,0.242-0.327l0.002-0.91c0-0.098-0.02-0.145-0.076-0.223
			l0.413-0.026c-0.057,0.062-0.095,0.151-0.095,0.241l-0.003,0.771c-0.001,0.463-0.131,0.707-0.498,0.73
			c-0.264,0.016-0.443-0.14-0.444-0.473L38.256,63.567z"/>
		<path fill="#2A1D17" d="M39.478,64.304c0.145,0.251,0.27,0.362,0.442,0.343c0.155-0.018,0.219-0.138,0.211-0.26
			c-0.005-0.115-0.055-0.182-0.164-0.23l-0.258-0.108c-0.145-0.063-0.23-0.202-0.238-0.364c-0.016-0.278,0.159-0.493,0.407-0.521
			c0.123-0.015,0.165,0.016,0.243,0.007c0.049-0.006,0.081-0.019,0.125-0.067l0.03,0.566c-0.088-0.181-0.231-0.271-0.369-0.254
			c-0.111,0.013-0.193,0.081-0.187,0.208c0.004,0.089,0.05,0.142,0.182,0.191l0.183,0.068c0.158,0.059,0.272,0.186,0.286,0.439
			c0.017,0.312-0.157,0.544-0.418,0.576c-0.126,0.014-0.25-0.03-0.313-0.021c-0.038,0.003-0.08,0.035-0.127,0.089L39.478,64.304z"/>
		<path fill="#2A1D17" d="M41.149,63.273c-0.014-0.11-0.046-0.194-0.127-0.25c0.054,0.001,0.1-0.004,0.168-0.017
			c0.058-0.012,0.276-0.068,0.371-0.086c0.23-0.044,0.415,0.091,0.455,0.407c0.024,0.188,0.005,0.432-0.305,0.56
			c-0.203,0.085-0.222,0.121-0.206,0.249l0.026,0.212c0.016,0.121,0.066,0.198,0.139,0.249l-0.427,0.081
			c0.05-0.08,0.067-0.135,0.053-0.259L41.149,63.273z M41.46,63.788h0.004c0.017-0.045,0.055-0.079,0.153-0.13
			c0.138-0.07,0.184-0.173,0.167-0.312c-0.013-0.1-0.08-0.225-0.234-0.195c-0.101,0.019-0.161,0.076-0.141,0.229L41.46,63.788z"/>
		<path fill="#2A1D17" d="M42.199,63.067c-0.02-0.11-0.056-0.192-0.14-0.245c0.056,0,0.1-0.008,0.17-0.024
			c0.056-0.016,0.271-0.08,0.365-0.102c0.338-0.082,0.468,0.127,0.502,0.32c0.036,0.208-0.009,0.356-0.149,0.445
			c0.119,0.039,0.196,0.087,0.286,0.457c0.034,0.141,0.077,0.232,0.161,0.296l-0.236,0.055c-0.074,0.019-0.102-0.045-0.165-0.311
			c-0.072-0.292-0.131-0.346-0.333-0.298l-0.102,0.024l0.076,0.434c0.021,0.119,0.077,0.193,0.151,0.24l-0.424,0.102
			c0.046-0.083,0.061-0.138,0.04-0.259L42.199,63.067z M42.516,63.451l0.074-0.019c0.217-0.05,0.307-0.134,0.275-0.313
			c-0.027-0.159-0.108-0.218-0.282-0.176c-0.115,0.027-0.143,0.082-0.132,0.137L42.516,63.451z"/>
		<path fill="#2A1D17" d="M43.341,62.76c-0.02-0.086-0.074-0.157-0.143-0.197l0.82-0.237c0.052-0.015,0.079-0.034,0.111-0.069
			l0.122,0.538c-0.148-0.175-0.271-0.212-0.477-0.151c-0.143,0.042-0.184,0.104-0.156,0.235l0.052,0.228
			c0.038-0.007,0.085-0.017,0.126-0.028c0.135-0.04,0.227-0.09,0.265-0.228l0.117,0.512c-0.092-0.1-0.195-0.092-0.33-0.053
			c-0.041,0.012-0.088,0.026-0.123,0.044l0.07,0.307c0.03,0.132,0.084,0.169,0.26,0.118c0.208-0.061,0.317-0.19,0.355-0.46
			l0.14,0.618c-0.042-0.024-0.088-0.029-0.182-0.002l-0.808,0.234c0.043-0.072,0.061-0.166,0.042-0.252L43.341,62.76z"/>
		<path fill="#2A1D17" d="M44.607,63.23c0.196,0.213,0.343,0.294,0.51,0.237c0.15-0.051,0.188-0.178,0.155-0.294
			c-0.03-0.111-0.093-0.163-0.212-0.187l-0.278-0.052c-0.157-0.03-0.271-0.145-0.313-0.3c-0.073-0.265,0.054-0.509,0.295-0.587
			c0.118-0.042,0.167-0.021,0.242-0.045c0.049-0.017,0.076-0.036,0.109-0.093l0.148,0.54c-0.124-0.156-0.284-0.21-0.417-0.167
			c-0.108,0.036-0.175,0.118-0.142,0.239c0.022,0.086,0.08,0.128,0.221,0.147l0.195,0.025c0.169,0.024,0.309,0.123,0.375,0.364
			c0.083,0.298-0.041,0.559-0.293,0.644c-0.122,0.041-0.254,0.025-0.314,0.045c-0.038,0.013-0.072,0.052-0.107,0.113L44.607,63.23z"
			/>
		<path fill="#2A1D17" d="M45.78,62.134c-0.03-0.096-0.067-0.133-0.147-0.104c-0.129,0.048-0.165,0.235-0.133,0.463l-0.003,0.001
			l-0.203-0.626c0.029,0.007,0.068,0.013,0.106-0.001l0.754-0.286c0.038-0.017,0.067-0.047,0.085-0.071l0.2,0.626l-0.003,0.001
			c-0.106-0.198-0.242-0.32-0.37-0.27c-0.08,0.028-0.086,0.084-0.056,0.18l0.312,0.974c0.027,0.083,0.089,0.149,0.161,0.183
			l-0.412,0.157c0.04-0.075,0.048-0.17,0.021-0.253L45.78,62.134z"/>
		<path fill="#2A1D17" d="M46.56,61.659c-0.03-0.082-0.093-0.147-0.167-0.179l0.407-0.169c-0.037,0.077-0.042,0.172-0.014,0.253
			l0.398,1.108c0.03,0.081,0.094,0.146,0.167,0.177l-0.406,0.17c0.035-0.076,0.042-0.17,0.012-0.252L46.56,61.659z"/>
		<path fill="#2A1D17" d="M48.066,61.406c-0.229-0.217-0.375-0.256-0.5-0.2c-0.145,0.066-0.215,0.277-0.027,0.748
			c0.148,0.37,0.316,0.442,0.45,0.381c0.152-0.069,0.158-0.21,0.089-0.378c-0.056-0.143-0.128-0.233-0.247-0.25l0.378-0.173
			c-0.012,0.045-0.004,0.106,0.021,0.167l0.266,0.669c-0.066-0.041-0.104-0.042-0.139-0.026c-0.061,0.028-0.107,0.146-0.302,0.234
			c-0.337,0.153-0.611-0.162-0.753-0.521c-0.161-0.4-0.228-0.9,0.165-1.079c0.142-0.065,0.208-0.033,0.278-0.065
			c0.041-0.019,0.064-0.052,0.08-0.098L48.066,61.406z"/>
		<path fill="#2A1D17" d="M48.241,60.908c-0.036-0.08-0.105-0.14-0.182-0.164l0.768-0.391c0.05-0.024,0.072-0.049,0.099-0.089
			l0.225,0.497c-0.18-0.14-0.312-0.15-0.503-0.054c-0.134,0.07-0.163,0.139-0.109,0.259l0.096,0.211
			c0.036-0.014,0.081-0.034,0.12-0.054c0.127-0.064,0.209-0.129,0.22-0.272l0.216,0.474c-0.112-0.077-0.212-0.051-0.337,0.013
			c-0.04,0.021-0.082,0.045-0.116,0.066l0.129,0.285c0.058,0.121,0.116,0.146,0.283,0.062c0.196-0.098,0.277-0.245,0.264-0.515
			l0.259,0.573c-0.046-0.017-0.092-0.013-0.182,0.031l-0.757,0.387c0.028-0.079,0.028-0.174-0.009-0.253L48.241,60.908z"/>
		<polygon fill-rule="evenodd" clip-rule="evenodd" fill="#2A1D17" points="43.695,43.055 43.467,43.138 43.472,43.183 
			43.712,43.132 		"/>
		<path fill="#2A1D17" d="M40.946,43.163c0.005-0.046-0.009-0.092-0.035-0.123l0.266,0.012c-0.007,0.006-0.011,0.017-0.013,0.026
			c-0.001,0.013-0.001,0.032,0,0.05l0.068,0.55h0.002l0.187-0.538c0.006-0.017,0.011-0.037,0.011-0.05
			c0.001-0.009,0-0.02-0.006-0.027l0.271,0.012c-0.033,0.029-0.056,0.073-0.061,0.119l-0.068,0.615
			c-0.005,0.045,0.009,0.091,0.035,0.122l-0.21-0.009c0.026-0.027,0.058-0.075,0.066-0.161l0.065-0.577l-0.002,0l-0.232,0.659
			c-0.002,0.009-0.006,0.019-0.007,0.031c-0.001,0.012-0.001,0.028,0.003,0.042l-0.162-0.007c0.007-0.014,0.011-0.03,0.012-0.042
			c0.002-0.014,0-0.022-0.001-0.033l-0.077-0.648l-0.001,0l-0.061,0.555c-0.01,0.085,0.01,0.135,0.031,0.164l-0.21-0.01
			c0.032-0.028,0.056-0.072,0.061-0.117L40.946,43.163z"/>
		<path fill="#2A1D17" d="M41.869,43.207c0.006-0.046-0.008-0.091-0.034-0.123l0.221,0.013c-0.034,0.028-0.058,0.072-0.063,0.118
			l-0.076,0.615c-0.005,0.046,0.007,0.091,0.034,0.123l-0.223-0.013c0.034-0.028,0.06-0.071,0.065-0.117L41.869,43.207z"/>
		<path fill="#2A1D17" d="M42.24,43.23c0.008-0.045-0.006-0.092-0.031-0.124l0.221,0.016c-0.033,0.028-0.058,0.07-0.065,0.116
			l-0.07,0.516c-0.009,0.071,0.008,0.097,0.046,0.1c0.09,0.009,0.155-0.076,0.207-0.191l-0.048,0.354
			c-0.016-0.021-0.036-0.03-0.086-0.033l-0.32-0.023c0.033-0.027,0.059-0.07,0.065-0.117L42.24,43.23z"/>
		<path fill="#2A1D17" d="M42.775,43.271c0.006-0.046-0.004-0.092-0.029-0.124l0.22,0.019c-0.034,0.028-0.06,0.07-0.066,0.116
			l-0.079,0.514c-0.011,0.071,0.004,0.098,0.043,0.102c0.089,0.012,0.157-0.074,0.21-0.188l-0.055,0.353
			c-0.015-0.02-0.035-0.03-0.084-0.035L42.616,44c0.033-0.027,0.059-0.07,0.066-0.116L42.775,43.271z"/>
		<path fill="#2A1D17" d="M43.298,43.318c0.008-0.046-0.002-0.092-0.029-0.125l0.429,0.047c0.027,0.002,0.044-0.002,0.065-0.012
			l-0.048,0.286c-0.035-0.115-0.085-0.156-0.192-0.167c-0.075-0.009-0.107,0.014-0.12,0.083l-0.02,0.121
			c0.018,0.003,0.042,0.008,0.064,0.011c0.071,0.007,0.124,0.001,0.168-0.059l-0.046,0.271c-0.022-0.065-0.073-0.083-0.142-0.09
			c-0.022-0.002-0.047-0.003-0.066-0.003l-0.028,0.164c-0.012,0.07,0.006,0.098,0.098,0.108c0.108,0.012,0.185-0.03,0.256-0.154
			l-0.057,0.329c-0.015-0.02-0.035-0.031-0.085-0.037l-0.422-0.046c0.035-0.025,0.062-0.068,0.069-0.113L43.298,43.318z"/>
		<path fill="#2A1D17" d="M43.813,43.804c0.04,0.145,0.087,0.216,0.175,0.228c0.079,0.011,0.125-0.042,0.137-0.104
			c0.012-0.059-0.004-0.1-0.053-0.137l-0.112-0.088c-0.064-0.05-0.087-0.131-0.072-0.213c0.027-0.142,0.14-0.228,0.266-0.211
			c0.063,0.008,0.08,0.029,0.119,0.034c0.025,0.004,0.042,0.001,0.071-0.018l-0.058,0.291c-0.021-0.103-0.08-0.166-0.149-0.176
			c-0.057-0.007-0.105,0.017-0.119,0.082c-0.008,0.044,0.007,0.077,0.066,0.119l0.082,0.058c0.071,0.049,0.111,0.129,0.085,0.258
			c-0.032,0.16-0.146,0.255-0.278,0.237c-0.064-0.008-0.12-0.045-0.151-0.049c-0.02-0.003-0.044,0.008-0.075,0.029L43.813,43.804z"
			/>
		<path fill="#2A1D17" d="M44.539,43.474c0.009-0.046,0-0.092-0.022-0.126l0.218,0.033c-0.035,0.025-0.063,0.065-0.072,0.111
			l-0.131,0.61c-0.011,0.045,0,0.092,0.021,0.125l-0.216-0.033c0.035-0.024,0.063-0.066,0.072-0.112L44.539,43.474z"/>
		<path fill="#2A1D17" d="M44.898,43.527c0.01-0.044,0.003-0.091-0.019-0.125l0.261,0.046c-0.008,0.004-0.014,0.015-0.016,0.024
			c-0.003,0.013-0.007,0.033-0.007,0.051l-0.004,0.558l0.002,0.001l0.254-0.514c0.007-0.017,0.015-0.036,0.017-0.047
			c0.003-0.01,0.001-0.021-0.001-0.029l0.264,0.048c-0.035,0.023-0.065,0.064-0.075,0.109l-0.146,0.608
			c-0.011,0.044-0.003,0.092,0.018,0.126l-0.205-0.038c0.029-0.021,0.067-0.066,0.087-0.15l0.136-0.57h-0.001l-0.312,0.628
			c-0.005,0.01-0.009,0.017-0.012,0.031c-0.003,0.012-0.006,0.029-0.002,0.042l-0.159-0.027c0.01-0.013,0.015-0.029,0.017-0.041
			c0.003-0.013,0.004-0.022,0.003-0.032l0.01-0.66l-0.002-0.001l-0.131,0.548c-0.021,0.084-0.008,0.138,0.009,0.168l-0.207-0.037
			c0.037-0.023,0.065-0.064,0.077-0.109L44.898,43.527z"/>
		<path fill="#2A1D17" d="M45.801,43.696c0.012-0.044,0.006-0.092-0.015-0.128l0.417,0.091c0.028,0.006,0.044,0.002,0.067-0.005
			l-0.077,0.281c-0.021-0.119-0.068-0.165-0.172-0.188c-0.073-0.016-0.108,0.003-0.126,0.072l-0.033,0.118
			c0.018,0.007,0.042,0.013,0.062,0.018c0.069,0.015,0.123,0.015,0.172-0.041l-0.074,0.267c-0.016-0.068-0.062-0.089-0.132-0.105
			c-0.02-0.003-0.044-0.008-0.064-0.009l-0.044,0.161c-0.02,0.069-0.004,0.099,0.085,0.119c0.106,0.023,0.185-0.012,0.27-0.128
			l-0.089,0.324c-0.014-0.022-0.032-0.036-0.08-0.045l-0.412-0.089c0.036-0.022,0.066-0.062,0.08-0.107L45.801,43.696z"/>
		<path fill="#2A1D17" d="M46.263,44.236c0.024,0.149,0.064,0.225,0.149,0.247c0.077,0.019,0.128-0.028,0.147-0.09
			c0.016-0.058,0.004-0.099-0.036-0.142l-0.105-0.101c-0.058-0.056-0.073-0.141-0.048-0.221c0.043-0.141,0.164-0.214,0.286-0.185
			c0.061,0.015,0.076,0.039,0.114,0.048c0.025,0.005,0.042,0.005,0.071-0.011l-0.086,0.284c-0.009-0.105-0.062-0.174-0.131-0.191
			c-0.054-0.014-0.105,0.005-0.124,0.069c-0.014,0.044-0.002,0.079,0.051,0.126l0.076,0.066c0.064,0.057,0.094,0.14,0.056,0.268
			c-0.047,0.157-0.17,0.24-0.3,0.208c-0.062-0.015-0.114-0.059-0.144-0.066c-0.02-0.005-0.045,0.003-0.077,0.021L46.263,44.236z"/>
		<path fill="#2A1D17" d="M47.314,44.077c0.018-0.056,0.024-0.104,0-0.148c0.024,0.014,0.057,0.024,0.101,0.037
			c0.056,0.017,0.108,0.025,0.153,0.038c0.18,0.053,0.228,0.236,0.144,0.477c-0.094,0.262-0.23,0.423-0.458,0.354
			c-0.047-0.013-0.098-0.036-0.146-0.05c-0.043-0.013-0.066-0.015-0.089-0.019c0.036-0.02,0.075-0.066,0.099-0.134L47.314,44.077z
			 M47.256,44.606c-0.024,0.067-0.015,0.094,0.046,0.111c0.125,0.037,0.218-0.061,0.286-0.258c0.065-0.182,0.057-0.303-0.057-0.337
			c-0.071-0.02-0.1-0.008-0.121,0.051L47.256,44.606z"/>
		<path fill="#2A1D17" d="M47.98,44.208c0.006-0.015,0.009-0.025,0.012-0.034c0.014-0.035,0.03-0.043,0.061-0.034
			c0.029,0.009,0.038,0.026,0.022,0.061c-0.003,0.009-0.007,0.018-0.013,0.032l-0.066,0.14c-0.01,0.017-0.021,0.025-0.039,0.018
			c-0.02-0.005-0.022-0.018-0.018-0.037L47.98,44.208z"/>
		<path fill="#2A1D17" d="M48.238,44.35c0.017-0.043,0.017-0.091,0-0.129l0.403,0.14c0.024,0.009,0.042,0.007,0.065,0.002
			l-0.11,0.272c-0.008-0.121-0.047-0.173-0.149-0.208c-0.07-0.024-0.106-0.008-0.131,0.058l-0.046,0.115
			c0.017,0.008,0.04,0.017,0.059,0.025c0.067,0.022,0.118,0.028,0.176-0.022l-0.106,0.26c-0.008-0.071-0.05-0.099-0.117-0.122
			c-0.02-0.006-0.044-0.013-0.062-0.017l-0.063,0.156c-0.026,0.066-0.015,0.098,0.071,0.127c0.103,0.036,0.185,0.011,0.28-0.096
			l-0.127,0.313c-0.009-0.024-0.027-0.038-0.073-0.055l-0.395-0.138c0.038-0.018,0.073-0.055,0.091-0.098L48.238,44.35z"/>
		<path fill="#2A1D17" d="M48.444,45.216c0.052-0.019,0.134-0.082,0.21-0.157l0.205-0.195l0.001-0.263
			c0.001-0.08-0.009-0.145-0.025-0.172l0.21,0.081c-0.023,0.004-0.032,0.017-0.042,0.04c-0.006,0.014-0.014,0.035-0.014,0.062
			c-0.001,0.047,0.003,0.16,0,0.181l0.122-0.114c0.024-0.022,0.038-0.042,0.047-0.06c0.012-0.028,0.012-0.047,0.003-0.063
			l0.206,0.08c-0.063,0.023-0.165,0.109-0.238,0.178L49,44.938l-0.004,0.302c0,0.043,0.009,0.126,0.033,0.202l-0.209-0.081
			c0.019-0.008,0.035-0.03,0.042-0.049c0.007-0.016,0.012-0.058,0.012-0.096c0-0.077-0.007-0.155-0.001-0.21l-0.162,0.155
			c-0.021,0.02-0.038,0.045-0.047,0.066c-0.011,0.022-0.012,0.049-0.005,0.072L48.444,45.216z"/>
		<path fill="#2A1D17" d="M49.693,44.752c0.052,0.022,0.079,0.067,0.106,0.079c0.02,0.009,0.039,0.004,0.063-0.007l-0.156,0.329
			c0,0.001-0.001,0.002-0.003,0.002c0,0,0-0.002,0-0.003c0.017-0.152,0.001-0.241-0.061-0.266c-0.065-0.028-0.159,0.003-0.271,0.236
			c-0.094,0.196-0.056,0.285,0.018,0.316c0.075,0.032,0.162-0.006,0.246-0.077l0.002,0.002c-0.088,0.183-0.207,0.271-0.344,0.213
			c-0.109-0.046-0.18-0.192-0.032-0.505C49.395,44.792,49.563,44.696,49.693,44.752z"/>
		<path fill="#2A1D17" d="M49.987,45.035c0.02-0.042,0.025-0.09,0.012-0.129l0.385,0.178c0.024,0.011,0.041,0.012,0.064,0.008
			l-0.133,0.262c0.003-0.121-0.032-0.177-0.127-0.222c-0.068-0.031-0.104-0.019-0.136,0.044l-0.058,0.11
			c0.017,0.01,0.038,0.021,0.058,0.031c0.062,0.028,0.114,0.04,0.174-0.005l-0.127,0.25c-0.002-0.073-0.043-0.104-0.106-0.133
			c-0.02-0.009-0.042-0.019-0.059-0.024l-0.077,0.15c-0.034,0.064-0.024,0.097,0.058,0.137c0.097,0.044,0.182,0.027,0.286-0.071
			l-0.156,0.301c-0.007-0.024-0.022-0.041-0.066-0.062l-0.378-0.177c0.041-0.014,0.079-0.046,0.1-0.089L49.987,45.035z"/>
		<path fill="#2A1D17" d="M50.564,45.322c0.028-0.052,0.041-0.098,0.025-0.147c0.021,0.019,0.041,0.029,0.072,0.045
			c0.027,0.013,0.129,0.057,0.172,0.079c0.103,0.053,0.135,0.167,0.053,0.316c-0.049,0.088-0.132,0.187-0.292,0.146
			c-0.106-0.027-0.125-0.018-0.158,0.042l-0.056,0.098c-0.03,0.057-0.035,0.107-0.021,0.15l-0.193-0.098
			c0.045-0.018,0.068-0.036,0.1-0.095L50.564,45.322z M50.526,45.64l0.002,0.001c0.021-0.015,0.045-0.018,0.1-0.009
			c0.076,0.012,0.125-0.016,0.162-0.082c0.025-0.046,0.037-0.121-0.032-0.156c-0.045-0.023-0.086-0.018-0.126,0.054L50.526,45.64z"
			/>
		<path fill="#2A1D17" d="M51.223,45.748c0.027-0.045,0.03-0.074-0.006-0.094c-0.059-0.033-0.143,0.019-0.222,0.113l-0.001-0.001
			l0.18-0.304c0.007,0.014,0.018,0.032,0.034,0.041l0.349,0.193c0.016,0.01,0.037,0.009,0.053,0.008l-0.183,0.304l-0.002-0.001
			c0.045-0.114,0.049-0.209-0.01-0.242c-0.035-0.021-0.061-0.004-0.088,0.042l-0.281,0.472c-0.024,0.041-0.03,0.088-0.021,0.129
			l-0.189-0.105c0.04-0.013,0.08-0.043,0.105-0.083L51.223,45.748z"/>
		<path fill="#2A1D17" d="M51.68,45.914c0.025-0.041,0.034-0.088,0.025-0.129l0.188,0.11c-0.04,0.011-0.082,0.04-0.108,0.08
			l-0.338,0.535c-0.024,0.04-0.032,0.089-0.025,0.13l-0.186-0.111c0.043-0.012,0.081-0.041,0.106-0.081L51.68,45.914z"/>
		<path fill="#2A1D17" d="M52.204,46.609c-0.158,0.24-0.314,0.345-0.471,0.247c-0.154-0.1-0.119-0.28,0.04-0.521
			c0.202-0.3,0.354-0.32,0.473-0.245C52.363,46.166,52.405,46.309,52.204,46.609z M52.104,46.545
			c0.134-0.201,0.138-0.297,0.065-0.342c-0.07-0.045-0.158-0.003-0.293,0.198c-0.121,0.182-0.144,0.293-0.066,0.341
			C51.887,46.792,51.982,46.727,52.104,46.545z"/>
		<path fill="#2A1D17" d="M52.564,46.467c0.025-0.038,0.038-0.085,0.032-0.127l0.179,0.124c-0.008,0.008-0.015,0.015-0.021,0.024
			c-0.008,0.011-0.017,0.028-0.022,0.048l-0.153,0.501l0.001,0l0.22-0.3c0.064-0.092,0.085-0.139,0.074-0.209l0.183,0.129
			c-0.041,0.009-0.083,0.036-0.11,0.074l-0.408,0.563c-0.018,0.025-0.025,0.043-0.025,0.059l-0.132-0.092
			c0.006-0.002,0.011-0.007,0.017-0.016c0.007-0.007,0.014-0.029,0.02-0.052l0.17-0.557l-0.002-0.001l-0.245,0.341
			c-0.065,0.091-0.086,0.138-0.072,0.207l-0.187-0.127c0.041-0.008,0.085-0.035,0.112-0.074L52.564,46.467z"/>
		<path fill="#2A1D17" d="M25.737,47.997c-0.023-0.038-0.064-0.062-0.107-0.068l0.246-0.166c-0.002,0.009,0,0.021,0.005,0.029
			c0.006,0.01,0.018,0.025,0.03,0.037l0.399,0.368l0.002,0l-0.162-0.526c-0.006-0.018-0.014-0.034-0.02-0.045
			c-0.006-0.009-0.015-0.015-0.023-0.016l0.25-0.167c-0.012,0.042-0.006,0.091,0.017,0.129l0.317,0.505
			c0.024,0.038,0.064,0.063,0.108,0.068l-0.196,0.131c0.008-0.037,0.006-0.094-0.038-0.165l-0.298-0.474l-0.002,0.001l0.198,0.645
			c0.003,0.01,0.006,0.018,0.012,0.03c0.007,0.009,0.016,0.022,0.03,0.029l-0.15,0.1c-0.001-0.015-0.008-0.028-0.014-0.039
			c-0.007-0.011-0.014-0.017-0.021-0.023l-0.468-0.438l-0.001,0.001l0.286,0.456c0.043,0.071,0.093,0.095,0.13,0.102l-0.196,0.131
			c0.012-0.043,0.008-0.091-0.016-0.128L25.737,47.997z"/>
		<polygon fill-rule="evenodd" clip-rule="evenodd" fill="#2A1D17" points="26.854,46.916 26.714,47.12 26.746,47.15 26.914,46.964 
					"/>
		<path fill="#2A1D17" d="M26.671,47.378c-0.023-0.038-0.062-0.064-0.105-0.072l0.404-0.257c0.026-0.016,0.037-0.03,0.049-0.053
			l0.144,0.239c-0.105-0.059-0.177-0.055-0.277,0.011c-0.071,0.045-0.083,0.082-0.05,0.141l0.062,0.102
			c0.019-0.01,0.042-0.023,0.062-0.037c0.067-0.043,0.109-0.083,0.109-0.157l0.136,0.229c-0.064-0.032-0.118-0.011-0.184,0.03
			c-0.02,0.014-0.043,0.03-0.06,0.043l0.082,0.139c0.035,0.059,0.069,0.066,0.156,0.01c0.103-0.064,0.142-0.147,0.124-0.286
			l0.164,0.277c-0.025-0.006-0.051,0-0.097,0.03l-0.398,0.254c0.013-0.043,0.009-0.092-0.014-0.13L26.671,47.378z"/>
		<path fill="#2A1D17" d="M27.385,46.928c-0.023-0.039-0.062-0.065-0.104-0.073l0.21-0.127c-0.013,0.041-0.011,0.091,0.011,0.129
			l0.245,0.438c0.035,0.061,0.065,0.069,0.101,0.048c0.088-0.049,0.096-0.157,0.074-0.276l0.168,0.3
			c-0.025-0.005-0.05,0-0.098,0.029l-0.306,0.185c0.015-0.042,0.011-0.09-0.01-0.128L27.385,46.928z"/>
		<path fill="#2A1D17" d="M28.217,47.26c0.01-0.062-0.007-0.159-0.022-0.227l-0.111-0.566c-0.004-0.019-0.01-0.04-0.016-0.053
			c-0.005-0.008-0.011-0.016-0.02-0.017l0.167-0.095c-0.003,0.008-0.002,0.014,0.002,0.021c0.005,0.011,0.032,0.042,0.056,0.067
			l0.362,0.389c0.046,0.049,0.115,0.117,0.169,0.141l-0.196,0.114c0.003-0.037-0.007-0.07-0.023-0.101
			c-0.009-0.019-0.027-0.045-0.042-0.055l-0.226,0.128c0,0.022,0.007,0.049,0.021,0.077c0.017,0.032,0.046,0.059,0.07,0.065
			L28.217,47.26z M28.461,46.789l-0.248-0.273l-0.002,0.002l0.081,0.367L28.461,46.789z"/>
		<path fill="#2A1D17" d="M28.701,46.164c-0.019-0.04-0.057-0.069-0.099-0.08l0.218-0.115c0.002,0.009,0.004,0.019,0.009,0.028
			c0.005,0.012,0.017,0.027,0.033,0.041l0.373,0.334l0.002-0.001l-0.151-0.316c-0.047-0.096-0.078-0.133-0.149-0.149l0.225-0.12
			c-0.016,0.042-0.016,0.09,0.003,0.13l0.284,0.593c0.013,0.026,0.025,0.041,0.039,0.046l-0.161,0.085
			c0-0.007-0.001-0.013-0.004-0.022c-0.004-0.009-0.021-0.024-0.038-0.039l-0.416-0.373l-0.001,0.001l0.171,0.357
			c0.045,0.096,0.078,0.133,0.149,0.147l-0.226,0.12c0.016-0.041,0.016-0.089-0.002-0.13L28.701,46.164z"/>
		<path fill="#2A1D17" d="M29.991,45.722c-0.125-0.106-0.206-0.121-0.274-0.088c-0.079,0.039-0.117,0.15-0.013,0.388
			c0.08,0.187,0.172,0.219,0.246,0.183c0.083-0.04,0.086-0.114,0.049-0.198c-0.031-0.072-0.072-0.117-0.136-0.122l0.208-0.101
			c-0.007,0.023-0.002,0.054,0.012,0.085l0.146,0.338c-0.039-0.019-0.058-0.019-0.076-0.009c-0.035,0.017-0.06,0.079-0.167,0.131
			c-0.183,0.09-0.334-0.065-0.413-0.246c-0.087-0.203-0.124-0.459,0.092-0.565c0.078-0.038,0.114-0.022,0.152-0.043
			c0.022-0.011,0.035-0.029,0.044-0.054L29.991,45.722z"/>
		<path fill="#2A1D17" d="M30.242,45.394c-0.017-0.041-0.052-0.074-0.091-0.087l0.435-0.193c0.029-0.012,0.041-0.025,0.058-0.046
			l0.102,0.262c-0.093-0.075-0.164-0.083-0.273-0.034c-0.075,0.034-0.093,0.071-0.069,0.133l0.042,0.111
			c0.021-0.007,0.046-0.016,0.068-0.027c0.071-0.03,0.12-0.064,0.131-0.138l0.097,0.249c-0.057-0.042-0.113-0.029-0.185,0.003
			c-0.022,0.01-0.046,0.022-0.064,0.033l0.057,0.15c0.026,0.063,0.058,0.077,0.15,0.036c0.112-0.05,0.162-0.125,0.166-0.266
			l0.118,0.3c-0.025-0.008-0.051-0.006-0.101,0.016l-0.43,0.19c0.02-0.04,0.023-0.089,0.006-0.132L30.242,45.394z"/>
		<path fill="#2A1D17" d="M31.093,45.472c0.113,0.1,0.196,0.134,0.286,0.097c0.083-0.033,0.1-0.101,0.08-0.159
			c-0.02-0.055-0.055-0.079-0.121-0.084l-0.154-0.014c-0.087-0.008-0.153-0.062-0.18-0.139c-0.045-0.132,0.02-0.262,0.15-0.315
			c0.064-0.025,0.092-0.018,0.133-0.034c0.026-0.011,0.041-0.021,0.059-0.052l0.093,0.27c-0.072-0.073-0.162-0.094-0.234-0.065
			c-0.058,0.023-0.093,0.068-0.074,0.129c0.016,0.042,0.047,0.061,0.126,0.065l0.107,0.004c0.094,0.004,0.173,0.047,0.215,0.169
			c0.052,0.149-0.01,0.289-0.146,0.344c-0.067,0.027-0.14,0.024-0.173,0.039c-0.021,0.008-0.039,0.029-0.058,0.063L31.093,45.472z"
			/>
		<path fill="#2A1D17" d="M32.158,44.623c-0.012-0.043-0.043-0.079-0.082-0.096l0.449-0.152c0.029-0.009,0.043-0.021,0.061-0.039
			l0.075,0.271c-0.084-0.084-0.152-0.098-0.265-0.06c-0.079,0.027-0.101,0.061-0.083,0.126l0.031,0.114
			c0.021-0.004,0.047-0.012,0.07-0.019c0.073-0.025,0.125-0.053,0.143-0.126l0.071,0.259c-0.052-0.048-0.108-0.041-0.183-0.016
			c-0.021,0.008-0.047,0.018-0.066,0.027l0.043,0.156c0.018,0.067,0.048,0.083,0.146,0.051c0.113-0.039,0.171-0.11,0.188-0.25
			l0.087,0.312c-0.025-0.011-0.049-0.011-0.101,0.005l-0.442,0.149c0.022-0.038,0.03-0.087,0.019-0.13L32.158,44.623z"/>
		<path fill="#2A1D17" d="M32.997,45.104c0.034-0.047,0.068-0.145,0.09-0.248l0.062-0.276l-0.164-0.197
			c-0.05-0.06-0.101-0.102-0.133-0.113l0.24-0.07c-0.017,0.016-0.019,0.031-0.013,0.055c0.003,0.014,0.01,0.034,0.027,0.055
			c0.029,0.036,0.104,0.118,0.114,0.136l0.037-0.162c0.008-0.032,0.008-0.057,0.003-0.075c-0.006-0.028-0.018-0.042-0.037-0.048
			l0.236-0.069c-0.041,0.057-0.079,0.184-0.101,0.282l-0.037,0.176l0.188,0.227c0.028,0.034,0.086,0.09,0.157,0.13l-0.239,0.071
			c0.011-0.017,0.012-0.042,0.007-0.063c-0.004-0.016-0.025-0.051-0.049-0.081c-0.048-0.056-0.106-0.11-0.136-0.155l-0.048,0.216
			c-0.006,0.028-0.006,0.06-0.001,0.08c0.006,0.023,0.022,0.044,0.043,0.057L32.997,45.104z"/>
		<path fill="#2A1D17" d="M34.212,44.761l0.047,0.046c0.016,0.015,0.036,0.024,0.053,0.021c0.027-0.006,0.039-0.022,0.051-0.056
			c0.009,0.004,0.017,0.018,0.02,0.036c0.013,0.066-0.015,0.138-0.084,0.156c-0.127,0.032-0.159-0.153-0.253-0.129
			c-0.051,0.012-0.083,0.067-0.083,0.133c-0.027-0.014-0.041-0.035-0.046-0.064c-0.006-0.033-0.002-0.065,0.017-0.101
			c-0.095-0.044-0.157-0.168-0.191-0.352c-0.063-0.341,0.043-0.464,0.196-0.503c0.154-0.038,0.294,0.023,0.36,0.364
			C34.337,44.523,34.317,44.678,34.212,44.761z M34.167,44.344c-0.044-0.228-0.112-0.292-0.204-0.269
			c-0.092,0.023-0.131,0.114-0.089,0.343c0.039,0.207,0.104,0.294,0.205,0.27C34.176,44.662,34.206,44.551,34.167,44.344z"/>
		<path fill="#2A1D17" d="M34.541,43.945c-0.006-0.045-0.033-0.084-0.069-0.107l0.227-0.047c-0.025,0.048-0.032,0.074-0.025,0.125
			l0.065,0.456c0.017,0.117,0.061,0.149,0.141,0.132c0.068-0.016,0.125-0.068,0.109-0.184l-0.064-0.457
			c-0.007-0.049-0.023-0.071-0.059-0.106l0.226-0.047c-0.028,0.036-0.041,0.083-0.035,0.128l0.056,0.389
			c0.033,0.232-0.021,0.366-0.222,0.408c-0.145,0.029-0.255-0.033-0.28-0.201L34.541,43.945z"/>
		<path fill="#2A1D17" d="M35.421,43.773c-0.004-0.045-0.03-0.085-0.064-0.109l0.238-0.041c-0.029,0.035-0.045,0.082-0.041,0.127
			l0.064,0.608c0.005,0.045,0.03,0.085,0.065,0.109l-0.238,0.041c0.029-0.035,0.043-0.083,0.04-0.128L35.421,43.773z"/>
		<path fill="#2A1D17" d="M35.906,44.116c0.083,0.125,0.153,0.18,0.248,0.167c0.087-0.011,0.12-0.073,0.116-0.136
			c-0.004-0.059-0.033-0.092-0.093-0.114l-0.144-0.053c-0.08-0.028-0.13-0.099-0.136-0.182c-0.011-0.142,0.084-0.254,0.222-0.273
			c0.069-0.008,0.092,0.006,0.135,0.001c0.027-0.004,0.044-0.011,0.068-0.037l0.022,0.289c-0.05-0.091-0.13-0.135-0.207-0.124
			c-0.062,0.008-0.106,0.044-0.102,0.109c0.004,0.046,0.029,0.072,0.102,0.096l0.103,0.031c0.088,0.027,0.153,0.091,0.163,0.22
			c0.01,0.16-0.082,0.281-0.227,0.302c-0.07,0.01-0.139-0.011-0.173-0.005c-0.021,0.002-0.044,0.019-0.071,0.047L35.906,44.116z"/>
		<path fill="#2A1D17" d="M25.09,44.113c-0.037-0.099-0.077-0.138-0.16-0.102c-0.133,0.057-0.164,0.254-0.121,0.494l-0.004,0.001
			l-0.241-0.651c0.03,0.006,0.071,0.01,0.11-0.006l0.787-0.337c0.038-0.016,0.067-0.05,0.085-0.077l0.241,0.651l-0.003,0.001
			c-0.122-0.206-0.271-0.326-0.404-0.27c-0.083,0.036-0.086,0.095-0.05,0.192l0.375,1.012c0.033,0.087,0.1,0.155,0.178,0.187
			l-0.428,0.183c0.036-0.08,0.042-0.181,0.01-0.267L25.09,44.113z"/>
		<path fill="#2A1D17" d="M25.838,43.616c-0.03-0.087-0.096-0.158-0.174-0.19l0.413-0.169c-0.029,0.103-0.033,0.159,0.001,0.255
			l0.146,0.418l0.443-0.181l-0.146-0.417c-0.033-0.097-0.071-0.135-0.154-0.193l0.412-0.168c-0.038,0.08-0.045,0.18-0.015,0.268
			l0.411,1.174c0.03,0.086,0.098,0.157,0.175,0.19l-0.413,0.168c0.028-0.104,0.031-0.159-0.002-0.255l-0.186-0.531l-0.442,0.18
			l0.186,0.531c0.034,0.097,0.071,0.137,0.155,0.193l-0.414,0.169c0.039-0.081,0.045-0.181,0.016-0.268L25.838,43.616z"/>
		<path fill="#2A1D17" d="M27.103,43.104c-0.029-0.089-0.095-0.159-0.17-0.194l0.845-0.326c0.054-0.022,0.081-0.045,0.112-0.083
			l0.18,0.551c-0.174-0.168-0.308-0.194-0.519-0.112c-0.147,0.056-0.186,0.127-0.142,0.26l0.076,0.233
			c0.039-0.009,0.088-0.026,0.131-0.042c0.139-0.054,0.232-0.114,0.26-0.263l0.171,0.526c-0.106-0.096-0.214-0.078-0.353-0.025
			c-0.043,0.016-0.09,0.038-0.127,0.057l0.104,0.316c0.044,0.136,0.105,0.17,0.286,0.099c0.216-0.083,0.317-0.229,0.333-0.517
			l0.208,0.635c-0.048-0.021-0.096-0.021-0.194,0.016l-0.834,0.321c0.04-0.08,0.049-0.18,0.02-0.268L27.103,43.104z"/>
		<path fill="#2A1D17" d="M28.797,42.467c-0.027-0.089-0.09-0.163-0.165-0.199l0.741-0.262c0.055-0.019,0.082-0.042,0.114-0.08
			l0.154,0.526c-0.113-0.16-0.251-0.188-0.428-0.125c-0.138,0.049-0.152,0.12-0.123,0.221l0.076,0.262
			c0.025-0.006,0.067-0.018,0.117-0.036c0.128-0.045,0.167-0.088,0.212-0.229l0.151,0.514c-0.091-0.084-0.185-0.083-0.293-0.044
			c-0.042,0.014-0.083,0.031-0.113,0.044l0.151,0.517c0.025,0.089,0.089,0.162,0.165,0.2l-0.438,0.154
			c0.042-0.078,0.054-0.178,0.029-0.267L28.797,42.467z"/>
		<path fill="#2A1D17" d="M29.785,42.123c-0.025-0.09-0.087-0.163-0.162-0.202l0.439-0.147c-0.042,0.078-0.056,0.178-0.032,0.267
			l0.332,1.204c0.023,0.09,0.085,0.165,0.161,0.202l-0.44,0.148c0.042-0.079,0.057-0.177,0.031-0.267L29.785,42.123z"/>
		<path fill="#2A1D17" d="M30.405,41.916c-0.022-0.09-0.083-0.166-0.155-0.206l0.445-0.139c0,0.021,0.001,0.042,0.007,0.063
			c0.007,0.026,0.023,0.061,0.048,0.095l0.587,0.843l0.003-0.001l-0.179-0.708c-0.053-0.215-0.101-0.305-0.229-0.368l0.461-0.145
			c-0.044,0.078-0.061,0.177-0.037,0.268l0.334,1.329c0.015,0.058,0.032,0.093,0.057,0.111l-0.328,0.103
			c0.002-0.015,0.004-0.028-0.001-0.047c-0.005-0.019-0.031-0.057-0.056-0.093l-0.654-0.94l-0.005,0.002l0.202,0.801
			c0.054,0.215,0.102,0.304,0.23,0.367l-0.461,0.145c0.044-0.077,0.06-0.177,0.037-0.268L30.405,41.916z"/>
		<path fill="#2A1D17" d="M31.713,41.511c-0.02-0.091-0.079-0.168-0.15-0.21l0.866-0.246c0.056-0.015,0.085-0.037,0.119-0.072
			l0.125,0.57c-0.155-0.187-0.285-0.225-0.503-0.164c-0.151,0.043-0.195,0.11-0.165,0.248l0.052,0.24
			c0.04-0.005,0.091-0.017,0.135-0.029c0.142-0.041,0.241-0.092,0.281-0.239l0.12,0.542c-0.097-0.105-0.206-0.099-0.347-0.058
			c-0.043,0.012-0.093,0.028-0.13,0.044l0.072,0.326c0.031,0.141,0.088,0.178,0.274,0.126c0.221-0.063,0.335-0.2,0.378-0.486
			l0.145,0.657c-0.044-0.027-0.092-0.032-0.192-0.003L31.938,43c0.046-0.075,0.065-0.175,0.045-0.265L31.713,41.511z"/>
		<path fill="#2A1D17" d="M32.992,42.042c0.188,0.24,0.336,0.337,0.515,0.292c0.162-0.041,0.211-0.173,0.188-0.299
			c-0.022-0.119-0.084-0.181-0.208-0.214l-0.286-0.078c-0.163-0.044-0.273-0.178-0.304-0.343c-0.055-0.287,0.099-0.534,0.358-0.599
			c0.127-0.033,0.177-0.006,0.257-0.026c0.052-0.014,0.083-0.031,0.124-0.089l0.11,0.585c-0.118-0.175-0.282-0.247-0.425-0.211
			c-0.115,0.029-0.193,0.11-0.168,0.242c0.017,0.092,0.074,0.14,0.219,0.173l0.203,0.045c0.176,0.039,0.314,0.154,0.364,0.416
			c0.061,0.322-0.089,0.588-0.361,0.658c-0.131,0.033-0.268,0.004-0.333,0.021c-0.041,0.011-0.08,0.048-0.124,0.112L32.992,42.042z"
			/>
		<path fill="#2A1D17" d="M34.304,41.01c-0.016-0.105-0.047-0.153-0.135-0.133c-0.139,0.031-0.208,0.221-0.21,0.468l-0.005,0.001
			l-0.109-0.692c0.027,0.012,0.068,0.023,0.109,0.014l0.826-0.184c0.041-0.01,0.074-0.038,0.097-0.061l0.11,0.693h-0.005
			c-0.077-0.228-0.2-0.375-0.338-0.345c-0.088,0.02-0.103,0.078-0.086,0.182l0.17,1.077c0.015,0.092,0.067,0.173,0.137,0.22
			l-0.449,0.101c0.05-0.074,0.075-0.173,0.06-0.265L34.304,41.01z"/>
		<path fill="#2A1D17" d="M35.973,40.673c-0.012-0.105-0.041-0.154-0.128-0.14c-0.142,0.024-0.219,0.213-0.233,0.459h-0.003
			l-0.077-0.699c0.028,0.013,0.067,0.026,0.108,0.02l0.832-0.145c0.041-0.007,0.076-0.034,0.099-0.056l0.076,0.7l-0.003,0.001
			c-0.067-0.233-0.182-0.388-0.321-0.363c-0.089,0.015-0.106,0.072-0.094,0.178l0.118,1.088c0.011,0.093,0.059,0.176,0.126,0.226
			l-0.453,0.079c0.054-0.07,0.083-0.168,0.074-0.261L35.973,40.673z"/>
		<path fill="#2A1D17" d="M36.835,40.36c-0.006-0.094-0.052-0.18-0.118-0.232l0.886-0.121c0.056-0.007,0.087-0.025,0.126-0.056
			l0.042,0.588c-0.125-0.208-0.248-0.266-0.47-0.235c-0.154,0.021-0.208,0.082-0.197,0.224l0.019,0.249
			c0.04-0.001,0.09-0.005,0.135-0.012c0.145-0.02,0.249-0.057,0.311-0.198l0.039,0.559c-0.08-0.12-0.187-0.127-0.331-0.108
			c-0.045,0.006-0.097,0.016-0.135,0.025l0.023,0.337c0.011,0.144,0.061,0.191,0.252,0.165c0.225-0.031,0.357-0.151,0.439-0.431
			l0.05,0.676c-0.041-0.033-0.087-0.044-0.19-0.031l-0.872,0.119c0.056-0.069,0.088-0.166,0.082-0.26L36.835,40.36z"/>
		<path fill="#2A1D17" d="M37.937,41.729c0.067-0.111,0.117-0.313,0.146-0.453l0.271-1.187c0.008-0.04,0.015-0.083,0.014-0.114
			c-0.001-0.02-0.004-0.041-0.019-0.052l0.357-0.035c-0.01,0.015-0.014,0.028-0.013,0.045c0,0.025,0.019,0.109,0.04,0.18
			l0.293,1.072c0.037,0.134,0.098,0.325,0.17,0.423l-0.422,0.04c0.033-0.066,0.044-0.139,0.043-0.211
			c-0.001-0.046-0.01-0.112-0.027-0.145l-0.484,0.047c-0.016,0.042-0.026,0.101-0.026,0.165c0.003,0.077,0.029,0.151,0.064,0.186
			L37.937,41.729z M38.725,41.043l-0.195-0.744l-0.004,0l-0.161,0.778L38.725,41.043z"/>
		<path fill="#2A1D17" d="M39.242,40.96c0.133,0.276,0.258,0.402,0.44,0.392c0.166-0.009,0.239-0.13,0.241-0.261
			c0.001-0.122-0.046-0.196-0.159-0.253l-0.263-0.133c-0.148-0.077-0.229-0.231-0.228-0.401c0.003-0.297,0.2-0.511,0.463-0.525
			c0.129-0.007,0.171,0.029,0.255,0.023c0.053-0.002,0.086-0.014,0.136-0.064l-0.007,0.604c-0.081-0.197-0.224-0.302-0.369-0.294
			c-0.118,0.006-0.209,0.073-0.211,0.209c-0.001,0.094,0.043,0.152,0.179,0.213l0.187,0.084c0.162,0.074,0.273,0.215,0.271,0.485
			c-0.004,0.333-0.2,0.567-0.477,0.583c-0.134,0.006-0.261-0.047-0.328-0.044c-0.041,0.002-0.086,0.033-0.141,0.087L39.242,40.96z"
			/>
		<path fill="#2A1D17" d="M41.978,40.665c-0.043,0.577-0.218,0.921-0.605,0.918c-0.389-0.003-0.511-0.35-0.468-0.927
			c0.052-0.726,0.309-0.92,0.604-0.918C41.804,39.74,42.031,39.939,41.978,40.665z M41.722,40.663
			c0.036-0.485-0.055-0.653-0.234-0.654c-0.178-0.002-0.293,0.164-0.33,0.649c-0.034,0.44,0.042,0.652,0.234,0.654
			C41.583,41.313,41.69,41.102,41.722,40.663z"/>
		<path fill="#2A1D17" d="M42.305,40.041c0.011-0.094-0.018-0.188-0.071-0.252l0.768,0.039c0.056,0.003,0.088-0.008,0.132-0.032
			l-0.064,0.559c-0.041-0.194-0.152-0.275-0.335-0.284c-0.143-0.007-0.184,0.055-0.196,0.162l-0.032,0.278
			c0.025,0.004,0.068,0.009,0.119,0.011c0.134,0.007,0.185-0.019,0.278-0.134l-0.063,0.547c-0.05-0.117-0.134-0.151-0.245-0.157
			c-0.042-0.002-0.086-0.001-0.119-0.001l-0.063,0.549c-0.011,0.095,0.017,0.188,0.071,0.253l-0.453-0.023
			c0.068-0.059,0.118-0.148,0.128-0.243L42.305,40.041z"/>
		<path fill="#2A1D17" d="M44.111,40.344c0.018-0.107,0.005-0.163-0.083-0.173c-0.139-0.015-0.264,0.147-0.348,0.384h-0.003
			l0.125-0.707c0.021,0.02,0.055,0.045,0.096,0.05l0.823,0.092c0.041,0.004,0.08-0.012,0.11-0.026l-0.125,0.706l-0.004,0
			c0.002-0.246-0.062-0.429-0.201-0.445c-0.088-0.009-0.12,0.041-0.138,0.148l-0.194,1.097c-0.017,0.094,0.006,0.19,0.056,0.257
			l-0.449-0.05c0.07-0.055,0.126-0.142,0.142-0.235L44.111,40.344z"/>
		<path fill="#2A1D17" d="M45.023,40.282c0.021-0.093,0.003-0.19-0.043-0.26l0.426,0.067c-0.077,0.077-0.109,0.125-0.132,0.228
			l-0.099,0.448l0.455,0.072l0.099-0.446c0.024-0.104,0.015-0.158-0.024-0.252l0.426,0.067c-0.073,0.051-0.132,0.136-0.153,0.23
			l-0.278,1.257c-0.021,0.093-0.003,0.19,0.042,0.26l-0.424-0.068c0.076-0.077,0.107-0.124,0.132-0.227l0.125-0.568l-0.455-0.072
			l-0.126,0.568c-0.023,0.103-0.013,0.157,0.025,0.252l-0.426-0.068c0.075-0.051,0.132-0.136,0.152-0.229L45.023,40.282z"/>
		<path fill="#2A1D17" d="M46.36,40.507c0.024-0.093,0.011-0.19-0.032-0.263l0.856,0.179c0.056,0.011,0.089,0.004,0.134-0.011
			l-0.156,0.581c-0.047-0.243-0.141-0.339-0.354-0.383c-0.15-0.032-0.219,0.009-0.257,0.148l-0.065,0.247
			c0.037,0.013,0.085,0.025,0.129,0.035c0.14,0.029,0.249,0.027,0.352-0.088l-0.148,0.553c-0.035-0.142-0.13-0.186-0.271-0.215
			c-0.043-0.009-0.093-0.017-0.133-0.02l-0.089,0.333c-0.038,0.142-0.007,0.205,0.178,0.243c0.218,0.045,0.378-0.027,0.548-0.269
			l-0.18,0.668c-0.025-0.045-0.065-0.071-0.164-0.091l-0.843-0.178c0.074-0.047,0.136-0.13,0.161-0.223L46.36,40.507z"/>
		<path fill="#2A1D17" d="M48.444,40.731c-0.063,0.036-0.117,0.099-0.142,0.173c-0.012,0.035-0.024,0.09-0.035,0.152l-0.182,0.945
			l0.004,0.001l0.562-1.01c0.021-0.04,0.044-0.08,0.053-0.107c0.007-0.024,0.013-0.053,0.013-0.077l0.313,0.09
			c-0.012,0.025-0.022,0.049-0.032,0.073c-0.009,0.03-0.022,0.078-0.03,0.122l-0.189,1.138l0.003,0l0.438-0.848
			c0.044-0.085,0.074-0.141,0.097-0.205c0.026-0.078,0.016-0.147-0.031-0.209l0.416,0.119c-0.098,0.077-0.188,0.2-0.274,0.362
			l-0.587,1.116c-0.018,0.033-0.032,0.062-0.036,0.077c-0.008,0.02-0.005,0.042,0.002,0.061l-0.336-0.096
			c0.012-0.021,0.023-0.048,0.03-0.07c0.014-0.041,0.023-0.102,0.038-0.19l0.166-1.014l-0.003,0l-0.56,1.001
			c-0.018,0.032-0.03,0.059-0.041,0.086c-0.011,0.031-0.003,0.063,0.011,0.083l-0.365-0.104c0.022-0.018,0.038-0.038,0.043-0.056
			c0.009-0.027,0.017-0.057,0.023-0.091l0.202-1.147c0.028-0.162,0.057-0.389,0.022-0.493L48.444,40.731z"/>
		<path fill="#2A1D17" d="M50.484,42.308c-0.215,0.549-0.481,0.83-0.844,0.708c-0.36-0.12-0.37-0.496-0.154-1.044
			c0.27-0.69,0.568-0.801,0.842-0.708C50.604,41.356,50.753,41.619,50.484,42.308z M50.248,42.229
			c0.18-0.461,0.145-0.652-0.021-0.708c-0.166-0.055-0.323,0.07-0.504,0.532c-0.164,0.417-0.159,0.647,0.02,0.708
			C49.92,42.82,50.084,42.646,50.248,42.229z"/>
		<path fill="#2A1D17" d="M50.959,41.819c0.051-0.113,0.066-0.21,0.025-0.306c0.047,0.032,0.09,0.05,0.157,0.076
			c0.056,0.021,0.277,0.087,0.369,0.123c0.329,0.124,0.316,0.392,0.232,0.589c-0.091,0.213-0.216,0.323-0.387,0.323
			c0.077,0.104,0.115,0.194-0.027,0.586c-0.056,0.15-0.074,0.26-0.038,0.366l-0.232-0.087c-0.074-0.027-0.058-0.101,0.045-0.383
			c0.108-0.309,0.091-0.395-0.106-0.468l-0.1-0.038l-0.191,0.442c-0.053,0.122-0.05,0.224-0.013,0.309l-0.418-0.156
			c0.089-0.048,0.133-0.089,0.186-0.215L50.959,41.819z M51,42.358l0.073,0.028c0.211,0.08,0.338,0.057,0.415-0.126
			c0.07-0.163,0.036-0.265-0.134-0.328c-0.113-0.043-0.168-0.008-0.192,0.047L51,42.358z"/>
		<path fill="#2A1D17" d="M52.124,42.238c0.041-0.088,0.045-0.189,0.018-0.268l0.41,0.168c-0.083,0.034-0.157,0.105-0.195,0.193
			l-0.457,0.99c-0.064,0.138-0.049,0.201,0.022,0.23c0.164,0.076,0.343-0.056,0.514-0.255l-0.314,0.682
			c-0.016-0.049-0.049-0.082-0.142-0.121l-0.597-0.245c0.079-0.035,0.154-0.105,0.196-0.193L52.124,42.238z"/>
		<path fill="#2A1D17" d="M52.998,42.627c0.055-0.11,0.076-0.207,0.041-0.305c0.046,0.034,0.108,0.064,0.192,0.102
			c0.109,0.049,0.212,0.077,0.3,0.115c0.348,0.155,0.398,0.542,0.164,1.02c-0.257,0.518-0.574,0.814-1.017,0.618
			c-0.091-0.04-0.186-0.099-0.279-0.141c-0.085-0.037-0.132-0.046-0.175-0.061c0.076-0.031,0.168-0.118,0.232-0.251L52.998,42.627z
			 M52.743,43.704c-0.064,0.135-0.053,0.192,0.062,0.243c0.245,0.108,0.455-0.07,0.647-0.46c0.178-0.359,0.19-0.611-0.031-0.709
			c-0.136-0.06-0.199-0.042-0.258,0.075L52.743,43.704z"/>
	</g>
</g>
<path fill="#FEE356" stroke="#191312" stroke-width="2" stroke-miterlimit="10" d="M51.161,12.59h36c2.209,0,4,1.791,4,4v29
	c0,2.209-1.791,4-4,4h-36c-2.209,0-4-1.791-4-4v-29C47.161,14.381,48.952,12.59,51.161,12.59z"/>
</svg>
