<?xml version="1.0" encoding="utf-8"?>
<!-- Generator: Adobe Illustrator 16.0.0, SVG Export Plug-In . SVG Version: 6.00 Build 0)  -->
<!DOCTYPE svg PUBLIC "-//W3C//DTD SVG 1.1//EN" "http://www.w3.org/Graphics/SVG/1.1/DTD/svg11.dtd">
<svg version="1.1" id="Layer_1" xmlns="http://www.w3.org/2000/svg" xmlns:xlink="http://www.w3.org/1999/xlink" x="0px" y="0px"
	 width="100px" height="100px" viewBox="0 0 100 100" enable-background="new 0 0 100 100" xml:space="preserve">
<g>
	<g>
		<path fill-rule="evenodd" clip-rule="evenodd" fill="#8E7E79" d="M50,1C22.938,1,1,22.938,1,50c0,27.062,21.938,49,49,49
			c27.062,0,49-21.938,49-49C99,22.938,77.062,1,50,1z M57.683,68.029c-3.698,5.55-7.46,9.833-13.79,9.833
			c-4.321-0.705-6.095-3.801-5.157-6.956L46.88,43.94c0.195-0.66-0.136-1.366-0.737-1.578c-0.602-0.211-1.779,0.569-2.797,1.684
			l-4.921,5.922c-0.133-0.99-0.014-2.637-0.014-3.3c3.698-5.551,9.772-9.932,13.892-9.932c3.921,0.402,5.769,3.531,5.085,6.972
			l-8.195,27.097c-0.111,0.614,0.213,1.232,0.77,1.429c0.603,0.211,1.869-0.568,2.887-1.682l4.923-5.925
			C57.905,65.619,57.683,67.366,57.683,68.029z M56.588,32.808c-3.113,0-5.64-2.265-5.64-5.607c0-3.34,2.526-5.607,5.64-5.607
			c3.111,0,5.637,2.267,5.637,5.607C62.225,30.543,59.699,32.808,56.588,32.808z"/>
	</g>
</g>
</svg>
