<?xml version="1.0" encoding="utf-8"?>
<!-- Generator: Adobe Illustrator 16.0.0, SVG Export Plug-In . SVG Version: 6.00 Build 0)  -->
<!DOCTYPE svg PUBLIC "-//W3C//DTD SVG 1.1//EN" "http://www.w3.org/Graphics/SVG/1.1/DTD/svg11.dtd">
<svg version="1.1" id="Layer_1" xmlns="http://www.w3.org/2000/svg" xmlns:xlink="http://www.w3.org/1999/xlink" x="0px" y="0px"
	 width="100px" height="100px" viewBox="0 0 100 100" enable-background="new 0 0 100 100" xml:space="preserve">
<path fill-rule="evenodd" clip-rule="evenodd" fill="#8F7E79" d="M52.401,6.84c0.624,4.318,0.711,9.765,5.337,15.209
	c3.563,4.145,7.563,7.859,10.318,11.23c3.646,4.404,6.23,9.938,6.23,15.553c0,8.988-4.448,17.884-7.474,22.812h-1.422
	c2.135-4.665,6.403-12.358,6.05-20.563c-0.18-4.579-1.962-9.507-4.986-13.133c-3.377-4.236-9.074-7.606-14.054-7.952v48.994
	c0,3.889-2.401,7.431-5.872,10.023c-3.379,2.592-7.827,4.147-11.741,4.147c-2.493,0-4.806-0.779-6.405-2.076
	c-1.691-1.296-2.669-3.194-2.669-5.439c0-3.546,2.49-7.087,5.871-9.681c3.38-2.677,7.649-4.404,11.209-4.404
	c3.115,0,5.781,0.432,7.383,1.901V6.84H52.401z"/>
</svg>
