<?xml version="1.0" encoding="utf-8"?>
<!-- Generator: Adobe Illustrator 16.0.0, SVG Export Plug-In . SVG Version: 6.00 Build 0)  -->
<!DOCTYPE svg PUBLIC "-//W3C//DTD SVG 1.1//EN" "http://www.w3.org/Graphics/SVG/1.1/DTD/svg11.dtd">
<svg version="1.1" id="Layer_1" xmlns="http://www.w3.org/2000/svg" xmlns:xlink="http://www.w3.org/1999/xlink" x="0px" y="0px"
	 width="100px" height="100px" viewBox="0 0 100 100" enable-background="new 0 0 100 100" xml:space="preserve">
<path fill="#766F6C" d="M99,91c0,4.418-3.582,8-8,8H9c-4.418,0-8-3.582-8-8V9c0-4.418,3.582-8,8-8h82c4.418,0,8,3.582,8,8V91z"/>
<path fill="#1E1917" d="M58.348,31.517c0,0-0.699-6.982-7.935-6.982c-1.84,0-6.601-0.953-9.204,7.108c-2.856-0.063-10.98,0-10.98,0
	v3.618H50.73v1.778H31.5l3.935,33.127c0,0,0.634,5.33,3.618,5.33c2.984,0,19.675,0,19.675,0s4.887,0.316,5.584-4.823
	c0.699-5.142,3.176-35.413,3.176-35.413h2.285v-3.744L58.348,31.517L58.348,31.517z M42.668,71.332
	c-0.875,0.064-1.636-0.591-1.701-1.465l-2.044-27.468c-0.065-0.874,0.591-1.636,1.464-1.7c0.874-0.065,1.635,0.59,1.7,1.465
	l2.044,27.468C44.197,70.505,43.541,71.268,42.668,71.332z M51.493,69.786c0,0.878-0.711,1.588-1.588,1.588
	c-0.876,0-1.586-0.71-1.586-1.588V42.243c0-0.877,0.709-1.587,1.586-1.587c0.877,0,1.588,0.71,1.588,1.587V69.786z M44.953,31.321
	c0.509-2.475,3.588-3.138,5.048-3.046c3.587,0,4.409,3.046,4.409,3.046H44.953z M58.844,69.867
	c-0.064,0.875-0.826,1.529-1.701,1.465c-0.873-0.064-1.526-0.827-1.463-1.701l2.045-27.467c0.063-0.875,0.826-1.531,1.699-1.465
	c0.874,0.064,1.53,0.826,1.465,1.7L58.844,69.867z"/>
</svg>
