<?xml version="1.0" standalone="no"?>
<!DOCTYPE svg PUBLIC "-//W3C//DTD SVG 1.1//EN" "http://www.w3.org/Graphics/SVG/1.1/DTD/svg11.dtd" >
<svg xmlns="http://www.w3.org/2000/svg" xmlns:xlink="http://www.w3.org/1999/xlink" version="1.1">
<metadata></metadata>
<defs>
<font id="superstore.italicregular" horiz-adv-x="358" >
<font-face units-per-em="2048" ascent="1638" descent="-410" />
<missing-glyph horiz-adv-x="378" />
<glyph unicode="&#x3b;&#x3b;For&#x20;Education&#x20;Used&#x20;Only&#x3b;&#x3b;" horiz-adv-x="1269" d="M203 512q18 109 75.5 204t141.5 165.5t186 111.5t211 41t196 -41t145.5 -111.5t83 -165.5t5.5 -204q-18 -109 -76.5 -204t-141.5 -165.5t-185.5 -111.5t-210.5 -41q-109 0 -197 41t-146.5 111.5t-82 165.5t-4.5 204zM301 512q-16 -84 5.5 -161t69.5 -135t118.5 -93 t154.5 -35t167 35t151.5 93t117 135t64.5 161q14 84 -7.5 161t-69.5 135t-118.5 93t-154.5 35t-167 -35t-151.5 -93t-117 -135t-62.5 -161zM437.5 307q-13.5 51 2.5 137l23 127q14 84 45 135.5t74 79t95 36.5t109 9q45 0 96.5 -5t116.5 -35l-41 -89q-47 29 -98 33t-74 4 q-29 0 -63.5 -3t-65 -18.5t-56.5 -49t-36 -97.5l-22 -127q-12 -63 1 -97t38.5 -49t59.5 -18.5t63 -3.5q20 0 74.5 4.5t109.5 32.5l10 -88q-76 -31 -129 -36t-98 -5q-57 0 -106.5 8.5t-82 36t-46 78.5z" />
<glyph unicode="&#x3b;&#x3b;Registered&#x3b;&#x3b;" horiz-adv-x="1269" d="M203 512q18 109 75.5 204t141.5 165.5t186 111.5t211 41t196 -41t145.5 -111.5t83 -165.5t5.5 -204q-18 -109 -76.5 -204t-141.5 -165.5t-185.5 -111.5t-210.5 -41q-109 0 -197 41t-146.5 111.5t-82 165.5t-4.5 204zM301 512q-16 -84 5.5 -161t69.5 -135t118.5 -93 t154.5 -35t167 35t151.5 93t117 135t64.5 161q14 84 -7.5 161t-69.5 135t-118.5 93t-154.5 35t-167 -35t-151.5 -93t-117 -135t-62.5 -161zM457 215l108 610h301q80 0 107.5 -54t11.5 -148q-14 -78 -49 -129.5t-86 -67.5l55 -211h-102l-53 203h-156l-35 -203h-102zM610 502 h181q49 0 65 35.5t27 85.5q10 47 4 81.5t-56 34.5h-180z" />
<glyph unicode="&#x3b;&#x3b;Multiply&#x3b;&#x3b;" horiz-adv-x="849" d="M137 176l262 223l-180 217l111 95l180 -217l260 221l78 -94l-262 -222l180 -219l-111 -94l-178 219l-262 -221z" />
<glyph unicode="&#x3b;&#x3b;Divide&#x3b;&#x3b;" horiz-adv-x="985" d="M172 340l21 119h759l-20 -119h-760zM444 164q4 31 31 54.5t55 23.5q31 0 50.5 -23.5t15.5 -54.5q-6 -29 -33.5 -51.5t-58.5 -22.5q-29 0 -47.5 22.5t-12.5 51.5zM526 631q4 31 32 54.5t56 23.5q31 0 49.5 -23.5t14.5 -54.5q-6 -29 -34 -51.5t-58 -22.5q-29 0 -47.5 22.5 t-12.5 51.5z" />
<glyph unicode="&#x2018;&#x2018;" horiz-adv-x="616" d="M264 870l156 232h80l-119 -232h-117zM461 870l155 232h80l-118 -232h-117z" />
<glyph unicode="&#x2019;&#x2019;" horiz-adv-x="616" d="M264 870l119 232h117l-156 -232h-80zM461 870l119 232h116l-155 -232h-80z" />
<glyph unicode="&#x3b;&#x3b;Trademark&#x3b;&#x3b;" horiz-adv-x="1404" d="M276 940l17 84h471l-16 -84h-185l-96 -551h-102l96 551h-185zM715 389l112 635h179l45 -555l243 555h179l-113 -635h-103l103 580l-252 -580h-139l-49 580l-103 -580h-102z" />
<glyph horiz-adv-x="0" />
<glyph unicode="&#xd;" horiz-adv-x="579" />
<glyph unicode=" "  horiz-adv-x="378" />
<glyph unicode="&#x09;" horiz-adv-x="378" />
<glyph unicode="&#xa0;" horiz-adv-x="378" />
<glyph unicode="!" d="M113 63q4 31 31.5 54.5t56.5 23.5q31 0 49 -23.5t14 -54.5q-4 -29 -31.5 -51t-58.5 -22q-29 0 -47 22t-14 51zM164 236q18 113 34.5 208t32 187t29.5 187t33 206h133q-23 -111 -41 -206t-35.5 -187t-35 -187.5t-38.5 -207.5h-112z" />
<glyph unicode="&#x22;" horiz-adv-x="557" d="M291 870l14 232h133l-67 -232h-80zM489 870l15 232h133l-68 -232h-80z" />
<glyph unicode="#" horiz-adv-x="1263" d="M133 0l141 276h-114l22 119h154l133 256h-129l20 119h168l131 254h134l-131 -254h364l131 254h133l-131 -254h127l-20 -119h-166l-133 -256h141l-23 -119h-180l-141 -276h-133l141 276h-364l-142 -276h-133zM469 395h365l133 256h-365z" />
<glyph unicode="$" horiz-adv-x="962" d="M125 117l113 76q37 -35 78.5 -53.5t89.5 -24.5l63 354q-51 14 -97 35.5t-78 52.5t-47.5 76t-4.5 106q12 63 42.5 114.5t76 89.5t99.5 60.5t109 30.5l19 113h133l-19 -113q72 -4 142.5 -18.5t111.5 -40.5l-73 -103q-35 18 -91.5 27.5t-111.5 13.5l-57 -329q57 -18 111 -41 t95 -55.5t62.5 -80t9.5 -112.5q-16 -86 -53 -143.5t-89 -92t-114.5 -51t-126.5 -18.5l-18 -103h-133l18 103q-82 8 -152.5 35.5t-107.5 91.5zM375 739q-8 -43 27.5 -68.5t93.5 -47.5l51 286q-59 -10 -108.5 -51t-63.5 -119zM539 111q37 4 74.5 16t69.5 35.5t54.5 56.5 t30.5 76q4 29 -7 49.5t-36 36.5t-57.5 28.5t-71.5 22.5z" />
<glyph unicode="%" horiz-adv-x="1204" d="M141 0h168l934 1024h-168zM236 707l30 176q6 39 26.5 67.5t50.5 48t64.5 28.5t71.5 9q72 0 121 -37.5t35 -115.5l-31 -176q-16 -86 -74.5 -120t-136.5 -34q-39 0 -70.5 8t-54 25.5t-32 47.5t-0.5 73zM344 707q-4 -29 2 -44.5t64 -15.5q57 0 69.5 15.5t16.5 44.5l30 176 q2 10 3 20t-4 19.5t-19 15.5t-43 6t-45.5 -6t-25.5 -15.5t-12 -19.5t-5 -20zM750 154l30 176q6 39 26.5 67.5t49.5 48t63.5 28.5t71.5 9t69 -9t53.5 -28.5t31.5 -48t4 -67.5l-31 -176q-16 -86 -74.5 -120t-136.5 -34q-39 0 -70.5 8t-54 25.5t-32 47.5t-0.5 73zM858 154 q-4 -29 2 -44.5t64 -15.5q57 0 69.5 15.5t16.5 44.5l30 176q2 10 2 20t-5 19.5t-19 15.5t-43 6t-45.5 -6t-24.5 -15.5t-11 -19.5t-5 -20z" />
<glyph unicode="&#x26;" horiz-adv-x="1081" d="M164 301q8 49 32.5 86t60.5 64.5t78 47t89 36.5q-23 55 -31 112.5t2 116.5q12 68 34 118t58.5 83.5t91 51t132.5 17.5t126 -17.5t72.5 -51t27.5 -84t-9 -117.5q-10 -59 -42 -101t-77 -73t-100.5 -53.5t-110.5 -40.5q41 -63 98.5 -130t122.5 -147q33 39 56.5 95.5 t37.5 136.5h134q-20 -113 -59.5 -191t-90.5 -131l102 -129h-149l-49 55q-72 -41 -143.5 -53t-131.5 -12q-74 0 -147.5 9t-126.5 41t-79.5 93.5t-8.5 167.5zM297 190.5q12 -38.5 45 -57t84 -21.5t119 -3q45 0 90 5t90 27q-70 72 -137.5 149t-118.5 159q-68 -27 -115 -61 t-57 -87q-12 -72 0 -110.5zM527.5 670q7.5 -45 25.5 -92q45 14 86 30.5t72.5 38t54 50t29.5 67.5q8 47 11 76.5t-7.5 46t-36 22.5t-74.5 6t-76.5 -6t-43 -22.5t-24 -46t-16.5 -76.5q-8 -49 -0.5 -94z" />
<glyph unicode="'" d="M291 870l14 232h133l-67 -232h-80z" />
<glyph unicode="(" horiz-adv-x="464" d="M176 209q2 86 9.5 168t19.5 147q10 61 30.5 141t48 163t61.5 163t73 142h133q-35 -63 -68.5 -144.5t-62.5 -164.5t-50.5 -163.5t-33.5 -144.5q-12 -66 -18.5 -146.5t-7.5 -165.5t4 -167t18 -146h-133q-14 66 -19.5 149t-3.5 169z" />
<glyph unicode=")" horiz-adv-x="464" d="M92 -109q35 63 69 145.5t62.5 167.5t51 166t34.5 146q12 63 18.5 144t6.5 164t-5 164t-18 145h133q16 -61 22.5 -141.5t5.5 -163.5t-9 -162.5t-19 -141.5q-12 -66 -33.5 -147.5t-50 -167.5t-63.5 -169t-72 -149h-133z" />
<glyph unicode="*" horiz-adv-x="768" d="M258 825l45 123l205 -78l6 232h125l-76 -232l234 78l4 -123l-236 -10l135 -166l-112 -74l-68 193l-139 -193l-88 74l196 166z" />
<glyph unicode="+" horiz-adv-x="985" d="M172 340l21 119h313l55 317h133l-55 -317h313l-20 -119h-314l-57 -317h-133l57 317h-313z" />
<glyph unicode="," d="M82 -168l51 287h133l-41 -232z" />
<glyph unicode="-" horiz-adv-x="851" d="M172 340l21 119h626l-20 -119h-627z" />
<glyph unicode="." horiz-adv-x="376" d="M123 63q4 31 31.5 54.5t56.5 23.5q31 0 49.5 -23.5t13.5 -54.5q-4 -29 -31.5 -51t-58.5 -22q-29 0 -47 22t-14 51z" />
<glyph unicode="/" horiz-adv-x="770" d="M61 0l713 1133h133l-712 -1133h-134z" />
<glyph unicode="0" horiz-adv-x="946" d="M160 326l73 419q27 156 131.5 222.5t290.5 66.5t266 -66.5t54 -222.5l-74 -419q-33 -182 -138.5 -259t-291.5 -77q-188 0 -266 76.5t-45 259.5zM292 209q11 -43 39.5 -65.5t70.5 -28.5t90 -6q47 0 91 6t80.5 28.5t64.5 65.5t40 117l74 419q10 59 -4.5 93t-44 51.5 t-71.5 21.5t-89 4t-91 -4t-79 -21.5t-60.5 -51t-35.5 -93.5l-74 -419q-12 -74 -1 -117z" />
<glyph unicode="1" horiz-adv-x="602" d="M238 887l299 137h133l-181 -1024h-133l158 895l-242 -117z" />
<glyph unicode="2" horiz-adv-x="870" d="M92 0l21 119q12 78 62 139t117.5 113.5t143.5 97.5t142.5 86t112.5 82t54 86l15 80q6 39 -7.5 61.5t-39 33.5t-60.5 14t-71 3q-37 0 -74 -3t-65.5 -14t-49 -33.5t-26.5 -61.5l-7 -29h-133l6 29q23 125 122.5 178t248.5 53q150 0 229.5 -53t59.5 -178l-14 -80 q-10 -66 -59.5 -121t-117 -105.5t-144.5 -96.5t-143.5 -92t-113.5 -92t-55 -97h542l-20 -119h-676z" />
<glyph unicode="3" horiz-adv-x="854" d="M127 260l4 21h133l-4 -21q-8 -41 3 -69.5t36 -47t58.5 -26.5t72.5 -8q78 0 142.5 33.5t80.5 117.5l15 80q6 37 -5.5 58.5t-35 33.5t-56 16.5t-67.5 4.5h-123l22 118h123q72 0 133.5 37t75.5 115l15 80q6 39 -7.5 61.5t-39 33.5t-60.5 14t-72 3t-73.5 -3t-65.5 -14 t-49.5 -33.5t-26.5 -61.5l-6 -29h-133l6 29q23 125 122 178t249 53t229.5 -53t59.5 -178l-15 -80q-25 -137 -127 -205q80 -57 60 -178l-15 -80q-25 -141 -125 -205.5t-251 -64.5q-168 0 -237 71.5t-46 198.5z" />
<glyph unicode="4" horiz-adv-x="845" d="M80 281l20 118l574 625h149l-110 -625h141l-20 -118h-142l-49 -281h-133l49 281h-479zM250 399h330l77 441z" />
<glyph unicode="5" horiz-adv-x="874" d="M147 260h134q-8 -41 3 -69.5t35.5 -47t58.5 -26.5t73 -8q78 0 142 33.5t81 117.5l31 176q6 39 -6.5 61.5t-38 34t-60.5 14.5t-72 3t-73.5 -3t-65.5 -14.5t-50.5 -34t-27.5 -61.5h-133l105 588h635l-23 -119h-502l-47 -270q84 33 203 33q150 0 229.5 -53.5t59.5 -178.5 l-31 -176q-25 -141 -125 -205.5t-252 -64.5q-168 0 -236.5 71.5t-46.5 198.5z" />
<glyph unicode="6" horiz-adv-x="843" d="M137 260l23 133q4 23 11 44.5t19 39.5l306 547h141l-231 -414q33 8 59 11.5t65 3.5q150 0 231 -53.5t58 -178.5l-22 -133q-25 -141 -125.5 -205.5t-251.5 -64.5q-168 0 -236.5 71.5t-46.5 198.5zM270 260q-8 -41 3.5 -69.5t36 -47t58 -26.5t72.5 -8q78 0 142.5 33.5 t81.5 117.5l22 133q6 39 -6 61.5t-38 34t-60.5 14.5t-71.5 3t-74 -3t-65.5 -14.5t-50 -34t-27.5 -61.5z" />
<glyph unicode="7" horiz-adv-x="737" d="M178 0l496 905h-486l23 119h625l-23 -119l-496 -905h-139z" />
<glyph unicode="8" horiz-adv-x="884" d="M158 260l14 80q20 121 119 178q-76 70 -51 205l14 80q23 125 122 178t249 53t229.5 -53t58.5 -178l-14 -80q-25 -137 -127 -205q80 -57 59 -178l-14 -80q-25 -141 -125 -205.5t-252 -64.5q-168 0 -236.5 71.5t-45.5 198.5zM291 260q-8 -41 3 -69.5t35.5 -47t58.5 -26.5 t73 -8q78 0 142.5 33.5t80.5 117.5l14 80q6 37 -5 58.5t-34.5 33.5t-56.5 16.5t-67 4.5h-15q-37 0 -72.5 -3.5t-65.5 -14.5t-50.5 -33.5t-26.5 -61.5zM373 723q-8 -41 3 -69.5t35.5 -47t58.5 -27t73 -8.5q78 0 142.5 34t80.5 118l14 80q6 39 -7 61.5t-38.5 33.5t-60.5 14 t-72 3t-73.5 -3t-65.5 -14t-49.5 -33.5t-26.5 -61.5z" />
<glyph unicode="9" horiz-adv-x="802" d="M162 631l22 133q25 141 126.5 205.5t252.5 64.5q168 0 235.5 -71.5t45.5 -198.5l-23 -133q-4 -23 -11 -44.5t-17 -39.5l-306 -547h-141l229 414q-33 -8 -59 -11.5t-65 -3.5q-74 0 -132.5 13.5t-97.5 41t-54 71.5t-5 106zM295 631q-6 -39 6 -61.5t38 -34t60.5 -14.5 t71.5 -3t74 3t65.5 14.5t50 34t27.5 61.5l23 133q8 41 -3.5 69.5t-36 47t-58 26.5t-72.5 8q-78 0 -142.5 -33.5t-81.5 -117.5z" />
<glyph unicode=":" horiz-adv-x="376" d="M123 63q4 31 31.5 54.5t56.5 23.5q31 0 49.5 -23.5t13.5 -54.5q-4 -29 -31.5 -51t-58.5 -22q-29 0 -47 22t-14 51zM233 686q4 31 31 54.5t55 23.5q31 0 50.5 -23.5t15.5 -54.5q-6 -29 -33.5 -51.5t-58.5 -22.5q-29 0 -47.5 22.5t-12.5 51.5z" />
<glyph unicode=";" horiz-adv-x="376" d="M90 -168l51 287h133l-41 -232zM233 686q4 31 31 54.5t55 23.5q31 0 50.5 -23.5t15.5 -54.5q-6 -29 -33.5 -51.5t-58.5 -22.5q-29 0 -47.5 22.5t-12.5 51.5z" />
<glyph unicode="&#x3c;" horiz-adv-x="876" d="M168 324l27 145l706 309l-24 -135l-551 -246l462 -247l-22 -136z" />
<glyph unicode="=" horiz-adv-x="854" d="M147 190l21 119h627l-21 -119h-627zM195 459l20 119h627l-21 -119h-626z" />
<glyph unicode="&#x3e;" horiz-adv-x="876" d="M115 14l22 136l553 247l-465 246l25 135l596 -309l-27 -145z" />
<glyph unicode="?" horiz-adv-x="768" d="M268 63q4 31 32 54.5t56 23.5q31 0 49.5 -23.5t14.5 -54.5q-4 -29 -32 -51t-58 -22q-29 0 -47.5 22t-14.5 51zM285 987q53 27 119.5 37t136.5 10q160 0 218 -59.5t36 -177.5q-10 -53 -35 -89t-58.5 -61.5t-70.5 -46t-69 -42t-56.5 -49.5t-30.5 -69l-37 -213h-133l37 213 q16 90 64.5 137.5t102.5 78t98 59t55 82.5q10 63 -35 90.5t-109 27.5q-51 0 -104.5 -7t-100.5 -27z" />
<glyph unicode="@" horiz-adv-x="1148" d="M146.5 176q5.5 47 11.5 90l86 479q27 156 146.5 222.5t305.5 66.5h121q92 0 164 -16.5t118 -51t63.5 -89t4.5 -132.5l-131 -745h-133l12 80q-27 -35 -64.5 -52.5t-73.5 -26.5t-63.5 -10t-33.5 -1q-82 0 -135 19.5t-83 56t-38 88t4 114.5l31 176q23 125 118 178.5 t244 53.5q4 0 27.5 -1t52.5 -5t59.5 -15.5t51.5 -29.5l22 120q10 59 -8 93t-54 51.5t-83 21.5t-94 4h-121q-47 0 -95.5 -4t-90.5 -21.5t-71.5 -51t-39.5 -93.5l-86 -479q-4 -31 -8 -58.5t-2 -50t12 -35.5t33 -13h43l-19 -109h-43q-72 0 -106.5 25.5t-47 64.5t-7 86zM561 268 q-16 -80 25 -119.5t123 -39.5q45 0 86 10t72.5 26.5t51 37t23.5 40.5l47 269q-16 45 -72.5 55t-117.5 10q-37 0 -72 -3t-62.5 -14.5t-47 -34t-25.5 -61.5z" />
<glyph unicode="A" horiz-adv-x="978" d="M31 0l565 1024h145l207 -1024h-135l-55 279h-443l-149 -279h-135zM381 397h354l-94 484z" />
<glyph unicode="B" horiz-adv-x="954" d="M113 0l180 1024h508q125 0 166 -70q25 -43 25 -114q0 -47 -11 -107q-16 -80 -39.5 -134t-62.5 -89q29 -35 33 -89q1 -11 0 -23q0 -47 -11 -109q-27 -150 -91.5 -219.5t-188.5 -69.5h-508zM266 119h375q76 0 102.5 47t38.5 123q7 43 7 76q0 22 -3 40q-8 44 -73 48h-389z M346 571h375q39 0 62.5 11.5t39 32t24.5 51t15 67.5t8 69t-6 55.5t-27.5 35.5t-58.5 12h-375z" />
<glyph unicode="C" horiz-adv-x="978" d="M170 188q-9 37 -9 86q0 59 13 134l37 208q25 137 74 219.5t117.5 126.5t153.5 58t177 14q74 0 158 -8t186 -57l-61 -113q-37 23 -78 35t-80 17t-71.5 6t-51.5 1q-47 0 -106.5 -5t-116.5 -32.5t-103.5 -88t-64.5 -173.5l-37 -208q-9 -51 -9 -91q0 -49 14 -83 q24 -60 71 -87.5t105.5 -32.5t105.5 -5q18 0 52 1t74 6t86 17t89 35l20 -113q-119 -49 -205.5 -57t-160.5 -8q-92 0 -172 14t-133.5 58t-73.5 126z" />
<glyph unicode="D" horiz-adv-x="995" d="M113 0l180 1024h332q92 0 172 -14.5t132 -58.5q51 -44 73 -126q10 -38 11 -88q0 -58 -14 -131l-34 -188q-25 -137 -74 -219t-117.5 -126t-152.5 -58.5t-177 -14.5h-331zM266 119h174q47 0 106.5 5t117 32.5t103.5 88t64 173.5l35 188q8 48 8 87q0 53 -14 87 q-24 60 -71.5 87.5t-105.5 32.5t-105 5h-175z" />
<glyph unicode="E" horiz-adv-x="882" d="M113 0l180 1024h678l-23 -119h-545l-57 -325h545l-21 -119h-544l-60 -342h545l-20 -119h-678z" />
<glyph unicode="F" horiz-adv-x="835" d="M113 0l180 1024h672l-23 -119h-539l-49 -289h475l-22 -118h-475l-86 -498h-133z" />
<glyph unicode="G" horiz-adv-x="999" d="M170 188q-9 37 -9 86q0 59 13 134l37 208q25 137 74 219.5t117.5 126.5t153.5 58t177 14q74 0 158 -8t186 -57l-61 -113q-37 23 -78 35t-80 17t-71.5 6t-51.5 1q-47 0 -106.5 -5t-116.5 -32.5t-103.5 -88t-64.5 -173.5l-37 -208q-9 -51 -9 -91q0 -49 14 -83 q24 -60 71 -87.5t105.5 -32.5t105.5 -5q29 0 83 3t120 19l51 289h-195l21 119h327l-86 -484q-119 -49 -205.5 -57t-160.5 -8q-92 0 -172 14t-133.5 58t-73.5 126z" />
<glyph unicode="H" horiz-adv-x="1011" d="M113 0l180 1024h133l-80 -444h520l80 444h133l-180 -1024h-133l80 461h-520l-80 -461h-133z" />
<glyph unicode="I" d="M113 0l180 1024h133l-180 -1024h-133z" />
<glyph unicode="J" horiz-adv-x="745" d="M37 43l53 113q29 -18 62.5 -27.5t64.5 -13.5t56.5 -5t41.5 -1q37 0 76 3t73 23.5t61.5 64.5t41.5 126l123 698h133l-123 -698q-20 -111 -55 -176.5t-83 -101.5t-110.5 -47t-136.5 -11q-59 0 -126.5 6t-151.5 47z" />
<glyph unicode="K" horiz-adv-x="1017" d="M113 0l180 1024h133l-78 -440l621 440h186l-395 -291l196 -733h-137l-174 653l-326 -225l-73 -428h-133z" />
<glyph unicode="L" horiz-adv-x="813" d="M113 0l180 1024h133l-160 -905h506l-20 -119h-639z" />
<glyph unicode="M" horiz-adv-x="1232" d="M113 0l180 1024h237l109 -895l424 895h237l-180 -1024h-133l164 936l-451 -936h-168l-122 936l-164 -936h-133z" />
<glyph unicode="N" horiz-adv-x="1052" d="M113 0l180 1024h227l307 -895l158 895h135l-180 -1024h-203l-327 936l-164 -936h-133z" />
<glyph unicode="O" horiz-adv-x="1007" d="M160 170q-8 31 -9 69q0 40 9 87l73 419q27 156 147 222.5t306 66.5q92 0 164 -16.5t118 -51t64 -88.5q10 -31 10 -71q0 -29 -6 -62l-73 -419q-16 -92 -55.5 -156t-97.5 -103.5t-136 -58t-172 -18.5t-165 18.5t-116 58t-61 103.5zM293 326q-5 -32 -6 -58q0 -35 10 -59 q16 -43 50 -65.5t81 -28.5t94 -6t96.5 6t92.5 28.5t74.5 65.5t43.5 117l74 419q4 21 4 39q0 32 -12 54q-18 34 -54 51.5t-83 21.5t-94 4t-95.5 -4t-90.5 -21.5t-71.5 -51t-39.5 -93.5z" />
<glyph unicode="P" horiz-adv-x="890" d="M113 0l180 1024h475q125 0 163 -86q22 -50 22 -122q0 -51 -11 -114q-27 -150 -95.5 -235.5t-193.5 -85.5h-342l-65 -381h-133zM334 500h342q39 0 63.5 17.5t41 46t26.5 65.5t16 73q5 37 9 74q1 13 2 25q0 23 -4 41q-6 28 -26 45.5t-59 17.5h-342z" />
<glyph unicode="Q" horiz-adv-x="1009" d="M160 170q-9 31 -9 69q0 40 9 87l73 419q27 156 147 222.5t306 66.5q92 0 164 -16.5t118 -51t64 -88.5q10 -32 10 -71q0 -29 -6 -62l-73 -419q-23 -119 -79.5 -192t-148.5 -107q53 -57 166 -58l-20 -119q-16 0 -55.5 10.5t-80 30t-76.5 47t-46 60.5q-29 -4 -58.5 -6 t-62.5 -2q-94 0 -165 18.5t-116 58t-61 103.5zM293 326q-5 -32 -5 -58q0 -34 9 -59q16 -43 50 -65.5t81 -28.5t94 -6t96.5 6t92.5 28.5t74.5 65.5t43.5 117l74 419q4 21 4 39q0 32 -12 54q-18 34 -54 51.5t-83 21.5t-94 4t-95.5 -4t-90.5 -21.5t-71.5 -51t-39.5 -93.5z" />
<glyph unicode="R" horiz-adv-x="915" d="M113 0l180 1024h475q125 0 163 -86q22 -50 22 -122q0 -51 -11 -114q-23 -121 -70 -200.5t-131 -108.5l133 -393h-133l-129 381h-301l-65 -381h-133zM334 500h342q39 0 63.5 17.5t41 46t26.5 65.5t16 73q5 37 9 74q1 13 2 25q0 23 -4 41q-6 28 -26 45.5t-59 17.5h-342z " />
<glyph unicode="S" horiz-adv-x="909" d="M102 117l113 76q55 -53 125 -68.5t145 -15.5q39 0 81 11t79 33.5t64.5 57.5t35.5 84q1 9 1 17q0 40 -32 62q-40 28 -103.5 48t-138.5 38.5t-136.5 51.5t-97.5 86q-24 37 -24 90q0 24 5 51q12 74 51 129.5t92.5 92t117 55t126.5 18.5q43 0 90 -3t91 -10t82 -18.5t65 -27.5 l-74 -103q-25 12 -59.5 20.5t-72.5 13.5t-76 7t-68 2q-39 0 -77 -9t-69.5 -29.5t-54.5 -54.5t-31 -83q-1 -8 -1 -14q0 -35 33 -57q40 -26 103.5 -48t138 -44.5t136 -56.5t96.5 -87q25 -38 25 -92q0 -21 -4 -45q-16 -90 -57.5 -149.5t-97.5 -94.5t-122.5 -48t-134.5 -13 q-53 0 -107.5 4t-103.5 18.5t-89 39t-65 65.5z" />
<glyph unicode="T" horiz-adv-x="874" d="M215 905l23 119h759l-22 -119h-313l-158 -905h-133l157 905h-313z" />
<glyph unicode="U" horiz-adv-x="1007" d="M160 170q-8 31 -9 69q0 40 9 87l123 698h133l-123 -698q-5 -32 -6 -58q0 -35 10 -59q16 -43 50 -65.5t81 -28.5t94 -6t96.5 6t92.5 28.5t74.5 65.5t43.5 117l123 698h133l-122 -698q-16 -92 -55.5 -156t-97.5 -103.5t-136 -58t-172 -18.5t-165 18.5t-116 58t-61 103.5z " />
<glyph unicode="V" horiz-adv-x="978" d="M211 1024h135l166 -881l481 881h135l-567 -1024h-145z" />
<glyph unicode="W" horiz-adv-x="1191" d="M211 1024h135l19 -881l288 568h135l89 -568l329 881h135l-393 -1024h-151l-107 535l-284 -535h-162z" />
<glyph unicode="X" horiz-adv-x="960" d="M31 0l463 516l-283 508h158l219 -403l364 403h158l-463 -508l283 -516h-146l-233 414l-375 -414h-145z" />
<glyph unicode="Y" horiz-adv-x="972" d="M211 1024h158l219 -436l377 436h157l-487 -559l-82 -465h-133l82 465z" />
<glyph unicode="Z" horiz-adv-x="907" d="M92 0l19 109l712 806h-571l20 109h721l-20 -109l-705 -806h566l-19 -109h-723z" />
<glyph unicode="[" horiz-adv-x="450" d="M92 -109l219 1242h226l-19 -109h-92l-180 -1024h92l-21 -109h-225z" />
<glyph unicode="\" horiz-adv-x="770" d="M260 1133h133l316 -1133h-134z" />
<glyph unicode="]" horiz-adv-x="450" d="M92 -109l21 109h92l180 1024h-92l18 109h226l-220 -1242h-225z" />
<glyph unicode="^" horiz-adv-x="786" d="M197 483l305 541h145l111 -541h-135l-76 398l-215 -398h-135z" />
<glyph unicode="_" horiz-adv-x="759" d="M-35 -201l19 99h757l-18 -99h-758z" />
<glyph unicode="`" horiz-adv-x="442" d="M309 1102h133l39 -236h-80z" />
<glyph unicode="a" horiz-adv-x="858" d="M123 154q4 45 12 92q23 129 111 179t225 50q25 0 55.5 -1t62.5 -3t58.5 -6t42.5 -12l27 145q6 39 -5.5 61.5t-35 34t-57 14.5t-70.5 3t-72 -3t-63.5 -14.5t-48 -34t-25.5 -61.5l-4 -23h-133l4 23q23 125 118 178t244 53t225 -53q60 -42 60 -129q0 -23 -4 -49l-105 -598 h-133l13 80q-31 -35 -69 -52.5t-74 -26.5t-62.5 -10t-32.5 -1q-111 0 -168 22.5t-79 59.5q-18 31 -18 68q0 7 1 14zM246 181.5q-2 -27.5 12 -44t49 -22.5t103 -6q96 0 163.5 33.5t77.5 80.5l11 60q4 27 -15.5 42t-52.5 22t-71 8t-70 1q-68 0 -126.5 -20.5t-70.5 -85.5 q-8 -41 -10 -68.5z" />
<glyph unicode="b" horiz-adv-x="860" d="M113 0l192 1102h133l-55 -324q27 18 61.5 29.5t65.5 15.5t54.5 5t27.5 1q150 0 226 -53q59 -41 59 -127q0 -24 -5 -51l-57 -330q-23 -127 -105.5 -202.5t-244.5 -75.5q-6 0 -34 1t-60.5 10t-64.5 26.5t-48 52.5l-12 -80h-133zM285 223q-4 -20 8 -40.5t38.5 -37 t63.5 -26.5t82 -10q82 0 135.5 39.5t69.5 119.5l57 330q6 39 -5 61.5t-34.5 34t-57.5 14.5t-71 3q-61 0 -121.5 -10.5t-91.5 -55.5z" />
<glyph unicode="c" horiz-adv-x="790" d="M146 150q-7 29 -8 66q0 48 12 110l28 168q18 111 58 176t95.5 101t124 47t142.5 11q59 0 127 -6t149 -47l-51 -112q-29 18 -62.5 27t-64 13.5t-57.5 5.5t-41 1q-37 0 -81 -3t-85 -23.5t-73.5 -65t-47.5 -125.5l-28 -168q-7 -38 -7 -68q0 -34 9 -58q16 -44 50 -64.5 t77 -23.5t80 -3q14 0 40.5 1t59.5 5t69.5 13t71.5 28l12 -113q-47 -20 -88 -30.5t-76.5 -15.5t-67.5 -6t-62 -1q-74 0 -138.5 11t-107.5 47t-59 102z" />
<glyph unicode="d" horiz-adv-x="860" d="M135 154q-3 21 -3 43q0 34 7 71l58 330q23 125 118 178t244 53q4 0 27.5 -1t53.5 -5t60.5 -15t51.5 -30l55 324h133l-192 -1102h-134l13 80q-27 -35 -65 -52.5t-73.5 -26.5t-63.5 -10t-34 -1q-82 0 -135 19.5t-83 56t-38 88.5zM272 268q-4 -22 -4 -42q0 -50 29 -78 q41 -40 123 -39q45 0 86 10t72.5 26.5t51 37t23.5 40.5l74 422q-16 45 -71.5 55.5t-116.5 10.5q-37 0 -72 -3t-63.5 -14.5t-48 -34t-25.5 -61.5z" />
<glyph unicode="e" horiz-adv-x="845" d="M148 150q-9 31 -9 71q0 46 11 105l40 233q25 141 126.5 205.5t252.5 64.5q168 1 238 -71q53 -54 53 -140q0 -28 -6 -59l-33 -178h-530l-8 -55q-6 -36 -6 -64q0 -37 10 -62q18 -44 53 -64.5t80 -23.5t82 -3q14 0 42.5 1t63.5 5t73 13t73 28l12 -113q-96 -41 -171 -47 t-134 -6q-74 0 -139.5 11t-110.5 47t-63 102zM313 500h398l10 59q2 14 2 27q0 24 -7 42q-11 28 -36 47t-58.5 27.5t-72.5 8.5q-78 0 -144.5 -35t-80.5 -117z" />
<glyph unicode="f" horiz-adv-x="573" d="M176 700l21 119h133l6 39q12 70 29.5 120t46 83t71.5 49t107 16q12 0 32.5 -1t43 -5t45 -13t41.5 -28l-66 -94q-39 16 -63.5 19.5t-53.5 3.5q-25 0 -41 -6.5t-26 -23.5t-17.5 -46t-15.5 -74l-6 -39h217l-21 -119h-217l-123 -700h-133l123 700h-133z" />
<glyph unicode="g" horiz-adv-x="860" d="M76 -326l53 113q29 -18 62.5 -27.5t64.5 -13.5t56.5 -5t41.5 -1q37 0 76 3t73 23.5t61.5 64.5t41.5 126l15 84q-27 -18 -62 -29.5t-65.5 -15.5t-54 -5t-27.5 -1q-150 0 -226 53q-60 41 -60 126q0 24 5 52l57 330q23 127 105 202.5t246 75.5q6 0 33.5 -1t60.5 -10 t63.5 -27.5t46.5 -51.5l15 80h133l-152 -862q-18 -111 -53 -176.5t-84 -101t-111.5 -47t-136.5 -11.5q-59 0 -126.5 6t-151.5 47zM264 221q-6 -39 5.5 -61.5t35 -33.5t57 -14t70.5 -3q61 0 120.5 10t90.5 55l76 422q4 20 -8.5 40.5t-39 37t-63.5 27t-82 10.5q-82 0 -136 -40 t-68 -120z" />
<glyph unicode="h" horiz-adv-x="860" d="M113 0l192 1102h133l-67 -393q29 41 63.5 63.5t68.5 32.5t62.5 12t44.5 2q82 0 135.5 -19.5t82.5 -55.5q30 -36 38 -88q3 -21 4 -44q0 -34 -8 -71l-94 -541h-133l94 541q4 21 4 39q1 50 -29 80q-40 40 -122 40q-92 0 -160 -42t-82 -117l-94 -541h-133z" />
<glyph unicode="i" d="M113 0l143 819h133l-143 -819h-133zM285 1034q4 31 30.5 54.5t55.5 23.5q31 0 50 -23.5t15 -54.5q-6 -29 -33.5 -51t-58.5 -22q-29 0 -47 22t-12 51z" />
<glyph unicode="j" d="M-211 -315l80 90q31 -25 61.5 -30t59.5 -5q25 0 40 5t26.5 20.5t18.5 43t15 72.5l166 938h133l-166 -938q-12 -70 -29.5 -119t-46 -80.5t-71.5 -46t-107 -14.5q-39 0 -65.5 3t-47 10.5t-36 19.5t-31.5 31zM285 1034q4 31 30.5 54.5t55.5 23.5q31 0 50 -23.5t15 -54.5 q-6 -29 -33.5 -51t-58.5 -22q-29 0 -47 22t-12 51z" />
<glyph unicode="k" horiz-adv-x="851" d="M113 0l192 1102h133l-106 -604l434 321h174l-340 -258l211 -561h-133l-186 479l-189 -143l-57 -336h-133z" />
<glyph unicode="l" d="M113 0l192 1102h133l-192 -1102h-133z" />
<glyph unicode="m" horiz-adv-x="1206" d="M113 0l143 819h133l-18 -100q18 41 52 63.5t66.5 32.5t58 12t27.5 2q154 0 203 -71q20 27 55 41t69 21t58.5 8t26.5 1q82 0 131 -19t72 -56q24 -36 28 -88q1 -12 1 -26q0 -41 -9 -89l-96 -551h-133l96 551q6 32 6 58q0 38 -13 62q-21 40 -103 40q-18 0 -41 -2t-46.5 -6.5 t-43 -10.5t-31.5 -14q4 -29 1 -60.5t-9 -66.5l-97 -551h-133l97 551q6 32 6 58q0 38 -12 62q-20 40 -103 40q-45 0 -82 -14.5t-64.5 -37t-45 -51t-21.5 -57.5l-96 -551h-133z" />
<glyph unicode="n" horiz-adv-x="860" d="M113 0l141 809h133l-16 -100q29 41 63.5 63.5t68.5 32.5t62.5 12t44.5 2q82 0 135.5 -19.5t82.5 -55.5q30 -36 38 -88q3 -21 4 -44q0 -34 -8 -71l-94 -541h-133l94 541q4 21 4 39q1 50 -29 80q-40 40 -122 40q-92 0 -160 -42t-82 -117l-94 -541h-133z" />
<glyph unicode="o" horiz-adv-x="843" d="M137 260l60 338q23 125 122 178t248 53q150 0 230 -53q63 -42 63 -129q0 -23 -4 -49l-59 -338q-25 -141 -125.5 -205.5t-251.5 -64.5q-168 0 -236 72q-52 54 -52 140q0 27 5 58zM270 260q-3 -17 -3 -32q1 -22 7 -38q12 -28 36 -46.5t57.5 -26.5t72.5 -8q78 0 142.5 33.5 t81.5 117.5l59 338q6 39 -6 61.5t-38 34t-60.5 14.5t-71.5 3t-74 -3t-65.5 -14.5t-50 -34t-27.5 -61.5z" />
<glyph unicode="p" horiz-adv-x="860" d="M45 -379l211 1198h133l-14 -80q27 33 65.5 51.5t74.5 27.5t63.5 10t33.5 1q82 0 135.5 -19t83 -56t36.5 -88q3 -22 3 -45q0 -33 -6 -70l-57 -330q-23 -125 -118 -178t-245 -53q-4 0 -27.5 1t-53 5t-60.5 15.5t-51 29.5l-74 -420h-133zM274 174q16 -45 73 -55t118 -10 q37 0 71.5 3t63.5 14t48.5 33.5t25.5 61.5l57 330q4 21 4 39q0 51 -29 81q-40 40 -122 40q-45 0 -86 -10.5t-73 -27t-51.5 -37t-23.5 -40.5z" />
<glyph unicode="q" horiz-adv-x="860" d="M131 221l57 330q23 127 105 202.5t246 75.5q6 0 33.5 -1t60.5 -10t63.5 -27.5t46.5 -51.5l15 80h133l-211 -1198h-133l74 420q-27 -18 -62 -29.5t-65.5 -15.5t-54 -5t-27.5 -1q-150 0 -226 53q-60 41 -60 126q0 24 5 52zM264 221q-6 -39 5.5 -61.5t35 -33.5t57 -14 t70.5 -3q61 0 120.5 10t90.5 55l76 422q4 20 -8.5 40.5t-39 37t-63.5 27t-82 10.5q-82 0 -136 -40t-68 -120z" />
<glyph unicode="r" horiz-adv-x="481" d="M113 0l143 819h133l-18 -100q31 41 65.5 63.5t68.5 32.5t62.5 12t44.5 2l-20 -118q-92 0 -164 -42t-86 -118l-96 -551h-133z" />
<glyph unicode="s" horiz-adv-x="702" d="M66 92l96 84q45 -43 101 -55t116 -12q63 0 116.5 31.5t63.5 95.5q1 7 1 13q0 31 -24 51q-30 22 -78 37t-105.5 30.5t-104.5 42t-74 68.5q-18 28 -18 70q0 20 4 44q10 59 40.5 103t73.5 74t94.5 45t102.5 15q70 0 146.5 -10t119.5 -37l-65 -106q-39 20 -104.5 27.5 t-116.5 7.5q-63 0 -104.5 -28t-53.5 -91q-1 -6 -1 -12q0 -28 26 -44q30 -20 78 -36.5t105.5 -32.5t103.5 -44t73 -72q18 -30 18 -72q0 -20 -4 -43q-12 -74 -46 -121t-79 -75t-98 -39t-109 -11q-43 0 -87 4t-82.5 14t-71.5 30.5t-53 53.5z" />
<glyph unicode="t" horiz-adv-x="520" d="M143 700l21 119h141l43 246h133l-43 -246h180l-20 -119h-180l-78 -434q-4 -31 -8 -58.5t-2 -50t12 -35.5t33 -13h119l-19 -109h-119q-72 0 -106 26q-36 25 -48 64q-9 27 -8 58q0 14 2 28q6 47 11 90l78 434h-142z" />
<glyph unicode="u" horiz-adv-x="880" d="M156 154q-3 20 -4 42q0 34 8 72l96 551h133l-96 -551q-5 -23 -5 -42q0 -50 30 -78q40 -40 122 -39q92 0 160 42t82 117l96 551h133l-143 -819h-133l16 100q-29 -41 -63.5 -63.5t-68.5 -32.5t-62.5 -12t-44.5 -2q-82 0 -135.5 19.5t-83 56t-37.5 88.5z" />
<glyph unicode="v" horiz-adv-x="804" d="M164 819h135l127 -676l367 676h135l-453 -819h-145z" />
<glyph unicode="w" horiz-adv-x="1089" d="M201 819h135l-2 -676l268 568h135l68 -568l235 676h136l-299 -819h-152l-86 535l-264 -535h-162z" />
<glyph unicode="x" horiz-adv-x="856" d="M51 0l369 410l-225 409h157l166 -301l273 301h157l-370 -409l227 -410h-158l-168 301l-270 -301h-158z" />
<glyph unicode="y" horiz-adv-x="825" d="M150 -379l198 369l-174 829h135l127 -676l367 676h135l-653 -1198h-135z" />
<glyph unicode="z" horiz-adv-x="741" d="M72 0l18 109l553 602h-446l18 108h596l-18 -108l-545 -602h440l-18 -109h-598z" />
<glyph unicode="{" horiz-adv-x="567" d="M193 457l18 108q45 0 73.5 14.5t44 39t22.5 55.5t14 63l49 275q10 63 38.5 92t67.5 29h133l-18 -109h-53q-33 0 -41 -37l-43 -250q-31 -170 -131 -227q82 -59 51 -225l-43 -248q-6 -37 26 -37h54l-21 -109h-133q-39 0 -57.5 29t-5.5 92l47 273q6 33 9 63.5t-4 55 t-29.5 39t-67.5 14.5z" />
<glyph unicode="|" d="M92 -109l219 1242h133l-219 -1242h-133z" />
<glyph unicode="}" horiz-adv-x="567" d="M92 -109l21 109h53q33 0 39 37l43 248q31 168 129 225q-80 61 -49 227l43 250q8 37 -25 37h-53l18 109h133q39 0 57.5 -29t8.5 -92l-49 -275q-6 -33 -9 -63.5t4 -55t28.5 -39t68.5 -14.5l-18 -108q-47 0 -75 -14.5t-43.5 -39t-22.5 -55.5t-13 -63l-47 -273 q-12 -63 -41 -92t-68 -29h-133z" />
<glyph unicode="~" horiz-adv-x="972" d="M209 555q53 39 101 61.5t104 22.5q51 0 93 -17.5t83 -38t83 -38t91 -17.5q41 0 71.5 16.5t69.5 45.5l43 -86q-53 -39 -100 -61.5t-103 -22.5q-47 0 -88 17.5t-81.5 38t-85 37.5t-97.5 17q-41 0 -71.5 -16t-69.5 -45z" />
<glyph unicode="&#xad;" horiz-adv-x="851" d="M172 340l21 119h626l-20 -119h-627z" />
<glyph unicode="&#xbc;" horiz-adv-x="1218" d="M260 940l182 84h95l-111 -621h-94l94 531l-145 -72zM279 0l671 1024h113l-672 -1024h-112zM668 158l14 84l348 379h115l-68 -379h86l-14 -84h-86l-27 -158h-94l27 158h-301zM784 242h199l47 266z" />
<glyph unicode="&#xbd;" horiz-adv-x="1267" d="M260 940l182 84h95l-111 -621h-94l94 531l-145 -72zM279 0l671 1024h113l-672 -1024h-112zM760 0l14 84q8 51 39 89t72 66.5t86 52t85 44t67.5 43t31.5 49.5l10 49q8 47 -26.5 58.5t-81.5 11.5t-85 -11.5t-46 -58.5l-4 -16h-95l4 16q12 76 80 115t160 39t145.5 -39 t40.5 -115l-10 -49q-6 -39 -35.5 -71.5t-69.5 -60.5t-86 -52.5t-86 -50t-69 -52t-33 -57.5h318l-15 -84h-411z" />
<glyph unicode="&#xbe;" horiz-adv-x="1329" d="M197 580l2 12h94l-2 -12q-8 -51 23.5 -72t78.5 -21t87 20.5t48 72.5l7 34q8 45 -24 53.5t-75 8.5h-74l15 86h74q45 0 80.5 18.5t43.5 65.5l7 37q4 23 -3.5 36t-22.5 20t-36.5 9t-44.5 2q-45 0 -83 -10t-48 -57l-2 -19h-94l2 19q14 76 82.5 113.5t159.5 37.5q92 0 145 -38 t39 -113l-6 -37q-8 -43 -34 -74t-54 -49q23 -16 39 -44t8 -65l-6 -34q-14 -86 -83 -131.5t-161 -45.5q-102 0 -148.5 49.5t-33.5 127.5zM389 0h113l672 1024h-113zM778 158h301l-26 -158h94l27 158h86l14 84h-86l67 379h-114l-348 -379zM895 242l246 266l-47 -266h-199z" />
<glyph unicode="&#xbf;" horiz-adv-x="768" d="M115 23q10 53 35.5 88.5t58.5 61.5t69.5 46.5t68.5 42t55.5 49t31.5 68.5l37 213h133l-37 -213q-10 -59 -36.5 -99t-59.5 -68t-69.5 -47.5t-68.5 -39t-55.5 -44t-29.5 -58.5q-10 -63 35 -91t108 -28q51 0 105.5 7t99.5 28l29 -107q-53 -27 -119 -37t-135 -10 q-160 0 -218.5 59.5t-37.5 178.5zM492 756q4 29 31.5 51t58.5 22q29 0 47 -22t14 -51q-6 -31 -32.5 -54.5t-55.5 -23.5q-31 0 -50.5 23.5t-12.5 54.5z" />
<glyph unicode="&#xff;" horiz-adv-x="1941" />
<glyph unicode="&#x2000;" horiz-adv-x="682" />
<glyph unicode="&#x2001;" horiz-adv-x="1365" />
<glyph unicode="&#x2002;" horiz-adv-x="682" />
<glyph unicode="&#x2003;" horiz-adv-x="1365" />
<glyph unicode="&#x2004;" horiz-adv-x="455" />
<glyph unicode="&#x2005;" horiz-adv-x="341" />
<glyph unicode="&#x2006;" horiz-adv-x="227" />
<glyph unicode="&#x2007;" horiz-adv-x="227" />
<glyph unicode="&#x2008;" horiz-adv-x="170" />
<glyph unicode="&#x2009;" horiz-adv-x="273" />
<glyph unicode="&#x200a;" horiz-adv-x="75" />
<glyph unicode="&#x2010;" horiz-adv-x="851" d="M172 340l21 119h626l-20 -119h-627z" />
<glyph unicode="&#x2011;" horiz-adv-x="851" d="M172 340l21 119h626l-20 -119h-627z" />
<glyph unicode="&#x2012;" horiz-adv-x="851" d="M172 340l21 119h626l-20 -119h-627z" />
<glyph unicode="&#x2013;" horiz-adv-x="1013" d="M172 340l21 119h788l-20 -119h-789z" />
<glyph unicode="&#x2014;" horiz-adv-x="1179" d="M172 340l21 119h954l-21 -119h-954z" />
<glyph unicode="&#x2018;" horiz-adv-x="419" d="M264 870l156 232h80l-119 -232h-117z" />
<glyph unicode="&#x2019;" horiz-adv-x="419" d="M264 870l119 232h117l-156 -232h-80z" />
<glyph unicode="&#x2022;" horiz-adv-x="585" d="M213 399q10 63 62.5 106.5t113.5 43.5t97 -43t26 -107q-10 -61 -62.5 -104t-113.5 -43t-97 43t-26 104z" />
<glyph unicode="&#x2026;" horiz-adv-x="983" d="M123 63q4 31 31.5 54.5t56.5 23.5q31 0 49.5 -23.5t13.5 -54.5q-4 -29 -31.5 -51t-58.5 -22q-29 0 -47 22t-14 51zM426 63q4 31 31.5 54.5t56.5 23.5q31 0 49.5 -23.5t14.5 -54.5q-4 -29 -32 -51t-59 -22q-29 0 -47 22t-14 51zM729 63q4 31 31.5 54.5t56.5 23.5 q31 0 49.5 -23.5t14.5 -54.5q-4 -29 -32 -51t-58 -22q-29 0 -47.5 22t-14.5 51z" />
<glyph unicode="&#x202f;" horiz-adv-x="273" />
<glyph unicode="&#x205f;" horiz-adv-x="341" />
<glyph unicode="&#x25fc;" horiz-adv-x="819" d="M0 0v819h819v-819h-819z" />
</font>
</defs>
</svg>
