<?xml version="1.0" encoding="utf-8"?>
<!-- Generator: Adobe Illustrator 15.1.0, SVG Export Plug-In . SVG Version: 6.00 Build 0)  -->
<!DOCTYPE svg PUBLIC "-//W3C//DTD SVG 1.1//EN" "http://www.w3.org/Graphics/SVG/1.1/DTD/svg11.dtd">
<svg version="1.1"
	 id="Layer_1" xmlns:svg="http://www.w3.org/2000/svg" xmlns:inkscape="http://www.inkscape.org/namespaces/inkscape" xmlns:cc="http://creativecommons.org/ns#" xmlns:rdf="http://www.w3.org/1999/02/22-rdf-syntax-ns#" xmlns:sodipodi="http://sodipodi.sourceforge.net/DTD/sodipodi-0.dtd" xmlns:dc="http://purl.org/dc/elements/1.1/" sodipodi:docname="icons-rtl.svg" inkscape:version="0.48.5 r10040"
	 xmlns="http://www.w3.org/2000/svg" xmlns:xlink="http://www.w3.org/1999/xlink" x="0px" y="0px" width="1000px" height="1000px"
	 viewBox="0 0 1000 1000" enable-background="new 0 0 1000 1000" xml:space="preserve">
<sodipodi:namedview  id="namedview3771" objecttolerance="10" showgrid="false" pagecolor="#ffffff" borderopacity="1" bordercolor="#666666" gridtolerance="10" inkscape:cx="380.5" inkscape:cy="729.26903" guidetolerance="10" inkscape:zoom="1" inkscape:window-maximized="1" inkscape:window-y="-8" inkscape:window-x="1912" inkscape:pageopacity="0" inkscape:current-layer="Layer_1" inkscape:pageshadow="2" inkscape:window-width="1280" inkscape:window-height="961">
	</sodipodi:namedview>
<path id="path3511" fill="#B4601A" d="M144.6,91.3c-5.199,0-9.398,4.2-9.398,9.4s4.199,9.4,9.398,9.4c5.2,0,9.4-4.2,9.4-9.4
	S149.7,91.3,144.6,91.3 M144.6,106.2c-3,0-5.5-2.5-5.5-5.5s2.5-5.5,5.5-5.5s5.5,2.4,5.5,5.5C150.1,103.7,147.6,106.2,144.6,106.2"/>
<rect id="rect3513" x="130.987" y="104.458" transform="matrix(-0.7068 -0.7074 0.7074 -0.7068 148.7099 285.3501)" fill="#B4601A" width="5" height="14.8"/>
<g id="g3517">
	<path id="path3519" fill="#B4601A" d="M202.2,95.2c-3,0-5.5,2.4-5.5,5.5c0,3,2.5,5.5,5.5,5.5s5.5-2.5,5.5-5.5
		S205.2,95.2,202.2,95.2"/>
	<path id="path3521" fill="#B4601A" d="M197.8,80.1c-13.7,0-24.899,11.1-24.899,24.899s11.101,24.9,24.899,24.9
		c13.7,0,24.9-11.101,24.9-24.9S211.5,80.1,197.8,80.1 M184,115.3l10-10c-0.8-1.399-1.2-2.899-1.2-4.6c0-5.2,4.2-9.4,9.4-9.4
		c5.199,0,9.398,4.2,9.398,9.4s-4.199,9.4-9.398,9.4c-1.7,0-3.2-0.4-4.602-1.2l-10,10L184,115.3z"/>
</g>
<path id="path3525" fill="#B4601A" d="M27.9,102.3V90.1H22.2V102.3H10v5.7h12.2v12.2H27.9V108h12.2v-5.7H27.9L27.9,102.3z M39.1,107
	H26.9v12.2H23.2V107H11v-3.7h12.2V91.1H26.9V103.3h12.2V107L39.1,107z"/>
<path id="path3527" fill="#B4601A" d="M25,80.1c-13.8,0-25,11.3-25,25c0,13.8,11.2,25,25,25s25-11.2,25-25
	C50,91.4,38.8,80.1,25,80.1 M25,129.2C11.7,129.2,0.9,118.4,0.9,105.1C0.9,91.8,11.7,81,25,81S49.1,91.8,49.1,105.1
	C49.1,118.5,38.3,129.2,25,129.2"/>
<g id="g3529">
	<polygon id="polygon3531" fill="#B4601A" points="27.9,226.3 27.9,214.1 22.2,214.1 22.2,226.3 10,226.3 10,232 22.2,232 
		22.2,244.2 27.9,244.2 27.9,232 40.1,232 40.1,226.3 	"/>
	<path id="path3533" fill="#B4601A" d="M25.1,204.2c-13.8,0-25,11.2-25,25s11.2,25,25,25c13.801,0,25-11.2,25-25
		S38.8,204.2,25.1,204.2 M25.1,253.2C11.8,253.2,1,242.4,1,229.1C1,215.8,11.8,205,25.1,205S49.2,215.8,49.2,229.1
		C49.1,242.5,38.3,253.2,25.1,253.2"/>
</g>
<path id="path3537" fill="#B4601A" d="M241.4,112.9c-0.301,1,0,2.399,0.699,3.1l2,2c0.4,0.4,1.4,0.601,1.4,0.601
	c6.399,0.1,12.5-2.4,17-6.9s7-10.6,6.899-17c0,0-0.2-1-0.601-1.4l-2-2c-0.7-0.699-2.101-1.1-3.101-0.699l-0.399,0.1
	c-1,0.3-2,1.4-2.3,2.4l-1,3.699c-0.301,1,0.1,2.4,0.8,3.2l1.3,1.3c-1.3,4.9-5.1,8.7-10,10l-1.3-1.3c-0.7-0.7-2.2-1.1-3.2-0.8
	l-3.699,1c-1,0.3-2.101,1.3-2.399,2.3L241.4,112.9"/>
<path id="path3543" fill="#FFFFFF" d="M299,112.9c-0.301,1,0,2.399,0.699,3.1l2,2c0.399,0.4,1.399,0.601,1.399,0.601
	c6.399,0.1,12.5-2.4,17-6.9s7-10.6,6.899-17c0,0-0.199-1-0.6-1.4l-2-2c-0.7-0.699-2.101-1.1-3.101-0.699l-0.399,0.1
	c-1,0.3-2,1.4-2.301,2.4l-1,3.699c-0.3,1,0.101,2.4,0.801,3.2l1.399,1.3c-1.301,4.9-5.101,8.7-10,10l-1.301-1.3
	c-0.699-0.7-2.199-1.1-3.199-0.8l-3.7,1c-1,0.3-2.101,1.3-2.399,2.3L299,112.9"/>
<path id="path3551" fill="#B4601A" d="M367.9,99.3c0.199,0,0.3,0,0.5,0.101c0.8,0.1,1.601,0.1,2.399,0.2
	c4.101,0.6,7.399,2.5,9.8,5.899c1.899,2.601,2.899,5.601,3.399,8.8c0.101,0.7,0.2,1.5,0.301,2.2c-0.899-3.8-3.399-6.2-6.801-7.7
	c-2.3-1-4.8-1.399-7.399-1.6c-0.699,0-1.399,0-2.101,0v8c-4-4-8-8-11.899-11.9c3.899-3.899,7.899-7.899,11.899-11.899L367.9,99.3"/>
<g id="g3553">
	<path id="path3555" fill="#B4601A" d="M428.199,80.1c-13.8,0-25,11.199-25,25c0,13.8,11.2,25,25,25c13.801,0,25-11.2,25-25
		C453.199,91.3,442,80.1,428.199,80.1 M425.4,115c-4-4-8-8-11.899-11.899c3.899-3.9,7.899-7.9,11.899-11.9v8.1
		c0.197,0,0.3,0,0.5,0.101c0.8,0.1,1.601,0.1,2.3,0.2c4.101,0.6,7.397,2.5,9.801,5.899c1.899,2.601,2.899,5.601,3.399,8.8
		c0.101,0.7,0.197,1.5,0.3,2.2c-0.899-3.8-3.399-6.2-6.8-7.7c-2.303-1-4.803-1.399-7.399-1.6c-0.7,0-1.4,0-2.101,0V115"/>
</g>
<polygon id="polygon3559" fill="#FFFFFF" points="600.9,109.5 586.6,100 586.6,113.8 615.1,113.8 615.1,100 "/>
<polygon id="polygon3561" fill="#FFFFFF" points="586.8,96.3 600.9,105.6 614.9,96.3 "/>
<g id="g3565">
	<path id="path3567" fill="#B4601A" d="M658.5,80.1c-13.801,0-25,11.199-25,25c0,13.8,11.199,25,25,25c13.8,0,25-11.2,25-25
		C683.5,91.3,672.3,80.1,658.5,80.1 M672.5,96.3l-14,9.4l-14-9.4H672.5L672.5,96.3z M672.699,113.8h-28.5V100l14.2,9.5l14.2-9.5
		L672.699,113.8L672.699,113.8z"/>
</g>
<polygon id="polygon3583" fill="none" stroke="#FFFFFF" stroke-miterlimit="10" points="706.699,105.4 720.9,94.7 720.9,116 "/>
<rect id="rect3591" x="868.1" y="104" fill="#B4601A" width="27.303" height="2.3"/>
<polygon id="polygon3597" fill="#B4601A" points="952.9,104.2 940.4,104.2 940.4,91.7 938.1,91.7 938.1,104.2 925.699,104.2 
	925.699,106.5 938.1,106.5 938.1,118.9 940.4,118.9 940.4,106.5 952.9,106.5 "/>
<path id="path3601" fill="#FFFFFF" d="M389.1,25l17.3,17.3l4.399-4.399L397.9,25l12.7-12.7l-4.4-4.399L389.1,25z M406.4,41.2
	l-16.2-16.2l16-16l3.301,3.3L396.8,25l12.899,12.9L406.4,41.2z"/>
<path id="path3603" fill="#FFFFFF" d="M400.6,0.1c-13.8,0-25,11.199-25,25c0,13.8,11.2,25,25,25c13.801,0,25-11.2,25-25
	C425.6,11.3,414.4,0.1,400.6,0.1 M400.6,49.2c-13.3,0-24.1-10.8-24.1-24.1C376.5,11.8,387.3,1,400.6,1s24.1,10.8,24.1,24.101
	C424.699,38.4,413.9,49.2,400.6,49.2"/>
<path id="path3605" fill="#B4601A" d="M462,0.1c-13.801,0-25,11.199-25,25c0,13.8,11.199,25,25,25c13.8,0,25-11.2,25-25
	C487,11.3,475.8,0.1,462,0.1 M462,49.2c-13.301,0-24.101-10.8-24.101-24.1C437.9,11.8,448.699,1,462,1c13.3,0,24.1,10.8,24.1,24.101
	C486.1,38.4,475.3,49.2,462,49.2"/>
<path id="path3607" fill="#B4601A" d="M450.699,25L468,42.3L472.4,37.9L459.5,25l12.699-12.7L467.8,7.9L450.699,25z M468,41.2
	L451.8,25l16-16l3.3,3.3L458.4,25l12.9,12.9L468,41.2z"/>
<polygon id="polygon3611" fill="#FFFFFF" points="23.8,25.4 31.7,33.2 28.4,36.5 17.2,25.3 28.2,14.4 31.5,17.7 "/>
<path id="path3613" fill="#FFFFFF" d="M78,0.1c-13.8,0-25,11.199-25,25c0,13.8,11.2,25,25,25s25-11.2,25-25
	C103,11.3,91.8,0.1,78,0.1 M70.2,25.3l11-11l3.3,3.301L76.8,25.3l7.9,7.9L81.4,36.5L70.2,25.3z"/>
<polygon id="polygon3617" fill="#B4601A" points="523.8,25.4 531.699,33.2 528.4,36.5 517.199,25.3 528.199,14.4 531.5,17.7 "/>
<path id="path3619" fill="#B4601A" d="M578,0.1c-13.801,0-25,11.199-25,25c0,13.8,11.199,25,25,25c13.8,0,25-11.2,25-25
	C603,11.3,591.8,0.1,578,0.1 M570.199,25.3l11-11L584.5,17.6l-7.7,7.699l7.899,7.9l-3.3,3.3L570.199,25.3z"/>
<rect id="rect3621" x="121.5" y="0.1" fill="#B4601A" width="50" height="56"/>
<polygon id="polygon3623" fill="#FFFFFF" points="140.3,27.4 155.2,12.4 154,11.2 137.8,27.4 153.7,43.4 154.9,42.1 "/>
<rect id="rect3625" x="179.5" y="0.1" fill="#FFFFFF" width="50" height="56"/>
<polygon id="polygon3627" fill="#B4601A" points="198.3,27.4 213.2,12.4 212,11.2 195.8,27.4 211.7,43.4 212.9,42.1 "/>
<rect id="rect3629" x="310.5" y="0.1" fill="#FFFFFF" width="50" height="56"/>
<polygon id="polygon3631" fill="#B4601A" points="341.699,27.1 326.8,42.1 328,43.4 344.199,27.1 328.3,11.2 327.1,12.4 "/>
<path id="path3665" fill="#FFFFFF" d="M623.1,22.3V28h12.2V40.1h5.7V27.9h12.199v-5.7H641V10.1h-5.7V22.3H623.1z M624.1,23.3h12.2
	V11.1h3.7V23.3h12.199V27H640V39.1h-3.7V26.9h-12.2V23.3L624.1,23.3z"/>
<path id="path3667" fill="#FFFFFF" d="M638.1,0.1c-13.8,0-25,11.199-25,25c0,13.8,11.2,25,25,25c13.803,0,25-11.2,25-25
	C663.1,11.3,651.9,0.1,638.1,0.1 M638.1,49.2c-13.3,0-24.1-10.8-24.1-24.1C614,11.8,624.8,1,638.1,1s24.1,10.8,24.1,24.101
	C662.199,38.4,651.4,49.2,638.1,49.2"/>
<polygon id="polygon3669" fill="#FFFFFF" points="700.9,22.3 700.9,10.1 695.199,10.1 695.199,22.3 683.1,22.3 683.1,27.9 
	695.199,27.9 695.199,40.1 700.9,40.1 700.9,27.9 713.1,27.9 713.1,22.3 "/>
<path id="path3671" fill="#FFFFFF" d="M698.1,0.1c-13.8,0-25,11.199-25,25c0,13.8,11.2,25,25,25c13.803,0,25-11.2,25-25
	C723.1,11.3,711.9,0.1,698.1,0.1 M698.1,49.2c-13.3,0-24.1-10.8-24.1-24.1C674,11.8,684.8,1,698.1,1s24.1,10.8,24.1,24.101
	C722.199,38.4,711.4,49.2,698.1,49.2"/>
<path id="path3673" fill="#B4601A" d="M770.1,25.1l8.603-8.601l-4-4L766.1,21.1l-8.6-8.601l-4,4l8.6,8.601l-8.6,8.6l4,4l8.6-8.6
	l8.603,8.6l4-4L770.1,25.1z M774.699,36.3l-8.603-8.6l-8.601,8.6l-2.6-2.6l8.6-8.6l-8.6-8.601l2.6-2.6l8.601,8.6l8.603-8.6
	l2.601,2.6l-8.601,8.601l8.601,8.6L774.699,36.3z"/>
<path id="path3675" fill="#B4601A" d="M766.1,0.1c-13.8,0-25,11.199-25,25c0,13.8,11.2,25,25,25c13.803,0,25-11.2,25-25
	C791.1,11.3,779.9,0.1,766.1,0.1 M766.1,49.2c-13.3,0-24.1-10.8-24.1-24.1C742,11.8,752.8,1,766.1,1s24.1,10.8,24.1,24.101
	C790.199,38.4,779.4,49.2,766.1,49.2"/>
<polygon id="polygon3677" fill="#B4601A" points="830.1,25.1 838.699,16.5 834.699,12.5 826.1,21.1 817.5,12.5 813.5,16.5 
	822.1,25.1 813.5,33.7 817.5,37.7 826.1,29.1 834.699,37.7 838.699,33.7 "/>
<path id="path3679" fill="#B4601A" d="M826.1,0.1c-13.8,0-25,11.199-25,25c0,13.8,11.2,25,25,25c13.803,0,25-11.2,25-25
	C851.1,11.3,839.9,0.1,826.1,0.1 M826.1,49.2c-13.3,0-24.1-10.8-24.1-24.1C802,11.8,812.8,1,826.1,1s24.1,10.8,24.1,24.101
	C850.199,38.4,839.4,49.2,826.1,49.2"/>
<path id="path3681" fill="#FFFFFF" d="M912.4,19.7l-10.8,7.5c-0.197,0.2-0.5,0.2-0.8,0.2c-0.2,0-0.397,0-0.601-0.101
	c-0.399-0.199-0.699-0.6-0.699-1.1V11.1c0-0.5,0.3-0.9,0.699-1.101c0.397-0.2,1-0.2,1.397,0.101l10.803,7.5c0.3,0.199,0.5,0.6,0.5,1
	C913,19.1,912.8,19.4,912.4,19.7 M927.5,5.6c0-0.2-0.101-0.4-0.101-0.601c0-0.1,0-0.2-0.103-0.3c-0.601-1.9-2.397-3.3-4.5-3.3h0.3
	c0,0-8.5-1.3-19.697-1.4c-11.303,0.101-19.7,1.4-19.7,1.4H884c-2.101,0-3.898,1.399-4.5,3.3c0,0.1-0.101,0.2-0.101,0.3
	c-0.1,0.2-0.1,0.4-0.1,0.601c-0.302,2.199-0.802,6.699-0.898,12.1c0.101,5.4,0.601,9.8,0.898,12.1c0,0.2,0.102,0.4,0.102,0.601
	c0,0.1,0.101,0.2,0.101,0.3c0.603,1.9,2.399,3.3,4.5,3.3h-0.301c0,0,8.5,1.3,19.7,1.4C914.699,35.3,923.1,34,923.1,34h-0.3
	c2.103,0,3.899-1.399,4.5-3.3c0-0.1,0.103-0.2,0.103-0.3c0.1-0.2,0.1-0.4,0.1-0.601c0.301-2.199,0.801-6.699,0.9-12.1
	C928.3,12.3,927.8,7.9,927.5,5.6"/>
<polygon id="polygon3685" fill="#B4601A" points="768.4,109.5 754.1,100 754.1,113.8 782.6,113.8 782.6,100 "/>
<polygon id="polygon3687" fill="#B4601A" points="754.3,96.3 768.4,105.6 782.4,96.3 "/>
<g id="g3699">
	<path id="path3701" fill="#FFFFFF" d="M25.5,143.6c-13.8,0-25,11.199-25,25c0,13.8,11.2,25,25,25s25-11.2,25-25
		C50.5,154.8,39.3,143.6,25.5,143.6 M39.5,159.8l-14,9.4l-14-9.4H39.5z M39.7,177.3H11.2v-13.8L25.4,173l14.199-9.5L39.7,177.3
		L39.7,177.3z"/>
</g>
<polygon id="polygon3709" fill="#FFFFFF" points="148.7,167 136.4,167 136.4,154.7 134.2,154.7 134.2,167 121.9,167 121.9,169.2 
	134.2,169.2 134.2,181.4 136.4,181.4 136.4,169.2 148.7,169.2 "/>
<path id="path3711" fill="#FFFFFF" d="M160.8,168.6c0,13.8,11.2,25,25,25s25-11.2,25-25c0-13.801-11.2-25-25-25
	S160.8,154.8,160.8,168.6z M171.8,176.4l0.101-0.4c0.301-1,1.399-2,2.399-2.3l3.7-1c1-0.3,2.399,0.1,3.2,0.8l1.3,1.3
	c4.899-1.3,8.7-5.1,10-10l-1.3-1.3c-0.7-0.7-1.102-2.2-0.801-3.2l1-3.699c0.301-1,1.301-2.101,2.301-2.4l0.398-0.1
	c1-0.301,2.4,0,3.102,0.699l2,2c0.398,0.4,0.6,1.4,0.6,1.4c0.101,6.4-2.399,12.5-6.899,17s-10.601,7-17,6.9
	c0,0-1.101-0.2-1.399-0.601l-2-2C171.8,178.8,171.5,177.4,171.8,176.4z"/>
<rect id="rect3717" x="222.4" y="167.3" fill="#FFFFFF" width="27.301" height="2.301"/>
<g id="g3719">
	<circle id="circle3721" fill="none" stroke="#FFFFFF" stroke-width="4" stroke-miterlimit="10" cx="313" cy="169.3" r="20"/>
	<path id="path3723" fill="#FFFFFF" d="M309.4,169.3c0-2,1.601-3.5,3.5-3.5s3.5,1.601,3.5,3.5c0,1.9-1.601,3.5-3.5,3.5
		S309.4,171.2,309.4,169.3"/>
	
		<line id="line3725" fill="none" stroke="#FFFFFF" stroke-width="4" stroke-miterlimit="10" x1="313" y1="143.6" x2="313" y2="157.8"/>
	
		<line id="line3727" fill="none" stroke="#FFFFFF" stroke-width="4" stroke-miterlimit="10" x1="313" y1="180.7" x2="313" y2="194.9"/>
	
		<line id="line3729" fill="none" stroke="#FFFFFF" stroke-width="4" stroke-miterlimit="10" x1="338.6" y1="169.3" x2="324.4" y2="169.3"/>
	
		<line id="line3731" fill="none" stroke="#FFFFFF" stroke-width="4" stroke-miterlimit="10" x1="301.5" y1="169.3" x2="287.3" y2="169.3"/>
</g>
<g id="g3733">
	<path id="path3735" fill="#BBBBBB" d="M371.199,165.2l-14.6,13.3l-2.699-2.899l14.6-13.301L371.199,165.2z"/>
	<path id="path3737" fill="#BBBBBB" d="M365.6,156.5c0,7.101,5.9,12.9,13.101,12.9c7.201,0,13.101-5.8,13.101-12.9
		c0-7.1-5.899-12.899-13.101-12.899C371.5,143.6,365.6,149.4,365.6,156.5z M368.6,156.5c0-5.5,4.5-9.899,10-9.899s10,4.399,10,9.899
		s-4.5,9.9-10,9.9S368.6,162,368.6,156.5z"/>
</g>
<g id="g3739">
	<g id="g3741">
		<path id="path3743" fill="#B4601A" d="M434,191.3c-12.2,0-22-9.899-22-22c0-12.1,9.899-22,22-22c12.1,0,22,9.9,22,22
			C456,181.4,446.1,191.3,434,191.3z M434,151.2c-10,0-18,8.1-18,18s8.1,18,18,18c9.899,0,18-8.1,18-18S443.9,151.2,434,151.2z"/>
	</g>
	<g id="g3745">
		<path id="path3747" fill="#B4601A" d="M430.4,169.3c0-2,1.601-3.5,3.5-3.5c1.897,0,3.5,1.601,3.5,3.5c0,1.9-1.603,3.5-3.5,3.5
			C432,172.8,430.4,171.2,430.4,169.3"/>
	</g>
	<g id="g3749">
		<rect id="rect3751" x="432" y="143.6" fill="#B4601A" width="4" height="14.199"/>
	</g>
	<g id="g3753">
		<rect id="rect3755" x="432" y="180.7" fill="#B4601A" width="4" height="14.2"/>
	</g>
	<g id="g3757">
		<rect id="rect3759" x="445.4" y="167.3" fill="#B4601A" width="14.197" height="4"/>
	</g>
	<g id="g3761">
		<rect id="rect3763" x="408.3" y="167.3" fill="#B4601A" width="14.2" height="4"/>
	</g>
</g>
<g id="g3765">
	<path id="path3767" fill="#B4601A" d="M492.199,165.2l-14.6,13.3l-2.697-2.899l14.601-13.301L492.199,165.2z"/>
	<path id="path3769" fill="#B4601A" d="M486.6,156.5c0,7.101,5.9,12.9,13.103,12.9c7.203,0,13.101-5.8,13.101-12.9
		c0-7.1-5.897-12.899-13.101-12.899C492.5,143.6,486.6,149.4,486.6,156.5z M489.6,156.5c0-5.5,4.5-9.899,10-9.899s10,4.399,10,9.899
		s-4.5,9.9-10,9.9S489.6,162,489.6,156.5z"/>
</g>
<polygon id="polygon4578-1" fill="#B4601A" points="19,305.8 9.6,296.4 0,306 0.8,306.7 9.6,297.9 18.3,306.5 "/>
<polygon id="polygon4578-1-1" fill="#B4601A" points="9.6,353.6 18.3,345 19,345.7 9.6,355.1 0,345.5 0.8,344.8 "/>
<g>
	<circle fill="#B4601A" cx="25.1" cy="421.2" r="25"/>
	<g>
		<path fill="#FFFFFF" d="M38.5,412.4l-9.601-4l0.699,10.397l2.9-2.1c3.8,5.5,3,12.8-1.7,17.3c0.601-0.3,1.2-0.699,1.8-1.1
			c6-4.302,7.4-12.603,3.301-18.603L38.5,412.4z"/>
		<path fill="#FFFFFF" d="M11.7,429.9l9.6,4l-0.7-10.4l-2.898,2.101c-3.801-5.5-3-12.801,1.699-17.3
			c-0.601,0.3-1.199,0.699-1.801,1.102c-6,4.3-7.398,12.601-3.3,18.601L11.7,429.9z"/>
	</g>
</g>
<g>
	<g>
		<path d="M84.9,397.1c13.199,0,24,10.802,24,24c0,13.2-10.801,24-24,24s-24-10.8-24-24S71.7,397.1,84.9,397.1 M84.9,396.1
			c-13.801,0-25,11.2-25,25c0,13.802,11.199,25,25,25s25-11.198,25-25C110,407.3,98.8,396.1,84.9,396.1L84.9,396.1z"/>
	</g>
	<g>
		<path d="M98.4,412.4l-9.601-4l0.7,10.397l2.899-2.1c3.801,5.5,3,12.8-1.699,17.3c0.6-0.3,1.199-0.699,1.8-1.1
			c6-4.302,7.399-12.603,3.3-18.603L98.4,412.4z"/>
		<path d="M71.5,429.9l9.6,4l-0.7-10.4L77.5,425.6c-3.8-5.5-3-12.801,1.7-17.3c-0.602,0.3-1.2,0.699-1.801,1.102
			c-6,4.3-7.399,12.601-3.301,18.601L71.5,429.9z"/>
	</g>
</g>
<g>
	<circle fill="#B4601A" cx="148.8" cy="421.2" r="25"/>
	<g>
		<path fill="#FFFFFF" d="M140.8,432c-0.6,0.4-1.3,0.801-1.8,1.101c0.5,0.602,1.6,0.899,4.399,1h0.199c0.4,0,0.9-0.101,1.2-0.898
			c0.2,0.101,0.5,0.2,0.7,0.301c0.699,0.399,1.3,0.699,1.8,0.8c0.399,0.102,0.7,0,1-0.2c0.5-0.398,0.5-1,0.601-1.5
			c1,0.399,2.699,1.5,3.601,2.2c0.3,0.3,0.7,0.399,1,0.399c0.1,0,0.2,0,0.2,0c1.1-0.2,1.898-1.5,2.6-2.602
			c0.101-0.101,0.2-0.3,0.3-0.5c0.7,0.399,2.2,1.5,3.602,2.7c0.398,0.3,1,0.3,1.3-0.101c0.3-0.399,0.3-1-0.101-1.3
			c-4.101-3.3-4.801-3.3-5.101-3.3c-0.7,0-1,0.602-1.6,1.602c-0.301,0.398-0.801,1.398-1.2,1.7c-0.8-0.602-4.4-3.2-5.7-2.602
			c-0.7,0.3-0.8,1.102-0.8,1.602c-0.2-0.102-0.5-0.2-0.7-0.302c-1.1-0.601-1.7-0.8-2.2-0.698c-0.699,0.101-0.898,0.698-1,1.101
			C141.9,432.2,141.2,432.1,140.8,432z"/>
		<path fill="#FFFFFF" d="M152.2,407.1l-1.4,2h0.101c0.801,0,1.699,0.302,2.699,1c1.2,0.802,1.7,1.602,1.9,2.302l1.399-2
			c0,0,0.199-0.302,0.199-0.802c0-0.698-0.6-1.5-1.6-2.198c-0.801-0.602-1.5-0.802-2.101-0.802C152.5,406.6,152.2,407.1,152.2,407.1
			z"/>
		<path fill="#FFFFFF" d="M145.1,426.7l9.102-12.8c0,0,0.199-0.302,0.199-0.802c0-0.698-0.601-1.5-1.601-2.198
			c-0.8-0.603-1.5-0.802-2.1-0.802c-0.801,0-1.2,0.5-1.2,0.5L140.4,423.4c0.699,0,1.601,0.198,2.801,1
			C144.4,425.2,144.9,426,145.1,426.7z"/>
		<path fill="#FFFFFF" d="M137.3,432.801c0.9-0.2,4-2.301,6.601-4.301l0.199-0.3l0,0c0,0,0.9-1.3-1.398-3
			c-2.301-1.602-3.2-0.399-3.301-0.3l0,0l0,0l-0.199,0.3C138.2,428.301,137.2,431.9,137.3,432.801z"/>
	</g>
</g>
<g>
	<g>
		<path d="M210.4,397.1c13.301,0,24,10.802,24,24c0,13.2-10.801,24-24,24c-13.301,0-24-10.8-24-24S197.1,397.1,210.4,397.1
			 M210.4,396.1c-13.801,0-25.101,11.2-25.101,25.102c0,13.898,11.2,25.101,25.101,25.101c13.801,0,25.101-11.2,25.101-25.101
			C235.5,407.3,224.2,396.1,210.4,396.1L210.4,396.1z"/>
	</g>
	<g>
		<path d="M202.4,432c-0.601,0.4-1.301,0.801-1.801,1.101c0.5,0.602,1.602,0.899,4.4,1h0.199c0.399,0,0.899-0.101,1.2-0.898
			c0.199,0.101,0.5,0.2,0.699,0.301c0.7,0.399,1.301,0.699,1.801,0.8c0.399,0.102,0.699,0,1-0.2c0.5-0.398,0.5-1,0.601-1.5
			c1,0.399,2.699,1.5,3.6,2.2c0.301,0.3,0.7,0.399,1,0.399c0.102,0,0.2,0,0.2,0c1.101-0.2,1.899-1.5,2.601-2.7
			c0.101-0.1,0.199-0.3,0.301-0.5c0.699,0.4,2.199,1.5,3.6,2.7c0.4,0.3,1,0.3,1.3-0.102c0.301-0.398,0.301-1-0.1-1.398
			c-4.101-3.399-4.8-3.3-5.101-3.3c-0.699,0-1,0.601-1.601,1.601c-0.3,0.399-0.8,1.399-1.2,1.699c-0.8-0.602-4.5-3.199-5.699-2.602
			c-0.699,0.302-0.801,1.102-0.801,1.602c-0.199-0.102-0.5-0.199-0.699-0.399c-1.101-0.601-1.699-0.8-2.199-0.7
			c-0.7,0.102-0.9,0.7-1,1.102C203.4,432.2,202.8,432.1,202.4,432z"/>
		<path d="M213.7,407l-1.4,2h0.101c0.801,0,1.699,0.3,2.699,1c1.2,0.8,1.7,1.601,1.9,2.3l1.399-2c0,0,0.199-0.3,0.199-0.8
			c0-0.7-0.6-1.5-1.6-2.2c-0.801-0.6-1.5-0.8-2.101-0.8C214.1,406.5,213.8,407,213.7,407z"/>
		<path d="M206.7,426.7l9.199-12.8c0,0,0.199-0.302,0.199-0.802c0-0.698-0.6-1.5-1.6-2.198c-0.801-0.603-1.5-0.802-2.101-0.802
			c-0.801,0-1.2,0.5-1.2,0.5l-9.199,12.802c0.699,0,1.6,0.198,2.8,1C206,425.2,206.5,426,206.7,426.7z"/>
		<path d="M198.9,432.801c0.899-0.2,4-2.301,6.601-4.301l0.2-0.3l0,0c0,0,0.898-1.3-1.4-3c-2.3-1.602-3.2-0.399-3.3-0.3l0,0l0,0
			l-0.2,0.3C199.7,428.301,198.7,431.9,198.9,432.801z"/>
	</g>
</g>
<g>
	<circle fill="#B4601A" cx="276.1" cy="421.2" r="25"/>
	<path fill="#FFFFFF" d="M287.5,432.2c0.5-0.5,0.7-1.102,0.7-1.8c0-0.7-0.301-1.302-0.7-1.802L275,416.1l0.1-0.301
		c0.9-2.5,0.301-5.3-1.6-7.1c-1.3-1.3-3-2-4.8-2c-0.5,0-0.9,0-1.4,0.101l4.101,4.102v3.1l-2.199,2.2H266.1L262,412.1
		c-0.5,2.199,0.2,4.602,1.8,6.199c1.3,1.301,3,2,4.8,2c0.801,0,1.602-0.1,2.301-0.397l0.399-0.103l12.5,12.501
		c0.5,0.5,1.101,0.7,1.8,0.7C286.4,432.9,287,432.7,287.5,432.2z"/>
</g>
<g>
	<g>
		<path d="M340.6,397.2c13.2,0,23.9,10.7,23.9,23.898c0,13.2-10.7,23.899-23.9,23.899c-13.199,0-23.899-10.699-23.899-23.899
			C316.699,407.9,327.4,397.2,340.6,397.2 M340.6,396.1c-13.8,0-25,11.2-25,25c0,13.802,11.2,25,25,25c13.801,0,25-11.198,25-25
			C365.6,407.3,354.4,396.1,340.6,396.1L340.6,396.1z"/>
	</g>
	<path d="M352,432.1c0.5-0.5,0.699-1.101,0.699-1.8c0-0.7-0.3-1.3-0.699-1.8l-12.5-12.4l0.1-0.3c0.9-2.5,0.301-5.2-1.6-7.101
		c-1.301-1.3-3-2-4.801-2c-0.5,0-0.899,0-1.399,0.101l4.101,4.102v3.1l-2.2,2.2H330.6l-4.1-4.102c-0.5,2.2,0.199,4.602,1.8,6.2
		c1.3,1.3,3,2,4.8,2c0.801,0,1.601-0.101,2.301-0.398l0.399-0.102l12.5,12.399c0.5,0.5,1.101,0.7,1.8,0.7
		C350.9,432.801,351.5,432.6,352,432.1z"/>
</g>
<g>
	<circle fill="#B4601A" cx="406.3" cy="421.1" r="24.9"/>
	<path fill="#FFFFFF" d="M391.3,420.6l-1.8,6.102h4.899v3.398l0.399,0.102c4,1.301,11.3,3.2,11.399,3.301h0.101h0.101
		c0.101,0,7.399-2,11.399-3.301l0.399-0.102l0,0v-3.4h4.897l-1.8-6.102l1.8-6.101h-4.896v-3.1l-0.3-0.103
		c-3.2-1.6-7.399-2.6-11.601-2.6c-4.199,0-8.399,0.898-11.601,2.6l-0.3,0.103v3.1h-4.9L391.3,420.6z M406.3,431l-0.2-0.1
		c0,0-5.6-1.5-8.699-2.5l-0.601-0.2v-14.8l0.5-0.302c2.5-1.301,5.7-2,9-2s6.5,0.699,9,2l0.5,0.302v14.8l-0.601,0.2
		c-3.101,1-8.601,2.5-8.601,2.5L406.3,431z M409.4,423.7l2.8-2.8l1.899,1.898l-4.699,4.699l-11-11l1.899-1.899L409.4,423.7z"/>
</g>
<g>
	<g>
		<path d="M469.3,397.2c13.2,0,24,10.8,24,24s-10.8,24-24,24s-24-10.8-24-24C445.3,407.9,456.1,397.2,469.3,397.2 M469.3,396.1
			c-13.8,0-25,11.2-25,25c0,13.802,11.2,25,25,25s25-11.198,25-25C494.4,407.3,483.199,396.1,469.3,396.1L469.3,396.1z"/>
	</g>
	<g>
		<path d="M454.3,420.7l-1.8,6.101h4.899v3.399l0.397,0.101c4,1.3,11.399,3.3,11.399,3.3h0.101h0.103c0.101,0,7.397-2,11.397-3.3
			l0.399-0.101l0,0v-3.399h4.897l-1.8-6.101l1.8-6.102h-4.895v-3.101l-0.3-0.1c-3.303-1.7-7.399-2.603-11.7-2.603
			c-4.3,0-8.399,0.9-11.699,2.603l-0.301,0.1v3.101H452.3L454.3,420.7z M460.3,428v-14.1l0.2-0.103c2.5-1.3,5.6-1.897,8.8-1.897
			s6.399,0.698,8.8,1.897l0.2,0.103V428l0,0L478,428.1c-3.101,1-8.601,2.5-8.7,2.5h-0.101h-0.1c-0.1,0-5.6-1.5-8.697-2.5L460.3,428
			L460.3,428z"/>
		<polygon points="463.4,414.7 461.4,416.6 472.5,427.7 477.3,422.9 475.3,421 472.5,423.801 		"/>
	</g>
</g>
<g>
	<circle fill="#B4601A" cx="534.1" cy="421.2" r="25"/>
	<path fill="#FFFFFF" d="M526.5,410.6L526.5,410.6l4.6,21.302c0.103,0.3,0.303,0.5,0.603,0.5l0,0c0.301,0,0.5-0.2,0.601-0.5l2.3-8.5
		l8.5,2.3c0.103,0,0.103,0,0.2,0c0.2,0,0.399-0.102,0.5-0.3c0.103-0.2,0.103-0.602-0.101-0.7L527.503,410.1l0,0
		c0,0-0.101,0-0.101-0.101H527.3h-0.101h-0.1H527H526.9l0,0c0,0,0,0-0.103,0c0,0-0.101,0-0.101,0.101l0,0c0,0,0,0-0.102,0.102
		l-0.102,0.101c0,0,0,0,0,0.102v0.198C526.5,410.5,526.5,410.5,526.5,410.6C526.4,410.5,526.4,410.6,526.5,410.6z"/>
</g>
<g>
	<path d="M590.699,410.6L590.699,410.6l4.601,21.302c0.103,0.3,0.3,0.5,0.603,0.5l0,0c0.3,0,0.5-0.2,0.601-0.399l2.3-8.5l8.5,2.3
		c0.103,0,0.103,0,0.103,0c0.197,0,0.397-0.101,0.5-0.3c0.101-0.2,0.101-0.601-0.103-0.7l-16.101-14.7l0,0c0,0-0.103,0-0.103-0.101
		h-0.1H591.4h-0.1h-0.101h-0.1l0,0c0,0,0,0-0.1,0c0,0-0.101,0-0.101,0.101l0,0c0,0,0,0-0.103,0.102l-0.101,0.101c0,0,0,0,0,0.102
		L590.699,410.6C590.699,410.5,590.699,410.5,590.699,410.6C590.699,410.5,590.699,410.6,590.699,410.6z"/>
	<g>
		<path d="M598.3,397.2c13.2,0,24,10.8,24,24s-10.8,24-24,24s-24-10.8-24-24C574.3,407.9,585.1,397.2,598.3,397.2 M598.3,396.1
			c-13.8,0-25,11.2-25,25c0,13.802,11.2,25,25,25s25-11.198,25-25C623.4,407.3,612.199,396.1,598.3,396.1L598.3,396.1z"/>
	</g>
</g>
<g>
	<circle fill="#B4601A" cx="662.199" cy="421.2" r="25.1"/>
	<g>
		<path fill="#FFFFFF" d="M648.1,415.7c-0.5,0.6-0.697,1.5-0.697,1.5s-0.603,0.8-0.9,1.2c-0.299,0.397-0.3,1.397-0.3,1.897
			c0,0.603,0.2,6.501,0.2,6.501v2.899c0,0.5,0.397,0.8,0.8,0.8h2.7c0.5,0,0.8-0.399,0.8-0.8v-1.6c0.7,0.2,1.2,0.302,1.5,0.302
			c0.897,0.101,1.601-0.102,1.601-0.102c0.199,0,1.603,0,3.103,0l5-2.601c0.101-0.102,0.3-0.102,0.5-0.102
			c-0.303-1.398-0.2-2.898,0.197-4.3c0.7-2.2,2.2-4.001,4.2-5.101c1.2-0.7,2.602-1,4-1c1,0,2,0.2,3,0.5c0.102-0.2,0.399-0.602,1-0.7
			c0.8-0.1,1.5-0.3,1.5-0.899c0-0.601-0.398-0.898-0.898-1c-0.5-0.101-2-0.398-2.102,0.199c-0.101,0.603-0.101,1,0.102,1.301
			l-0.5,0.5c0,0-0.302-0.301-0.398-0.698c-0.102-0.4-0.7-2.302-2-4.103c-1-1.5-1.4-1.6-1.7-1.6s-2.3-0.4-7.898-0.4
			c-5.698,0-7.602,0.4-7.898,0.4c-0.302,0-0.602,0.1-1.7,1.6c-1.3,1.9-1.898,3.801-2,4.103c-0.1,0.397-0.398,0.698-0.398,0.698
			l-0.5-0.5c0.102-0.301,0.102-0.698,0.102-1.301c-0.102-0.6-1.602-0.3-2.102-0.199c-0.5,0.102-0.898,0.399-0.898,1
			c0,0.602,0.699,0.699,1.5,0.899C647.9,415,648.1,415.7,648.1,415.7z M648.699,417.7c1.101,0.6,5.101,1.6,5.301,1.7
			c0.199,0.1,0.3,0.198,0.1,0.3c-0.197,0.2-1.197,0.898-1.197,0.898c-4.303-0.301-4.603-0.898-4.603-0.898
			C647.8,418.3,648.699,417.7,648.699,417.7z"/>
		<path fill="#FFFFFF" d="M663.3,426.1l1.3,2.5c1.5,1.899,3.7,3.102,6.2,3.102c1.3,0,2.5-0.3,3.7-0.899
			c1.899-1,3.199-2.601,3.899-4.601c0.601-2,0.397-4.102-0.603-6c-1.397-2.602-4-4.2-7-4.2c-1.301,0-2.5,0.3-3.7,0.9
			c-1.897,1-3.197,2.6-3.897,4.601C662.9,423,662.9,424.6,663.3,426.1z M664.5,421.801c0.5-1.7,1.699-3.101,3.199-3.898
			c0.897-0.5,2-0.802,3.101-0.802c2.5,0,4.7,1.399,5.899,3.5c0.801,1.602,1,3.399,0.5,5c-0.5,1.7-1.699,3.102-3.199,3.899
			c-1,0.5-2,0.801-3.101,0.801c-2.5,0-4.7-1.398-5.899-3.5C664.199,425.301,664,423.5,664.5,421.801z"/>
		<path fill="#FFFFFF" d="M665.699,421.7c0.397-0.5,1-0.9,1.601-1.2c2.7-1.399,6.103-0.399,7.5,2.301c0.8,1.5,0.8,3.102,0.3,4.602
			c1.5-1.7,1.9-4.2,0.803-6.302c-1.4-2.698-4.803-3.801-7.5-2.301C667,419.5,666.1,420.5,665.699,421.7z"/>
		<path fill="#FFFFFF" d="M652.1,431.7c0,0.101,0,0.2,0,0.3l1.4,2.601c0.1,0.102,0.199,0.2,0.399,0.2c0.101,0,0.101,0,0.197-0.101
			l9.899-5.2c0.2-0.1,0.301-0.399,0.2-0.6l-1.3-2.602c-0.103-0.101-0.103-0.2-0.303-0.2c-0.1,0-0.197,0-0.3,0l-9.898,5.2
			C652.199,431.5,652.1,431.5,652.1,431.7z"/>
	</g>
</g>
<g>
	<g>
		<path d="M727.3,397.2c13.2,0,23.899,10.7,23.899,23.898c0,13.2-10.699,23.899-23.899,23.899s-23.9-10.697-23.9-23.897
			C703.3,407.9,714.1,397.2,727.3,397.2 M727.3,396.1c-13.8,0-25,11.2-25,25c0,13.802,11.2,25,25,25s25-11.198,25-25
			C752.199,407.3,741.1,396.1,727.3,396.1L727.3,396.1z"/>
	</g>
	<g>
		<path d="M713.3,415.4c-0.5,0.6-0.7,1.5-0.7,1.5s-0.6,0.8-0.897,1.198c-0.299,0.399-0.3,1.399-0.3,1.899
			c0,0.601,0.197,6.5,0.197,6.5v2.801c0,0.5,0.4,0.8,0.803,0.8h2.601c0.399,0,0.8-0.398,0.8-0.8v-1.7c0.7,0.2,1.2,0.302,1.5,0.302
			c0.899,0.1,1.603-0.102,1.603-0.102c0.197,0,1.601,0,3.101,0l5-2.601c0.1-0.102,0.3-0.102,0.5-0.102
			c-0.301-1.398-0.2-2.898,0.199-4.301c0.7-2.199,2.2-4,4.2-5.1c1.197-0.602,2.601-1,4-1c1,0,2,0.2,3,0.5
			c0.101-0.2,0.397-0.602,1-0.7c0.8-0.101,1.5-0.3,1.5-0.899c0-0.601-0.399-0.898-0.899-1c-0.5-0.101-2-0.398-2.101,0.199
			c-0.103,0.603-0.103,1,0.101,1.301l-0.5,0.5c0,0-0.301-0.301-0.4-0.699c-0.1-0.399-0.697-2.301-2-4.102
			c-1-1.5-1.396-1.6-1.697-1.6c-0.303,0-2.303-0.4-7.899-0.4c-5.598,0-7.601,0.4-7.9,0.4s-0.6,0.1-1.697,1.6
			c-1.303,1.9-1.899,3.7-2,4.102c-0.103,0.398-0.399,0.699-0.399,0.699l-0.5-0.5c0.1-0.301,0.1-0.699,0.1-1.301
			c-0.1-0.6-1.5-0.3-2.1-0.199c-0.5,0.102-0.9,0.399-0.9,1c0,0.602,0.7,0.699,1.5,0.899C713.1,414.7,713.3,415.4,713.3,415.4z
			 M713.9,417.4c1.101,0.6,5.101,1.6,5.3,1.698c0.2,0.102,0.301,0.199,0.101,0.302c-0.2,0.198-1.2,0.897-1.2,0.897
			c-4.197-0.3-4.6-0.897-4.6-0.897C713,418,713.9,417.4,713.9,417.4z"/>
		<path d="M728.5,425.7l1.3,2.5c1.5,1.898,3.7,3,6.2,3c1.3,0,2.5-0.3,3.6-0.899c1.9-1,3.2-2.601,3.803-4.601
			c0.6-2,0.397-4.102-0.603-6c-1.397-2.602-4-4.2-6.897-4.2c-1.303,0-2.5,0.3-3.603,0.9c-1.897,1-3.2,2.6-3.801,4.6
			C728,422.6,728,424.2,728.5,425.7z M729.6,421.4c0.5-1.7,1.7-3.103,3.2-3.9c0.899-0.5,2-0.8,3.103-0.8c2.5,0,4.697,1.398,5.8,3.5
			c0.801,1.601,1,3.3,0.5,5s-1.699,3.101-3.199,3.898c-1,0.5-2,0.802-3.101,0.802c-2.5,0-4.7-1.302-5.803-3.5
			C729.3,424.9,729.1,423.1,729.6,421.4z"/>
		<path d="M730.8,421.4c0.399-0.5,0.899-0.9,1.603-1.2c2.697-1.4,6-0.4,7.5,2.3c0.8,1.5,0.8,3.101,0.3,4.601
			c1.5-1.698,1.897-4.101,0.801-6.198c-1.4-2.7-4.801-3.7-7.5-2.302C732.1,419.1,731.199,420.2,730.8,421.4z"/>
		<path d="M717.3,431.301c0,0.102,0,0.199,0,0.3l1.3,2.5c0.103,0.102,0.2,0.2,0.4,0.2c0.1,0,0.1,0,0.199-0.101L729,429
			c0.199-0.1,0.3-0.399,0.199-0.6l-1.399-2.602c-0.101-0.101-0.101-0.2-0.3-0.2c-0.101,0-0.2,0-0.301,0l-9.8,5.2
			C717.4,431.1,717.3,431.1,717.3,431.301z"/>
	</g>
</g>
<g>
	<circle fill="#B4601A" cx="788.6" cy="421.1" r="24.9"/>
	<path fill="#FFFFFF" d="M774.9,411.9v18.3c0,0.8,0.697,1.5,1.5,1.5h24.5c0.8,0,1.5-0.7,1.5-1.5v-18.3c0-0.802-0.7-1.5-1.5-1.5
		h-24.5C775.5,410.5,774.9,411.1,774.9,411.9z M776.9,412.6h23.4v17.3h-23.4V412.6z M793.6,416.4c0-1,0.803-1.802,1.803-1.802l0,0
		c1,0,1.8,0.802,1.8,1.802l0,0c0,1-0.8,1.8-1.8,1.8l0,0C794.4,418.2,793.6,417.4,793.6,416.4L793.6,416.4z M798.8,428
		c0.2,0.2,0.103,0.5-0.2,0.5h-19.7c-0.303,0-0.5-0.199-0.303-0.5l5.103-9.5c0.2-0.3,0.397-0.3,0.7-0.1l4.101,5
		c0.199,0.3,0.6,0.3,0.899,0.198l3.3-1.898c0.301-0.2,0.7-0.102,0.897,0.2L798.8,428z"/>
</g>
<g>
	<g>
		<path d="M852.699,397.2c13.301,0,24,10.8,24,24s-10.8,24-24,24c-13.3,0-24-10.8-24-24S839.5,397.2,852.699,397.2 M852.699,396.2
			c-13.899,0-25.103,11.2-25.103,25.101c0,13.899,11.2,25.102,25.103,25.102c13.801,0,25.101-11.2,25.101-25.102
			C877.8,407.4,866.6,396.2,852.699,396.2L852.699,396.2z"/>
	</g>
	<path d="M838.9,412v18.4c0,0.8,0.697,1.5,1.5,1.5H865c0.8,0,1.5-0.7,1.5-1.5V412c0-0.8-0.7-1.5-1.5-1.5H840.4
		C839.6,410.5,838.9,411.2,838.9,412z M841,412.7h23.5v17.4H841V412.7z M857.699,416.5c0-1,0.801-1.8,1.801-1.8l0,0
		c1,0,1.8,0.8,1.8,1.8l0,0c0,1-0.8,1.8-1.8,1.8l0,0C858.5,418.3,857.699,417.5,857.699,416.5L857.699,416.5z M863,428.2
		c0.199,0.3,0.1,0.5-0.2,0.5H843c-0.301,0-0.5-0.2-0.301-0.5l5.101-9.5c0.2-0.3,0.399-0.3,0.7-0.102l4.1,5
		c0.2,0.302,0.603,0.302,0.9,0.2l3.399-1.898c0.3-0.2,0.697-0.102,0.897,0.101L863,428.2z"/>
</g>
<g>
	<circle fill="#B4601A" cx="916.5" cy="421.2" r="25.1"/>
	
		<rect x="901.392" y="419.514" transform="matrix(0.7071 0.7071 -0.7071 0.7071 566.2638 -524.71)" fill="#FFFFFF" width="30.201" height="3.3"/>
	<path fill="#FFFFFF" d="M903.9,428.2c0,3.101,2.5,5.5,5.601,5.5c3.1,0,5.6-2.5,5.6-5.5s-2.5-5.602-5.6-5.602
		C906.4,422.7,903.9,425.1,903.9,428.2z M906.8,428.2c0-1.5,1.2-2.7,2.7-2.7s2.699,1.2,2.699,2.7s-1.199,2.7-2.699,2.7
		S906.8,429.7,906.8,428.2z"/>
	<path fill="#FFFFFF" d="M929,414.2c0-3.102-2.5-5.602-5.5-5.602c-3.101,0-5.601,2.5-5.601,5.602c0,3.1,2.5,5.6,5.601,5.6
		C926.5,419.8,929,417.3,929,414.2z M926.1,414.2c0,1.5-1.197,2.7-2.697,2.7s-2.7-1.2-2.7-2.7s1.2-2.7,2.7-2.7
		S926.1,412.8,926.1,414.2z"/>
</g>
<g>
	<g>
		<path d="M25.1,481.1c13.301,0,24,10.802,24,24c0,13.303-10.8,24-24,24c-13.199,0-24-10.8-24-24C1,491.9,11.8,481.1,25.1,481.1
			 M25.1,480.1C11.2,480.1,0,491.301,0,505.2c0,13.897,11.2,25.101,25.1,25.101c13.801,0,25.102-11.2,25.102-25.101
			C50.1,491.301,38.9,480.1,25.1,480.1L25.1,480.1z"/>
	</g>
	<rect x="10.092" y="503.531" transform="matrix(0.7071 0.7071 -0.7071 0.7071 364.5946 130.1506)" width="30.198" height="3.299"/>
	<path d="M12.6,512.1c0,3.103,2.5,5.5,5.602,5.5c3.1,0,5.6-2.5,5.6-5.5s-2.5-5.601-5.6-5.601C15,506.6,12.6,509.1,12.6,512.1z
		 M15.4,512.1c0-1.5,1.199-2.697,2.699-2.697s2.7,1.197,2.7,2.697s-1.2,2.7-2.7,2.7S15.4,513.6,15.4,512.1z"/>
	<path d="M37.6,498.2c0-3.102-2.5-5.602-5.5-5.602c-3.1,0-5.6,2.5-5.6,5.602c0,3.101,2.5,5.601,5.6,5.601
		C35.1,503.7,37.6,501.2,37.6,498.2z M34.8,498.2c0,1.5-1.2,2.7-2.7,2.7s-2.699-1.2-2.699-2.7s1.199-2.7,2.699-2.7
		S34.8,496.7,34.8,498.2z"/>
</g>
<g>
	<circle fill="#B4601A" cx="85" cy="505.2" r="25.1"/>
	<path fill="#FFFFFF" d="M69.4,504.801v11c0,0.3,0.301,0.603,0.601,0.603h2.5c0,0.697-0.3,1.897-1.3,2.601
		c-0.2,0.1-0.301,0.399-0.2,0.6c0.1,0.2,0.3,0.4,0.5,0.4l0,0c2.6-0.101,3.6-2.2,3.899-3.601h12.4c0.3,0,0.601-0.303,0.601-0.603
		v-7.5H92.8c0.3,1.8,1.7,4.699,5.101,4.899l0,0c0.199,0,0.5-0.103,0.5-0.399c0.101-0.2,0-0.5-0.199-0.7
		c-1.602-1-1.801-2.897-1.9-3.8h3.8c0.301,0,0.602-0.301,0.602-0.601V493c0-0.3-0.301-0.6-0.602-0.6h-24c-0.3,0-0.6,0.3-0.6,0.6
		v11.301h-5.7C69.6,504.2,69.4,504.5,69.4,504.801z M87.7,504.2h-11v-10.7h22.8V507.1h-3.7c-0.3,0-0.5,0.2-0.6,0.5
		c0,0.103-0.2,2.103,0.8,3.803c-2-1.103-2.2-3.7-2.3-3.803c0-0.3-0.301-0.5-0.602-0.5H88.2v-2.3C88.3,504.5,88,504.2,87.7,504.2z"/>
</g>
<g>
	<g>
		<path d="M145.8,481.1c13.2,0,24,10.7,24,24c0,13.303-10.7,23.899-24,23.899c-13.2,0-23.899-10.699-23.899-23.899
			C121.9,491.9,132.6,481.1,145.8,481.1 M145.8,480.1c-13.8,0-25,11.2-25,25c0,13.803,11.2,25,25,25s25-11.197,25-25
			C170.8,491.301,159.6,480.1,145.8,480.1L145.8,480.1z"/>
	</g>
	<path fill="none" d="M137.5,493.5v10.7h11c0.3,0,0.6,0.3,0.6,0.601v2.3h4.9c0.3,0,0.5,0.2,0.6,0.5c0,0.103,0.301,2.7,2.2,3.803
		c-1-1.7-0.8-3.7-0.8-3.803c0-0.3,0.3-0.5,0.6-0.5h3.7v-13.5L137.5,493.5L137.5,493.5z"/>
	<path d="M130.2,504.801V515.7c0,0.3,0.3,0.601,0.6,0.601h2.5c0,0.699-0.3,1.899-1.3,2.603c-0.2,0.101-0.3,0.397-0.2,0.601
		c0.101,0.199,0.3,0.399,0.5,0.399l0,0c2.601-0.103,3.601-2.2,3.9-3.603h12.3c0.3,0,0.6-0.301,0.6-0.601v-7.5h4.4
		c0.3,1.8,1.7,4.7,5.1,4.8l0,0c0.2,0,0.5-0.199,0.5-0.399c0.102-0.197,0-0.5-0.199-0.601c-1.601-1-1.801-2.899-1.899-3.8h3.7
		c0.3,0,0.6-0.3,0.6-0.603v-14.698c0-0.302-0.3-0.602-0.6-0.602H137c-0.3,0-0.601,0.3-0.601,0.602v11.198h-5.6
		C130.5,504.2,130.2,504.5,130.2,504.801z M148.5,504.2h-11v-10.7h22.7V507.1h-3.7c-0.3,0-0.5,0.2-0.601,0.5
		c0,0.103-0.199,2.103,0.801,3.803c-2-1.103-2.2-3.7-2.2-3.803c0-0.3-0.3-0.5-0.601-0.5H149v-2.3C149,504.5,148.8,504.2,148.5,504.2
		z"/>
</g>
<g>
	<circle fill="#B4601A" cx="208.7" cy="505.2" r="25.1"/>
	<path fill="#FFFFFF" d="M205.7,500.7c-0.7,0.101-1.7,1.7-1.9,2s-1.399,1.2-2.899,0.2c-1.399-1-5-3.603-5.601-4
		c-1.3-1,0.4-2.7,0.9-3.302c0.5-0.601,4.898-4.398,16.699,4.102s9.601,13.8,9.199,14.5c-0.5,0.601-1.5,2.8-2.898,1.897
		c-0.602-0.397-4.102-3-5.602-4c-1.398-1-1-2.5-0.8-2.8c0.2-0.301,1.399-1.7,1.3-2.397c-0.1-0.7-2.3-3-3.699-3.9
		C209.2,501.9,206.4,500.5,205.7,500.7z"/>
</g>
<g>
	<g>
		<path d="M271.6,481.1c13.2,0,24,10.802,24,24c0,13.2-10.8,24-24,24c-13.199,0-24-10.8-24-24S258.4,481.1,271.6,481.1 M271.6,480.1
			c-13.8,0-25,11.2-25,25c0,13.803,11.2,25,25,25c13.801,0,25-11.197,25-25C296.7,491.301,285.5,480.1,271.6,480.1L271.6,480.1z"/>
	</g>
	<path d="M268.6,500.6c-0.699,0.103-1.699,1.7-1.898,2c-0.2,0.303-1.4,1.2-2.9,0.2c-1.399-1-4.899-3.5-5.5-4c-1.3-1,0.4-2.7,0.9-3.3
		c0.5-0.601,4.898-4.4,16.6,4.1C287.6,508,285.4,513.4,285,514c-0.5,0.601-1.5,2.801-2.9,1.9c-0.6-0.4-4.1-2.9-5.5-4
		c-1.398-1-1-2.5-0.8-2.803c0.2-0.3,1.4-1.697,1.3-2.397c-0.1-0.7-2.3-3-3.6-3.899C272.2,501.801,269.3,500.5,268.6,500.6z"/>
</g>
<g>
	<circle fill="#B4601A" cx="336" cy="505.2" r="25.1"/>
	<g>
		<polygon fill="#FFFFFF" points="321.199,513.301 331.3,513.301 331.3,518.4 339.4,510.301 331.3,502.2 331.3,507.2 321.199,507.2 
					"/>
		<polygon fill="#FFFFFF" points="340.699,508.1 340.699,503.1 350.8,503.1 350.8,497 340.699,497 340.699,491.9 332.6,500 		"/>
	</g>
</g>
<g>
	<g>
		<path d="M400.5,481.1c13.3,0,24,10.802,24,24c0,13.303-10.801,24-24,24c-13.2,0-24-10.8-24-24S387.199,481.1,400.5,481.1
			 M400.5,480.1c-13.801,0-25.101,11.2-25.101,25.102c0,13.801,11.199,25.101,25.101,25.101c13.8,0,25.1-11.2,25.1-25.101
			C425.6,491.301,414.3,480.1,400.5,480.1L400.5,480.1z"/>
	</g>
	<g>
		<polygon points="385.699,513.301 395.8,513.301 395.8,518.4 403.9,510.301 395.8,502.2 395.8,507.2 385.699,507.2 		"/>
		<polygon points="405.199,508.1 405.199,503.1 415.3,503.1 415.3,497 405.199,497 405.199,491.9 397.1,500 		"/>
	</g>
</g>
<polygon id="polygon4578-1_1_" fill="#FFFFFF" points="51.2,307.7 60,298.9 68.7,307.5 69.4,306.8 60,297.4 50.4,307 "/>
<polygon id="polygon4578-1-1_1_" fill="#FFFFFF" points="60,356.1 50.4,346.6 51.2,345.9 60,354.7 68.7,346 69.4,346.7 "/>
<polygon id="polygon4578-1_2_" fill="#B4601A" points="10.3,586.5 1.5,577.6 10.1,569 9.4,568.301 0,577.6 9.6,587.301 "/>
<polygon id="polygon4578-1_3_" fill="#FFFFFF" points="10.3,562.5 1.5,553.6 10.1,544.9 9.4,544.2 0,553.6 9.6,563.2 "/>
<rect x="24.7" y="606.301" fill="none" stroke="#B4601A" stroke-miterlimit="10" width="5.398" height="8"/>
<line fill="none" stroke="#B4601A" stroke-miterlimit="10" x1="16.8" y1="599.2" x2="16.8" y2="620.9"/>
<path fill="none" stroke="#B4601A" stroke-width="2" stroke-miterlimit="10" d="M14.2,603.801c0,0-5.5,6.399,0,13"/>
<path fill="none" stroke="#B4601A" stroke-width="2" stroke-miterlimit="10" d="M9.8,600.301c0,0-8.2,7.3,0,19.5"/>
<path fill="none" stroke="#B4601A" stroke-width="2" stroke-miterlimit="10" d="M5.3,596.7c0,0-9.899,11.2,0,26"/>
<line fill="none" stroke="#B4601A" stroke-miterlimit="10" x1="24.7" y1="606.301" x2="16.9" y2="599.7"/>
<line fill="none" stroke="#B4601A" stroke-miterlimit="10" x1="24.7" y1="614.301" x2="16.9" y2="620.5"/>
<g id="Your_Icon">
	<path fill="#B3B3B3" d="M182.3,596.1v3.7v8.3h5v5.399c0,0.7,0.3,1.301,0.7,1.801c0.399,0.399,1.1,0.699,1.8,0.699h18.6
		c0.699,0,1.301-0.3,1.801-0.699c0.398-0.397,0.699-1.101,0.699-1.801V608.1h4.601v-8.3v-3.7c0-2.3-1.9-4.101-4.101-4.101H211v-9.1
		c0-0.7-0.3-1.303-0.7-1.803c-0.399-0.397-1.1-0.697-1.8-0.697H194.4c-0.301,0-0.601,0-0.801,0.1c-0.3,0.101-0.5,0.101-0.8,0.301
		c-0.5,0.199-1,0.5-1.399,0.899l0,0l-2.801,2.8c-0.3,0.301-0.5,0.601-0.699,1c-0.199,0.4-0.301,0.801-0.399,1.2
		c-0.101,0.3-0.101,0.5-0.101,0.8v4.601h-0.8C184.1,591.9,182.3,593.801,182.3,596.1z M193.5,586.6H190
		c0.1-0.197,0.2-0.397,0.3-0.397l0,0l2.8-2.8c0.102-0.103,0.2-0.2,0.4-0.303l0,0V586.6z M208.4,591.9h-18.6v-3.3h5.8v-0.4v-1.7
		v-3.699h12.8V591.9z M189.7,608.1v-5h18.6v5v5.399h-18.6V608.1z M184.6,595.301c0-0.601,0.5-1.101,1.102-1.101
		c0.6,0,1.1,0.5,1.1,1.101c0,0.603-0.5,1.103-1.1,1.103C185.1,596.5,184.6,596,184.6,595.301z"/>
</g>
<circle fill="#B4601A" cx="110.9" cy="598.6" r="12.3"/>
<polyline fill="none" stroke="#FFFFFF" stroke-miterlimit="10" points="117.8,599.6 114.3,603.4 104,592.9 "/>
<polyline fill="none" stroke="#626466" stroke-miterlimit="10" points="70.6,595.301 74.6,595.301 74.6,603.1 66.7,603.1 
	66.7,599.2 "/>
<path fill="none" stroke="#626466" stroke-miterlimit="10" d="M65.4,593.1"/>
<line fill="none" stroke="#626466" stroke-miterlimit="10" x1="69.9" y1="598.5" x2="65.1" y2="593.7"/>
<line fill="none" stroke="#626466" stroke-miterlimit="10" x1="65.3" y1="594" x2="65.4" y2="596.6"/>
<line fill="none" stroke="#626466" stroke-miterlimit="10" x1="65.4" y1="593.9" x2="68" y2="594"/>
<polygon id="polygon4530_1_" fill="none" stroke="#FFFFFF" stroke-miterlimit="10" points="89,229.5 103.2,218.8 103.2,240.1 "/>
<path id="path3527_1_" fill="#FFFFFF" d="M25.1,0.1c-13.8,0-25,11.199-25,25c0,13.8,11.2,25,25,25c13.801,0,25-11.2,25-25
	C50.1,11.3,38.8,0.1,25.1,0.1 M25.1,49.2c-13.3,0-24.2-10.8-24.2-24.1C0.9,11.8,11.7,1,25,1S49.2,11.8,49.2,25.1
	C49.2,38.4,38.3,49.2,25.1,49.2"/>
<path id="path3527_2_" fill="#B4601A" d="M525,0.1c-13.801,0-25,11.199-25,25c0,13.8,11.199,25,25,25c13.8,0,25-11.2,25-25
	C550,11.3,538.8,0.1,525,0.1 M525,49.2c-13.301,0-24.101-10.8-24.101-24.1C500.9,11.8,511.699,1,525,1c13.3,0,24.1,10.8,24.1,24.101
	C549.1,38.4,538.3,49.2,525,49.2"/>
<path id="path3527_3_" fill="#B4601A" d="M939.3,80.4c-13.8,0-25,11.2-25,25s11.2,25,25,25s25-11.2,25-25S953.1,80.4,939.3,80.4
	 M939.3,129.5c-13.3,0-24.101-10.8-24.101-24.1S926,81.3,939.3,81.3S963.4,92.1,963.4,105.4S952.6,129.5,939.3,129.5"/>
<path id="path3527_4_" fill="#B4601A" d="M881.699,80.1c-13.8,0-25,11.199-25,25c0,13.8,11.2,25,25,25c13.801,0,25-11.2,25-25
	C906.699,91.3,895.5,80.1,881.699,80.1 M881.699,129.2c-13.3,0-24.103-10.8-24.103-24.1C857.6,91.8,868.4,81,881.699,81
	C895,81,905.8,91.8,905.8,105.1C905.8,118.4,895,129.2,881.699,129.2"/>
<path id="path3527_6_" fill="#B4601A" d="M768.4,80.1c-13.803,0-25,11.199-25,25c0,13.8,11.197,25,25,25c13.8,0,25-11.2,25-25
	C793.4,91.3,782.199,80.1,768.4,80.1 M768.4,129.2c-13.303,0-24.103-10.8-24.103-24.1C744.297,91.8,755.097,81,768.4,81
	c13.3,0,24.101,10.8,24.101,24.101C792.5,118.4,781.699,129.2,768.4,129.2"/>
<path id="path3527_7_" fill="#FFFFFF" d="M716.1,80.1c-13.8,0-25,11.199-25,25c0,13.8,11.2,25,25,25c13.803,0,25-11.2,25-25
	C741.1,91.3,729.9,80.1,716.1,80.1 M716.1,129.2c-13.3,0-24.1-10.8-24.1-24.1C692,91.8,702.8,81,716.1,81s24.1,10.8,24.1,24.101
	C740.199,118.4,729.4,129.2,716.1,129.2"/>
<path id="path3527_8_" fill="#FFFFFF" d="M600.699,80.1c-13.8,0-25,11.199-25,25c0,13.8,11.2,25,25,25c13.801,0,25-11.2,25-25
	C625.699,91.3,614.5,80.1,600.699,80.1 M600.699,129.2c-13.3,0-24.103-10.8-24.103-24.1C576.6,91.8,587.4,81,600.699,81
	C614,81,624.8,91.8,624.8,105.1C624.8,118.4,614,129.2,600.699,129.2"/>
<path id="path3527_10_" fill="#B4601A" d="M370.6,80.1c-13.8,0-25,11.199-25,25c0,13.8,11.2,25,25,25c13.801,0,25-11.2,25-25
	C395.6,91.3,384.4,80.1,370.6,80.1 M370.6,129.2c-13.3,0-24.1-10.8-24.1-24.1C346.5,91.8,357.3,81,370.6,81s24.1,10.8,24.1,24.101
	C394.699,118.4,383.9,129.2,370.6,129.2"/>
<path id="path3527_11_" fill="#FFFFFF" d="M313,80.1c-13.801,0-25,11.199-25,25c0,13.8,11.199,25,25,25c13.8,0,25-11.2,25-25
	C338,91.3,326.8,80.1,313,80.1 M313,129.2c-13.301,0-24.101-10.8-24.101-24.1C288.9,91.8,299.699,81,313,81
	c13.3,0,24.1,10.8,24.1,24.101C337.1,118.4,326.3,129.2,313,129.2"/>
<path id="path3527_12_" fill="#B4601A" d="M255.4,80.1c-13.801,0-25,11.199-25,25c0,13.8,11.199,25,25,25s25-11.2,25-25
	C280.4,91.3,269.2,80.1,255.4,80.1 M255.4,129.2c-13.301,0-24.101-10.8-24.101-24.1C231.299,91.8,242.099,81,255.4,81
	S279.5,91.8,279.5,105.1C279.5,118.4,268.7,129.2,255.4,129.2"/>
<path id="path3527_13_" fill="#B4601A" d="M140.2,80.1c-13.801,0-25,11.199-25,25c0,13.8,11.199,25,25,25c13.8,0,25-11.2,25-25
	C165.2,91.3,154,80.1,140.2,80.1 M140.2,129.2c-13.301,0-24.102-10.8-24.102-24.1C116.1,91.8,126.9,81,140.2,81
	c13.3,0,24.1,10.8,24.1,24.101C164.3,118.4,153.5,129.2,140.2,129.2"/>
<path id="path3527_14_" fill="#FFFFFF" d="M135.3,143.5c-13.5,0-24.5,11-24.5,24.5s11,24.5,24.5,24.5s24.5-11,24.5-24.5
	C159.9,154.4,148.9,143.5,135.3,143.5 M135.3,191.6c-13,0-23.6-10.601-23.6-23.601s10.6-23.6,23.6-23.6s23.6,10.6,23.6,23.6
	C159,181,148.4,191.6,135.3,191.6"/>
<path id="path3527_15_" fill="#FFFFFF" d="M236,143.6c-13.8,0-25,11.199-25,25c0,13.8,11.2,25,25,25s25-11.2,25-25
	C261,154.8,249.8,143.6,236,143.6 M236,192.7c-13.3,0-24.101-10.8-24.101-24.1C211.9,155.3,222.7,144.5,236,144.5
	s24.1,10.8,24.1,24.101C260.1,181.9,249.3,192.7,236,192.7"/>
<path id="path3527_16_" fill="#FFFFFF" d="M98.4,204.2c-13.801,0-25,11.2-25,25s11.199,25,25,25s25-11.2,25-25
	S112.1,204.2,98.4,204.2 M98.4,253.2c-13.3,0-24.1-10.8-24.1-24.1C74.3,215.8,85.1,205,98.401,205s24.101,10.8,24.101,24.101
	C122.4,242.5,111.7,253.2,98.4,253.2"/>
<circle fill="#B4601A" cx="599.4" cy="503.7" r="25"/>
<path fill="#FFFFFF" d="M586.3,502.5l2,3.4h2.103V504h2v1.9h2v-1.8h2V506h2V504.1h1.8c0.5,2.103,2.5,1.899,2.5,1.899l0,0
	c1,2.4,3,4.101,5.5,4.101c3.301,0,6-3.197,6-7c0-3.897-2.699-7-6-7c-2.103,0-4,1.302-5.103,3.2l0,0h-14.8L586.3,502.5z
	 M609.199,502.7c0-0.8,0.7-1.5,1.5-1.5c0.801,0,1.5,0.7,1.5,1.5s-0.699,1.5-1.5,1.5C609.9,504.2,609.199,503.5,609.199,502.7z"/>
<g>
	<path fill="#B4601A" d="M542.3,158.1L542.3,158.1l4.603,21.3c0.101,0.3,0.3,0.5,0.601,0.5l0,0c0.3,0,0.5-0.2,0.6-0.4l2.303-8.5
		l8.5,2.301c0.101,0,0.101,0,0.197,0c0.2,0,0.4-0.101,0.5-0.301c0.103-0.199,0.103-0.6-0.1-0.699L543.403,157.7l0,0
		c0,0-0.103,0-0.103-0.1h-0.101h-0.1H543H542.9h-0.1l0,0c0,0,0,0-0.101,0c0,0-0.102,0-0.102,0.1l0,0c0,0,0,0-0.102,0.101l-0.1,0.1
		c0,0,0,0,0,0.1v0.101c0,0,0,0,0,0.1C542.3,158,542.3,158,542.3,158.1z"/>
	<g>
		<path fill="#B4601A" d="M550,144.6c13.199,0,24,10.8,24,24c0,13.199-10.801,24-24,24c-13.2,0-24-10.801-24-24
			C526,155.4,536.699,144.6,550,144.6 M550,143.6c-13.801,0-25,11.199-25,25c0,13.8,11.199,25,25,25c13.8,0,25-11.2,25-25
			C575,154.8,563.8,143.6,550,143.6L550,143.6z"/>
	</g>
</g>
<g>
	<g>
		<g>
			<g>
				<g>
					<g>
						<g>
							<g>
								<g>
									<g>
										<g>
											<g>
												<polygon fill="none" points="253.5,315.4 255.1,317.1 246.6,325.6 238.1,317.1 239.7,315.4 246.6,322.3 												"/>
											</g>
										</g>
									</g>
								</g>
							</g>
						</g>
					</g>
				</g>
			</g>
		</g>
	</g>
</g>
<polygon id="polygon4578-1_5_" fill="#656666" points="10.3,660.7 1.5,651.9 10.1,643.2 9.4,642.5 0,651.9 9.6,661.5 "/>
<polygon id="polygon4530_2_" fill="none" stroke="#FFFFFF" stroke-width="2" stroke-miterlimit="10" points="633.5,194.1 
	663.3,171.6 663.3,216.3 "/>
<path id="path4552_19_" fill="#FFFFFF" d="M653.1,141.6c-28.697,0-52,23.3-52,52c0,28.699,23.303,52,52,52c28.7,0,52-23.301,52-52
	C705.1,164.9,681.8,141.6,653.1,141.6 M653.1,243.8c-27.697,0-50.1-22.5-50.1-50.1s22.5-50.1,50.1-50.1
	c27.603,0,50.103,22.5,50.103,50.1C703.199,221.3,680.699,243.8,653.1,243.8"/>
<g display="none" opacity="0.4" enable-background="new    ">
	<g display="inline">
		<g>
			<g>
				<g>
					<g>
						<g>
							<g>
								<g>
									<g>
										<g>
											<g>
												<g>
													<defs>
														<rect id="SVGID_2_" x="1215.6" y="-406.6" width="35" height="35"/>
													</defs>
													<clipPath id="SVGID_4_">
														<use xlink:href="#SVGID_2_"  overflow="visible"/>
													</clipPath>
													<rect x="1210.6" y="-411.6" clip-path="url(#SVGID_4_)" width="45" height="45"/>
												</g>
											</g>
										</g>
									</g>
								</g>
							</g>
						</g>
					</g>
				</g>
			</g>
		</g>
	</g>
</g>
<g>
	<g>
		<g>
			<g>
				<g>
					<g>
						<g>
							<g>
								<g>
									<g>
										<g>
											<g>
												<g>
													<g>
														<defs>
															<path id="SVGID_5_" d="M252.3,601l2.7-2.6l4.6,4.6l2-2v5.2c0,0,0,1.3-1.398,1.3H255l1.899-1.899L252.3,601z
																 M249.8,593.1l-2.7,2.603l-4.6-4.603l-2,2v-5.2c0,0,0-1.303,1.399-1.303h5.199l-1.898,1.9L249.8,593.1z"/>
														</defs>
														<clipPath id="SVGID_6_">
															<use xlink:href="#SVGID_5_"  overflow="visible"/>
														</clipPath>
														<rect x="235.6" y="581.5" clip-path="url(#SVGID_6_)" fill="#FFFFFF" width="31" height="31"/>
													</g>
												</g>
											</g>
										</g>
									</g>
								</g>
							</g>
						</g>
					</g>
				</g>
			</g>
		</g>
	</g>
</g>
<g>
	<path fill="#FFFFFF" d="M459.4,600.301c0,11.8,9.601,21.399,21.397,21.399s21.399-9.603,21.399-21.399s-9.597-21.4-21.396-21.4
		S459.4,588.5,459.4,600.301z M468.4,593.1l1.897-1.897l15.3,15.301l5.399-5.4l2.101,2.103l-7.3,7.2L468.4,593.1z"/>
</g>
<g>
	<circle opacity="0.15" enable-background="new    " cx="412.5" cy="614.8" r="34.3"/>
</g>
<g>
	<path fill="#FFFFFF" d="M376.9,614.801c0,19.603,15.899,35.603,35.601,35.603c19.6,0,35.6-15.899,35.6-35.603
		S432.202,579.2,412.5,579.2C392.8,579.301,376.9,595.2,376.9,614.801z M378.1,614.801c0-18.897,15.4-34.301,34.301-34.301
		c18.899,0,34.3,15.4,34.3,34.301c0,18.899-15.3,34.3-34.2,34.3C393.601,649.1,378.1,633.801,378.1,614.801z"/>
</g>
<g>
	<path fill="#FFFFFF" d="M408.9,603.4c0,0-18.5,7.697,2,10.697c0-3.897,0-3.897,0-3.897l15,8l-15,7.897v-4c0,0-8.5,1-13-7
		c0,0-0.801-2.697,0-5.897C398.699,606,405.9,604,408.9,603.4z"/>
</g>
<g>
	
		<circle opacity="0.15" stroke="#FFFFFF" stroke-width="0.5" stroke-miterlimit="10" enable-background="new    " cx="332.6" cy="614.8" r="34.3"/>
</g>
<g>
	<path fill="#FFFFFF" d="M336.199,626.301c0,0,18.5-7.7-2-10.7c0,3.899,0,3.899,0,3.899l-15-8l15-7.899v4c0,0,8.5-1,13,7
		c0,0,0.801,2.7,0,5.899C346.4,623.7,339.199,625.6,336.199,626.301z"/>
</g>
<g>
	<path fill="#FFFFFF" d="M297.1,614.9c0,19.6,15.9,35.6,35.601,35.6c19.601,0,35.601-15.899,35.601-35.6
		s-15.899-35.603-35.601-35.603C313,579.4,297.1,595.301,297.1,614.9z M298.3,614.9c0-18.9,15.399-34.303,34.3-34.303
		s34.301,15.4,34.301,34.303c0,18.897-15.4,34.3-34.301,34.3S298.3,633.9,298.3,614.9z"/>
</g>
<circle fill="none" stroke="#FFFFFF" stroke-width="1.5" stroke-miterlimit="10" cx="562.1" cy="591.6" r="11.3"/>
<g>
	<line fill="none" stroke="#FFFFFF" stroke-width="1.5" stroke-miterlimit="10" x1="554.5" y1="600" x2="545.9" y2="608"/>
</g>
<g>
	<polygon id="polygon4544_3_" fill="#FFFFFF" points="556.3,592.1 561.8,592.1 561.8,597.6 562.8,597.6 562.8,592.1 568.199,592.1 
		568.199,591.1 562.8,591.1 562.8,585.7 561.8,585.7 561.8,591.1 556.3,591.1 	"/>
</g>
<g>
	<g>
		<circle fill="none" stroke="#FFFFFF" stroke-width="1.5" stroke-miterlimit="10" cx="603.199" cy="591.6" r="11.3"/>
	</g>
	<g>
		<g>
			<line fill="none" stroke="#FFFFFF" stroke-width="1.5" stroke-miterlimit="10" x1="595.6" y1="600" x2="587" y2="608"/>
		</g>
		<g>
			<g>
				<rect id="rect4538_2_" x="597.4" y="591.2" fill="#FFFFFF" width="11.897" height="0.897"/>
			</g>
		</g>
	</g>
</g>
<path id="path4550_1_" fill="#FFFFFF" stroke="#FFFFFF" stroke-width="2.5" stroke-miterlimit="10" d="M813.1,584
	c-15,0-27.1,12.101-27.1,27.101s12.1,27.103,27.1,27.103c14.9-0.003,27.1-12.103,27.1-27.103C840.1,596.1,828,584,813.1,584
	 M813.1,637.2c-14.397,0-26.1-11.7-26.1-26.103c0-14.397,11.699-26.101,26.1-26.101s26.103,11.7,26.103,26.101
	C839.199,625.5,827.5,637.2,813.1,637.2"/>
<g id="Layer_1_3_" xmlns:svg="http://www.w3.org/2000/svg" xmlns:inkscape="http://www.inkscape.org/namespaces/inkscape" xmlns:cc="http://creativecommons.org/ns#" xmlns:rdf="http://www.w3.org/1999/02/22-rdf-syntax-ns#" xmlns:sodipodi="http://sodipodi.sourceforge.net/DTD/sodipodi-0.dtd" xmlns:dc="http://purl.org/dc/elements/1.1/" sodipodi:docname="icons.svg" inkscape:version="0.48.5 r10040">
	<g>
		<polygon id="SVGID_3_" fill="#FFFFFF" points="809,611.1 818.1,620.1 815.9,622.301 804.699,611.1 815.9,599.9 818.1,602.1 		"/>
	</g>
</g>
<path fill="#FFFFFF" d="M718,611.1c0,15,12.1,27.103,27.1,27.103s27.1-12.103,27.1-27.103S760.1,584,745.1,584S718,596.1,718,611.1z
	 M736.699,611.1l11.2-11.197l2.197,2.197l-9,9l9,9l-2.197,2.2L736.699,611.1z"/>
<g>
	<g>
		<path fill="#B4601A" d="M80.9,681.6c13.199,0,23.899,10.7,23.899,23.899c0,13.2-10.699,23.9-23.899,23.9
			C67.7,729.4,57,718.801,57,705.6S67.7,681.6,80.9,681.6 M80.9,680.6c-13.801,0-25,11.2-25,25c0,13.803,11.199,25,25,25
			s25-11.197,25-25C105.9,691.801,94.7,680.6,80.9,680.6L80.9,680.6z"/>
	</g>
	<g>
		<path fill="#B4601A" d="M66.9,699.9c-0.5,0.6-0.699,1.5-0.699,1.5s-0.602,0.8-0.9,1.197C65,703,65,704,65,704.5
			c0,0.601,0.2,6.5,0.2,6.5v2.801c0,0.399,0.398,0.8,0.8,0.8h2.6c0.5,0,0.801-0.397,0.801-0.8v-1.7c0.699,0.2,1.199,0.303,1.5,0.303
			c0.899,0.101,1.601-0.103,1.601-0.103c0.2,0,1.6,0,3.1,0l5-2.601c0.2-0.103,0.301-0.103,0.5-0.103c-0.3-1.397-0.199-2.897,0.2-4.3
			c0.7-2.2,2.2-4,4.2-5.101c1.2-0.7,2.6-1,4-1c1,0,2,0.2,3,0.5c0.1-0.2,0.3-0.603,1-0.7c0.8-0.1,1.5-0.3,1.5-0.899
			c0-0.601-0.4-0.897-0.9-1c-0.5-0.101-2-0.397-2.1,0.2c-0.101,0.603-0.101,1,0.1,1.3l-0.5,0.5c0,0-0.3-0.3-0.398-0.697
			c-0.102-0.4-0.7-2.303-2-4.104c-1-1.5-1.301-1.6-1.7-1.6c-0.3,0-2.3-0.4-7.9-0.4c-5.6,0-7.6,0.4-7.898,0.4
			c-0.302,0-0.602,0.1-1.7,1.6c-1.3,1.9-1.9,3.7-2,4.104c-0.102,0.396-0.4,0.697-0.4,0.697l-0.5-0.5
			c0.102-0.3,0.102-0.697,0.102-1.3c-0.102-0.601-1.5-0.301-2.102-0.2c-0.5,0.103-0.898,0.399-0.898,1c0,0.603,0.698,0.7,1.5,0.899
			C66.7,699.2,66.9,699.9,66.9,699.9z M67.5,701.9c1.1,0.6,5.1,1.6,5.3,1.697c0.2,0.103,0.3,0.2,0.101,0.303
			c-0.199,0.197-1.199,0.897-1.199,0.897c-4.2-0.301-4.602-0.897-4.602-0.897C66.6,702.5,67.5,701.9,67.5,701.9z"/>
		<path fill="#B4601A" d="M82.1,710.2l1.301,2.5c1.5,1.897,3.699,3,6.199,3c1.301,0,2.5-0.3,3.602-0.899
			c1.898-1,3.199-2.601,3.8-4.601c0.6-2,0.399-4.103-0.601-6c-1.399-2.603-4-4.2-6.899-4.2c-1.3,0-2.5,0.301-3.601,0.9
			c-1.899,1-3.199,2.6-3.801,4.6C81.6,707.1,81.6,708.7,82.1,710.2z M83.3,705.9c0.5-1.7,1.7-3.103,3.2-3.9c0.899-0.5,2-0.8,3.1-0.8
			c2.5,0,4.7,1.397,5.801,3.5c0.801,1.601,1,3.3,0.5,5s-1.699,3.101-3.199,3.897c-1,0.5-2,0.803-3.102,0.803
			c-2.5,0-4.699-1.4-5.8-3.5C82.9,709.4,82.7,707.6,83.3,705.9z"/>
		<path fill="#B4601A" d="M84.4,705.9c0.399-0.5,1-0.9,1.601-1.2c2.7-1.399,6-0.399,7.5,2.3c0.8,1.5,0.8,3.101,0.3,4.601
			c1.5-1.697,1.9-4.101,0.8-6.197c-1.398-2.7-4.8-3.7-7.5-2.303C85.8,703.6,84.9,704.7,84.4,705.9z"/>
		<path fill="#B4601A" d="M70.9,715.801c0,0.103,0,0.199,0,0.3l1.4,2.602c0.101,0.101,0.2,0.2,0.4,0.2c0.1,0,0.1,0,0.199-0.103
			l9.801-5.2c0.199-0.101,0.3-0.397,0.199-0.601l-1.301-2.6c-0.1-0.103-0.199-0.2-0.3-0.2c-0.1,0-0.2,0-0.3,0l-9.801,5.2
			C71,715.6,70.9,715.6,70.9,715.801z"/>
	</g>
</g>
<path id="path4552_20_" fill="#B4601A" d="M25,680.6c-13.8,0-25,11.2-25,25c0,13.803,11.2,25,25,25s25-11.197,25-25
	C50,691.801,38.8,680.6,25,680.6 M25,729.7C11.7,729.7,0.9,718.9,0.9,705.597c0-13.3,10.801-24.101,24.101-24.101
	s24.1,10.801,24.1,24.101C49.1,718.9,38.3,729.7,25,729.7"/>
<g>
	<path fill="#B4601A" d="M36.3,716.6c0.5-0.5,0.7-1.101,0.7-1.8c0-0.7-0.3-1.301-0.7-1.801l-12.4-12.5L24,700.2
		c0.899-2.5,0.3-5.2-1.601-7.103c-1.301-1.3-3-2-4.801-2c-0.5,0-0.898,0-1.398,0.103l4.1,4.101v3.103l-2.2,2.197H15l-4.101-4.1
		c-0.5,2.199,0.199,4.5,1.801,6.199c1.3,1.301,3,2,4.8,2c0.8,0,1.6-0.103,2.3-0.399l0.4-0.101L32.6,716.6
		c0.5,0.5,1.102,0.7,1.801,0.7C35.2,717.301,35.9,717.1,36.3,716.6z"/>
</g>
<polygon fill="#B4601A" points="28.2,714.1 19.4,705.301 14.1,705.301 11.5,707.801 22.6,719.5 "/>
<polygon fill="#B4601A" points="25.7,700.4 34,708.6 36.6,706.2 38.8,698.5 33.3,692.6 25.4,694.6 "/>
<circle fill="#FFFFFF" cx="33.8" cy="697.3" r="1.2"/>
<g>
	<circle fill="#B4601A" cx="661" cy="503.7" r="25"/>
	<g>
		<path fill="#FFFFFF" d="M661.699,494.301V513.7l0,0c0,0,2.301-2.5,5.601-2.899c0.5-0.101,1.103-0.101,1.603-0.101
			c2.8,0,4.897,0.8,4.897,0.8c0.3,0.101,0.7,0.101,0.899-0.1c0.301-0.2,0.397-0.5,0.397-0.803V494c0-0.399-0.3-0.8-0.697-1
			c-0.103,0-2.5-0.899-5.603-0.899c-0.601,0-1.2,0-1.801,0.102C664.8,492.301,662.9,493.4,661.699,494.301L661.699,494.301z"/>
		<path fill="#FFFFFF" d="M646.699,493.801V510.5c0,0.301,0.2,0.601,0.397,0.801c0.303,0.199,0.603,0.199,0.899,0.103
			c0,0,2.101-0.803,4.9-0.803c0.5,0,1.1,0,1.6,0.103c3.4,0.397,5.601,2.897,5.601,2.897l0,0v-19.4c-1.197-0.899-3-2-5.397-2.2
			c-0.603-0.1-1.199-0.1-1.8-0.1c-3.103,0-5.5,0.898-5.603,0.898C647,493,646.699,493.4,646.699,493.801z"/>
	</g>
</g>
<g>
	<g>
		<path d="M726.1,479.7c13.2,0,24,10.8,24,24s-10.8,24-24,24c-13.197,0-24-10.8-24-24S712.8,479.7,726.1,479.7 M726.1,478.7
			c-13.8,0-25,11.2-25,25s11.2,25,25,25c13.803,0,25-11.2,25-25S739.9,478.7,726.1,478.7L726.1,478.7z"/>
	</g>
	<g>
		<path d="M725.3,495.301c-1.2-0.898-3-2-5.397-2.2C719.3,493,718.702,493,718.1,493c-3.1,0-5.5,0.9-5.6,0.9c-0.4,0.1-0.7,0.5-0.7,1
			v16.6c0,0.301,0.2,0.601,0.399,0.801c0.301,0.199,0.601,0.199,0.897,0.103c0,0,2.103-0.803,4.899-0.803c0.5,0,1.101,0,1.601,0.103
			c3.399,0.397,5.603,2.897,5.603,2.897l0,0L725.3,495.301L725.3,495.301L725.3,495.301z"/>
		<path d="M739.699,493.9c-0.103,0-2.5-0.9-5.603-0.9c-0.601,0-1.197,0-1.8,0.101c-2.301,0.302-4.2,1.302-5.397,2.2V514.7l0,0
			c0,0,2.197-2.5,5.601-2.899c0.5-0.101,1.1-0.101,1.6-0.101c2.7,0,4.9,0.8,4.9,0.8c0.3,0.101,0.699,0.101,0.899-0.1
			c0.197-0.2,0.397-0.5,0.397-0.803V495C740.3,494.4,740.1,494,739.699,493.9z"/>
	</g>
</g>
<g>
	<circle fill="#B4601A" cx="788.6" cy="502.801" r="25"/>
	<g>
		<path fill="#FFFFFF" d="M789.6,493.7c0,0,0.103,0,0.103-0.102h6.397l-4.197,7c-0.2,0.399-0.103,0.899,0.3,1.103
			c0.397,0.2,0.897,0.101,1.101-0.3l4.199-7l4.2,7c0.101,0.197,0.397,0.397,0.7,0.397c0.1,0,0.3,0,0.397-0.101
			c0.399-0.2,0.5-0.7,0.3-1.103l-4.8-8.101l0,0v-0.1l0,0c-0.101-0.102-0.101-0.2-0.301-0.302l0,0
			c-0.1-0.101-0.199-0.101-0.399-0.101h-6.9c0-0.1,0-0.1,0-0.1c0-1.103-0.899-2.103-2.103-2.103c-1.101,0-2.101,0.9-2.101,2.103
			c0,0.1,0,0.1,0,0.1h-6.899c-0.101,0-0.3,0-0.397,0.101l0,0c-0.103,0.102-0.199,0.102-0.301,0.302l0,0v0.1l0,0l-4.802,8.101
			c-0.198,0.399-0.101,0.899,0.302,1.103c0.398,0.2,0.898,0.101,1.102-0.3l4.198-7l4.2,7c0.102,0.197,0.398,0.397,0.698,0.397
			c0.102,0,0.302,0,0.399-0.101c0.398-0.2,0.5-0.7,0.301-1.103l-4.2-7h6.399c0,0,0.101,0,0.101,0.102v18.5
			c-3.3,0.2-6.398,1.101-9.101,2.601v1h20.199v-1c-2.699-1.5-5.801-2.397-9.102-2.601V493.7H789.6L789.6,493.7z"/>
		<path fill="#FFFFFF" d="M785.8,503.2c0-0.3-0.2-0.5-0.5-0.5h-11.2c-0.3,0-0.5,0.2-0.5,0.5c0,3.397,2.7,6.101,6.103,6.101
			C783,509.301,785.8,506.5,785.8,503.2z"/>
		<path fill="#FFFFFF" d="M803.1,502.7H792c-0.301,0-0.5,0.2-0.5,0.5c0,3.397,2.699,6.101,6.1,6.101s6.103-2.7,6.103-6.101
			C803.6,502.9,803.4,502.7,803.1,502.7z"/>
	</g>
</g>
<g>
	<g>
		<path d="M852.699,479.801c13.2,0,24,10.8,24,24c0,13.199-10.8,24-24,24c-13.199,0-24-10.801-24-24
			C828.699,490.6,839.5,479.801,852.699,479.801 M852.699,478.801c-13.8,0-25,11.199-25,25c0,13.8,11.2,25,25,25
			c13.801,0,25-11.2,25-25C877.8,490,866.6,478.801,852.699,478.801L852.699,478.801z"/>
	</g>
	<g>
		<path d="M853.8,494.7c0,0,0.103,0,0.103-0.102h6.397l-4.2,7c-0.197,0.399-0.1,0.899,0.303,1.103c0.397,0.2,0.897,0.101,1.1-0.3
			l4.2-7l4.2,7c0.1,0.197,0.397,0.397,0.697,0.397c0.103,0,0.303,0,0.4-0.101c0.399-0.2,0.5-0.7,0.3-1.103l-4.8-8.101l0,0v-0.1l0,0
			c-0.101-0.102-0.2-0.2-0.301-0.302l0,0c-0.103-0.101-0.199-0.101-0.399-0.101h-6.9v-0.1c0-1.103-0.899-2.103-2.103-2.103
			c-1.101,0-2.101,0.9-2.101,2.103c0,0.1,0,0.1,0,0.1h-6.899c-0.101,0-0.301,0-0.397,0.101l0,0c-0.103,0.102-0.2,0.102-0.303,0.302
			l0,0v0.1l0,0l-4.8,8.101c-0.2,0.399-0.101,0.899,0.3,1.103c0.399,0.2,0.899,0.101,1.103-0.3l4.199-7l4.198,7
			c0.102,0.197,0.399,0.397,0.7,0.397c0.102,0,0.3,0,0.398-0.101c0.398-0.2,0.5-0.7,0.301-1.103l-4.199-7h6.399
			c0,0,0.101,0,0.101,0.102v18.5c-3.301,0.2-6.398,1.101-9.101,2.601v1h20.198v-1c-2.698-1.5-5.801-2.397-9.101-2.601V494.7H853.8
			L853.8,494.7z"/>
		<path d="M849.9,504.2c0-0.3-0.2-0.5-0.5-0.5h-11.2c-0.3,0-0.5,0.2-0.5,0.5c0,3.397,2.7,6.101,6.101,6.101
			C847.199,510.301,849.9,507.6,849.9,504.2z"/>
		<path d="M867.3,503.7h-11.2c-0.3,0-0.5,0.2-0.5,0.5c0,3.397,2.7,6.101,6.103,6.101c3.397,0,6.101-2.7,6.101-6.101
			C867.8,503.9,867.5,503.7,867.3,503.7z"/>
	</g>
</g>
<circle fill="#FFFFFF" stroke="#B4601A" stroke-miterlimit="10" cx="129.3" cy="690.6" r="9.9"/>
<circle fill="#FFFFFF" stroke="#B3B3B3" stroke-miterlimit="10" cx="151.5" cy="690.6" r="9.9"/>
<circle fill="#DF0A22" cx="129.4" cy="686.9" r="0.9"/>
<line fill="none" stroke="#B4601A" stroke-miterlimit="10" x1="129.3" y1="688.5" x2="129.3" y2="695.1"/>
<circle fill="#B3B3B3" cx="151.4" cy="686.9" r="0.9"/>
<line fill="none" stroke="#B3B3B3" stroke-miterlimit="10" x1="151.4" y1="688.5" x2="151.4" y2="695.1"/>
<g id="Layer_1_2_" xmlns:svg="http://www.w3.org/2000/svg" xmlns:inkscape="http://www.inkscape.org/namespaces/inkscape" xmlns:cc="http://creativecommons.org/ns#" xmlns:rdf="http://www.w3.org/1999/02/22-rdf-syntax-ns#" xmlns:sodipodi="http://sodipodi.sourceforge.net/DTD/sodipodi-0.dtd" xmlns:dc="http://purl.org/dc/elements/1.1/" sodipodi:docname="icons.svg" inkscape:version="0.48.5 r10040">
	<g>
		<polygon id="SVGID_1_" fill="#B4601A" points="281.9,315.4 283.6,317.1 275,325.6 266.5,317.1 268.1,315.4 275,322.3 		"/>
	</g>
</g>
<g>
	<g>
		<g>
			<g>
				<g>
					<g>
						<g>
							<g>
								<path id="SVGID_7_" fill="#DF0A22" d="M224.7,694.4L224.7,694.4l-4.5-3.9v2.301c0,0.8-0.801,1.603-1.5,1.603H217.9h-8.3
									h-0.8c-0.8,0-1.5-0.803-1.5-1.603V692v-9.3v-0.8c0-0.803,0.8-1.603,1.5-1.603h0.8h8.301h0.801c0.8,0,1.5,0.8,1.5,1.603v3.1
									l4.5-4.699c0,0,0.8,0.8,0.8,1.603V693.6L224.7,694.4z"/>
							</g>
							<g>
								<g>
									<g>
										<defs>
											<path id="SVGID_8_" d="M224.7,694.4L224.7,694.4l-4.5-3.9v2.301c0,0.8-0.801,1.603-1.5,1.603H217.9h-8.3h-0.8
												c-0.8,0-1.5-0.803-1.5-1.603V692v-9.3v-0.8c0-0.803,0.8-1.603,1.5-1.603h0.8h8.301h0.801c0.8,0,1.5,0.8,1.5,1.603v3.1
												l4.5-4.699c0,0,0.8,0.8,0.8,1.603V693.6L224.7,694.4z"/>
										</defs>
										<clipPath id="SVGID_10_">
											<use xlink:href="#SVGID_8_"  overflow="visible"/>
										</clipPath>
										<g clip-path="url(#SVGID_10_)">
											<rect x="202.4" y="675.5" fill="#B4601A" width="28" height="24"/>
										</g>
									</g>
								</g>
							</g>
						</g>
					</g>
				</g>
			</g>
		</g>
	</g>
</g>
<g>
	<g>
		<g>
			<g>
				<g>
					<g>
						<g>
							<g>
								<path id="SVGID_9_" fill="#717171" d="M184.4,688.4c0.101-0.2,0.399-0.2,0.601-0.103l2.2,1.399
									c0.199,0.101,0.398,0.101,0.6-0.103l2.7-3.5c0.1-0.197,0.3-0.197,0.399,0l3.301,6.7c0.1,0.199,0,0.399-0.2,0.399h-12.9
									c-0.199,0-0.3-0.103-0.1-0.3L184.4,688.4z M184.3,684.7c0,0.7-0.5,1.3-1.2,1.3c-0.6,0-1.199-0.6-1.199-1.3
									s0.5-1.3,1.199-1.3C183.8,683.4,184.3,683.9,184.3,684.7z M195.3,694.2H180v-12.1h15.3V694.2z M195.6,680.4h-16.1
									c-0.5,0-1,0.5-1,1v12.8c0,0.601,0.399,1,1,1h16.1c0.5,0,1-0.5,1-1v-12.7C196.6,680.9,196.2,680.4,195.6,680.4z"/>
							</g>
							<g>
								<g>
									<path id="SVGID_11_" fill="#717171" d="M184.4,688.4c0.101-0.2,0.399-0.2,0.601-0.103l2.2,1.399
										c0.199,0.101,0.398,0.101,0.6-0.103l2.7-3.5c0.1-0.197,0.3-0.197,0.399,0l3.301,6.7c0.1,0.199,0,0.399-0.2,0.399h-12.9
										c-0.199,0-0.3-0.103-0.1-0.3L184.4,688.4z M184.3,684.7c0,0.7-0.5,1.3-1.2,1.3c-0.6,0-1.199-0.6-1.199-1.3
										s0.5-1.3,1.199-1.3C183.8,683.4,184.3,683.9,184.3,684.7z M195.3,694.2H180v-12.1h15.3V694.2z M195.6,680.4h-16.1
										c-0.5,0-1,0.5-1,1v12.8c0,0.601,0.399,1,1,1h16.1c0.5,0,1-0.5,1-1v-12.7C196.6,680.9,196.2,680.4,195.6,680.4z"/>
								</g>
								<g>
									<g>
										<defs>
											<path id="SVGID_12_" d="M184.4,688.4c0.101-0.2,0.399-0.2,0.601-0.103l2.2,1.399c0.199,0.101,0.398,0.101,0.6-0.103
												l2.7-3.5c0.1-0.197,0.3-0.197,0.399,0l3.301,6.7c0.1,0.199,0,0.399-0.2,0.399h-12.9c-0.199,0-0.3-0.103-0.1-0.3
												L184.4,688.4z M184.3,684.7c0,0.7-0.5,1.3-1.2,1.3c-0.6,0-1.199-0.6-1.199-1.3s0.5-1.3,1.199-1.3
												C183.8,683.4,184.3,683.9,184.3,684.7z M195.3,694.2H180v-12.1h15.3V694.2z M195.6,680.4h-16.1c-0.5,0-1,0.5-1,1v12.8
												c0,0.601,0.399,1,1,1h16.1c0.5,0,1-0.5,1-1v-12.7C196.6,680.9,196.2,680.4,195.6,680.4z"/>
										</defs>
										<clipPath id="SVGID_13_">
											<use xlink:href="#SVGID_12_"  overflow="visible"/>
										</clipPath>
										<g clip-path="url(#SVGID_13_)">
											<rect x="173.6" y="675.4" fill="#717171" width="28" height="24.897"/>
										</g>
									</g>
								</g>
							</g>
						</g>
					</g>
				</g>
			</g>
		</g>
	</g>
</g>
<g enable-background="new    ">
	<g>
		<g>
			<g>
				<g>
					<g>
						<g>
							<g>
								<g>
									<defs>
										<rect id="SVGID_14_" x="234.1" y="680.2" width="25" height="22"/>
									</defs>
									<clipPath id="SVGID_15_">
										<use xlink:href="#SVGID_14_"  overflow="visible"/>
									</clipPath>
									
										<line clip-path="url(#SVGID_15_)" fill="none" stroke="#979797" stroke-linecap="square" stroke-miterlimit="10" x1="236.1" y1="680.301" x2="258.1" y2="702.301"/>
								</g>
							</g>
						</g>
					</g>
				</g>
				<g>
					<g>
						<g>
							<g>
								<g>
									<defs>
										<rect id="SVGID_16_" x="234.1" y="680.2" width="25" height="22"/>
									</defs>
									<clipPath id="SVGID_17_">
										<use xlink:href="#SVGID_16_"  overflow="visible"/>
									</clipPath>
									
										<line clip-path="url(#SVGID_17_)" fill="none" stroke="#979797" stroke-linecap="square" stroke-miterlimit="10" x1="257.1" y1="680.301" x2="235.1" y2="702.301"/>
								</g>
							</g>
						</g>
					</g>
				</g>
			</g>
		</g>
	</g>
</g>
<g>
	<circle fill="none" stroke="#B4601A" stroke-width="2" stroke-miterlimit="10" cx="287.7" cy="693.6" r="13"/>
</g>
<g>
	<g>
		<path fill="#B4601A" d="M286.1,689.6l5.4,4.103l-5.4,4.2v-4.2V689.6 M284.6,686.6v2.2v5v5.103v2.101l9.4-7.2L284.6,686.6
			L284.6,686.6z"/>
	</g>
</g>
<g>
	<path fill="#B4601A" d="M815.488,90.365C815.488,90.365,815.488,90.225,815.488,90.365c0-0.141,0-0.28,0.141-0.28c0,0,0,0,0-0.139
		l0.14-0.141c0,0,0,0,0.14-0.141l0,0c0,0,0.142,0,0.142-0.14c0,0,0,0,0.14,0l0,0h0.14h0.142h0.141h0.142h0.14c0,0,0.14,0,0.14,0.14
		l0,0l22.503,20.405c0.279,0.28,0.419,0.699,0.14,0.979c-0.14,0.28-0.419,0.42-0.698,0.42c-0.14,0-0.14,0-0.278,0l-11.881-3.215
		l-3.215,11.879c-0.141,0.42-0.419,0.699-0.839,0.699l0,0c-0.418,0-0.697-0.279-0.839-0.699L815.488,90.365L815.488,90.365
		C815.488,90.504,815.488,90.365,815.488,90.365z"/>
	<path id="path4552_22_" fill="#B4601A" d="M800.653,105.18c0,13.801,11.2,25,25,25s25-11.199,25-25s-11.2-25-25-25
		S800.653,91.38,800.653,105.18 M849.752,105.18c0,13.301-10.8,24.101-24.1,24.101s-24.101-10.8-24.101-24.101
		s10.801-24.101,24.101-24.101S849.752,91.88,849.752,105.18"/>
</g>
<path fill="#B4601A" d="M518.487,105.18c0,13.801,11.2,25,25,25s25-11.199,25-25s-11.2-25-25-25S518.487,91.38,518.487,105.18z
	 M533.322,90.365c0-0.141,0-0.28,0.141-0.28c0,0,0,0,0-0.139l0.14-0.141c0,0,0,0,0.14-0.141c0,0,0.142,0,0.142-0.14c0,0,0,0,0.141,0
	h0.139h0.142h0.141h0.142h0.14c0,0,0.14,0,0.14,0.14l22.503,20.405c0.279,0.28,0.419,0.699,0.14,0.979
	c-0.14,0.28-0.419,0.42-0.698,0.42c-0.14,0-0.14,0-0.278,0l-11.881-3.215l-3.215,11.879c-0.14,0.42-0.419,0.699-0.839,0.699
	c-0.418,0-0.697-0.279-0.839-0.699L533.322,90.365z"/>
<g>
	<path fill="#FFFFFF" d="M475.488,89.865C475.488,89.865,475.488,89.725,475.488,89.865c0-0.141,0-0.28,0.141-0.28c0,0,0,0,0-0.139
		l0.14-0.141c0,0,0,0,0.14-0.141l0,0c0,0,0.142,0,0.142-0.14c0,0,0,0,0.141,0l0,0h0.139h0.142h0.141h0.142h0.14
		c0,0,0.14,0,0.14,0.14l0,0l22.503,20.405c0.279,0.28,0.419,0.699,0.14,0.979c-0.14,0.28-0.419,0.42-0.698,0.42
		c-0.14,0-0.14,0-0.278,0l-11.88-3.215l-3.216,11.879c-0.14,0.42-0.419,0.699-0.839,0.699l0,0c-0.418,0-0.696-0.279-0.839-0.699
		L475.488,89.865L475.488,89.865C475.488,90.004,475.488,89.865,475.488,89.865z"/>
	<path id="path4552_1_" fill="#FFFFFF" d="M460.653,104.68c0,13.801,11.2,25,25,25s25-11.199,25-25s-11.2-25-25-25
		S460.653,90.88,460.653,104.68 M509.753,104.68c0,13.301-10.801,24.101-24.101,24.101c-13.301,0-24.101-10.8-24.101-24.101
		s10.8-24.101,24.101-24.101C498.952,80.58,509.753,91.38,509.753,104.68"/>
</g>
<path fill="#FFFFFF" d="M51.987,168.68c0,13.801,11.2,25,25,25c13.801,0,25-11.199,25-25s-11.199-25-25-25
	C63.187,143.68,51.987,154.88,51.987,168.68z M66.822,153.865c0-0.141,0-0.28,0.141-0.28c0,0,0,0,0-0.139l0.14-0.141
	c0,0,0,0,0.14-0.141c0,0,0.141,0,0.141-0.14c0,0,0,0,0.14,0h0.14H67.8h0.14h0.142h0.14c0,0,0.139,0,0.139,0.14l22.503,20.405
	c0.28,0.28,0.419,0.699,0.14,0.979c-0.14,0.28-0.419,0.42-0.698,0.42c-0.14,0-0.14,0-0.279,0l-11.88-3.215l-3.215,11.879
	c-0.14,0.42-0.419,0.699-0.839,0.699c-0.418,0-0.697-0.279-0.839-0.699L66.822,153.865z"/>
<path fill="#B4601A" d="M440.987,505.68c0,13.802,11.2,25,25,25s25-11.198,25-25c0-13.8-11.2-25-25-25
	S440.987,491.881,440.987,505.68z M455.822,490.865c0-0.142,0-0.279,0.141-0.279c0,0,0,0,0-0.14l0.14-0.142c0,0,0,0,0.14-0.141
	c0,0,0.142,0,0.142-0.14c0,0,0,0,0.141,0h0.139h0.142h0.141h0.142h0.14c0,0,0.14,0,0.14,0.14l22.503,20.405
	c0.279,0.279,0.419,0.697,0.14,0.979c-0.14,0.279-0.419,0.419-0.698,0.419c-0.14,0-0.14,0-0.278,0l-11.88-3.215l-3.216,11.88
	c-0.14,0.419-0.419,0.698-0.839,0.698c-0.418,0-0.696-0.279-0.839-0.698L455.822,490.865z"/>
<g>
	<path d="M520.8,494.6L520.8,494.6l4.603,21.302c0.101,0.3,0.3,0.5,0.601,0.5l0,0c0.3,0,0.5-0.2,0.6-0.4l2.303-8.5l8.5,2.301
		c0.101,0,0.101,0,0.197,0c0.2,0,0.4-0.101,0.5-0.301c0.103-0.199,0.103-0.6-0.1-0.699l-16.101-14.601l0,0c0,0-0.103,0-0.103-0.102
		h-0.101h-0.1h-0.1H521.4h-0.1l0,0c0,0,0,0-0.101,0c0,0-0.102,0-0.102,0.102l0,0c0,0,0,0-0.102,0.101l-0.1,0.102c0,0,0,0,0,0.101
		v0.1c0,0,0,0,0,0.102C520.8,494.5,520.8,494.5,520.8,494.6z"/>
	<g>
		<path d="M528.5,481.1c13.199,0,24,10.802,24,24c0,13.2-10.801,24-24,24c-13.2,0-24-10.8-24-24S515.199,481.1,528.5,481.1
			 M528.5,480.1c-13.801,0-25,11.2-25,25c0,13.802,11.199,25,25,25c13.8,0,25-11.198,25-25C553.5,491.301,542.3,480.1,528.5,480.1
			L528.5,480.1z"/>
	</g>
</g>
<image overflow="visible" enable-background="new    " width="32" height="32" xlink:href="../../phone.png"  transform="matrix(-1 0 0 1 165.0012 579.9998)">
</image>
<rect id="rect4568_1_" x="244.5" y="0.101" opacity="0.5" fill="#231F20" width="50" height="56"/>
<polygon id="polygon4570_1_" fill="#FFFFFF" points="261.1,42.101 262.3,43.401 278.2,27.401 262,11.2 260.8,12.401 275.7,27.401 
	"/>
<circle id="circle4736_8_" cx="321.401" cy="684" r="3.4"/>
<circle id="circle4738_3_" cx="328.15" cy="694" r="3.4"/>
<circle id="circle4740_3_" cx="334.901" cy="684" r="3.4"/>
<circle id="circle4736_9_" fill="#FFFFFF" cx="363.401" cy="684" r="3.4"/>
<circle id="circle4738_2_" fill="#FFFFFF" cx="370.15" cy="694" r="3.4"/>
<circle id="circle4740_2_" fill="#FFFFFF" cx="376.901" cy="684" r="3.4"/>
</svg>
