<?xml version="1.0" encoding="utf-8"?>
<!-- Generator: Adobe Illustrator 15.1.0, SVG Export Plug-In . SVG Version: 6.00 Build 0)  -->
<!DOCTYPE svg PUBLIC "-//W3C//DTD SVG 1.1//EN" "http://www.w3.org/Graphics/SVG/1.1/DTD/svg11.dtd">
<svg version="1.1"
	 id="Layer_1" xmlns:dc="http://purl.org/dc/elements/1.1/" xmlns:cc="http://creativecommons.org/ns#" xmlns:rdf="http://www.w3.org/1999/02/22-rdf-syntax-ns#" xmlns:svg="http://www.w3.org/2000/svg" xmlns:sodipodi="http://sodipodi.sourceforge.net/DTD/sodipodi-0.dtd" xmlns:inkscape="http://www.inkscape.org/namespaces/inkscape" inkscape:version="0.48.5 r10040" sodipodi:docname="icons-rtl.svg"
	 xmlns="http://www.w3.org/2000/svg" xmlns:xlink="http://www.w3.org/1999/xlink" x="0px" y="0px" width="1000px" height="1000px"
	 viewBox="0 0 1000 1000" enable-background="new 0 0 1000 1000" xml:space="preserve">
<sodipodi:namedview  id="namedview3771" borderopacity="1" gridtolerance="10" pagecolor="#ffffff" guidetolerance="10" inkscape:zoom="1" bordercolor="#666666" objecttolerance="10" inkscape:cy="729.26903" showgrid="false" inkscape:cx="380.5" inkscape:window-x="1912" inkscape:window-height="961" inkscape:current-layer="Layer_1" inkscape:pageopacity="0" inkscape:window-width="1280" inkscape:pageshadow="2" inkscape:window-y="-8" inkscape:window-maximized="1">
	</sodipodi:namedview>
<path id="path3511" fill="#DF0A22" d="M144.6,91.3c-5.199,0-9.399,4.2-9.399,9.4c0,5.2,4.2,9.4,9.399,9.4c5.2,0,9.4-4.2,9.4-9.4
	C154,95.5,149.7,91.3,144.6,91.3 M144.6,106.2c-3,0-5.5-2.5-5.5-5.5s2.5-5.5,5.5-5.5s5.5,2.4,5.5,5.5
	C150.1,103.7,147.6,106.2,144.6,106.2"/>
<rect id="rect3513" x="130.99" y="104.459" transform="matrix(0.7068 0.7074 -0.7074 0.7068 118.2666 -61.6354)" fill="#DF0A22" width="5" height="14.8"/>
<g id="g3517">
	<path id="path3519" fill="#DF0A22" d="M202.2,95.2c-3,0-5.5,2.4-5.5,5.5c0,3,2.5,5.5,5.5,5.5s5.5-2.5,5.5-5.5
		S205.2,95.2,202.2,95.2"/>
	<path id="path3521" fill="#DF0A22" d="M197.8,80.1c-13.7,0-24.899,11.1-24.899,24.9s11.1,24.9,24.899,24.9
		c13.7,0,24.9-11.1,24.9-24.9S211.5,80.1,197.8,80.1 M184,115.3l10-10c-0.8-1.4-1.2-2.9-1.2-4.6c0-5.2,4.2-9.4,9.4-9.4
		s9.399,4.2,9.399,9.4c0,5.2-4.199,9.4-9.399,9.4c-1.7,0-3.2-0.4-4.601-1.2l-10,10L184,115.3z"/>
</g>
<path id="path3525" fill="#DF0A22" d="M27.9,102.3V90.1h-5.7v12.2H10v5.7h12.2v12.2h5.7V108H40.1v-5.7H27.9L27.9,102.3z M39.1,107
	H26.9v12.2h-3.7V107H11v-3.7h12.2V91.1h3.7v12.2H39.1V107L39.1,107z"/>
<path id="path3527" fill="#DF0A22" d="M25,80.1c-13.8,0-25,11.3-25,25c0,13.8,11.2,25,25,25s25-11.2,25-25
	C50,91.4,38.8,80.1,25,80.1 M25,129.2c-13.3,0-24.1-10.8-24.1-24.1C0.9,91.8,11.7,81,25,81s24.1,10.8,24.1,24.1
	C49.1,118.5,38.3,129.2,25,129.2"/>
<g id="g3529">
	<polygon id="polygon3531" fill="#DF0A22" points="27.9,226.3 27.9,214.1 22.2,214.1 22.2,226.3 10,226.3 10,232 22.2,232 
		22.2,244.2 27.9,244.2 27.9,232 40.1,232 40.1,226.3 	"/>
	<path id="path3533" fill="#DF0A22" d="M25.1,204.2c-13.8,0-25,11.2-25,25c0,13.8,11.2,25,25,25c13.801,0,25-11.2,25-25
		C50.1,215.4,38.8,204.2,25.1,204.2 M25.1,253.2C11.8,253.2,1,242.4,1,229.1C1,215.8,11.8,205,25.1,205
		C38.4,205,49.2,215.8,49.2,229.1C49.1,242.5,38.3,253.2,25.1,253.2"/>
</g>
<path id="path3537" fill="#DF0A22" d="M241.4,112.9c-0.301,1,0,2.4,0.699,3.1l2,2c0.4,0.4,1.4,0.6,1.4,0.6c6.4,0.1,12.5-2.4,17-6.9
	s7-10.6,6.9-17c0,0-0.2-1-0.601-1.4l-2-2c-0.7-0.7-2.1-1.1-3.1-0.7l-0.4,0.1c-1,0.3-2,1.4-2.3,2.4l-1,3.7c-0.3,1,0.1,2.4,0.8,3.2
	l1.3,1.3c-1.3,4.9-5.1,8.7-10,10l-1.3-1.3c-0.7-0.7-2.2-1.1-3.2-0.8l-3.699,1c-1,0.3-2.101,1.3-2.4,2.3L241.4,112.9"/>
<path id="path3543" fill="#FFFFFF" d="M299,112.9c-0.3,1,0,2.4,0.7,3.1l2,2c0.399,0.4,1.399,0.6,1.399,0.6c6.4,0.1,12.5-2.4,17-6.9
	s7-10.6,6.9-17c0,0-0.2-1-0.6-1.4l-2-2c-0.7-0.7-2.101-1.1-3.101-0.7l-0.399,0.1c-1,0.3-2,1.4-2.301,2.4l-1,3.7
	c-0.3,1,0.101,2.4,0.801,3.2l1.399,1.3c-1.3,4.9-5.1,8.7-10,10l-1.3-1.3c-0.7-0.7-2.2-1.1-3.2-0.8l-3.7,1c-1,0.3-2.1,1.3-2.399,2.3
	L299,112.9"/>
<path id="path3551" fill="#DF0A22" d="M367.9,99.3c0.199,0,0.3,0,0.5,0.1c0.8,0.1,1.6,0.1,2.399,0.2c4.101,0.6,7.4,2.5,9.8,5.9
	c1.9,2.6,2.9,5.6,3.4,8.8c0.1,0.7,0.2,1.5,0.3,2.2c-0.899-3.8-3.399-6.2-6.8-7.7c-2.3-1-4.8-1.4-7.4-1.6c-0.699,0-1.399,0-2.1,0v8
	c-4-4-8-8-11.9-11.9c3.9-3.9,7.9-7.9,11.9-11.9L367.9,99.3"/>
<g id="g3553">
	<path id="path3555" fill="#DF0A22" d="M428.2,80.1c-13.8,0-25,11.2-25,25c0,13.8,11.2,25,25,25s25-11.2,25-25
		C453.2,91.3,442,80.1,428.2,80.1 M425.4,115c-4-4-8-8-11.9-11.9c3.9-3.9,7.9-7.9,11.9-11.9v8.1c0.199,0,0.3,0,0.5,0.1
		c0.8,0.1,1.6,0.1,2.3,0.2c4.1,0.6,7.399,2.5,9.8,5.9c1.9,2.6,2.9,5.6,3.4,8.8c0.1,0.7,0.199,1.5,0.3,2.2c-0.9-3.8-3.4-6.2-6.8-7.7
		c-2.301-1-4.801-1.4-7.4-1.6c-0.7,0-1.4,0-2.1,0V115"/>
</g>
<polygon id="polygon3559" fill="#FFFFFF" points="600.9,109.5 586.6,100 586.6,113.8 615.1,113.8 615.1,100 "/>
<polygon id="polygon3561" fill="#FFFFFF" points="586.8,96.3 600.9,105.6 614.9,96.3 "/>
<g id="g3565">
	<path id="path3567" fill="#DF0A22" d="M658.5,80.1c-13.8,0-25,11.2-25,25c0,13.8,11.2,25,25,25s25-11.2,25-25
		C683.5,91.3,672.3,80.1,658.5,80.1 M672.5,96.3l-14,9.4l-14-9.4H672.5L672.5,96.3z M672.7,113.8h-28.5V100l14.2,9.5L672.6,100
		L672.7,113.8L672.7,113.8z"/>
</g>
<polygon id="polygon3571" fill="#FFFFFF" points="472.4,104.2 476.2,100.4 483.8,108.2 483.8,121.4 489.3,121.4 489.3,105.9 
	480.1,96.5 484,92.6 472.4,92.6 "/>
<polygon id="polygon3573" fill="#FFFFFF" points="491.2,103.9 499.2,95.9 495.7,92.4 487.7,100.4 "/>
<g id="g3577">
	<path id="path3579" fill="#DF0A22" d="M543.3,80.1c-13.8,0-25,11.2-25,25c0,13.8,11.2,25,25,25s25-11.2,25-25
		C568.3,91.3,557.2,80.1,543.3,80.1 M548.8,103.9l-3.5-3.5l8-8l3.5,3.5L548.8,103.9z M529.9,104.2V92.6h11.6l-3.9,3.9l9.2,9.5v15.5
		h-5.5v-13.2l-7.6-7.8L529.9,104.2L529.9,104.2z"/>
</g>
<polygon id="polygon3583" fill="none" stroke="#FFFFFF" stroke-miterlimit="10" points="706.7,105.4 720.9,94.7 720.9,116 "/>
<rect id="rect3591" x="868.1" y="104" fill="#DF0A22" width="27.301" height="2.3"/>
<polygon id="polygon3597" fill="#DF0A22" points="952.9,104.2 940.4,104.2 940.4,91.7 938.1,91.7 938.1,104.2 925.7,104.2 
	925.7,106.5 938.1,106.5 938.1,118.9 940.4,118.9 940.4,106.5 952.9,106.5 "/>
<path id="path3601" fill="#FFFFFF" d="M389.1,25L406.4,42.3l4.399-4.4L397.9,25L410.6,12.3L406.2,7.9L389.1,25z M406.4,41.2
	L390.2,25l16-16l3.3,3.3L396.8,25l12.9,12.9L406.4,41.2z"/>
<path id="path3603" fill="#FFFFFF" d="M400.6,0.1c-13.8,0-25,11.2-25,25c0,13.8,11.2,25,25,25c13.801,0,25-11.2,25-25
	C425.6,11.3,414.4,0.1,400.6,0.1 M400.6,49.2c-13.3,0-24.1-10.8-24.1-24.1c0-13.3,10.8-24.1,24.1-24.1
	C413.9,1,424.7,11.8,424.7,25.1C424.7,38.4,413.9,49.2,400.6,49.2"/>
<path id="path3605" fill="#DF0A22" d="M462,0.1c-13.8,0-25,11.2-25,25c0,13.8,11.2,25,25,25s25-11.2,25-25
	C487,11.3,475.8,0.1,462,0.1 M462,49.2c-13.3,0-24.1-10.8-24.1-24.1C437.9,11.8,448.7,1,462,1s24.1,10.8,24.1,24.1
	C486.1,38.4,475.3,49.2,462,49.2"/>
<path id="path3607" fill="#DF0A22" d="M450.7,25L468,42.3l4.4-4.4L459.5,25l12.7-12.7l-4.4-4.4L450.7,25z M468,41.2L451.8,25l16-16
	l3.3,3.3L458.4,25L471.3,37.9L468,41.2z"/>
<polygon id="polygon3611" fill="#FFFFFF" points="23.8,25.4 31.7,33.2 28.4,36.5 17.2,25.3 28.2,14.4 31.5,17.7 "/>
<path id="path3613" fill="#FFFFFF" d="M78,0.1c-13.8,0-25,11.2-25,25c0,13.8,11.2,25,25,25s25-11.2,25-25C103,11.3,91.8,0.1,78,0.1
	 M70.2,25.3l11-11l3.3,3.3l-7.7,7.7l7.9,7.9l-3.3,3.3L70.2,25.3z"/>
<polygon id="polygon3617" fill="#DF0A22" points="523.8,25.4 531.7,33.2 528.4,36.5 517.2,25.3 528.2,14.4 531.5,17.7 "/>
<path id="path3619" fill="#DF0A22" d="M578,0.1c-13.8,0-25,11.2-25,25c0,13.8,11.2,25,25,25s25-11.2,25-25
	C603,11.3,591.8,0.1,578,0.1 M570.2,25.3l11-11l3.3,3.3l-7.7,7.7l7.9,7.9l-3.3,3.3L570.2,25.3z"/>
<rect id="rect3621" x="121.5" y="0.1" fill="#DF0A22" width="50" height="56"/>
<polygon id="polygon3623" fill="#FFFFFF" points="140.3,27.4 155.2,12.4 154,11.2 137.8,27.4 153.7,43.4 154.9,42.1 "/>
<rect id="rect3625" x="179.5" y="0.1" fill="#FFFFFF" width="50" height="56"/>
<polygon id="polygon3627" fill="#DF0A22" points="198.3,27.4 213.2,12.4 212,11.2 195.8,27.4 211.7,43.4 212.9,42.1 "/>
<rect id="rect3629" x="310.5" y="0.1" fill="#FFFFFF" width="50" height="56"/>
<polygon id="polygon3631" fill="#DF0A22" points="341.7,27.1 326.8,42.1 328,43.4 344.2,27.1 328.3,11.2 327.1,12.4 "/>
<g id="g3633" opacity="0.5">
	<g id="g3635">
		<g id="g3637">
			<g id="g3639">
				<g id="g3641">
					<g id="g3643">
						<g id="g3645">
							<g id="g3647">
								<g id="g3649">
									<g id="g3651">
										<g id="g3653">
											<g>
												<g>
													<g>
														<g>
															<g>
																<g>
																	<g>
																		<g>
																			<g>
																				<g>
																					<g>
																						<g>
																							<g>
																								<g>
																									<g>
																										<g>
																											<g>
																												<rect id="rect3661" x="244.5" y="0.1" fill="#231F20" width="50" height="56"/>
																											</g>
																										</g>
																									</g>
																								</g>
																							</g>
																						</g>
																					</g>
																				</g>
																			</g>
																		</g>
																	</g>
																</g>
															</g>
														</g>
													</g>
												</g>
											</g>
										</g>
									</g>
								</g>
							</g>
						</g>
					</g>
				</g>
			</g>
		</g>
	</g>
</g>
<rect x="244.5" y="0.1" fill="none" width="50" height="56"/>
<polygon id="polygon3663" fill="#FFFFFF" points="275.7,27.1 260.8,42.1 262,43.4 278.2,27.1 262.3,11.2 261.1,12.4 "/>
<path id="path3665" fill="#FFFFFF" d="M623.1,22.3V28h12.2v12.1h5.7V27.9h12.2v-5.7H641V10.1h-5.7v12.2H623.1z M624.1,23.3h12.2
	V11.1h3.7v12.2h12.2V27H640v12.1h-3.7V26.9h-12.2V23.3L624.1,23.3z"/>
<path id="path3667" fill="#FFFFFF" d="M638.1,0.1c-13.8,0-25,11.2-25,25c0,13.8,11.2,25,25,25c13.801,0,25-11.2,25-25
	C663.1,11.3,651.9,0.1,638.1,0.1 M638.1,49.2c-13.3,0-24.1-10.8-24.1-24.1C614,11.8,624.8,1,638.1,1C651.4,1,662.2,11.8,662.2,25.1
	C662.2,38.4,651.4,49.2,638.1,49.2"/>
<polygon id="polygon3669" fill="#FFFFFF" points="700.9,22.3 700.9,10.1 695.2,10.1 695.2,22.3 683.1,22.3 683.1,27.9 695.2,27.9 
	695.2,40.1 700.9,40.1 700.9,27.9 713.1,27.9 713.1,22.3 "/>
<path id="path3671" fill="#FFFFFF" d="M698.1,0.1c-13.8,0-25,11.2-25,25c0,13.8,11.2,25,25,25c13.801,0,25-11.2,25-25
	C723.1,11.3,711.9,0.1,698.1,0.1 M698.1,49.2c-13.3,0-24.1-10.8-24.1-24.1C674,11.8,684.8,1,698.1,1C711.4,1,722.2,11.8,722.2,25.1
	C722.2,38.4,711.4,49.2,698.1,49.2"/>
<path id="path3673" fill="#DF0A22" d="M770.1,25.1l8.601-8.6l-4-4l-8.601,8.6l-8.6-8.6l-4,4l8.6,8.6l-8.6,8.6l4,4l8.6-8.6l8.601,8.6
	l4-4L770.1,25.1z M774.7,36.3l-8.601-8.6l-8.6,8.6l-2.6-2.6l8.6-8.6l-8.6-8.6l2.6-2.6l8.6,8.6l8.601-8.6l2.6,2.6l-8.6,8.6l8.6,8.6
	L774.7,36.3z"/>
<path id="path3675" fill="#DF0A22" d="M766.1,0.1c-13.8,0-25,11.2-25,25c0,13.8,11.2,25,25,25c13.801,0,25-11.2,25-25
	C791.1,11.3,779.9,0.1,766.1,0.1 M766.1,49.2c-13.3,0-24.1-10.8-24.1-24.1C742,11.8,752.8,1,766.1,1C779.4,1,790.2,11.8,790.2,25.1
	C790.2,38.4,779.4,49.2,766.1,49.2"/>
<polygon id="polygon3677" fill="#DF0A22" points="830.1,25.1 838.7,16.5 834.7,12.5 826.1,21.1 817.5,12.5 813.5,16.5 822.1,25.1 
	813.5,33.7 817.5,37.7 826.1,29.1 834.7,37.7 838.7,33.7 "/>
<path id="path3679" fill="#DF0A22" d="M826.1,0.1c-13.8,0-25,11.2-25,25c0,13.8,11.2,25,25,25c13.801,0,25-11.2,25-25
	C851.1,11.3,839.9,0.1,826.1,0.1 M826.1,49.2c-13.3,0-24.1-10.8-24.1-24.1C802,11.8,812.8,1,826.1,1C839.4,1,850.2,11.8,850.2,25.1
	C850.2,38.4,839.4,49.2,826.1,49.2"/>
<path id="path3681" fill="#FFFFFF" d="M912.4,19.7L901.6,27.2c-0.199,0.2-0.5,0.2-0.8,0.2c-0.2,0-0.399,0-0.6-0.1
	c-0.4-0.2-0.7-0.6-0.7-1.1V11.1c0-0.5,0.3-0.9,0.7-1.1c0.399-0.2,1-0.2,1.399,0.1l10.801,7.5c0.3,0.2,0.5,0.6,0.5,1
	C913,19.1,912.8,19.4,912.4,19.7 M927.5,5.6c0-0.2-0.1-0.4-0.1-0.6c0-0.1,0-0.2-0.101-0.3c-0.6-1.9-2.399-3.3-4.5-3.3h0.3
	c0,0-8.5-1.3-19.699-1.4c-11.301,0.1-19.7,1.4-19.7,1.4h0.3c-2.1,0-3.899,1.4-4.5,3.3c0,0.1-0.1,0.2-0.1,0.3
	c-0.1,0.2-0.1,0.4-0.1,0.6c-0.301,2.2-0.801,6.7-0.9,12.1c0.1,5.4,0.6,9.8,0.9,12.1c0,0.2,0.1,0.4,0.1,0.6c0,0.1,0.1,0.2,0.1,0.3
	c0.601,1.9,2.4,3.3,4.5,3.3h-0.3c0,0,8.5,1.3,19.7,1.4C914.7,35.3,923.1,34,923.1,34h-0.3c2.101,0,3.9-1.4,4.5-3.3
	c0-0.1,0.101-0.2,0.101-0.3c0.1-0.2,0.1-0.4,0.1-0.6c0.3-2.2,0.8-6.7,0.9-12.1C928.3,12.3,927.8,7.9,927.5,5.6"/>
<polygon id="polygon3685" fill="#DF0A22" points="768.4,109.5 754.1,100 754.1,113.8 782.6,113.8 782.6,100 "/>
<polygon id="polygon3687" fill="#DF0A22" points="754.3,96.3 768.4,105.6 782.4,96.3 "/>
<polygon id="polygon3693" fill="#DF0A22" points="813.1,104.2 816.9,100.4 824.5,108.2 824.5,121.4 830,121.4 830,105.9 820.8,96.5 
	824.7,92.6 813.1,92.6 "/>
<polygon id="polygon3695" fill="#DF0A22" points="831.9,103.9 839.9,95.9 836.4,92.4 828.4,100.4 "/>
<g id="g3699">
	<path id="path3701" fill="#FFFFFF" d="M25.5,143.6c-13.8,0-25,11.2-25,25c0,13.8,11.2,25,25,25s25-11.2,25-25
		C50.5,154.8,39.3,143.6,25.5,143.6 M39.5,159.8l-14,9.4l-14-9.4H39.5z M39.7,177.3H11.2v-13.8l14.2,9.5l14.199-9.5L39.7,177.3
		L39.7,177.3z"/>
</g>
<path id="path3703" fill="#FFFFFF" d="M52.4,168.5c0,13.7,11.1,24.9,24.899,24.9c13.7,0,24.9-11.1,24.9-24.9
	c0-13.7-11.101-24.9-24.9-24.9S52.4,154.7,52.4,168.5z M82.8,167.4l-3.5-3.5l8-8l3.5,3.5L82.8,167.4z M64,156.1h11.6L71.7,160
	l9.2,9.5V185h-5.5v-13.2L67.8,164l-3.899,3.9L64,156.1L64,156.1z"/>
<polygon id="polygon3709" fill="#FFFFFF" points="148.7,167 136.4,167 136.4,154.7 134.2,154.7 134.2,167 121.9,167 121.9,169.2 
	134.2,169.2 134.2,181.4 136.4,181.4 136.4,169.2 148.7,169.2 "/>
<path id="path3711" fill="#FFFFFF" d="M160.8,168.6c0,13.8,11.2,25,25,25s25-11.2,25-25c0-13.8-11.2-25-25-25
	S160.8,154.8,160.8,168.6z M171.8,176.4l0.101-0.4c0.3-1,1.399-2,2.399-2.3l3.7-1c1-0.3,2.4,0.1,3.2,0.8l1.3,1.3
	c4.9-1.3,8.7-5.1,10-10l-1.3-1.3c-0.7-0.7-1.101-2.2-0.8-3.2l1-3.7c0.3-1,1.3-2.1,2.3-2.4l0.399-0.1c1-0.3,2.4,0,3.101,0.7l2,2
	c0.399,0.4,0.6,1.4,0.6,1.4c0.101,6.4-2.399,12.5-6.899,17s-10.601,7-17,6.9c0,0-1.101-0.2-1.4-0.6l-2-2
	C171.8,178.8,171.5,177.4,171.8,176.4z"/>
<rect id="rect3717" x="222.4" y="167.3" fill="#FFFFFF" width="27.3" height="2.3"/>
<g id="g3719">
	<circle id="circle3721" fill="none" stroke="#FFFFFF" stroke-width="4" stroke-miterlimit="10" cx="313" cy="169.3" r="20"/>
	<path id="path3723" fill="#FFFFFF" d="M309.4,169.3c0-2,1.6-3.5,3.5-3.5c1.899,0,3.5,1.6,3.5,3.5c0,1.9-1.601,3.5-3.5,3.5
		C311,172.8,309.4,171.2,309.4,169.3"/>
	
		<line id="line3725" fill="none" stroke="#FFFFFF" stroke-width="4" stroke-miterlimit="10" x1="313" y1="143.6" x2="313" y2="157.8"/>
	
		<line id="line3727" fill="none" stroke="#FFFFFF" stroke-width="4" stroke-miterlimit="10" x1="313" y1="180.7" x2="313" y2="194.9"/>
	
		<line id="line3729" fill="none" stroke="#FFFFFF" stroke-width="4" stroke-miterlimit="10" x1="338.6" y1="169.3" x2="324.4" y2="169.3"/>
	
		<line id="line3731" fill="none" stroke="#FFFFFF" stroke-width="4" stroke-miterlimit="10" x1="301.5" y1="169.3" x2="287.3" y2="169.3"/>
</g>
<g id="g3733">
	<path id="path3735" fill="#BBBBBB" d="M371.2,165.2L356.6,178.5l-2.699-2.9l14.6-13.3L371.2,165.2z"/>
	<path id="path3737" fill="#BBBBBB" d="M365.6,156.5c0,7.1,5.9,12.9,13.101,12.9s13.1-5.8,13.1-12.9s-5.899-12.9-13.1-12.9
		S365.6,149.4,365.6,156.5z M368.6,156.5c0-5.5,4.5-9.9,10-9.9s10,4.4,10,9.9s-4.5,9.9-10,9.9S368.6,162,368.6,156.5z"/>
</g>
<g id="g3739">
	<g id="g3741">
		<path id="path3743" fill="#DF0A22" d="M434,191.3c-12.2,0-22-9.9-22-22c0-12.1,9.9-22,22-22s22,9.9,22,22
			C456,181.4,446.1,191.3,434,191.3z M434,151.2c-10,0-18,8.1-18,18c0,9.9,8.1,18,18,18s18-8.1,18-18
			C452,159.3,443.9,151.2,434,151.2z"/>
	</g>
	<g id="g3745">
		<path id="path3747" fill="#DF0A22" d="M430.4,169.3c0-2,1.6-3.5,3.5-3.5c1.899,0,3.5,1.6,3.5,3.5c0,1.9-1.601,3.5-3.5,3.5
			C432,172.8,430.4,171.2,430.4,169.3"/>
	</g>
	<g id="g3749">
		<rect id="rect3751" x="432" y="143.6" fill="#DF0A22" width="4" height="14.2"/>
	</g>
	<g id="g3753">
		<rect id="rect3755" x="432" y="180.7" fill="#DF0A22" width="4" height="14.2"/>
	</g>
	<g id="g3757">
		<rect id="rect3759" x="445.4" y="167.3" fill="#DF0A22" width="14.199" height="4"/>
	</g>
	<g id="g3761">
		<rect id="rect3763" x="408.3" y="167.3" fill="#DF0A22" width="14.2" height="4"/>
	</g>
</g>
<g id="g3765">
	<path id="path3767" fill="#DF0A22" d="M492.2,165.2L477.6,178.5l-2.699-2.9l14.6-13.3L492.2,165.2z"/>
	<path id="path3769" fill="#DF0A22" d="M486.6,156.5c0,7.1,5.9,12.9,13.101,12.9s13.1-5.8,13.1-12.9s-5.899-12.9-13.1-12.9
		S486.6,149.4,486.6,156.5z M489.6,156.5c0-5.5,4.5-9.9,10-9.9s10,4.4,10,9.9s-4.5,9.9-10,9.9S489.6,162,489.6,156.5z"/>
</g>
<polygon id="polygon4578-1" fill="#DF0A22" points="19,305.8 9.6,296.4 0,306 0.8,306.7 9.6,297.9 18.3,306.5 "/>
<polygon id="polygon4578-1-1" fill="#DF0A22" points="9.6,353.6 18.3,345 19,345.7 9.6,355.1 0,345.5 0.8,344.8 "/>
<g>
	<circle fill="#DF0A22" cx="25.1" cy="421.2" r="25"/>
	<g>
		<path fill="#FFFFFF" d="M38.5,412.4l-9.6-4l0.699,10.4l2.9-2.1c3.8,5.5,3,12.8-1.7,17.3c0.601-0.3,1.2-0.7,1.8-1.1
			c6-4.3,7.4-12.6,3.301-18.6L38.5,412.4z"/>
		<path fill="#FFFFFF" d="M11.7,429.9l9.6,4l-0.7-10.4l-2.899,2.1c-3.8-5.5-3-12.8,1.7-17.3c-0.601,0.3-1.2,0.7-1.801,1.1
			c-6,4.3-7.399,12.6-3.3,18.6L11.7,429.9z"/>
	</g>
</g>
<g>
	<g>
		<path fill="#656666" d="M84.9,397.1c13.199,0,24,10.8,24,24c0,13.2-10.801,24-24,24c-13.2,0-24-10.8-24-24
			C60.9,407.9,71.7,397.1,84.9,397.1 M84.9,396.1c-13.801,0-25,11.2-25,25c0,13.8,11.199,25,25,25c13.8,0,25-11.2,25-25
			C110,407.3,98.8,396.1,84.9,396.1L84.9,396.1z"/>
	</g>
	<g>
		<path fill="#656666" d="M98.4,412.4l-9.601-4l0.7,10.4l2.9-2.1c3.8,5.5,3,12.8-1.7,17.3c0.6-0.3,1.2-0.7,1.8-1.1
			c6-4.3,7.4-12.6,3.3-18.6L98.4,412.4z"/>
		<path fill="#656666" d="M71.5,429.9l9.6,4L80.4,423.5l-2.9,2.1c-3.8-5.5-3-12.8,1.7-17.3c-0.601,0.3-1.2,0.7-1.8,1.1
			c-6,4.3-7.4,12.6-3.301,18.6L71.5,429.9z"/>
	</g>
</g>
<g>
	<circle fill="#DF0A22" cx="148.8" cy="421.2" r="25"/>
	<g>
		<path fill="#FFFFFF" d="M140.8,432c-0.6,0.4-1.3,0.8-1.8,1.1c0.5,0.6,1.6,0.9,4.4,1h0.199c0.4,0,0.9-0.1,1.2-0.9
			c0.2,0.1,0.5,0.2,0.7,0.3c0.7,0.4,1.3,0.7,1.8,0.8c0.4,0.1,0.7,0,1-0.2c0.5-0.4,0.5-1,0.601-1.5c1,0.4,2.699,1.5,3.6,2.2
			c0.3,0.3,0.7,0.4,1,0.4c0.1,0,0.2,0,0.2,0c1.1-0.2,1.899-1.5,2.6-2.6c0.101-0.1,0.2-0.3,0.3-0.5c0.7,0.4,2.2,1.5,3.601,2.7
			c0.399,0.3,1,0.3,1.3-0.1c0.3-0.4,0.3-1-0.1-1.3c-4.101-3.3-4.801-3.3-5.101-3.3c-0.7,0-1,0.6-1.6,1.6c-0.3,0.4-0.8,1.4-1.2,1.7
			c-0.8-0.6-4.4-3.2-5.7-2.6c-0.7,0.3-0.8,1.1-0.8,1.6c-0.2-0.1-0.5-0.2-0.7-0.3c-1.1-0.6-1.7-0.8-2.2-0.7
			c-0.699,0.1-0.899,0.7-1,1.1C141.9,432.2,141.2,432.1,140.8,432z"/>
		<path fill="#FFFFFF" d="M152.2,407.1l-1.4,2h0.101c0.8,0,1.699,0.3,2.699,1c1.2,0.8,1.7,1.6,1.9,2.3l1.4-2
			c0,0,0.199-0.3,0.199-0.8c0-0.7-0.6-1.5-1.6-2.2c-0.8-0.6-1.5-0.8-2.1-0.8C152.5,406.6,152.2,407.1,152.2,407.1z"/>
		<path fill="#FFFFFF" d="M145.1,426.7l9.101-12.8c0,0,0.2-0.3,0.2-0.8c0-0.7-0.601-1.5-1.601-2.2c-0.8-0.6-1.5-0.8-2.1-0.8
			c-0.8,0-1.2,0.5-1.2,0.5l-9.1,12.8c0.699,0,1.6,0.2,2.8,1C144.4,425.2,144.9,426,145.1,426.7z"/>
		<path fill="#FFFFFF" d="M137.3,432.8c0.9-0.2,4-2.3,6.601-4.3l0.199-0.3l0,0c0,0,0.9-1.3-1.399-3c-2.3-1.6-3.2-0.4-3.3-0.3l0,0
			l0,0l-0.2,0.3C138.2,428.3,137.2,431.9,137.3,432.8z"/>
	</g>
</g>
<g>
	<g>
		<path fill="#656666" d="M210.4,397.1c13.3,0,24,10.8,24,24c0,13.2-10.801,24-24,24c-13.301,0-24-10.8-24-24
			C186.4,407.9,197.1,397.1,210.4,397.1 M210.4,396.1c-13.801,0-25.101,11.2-25.101,25.1c0,13.9,11.2,25.1,25.101,25.1
			c13.8,0,25.1-11.2,25.1-25.1C235.5,407.3,224.2,396.1,210.4,396.1L210.4,396.1z"/>
	</g>
	<g>
		<path fill="#656666" d="M202.4,432c-0.601,0.4-1.301,0.8-1.801,1.1c0.5,0.6,1.601,0.9,4.4,1h0.2c0.399,0,0.899-0.1,1.2-0.9
			c0.199,0.1,0.5,0.2,0.699,0.3c0.7,0.4,1.301,0.7,1.801,0.8c0.399,0.1,0.699,0,1-0.2c0.5-0.4,0.5-1,0.6-1.5c1,0.4,2.7,1.5,3.6,2.2
			c0.301,0.3,0.7,0.4,1,0.4c0.101,0,0.2,0,0.2,0c1.101-0.2,1.9-1.5,2.601-2.7c0.1-0.1,0.199-0.3,0.3-0.5c0.7,0.4,2.2,1.5,3.6,2.7
			c0.4,0.3,1,0.3,1.3-0.1c0.301-0.4,0.301-1-0.1-1.4c-4.1-3.4-4.8-3.3-5.1-3.3c-0.7,0-1,0.6-1.601,1.6c-0.3,0.4-0.8,1.4-1.2,1.7
			c-0.8-0.6-4.5-3.2-5.699-2.6c-0.7,0.3-0.801,1.1-0.801,1.6c-0.199-0.1-0.5-0.2-0.699-0.4c-1.101-0.6-1.7-0.8-2.2-0.7
			c-0.7,0.1-0.9,0.7-1,1.1C203.4,432.2,202.8,432.1,202.4,432z"/>
		<path fill="#656666" d="M213.7,407l-1.4,2h0.101c0.8,0,1.699,0.3,2.699,1c1.2,0.8,1.7,1.6,1.9,2.3l1.4-2c0,0,0.199-0.3,0.199-0.8
			c0-0.7-0.6-1.5-1.6-2.2c-0.8-0.6-1.5-0.8-2.1-0.8C214.1,406.5,213.8,407,213.7,407z"/>
		<path fill="#656666" d="M206.7,426.7l9.2-12.8c0,0,0.199-0.3,0.199-0.8c0-0.7-0.6-1.5-1.6-2.2c-0.8-0.6-1.5-0.8-2.1-0.8
			c-0.801,0-1.2,0.5-1.2,0.5l-9.2,12.8c0.7,0,1.6,0.2,2.8,1C206,425.2,206.5,426,206.7,426.7z"/>
		<path fill="#656666" d="M198.9,432.8c0.899-0.2,4-2.3,6.6-4.3l0.2-0.3l0,0c0,0,0.899-1.3-1.4-3c-2.3-1.6-3.2-0.4-3.3-0.3l0,0l0,0
			l-0.2,0.3C199.7,428.3,198.7,431.9,198.9,432.8z"/>
	</g>
</g>
<g>
	<circle fill="#DF0A22" cx="276.1" cy="421.2" r="25"/>
	<path fill="#FFFFFF" d="M287.5,432.2c0.5-0.5,0.7-1.1,0.7-1.8c0-0.7-0.3-1.3-0.7-1.8L275,416.1l0.1-0.3c0.9-2.5,0.301-5.3-1.6-7.1
		c-1.3-1.3-3-2-4.8-2c-0.5,0-0.9,0-1.4,0.1l4.101,4.1v3.1l-2.2,2.2H266.1l-4.1-4.1c-0.5,2.2,0.2,4.6,1.8,6.2c1.3,1.3,3,2,4.8,2
		c0.801,0,1.601-0.1,2.301-0.4l0.399-0.1l12.5,12.5c0.5,0.5,1.101,0.7,1.8,0.7C286.4,432.9,287,432.7,287.5,432.2z"/>
</g>
<g>
	<g>
		<path fill="#656666" d="M340.6,397.2c13.2,0,23.9,10.7,23.9,23.9c0,13.2-10.7,23.9-23.9,23.9c-13.199,0-23.899-10.7-23.899-23.9
			C316.7,407.9,327.4,397.2,340.6,397.2 M340.6,396.1c-13.8,0-25,11.2-25,25c0,13.8,11.2,25,25,25c13.801,0,25-11.2,25-25
			C365.6,407.3,354.4,396.1,340.6,396.1L340.6,396.1z"/>
	</g>
	<path fill="#656666" d="M352,432.1c0.5-0.5,0.7-1.1,0.7-1.8c0-0.7-0.3-1.3-0.7-1.8l-12.5-12.4l0.1-0.3c0.9-2.5,0.301-5.2-1.6-7.1
		c-1.3-1.3-3-2-4.8-2c-0.5,0-0.9,0-1.4,0.1l4.101,4.1v3.1l-2.2,2.2H330.6l-4.1-4.1c-0.5,2.2,0.2,4.6,1.8,6.2c1.3,1.3,3,2,4.8,2
		c0.801,0,1.601-0.1,2.301-0.4l0.399-0.1l12.5,12.4c0.5,0.5,1.101,0.7,1.8,0.7C350.9,432.8,351.5,432.6,352,432.1z"/>
</g>
<g>
	<circle fill="#DF0A22" cx="406.3" cy="421.1" r="24.9"/>
	<path fill="#FFFFFF" d="M391.3,420.6l-1.8,6.1h4.9v3.4l0.399,0.1c4,1.3,11.3,3.2,11.4,3.3h0.1h0.101c0.1,0,7.399-2,11.399-3.3
		l0.4-0.1l0,0v-3.4h4.899l-1.8-6.1l1.8-6.1H418.2v-3.1l-0.3-0.1c-3.2-1.6-7.4-2.6-11.601-2.6c-4.199,0-8.399,0.9-11.6,2.6l-0.3,0.1
		v3.1h-4.9L391.3,420.6z M406.3,431l-0.2-0.1c0,0-5.6-1.5-8.699-2.5l-0.601-0.2v-14.8l0.5-0.3c2.5-1.3,5.7-2,9-2s6.5,0.7,9,2
		l0.5,0.3v14.8l-0.6,0.2c-3.101,1-8.601,2.5-8.601,2.5L406.3,431z M409.4,423.7l2.8-2.8l1.899,1.9l-4.699,4.7l-11-11l1.899-1.9
		L409.4,423.7z"/>
</g>
<g>
	<g>
		<path fill="#656666" d="M469.3,397.2c13.2,0,24,10.8,24,24c0,13.2-10.8,24-24,24s-24-10.8-24-24
			C445.3,407.9,456.1,397.2,469.3,397.2 M469.3,396.1c-13.8,0-25,11.2-25,25c0,13.8,11.2,25,25,25s25-11.2,25-25
			C494.4,407.3,483.2,396.1,469.3,396.1L469.3,396.1z"/>
	</g>
	<g>
		<path fill="#656666" d="M454.3,420.7l-1.8,6.1h4.9v3.4l0.399,0.1c4,1.3,11.4,3.3,11.4,3.3h0.1h0.101c0.1,0,7.399-2,11.399-3.3
			l0.4-0.1l0,0v-3.4h4.899l-1.8-6.1l1.8-6.1H481.2v-3.1l-0.3-0.1c-3.301-1.7-7.4-2.6-11.7-2.6s-8.4,0.9-11.7,2.6l-0.3,0.1v3.1h-4.9
			L454.3,420.7z M460.3,428v-14.1l0.2-0.1c2.5-1.3,5.6-1.9,8.8-1.9s6.4,0.7,8.8,1.9l0.2,0.1V428l0,0l-0.3,0.1
			c-3.1,1-8.6,2.5-8.7,2.5h-0.1H469.1c-0.1,0-5.6-1.5-8.699-2.5L460.3,428L460.3,428z"/>
		<polygon fill="#656666" points="463.4,414.7 461.4,416.6 472.5,427.7 477.3,422.9 475.3,421 472.5,423.8 		"/>
	</g>
</g>
<g>
	<circle fill="#DF0A22" cx="534.1" cy="421.2" r="25"/>
	<path fill="#FFFFFF" d="M526.5,410.6L526.5,410.6l4.6,21.3c0.101,0.3,0.301,0.5,0.601,0.5l0,0c0.3,0,0.5-0.2,0.6-0.5l2.3-8.5
		l8.5,2.3c0.101,0,0.101,0,0.2,0c0.2,0,0.4-0.1,0.5-0.3c0.101-0.2,0.101-0.6-0.1-0.7l-16.2-14.6l0,0c0,0-0.1,0-0.1-0.1H527.3h-0.1
		H527.1H527h-0.1l0,0c0,0,0,0-0.101,0c0,0-0.1,0-0.1,0.1l0,0c0,0,0,0-0.1,0.1l-0.101,0.1c0,0,0,0,0,0.1V410.6
		C526.5,410.5,526.5,410.5,526.5,410.6C526.4,410.5,526.4,410.6,526.5,410.6z"/>
</g>
<g>
	<path fill="#656666" d="M590.7,410.6L590.7,410.6l4.6,21.3c0.101,0.3,0.3,0.5,0.601,0.5l0,0c0.3,0,0.5-0.2,0.6-0.4l2.3-8.5l8.5,2.3
		c0.101,0,0.101,0,0.101,0c0.199,0,0.399-0.1,0.5-0.3c0.1-0.2,0.1-0.6-0.101-0.7l-16.1-14.7l0,0c0,0-0.101,0-0.101-0.1h-0.1h-0.1
		H591.3h-0.1H591.1l0,0c0,0,0,0-0.1,0c0,0-0.1,0-0.1,0.1l0,0c0,0,0,0-0.101,0.1l-0.1,0.1c0,0,0,0,0,0.1V410.6
		C590.7,410.5,590.7,410.5,590.7,410.6C590.7,410.5,590.7,410.6,590.7,410.6z"/>
	<g>
		<path fill="#656666" d="M598.3,397.2c13.2,0,24,10.8,24,24c0,13.2-10.8,24-24,24s-24-10.8-24-24
			C574.3,407.9,585.1,397.2,598.3,397.2 M598.3,396.1c-13.8,0-25,11.2-25,25c0,13.8,11.2,25,25,25s25-11.2,25-25
			C623.4,407.3,612.2,396.1,598.3,396.1L598.3,396.1z"/>
	</g>
</g>
<g>
	<circle fill="#DF0A22" cx="662.2" cy="421.2" r="25.1"/>
	<g>
		<path fill="#FFFFFF" d="M648.1,415.7c-0.5,0.6-0.699,1.5-0.699,1.5s-0.601,0.8-0.9,1.2s-0.3,1.4-0.3,1.9c0,0.6,0.2,6.5,0.2,6.5
			v2.9c0,0.5,0.399,0.8,0.8,0.8h2.7c0.5,0,0.8-0.4,0.8-0.8v-1.6c0.7,0.2,1.2,0.3,1.5,0.3c0.899,0.1,1.6-0.1,1.6-0.1
			c0.2,0,1.601,0,3.101,0l5-2.6c0.1-0.1,0.3-0.1,0.5-0.1c-0.301-1.4-0.2-2.9,0.199-4.3c0.7-2.2,2.2-4,4.2-5.1c1.2-0.7,2.6-1,4-1
			c1,0,2,0.2,3,0.5c0.1-0.2,0.4-0.6,1-0.7c0.8-0.1,1.5-0.3,1.5-0.9s-0.4-0.9-0.9-1s-2-0.4-2.1,0.2c-0.1,0.6-0.1,1,0.1,1.3l-0.5,0.5
			c0,0-0.3-0.3-0.399-0.7c-0.101-0.4-0.7-2.3-2-4.1c-1-1.5-1.4-1.6-1.7-1.6s-2.3-0.4-7.9-0.4c-5.699,0-7.6,0.4-7.899,0.4
			c-0.301,0-0.601,0.1-1.7,1.6c-1.3,1.9-1.9,3.8-2,4.1c-0.1,0.4-0.4,0.7-0.4,0.7l-0.5-0.5c0.101-0.3,0.101-0.7,0.101-1.3
			c-0.101-0.6-1.601-0.3-2.101-0.2s-0.899,0.4-0.899,1s0.699,0.7,1.5,0.9C647.9,415,648.1,415.7,648.1,415.7z M648.7,417.7
			c1.1,0.6,5.1,1.6,5.3,1.7s0.3,0.2,0.1,0.3c-0.199,0.2-1.199,0.9-1.199,0.9c-4.301-0.3-4.601-0.9-4.601-0.9
			C647.8,418.3,648.7,417.7,648.7,417.7z"/>
		<path fill="#FFFFFF" d="M663.3,426.1l1.3,2.5c1.5,1.9,3.7,3.1,6.2,3.1c1.3,0,2.5-0.3,3.7-0.9c1.9-1,3.2-2.6,3.9-4.6
			c0.6-2,0.399-4.1-0.601-6c-1.399-2.6-4-4.2-7-4.2c-1.3,0-2.5,0.3-3.7,0.9c-1.899,1-3.199,2.6-3.899,4.6
			C662.9,423,662.9,424.6,663.3,426.1z M664.5,421.8c0.5-1.7,1.7-3.1,3.2-3.9c0.899-0.5,2-0.8,3.1-0.8c2.5,0,4.7,1.4,5.9,3.5
			c0.8,1.6,1,3.4,0.5,5c-0.5,1.7-1.7,3.1-3.2,3.9c-1,0.5-2,0.8-3.1,0.8c-2.5,0-4.7-1.4-5.9-3.5C664.2,425.3,664,423.5,664.5,421.8z"
			/>
		<path fill="#FFFFFF" d="M665.7,421.7c0.399-0.5,1-0.9,1.6-1.2c2.7-1.4,6.101-0.4,7.5,2.3c0.8,1.5,0.8,3.1,0.3,4.6
			c1.5-1.7,1.9-4.2,0.801-6.3c-1.4-2.7-4.801-3.8-7.5-2.3C667,419.5,666.1,420.5,665.7,421.7z"/>
		<path fill="#FFFFFF" d="M652.1,431.7c0,0.1,0,0.2,0,0.3l1.4,2.6c0.1,0.1,0.2,0.2,0.4,0.2c0.1,0,0.1,0,0.199-0.1l9.9-5.2
			c0.2-0.1,0.3-0.4,0.2-0.6l-1.3-2.6c-0.101-0.1-0.101-0.2-0.301-0.2c-0.1,0-0.199,0-0.3,0l-9.9,5.2
			C652.2,431.5,652.1,431.5,652.1,431.7z"/>
	</g>
</g>
<g>
	<g>
		<path fill="#656666" d="M727.3,397.2c13.2,0,23.9,10.7,23.9,23.9c0,13.2-10.7,23.9-23.9,23.9S703.4,434.3,703.4,421.1
			C703.3,407.9,714.1,397.2,727.3,397.2 M727.3,396.1c-13.8,0-25,11.2-25,25c0,13.8,11.2,25,25,25s25-11.2,25-25
			C752.2,407.3,741.1,396.1,727.3,396.1L727.3,396.1z"/>
	</g>
	<g>
		<path fill="#656666" d="M713.3,415.4c-0.5,0.6-0.7,1.5-0.7,1.5s-0.6,0.8-0.899,1.2s-0.3,1.4-0.3,1.9c0,0.6,0.199,6.5,0.199,6.5
			v2.8c0,0.5,0.4,0.8,0.801,0.8h2.6c0.4,0,0.8-0.4,0.8-0.8v-1.7c0.7,0.2,1.2,0.3,1.5,0.3c0.9,0.1,1.601-0.1,1.601-0.1
			c0.199,0,1.6,0,3.1,0l5-2.6c0.1-0.1,0.3-0.1,0.5-0.1c-0.3-1.4-0.2-2.9,0.2-4.3c0.7-2.2,2.2-4,4.2-5.1c1.199-0.6,2.6-1,4-1
			c1,0,2,0.2,3,0.5c0.1-0.2,0.399-0.6,1-0.7c0.8-0.1,1.5-0.3,1.5-0.9s-0.4-0.9-0.9-1s-2-0.4-2.1,0.2c-0.101,0.6-0.101,1,0.1,1.3
			l-0.5,0.5c0,0-0.3-0.3-0.4-0.7c-0.1-0.4-0.699-2.3-2-4.1c-1-1.5-1.399-1.6-1.699-1.6c-0.301,0-2.301-0.4-7.9-0.4s-7.6,0.4-7.9,0.4
			c-0.3,0-0.6,0.1-1.699,1.6c-1.301,1.9-1.9,3.7-2,4.1c-0.101,0.4-0.4,0.7-0.4,0.7l-0.5-0.5c0.1-0.3,0.1-0.7,0.1-1.3
			c-0.1-0.6-1.5-0.3-2.1-0.2c-0.5,0.1-0.9,0.4-0.9,1s0.7,0.7,1.5,0.9C713.1,414.7,713.3,415.4,713.3,415.4z M713.9,417.4
			c1.1,0.6,5.1,1.6,5.3,1.7s0.3,0.2,0.1,0.3c-0.2,0.2-1.2,0.9-1.2,0.9c-4.199-0.3-4.6-0.9-4.6-0.9C713,418,713.9,417.4,713.9,417.4z
			"/>
		<path fill="#656666" d="M728.5,425.7l1.3,2.5c1.5,1.9,3.7,3,6.2,3c1.3,0,2.5-0.3,3.6-0.9c1.9-1,3.2-2.6,3.801-4.6
			c0.6-2,0.399-4.1-0.601-6c-1.399-2.6-4-4.2-6.899-4.2c-1.301,0-2.5,0.3-3.601,0.9c-1.899,1-3.2,2.6-3.8,4.6
			C728,422.6,728,424.2,728.5,425.7z M729.6,421.4c0.5-1.7,1.7-3.1,3.2-3.9c0.9-0.5,2-0.8,3.101-0.8c2.5,0,4.699,1.4,5.8,3.5
			c0.8,1.6,1,3.3,0.5,5c-0.5,1.7-1.7,3.1-3.2,3.9c-1,0.5-2,0.8-3.1,0.8c-2.5,0-4.7-1.3-5.801-3.5
			C729.3,424.9,729.1,423.1,729.6,421.4z"/>
		<path fill="#656666" d="M730.8,421.4c0.4-0.5,0.9-0.9,1.601-1.2c2.699-1.4,6-0.4,7.5,2.3c0.8,1.5,0.8,3.1,0.3,4.6
			c1.5-1.7,1.899-4.1,0.8-6.2c-1.4-2.7-4.8-3.7-7.5-2.3C732.1,419.1,731.2,420.2,730.8,421.4z"/>
		<path fill="#656666" d="M717.3,431.3c0,0.1,0,0.2,0,0.3l1.3,2.5c0.101,0.1,0.2,0.2,0.4,0.2c0.1,0,0.1,0,0.2-0.1l9.8-5.2
			c0.2-0.1,0.3-0.4,0.2-0.6l-1.4-2.6c-0.1-0.1-0.1-0.2-0.3-0.2c-0.1,0-0.2,0-0.3,0l-9.8,5.2C717.4,431.1,717.3,431.1,717.3,431.3z"
			/>
	</g>
</g>
<g>
	<circle fill="#DF0A22" cx="788.6" cy="421.1" r="24.9"/>
	<path fill="#FFFFFF" d="M774.9,411.9v18.3c0,0.8,0.699,1.5,1.5,1.5h24.5c0.8,0,1.5-0.7,1.5-1.5v-18.3c0-0.8-0.7-1.5-1.5-1.5h-24.5
		C775.5,410.5,774.9,411.1,774.9,411.9z M776.9,412.6H800.3v17.3H776.9V412.6z M793.6,416.4c0-1,0.801-1.8,1.801-1.8l0,0
		c1,0,1.8,0.8,1.8,1.8l0,0c0,1-0.8,1.8-1.8,1.8l0,0C794.4,418.2,793.6,417.4,793.6,416.4L793.6,416.4z M798.8,428
		c0.2,0.2,0.101,0.5-0.2,0.5H778.9c-0.301,0-0.5-0.2-0.301-0.5l5.101-9.5c0.2-0.3,0.399-0.3,0.7-0.1l4.1,5c0.2,0.3,0.6,0.3,0.9,0.2
		l3.3-1.9c0.3-0.2,0.7-0.1,0.899,0.2L798.8,428z"/>
</g>
<g>
	<g>
		<path fill="#656666" d="M852.7,397.2c13.3,0,24,10.8,24,24c0,13.2-10.8,24-24,24c-13.3,0-24-10.8-24-24
			C828.7,408,839.5,397.2,852.7,397.2 M852.7,396.2c-13.9,0-25.101,11.2-25.101,25.1c0,13.9,11.2,25.1,25.101,25.1
			c13.8,0,25.1-11.2,25.1-25.1C877.8,407.4,866.6,396.2,852.7,396.2L852.7,396.2z"/>
	</g>
	<path fill="#656666" d="M838.9,412v18.4c0,0.8,0.699,1.5,1.5,1.5H865c0.8,0,1.5-0.7,1.5-1.5V412c0-0.8-0.7-1.5-1.5-1.5h-24.6
		C839.6,410.5,838.9,411.2,838.9,412z M841,412.7h23.5v17.4H841V412.7z M857.7,416.5c0-1,0.8-1.8,1.8-1.8l0,0c1,0,1.8,0.8,1.8,1.8
		l0,0c0,1-0.8,1.8-1.8,1.8l0,0C858.5,418.3,857.7,417.5,857.7,416.5L857.7,416.5z M863,428.2c0.2,0.3,0.1,0.5-0.2,0.5H843
		c-0.3,0-0.5-0.2-0.3-0.5l5.1-9.5c0.2-0.3,0.4-0.3,0.7-0.1l4.1,5c0.2,0.3,0.601,0.3,0.9,0.2l3.4-1.9c0.3-0.2,0.699-0.1,0.899,0.1
		L863,428.2z"/>
</g>
<g>
	<circle fill="#DF0A22" cx="916.5" cy="421.2" r="25.1"/>
	
		<rect x="901.367" y="419.512" transform="matrix(-0.7071 -0.7071 0.7071 -0.7071 1266.7234 1367.0012)" fill="#FFFFFF" width="30.201" height="3.3"/>
	<path fill="#FFFFFF" d="M903.9,428.2c0,3.1,2.5,5.5,5.6,5.5s5.6-2.5,5.6-5.5s-2.5-5.6-5.6-5.6C906.4,422.7,903.9,425.1,903.9,428.2
		z M906.8,428.2c0-1.5,1.2-2.7,2.7-2.7s2.7,1.2,2.7,2.7s-1.2,2.7-2.7,2.7S906.8,429.7,906.8,428.2z"/>
	<path fill="#FFFFFF" d="M929,414.2c0-3.1-2.5-5.6-5.5-5.6c-3.1,0-5.6,2.5-5.6,5.6c0,3.1,2.5,5.6,5.6,5.6
		C926.5,419.8,929,417.3,929,414.2z M926.1,414.2c0,1.5-1.199,2.7-2.699,2.7s-2.7-1.2-2.7-2.7s1.2-2.7,2.7-2.7
		S926.1,412.8,926.1,414.2z"/>
</g>
<g>
	<g>
		<path fill="#656666" d="M25.1,481.1c13.301,0,24,10.8,24,24c0,13.301-10.8,24-24,24c-13.199,0-24-10.8-24-24
			C1,491.9,11.8,481.1,25.1,481.1 M25.1,480.1C11.2,480.1,0,491.3,0,505.2c0,13.899,11.2,25.1,25.1,25.1
			c13.801,0,25.101-11.2,25.101-25.1C50.1,491.3,38.9,480.1,25.1,480.1L25.1,480.1z"/>
	</g>
	
		<rect x="10.099" y="503.53" transform="matrix(-0.7071 -0.7071 0.7071 -0.7071 -314.1991 880.2139)" fill="#656666" width="30.2" height="3.3"/>
	<path fill="#656666" d="M12.6,512.1c0,3.101,2.5,5.5,5.601,5.5c3.1,0,5.6-2.5,5.6-5.5s-2.5-5.6-5.6-5.6
		C15,506.6,12.6,509.1,12.6,512.1z M15.4,512.1c0-1.5,1.199-2.699,2.699-2.699s2.7,1.199,2.7,2.699s-1.2,2.7-2.7,2.7
		S15.4,513.6,15.4,512.1z"/>
	<path fill="#656666" d="M37.6,498.2c0-3.1-2.5-5.6-5.5-5.6c-3.1,0-5.6,2.5-5.6,5.6c0,3.1,2.5,5.6,5.6,5.6
		C35.1,503.7,37.6,501.2,37.6,498.2z M34.8,498.2c0,1.5-1.2,2.7-2.7,2.7s-2.699-1.2-2.699-2.7s1.199-2.7,2.699-2.7
		S34.8,496.7,34.8,498.2z"/>
</g>
<g>
	<circle fill="#DF0A22" cx="85" cy="505.2" r="25.1"/>
	<path fill="#FFFFFF" d="M69.4,504.8v11c0,0.3,0.3,0.601,0.6,0.601h2.5c0,0.699-0.3,1.899-1.3,2.6c-0.2,0.1-0.3,0.4-0.2,0.6
		c0.1,0.2,0.3,0.4,0.5,0.4l0,0c2.6-0.1,3.6-2.2,3.9-3.6H87.8c0.3,0,0.601-0.301,0.601-0.601v-7.5H92.8c0.3,1.8,1.7,4.7,5.101,4.9
		l0,0c0.199,0,0.5-0.101,0.5-0.4c0.1-0.2,0-0.5-0.2-0.7c-1.601-1-1.8-2.899-1.9-3.8h3.8c0.301,0,0.601-0.3,0.601-0.6V493
		c0-0.3-0.3-0.6-0.601-0.6h-24c-0.3,0-0.6,0.3-0.6,0.6v11.3h-5.7C69.6,504.2,69.4,504.5,69.4,504.8z M87.7,504.2h-11v-10.7h22.8
		v13.6h-3.7c-0.3,0-0.5,0.2-0.6,0.5c0,0.101-0.2,2.101,0.8,3.801c-2-1.101-2.2-3.7-2.3-3.801c0-0.3-0.3-0.5-0.601-0.5H88.2v-2.3
		C88.3,504.5,88,504.2,87.7,504.2z"/>
</g>
<g>
	<g>
		<path fill="#656666" d="M145.8,481.1c13.2,0,24,10.7,24,24c0,13.301-10.7,23.9-24,23.9c-13.2,0-23.899-10.7-23.899-23.9
			C121.9,491.9,132.6,481.1,145.8,481.1 M145.8,480.1c-13.8,0-25,11.2-25,25c0,13.801,11.2,25,25,25s25-11.199,25-25
			C170.8,491.3,159.6,480.1,145.8,480.1L145.8,480.1z"/>
	</g>
	<path fill="none" d="M137.5,493.5v10.7h11c0.3,0,0.6,0.3,0.6,0.6v2.3h4.9c0.3,0,0.5,0.2,0.6,0.5c0,0.101,0.301,2.7,2.2,3.801
		c-1-1.7-0.8-3.7-0.8-3.801c0-0.3,0.3-0.5,0.6-0.5h3.7v-13.5L137.5,493.5L137.5,493.5z"/>
	<path fill="#656666" d="M130.2,504.8v10.9c0,0.3,0.3,0.6,0.6,0.6h2.5c0,0.7-0.3,1.9-1.3,2.601c-0.2,0.1-0.3,0.399-0.2,0.6
		c0.101,0.2,0.3,0.4,0.5,0.4l0,0c2.601-0.101,3.601-2.2,3.9-3.601h12.3c0.3,0,0.6-0.3,0.6-0.6v-7.5h4.4c0.3,1.8,1.7,4.7,5.1,4.8l0,0
		c0.2,0,0.5-0.2,0.5-0.4c0.101-0.199,0-0.5-0.199-0.6c-1.601-1-1.801-2.9-1.9-3.8h3.7c0.3,0,0.6-0.3,0.6-0.601v-14.7
		c0-0.3-0.3-0.6-0.6-0.6H137c-0.3,0-0.6,0.3-0.6,0.6v11.2H130.8C130.5,504.2,130.2,504.5,130.2,504.8z M148.5,504.2h-11v-10.7h22.7
		v13.6h-3.7c-0.3,0-0.5,0.2-0.6,0.5c0,0.101-0.2,2.101,0.8,3.801c-2-1.101-2.2-3.7-2.2-3.801c0-0.3-0.3-0.5-0.6-0.5H149v-2.3
		C149,504.5,148.8,504.2,148.5,504.2z"/>
</g>
<g>
	<circle fill="#DF0A22" cx="208.7" cy="505.2" r="25.1"/>
	<path fill="#FFFFFF" d="M205.7,500.7c-0.7,0.1-1.7,1.7-1.9,2s-1.399,1.2-2.899,0.2c-1.4-1-5-3.601-5.601-4c-1.3-1,0.4-2.7,0.9-3.3
		s4.899-4.4,16.7,4.1c11.8,8.5,9.6,13.8,9.199,14.5c-0.5,0.6-1.5,2.8-2.899,1.899c-0.601-0.399-4.101-3-5.601-4
		c-1.399-1-1-2.5-0.8-2.8s1.4-1.7,1.3-2.399c-0.1-0.7-2.3-3-3.699-3.9C209.2,501.9,206.4,500.5,205.7,500.7z"/>
</g>
<g>
	<g>
		<path fill="#656666" d="M271.6,481.1c13.2,0,24,10.8,24,24c0,13.2-10.8,24-24,24c-13.199,0-24-10.8-24-24
			C247.6,491.9,258.4,481.1,271.6,481.1 M271.6,480.1c-13.8,0-25,11.2-25,25c0,13.801,11.2,25,25,25c13.801,0,25-11.199,25-25
			C296.7,491.3,285.5,480.1,271.6,480.1L271.6,480.1z"/>
	</g>
	<path fill="#656666" d="M268.6,500.6c-0.699,0.101-1.699,1.7-1.899,2c-0.2,0.301-1.4,1.2-2.9,0.2c-1.399-1-4.899-3.5-5.5-4
		c-1.3-1,0.4-2.7,0.9-3.3s4.899-4.4,16.6,4.1C287.6,508,285.4,513.4,285,514c-0.5,0.6-1.5,2.8-2.9,1.9c-0.6-0.4-4.1-2.9-5.5-4
		c-1.399-1-1-2.5-0.8-2.801c0.2-0.3,1.4-1.699,1.3-2.399c-0.1-0.7-2.3-3-3.6-3.9C272.2,501.8,269.3,500.5,268.6,500.6z"/>
</g>
<g>
	<circle fill="#DF0A22" cx="336" cy="505.2" r="25.1"/>
	<g>
		<polygon fill="#FFFFFF" points="321.2,513.3 331.3,513.3 331.3,518.4 339.4,510.3 331.3,502.2 331.3,507.2 321.2,507.2 		"/>
		<polygon fill="#FFFFFF" points="340.7,508.1 340.7,503.1 350.8,503.1 350.8,497 340.7,497 340.7,491.9 332.6,500 		"/>
	</g>
</g>
<g>
	<g>
		<path fill="#656666" d="M400.5,481.1c13.3,0,24,10.8,24,24c0,13.301-10.8,24-24,24s-24-10.8-24-24
			C376.5,491.9,387.2,481.1,400.5,481.1 M400.5,480.1c-13.8,0-25.1,11.2-25.1,25.1c0,13.8,11.199,25.1,25.1,25.1
			c13.8,0,25.1-11.2,25.1-25.1C425.6,491.3,414.3,480.1,400.5,480.1L400.5,480.1z"/>
	</g>
	<g>
		<polygon fill="#656666" points="385.7,513.3 395.8,513.3 395.8,518.4 403.9,510.3 395.8,502.2 395.8,507.2 385.7,507.2 		"/>
		<polygon fill="#656666" points="405.2,508.1 405.2,503.1 415.3,503.1 415.3,497 405.2,497 405.2,491.9 397.1,500 		"/>
	</g>
</g>
<g>
	<circle fill="#DF0A22" cx="466.1" cy="505.2" r="25"/>
	<g>
		
			<rect x="471.772" y="495.898" transform="matrix(-0.6556 -0.7551 0.7551 -0.6556 406.1406 1186.9187)" fill="#FFFFFF" width="3.899" height="9.9"/>
		<polygon fill="#FFFFFF" points="455.1,500.9 457.8,498.7 465.9,508.4 465.9,519.7 469.8,519.7 469.8,507 460.8,496.2 463.5,493.9 
			453.7,490.6 		"/>
	</g>
</g>
<g>
	<g>
		<path fill="#656666" d="M528.5,481.1c13.3,0,24,10.8,24,24c0,13.301-10.8,24-24,24c-13.3,0-24-10.8-24-24
			C504.4,491.9,515.2,481.1,528.5,481.1 M528.5,480.1c-13.8,0-25.1,11.2-25.1,25.1c0,13.8,11.199,25.1,25.1,25.1
			c13.8,0,25.1-11.2,25.1-25.1C553.5,491.3,542.3,480.1,528.5,480.1L528.5,480.1z"/>
	</g>
	<g>
		
			<rect x="533.916" y="495.94" transform="matrix(-0.6565 -0.7544 0.7544 -0.6565 509.7923 1233.9419)" fill="#656666" width="3.901" height="9.9"/>
		<polygon fill="#656666" points="517.4,500.9 520.1,498.7 528.2,508.4 528.2,519.7 532.1,519.7 532.1,507 523.1,496.2 525.9,493.9 
			516,490.6 		"/>
	</g>
</g>
<polygon id="polygon4578-1_1_" fill="#FFFFFF" points="51.2,307.7 60,298.9 68.7,307.5 69.4,306.8 60,297.4 50.4,307 "/>
<polygon id="polygon4578-1-1_1_" fill="#FFFFFF" points="60,356.1 50.4,346.6 51.2,345.9 60,354.7 68.7,346 69.4,346.7 "/>
<polygon id="polygon4578-1_2_" fill="#DF0A22" points="10.3,586.5 1.5,577.6 10.1,569 9.4,568.3 0,577.6 9.6,587.3 "/>
<polygon id="polygon4578-1_3_" fill="#FFFFFF" points="10.3,562.5 1.5,553.6 10.1,544.9 9.4,544.2 0,553.6 9.6,563.2 "/>
<rect x="24.7" y="606.3" fill="none" stroke="#DF0A22" stroke-miterlimit="10" width="5.399" height="8"/>
<line fill="none" stroke="#DF0A22" stroke-miterlimit="10" x1="16.8" y1="599.2" x2="16.8" y2="620.9"/>
<path fill="none" stroke="#DF0A22" stroke-width="2" stroke-miterlimit="10" d="M14.2,603.8c0,0-5.5,6.4,0,13"/>
<path fill="none" stroke="#DF0A22" stroke-width="2" stroke-miterlimit="10" d="M9.8,600.3c0,0-8.2,7.3,0,19.5"/>
<path fill="none" stroke="#DF0A22" stroke-width="2" stroke-miterlimit="10" d="M5.3,596.7c0,0-9.899,11.2,0,26"/>
<line fill="none" stroke="#DF0A22" stroke-miterlimit="10" x1="24.7" y1="606.3" x2="16.9" y2="599.7"/>
<line fill="none" stroke="#DF0A22" stroke-miterlimit="10" x1="24.7" y1="614.3" x2="16.9" y2="620.5"/>
<g id="Your_Icon">
	<path fill="#B3B3B3" d="M182.3,596.1v3.7v8.3h5v5.4c0,0.7,0.3,1.3,0.7,1.8c0.4,0.4,1.1,0.7,1.8,0.7H208.4c0.699,0,1.3-0.3,1.8-0.7
		c0.399-0.399,0.7-1.1,0.7-1.8v-5.4h4.6v-8.3v-3.7c0-2.3-1.9-4.1-4.1-4.1H211v-9.1c0-0.7-0.3-1.301-0.7-1.801
		c-0.399-0.399-1.1-0.699-1.8-0.699h-14.1c-0.301,0-0.601,0-0.801,0.1c-0.3,0.1-0.5,0.1-0.8,0.3c-0.5,0.2-1,0.5-1.399,0.9l0,0
		l-2.801,2.8c-0.3,0.3-0.5,0.6-0.699,1c-0.2,0.4-0.301,0.8-0.4,1.2c-0.1,0.3-0.1,0.5-0.1,0.8v4.6H186.6
		C184.1,591.9,182.3,593.8,182.3,596.1z M193.5,586.6H190c0.1-0.199,0.2-0.399,0.3-0.399l0,0l2.8-2.8c0.101-0.101,0.2-0.2,0.4-0.301
		l0,0V586.6z M208.4,591.9H189.8V588.6h5.8V588.2v-1.7v-3.7H208.4V591.9z M189.7,608.1v-5h18.6v5v5.4h-18.6V608.1z M184.6,595.3
		c0-0.6,0.5-1.1,1.101-1.1c0.6,0,1.1,0.5,1.1,1.1c0,0.601-0.5,1.101-1.1,1.101C185.1,596.5,184.6,596,184.6,595.3z"/>
</g>
<path id="path4484_1_" opacity="0.6" enable-background="new    " d="M133.6,605.4c-0.3,1,0,2.399,0.7,3.1l2,2
	c0.3,0.4,1.4,0.6,1.4,0.6c6.399,0.101,12.5-2.399,17-6.899s7-10.601,6.899-17c0,0-0.199-1-0.6-1.4l-2-2c-0.7-0.7-2.1-1-3.1-0.7
	l-0.4,0.101c-1,0.3-2,1.399-2.3,2.399l-1,3.7c-0.3,1,0.1,2.5,0.8,3.2l1.3,1.3c-1.3,4.9-5.1,8.7-10,10l-1.3-1.3
	c-0.8-0.7-2.2-1.1-3.2-0.8l-3.7,1c-1,0.3-2.1,1.3-2.399,2.3L133.6,605.4"/>
<circle fill="#DF0A22" cx="110.9" cy="598.6" r="12.3"/>
<polyline fill="none" stroke="#FFFFFF" stroke-miterlimit="10" points="117.8,599.6 114.3,603.4 104,592.9 "/>
<polyline fill="none" stroke="#626466" stroke-miterlimit="10" points="70.6,595.3 74.6,595.3 74.6,603.1 66.7,603.1 66.7,599.2 "/>
<path fill="none" stroke="#626466" stroke-miterlimit="10" d="M65.4,593.1"/>
<line fill="none" stroke="#626466" stroke-miterlimit="10" x1="69.9" y1="598.5" x2="65.1" y2="593.7"/>
<line fill="none" stroke="#626466" stroke-miterlimit="10" x1="65.3" y1="594" x2="65.4" y2="596.6"/>
<line fill="none" stroke="#626466" stroke-miterlimit="10" x1="65.4" y1="593.9" x2="68" y2="594"/>
<polygon id="polygon4530_1_" fill="none" stroke="#FFFFFF" stroke-miterlimit="10" points="89,229.5 103.2,218.8 103.2,240.1 "/>
<path id="path3527_1_" fill="#FFFFFF" d="M25.1,0.1c-13.8,0-25,11.2-25,25c0,13.8,11.2,25,25,25c13.801,0,25-11.2,25-25
	C50.1,11.3,38.8,0.1,25.1,0.1 M25.1,49.2C11.8,49.2,0.9,38.4,0.9,25.1C0.9,11.8,11.7,1,25,1s24.2,10.8,24.2,24.1
	C49.2,38.4,38.3,49.2,25.1,49.2"/>
<path id="path3527_2_" fill="#DF0A22" d="M525,0.1c-13.8,0-25,11.2-25,25c0,13.8,11.2,25,25,25s25-11.2,25-25
	C550,11.3,538.8,0.1,525,0.1 M525,49.2c-13.3,0-24.1-10.8-24.1-24.1C500.9,11.8,511.7,1,525,1s24.1,10.8,24.1,24.1
	C549.1,38.4,538.3,49.2,525,49.2"/>
<path id="path3527_3_" fill="#DF0A22" d="M939.3,80.4c-13.8,0-25,11.2-25,25c0,13.8,11.2,25,25,25s25-11.2,25-25
	C964.3,91.6,953.1,80.4,939.3,80.4 M939.3,129.5c-13.3,0-24.1-10.8-24.1-24.1c0-13.3,10.8-24.1,24.1-24.1S963.4,92.1,963.4,105.4
	C963.4,118.7,952.6,129.5,939.3,129.5"/>
<path id="path3527_4_" fill="#DF0A22" d="M881.7,80.1c-13.8,0-25,11.2-25,25c0,13.8,11.2,25,25,25s25-11.2,25-25
	C906.7,91.3,895.5,80.1,881.7,80.1 M881.7,129.2c-13.3,0-24.101-10.8-24.101-24.1C857.6,91.8,868.4,81,881.7,81s24.1,10.8,24.1,24.1
	C905.8,118.4,895,129.2,881.7,129.2"/>
<path id="path3527_5_" fill="#DF0A22" d="M826.4,80.1c-13.801,0-25,11.2-25,25c0,13.8,11.199,25,25,25c13.8,0,25-11.2,25-25
	C851.4,91.3,840.2,80.1,826.4,80.1 M826.4,129.2c-13.301,0-24.101-10.8-24.101-24.1c0-13.3,10.8-24.1,24.101-24.1
	c13.3,0,24.1,10.8,24.1,24.1C850.5,118.4,839.7,129.2,826.4,129.2"/>
<path id="path3527_6_" fill="#DF0A22" d="M768.4,80.1c-13.801,0-25,11.2-25,25c0,13.8,11.199,25,25,25c13.8,0,25-11.2,25-25
	C793.4,91.3,782.2,80.1,768.4,80.1 M768.4,129.2c-13.301,0-24.101-10.8-24.101-24.1c0-13.3,10.8-24.1,24.101-24.1
	c13.3,0,24.1,10.8,24.1,24.1C792.5,118.4,781.7,129.2,768.4,129.2"/>
<path id="path3527_7_" fill="#FFFFFF" d="M716.1,80.1c-13.8,0-25,11.2-25,25c0,13.8,11.2,25,25,25c13.801,0,25-11.2,25-25
	C741.1,91.3,729.9,80.1,716.1,80.1 M716.1,129.2c-13.3,0-24.1-10.8-24.1-24.1c0-13.3,10.8-24.1,24.1-24.1
	C729.4,81,740.2,91.8,740.2,105.1C740.2,118.4,729.4,129.2,716.1,129.2"/>
<path id="path3527_8_" fill="#FFFFFF" d="M600.7,80.1c-13.8,0-25,11.2-25,25c0,13.8,11.2,25,25,25s25-11.2,25-25
	C625.7,91.3,614.5,80.1,600.7,80.1 M600.7,129.2c-13.3,0-24.101-10.8-24.101-24.1C576.6,91.8,587.4,81,600.7,81s24.1,10.8,24.1,24.1
	C624.8,118.4,614,129.2,600.7,129.2"/>
<path id="path3527_9_" fill="#FFFFFF" d="M485.7,80.1c-13.8,0-25,11.2-25,25c0,13.8,11.2,25,25,25s25-11.2,25-25
	C510.7,91.3,499.5,80.1,485.7,80.1 M485.7,129.2c-13.3,0-24.101-10.8-24.101-24.1C461.6,91.8,472.4,81,485.7,81s24.1,10.8,24.1,24.1
	C509.8,118.4,499,129.2,485.7,129.2"/>
<path id="path3527_10_" fill="#DF0A22" d="M370.6,80.1c-13.8,0-25,11.2-25,25c0,13.8,11.2,25,25,25c13.801,0,25-11.2,25-25
	C395.6,91.3,384.4,80.1,370.6,80.1 M370.6,129.2c-13.3,0-24.1-10.8-24.1-24.1c0-13.3,10.8-24.1,24.1-24.1
	C383.9,81,394.7,91.8,394.7,105.1C394.7,118.4,383.9,129.2,370.6,129.2"/>
<path id="path3527_11_" fill="#FFFFFF" d="M313,80.1c-13.8,0-25,11.2-25,25c0,13.8,11.2,25,25,25s25-11.2,25-25
	C338,91.3,326.8,80.1,313,80.1 M313,129.2c-13.3,0-24.1-10.8-24.1-24.1c0-13.3,10.8-24.1,24.1-24.1s24.1,10.8,24.1,24.1
	C337.1,118.4,326.3,129.2,313,129.2"/>
<path id="path3527_12_" fill="#DF0A22" d="M255.4,80.1c-13.801,0-25,11.2-25,25c0,13.8,11.199,25,25,25c13.8,0,25-11.2,25-25
	C280.4,91.3,269.2,80.1,255.4,80.1 M255.4,129.2c-13.301,0-24.101-10.8-24.101-24.1c0-13.3,10.8-24.1,24.101-24.1
	c13.3,0,24.1,10.8,24.1,24.1C279.5,118.4,268.7,129.2,255.4,129.2"/>
<path id="path3527_13_" fill="#DF0A22" d="M140.2,80.1c-13.8,0-25,11.2-25,25c0,13.8,11.2,25,25,25s25-11.2,25-25
	C165.2,91.3,154,80.1,140.2,80.1 M140.2,129.2c-13.3,0-24.101-10.8-24.101-24.1C116.1,91.8,126.9,81,140.2,81s24.1,10.8,24.1,24.1
	C164.3,118.4,153.5,129.2,140.2,129.2"/>
<path id="path3527_14_" fill="#FFFFFF" d="M135.3,143.5c-13.5,0-24.5,11-24.5,24.5s11,24.5,24.5,24.5s24.5-11,24.5-24.5
	C159.9,154.4,148.9,143.5,135.3,143.5 M135.3,191.6c-13,0-23.6-10.6-23.6-23.6s10.6-23.6,23.6-23.6S158.9,155,158.9,168
	C159,181,148.4,191.6,135.3,191.6"/>
<path id="path3527_15_" fill="#FFFFFF" d="M236,143.6c-13.8,0-25,11.2-25,25c0,13.8,11.2,25,25,25s25-11.2,25-25
	C261,154.8,249.8,143.6,236,143.6 M236,192.7c-13.3,0-24.1-10.8-24.1-24.1c0-13.3,10.8-24.1,24.1-24.1s24.1,10.8,24.1,24.1
	C260.1,181.9,249.3,192.7,236,192.7"/>
<path id="path3527_16_" fill="#FFFFFF" d="M98.4,204.2c-13.801,0-25,11.2-25,25c0,13.8,11.199,25,25,25c13.8,0,25-11.2,25-25
	C123.4,215.4,112.1,204.2,98.4,204.2 M98.4,253.2C85.1,253.2,74.3,242.4,74.3,229.1c0-13.3,10.8-24.1,24.101-24.1
	c13.3,0,24.1,10.8,24.1,24.1C122.4,242.5,111.7,253.2,98.4,253.2"/>
<circle fill="#DF0A22" cx="599.4" cy="503.7" r="25"/>
<path fill="#FFFFFF" d="M586.3,502.5l2,3.4h2.101V504h2v1.9h2V504.1h2v1.9h2v-1.9h1.8c0.5,2.101,2.5,1.9,2.5,1.9l0,0
	c1,2.4,3,4.1,5.5,4.1c3.3,0,6-3.199,6-7c0-3.899-2.7-7-6-7c-2.101,0-4,1.3-5.101,3.2l0,0h-14.8L586.3,502.5z M609.2,502.7
	c0-0.8,0.7-1.5,1.5-1.5s1.5,0.7,1.5,1.5s-0.7,1.5-1.5,1.5S609.2,503.5,609.2,502.7z"/>
<g>
	<path fill="#DF0A22" d="M542.3,158.1L542.3,158.1l4.601,21.3c0.1,0.3,0.3,0.5,0.6,0.5l0,0c0.3,0,0.5-0.2,0.6-0.4l2.301-8.5l8.5,2.3
		c0.1,0,0.1,0,0.199,0c0.2,0,0.4-0.1,0.5-0.3c0.101-0.2,0.101-0.6-0.1-0.7l-16.1-14.6l0,0c0,0-0.101,0-0.101-0.1h-0.1H543.1H543
		h-0.1H542.8l0,0c0,0,0,0-0.1,0c0,0-0.1,0-0.1,0.1l0,0c0,0,0,0-0.101,0.1l-0.1,0.1c0,0,0,0,0,0.1v0.1c0,0,0,0,0,0.1
		C542.3,158,542.3,158,542.3,158.1z"/>
	<g>
		<path fill="#DF0A22" d="M550,144.6c13.2,0,24,10.8,24,24c0,13.2-10.8,24-24,24s-24-10.8-24-24C526,155.4,536.7,144.6,550,144.6
			 M550,143.6c-13.8,0-25,11.2-25,25c0,13.8,11.2,25,25,25s25-11.2,25-25C575,154.8,563.8,143.6,550,143.6L550,143.6z"/>
	</g>
</g>
<g>
	<g>
		<g>
			<g>
				<g>
					<g>
						<g>
							<g>
								<g>
									<g>
										<g>
											<g>
												<polygon fill="none" points="253.5,315.4 255.1,317.1 246.6,325.6 238.1,317.1 239.7,315.4 246.6,322.3 												"/>
											</g>
										</g>
									</g>
								</g>
							</g>
						</g>
					</g>
				</g>
			</g>
		</g>
	</g>
</g>
<polygon id="polygon4578-1_5_" fill="#656666" points="10.3,660.7 1.5,651.9 10.1,643.2 9.4,642.5 0,651.9 9.6,661.5 "/>
<polygon id="polygon4530_2_" fill="none" stroke="#FFFFFF" stroke-width="2" stroke-miterlimit="10" points="633.5,194.1 
	663.3,171.6 663.3,216.3 "/>
<path id="path4552_19_" fill="#FFFFFF" d="M653.1,141.6c-28.699,0-52,23.3-52,52c0,28.7,23.301,52,52,52c28.7,0,52-23.3,52-52
	C705.1,164.9,681.8,141.6,653.1,141.6 M653.1,243.8c-27.699,0-50.1-22.5-50.1-50.1c0-27.6,22.5-50.1,50.1-50.1
	c27.601,0,50.101,22.5,50.101,50.1C703.2,221.3,680.7,243.8,653.1,243.8"/>
<g display="none" opacity="0.4" enable-background="new    ">
	<g display="inline">
		<g>
			<g>
				<g>
					<g>
						<g>
							<g>
								<g>
									<g>
										<defs>
											<rect id="SVGID_2_" x="1215.6" y="-406.6" width="35" height="35"/>
										</defs>
										<clipPath id="SVGID_4_">
											<use xlink:href="#SVGID_2_"  overflow="visible"/>
										</clipPath>
										<rect x="1210.6" y="-411.6" clip-path="url(#SVGID_4_)" width="45" height="45"/>
									</g>
								</g>
							</g>
						</g>
					</g>
				</g>
			</g>
		</g>
	</g>
</g>
<g>
	<g>
		<g>
			<g>
				<g>
					<g>
						<g>
							<g>
								<g>
									<g>
										<g>
											<defs>
												<path id="SVGID_5_" d="M252.3,601l2.7-2.6l4.6,4.6l2-2v5.2c0,0,0,1.3-1.399,1.3H255l1.9-1.9L252.3,601z M249.8,593.1
													l-2.7,2.601l-4.6-4.601l-2,2V587.9c0,0,0-1.301,1.4-1.301h5.199l-1.899,1.9L249.8,593.1z"/>
											</defs>
											<clipPath id="SVGID_6_">
												<use xlink:href="#SVGID_5_"  overflow="visible"/>
											</clipPath>
											<rect x="235.6" y="581.5" clip-path="url(#SVGID_6_)" fill="#FFFFFF" width="31" height="31"/>
										</g>
									</g>
								</g>
							</g>
						</g>
					</g>
				</g>
			</g>
		</g>
	</g>
</g>
<g>
	<path fill="#FFFFFF" d="M459.4,600.3c0,11.8,9.6,21.4,21.399,21.4s21.4-9.601,21.4-21.4S492.6,578.9,480.8,578.9
		S459.4,588.5,459.4,600.3z M468.4,593.1l1.899-1.899l15.3,15.3l5.4-5.4l2.1,2.101l-7.3,7.2L468.4,593.1z"/>
</g>
<g>
	<circle opacity="0.15" enable-background="new    " cx="412.5" cy="614.8" r="34.3"/>
</g>
<g>
	<path fill="#FFFFFF" d="M376.9,614.8c0,19.601,15.899,35.601,35.6,35.601c19.6,0,35.6-15.9,35.6-35.601s-15.899-35.6-35.6-35.6
		C392.8,579.3,376.9,595.2,376.9,614.8z M378.1,614.8c0-18.899,15.4-34.3,34.301-34.3c18.899,0,34.3,15.4,34.3,34.3
		c0,18.9-15.3,34.3-34.2,34.3S378.1,633.8,378.1,614.8z"/>
</g>
<g>
	<path fill="#FFFFFF" d="M408.9,603.4c0,0-18.5,7.699,2,10.699c0-3.899,0-3.899,0-3.899l15,8l-15,7.899v-4c0,0-8.5,1-13-7
		c0,0-0.801-2.699,0-5.899C398.7,606,405.9,604,408.9,603.4z"/>
</g>
<g>
	
		<circle opacity="0.15" stroke="#FFFFFF" stroke-width="0.5" stroke-miterlimit="10" enable-background="new    " cx="332.6" cy="614.8" r="34.3"/>
</g>
<g>
	<path fill="#FFFFFF" d="M336.2,626.3c0,0,18.5-7.7-2-10.7c0,3.9,0,3.9,0,3.9l-15-8l15-7.9v4c0,0,8.5-1,13,7c0,0,0.8,2.7,0,5.9
		S339.2,625.6,336.2,626.3z"/>
</g>
<g>
	<path fill="#FFFFFF" d="M297.1,614.9c0,19.6,15.9,35.6,35.601,35.6c19.6,0,35.6-15.9,35.6-35.6c0-19.7-15.899-35.601-35.6-35.601
		C313,579.4,297.1,595.3,297.1,614.9z M298.3,614.9c0-18.9,15.4-34.301,34.3-34.301c18.9,0,34.301,15.4,34.301,34.301
		c0,18.899-15.4,34.3-34.301,34.3C313.7,649.2,298.3,633.9,298.3,614.9z"/>
</g>
<circle fill="none" stroke="#FFFFFF" stroke-width="1.5" stroke-miterlimit="10" cx="562.1" cy="591.6" r="11.3"/>
<g>
	<line fill="none" stroke="#FFFFFF" stroke-width="1.5" stroke-miterlimit="10" x1="554.5" y1="600" x2="545.9" y2="608"/>
</g>
<g>
	<polygon id="polygon4544_3_" fill="#FFFFFF" points="556.3,592.1 561.8,592.1 561.8,597.6 562.8,597.6 562.8,592.1 568.2,592.1 
		568.2,591.1 562.8,591.1 562.8,585.7 561.8,585.7 561.8,591.1 556.3,591.1 	"/>
</g>
<g>
	<g>
		<circle fill="none" stroke="#FFFFFF" stroke-width="1.5" stroke-miterlimit="10" cx="603.2" cy="591.6" r="11.3"/>
	</g>
	<g>
		<g>
			<line fill="none" stroke="#FFFFFF" stroke-width="1.5" stroke-miterlimit="10" x1="595.6" y1="600" x2="587" y2="608"/>
		</g>
		<g>
			<g>
				<rect id="rect4538_2_" x="597.4" y="591.2" fill="#FFFFFF" width="11.899" height="0.899"/>
			</g>
		</g>
	</g>
</g>
<path id="path4550_1_" fill="#FFFFFF" stroke="#FFFFFF" stroke-width="2.5" stroke-miterlimit="10" d="M813.1,584
	c-15,0-27.1,12.1-27.1,27.1s12.1,27.101,27.1,27.101C828,638.2,840.2,626.1,840.2,611.1C840.1,596.1,828,584,813.1,584 M813.1,637.2
	c-14.399,0-26.1-11.7-26.1-26.101c0-14.399,11.7-26.1,26.1-26.1c14.4,0,26.101,11.7,26.101,26.1
	C839.2,625.5,827.5,637.2,813.1,637.2"/>
<g id="Layer_1_3_" xmlns:dc="http://purl.org/dc/elements/1.1/" xmlns:cc="http://creativecommons.org/ns#" xmlns:rdf="http://www.w3.org/1999/02/22-rdf-syntax-ns#" xmlns:svg="http://www.w3.org/2000/svg" xmlns:sodipodi="http://sodipodi.sourceforge.net/DTD/sodipodi-0.dtd" xmlns:inkscape="http://www.inkscape.org/namespaces/inkscape" inkscape:version="0.48.5 r10040" sodipodi:docname="icons.svg">
	<g>
		<polygon id="SVGID_3_" fill="#FFFFFF" points="809,611.1 818.1,620.1 815.9,622.3 804.7,611.1 815.9,599.9 818.1,602.1 		"/>
	</g>
</g>
<path fill="#FFFFFF" d="M718,611.1c0,15,12.1,27.101,27.1,27.101S772.2,626.1,772.2,611.1S760.1,584,745.1,584S718,596.1,718,611.1z
	 M736.7,611.1l11.2-11.199l2.199,2.199l-9,9l9,9l-2.199,2.2L736.7,611.1z"/>
<g>
	<g>
		<path fill="#DF0A22" d="M80.9,681.6c13.199,0,23.899,10.7,23.899,23.9S94.1,729.4,80.9,729.4C67.7,729.4,57,718.8,57,705.6
			C57,692.4,67.7,681.6,80.9,681.6 M80.9,680.6c-13.801,0-25,11.2-25,25c0,13.801,11.199,25,25,25c13.8,0,25-11.199,25-25
			C105.9,691.8,94.7,680.6,80.9,680.6L80.9,680.6z"/>
	</g>
	<g>
		<path fill="#DF0A22" d="M66.9,699.9c-0.5,0.6-0.7,1.5-0.7,1.5s-0.601,0.8-0.9,1.199C65,703,65,704,65,704.5c0,0.6,0.2,6.5,0.2,6.5
			v2.8c0,0.4,0.399,0.8,0.8,0.8h2.6c0.5,0,0.801-0.399,0.801-0.8v-1.7c0.699,0.2,1.199,0.301,1.5,0.301
			c0.899,0.1,1.6-0.101,1.6-0.101c0.2,0,1.6,0,3.1,0l5-2.6c0.2-0.101,0.301-0.101,0.5-0.101c-0.3-1.399-0.199-2.899,0.2-4.3
			c0.7-2.2,2.2-4,4.2-5.1c1.2-0.7,2.6-1,4-1c1,0,2,0.2,3,0.5c0.1-0.2,0.3-0.601,1-0.7c0.8-0.1,1.5-0.3,1.5-0.9
			c0-0.6-0.4-0.899-0.9-1c-0.5-0.1-2-0.399-2.1,0.2c-0.1,0.601-0.1,1,0.1,1.3l-0.5,0.5c0,0-0.3-0.3-0.399-0.699
			c-0.101-0.4-0.7-2.301-2-4.101c-1-1.5-1.3-1.6-1.7-1.6c-0.3,0-2.3-0.4-7.9-0.4c-5.6,0-7.6,0.4-7.899,0.4
			c-0.301,0-0.601,0.1-1.7,1.6c-1.3,1.9-1.9,3.7-2,4.101c-0.101,0.399-0.4,0.699-0.4,0.699l-0.5-0.5
			c0.101-0.3,0.101-0.699,0.101-1.3c-0.101-0.6-1.5-0.3-2.101-0.2c-0.5,0.101-0.899,0.4-0.899,1c0,0.601,0.699,0.7,1.5,0.9
			C66.7,699.2,66.9,699.9,66.9,699.9z M67.5,701.9c1.1,0.6,5.1,1.6,5.3,1.699c0.2,0.101,0.3,0.2,0.101,0.301
			c-0.2,0.199-1.2,0.899-1.2,0.899c-4.2-0.3-4.601-0.899-4.601-0.899C66.6,702.5,67.5,701.9,67.5,701.9z"/>
		<path fill="#DF0A22" d="M82.1,710.2l1.301,2.5c1.5,1.899,3.699,3,6.199,3c1.301,0,2.5-0.3,3.601-0.9c1.899-1,3.2-2.6,3.8-4.6
			s0.4-4.101-0.6-6c-1.4-2.601-4-4.2-6.9-4.2c-1.3,0-2.5,0.3-3.6,0.9c-1.9,1-3.2,2.6-3.801,4.6C81.6,707.1,81.6,708.7,82.1,710.2z
			 M83.3,705.9c0.5-1.7,1.7-3.101,3.2-3.9c0.9-0.5,2-0.8,3.1-0.8c2.5,0,4.7,1.399,5.801,3.5c0.8,1.6,1,3.3,0.5,5s-1.7,3.1-3.2,3.899
			c-1,0.5-2,0.801-3.101,0.801c-2.5,0-4.699-1.4-5.8-3.5C82.9,709.4,82.7,707.6,83.3,705.9z"/>
		<path fill="#DF0A22" d="M84.4,705.9c0.399-0.5,1-0.9,1.6-1.2c2.7-1.4,6-0.4,7.5,2.3c0.8,1.5,0.8,3.1,0.3,4.6
			c1.5-1.699,1.9-4.1,0.8-6.199c-1.399-2.7-4.8-3.7-7.5-2.301C85.8,703.6,84.9,704.7,84.4,705.9z"/>
		<path fill="#DF0A22" d="M70.9,715.8c0,0.101,0,0.2,0,0.3L72.3,718.7c0.101,0.1,0.2,0.2,0.4,0.2c0.1,0,0.1,0,0.2-0.101l9.8-5.2
			c0.2-0.1,0.3-0.399,0.2-0.6l-1.301-2.6c-0.1-0.101-0.199-0.2-0.3-0.2c-0.1,0-0.2,0-0.3,0l-9.8,5.2C71,715.6,70.9,715.6,70.9,715.8
			z"/>
	</g>
</g>
<path id="path4552_20_" fill="#DF0A22" d="M25,680.6c-13.8,0-25,11.2-25,25c0,13.801,11.2,25,25,25s25-11.199,25-25
	C50,691.8,38.8,680.6,25,680.6 M25,729.7c-13.3,0-24.1-10.8-24.1-24.101c0-13.3,10.8-24.1,24.1-24.1s24.1,10.8,24.1,24.1
	C49.1,718.9,38.3,729.7,25,729.7"/>
<g>
	<path fill="#DF0A22" d="M36.3,716.6c0.5-0.5,0.7-1.1,0.7-1.8s-0.3-1.3-0.7-1.8L23.9,700.5l0.1-0.3c0.9-2.5,0.3-5.2-1.6-7.101
		c-1.301-1.3-3-2-4.801-2c-0.5,0-0.899,0-1.399,0.101l4.1,4.1v3.101l-2.2,2.199H15l-4.1-4.1c-0.5,2.2,0.199,4.5,1.8,6.2
		c1.3,1.3,3,2,4.8,2c0.8,0,1.6-0.101,2.3-0.4l0.4-0.1L32.6,716.6c0.5,0.5,1.101,0.7,1.801,0.7C35.2,717.3,35.9,717.1,36.3,716.6z"/>
</g>
<polygon fill="#DF0A22" points="28.2,714.1 19.4,705.3 14.1,705.3 11.5,707.8 22.6,719.5 "/>
<polygon fill="#DF0A22" points="25.7,700.4 34,708.6 36.6,706.2 38.8,698.5 33.3,692.6 25.4,694.6 "/>
<circle fill="#FFFFFF" cx="33.8" cy="697.3" r="1.2"/>
<g>
	<circle fill="#DF0A22" cx="661" cy="503.7" r="25"/>
	<g>
		<path fill="#FFFFFF" d="M661.7,494.3v19.4l0,0c0,0,2.3-2.5,5.6-2.9c0.5-0.1,1.101-0.1,1.601-0.1c2.8,0,4.899,0.8,4.899,0.8
			c0.3,0.1,0.7,0.1,0.9-0.1c0.3-0.2,0.399-0.5,0.399-0.801V494c0-0.4-0.3-0.8-0.699-1c-0.101,0-2.5-0.9-5.601-0.9
			c-0.6,0-1.2,0-1.8,0.1C664.8,492.3,662.9,493.4,661.7,494.3L661.7,494.3z"/>
		<path fill="#FFFFFF" d="M646.7,493.8v16.7c0,0.3,0.2,0.6,0.399,0.8c0.301,0.2,0.601,0.2,0.9,0.101c0,0,2.1-0.801,4.9-0.801
			c0.5,0,1.1,0,1.6,0.101c3.4,0.399,5.6,2.899,5.6,2.899l0,0V494.2c-1.199-0.9-3-2-5.399-2.2c-0.601-0.1-1.2-0.1-1.8-0.1
			c-3.101,0-5.5,0.9-5.601,0.9C647,493,646.7,493.4,646.7,493.8z"/>
	</g>
</g>
<g>
	<g>
		<path fill="#656666" d="M726.1,479.7c13.2,0,24,10.8,24,24s-10.8,24-24,24c-13.199,0-24-10.8-24-24S712.8,479.7,726.1,479.7
			 M726.1,478.7c-13.8,0-25,11.2-25,25c0,13.8,11.2,25,25,25c13.801,0,25-11.2,25-25C751.1,489.9,739.9,478.7,726.1,478.7
			L726.1,478.7z"/>
	</g>
	<g>
		<path fill="#656666" d="M725.3,495.3c-1.2-0.9-3-2-5.399-2.2c-0.601-0.1-1.2-0.1-1.801-0.1c-3.1,0-5.5,0.9-5.6,0.9
			c-0.4,0.1-0.7,0.5-0.7,1v16.6c0,0.3,0.2,0.6,0.4,0.8c0.3,0.2,0.6,0.2,0.899,0.101c0,0,2.101-0.801,4.9-0.801
			c0.5,0,1.1,0,1.6,0.101c3.4,0.399,5.601,2.899,5.601,2.899l0,0L725.3,495.3L725.3,495.3L725.3,495.3z"/>
		<path fill="#656666" d="M739.7,493.9c-0.101,0-2.5-0.9-5.601-0.9c-0.6,0-1.199,0-1.8,0.1c-2.3,0.3-4.2,1.3-5.399,2.2v19.4l0,0
			c0,0,2.199-2.5,5.6-2.9c0.5-0.1,1.1-0.1,1.6-0.1c2.7,0,4.9,0.8,4.9,0.8c0.3,0.1,0.7,0.1,0.9-0.1c0.199-0.2,0.399-0.5,0.399-0.801
			V495C740.3,494.4,740.1,494,739.7,493.9z"/>
	</g>
</g>
<g>
	<circle fill="#DF0A22" cx="788.6" cy="502.8" r="25"/>
	<g>
		<path fill="#FFFFFF" d="M789.6,493.7c0,0,0.101,0,0.101-0.1h6.399l-4.199,7c-0.2,0.4-0.101,0.9,0.3,1.101
			c0.399,0.2,0.899,0.1,1.1-0.3l4.2-7l4.2,7c0.1,0.199,0.399,0.399,0.7,0.399c0.1,0,0.3,0,0.399-0.1c0.4-0.2,0.5-0.7,0.3-1.101
			l-4.8-8.1l0,0v-0.1l0,0c-0.1-0.1-0.1-0.2-0.3-0.3l0,0c-0.1-0.1-0.2-0.1-0.4-0.1H790.7c0-0.1,0-0.1,0-0.1c0-1.1-0.9-2.1-2.101-2.1
			c-1.1,0-2.1,0.9-2.1,2.1c0,0.1,0,0.1,0,0.1h-6.9c-0.1,0-0.3,0-0.399,0.1l0,0c-0.101,0.1-0.2,0.1-0.301,0.3l0,0v0.1l0,0l-4.8,8.1
			c-0.2,0.4-0.1,0.9,0.3,1.101c0.4,0.2,0.9,0.1,1.101-0.3l4.199-7l4.2,7c0.101,0.199,0.4,0.399,0.7,0.399c0.1,0,0.3,0,0.4-0.1
			c0.399-0.2,0.5-0.7,0.3-1.101l-4.2-7h6.4c0,0,0.1,0,0.1,0.1v18.5c-3.3,0.2-6.4,1.1-9.1,2.6v1h20.199v-1
			c-2.699-1.5-5.8-2.399-9.1-2.6V493.7L789.6,493.7L789.6,493.7z"/>
		<path fill="#FFFFFF" d="M785.8,503.2c0-0.3-0.2-0.5-0.5-0.5h-11.2c-0.3,0-0.5,0.2-0.5,0.5c0,3.399,2.7,6.1,6.101,6.1
			C783,509.3,785.8,506.5,785.8,503.2z"/>
		<path fill="#FFFFFF" d="M803.1,502.7H792c-0.3,0-0.5,0.2-0.5,0.5c0,3.399,2.7,6.1,6.1,6.1c3.4,0,6.101-2.7,6.101-6.1
			C803.6,502.9,803.4,502.7,803.1,502.7z"/>
	</g>
</g>
<g>
	<g>
		<path fill="#656666" d="M852.7,479.8c13.2,0,24,10.8,24,24c0,13.2-10.8,24-24,24s-24-10.8-24-24
			C828.7,490.6,839.5,479.8,852.7,479.8 M852.7,478.8c-13.8,0-25,11.2-25,25s11.2,25,25,25s25-11.2,25-25
			C877.8,490,866.6,478.8,852.7,478.8L852.7,478.8z"/>
	</g>
	<g>
		<path fill="#656666" d="M853.8,494.7c0,0,0.101,0,0.101-0.1h6.399l-4.2,7c-0.199,0.4-0.1,0.9,0.301,1.101
			c0.399,0.2,0.899,0.1,1.1-0.3l4.2-7l4.2,7c0.1,0.199,0.399,0.399,0.699,0.399c0.101,0,0.301,0,0.4-0.1c0.4-0.2,0.5-0.7,0.3-1.101
			l-4.8-8.1l0,0v-0.1l0,0c-0.1-0.1-0.2-0.2-0.3-0.3l0,0c-0.101-0.1-0.2-0.1-0.4-0.1H854.9v-0.1c0-1.1-0.9-2.1-2.101-2.1
			c-1.1,0-2.1,0.9-2.1,2.1c0,0.1,0,0.1,0,0.1h-6.9c-0.1,0-0.3,0-0.399,0.1l0,0c-0.101,0.1-0.2,0.1-0.301,0.3l0,0v0.1l0,0l-4.8,8.1
			c-0.2,0.4-0.1,0.9,0.3,1.101c0.4,0.2,0.9,0.1,1.101-0.3l4.199-7l4.2,7c0.1,0.199,0.4,0.399,0.7,0.399c0.1,0,0.3,0,0.399-0.1
			c0.4-0.2,0.5-0.7,0.301-1.101l-4.2-7h6.4c0,0,0.1,0,0.1,0.1v18.5c-3.3,0.2-6.4,1.1-9.1,2.6v1h20.199v-1
			c-2.699-1.5-5.8-2.399-9.1-2.6V494.7L853.8,494.7L853.8,494.7z"/>
		<path fill="#656666" d="M849.9,504.2c0-0.3-0.2-0.5-0.5-0.5h-11.2c-0.3,0-0.5,0.2-0.5,0.5c0,3.399,2.7,6.1,6.1,6.1
			C847.2,510.3,849.9,507.6,849.9,504.2z"/>
		<path fill="#656666" d="M867.3,503.7h-11.2c-0.3,0-0.5,0.2-0.5,0.5c0,3.399,2.7,6.1,6.101,6.1c3.399,0,6.1-2.7,6.1-6.1
			C867.8,503.9,867.5,503.7,867.3,503.7z"/>
	</g>
</g>
<circle fill="#FFFFFF" stroke="#DF0A22" stroke-miterlimit="10" cx="129.3" cy="690.6" r="9.9"/>
<circle fill="#FFFFFF" stroke="#B3B3B3" stroke-miterlimit="10" cx="151.5" cy="690.6" r="9.9"/>
<circle fill="#DF0A22" cx="129.4" cy="686.9" r="0.9"/>
<line fill="none" stroke="#DF0A22" stroke-miterlimit="10" x1="129.3" y1="688.5" x2="129.3" y2="695.1"/>
<circle fill="#B3B3B3" cx="151.4" cy="686.9" r="0.9"/>
<line fill="none" stroke="#B3B3B3" stroke-miterlimit="10" x1="151.4" y1="688.5" x2="151.4" y2="695.1"/>
<g id="Layer_1_2_" xmlns:dc="http://purl.org/dc/elements/1.1/" xmlns:cc="http://creativecommons.org/ns#" xmlns:rdf="http://www.w3.org/1999/02/22-rdf-syntax-ns#" xmlns:svg="http://www.w3.org/2000/svg" xmlns:sodipodi="http://sodipodi.sourceforge.net/DTD/sodipodi-0.dtd" xmlns:inkscape="http://www.inkscape.org/namespaces/inkscape" inkscape:version="0.48.5 r10040" sodipodi:docname="icons.svg">
	<g>
		<polygon id="SVGID_1_" fill="#DF0A22" points="281.9,315.4 283.6,317.1 275,325.6 266.5,317.1 268.1,315.4 275,322.3 		"/>
	</g>
</g>
<g>
	<g>
		<g>
			<g>
				<g>
					<g>
						<g>
							<defs>
								<path id="SVGID_7_" d="M224.7,694.4L224.7,694.4l-4.5-3.9v2.3c0,0.8-0.8,1.601-1.5,1.601h-0.8H209.6h-0.8
									c-0.8,0-1.5-0.801-1.5-1.601V692v-9.3v-0.8c0-0.801,0.8-1.601,1.5-1.601h0.8h8.301h0.8c0.8,0,1.5,0.8,1.5,1.601v3.1l4.5-4.7
									c0,0,0.8,0.8,0.8,1.601V693.6L224.7,694.4z"/>
							</defs>
							<use xlink:href="#SVGID_7_"  overflow="visible" fill="#DF0A22"/>
							<clipPath id="SVGID_8_">
								<use xlink:href="#SVGID_7_"  overflow="visible"/>
							</clipPath>
							<g clip-path="url(#SVGID_8_)">
								<rect x="202.4" y="675.5" fill="#DF0A22" width="28" height="24"/>
							</g>
						</g>
					</g>
				</g>
			</g>
		</g>
	</g>
</g>
<g>
	<g>
		<g>
			<g>
				<g>
					<g>
						<g>
							<defs>
								<path id="SVGID_9_" d="M184.4,688.4c0.1-0.2,0.399-0.2,0.6-0.101l2.2,1.4c0.2,0.1,0.399,0.1,0.6-0.101l2.7-3.5
									c0.1-0.199,0.3-0.199,0.4,0l3.3,6.7c0.1,0.2,0,0.4-0.2,0.4h-12.9c-0.199,0-0.3-0.101-0.1-0.3L184.4,688.4z M184.3,684.7
									c0,0.7-0.5,1.3-1.2,1.3c-0.6,0-1.199-0.6-1.199-1.3s0.5-1.3,1.199-1.3C183.8,683.4,184.3,683.9,184.3,684.7z M195.3,694.2
									H180V682.1h15.3V694.2z M195.6,680.4h-16.1c-0.5,0-1,0.5-1,1v12.8c0,0.6,0.4,1,1,1h16.1c0.5,0,1-0.5,1-1v-12.7
									C196.6,680.9,196.2,680.4,195.6,680.4z"/>
							</defs>
							<use xlink:href="#SVGID_9_"  overflow="visible" fill="#DF0A22"/>
							<clipPath id="SVGID_10_">
								<use xlink:href="#SVGID_9_"  overflow="visible"/>
							</clipPath>
							<g clip-path="url(#SVGID_10_)">
								<rect x="173.6" y="675.4" fill="#DF0A22" width="28" height="24.899"/>
							</g>
						</g>
					</g>
				</g>
			</g>
		</g>
	</g>
</g>
<g enable-background="new    ">
	<g>
		<g>
			<g>
				<g>
					<g>
						<defs>
							<rect id="SVGID_11_" x="234.1" y="680.2" width="25" height="22"/>
						</defs>
						<clipPath id="SVGID_12_">
							<use xlink:href="#SVGID_11_"  overflow="visible"/>
						</clipPath>
						
							<line clip-path="url(#SVGID_12_)" fill="none" stroke="#979797" stroke-linecap="square" stroke-miterlimit="10" x1="236.1" y1="680.3" x2="258.1" y2="702.3"/>
					</g>
				</g>
				<g>
					<g>
						<defs>
							<rect id="SVGID_13_" x="234.1" y="680.2" width="25" height="22"/>
						</defs>
						<clipPath id="SVGID_14_">
							<use xlink:href="#SVGID_13_"  overflow="visible"/>
						</clipPath>
						
							<line clip-path="url(#SVGID_14_)" fill="none" stroke="#979797" stroke-linecap="square" stroke-miterlimit="10" x1="257.1" y1="680.3" x2="235.1" y2="702.3"/>
					</g>
				</g>
			</g>
		</g>
	</g>
</g>
<g>
	<circle fill="none" stroke="#DF0A22" stroke-width="2" stroke-miterlimit="10" cx="287.7" cy="693.6" r="13"/>
</g>
<g>
	<g>
		<path fill="#DF0A22" d="M286.1,689.6l5.4,4.101l-5.4,4.2v-4.2V689.6 M284.6,686.6v2.2v5v5.101v2.1l9.4-7.2L284.6,686.6
			L284.6,686.6z"/>
	</g>
</g>
</svg>
