<?xml version="1.0" encoding="utf-8"?>
<!-- Generator: Adobe Illustrator 15.1.0, SVG Export Plug-In . SVG Version: 6.00 Build 0)  -->
<!DOCTYPE svg PUBLIC "-//W3C//DTD SVG 1.1//EN" "http://www.w3.org/Graphics/SVG/1.1/DTD/svg11.dtd">
<svg version="1.1" id="Layer_1" xmlns="http://www.w3.org/2000/svg" xmlns:xlink="http://www.w3.org/1999/xlink" x="0px" y="0px"
	 width="1000px" height="1000px" viewBox="0 0 1000 1000" enable-background="new 0 0 1000 1000" xml:space="preserve">
<g id="Layer_4" display="none">
	<rect x="1124.1" y="-1895.7" display="inline" fill="#303089" width="1369.4" height="1172.9"/>
</g>
<g id="Layer_5" display="none">
</g>
<path id="path4458" fill="#DF0A22" d="M135.8,91.3c-5.2,0-9.4,4.2-9.4,9.4s4.2,9.4,9.4,9.4c5.2,0,9.4-4.2,9.4-9.4
	S141,91.3,135.8,91.3 M135.8,106.2c-3,0-5.5-2.5-5.5-5.5s2.5-5.5,5.5-5.5s5.5,2.5,5.5,5.5S138.8,106.2,135.8,106.2"/>
<rect id="rect4460" x="144.432" y="104.298" transform="matrix(0.7069 -0.7074 0.7074 0.7069 -35.9386 136.6753)" fill="#DF0A22" width="5.001" height="14.801"/>
<g id="g4464">
	<path id="path4466" fill="#DF0A22" d="M193.4,95.2c-3,0-5.5,2.5-5.5,5.5s2.5,5.5,5.5,5.5s5.5-2.5,5.5-5.5S196.4,95.2,193.4,95.2"/>
	<path id="path4468" fill="#DF0A22" d="M197.8,80.1c-13.7,0-24.9,11.1-24.9,24.9c0,13.8,11.1,24.9,24.9,24.9
		c13.7,0,24.9-11.1,24.9-24.9C222.7,91.2,211.5,80.1,197.8,80.1 M208,118.9l-10-10c-1.4,0.8-2.9,1.2-4.6,1.2c-5.2,0-9.4-4.2-9.4-9.4
		s4.2-9.4,9.4-9.4c5.2,0,9.4,4.2,9.4,9.4c0,1.7-0.4,3.2-1.2,4.6l10,10L208,118.9z"/>
</g>
<g id="g4470">
	<path id="path4472" fill="#DF0A22" d="M27.9,102.3V90.1h-5.7v12.2H10v5.7h12.2v12.2h5.7V108h12.2v-5.7H27.9L27.9,102.3z M39.1,107
		H26.9v12.2h-3.7V107H11v-3.7h12.2V91.1h3.7v12.2h12.2V107L39.1,107z"/>
	<path id="path4474" fill="#DF0A22" d="M25,80.1c-13.8,0-25,11.3-25,25c0,13.8,11.2,25,25,25s25-11.2,25-25
		C50,91.4,38.8,80.1,25,80.1 M25,129.2c-13.3,0-24.1-10.8-24.1-24.1C0.9,91.8,11.7,81,25,81s24.1,10.8,24.1,24.1
		C49.1,118.5,38.3,129.2,25,129.2"/>
</g>
<g id="g4476">
	<polygon id="polygon4478" fill="#DF0A22" points="27.9,226.3 27.9,214.1 22.2,214.1 22.2,226.3 10,226.3 10,232 22.2,232 
		22.2,244.2 27.9,244.2 27.9,232 40.1,232 40.1,226.3 	"/>
	<path id="path4480" fill="#DF0A22" d="M25.1,204.2c-13.8,0-25,11.2-25,25s11.2,25,25,25c13.8,0,25-11.2,25-25
		S38.8,204.2,25.1,204.2 M25.1,253.2C11.8,253.2,1,242.4,1,229.1C1,215.8,11.8,205,25.1,205c13.3,0,24.1,10.8,24.1,24.1
		C49.1,242.5,38.3,253.2,25.1,253.2"/>
</g>
<path id="path4484" fill="#DF0A22" d="M269.4,112.9l-0.1-0.4c-0.3-1-1.4-2-2.4-2.3l-3.7-1c-1-0.3-2.4,0.1-3.2,0.8l-1.3,1.3
	c-4.9-1.3-8.7-5.1-10-10l1.3-1.3c0.7-0.7,1.1-2.2,0.8-3.2l-1-3.7c-0.3-1-1.3-2.1-2.3-2.4l-0.4-0.1c-1-0.3-2.4,0-3.1,0.7l-2,2
	c-0.4,0.4-0.6,1.4-0.6,1.4c-0.1,6.4,2.4,12.5,6.9,17s10.6,7,17,6.9c0,0,1.1-0.2,1.4-0.6l2-2C269.4,115.3,269.7,113.9,269.4,112.9"/>
<path id="path4490" fill="#FFFFFF" d="M327,112.9l-0.1-0.4c-0.3-1-1.4-2-2.4-2.3l-3.7-1c-1-0.3-2.4,0.1-3.2,0.8l-1.3,1.3
	c-4.9-1.3-8.7-5.1-10-10l1.4-1.3c0.7-0.7,1.1-2.2,0.8-3.2l-1-3.7c-0.3-1-1.3-2.1-2.3-2.4l-0.4-0.1c-1-0.3-2.4,0-3.1,0.7l-2,2
	c-0.4,0.4-0.6,1.4-0.6,1.4c-0.1,6.4,2.4,12.5,6.9,17s10.6,7,17,6.9c0,0,1.1-0.2,1.4-0.6l2-2C326.9,115.3,327.3,113.9,327,112.9"/>
<path id="path4498" fill="#DF0A22" d="M373.3,99.3v-8.1c4,4,8,8,11.9,11.9c-3.9,3.9-7.9,7.9-11.9,11.9v-8c-0.8,0-1.399,0-2.1,0
	c-2.5,0.1-5,0.6-7.3,1.6c-3.5,1.5-5.9,4-6.801,7.7c0.101-0.7,0.2-1.5,0.301-2.2c0.5-3.2,1.5-6.2,3.399-8.8c2.4-3.4,5.7-5.3,9.8-5.9
	c0.801-0.1,1.601-0.1,2.301-0.2C372.9,99.4,373.1,99.4,373.3,99.3"/>
<g id="g4500">
	<path id="path4502" fill="#DF0A22" d="M428.2,80.1c-13.8,0-25,11.2-25,25c0,13.8,11.2,25,25,25s25-11.2,25-25
		C453.2,91.3,442,80.1,428.2,80.1 M430.9,115v-8c-0.801,0-1.5,0-2.101,0c-2.5,0.1-5,0.6-7.3,1.6c-3.5,1.5-5.9,4-6.8,7.7
		c0.1-0.7,0.2-1.5,0.3-2.2c0.5-3.2,1.5-6.2,3.4-8.8c2.399-3.4,5.699-5.3,9.8-5.9c0.8-0.1,1.6-0.1,2.3-0.2c0.1,0,0.3,0,0.5-0.1V91
		c4,4,8,8,11.9,11.9C438.8,107.1,434.8,111.1,430.9,115"/>
</g>
<polygon id="polygon4506" fill="#FFFFFF" points="600.9,109.5 586.6,100 586.6,113.8 615.1,113.8 615.1,100 "/>
<polygon id="polygon4508" fill="#FFFFFF" points="586.8,96.3 600.9,105.6 614.9,96.3 "/>
<g id="g4512">
	<path id="path4514" fill="#DF0A22" d="M658.5,80.1c-13.8,0-25,11.2-25,25c0,13.8,11.2,25,25,25s25-11.2,25-25
		C683.5,91.3,672.3,80.1,658.5,80.1 M672.5,96.3l-14,9.4l-14-9.4H672.5L672.5,96.3z M672.7,113.8h-28.5V100l14.2,9.5L672.6,100
		L672.7,113.8L672.7,113.8z"/>
</g>
<polygon id="polygon4518" fill="#FFFFFF" points="499.1,92.6 487.5,92.6 491.4,96.5 482.2,105.9 482.2,121.4 487.7,121.4 
	487.7,108.2 495.3,100.4 499.1,104.2 "/>
<polygon id="polygon4520" fill="#FFFFFF" points="483.8,100.4 475.8,92.4 472.3,95.9 480.3,103.9 "/>
<g id="g4524">
	<path id="path4526" fill="#DF0A22" d="M543.3,80.1c-13.8,0-25,11.2-25,25c0,13.8,11.2,25,25,25s25-11.2,25-25
		C568.3,91.3,557.1,80.1,543.3,80.1 M529.9,95.9l3.5-3.5l8,8l-3.5,3.5L529.9,95.9z M556.7,104.2l-3.9-3.9l-7.6,7.8v13.2h-5.5v-15.5
		l9.2-9.5l-3.9-3.9h11.6L556.7,104.2L556.7,104.2z"/>
</g>
<polygon id="polygon4530" fill="none" stroke="#FFFFFF" stroke-miterlimit="10" points="711.3,116 711.3,94.7 725.5,105.4 "/>
<rect id="rect4538" x="868.1" y="104" fill="#DF0A22" width="27.301" height="2.3"/>
<polygon id="polygon4544" fill="#DF0A22" points="952.9,104.2 940.4,104.2 940.4,91.7 938.1,91.7 938.1,104.2 925.7,104.2 
	925.7,106.5 938.1,106.5 938.1,118.9 940.4,118.9 940.4,106.5 952.9,106.5 "/>
<path id="path4548" fill="#FFFFFF" d="M395,7.9l-4.4,4.4L403.3,25L390.4,37.9l4.399,4.4L412.1,25L395,7.9z M391.5,37.9L404.4,25
	l-12.7-12.7L395,9l16,16l-16.2,16.2L391.5,37.9z"/>
<path id="path4550" fill="#FFFFFF" d="M400.6,0.1c-13.8,0-25,11.2-25,25c0,13.8,11.2,25,25,25c13.801,0,25-11.2,25-25
	C425.6,11.3,414.4,0.1,400.6,0.1 M400.6,49.2c-13.3,0-24.1-10.8-24.1-24.1c0-13.3,10.8-24.1,24.1-24.1
	C413.9,1,424.7,11.8,424.7,25.1C424.7,38.4,413.9,49.2,400.6,49.2"/>
<path id="path4552" fill="#DF0A22" d="M462,0.1c-13.8,0-25,11.2-25,25c0,13.8,11.2,25,25,25s25-11.2,25-25
	C487,11.3,475.8,0.1,462,0.1 M462,49.2c-13.3,0-24.1-10.8-24.1-24.1C437.9,11.8,448.7,1,462,1s24.1,10.8,24.1,24.1
	C486.1,38.4,475.3,49.2,462,49.2"/>
<path id="path4554" fill="#DF0A22" d="M456.2,7.9l-4.4,4.4L464.5,25l-12.9,12.9l4.4,4.4L473.3,25L456.2,7.9z M452.7,37.9L465.6,25
	L452.9,12.3l3.3-3.3l16,16L456,41.2L452.7,37.9z"/>
<polygon id="polygon4558" fill="#FFFFFF" points="18.5,17.7 21.8,14.4 32.8,25.3 21.6,36.5 18.3,33.2 26.1,25.4 "/>
<path id="path4560" fill="#FFFFFF" d="M78,0.1c-13.8,0-25,11.2-25,25c0,13.8,11.2,25,25,25s25-11.2,25-25C103,11.3,91.8,0.1,78,0.1
	 M74.6,36.5l-3.3-3.3l7.9-7.9l-7.7-7.7l3.3-3.3l11,11L74.6,36.5z"/>
<polygon id="polygon4564" fill="#DF0A22" points="518.5,17.7 521.8,14.4 532.8,25.3 521.6,36.5 518.3,33.2 526.1,25.4 "/>
<path id="path4566" fill="#DF0A22" d="M578,0.1c-13.8,0-25,11.2-25,25c0,13.8,11.2,25,25,25s25-11.2,25-25
	C603,11.3,591.8,0.1,578,0.1 M574.6,36.5l-3.3-3.3l7.9-7.9l-7.7-7.7l3.3-3.3l11,11L574.6,36.5z"/>
<rect id="rect4568" x="121.5" y="0.1" fill="#DF0A22" width="50" height="56"/>
<polygon id="polygon4570" fill="#FFFFFF" points="138.1,42.1 139.3,43.4 155.2,27.4 139,11.2 137.8,12.4 152.7,27.4 "/>
<rect id="rect4572" x="179.5" y="0.1" fill="#FFFFFF" width="50" height="56"/>
<polygon id="polygon4574" fill="#DF0A22" points="196.1,42.1 197.3,43.4 213.2,27.4 197,11.2 195.8,12.4 210.7,27.4 "/>
<rect id="rect4576" x="310.5" y="0.1" fill="#FFFFFF" width="50" height="56"/>
<polygon id="polygon4578" fill="#DF0A22" points="343.9,12.4 342.7,11.2 326.8,27.1 343,43.4 344.2,42.1 329.3,27.1 "/>
<g id="g4580" opacity="0.5">
	<g id="g4582">
		<g id="g4584">
			<g id="g4586">
				<g id="g4588">
					<g id="g4590">
						<g id="g4592">
							<g id="g4594">
								<g id="g4596">
									<g id="g4598">
										<g id="g4600">
											<g id="g4602">
												<g id="g4604">
													<g>
														<g>
															<g>
																<g>
																	<g>
																		<g>
																			<g>
																				<g>
																					<g>
																						<g>
																							<g>
																								<g>
																									<g>
																										<g>
																											<g>
																												<rect id="rect4612" x="244.5" y="0.1" fill="#231F20" width="50" height="56"/>
																											</g>
																										</g>
																									</g>
																								</g>
																							</g>
																						</g>
																					</g>
																				</g>
																			</g>
																		</g>
																	</g>
																</g>
															</g>
														</g>
													</g>
												</g>
											</g>
										</g>
									</g>
								</g>
							</g>
						</g>
					</g>
				</g>
			</g>
		</g>
	</g>
</g>
<rect x="244.5" y="0.1" fill="none" width="50" height="56"/>
<polygon id="polygon4614" fill="#FFFFFF" points="277.9,12.4 276.7,11.2 260.8,27.1 277,43.4 278.2,42.1 263.3,27.1 "/>
<path id="path4616" fill="#FFFFFF" d="M640.9,22.3V10.1h-5.7v12.2H623V28h12.2v12.1h5.7V27.9H653.1v-5.7L640.9,22.3L640.9,22.3z
	 M652.1,26.9H639.9v12.2h-3.7V26.9H624v-3.7h12.2V11.1h3.7v12.2H652.1V26.9L652.1,26.9z"/>
<path id="path4618" fill="#FFFFFF" d="M638.1,0.1c-13.8,0-25,11.2-25,25c0,13.8,11.2,25,25,25c13.801,0,25-11.2,25-25
	C663.1,11.3,651.9,0.1,638.1,0.1 M638.1,49.2c-13.3,0-24.1-10.8-24.1-24.1C614,11.8,624.8,1,638.1,1C651.4,1,662.2,11.8,662.2,25.1
	C662.2,38.4,651.4,49.2,638.1,49.2"/>
<polygon id="polygon4620" fill="#FFFFFF" points="700.9,22.3 700.9,10.1 695.2,10.1 695.2,22.3 683.1,22.3 683.1,27.9 695.2,27.9 
	695.2,40.1 700.9,40.1 700.9,27.9 713.1,27.9 713.1,22.3 "/>
<path id="path4622" fill="#FFFFFF" d="M698.1,0.1c-13.8,0-25,11.2-25,25c0,13.8,11.2,25,25,25c13.801,0,25-11.2,25-25
	C723.1,11.3,711.9,0.1,698.1,0.1 M698.1,49.2c-13.3,0-24.1-10.8-24.1-24.1C674,11.8,684.8,1,698.1,1C711.4,1,722.2,11.8,722.2,25.1
	C722.2,38.4,711.4,49.2,698.1,49.2"/>
<path id="path4624" fill="#DF0A22" d="M770.1,25.1l8.601-8.6l-4-4l-8.601,8.6l-8.6-8.6l-4,4l8.6,8.6l-8.6,8.6l4,4l8.6-8.6l8.601,8.6
	l4-4L770.1,25.1z M774.7,36.3l-8.601-8.6l-8.6,8.6l-2.6-2.6l8.6-8.6l-8.6-8.6l2.6-2.6l8.6,8.6l8.601-8.6l2.6,2.6l-8.6,8.6l8.6,8.6
	L774.7,36.3z"/>
<path id="path4626" fill="#DF0A22" d="M766.1,0.1c-13.8,0-25,11.2-25,25c0,13.8,11.2,25,25,25c13.801,0,25-11.2,25-25
	C791.1,11.3,779.9,0.1,766.1,0.1 M766.1,49.2c-13.3,0-24.1-10.8-24.1-24.1C742,11.8,752.8,1,766.1,1C779.4,1,790.2,11.8,790.2,25.1
	C790.2,38.4,779.4,49.2,766.1,49.2"/>
<polygon id="polygon4628" fill="#DF0A22" points="830.1,25.1 838.7,16.5 834.7,12.5 826.1,21.1 817.5,12.5 813.5,16.5 822.1,25.1 
	813.5,33.7 817.5,37.7 826.1,29.1 834.7,37.7 838.7,33.7 "/>
<path id="path4630" fill="#DF0A22" d="M826.1,0.1c-13.8,0-25,11.2-25,25c0,13.8,11.2,25,25,25c13.801,0,25-11.2,25-25
	C851.1,11.3,839.9,0.1,826.1,0.1 M826.1,49.2c-13.3,0-24.1-10.8-24.1-24.1C802,11.8,812.8,1,826.1,1C839.4,1,850.2,11.8,850.2,25.1
	C850.2,38.4,839.4,49.2,826.1,49.2"/>
<path id="path4632" fill="#FFFFFF" d="M912.4,19.7L901.6,27.2c-0.199,0.2-0.5,0.2-0.8,0.2c-0.2,0-0.399,0-0.6-0.1
	c-0.4-0.2-0.7-0.6-0.7-1.1V11.1c0-0.5,0.3-0.9,0.7-1.1c0.399-0.2,1-0.2,1.399,0.1l10.801,7.5c0.3,0.2,0.5,0.6,0.5,1
	C913,19.1,912.8,19.4,912.4,19.7 M927.5,5.6c0-0.2-0.1-0.4-0.1-0.6c0-0.1,0-0.2-0.101-0.3c-0.6-1.9-2.399-3.3-4.5-3.3h0.3
	c0,0-8.5-1.3-19.699-1.4c-11.301,0.1-19.7,1.4-19.7,1.4h0.3c-2.1,0-3.9,1.4-4.5,3.3c0,0.1-0.1,0.2-0.1,0.3
	c0,0.2-0.101,0.4-0.101,0.6c-0.3,2.2-0.8,6.7-0.899,12.1c0.1,5.4,0.6,9.8,0.899,12.1c0,0.2,0.101,0.4,0.101,0.6
	c0,0.1,0.1,0.2,0.1,0.3c0.6,1.9,2.4,3.3,4.5,3.3h-0.3c0,0,8.5,1.3,19.7,1.4C914.7,35.3,923.1,34,923.1,34h-0.3
	c2.101,0,3.9-1.4,4.5-3.3c0-0.1,0.101-0.2,0.101-0.3c0.1-0.2,0.1-0.4,0.1-0.6c0.3-2.2,0.8-6.7,0.9-12.1
	C928.3,12.3,927.8,7.9,927.5,5.6"/>
<polygon id="polygon4578-1" fill="#DF0A22" points="981.8,179.8 990.6,171 999.3,179.6 1000,178.9 990.6,169.5 981,179.1 "/>
<polygon id="polygon4578-1-1" fill="#DF0A22" points="990.6,228.2 981,218.7 981.8,218 990.6,226.8 999.3,218.1 1000,218.9 "/>
<polygon id="polygon4636" fill="#DF0A22" points="768.4,109.5 754.1,100 754.1,113.8 782.6,113.8 782.6,100 "/>
<polygon id="polygon4638" fill="#DF0A22" points="754.3,96.3 768.4,105.6 782.4,96.3 "/>
<polygon id="polygon4644" fill="#DF0A22" points="839.8,92.6 828.2,92.6 832.1,96.5 822.8,105.9 822.8,121.4 828.4,121.4 
	828.4,108.2 836,100.4 839.8,104.2 "/>
<polygon id="polygon4646" fill="#DF0A22" points="824.5,100.4 816.5,92.4 813,95.9 821,103.9 "/>
<g id="g4650">
	<path id="path4652" fill="#FFFFFF" d="M25.5,143.6c-13.8,0-25,11.2-25,25c0,13.8,11.2,25,25,25s25-11.2,25-25
		C50.5,154.8,39.3,143.6,25.5,143.6 M39.5,159.8l-14,9.4l-14-9.4H39.5z M39.7,177.3H11.2v-13.8l14.2,9.5l14.2-9.5L39.7,177.3
		L39.7,177.3z"/>
</g>
<path id="path4654" fill="#FFFFFF" d="M77.3,143.6c-13.7,0-24.9,11.1-24.9,24.9c0,13.7,11.1,24.9,24.9,24.9
	c13.7,0,24.9-11.1,24.9-24.9C102.2,154.7,91,143.6,77.3,143.6z M63.7,159.4l3.5-3.5l8,8l-3.5,3.5L63.7,159.4z M90.5,167.7l-3.9-3.9
	l-7.6,7.8v13.2h-5.5v-15.5l9.2-9.5l-3.9-3.9h11.6C90.5,156.1,90.5,167.7,90.5,167.7z"/>
<polygon id="polygon4660" fill="#FFFFFF" points="148.7,167 136.4,167 136.4,154.7 134.2,154.7 134.2,167 121.9,167 121.9,169.2 
	134.2,169.2 134.2,181.4 136.4,181.4 136.4,169.2 148.7,169.2 "/>
<path id="path4662" fill="#FFFFFF" d="M185.8,143.6c-13.8,0-25,11.2-25,25c0,13.8,11.2,25,25,25c13.8,0,25-11.2,25-25
	C210.8,154.8,199.6,143.6,185.8,143.6z M199,179.5l-2,2c-0.4,0.4-1.4,0.6-1.4,0.6c-6.4,0.1-12.5-2.4-17-6.9s-7-10.6-6.9-17
	c0,0,0.2-1,0.6-1.4l2-2c0.7-0.7,2.1-1.1,3.1-0.7l0.4,0.1c1,0.3,2,1.4,2.3,2.4l1,3.7c0.3,1-0.1,2.4-0.8,3.2l-1.3,1.3
	c1.3,4.9,5.1,8.7,10,10l1.3-1.3c0.7-0.7,2.2-1.1,3.2-0.8l3.7,1c1,0.3,2.1,1.3,2.4,2.3l0.1,0.4C200.1,177.4,199.8,178.8,199,179.5z"
	/>
<rect id="rect4668" x="222.4" y="167.3" fill="#FFFFFF" width="27.3" height="2.3"/>
<g id="g4670">
	<circle id="circle4672" fill="none" stroke="#FFFFFF" stroke-width="4" stroke-miterlimit="10" cx="313" cy="169.3" r="20"/>
	<path id="path4674" fill="#FFFFFF" d="M309.4,169.3c0-2,1.6-3.5,3.5-3.5s3.5,1.6,3.5,3.5s-1.6,3.5-3.5,3.5S309.4,171.2,309.4,169.3
		"/>
	
		<line id="line4676" fill="none" stroke="#FFFFFF" stroke-width="4" stroke-miterlimit="10" x1="313" y1="143.6" x2="313" y2="157.8"/>
	
		<line id="line4678" fill="none" stroke="#FFFFFF" stroke-width="4" stroke-miterlimit="10" x1="313" y1="180.7" x2="313" y2="194.9"/>
	
		<line id="line4680" fill="none" stroke="#FFFFFF" stroke-width="4" stroke-miterlimit="10" x1="338.6" y1="169.3" x2="324.4" y2="169.3"/>
	
		<line id="line4682" fill="none" stroke="#FFFFFF" stroke-width="4" stroke-miterlimit="10" x1="301.5" y1="169.3" x2="287.3" y2="169.3"/>
</g>
<g id="g4684">
	<path id="path4686" fill="#BBBBBB" d="M377.1,162.3l14.601,13.3l-2.7,2.9l-14.6-13.3L377.1,162.3z"/>
	<path id="path4688" fill="#BBBBBB" d="M367,143.6c-7.2,0-13.1,5.8-13.1,12.9c0,7.1,5.8,12.9,13.1,12.9s13.1-5.8,13.1-12.9
		C380.1,149.4,374.2,143.6,367,143.6z M367,166.4c-5.5,0-10-4.4-10-9.9s4.5-9.9,10-9.9s10,4.4,10,9.9S372.5,166.4,367,166.4z"/>
</g>
<g id="g4690">
	<g id="g4692">
		<path id="path4694" fill="#DF0A22" d="M434,191.3c-12.2,0-22-9.9-22-22s9.9-22,22-22s22,9.9,22,22S446.1,191.3,434,191.3z
			 M434,151.2c-10,0-18,8.1-18,18s8.1,18,18,18s18-8.1,18-18S443.9,151.2,434,151.2z"/>
	</g>
	<g id="g4696">
		<path id="path4698" fill="#DF0A22" d="M430.4,169.3c0-2,1.6-3.5,3.5-3.5c1.899,0,3.5,1.6,3.5,3.5s-1.601,3.5-3.5,3.5
			C432,172.8,430.4,171.2,430.4,169.3"/>
	</g>
	<g id="g4700">
		<rect id="rect4702" x="432" y="143.6" fill="#DF0A22" width="4" height="14.2"/>
	</g>
	<g id="g4704">
		<rect id="rect4706" x="432" y="180.7" fill="#DF0A22" width="4" height="14.2"/>
	</g>
	<g id="g4708">
		<rect id="rect4710" x="445.4" y="167.3" fill="#DF0A22" width="14.199" height="4"/>
	</g>
	<g id="g4712">
		<rect id="rect4714" x="408.3" y="167.3" fill="#DF0A22" width="14.2" height="4"/>
	</g>
</g>
<g id="g4716">
	<path id="path4718" fill="#DF0A22" d="M498.1,162.3l14.601,13.3l-2.7,2.9l-14.6-13.3L498.1,162.3z"/>
	<path id="path4720" fill="#DF0A22" d="M488,143.6c-7.2,0-13.1,5.8-13.1,12.9c0,7.1,5.8,12.9,13.1,12.9s13.1-5.8,13.1-12.9
		C501.1,149.4,495.2,143.6,488,143.6z M488,166.4c-5.5,0-10-4.4-10-9.9s4.5-9.9,10-9.9s10,4.4,10,9.9S493.5,166.4,488,166.4z"/>
</g>
<path id="path4722" fill="#B3B3B3" d="M736.3,143.1c-13.8,0-25,11.2-25,25c0,13.8,11.2,25,25,25s24.9-11.2,24.9-25
	C761.2,154.3,750,143.1,736.3,143.1z M725.6,172.2c-1.899,0-3.399-1.5-3.399-3.4s1.5-3.4,3.399-3.4c1.9,0,3.4,1.5,3.4,3.4
	S727.5,172.2,725.6,172.2z M736.3,172.2c-1.899,0-3.399-1.5-3.399-3.4s1.5-3.4,3.399-3.4c1.9,0,3.4,1.5,3.4,3.4
	S738.2,172.2,736.3,172.2z M747.1,172.2c-1.899,0-3.399-1.5-3.399-3.4s1.5-3.4,3.399-3.4c1.9,0,3.4,1.5,3.4,3.4
	S749,172.2,747.1,172.2z"/>
<path id="path4724" fill="#DF0A22" d="M631.5,143.3c-13.8,0-25,11.2-25,25c0,13.8,11.2,25,25,25s24.9-11.2,24.9-25
	C656.5,154.5,645.3,143.3,631.5,143.3z M620.8,172.4c-1.899,0-3.399-1.5-3.399-3.4c0-1.9,1.5-3.4,3.399-3.4c1.9,0,3.4,1.5,3.4,3.4
	C624.2,170.9,622.7,172.4,620.8,172.4z M631.6,172.4c-1.899,0-3.399-1.5-3.399-3.4c0-1.9,1.5-3.4,3.399-3.4c1.9,0,3.4,1.5,3.4,3.4
	C635,170.9,633.5,172.4,631.6,172.4z M642.4,172.4c-1.9,0-3.4-1.5-3.4-3.4c0-1.9,1.5-3.4,3.4-3.4c1.899,0,3.399,1.5,3.399,3.4
	C645.8,170.9,644.3,172.4,642.4,172.4z"/>
<circle id="circle4728" fill="#B3B3B3" cx="675.1" cy="168.8" r="3.4"/>
<circle id="circle4730" fill="#B3B3B3" cx="685.9" cy="168.8" r="3.4"/>
<circle id="circle4732" fill="#B3B3B3" cx="696.7" cy="168.8" r="3.4"/>
<circle id="circle4736" fill="#DF0A22" cx="570.4" cy="168.8" r="3.4"/>
<circle id="circle4738" fill="#DF0A22" cx="581.1" cy="168.8" r="3.4"/>
<circle id="circle4740" fill="#DF0A22" cx="591.9" cy="168.8" r="3.4"/>
<rect id="rect4742" x="69.7" y="204.3" opacity="0.6" enable-background="new    " width="50" height="50.1"/>
<polygon id="polygon4744" fill="#FFFFFF" points="105.3,219.2 104.9,218.8 94.8,228.9 84.6,218.8 84.2,219.2 94.3,229.3 84.2,239.4 
	84.6,239.8 94.8,229.7 104.9,239.8 105.3,239.4 95.2,229.3 "/>
<g>
	<g>
		<g>
			<g>
				<g>
					<g>
						<g>
							<g>
								<g>
									<g>
										<g>
											<g>
												<g>
													<g>
														<defs>
															<polygon id="SVGID_5_" points="4.8,313.5 6.2,305 0,299 8.6,297.7 12.4,290 16.2,297.7 24.8,299 18.6,305 20,313.5 
																12.4,309.5 															"/>
														</defs>
														<use xlink:href="#SVGID_5_"  overflow="visible" fill="#DF0A22"/>
														<clipPath id="SVGID_6_">
															<use xlink:href="#SVGID_5_"  overflow="visible"/>
														</clipPath>
														<polygon id="polygon3134" clip-path="url(#SVGID_6_)" fill="#DF0A22" points="4.8,313.5 6.2,305 0,299 8.6,297.7 
															12.4,290 16.2,297.7 24.8,299 18.6,305 20,313.5 12.4,309.5 														"/>
													</g>
												</g>
											</g>
										</g>
									</g>
								</g>
							</g>
						</g>
					</g>
				</g>
			</g>
		</g>
	</g>
</g>
<g id="g3243">
	<g id="g3251">
		<g>
			<g>
				<g>
					<g>
						<g>
							<g>
								<g>
									<g>
										<g>
											<g>
												<g>
													<g>
														<g>
															<g>
																<g>
																	<g>
																		<defs>
																			<polygon id="SVGID_7_" points="44.8,313.5 46.2,305 40,299 48.6,297.7 52.4,290 56.2,297.7 64.8,299 58.6,305 
																				60,313.5 52.4,309.5 																			"/>
																		</defs>
																		<use xlink:href="#SVGID_7_"  overflow="visible" fill="#DF0A22"/>
																		<clipPath id="SVGID_8_">
																			<use xlink:href="#SVGID_7_"  overflow="visible"/>
																		</clipPath>
																		<polygon id="polygon3259" clip-path="url(#SVGID_8_)" fill="#DF0A22" points="56.2,297.7 64.8,299 58.6,305 
																			60,313.5 52.4,309.5 44.8,313.5 46.2,305 40,299 48.6,297.7 52.4,290 																		"/>
																	</g>
																</g>
															</g>
														</g>
													</g>
												</g>
											</g>
										</g>
									</g>
								</g>
							</g>
						</g>
					</g>
				</g>
			</g>
		</g>
	</g>
</g>
<polygon id="SVGID_5_-8" fill="#DF0A22" points="56.2,297.7 64.8,299 58.6,305 60,313.5 52.4,309.5 44.8,313.5 46.2,305 40,299 
	48.6,297.7 52.4,290 "/>
<g>
	<g>
		<path id="SVGID_9_" fill="#1B394E" d="M121,297.7v15.4h17v-15.4h-6v-0.9h7V314h-19v-17.2h7v0.9H121z M129,291.8v13.6h1v-13.7
			l3.3,2.9c0.1,0.1,0.2,0.1,0.3,0l0.4-0.4c0.1-0.1,0.1-0.2,0-0.3l-3.8-3.4c0,0,0-0.1-0.1-0.1l-0.4-0.4c-0.1-0.1-0.2-0.1-0.3,0
			l-4.2,3.8c-0.1,0.1-0.1,0.2,0,0.3l0.4,0.4c0.1,0.1,0.2,0.1,0.3,0L129,291.8z"/>
	</g>
</g>
<g>
	<g>
		<path id="SVGID_11_" fill="#DF0A22" d="M81,297.7v15.4h17v-15.4h-6v-0.9h7V314H80v-17.2h7v0.9H81z M89,291.8v13.6h1v-13.7l3.3,2.9
			c0.1,0.1,0.2,0.1,0.3,0l0.4-0.4c0.1-0.1,0.1-0.2,0-0.3l-3.8-3.4c0,0,0-0.1-0.1-0.1l-0.4-0.4c-0.1-0.1-0.2-0.1-0.3,0l-4.2,3.8
			c-0.1,0.1-0.1,0.2,0,0.3l0.4,0.4c0.1,0.1,0.2,0.1,0.3,0L89,291.8z"/>
	</g>
</g>
<g>
	<circle fill="#DF0A22" cx="25.1" cy="361" r="25"/>
	<g>
		<path fill="#FFFFFF" d="M14.3,354.1c-4.2,6-2.7,14.3,3.3,18.6c0.6,0.4,1.2,0.8,1.8,1.1c-4.6-4.5-5.4-11.8-1.7-17.3l2.9,2.1
			l0.7-10.4l-9.6,4L14.3,354.1z"/>
		<path fill="#FFFFFF" d="M35.8,367.9c4.2-6,2.7-14.3-3.3-18.6c-0.6-0.4-1.2-0.8-1.8-1.1c4.6,4.5,5.4,11.8,1.7,17.3l-2.9-2.1
			l-0.7,10.4l9.6-4L35.8,367.9z"/>
	</g>
</g>
<g>
	<g>
		<path fill="#656666" d="M84.9,336.9c13.2,0,24,10.8,24,24c0,13.2-10.8,24-24,24c-13.2,0-24-10.8-24-24
			C60.9,347.7,71.7,336.9,84.9,336.9 M84.9,335.9c-13.8,0-25,11.2-25,25c0,13.8,11.2,25,25,25c13.8,0,25-11.2,25-25
			C109.9,347.1,98.7,335.9,84.9,335.9L84.9,335.9z"/>
	</g>
	<g>
		<path fill="#656666" d="M74.1,354.1c-4.2,6-2.7,14.3,3.3,18.6c0.6,0.4,1.2,0.8,1.8,1.1c-4.6-4.5-5.4-11.8-1.7-17.3l2.9,2.1
			l0.7-10.4l-9.6,4L74.1,354.1z"/>
		<path fill="#656666" d="M95.7,367.9c4.2-6,2.7-14.3-3.3-18.6c-0.6-0.4-1.2-0.8-1.8-1.1c4.6,4.5,5.4,11.8,1.7,17.3l-2.9-2.1
			l-0.7,10.4l9.6-4L95.7,367.9z"/>
	</g>
</g>
<g>
	<circle fill="#DF0A22" cx="148.8" cy="361" r="25"/>
	<g>
		<path fill="#FFFFFF" d="M154.5,372c-0.1-0.4-0.3-1-1-1.1c-0.5-0.1-1.1,0.2-2.2,0.7c-0.2,0.1-0.5,0.2-0.7,0.3
			c0-0.6-0.1-1.3-0.8-1.6c-1.3-0.6-4.9,2-5.7,2.6c-0.4-0.3-0.9-1.3-1.2-1.7c-0.6-1-0.9-1.5-1.6-1.6c-0.4,0-1-0.1-5.1,3.3
			c-0.4,0.3-0.5,0.9-0.1,1.3c0.3,0.4,0.9,0.5,1.3,0.1c1.4-1.2,2.9-2.2,3.6-2.7c0.1,0.1,0.2,0.3,0.3,0.5c0.7,1.2,1.5,2.5,2.6,2.6
			c0.1,0,0.2,0,0.2,0c0.4,0,0.7-0.1,1-0.4c0.9-0.7,2.6-1.8,3.6-2.2c0,0.5,0.1,1.1,0.6,1.5c0.3,0.2,0.7,0.3,1,0.2
			c0.5-0.1,1.2-0.4,1.8-0.8c0.2-0.1,0.4-0.2,0.7-0.3c0.3,0.8,0.8,1,1.2,0.9h0.2c2.8-0.1,3.9-0.4,4.4-1c-0.6-0.3-1.2-0.7-1.8-1.1
			C156.4,371.9,155.7,372,154.5,372z"/>
		<path fill="#FFFFFF" d="M144.3,346.4c-0.6,0-1.3,0.3-2.1,0.8c-1,0.7-1.5,1.5-1.6,2.2c0,0.5,0.2,0.8,0.2,0.8l1.4,2
			c0.2-0.7,0.7-1.5,1.9-2.3c1-0.7,1.9-1,2.7-1h0.1l-1.4-2C145.4,346.9,145.1,346.4,144.3,346.4z"/>
		<path fill="#FFFFFF" d="M154.3,364.2c1.2-0.8,2.1-1,2.8-1l-9.1-12.8c0,0-0.4-0.5-1.2-0.5c-0.6,0-1.3,0.3-2.1,0.8
			c-1,0.7-1.5,1.5-1.6,2.2c0,0.5,0.2,0.8,0.2,0.8l9.1,12.8C152.7,365.8,153.2,365,154.3,364.2z"/>
		<path fill="#FFFFFF" d="M158.4,365l-0.2-0.3l0,0l0,0c0,0-1-1.3-3.3,0.3c-2.3,1.6-1.4,3-1.4,3l0,0l0.2,0.3c2.6,2,5.6,4.1,6.6,4.3
			C160.4,371.7,159.4,368.1,158.4,365z"/>
	</g>
</g>
<g>
	<g>
		<path fill="#656666" d="M210.4,336.9c13.3,0,24,10.8,24,24c0,13.3-10.8,24-24,24c-13.3,0-24-10.8-24-24
			C186.3,347.7,197.1,336.9,210.4,336.9 M210.4,335.9c-13.8,0-25.1,11.2-25.1,25.1c0,13.8,11.2,25.1,25.1,25.1
			c13.8,0,25.1-11.2,25.1-25.1C235.4,347.1,224.2,335.9,210.4,335.9L210.4,335.9z"/>
	</g>
	<g>
		<path fill="#656666" d="M216.1,372c-0.1-0.4-0.4-1-1-1.1c-0.6-0.1-1.1,0.2-2.2,0.7c-0.2,0.1-0.5,0.2-0.7,0.3
			c0-0.6-0.1-1.3-0.8-1.6c-1.3-0.6-4.9,2-5.7,2.6c-0.4-0.3-0.9-1.3-1.2-1.7c-0.6-1-0.9-1.5-1.6-1.6c-0.4,0-1-0.1-5.1,3.3
			c-0.4,0.3-0.5,0.9-0.1,1.3c0.3,0.4,0.9,0.5,1.3,0.1c1.4-1.2,2.9-2.2,3.6-2.7c0.1,0.2,0.2,0.3,0.3,0.5c0.7,1.2,1.5,2.5,2.6,2.7
			c0.1,0,0.2,0,0.2,0c0.4,0,0.7-0.1,1-0.4c0.9-0.7,2.6-1.8,3.6-2.2c0,0.5,0.1,1.1,0.6,1.5c0.3,0.2,0.7,0.3,1,0.2
			c0.5-0.1,1.2-0.4,1.8-0.8c0.2-0.1,0.4-0.2,0.7-0.3c0.3,0.8,0.9,1,1.2,0.9h0.2c2.8-0.1,3.9-0.4,4.4-1c-0.6-0.3-1.2-0.7-1.8-1.1
			C218,371.9,217.3,372,216.1,372z"/>
		<path fill="#656666" d="M205.8,346.3c-0.6,0-1.3,0.3-2.1,0.8c-1,0.7-1.5,1.5-1.6,2.2c0,0.5,0.2,0.8,0.2,0.8l1.4,2
			c0.2-0.7,0.7-1.5,1.9-2.3c1-0.7,1.9-1,2.7-1h0.1l-1.4-2C207,346.8,206.6,346.3,205.8,346.3z"/>
		<path fill="#656666" d="M215.9,364.2c1.2-0.8,2.1-1,2.8-1l-9.2-12.8c0,0-0.4-0.5-1.2-0.5c-0.6,0-1.3,0.3-2.1,0.8
			c-1,0.7-1.5,1.5-1.6,2.2c0,0.5,0.2,0.8,0.2,0.8l9.2,12.8C214.3,365.8,214.8,365,215.9,364.2z"/>
		<path fill="#656666" d="M220,365l-0.2-0.3l0,0l0,0c0,0-1-1.3-3.3,0.3c-2.3,1.6-1.4,3-1.4,3l0,0l0.2,0.3c2.6,2,5.6,4.1,6.6,4.3
			C222,371.7,221,368.1,220,365z"/>
	</g>
</g>
<g>
	<circle fill="#DF0A22" cx="276.1" cy="361" r="25"/>
	<path fill="#FFFFFF" d="M266.5,372.7c0.7,0,1.3-0.3,1.8-0.7l12.5-12.5l0.4,0.1c0.7,0.3,1.5,0.4,2.3,0.4c1.8,0,3.5-0.7,4.8-2
		c1.6-1.6,2.3-4,1.8-6.2l-4.1,4.1h-3.1l-2.2-2.2v-3.1l4.1-4.1c-0.5-0.1-0.9-0.1-1.4-0.1c-1.8,0-3.5,0.7-4.8,2
		c-1.8,1.9-2.5,4.6-1.6,7.1l0.1,0.4l-12.5,12.5c-0.5,0.5-0.7,1.1-0.7,1.8s0.3,1.3,0.7,1.8C265.1,372.5,265.8,372.7,266.5,372.7z"/>
</g>
<g>
	<g>
		<path fill="#656666" d="M340.6,337c13.2,0,23.9,10.7,23.9,23.9c0,13.2-10.7,23.9-23.9,23.9c-13.2,0-23.9-10.7-23.9-23.9
			C316.6,347.7,327.4,337,340.6,337 M340.6,335.9c-13.8,0-25,11.2-25,25c0,13.8,11.2,25,25,25s25-11.2,25-25
			C365.5,347.1,354.4,335.9,340.6,335.9L340.6,335.9z"/>
	</g>
	<path fill="#656666" d="M331,372.6c0.7,0,1.3-0.3,1.8-0.7l12.4-12.4l0.399,0.1c0.7,0.3,1.5,0.4,2.301,0.4c1.8,0,3.5-0.7,4.8-2
		c1.6-1.6,2.3-4,1.8-6.2l-4.1,4.1H347.3l-2.2-2.2v-3.1l4.101-4.1c-0.5-0.1-0.9-0.1-1.4-0.1c-1.8,0-3.5,0.7-4.8,2
		c-1.8,1.8-2.5,4.6-1.6,7.1l0.1,0.3l-12.4,12.5c-0.5,0.5-0.7,1.1-0.7,1.8c0,0.7,0.3,1.3,0.7,1.8C329.7,372.4,330.3,372.6,331,372.6z
		"/>
</g>
<g>
	<circle fill="#DF0A22" cx="406.2" cy="360.9" r="24.9"/>
	<path fill="#FFFFFF" d="M423,354.3h-4.9v-3.1l-0.3-0.1c-3.2-1.6-7.399-2.6-11.6-2.6c-4.3,0-8.4,0.9-11.601,2.6l-0.3,0.1v3.1H389.4
		l1.8,6.1l-1.8,6.1h4.899v3.4l0,0l0.4,0.1c4,1.3,11.3,3.2,11.399,3.3h0.101h0.1c0.101,0,7.4-2,11.4-3.3l0.399-0.1v-3.4h4.9l-1.8-6.1
		L423,354.3z M406,370.7c0,0-5.6-1.5-8.6-2.5L396.8,368v-14.8l0.5-0.3c2.5-1.3,5.7-2,9-2s6.5,0.7,9,2l0.5,0.3V368l-0.6,0.2
		c-3.101,1-8.601,2.5-8.7,2.5l-0.2,0.1L406,370.7z M412.2,354.4l1.899,1.9l-11,11l-4.699-4.7l1.899-1.9l2.8,2.8L412.2,354.4z"/>
</g>
<g>
	<g>
		<path fill="#656666" d="M469.3,337c13.2,0,24,10.8,24,24c0,13.2-10.8,24-24,24s-24-10.8-24-24C445.3,347.7,456.1,337,469.3,337
			 M469.3,335.9c-13.8,0-25,11.2-25,25c0,13.8,11.2,25,25,25s25-11.2,25-25C494.3,347.1,483.1,335.9,469.3,335.9L469.3,335.9z"/>
	</g>
	<g>
		<path fill="#656666" d="M486.1,354.4H481.2v-3.1l-0.3-0.1c-3.301-1.7-7.4-2.6-11.7-2.6s-8.4,0.9-11.7,2.6l-0.3,0.1v3.1h-4.9
			l1.8,6.1l-1.8,6.1h4.9v3.4l0,0l0.399,0.1c4,1.3,11.4,3.3,11.4,3.3h0.1h0.101c0.1,0,7.399-2,11.399-3.3l0.4-0.1v-3.4h4.9
			l-1.801-6.1L486.1,354.4z M478.4,367.8l-0.301,0.1c-3.1,1-8.6,2.5-8.699,2.5H469.3h-0.1c-0.101,0-5.601-1.5-8.7-2.5l-0.3-0.1l0,0
			v-14.1l0.2-0.1c2.5-1.3,5.6-1.9,8.8-1.9s6.399,0.7,8.8,1.9l0.2,0.1L478.4,367.8L478.4,367.8z"/>
		<polygon fill="#656666" points="466.1,363.6 463.3,360.8 461.4,362.7 466.1,367.5 477.2,356.4 475.3,354.5 		"/>
	</g>
</g>
<g>
	<circle fill="#DF0A22" cx="534.1" cy="361" r="25"/>
	<path fill="#FFFFFF" d="M541.7,350.3C541.7,350.3,541.7,350.2,541.7,350.3c0-0.1,0-0.2-0.101-0.2c0,0,0,0,0-0.1l-0.1-0.1
		c0,0,0,0-0.1-0.1l0,0c0,0-0.101,0-0.101-0.1c0,0,0,0-0.1,0l0,0h-0.1H541h-0.1H540.8h-0.1c0,0-0.101,0-0.101,0.1l0,0l-16.1,14.6
		c-0.2,0.2-0.3,0.5-0.1,0.7c0.1,0.2,0.3,0.3,0.5,0.3c0.1,0,0.1,0,0.2,0l8.5-2.3l2.3,8.5c0.1,0.3,0.3,0.5,0.6,0.5l0,0
		c0.3,0,0.5-0.2,0.6-0.5L541.7,350.3L541.7,350.3C541.7,350.4,541.7,350.3,541.7,350.3z"/>
</g>
<g>
	<path fill="#656666" d="M605.9,350.3C605.9,350.3,605.9,350.2,605.9,350.3c0-0.1,0-0.2,0-0.2s0,0,0-0.1l-0.101-0.1c0,0,0,0-0.1-0.1
		l0,0c0,0-0.101,0-0.101-0.1c0,0,0,0-0.1,0l0,0h-0.1H605.3h-0.1h-0.1c0,0,0,0-0.101,0c0,0-0.1,0-0.1,0.1l0,0l-16.1,14.7
		c-0.2,0.2-0.301,0.5-0.101,0.7c0.101,0.2,0.3,0.3,0.5,0.3c0.101,0,0.101,0,0.2,0l8.5-2.3l2.3,8.5c0.101,0.3,0.3,0.4,0.601,0.4l0,0
		c0.3,0,0.5-0.2,0.6-0.5l4.6-21.3l0,0C605.9,350.4,605.9,350.3,605.9,350.3z"/>
	<g>
		<path fill="#656666" d="M598.3,337c13.2,0,24,10.8,24,24c0,13.2-10.8,24-24,24s-24-10.8-24-24C574.3,347.7,585.1,337,598.3,337
			 M598.3,335.9c-13.8,0-25,11.2-25,25c0,13.8,11.2,25,25,25s25-11.2,25-25C623.3,347.1,612.1,335.9,598.3,335.9L598.3,335.9z"/>
	</g>
</g>
<g>
	<circle fill="#DF0A22" cx="662.1" cy="361" r="25.1"/>
	<g>
		<path fill="#FFFFFF" d="M677.2,354.7c0.8-0.1,1.5-0.3,1.5-0.9s-0.4-0.9-0.9-1s-2-0.4-2.1,0.2c-0.101,0.6-0.101,1,0.1,1.3l-0.5,0.5
			c0,0-0.3-0.3-0.399-0.7c-0.101-0.4-0.7-2.3-2-4.1c-1-1.5-1.4-1.6-1.7-1.6s-2.3-0.4-7.9-0.4c-5.7,0-7.6,0.4-7.899,0.4
			c-0.301,0-0.601,0.1-1.7,1.6c-1.3,1.9-1.9,3.8-2,4.1c-0.101,0.4-0.4,0.7-0.4,0.7l-0.5-0.5c0.1-0.3,0.1-0.7,0.1-1.3
			c-0.1-0.6-1.5-0.3-2.1-0.2c-0.5,0.1-0.9,0.4-0.9,1s0.7,0.7,1.5,0.9c0.601,0.1,0.9,0.5,1,0.7c0.9-0.3,1.9-0.5,3-0.5
			c1.4,0,2.801,0.3,4,1c2.101,1.1,3.601,2.9,4.2,5.1c0.4,1.4,0.5,2.9,0.2,4.3c0.2,0,0.3,0,0.5,0.1l5,2.6c1.5,0,2.9,0,3.1,0
			c0,0,0.7,0.2,1.601,0.1c0.2,0,0.8-0.2,1.5-0.3v1.7c0,0.4,0.399,0.8,0.8,0.8h2.6c0.4,0,0.801-0.4,0.801-0.8v-2.9
			c0,0,0.199-5.9,0.199-6.5s0-1.5-0.3-1.9S676.7,357,676.7,357s-0.2-0.9-0.7-1.5C676.2,355.5,676.3,354.8,677.2,354.7z M676,359.5
			c0,0-0.3,0.6-4.6,0.9c0,0-1.101-0.7-1.2-0.9c-0.2-0.2-0.101-0.2,0.1-0.3s4.2-1,5.3-1.7C675.6,357.5,676.4,358.1,676,359.5z"/>
		<path fill="#FFFFFF" d="M660.9,361.2c-0.601-2-2-3.7-3.9-4.6c-1.1-0.6-2.4-0.9-3.7-0.9c-2.899,0-5.6,1.6-7,4.2c-1,1.9-1.2,4-0.6,6
			c0.6,2,2,3.7,3.899,4.6c1.101,0.6,2.4,0.9,3.7,0.9c2.5,0,4.7-1.2,6.2-3.1l1.3-2.5C661.4,364.4,661.4,362.8,660.9,361.2z
			 M659.3,366.6c-1.1,2.2-3.399,3.5-5.899,3.5c-1.101,0-2.101-0.3-3.101-0.8c-1.6-0.8-2.7-2.2-3.2-3.9c-0.5-1.7-0.399-3.5,0.5-5.1
			c1.101-2.2,3.4-3.5,5.9-3.5c1.1,0,2.1,0.3,3.1,0.8c1.601,0.8,2.7,2.2,3.2,3.9C660.3,363.3,660.1,365.1,659.3,366.6z"/>
		<path fill="#FFFFFF" d="M656,358.6c-2.7-1.4-6.1-0.4-7.5,2.3c-1.1,2.1-0.7,4.6,0.8,6.3c-0.6-1.4-0.5-3.1,0.3-4.6
			c1.4-2.7,4.801-3.8,7.5-2.3c0.601,0.3,1.101,0.7,1.601,1.2C658.1,360.3,657.2,359.3,656,358.6z"/>
		<path fill="#FFFFFF" d="M672,371.2l-9.9-5.2c-0.1-0.1-0.199-0.1-0.3,0c-0.1,0.1-0.2,0.1-0.3,0.2l-1.3,2.6
			c-0.101,0.2,0,0.5,0.2,0.6l9.899,5.2c0.101,0,0.101,0.1,0.2,0.1c0.2,0,0.3-0.1,0.4-0.2l1.399-2.6c0.101-0.1,0.101-0.2,0-0.3
			C672.2,371.3,672.1,371.2,672,371.2z"/>
	</g>
</g>
<g>
	<g>
		<path fill="#656666" d="M727.2,337c13.2,0,23.899,10.7,23.899,23.9c0,13.2-10.699,23.9-23.899,23.9s-23.9-10.7-23.9-23.9
			C703.3,347.7,714,337,727.2,337 M727.2,335.9c-13.8,0-25,11.2-25,25c0,13.8,11.2,25,25,25s25-11.2,25-25
			C752.2,347.1,741,335.9,727.2,335.9L727.2,335.9z"/>
	</g>
	<g>
		<path fill="#656666" d="M742.2,354.4c0.8-0.1,1.5-0.3,1.5-0.9c0-0.6-0.4-0.9-0.9-1c-0.5-0.1-2-0.4-2.1,0.2
			c-0.101,0.6-0.101,1,0.1,1.3l-0.5,0.5c0,0-0.3-0.3-0.399-0.7c-0.101-0.4-0.7-2.3-2-4.1c-1-1.5-1.4-1.6-1.7-1.6s-2.3-0.4-7.9-0.4
			c-5.6,0-7.6,0.4-7.899,0.4c-0.301,0-0.601,0.1-1.7,1.6c-1.3,1.9-1.9,3.7-2,4.1c-0.101,0.4-0.4,0.7-0.4,0.7l-0.5-0.5
			c0.1-0.3,0.1-0.7,0.1-1.3c-0.1-0.6-1.5-0.3-2.1-0.2c-0.5,0.1-0.9,0.4-0.9,1c0,0.6,0.7,0.7,1.5,0.9c0.601,0.1,0.9,0.5,1,0.7
			c0.9-0.3,1.9-0.5,3-0.5c1.4,0,2.801,0.3,4,1c2,1.1,3.5,2.9,4.2,5.1c0.4,1.4,0.5,2.9,0.2,4.3c0.2,0,0.3,0,0.5,0.1l5,2.6
			c1.5,0,2.9,0,3.1,0c0,0,0.7,0.2,1.601,0.1c0.2,0,0.8-0.2,1.5-0.3v1.7c0,0.4,0.399,0.8,0.8,0.8h2.6c0.4,0,0.801-0.4,0.801-0.8v-2.8
			c0,0,0.199-5.9,0.199-6.5c0-0.6,0-1.5-0.3-1.9c-0.3-0.4-0.899-1.2-0.899-1.2s-0.2-0.9-0.7-1.5
			C741.2,355.2,741.4,354.5,742.2,354.4z M741,359.2c0,0-0.3,0.6-4.6,0.9c0,0-1-0.7-1.2-0.9s-0.101-0.2,0.1-0.3
			c0.2-0.1,4.2-1,5.3-1.7C740.6,357.2,741.5,357.8,741,359.2z"/>
		<path fill="#656666" d="M726.1,360.9c-0.6-2-2-3.6-3.8-4.6c-1.1-0.6-2.399-0.9-3.6-0.9c-2.9,0-5.601,1.6-6.9,4.2
			c-1,1.9-1.2,4-0.6,6c0.6,2,2,3.6,3.8,4.6c1.1,0.6,2.4,0.9,3.6,0.9c2.5,0,4.7-1.1,6.2-3l1.3-2.5C726.5,364,726.5,362.4,726.1,360.9
			z M724.4,366.3c-1.101,2.2-3.4,3.5-5.801,3.5c-1.1,0-2.1-0.3-3.1-0.8c-1.6-0.8-2.7-2.2-3.2-3.9c-0.5-1.7-0.399-3.5,0.5-5
			c1.101-2.2,3.4-3.5,5.8-3.5c1.101,0,2.101,0.3,3.101,0.8c1.6,0.8,2.7,2.2,3.2,3.9C725.4,362.9,725.2,364.7,724.4,366.3z"/>
		<path fill="#656666" d="M721.2,358.3c-2.7-1.4-6-0.4-7.5,2.3c-1.101,2.1-0.7,4.6,0.8,6.2c-0.6-1.4-0.5-3.1,0.3-4.6
			c1.4-2.7,4.8-3.7,7.5-2.3c0.601,0.3,1.101,0.7,1.601,1.2C723.3,360,722.4,358.9,721.2,358.3z"/>
		<path fill="#656666" d="M737.1,370.8l-9.8-5.2c-0.1-0.1-0.2-0.1-0.3,0c-0.1,0-0.2,0.1-0.3,0.2l-1.3,2.6
			c-0.101,0.2,0,0.5,0.199,0.6l9.801,5.2c0.1,0,0.1,0.1,0.199,0.1c0.2,0,0.301-0.1,0.4-0.2l1.4-2.6c0.1-0.1,0.1-0.2,0-0.3
			C737.2,370.9,737.2,370.9,737.1,370.8z"/>
	</g>
</g>
<g>
	<path fill="#F6EB0F" d="M803.7,367.3c1-1.9,1.5-4,1.5-6.3c0-2.3-0.5-4.4-1.5-6.3l-5,2.9c0.5,1,0.7,2.2,0.7,3.4
		c0,1.2-0.301,2.3-0.7,3.4L803.7,367.3z"/>
	<path fill="#F16622" d="M792.1,353c2.4,0.2,4.5,1.5,5.801,3.4l5-2.9c-2.301-3.6-6.301-6-10.801-6.3V353z"/>
	<path fill="#EC1E24" d="M784.8,356.3c1.3-1.9,3.4-3.2,5.9-3.4v-5.8c-4.5,0.2-8.5,2.7-10.8,6.3L784.8,356.3z"/>
	<path fill="#324DA0" d="M790.6,369.1c-2.399-0.2-4.5-1.5-5.899-3.4l-5,2.9c2.3,3.6,6.3,6,10.8,6.3L790.6,369.1L790.6,369.1z"/>
	<path fill="#7A57A3" d="M783.3,361c0-1.2,0.3-2.3,0.7-3.4l-5-2.9c-1,1.9-1.5,4-1.5,6.3c0,2.3,0.5,4.4,1.5,6.3l5-2.9
		C783.5,363.4,783.3,362.2,783.3,361z"/>
	<path fill="#659941" d="M798,365.7c-1.3,1.9-3.4,3.2-5.8,3.4v5.8c4.5-0.2,8.5-2.7,10.8-6.3L798,365.7z"/>
	<g>
		<path fill="#656666" d="M791.4,337c13.3,0,24.1,10.8,24.1,24.1c0,13.3-10.8,24.1-24.1,24.1c-13.301,0-24.101-10.8-24.101-24.1
			C767.3,347.8,778.1,337,791.4,337 M791.4,335.9c-13.9,0-25.101,11.2-25.101,25.1c0,13.9,11.2,25.1,25.101,25.1
			c13.899,0,25.1-11.2,25.1-25.1C816.5,347.2,805.2,335.9,791.4,335.9L791.4,335.9z"/>
	</g>
</g>
<g>
	<path fill="#F6EB0F" d="M877.4,372.3c1.699-3.4,2.699-7.2,2.699-11.3c0-4.1-1-7.9-2.699-11.3l-9,5.2c0.899,1.9,1.3,3.9,1.3,6.1
		c0,2.2-0.5,4.2-1.3,6.1L877.4,372.3z"/>
	<path fill="#F16622" d="M856.4,346.4c4.399,0.4,8.199,2.7,10.6,6.1l9-5.2c-4.2-6.5-11.4-10.9-19.6-11.3V346.4L856.4,346.4z"/>
	<path fill="#EC1E24" d="M843.1,352.5c2.4-3.4,6.2-5.7,10.601-6.1V336c-8.2,0.4-15.4,4.8-19.601,11.3L843.1,352.5z"/>
	<path fill="#324DA0" d="M853.7,375.5c-4.4-0.4-8.2-2.7-10.601-6.1l-9,5.2c4.2,6.5,11.4,10.9,19.601,11.3V375.5L853.7,375.5z"/>
	<path fill="#7A57A3" d="M840.4,361c0-2.2,0.5-4.2,1.3-6.1l-9-5.2c-1.7,3.4-2.7,7.2-2.7,11.3c0,4.1,1,7.9,2.7,11.3l9-5.2
		C840.9,365.2,840.4,363.1,840.4,361z"/>
	<path fill="#659941" d="M867,369.4c-2.4,3.4-6.2,5.7-10.6,6.1v10.4c8.199-0.4,15.399-4.8,19.6-11.3L867,369.4z"/>
</g>
<g>
	<circle fill="#DF0A22" cx="918.8" cy="361" r="25"/>
	<g>
		<path fill="#FFFFFF" d="M919.8,351.9c0,0,0.101,0,0.101-0.1h6.399l-4.2,7c-0.199,0.4-0.1,0.9,0.301,1.1
			c0.399,0.2,0.899,0.1,1.1-0.3l4.2-7l4.2,7c0.1,0.2,0.399,0.4,0.699,0.4c0.101,0,0.301,0,0.4-0.1c0.4-0.2,0.5-0.7,0.3-1.1l-4.8-8.1
			l0,0v-0.1l0,0c-0.1-0.1-0.1-0.2-0.3-0.3l0,0c-0.101-0.1-0.2-0.1-0.4-0.1H920.9c0-0.1,0-0.1,0-0.1c0-1.1-0.9-2.1-2.101-2.1
			c-1.1,0-2.1,0.9-2.1,2.1c0,0.1,0,0.1,0,0.1h-6.9c-0.1,0-0.3,0-0.399,0.1l0,0c-0.101,0.1-0.2,0.1-0.301,0.3l0,0v0.1l0,0l-4.8,8.1
			c-0.2,0.4-0.1,0.9,0.3,1.1c0.4,0.2,0.9,0.1,1.101-0.3l4.2-7l4.199,7c0.101,0.2,0.4,0.4,0.7,0.4c0.101,0,0.3,0,0.4-0.1
			c0.399-0.2,0.5-0.7,0.3-1.1l-4.2-7h6.4c0,0,0.1,0,0.1,0.1v18.5c-3.3,0.2-6.399,1.1-9.1,2.6v1h20.2v-1
			c-2.7-1.5-5.801-2.4-9.101-2.6V351.9L919.8,351.9L919.8,351.9z"/>
		<path fill="#FFFFFF" d="M916,361.3c0-0.3-0.2-0.5-0.5-0.5h-11.2c-0.3,0-0.5,0.2-0.5,0.5c0,3.4,2.7,6.1,6.101,6.1
			C913.2,367.4,916,364.7,916,361.3z"/>
		<path fill="#FFFFFF" d="M933.3,360.8h-11.2c-0.3,0-0.5,0.2-0.5,0.5c0,3.4,2.7,6.1,6.101,6.1c3.399,0,6.1-2.7,6.1-6.1
			C933.8,361,933.6,360.8,933.3,360.8z"/>
	</g>
</g>
<g>
	<g>
		<path fill="#656666" d="M25.1,409.1c13.2,0,24,10.8,24,24c0,13.2-10.8,24-24,24c-13.2,0-24-10.8-24-24
			C1.1,419.9,11.8,409.1,25.1,409.1 M25.1,408.1c-13.8,0-25,11.2-25,25c0,13.8,11.2,25,25,25c13.8,0,25-11.2,25-25
			C50.1,419.3,38.9,408.1,25.1,408.1L25.1,408.1z"/>
	</g>
	<g>
		<path fill="#656666" d="M26.1,424C26.1,424,26.2,424,26.1,424l6.5-0.1l-4.2,7c-0.2,0.4-0.1,0.9,0.3,1.1c0.4,0.2,0.9,0.1,1.1-0.3
			l4.2-7l4.2,7c0.1,0.2,0.4,0.4,0.7,0.4c0.1,0,0.3,0,0.4-0.1c0.4-0.2,0.5-0.7,0.3-1.1l-4.8-8.1l0,0v-0.1l0,0
			c-0.1-0.1-0.2-0.2-0.3-0.3l0,0c-0.1-0.1-0.2-0.1-0.4-0.1h-6.9v-0.1c0-1.1-0.9-2.1-2.1-2.1c-1.1,0-2.1,0.9-2.1,2.1
			c0,0.1,0,0.1,0,0.1h-6.9c-0.1,0-0.3,0-0.4,0.1l0,0c-0.1,0.1-0.2,0.1-0.3,0.3l0,0v0.1l0,0l-4.8,8.1c-0.2,0.4-0.1,0.9,0.3,1.1
			c0.4,0.2,0.9,0.1,1.1-0.3l4.2-7l4.2,7c0.1,0.2,0.4,0.4,0.7,0.4c0.1,0,0.3,0,0.4-0.1c0.4-0.2,0.5-0.7,0.3-1.1l-4.2-7H24
			c0,0,0.1,0,0.1,0.1v18.5c-3.3,0.2-6.4,1.1-9.1,2.6v1h20.2v-1c-2.7-1.5-5.8-2.4-9.1-2.6V424L26.1,424L26.1,424z"/>
		<path fill="#656666" d="M22.2,433.5c0-0.3-0.2-0.5-0.5-0.5H10.5c-0.3,0-0.5,0.2-0.5,0.5c0,3.4,2.7,6.1,6.1,6.1
			S22.2,436.9,22.2,433.5z"/>
		<path fill="#656666" d="M39.6,433H28.4c-0.3,0-0.5,0.2-0.5,0.5c0,3.4,2.7,6.1,6.1,6.1s6.1-2.7,6.1-6.1
			C40.1,433.2,39.9,433,39.6,433z"/>
	</g>
</g>
<g>
	<circle fill="#DF0A22" cx="85.8" cy="433.1" r="25"/>
	<path fill="#FFFFFF" d="M95.5,418.8H76.2c-0.6,0-1,0.5-1,1v26.6c0,0.6,0.5,1,1,1h19.3c0.6,0,1-0.5,1-1v-26.6
		C96.5,419.3,96,418.8,95.5,418.8z M81.5,445.4h-4.4v-4.6h4.4V445.4z M81.5,438.8h-4.4v-4.6h4.4V438.8z M81.5,432.1h-4.4v-4.6h4.4
		V432.1z M88,445.4h-4.4v-4.6H88V445.4z M88,438.8h-4.4v-4.6H88V438.8z M88,432.1h-4.4v-4.6H88V432.1z M94.5,445.4h-4.4v-4.6h4.4
		V445.4L94.5,445.4z M94.5,438.8h-4.4v-4.6h4.4V438.8L94.5,438.8z M94.5,432.1h-4.4v-4.6h4.4V432.1L94.5,432.1z M94.5,425.5H77.1
		v-4.7h17.4V425.5L94.5,425.5z"/>
</g>
<g>
	<path fill="#656666" d="M148.8,409.1c13.2,0,24,10.8,24,24c0,13.2-10.8,24-24,24c-13.2,0-24-10.8-24-24
		C124.8,419.9,135.5,409.1,148.8,409.1 M148.8,408.1c-13.8,0-25,11.2-25,25c0,13.8,11.2,25,25,25c13.8,0,25-11.2,25-25
		C173.8,419.3,162.6,408.1,148.8,408.1L148.8,408.1z"/>
</g>
<path fill="#656666" d="M158.4,418.8h-19.3c-0.6,0-1,0.5-1,1v26.6c0,0.6,0.5,1,1,1h19.3c0.6,0,1-0.5,1-1v-26.6
	C159.5,419.3,159,418.8,158.4,418.8z M144.5,445.4h-4.4v-4.6h4.4V445.4z M144.5,438.8h-4.4v-4.6h4.4V438.8z M144.5,432.1h-4.4v-4.6
	h4.4V432.1z M151,445.4h-4.4v-4.6h4.4V445.4z M151,438.8h-4.4v-4.6h4.4V438.8z M151,432.1h-4.4v-4.6h4.4V432.1z M157.5,445.4h-4.4
	v-4.6h4.4V445.4z M157.5,438.8h-4.4v-4.6h4.4V438.8z M157.5,432.1h-4.4v-4.6h4.4V432.1z M157.5,425.5h-17.4v-4.7h17.4V425.5
	L157.5,425.5z"/>
<g>
	<circle fill="#DF0A22" cx="211.7" cy="433.2" r="25.1"/>
	<path fill="#FFFFFF" d="M211.7,419.9c-4.7,0-8.6,3.8-8.6,8.6c0,7.5,7.7,18,8.6,18c0.8,0,8.6-10.5,8.6-18
		C220.3,423.7,216.4,419.9,211.7,419.9z M211.7,432.7c-2.4,0-4.3-1.9-4.3-4.3c0-2.4,1.9-4.3,4.3-4.3c2.3,0,4.3,1.9,4.3,4.3
		C216,430.8,214.1,432.7,211.7,432.7z"/>
</g>
<g>
	<path fill="#656666" d="M276.1,409.1c13.2,0,24,10.8,24,24c0,13.2-10.8,24-24,24c-13.2,0-24-10.8-24-24
		C252.1,419.9,262.8,409.1,276.1,409.1 M276.1,408.1c-13.8,0-25,11.2-25,25c0,13.8,11.2,25,25,25c13.8,0,25-11.2,25-25
		C301.1,419.3,289.9,408.1,276.1,408.1L276.1,408.1z"/>
</g>
<path fill="#656666" d="M276.1,419.9c-4.7,0-8.5,3.8-8.5,8.5c0,7.4,7.7,18,8.5,18c0.8,0,8.5-10.5,8.5-18
	C284.6,423.7,280.8,419.9,276.1,419.9z M276.1,432.7c-2.3,0-4.2-1.9-4.2-4.2c0-2.3,1.9-4.2,4.2-4.2c2.3,0,4.2,1.9,4.2,4.2
	C280.3,430.8,278.4,432.7,276.1,432.7z"/>
<g>
	<circle fill="#DF0A22" cx="340.6" cy="433.1" r="25"/>
	<path fill="#FFFFFF" d="M352.3,441.6v-2.2h-2v-11.8h2v-3l-12-5.1l-11.6,5.1v3h2v11.8h-2v2.2H327v3h27v-3H352.3L352.3,441.6
		L352.3,441.6z M347.3,439.4h-5.2v-11.8h5.2V439.4z M333.8,427.7h5.2v11.8h-5.2V427.7z"/>
</g>
<g>
	<g>
		<path fill="#656666" d="M406.2,409.1c13.2,0,24,10.8,24,24c0,13.2-10.8,24-24,24s-24-10.8-24-24
			C382.2,419.9,393,409.1,406.2,409.1 M406.2,408.1c-13.8,0-25,11.2-25,25c0,13.8,11.2,25,25,25s25-11.2,25-25
			C431.2,419.3,420,408.1,406.2,408.1L406.2,408.1z"/>
	</g>
	<path fill="#656666" d="M418,441.6v-2.2h-2v-11.8h2v-3l-12-5.1l-11.6,5.1v3h2v11.8h-2v2.2h-1.7v3H419.6v-3H418L418,441.6L418,441.6
		z M413,439.4h-5.2v-11.8h5.2V439.4z M399.5,427.7h5.2v11.8h-5.2V427.7z"/>
</g>
<g>
	<circle fill="#DF0A22" cx="469.3" cy="433.1" r="25"/>
	<g>
		<path fill="#FFFFFF" d="M468.5,423.7c-1.2-0.9-3-2-5.4-2.2c-0.6-0.1-1.199-0.1-1.8-0.1c-3.1,0-5.5,0.9-5.6,0.9
			c-0.4,0.1-0.7,0.5-0.7,1v16.6c0,0.3,0.2,0.6,0.4,0.8c0.3,0.2,0.6,0.2,0.899,0.1c0,0,2.101-0.8,4.9-0.8c0.5,0,1.1,0,1.6,0.1
			c3.4,0.4,5.601,2.9,5.601,2.9l0,0L468.5,423.7L468.5,423.7z"/>
		<path fill="#FFFFFF" d="M482.9,422.3c-0.101,0-2.5-0.9-5.601-0.9c-0.6,0-1.2,0-1.8,0.1c-2.3,0.3-4.2,1.3-5.4,2.2v19.4l0,0
			c0,0,2.2-2.5,5.601-2.9c0.5-0.1,1.1-0.1,1.6-0.1c2.7,0,4.9,0.8,4.9,0.8c0.3,0.1,0.7,0.1,0.899-0.1c0.301-0.2,0.4-0.5,0.4-0.8
			v-16.7C483.6,422.8,483.3,422.4,482.9,422.3z"/>
	</g>
</g>
<g>
	<g>
		<path fill="#656666" d="M534.1,409.1c13.2,0,24,10.8,24,24c0,13.2-10.8,24-24,24c-13.199,0-24-10.8-24-24
			C510,419.9,520.8,409.1,534.1,409.1 M534.1,408.1c-13.8,0-25,11.2-25,25c0,13.8,11.2,25,25,25c13.801,0,25-11.2,25-25
			C559.1,419.3,547.9,408.1,534.1,408.1L534.1,408.1z"/>
	</g>
	<g>
		<path fill="#656666" d="M533.3,424.7c-1.2-0.9-3-2-5.399-2.2c-0.601-0.1-1.2-0.1-1.801-0.1c-3.1,0-5.5,0.9-5.6,0.9
			c-0.4,0.1-0.7,0.5-0.7,1v16.6c0,0.3,0.2,0.6,0.4,0.8c0.3,0.2,0.6,0.2,0.899,0.1c0,0,2.101-0.8,4.9-0.8c0.5,0,1.1,0,1.6,0.1
			c3.4,0.4,5.601,2.9,5.601,2.9l0,0L533.3,424.7L533.3,424.7L533.3,424.7z"/>
		<path fill="#656666" d="M547.6,423.3c-0.1,0-2.5-0.9-5.6-0.9c-0.6,0-1.2,0-1.8,0.1c-2.3,0.3-4.2,1.3-5.4,2.2v19.4l0,0
			c0,0,2.2-2.5,5.601-2.9c0.5-0.1,1.1-0.1,1.6-0.1c2.7,0,4.9,0.8,4.9,0.8c0.3,0.1,0.699,0.1,0.899-0.1c0.3-0.2,0.4-0.5,0.4-0.8
			v-16.6C548.3,423.8,548,423.4,547.6,423.3z"/>
	</g>
</g>
<g>
	<circle fill="#DF0A22" cx="598.3" cy="433.1" r="25"/>
	<g>
		<polygon fill="#FFFFFF" points="598.3,433.6 610.2,425.2 586.5,425.2 		"/>
		<path fill="#FFFFFF" d="M611.2,425.8l-12.601,8.8c-0.199,0.1-0.399,0.1-0.6,0l-12.6-8.8V441H611.1L611.2,425.8L611.2,425.8z
			 M587.6,439.6c-0.1,0-0.3-0.1-0.399-0.2c-0.2-0.2-0.2-0.5,0-0.8l5.5-5.5c0.2-0.2,0.5-0.2,0.8,0c0.2,0.2,0.2,0.5,0,0.8l-5.5,5.5
			C587.9,439.6,587.7,439.6,587.6,439.6z M609.4,439.5c-0.101,0.1-0.2,0.2-0.4,0.2c-0.1,0-0.3-0.1-0.4-0.2l-5.5-5.5
			c-0.199-0.2-0.199-0.5,0-0.8c0.2-0.2,0.5-0.2,0.801,0l5.5,5.5C609.6,438.9,609.6,439.3,609.4,439.5z"/>
	</g>
</g>
<g>
	<g>
		<path fill="#656666" d="M661.3,409.1c13.3,0,24,10.8,24,24c0,13.2-10.8,24-24,24c-13.3,0-24-10.8-24-24
			C637.3,419.9,648,409.1,661.3,409.1 M661.3,408.1c-13.8,0-25.1,11.2-25.1,25.1c0,13.8,11.2,25.1,25.1,25.1
			c13.8,0,25.101-11.2,25.101-25.1S675.1,408.1,661.3,408.1L661.3,408.1z"/>
	</g>
	<g>
		<polygon fill="#656666" points="661.3,433.6 673.2,425.3 649.4,425.3 		"/>
		<path fill="#656666" d="M674.2,425.9l-12.601,8.9c-0.199,0.1-0.399,0.1-0.6,0l-12.6-8.9V441h25.8V425.9L674.2,425.9z M650.6,439.7
			c-0.1,0-0.3-0.1-0.399-0.2c-0.2-0.2-0.2-0.5,0-0.8l5.5-5.5c0.2-0.2,0.5-0.2,0.8,0c0.2,0.2,0.2,0.5,0,0.8l-5.5,5.5
			C650.8,439.7,650.7,439.7,650.6,439.7z M672.4,439.5c-0.101,0.1-0.2,0.2-0.4,0.2c-0.1,0-0.3-0.1-0.4-0.2l-5.5-5.5
			c-0.199-0.2-0.199-0.5,0-0.8c0.2-0.2,0.5-0.2,0.801,0l5.5,5.5C672.6,439,672.6,439.3,672.4,439.5z"/>
	</g>
</g>
<g>
	<circle fill="#DF0A22" cx="727.2" cy="433" r="24.9"/>
	<path fill="#FFFFFF" d="M739.5,422.4H715c-0.8,0-1.5,0.7-1.5,1.5v18.3c0,0.8,0.7,1.5,1.5,1.5h24.5c0.8,0,1.5-0.7,1.5-1.5v-18.3
		C741,423.1,740.3,422.4,739.5,422.4z M738.9,441.8h-23.4v-17.3h23.4V441.8L738.9,441.8z M722.3,428.3c0,1-0.8,1.8-1.8,1.8l0,0
		c-1,0-1.8-0.8-1.8-1.8l0,0c0-1,0.8-1.8,1.8-1.8l0,0C721.5,426.6,722.3,427.4,722.3,428.3L722.3,428.3z M722.3,433.7
		c0.2-0.2,0.601-0.3,0.9-0.1l3.3,1.9c0.3,0.2,0.7,0.1,0.9-0.2l4.1-5c0.2-0.3,0.5-0.2,0.6,0.1l5.101,9.5c0.2,0.3,0,0.5-0.3,0.5h-19.7
		c-0.3,0-0.4-0.2-0.2-0.4L722.3,433.7z"/>
</g>
<g>
	<g>
		<path fill="#656666" d="M791.4,409.1c13.3,0,24,10.8,24,24c0,13.3-10.801,24-24,24c-13.301,0-24-10.8-24-24
			C767.3,419.9,778.1,409.1,791.4,409.1 M791.4,408.1c-13.801,0-25.101,11.2-25.101,25.1c0,13.8,11.2,25.1,25.101,25.1
			c13.8,0,25.1-11.2,25.1-25.1C816.4,419.3,805.2,408.1,791.4,408.1L791.4,408.1z"/>
	</g>
	<path fill="#656666" d="M803.7,422.5H779.1c-0.8,0-1.5,0.7-1.5,1.5v18.4c0,0.8,0.7,1.5,1.5,1.5H803.7c0.8,0,1.5-0.7,1.5-1.5V424
		C805.2,423.2,804.5,422.5,803.7,422.5z M803.1,442h-23.5v-17.4h23.5V442z M786.4,428.5c0,1-0.801,1.8-1.801,1.8l0,0
		c-1,0-1.8-0.8-1.8-1.8l0,0c0-1,0.8-1.8,1.8-1.8l0,0C785.6,426.7,786.4,427.5,786.4,428.5L786.4,428.5z M786.4,433.8
		c0.199-0.3,0.6-0.3,0.899-0.2l3.4,1.9c0.3,0.2,0.7,0.1,0.899-0.2l4.101-5.1c0.2-0.3,0.5-0.2,0.7,0.1l5.1,9.5c0.2,0.3,0,0.5-0.3,0.5
		h-19.9c-0.3,0-0.399-0.2-0.2-0.5L786.4,433.8z"/>
</g>
<g>
	<circle fill="#DF0A22" cx="855.1" cy="433.2" r="25.1"/>
	
		<rect x="839.914" y="431.404" transform="matrix(-0.7071 0.7071 -0.7071 -0.7071 1765.8184 134.6938)" fill="#FFFFFF" width="30.199" height="3.299"/>
	<path fill="#FFFFFF" d="M862.1,434.6c-3.1,0-5.6,2.5-5.6,5.6s2.5,5.6,5.6,5.6c3.101,0,5.5-2.5,5.5-5.6S865.1,434.6,862.1,434.6z
		 M862.1,442.8c-1.5,0-2.699-1.2-2.699-2.7s1.199-2.7,2.699-2.7s2.7,1.2,2.7,2.7S863.6,442.8,862.1,442.8z"/>
	<path fill="#FFFFFF" d="M848.1,431.7c3.101,0,5.601-2.5,5.601-5.5c0-3.1-2.5-5.6-5.601-5.6c-3.1,0-5.6,2.5-5.6,5.6
		C842.6,429.2,845,431.7,848.1,431.7z M848.1,423.5c1.5,0,2.7,1.2,2.7,2.7s-1.2,2.7-2.7,2.7s-2.699-1.2-2.699-2.7
		S846.6,423.5,848.1,423.5z"/>
</g>
<g>
	<g>
		<path fill="#656666" d="M918.8,409.1c13.3,0,24,10.8,24,24c0,13.3-10.8,24-24,24c-13.3,0-24-10.8-24-24
			C894.8,419.9,905.6,409.1,918.8,409.1 M918.8,408.1c-13.8,0-25.1,11.2-25.1,25.1c0,13.8,11.2,25.1,25.1,25.1
			c13.8,0,25.101-11.2,25.101-25.1S932.7,408.1,918.8,408.1L918.8,408.1z"/>
	</g>
	
		<rect x="903.62" y="431.419" transform="matrix(-0.7071 0.7071 -0.7071 -0.7071 1874.5782 89.661)" fill="#656666" width="30.2" height="3.299"/>
	<path fill="#656666" d="M925.8,434.6c-3.1,0-5.6,2.5-5.6,5.6s2.5,5.6,5.6,5.6c3.101,0,5.601-2.5,5.601-5.6
		C931.3,437.1,928.9,434.6,925.8,434.6z M925.8,442.8c-1.5,0-2.7-1.2-2.7-2.7s1.2-2.7,2.7-2.7s2.7,1.2,2.7,2.7
		S927.3,442.8,925.8,442.8z"/>
	<path fill="#656666" d="M911.8,431.7c3.101,0,5.601-2.5,5.601-5.6s-2.5-5.6-5.601-5.6c-3.1,0-5.5,2.5-5.5,5.6
		S908.8,431.7,911.8,431.7z M911.8,423.5c1.5,0,2.7,1.2,2.7,2.7s-1.2,2.7-2.7,2.7s-2.7-1.2-2.7-2.7S910.3,423.5,911.8,423.5z"/>
</g>
<g>
	<circle fill="#DF0A22" cx="25.1" cy="505.2" r="25.1"/>
	<path fill="#FFFFFF" d="M40.1,504.3h-5.7V493c0-0.3-0.3-0.6-0.6-0.6H10c-0.3,0-0.6,0.3-0.6,0.6v14.7c0,0.3,0.3,0.6,0.6,0.6h3.8
		c0,0.9-0.3,2.801-1.9,3.801c-0.2,0.1-0.3,0.399-0.2,0.699c0.1,0.2,0.3,0.4,0.5,0.4l0,0c3.4-0.2,4.8-3,5.1-4.9h4.4v7.5
		c0,0.301,0.3,0.601,0.6,0.601h12.4c0.3,1.399,1.4,3.5,3.9,3.6l0,0c0.2,0,0.5-0.2,0.5-0.399c0.1-0.2,0-0.5-0.2-0.601
		c-1-0.7-1.3-1.899-1.3-2.6h2.5c0.3,0,0.6-0.3,0.6-0.601v-11C40.7,504.5,40.4,504.3,40.1,504.3z M21.8,504.8v2.301h-4.9
		c-0.3,0-0.5,0.199-0.6,0.5c0,0.1-0.3,2.699-2.3,3.8c1-1.7,0.8-3.7,0.8-3.9c0-0.3-0.3-0.5-0.6-0.5h-3.7v-13.5h22.8v10.7h-11
		C22,504.3,21.8,504.5,21.8,504.8z"/>
</g>
<g>
	<g>
		<path fill="#656666" d="M85.8,481.1c13.2,0,24,10.7,24,24C109.8,518.3,99.1,529,85.8,529c-13.2,0-24-10.7-24-23.899
			C61.9,491.9,72.6,481.1,85.8,481.1 M85.8,480.1c-13.8,0-25,11.2-25,25c0,13.8,11.2,25,25,25c13.8,0,25-11.2,25-25
			C110.8,491.3,99.6,480.1,85.8,480.1L85.8,480.1z"/>
	</g>
	<path fill="none" d="M71.4,493.6v13.5h3.7c0.3,0,0.5,0.199,0.6,0.5c0,0.1,0.2,2.1-0.8,3.8c2-1.101,2.2-3.7,2.2-3.8
		c0-0.301,0.3-0.5,0.6-0.5h4.9V504.8c0-0.3,0.3-0.6,0.6-0.6h11v-10.6H71.4L71.4,493.6z"/>
	<path fill="#656666" d="M100.8,504.2h-5.6V493c0-0.3-0.3-0.6-0.6-0.6H70.8c-0.3,0-0.6,0.3-0.6,0.6v14.7c0,0.3,0.3,0.6,0.6,0.6h3.7
		c0,0.9-0.3,2.801-1.8,3.801c-0.2,0.1-0.3,0.399-0.2,0.6s0.3,0.4,0.5,0.4l0,0c3.4-0.2,4.8-3,5.1-4.9h4.4v7.5c0,0.3,0.3,0.6,0.6,0.6
		h12.3c0.3,1.4,1.4,3.5,3.9,3.601l0,0c0.2,0,0.5-0.2,0.5-0.4c0.1-0.2,0-0.5-0.2-0.6c-1-0.7-1.3-1.9-1.3-2.601h2.5
		c0.3,0,0.6-0.3,0.6-0.6v-10.9C101.4,504.5,101.1,504.2,100.8,504.2z M82.6,504.8v2.301h-4.9c-0.3,0-0.5,0.199-0.6,0.5
		c0,0.1-0.3,2.699-2.2,3.8c1-1.7,0.8-3.7,0.8-3.8c0-0.301-0.3-0.5-0.6-0.5h-3.7v-13.5h22.7v10.7h-11
		C82.8,504.2,82.6,504.5,82.6,504.8z"/>
</g>
<g>
	<circle fill="#DF0A22" cx="148.8" cy="505.2" r="25.1"/>
	<path fill="#FFFFFF" d="M146.9,502.9c-1.4,0.899-3.5,3.2-3.7,3.899c-0.1,0.7,1.1,2.101,1.3,2.4s0.7,1.7-0.8,2.8
		c-1.4,1-5,3.601-5.6,4c-1.3,1-2.4-1.2-2.9-1.899c-0.5-0.601-2.6-6,9.2-14.5c11.8-8.5,16.2-4.7,16.7-4.1c0.5,0.6,2.2,2.4,0.9,3.3
		c-0.6,0.4-4.1,3-5.6,4c-1.4,1-2.6,0.101-2.9-0.199c-0.2-0.301-1.2-1.9-1.9-2.001C151.1,500.6,148.3,501.9,146.9,502.9z"/>
</g>
<g>
	<path fill="#656666" d="M211.7,481.1c13.2,0,24,10.8,24,24c0,13.199-10.8,24-24,24c-13.2,0-24-10.801-24-24
		C187.7,491.9,198.5,481.1,211.7,481.1 M211.7,480.1c-13.8,0-25,11.2-25,25c0,13.8,11.2,25,25,25c13.8,0,25-11.2,25-25
		C236.7,491.3,225.5,480.1,211.7,480.1L211.7,480.1z"/>
</g>
<path fill="#656666" d="M209.9,502.8c-1.4,0.9-3.5,3.2-3.6,3.9c-0.1,0.7,1.1,2.1,1.3,2.4c0.2,0.3,0.7,1.699-0.8,2.8
	c-1.4,1-4.9,3.5-5.5,4c-1.3,1-2.4-1.2-2.9-1.9c-0.5-0.6-2.6-6,9.2-14.4c11.8-8.4,16.2-4.7,16.6-4.1c0.5,0.6,2.2,2.4,0.9,3.3
	c-0.6,0.4-4.1,2.9-5.5,4c-1.4,1-2.6,0.101-2.9-0.199c-0.2-0.301-1.2-1.9-1.9-2.001C214,500.5,211.2,501.8,209.9,502.8z"/>
<g>
	<circle fill="#DF0A22" cx="276.1" cy="505.2" r="25.1"/>
	<g>
		<polygon fill="#FFFFFF" points="290.9,507.3 280.8,507.3 280.8,502.2 272.7,510.3 280.8,518.4 280.8,513.4 290.9,513.4 		"/>
		<polygon fill="#FFFFFF" points="279.4,500.1 271.3,492 271.3,497 261.2,497 261.2,503.101 271.3,503.101 271.3,508.2 		"/>
	</g>
</g>
<g>
	<g>
		<path fill="#656666" d="M340.6,481.2c13.3,0,24,10.8,24,24c0,13.3-10.8,24-24,24c-13.3,0-24-10.8-24-24
			C316.5,491.9,327.3,481.2,340.6,481.2 M340.6,480.1c-13.8,0-25.1,11.2-25.1,25.1c0,13.8,11.2,25.1,25.1,25.1
			c13.8,0,25.1-11.199,25.1-25.1C365.6,491.3,354.4,480.1,340.6,480.1L340.6,480.1z"/>
	</g>
	<g>
		<polygon fill="#656666" points="355.4,507.3 345.3,507.3 345.3,502.2 337.2,510.3 345.3,518.4 345.3,513.4 355.4,513.4 		"/>
		<polygon fill="#656666" points="343.9,500.1 335.8,492 335.8,497 325.8,497 325.8,503.101 335.8,503.101 335.8,508.2 		"/>
	</g>
</g>
<circle fill="#DF0A22" cx="406.2" cy="505.2" r="25"/>
<g>
	
		<rect x="396.716" y="495.928" transform="matrix(-0.6556 0.7551 -0.7551 -0.6556 1038.2488 528.2045)" fill="#FFFFFF" width="3.9" height="9.9"/>
	<polygon fill="#FFFFFF" points="418.7,490.7 408.8,494 411.6,496.2 402.6,507.101 402.6,519.7 406.5,519.7 406.5,508.5 
		414.6,498.7 417.3,500.9 	"/>
</g>
<g>
	<g>
		<path fill="#656666" d="M468.5,481.2c13.3,0,24,10.8,24,24c0,13.3-10.8,24-24,24c-13.3,0-24-10.8-24-24
			C444.5,491.9,455.3,481.2,468.5,481.2 M468.5,480.1c-13.8,0-25.1,11.2-25.1,25.1c0,13.8,11.199,25.1,25.1,25.1
			c13.8,0,25.1-11.199,25.1-25.1C493.6,491.3,482.4,480.1,468.5,480.1L468.5,480.1z"/>
	</g>
	<g>
		
			<rect x="459.194" y="495.985" transform="matrix(-0.6558 0.7549 -0.7549 -0.6558 1141.7362 481.304)" fill="#656666" width="3.9" height="9.901"/>
		<polygon fill="#656666" points="481,490.6 471.2,493.9 473.9,496.2 464.9,507.101 464.9,519.7 468.8,519.7 468.8,508.5 
			476.9,498.7 479.6,500.9 		"/>
	</g>
</g>
<circle fill="#DF0A22" cx="534.1" cy="505.2" r="25"/>
<path fill="#FFFFFF" d="M547.1,501c-2.3-7.2-10.1-11.1-17.199-8.8c-7.2,2.3-11.101,10.1-8.801,17.2c2.301,7.2,10.101,11.1,17.2,8.8
	C545.4,515.9,549.4,508.101,547.1,501z M535.4,499.4c0.1-0.7,0.199-1.4,0.199-2.1c0.101-0.7,0.101-1.3,0.101-1.8v-0.3
	c2.899,0.5,5.6,2.3,7.1,5l-0.399,0.1c-0.5,0.2-1.101,0.4-1.7,0.7c-0.601,0.3-1.3,0.601-1.9,0.9c-0.3,0.1-0.8,0.399-1.3,0.6
	c-0.3,0.101-0.6,0.3-0.9,0.4c-0.1-0.101-0.1-0.2-0.199-0.3c-0.301-0.301-0.7-0.5-1.101-0.7c-0.1,0-0.2-0.101-0.3-0.101
	c0-0.3,0.1-0.699,0.1-0.999C535.3,500.2,535.3,499.7,535.4,499.4z M530.9,495.5c0.199-0.1,0.5-0.1,0.699-0.2v0.1
	c0.101,0.6,0.101,1.3,0.2,1.9c0.101,0.7,0.2,1.4,0.3,2.1c0.101,0.3,0.101,0.9,0.2,1.5c0,0.399,0.101,0.7,0.101,1.1
	c-0.101,0-0.2,0.101-0.301,0.101c-0.3,0.199-0.5,0.399-0.8,0.6c-0.1,0.1-0.1,0.2-0.2,0.3c-0.3-0.1-0.699-0.3-1.1-0.5
	c-0.5-0.2-1.1-0.5-1.4-0.6c-0.6-0.3-1.3-0.601-1.899-0.9c-0.601-0.3-1.2-0.5-1.7-0.7h-0.1C526.3,498.1,528.3,496.3,530.9,495.5z
	 M527.6,510.5c-0.399,0.5-0.8,0.9-1.199,1.3L526.3,511.9c-0.899-1-1.6-2.2-2-3.5c-0.399-1.4-0.6-2.7-0.399-4.101h0.1
	c0.5,0.101,1.1,0.301,1.7,0.4c0.7,0.1,1.399,0.3,2.1,0.4c0.4,0.1,0.9,0.199,1.5,0.3c0.4,0.1,0.8,0.2,1.2,0.3c0,0.1,0,0.2,0,0.3
	c0,0.101,0.1,0.3,0.1,0.4c0,0.1,0.101,0.3,0.101,0.399c0,0.101,0.1,0.2,0.2,0.301c-0.2,0.3-0.5,0.6-0.801,0.899
	c-0.399,0.5-0.8,0.9-1.1,1.101C528.6,509.5,528.1,510,527.6,510.5z M537.2,514.9c-2.601,0.8-5.3,0.6-7.5-0.5V514.3
	c0.3-0.399,0.6-1,0.899-1.5c0.301-0.6,0.7-1.199,1-1.899c0.101-0.3,0.4-0.8,0.7-1.3c0.2-0.301,0.4-0.7,0.601-1
	c0.1,0,0.199,0.1,0.3,0.1c0.3,0.1,0.7,0.1,1,0.1c0.1,0,0.2,0,0.3,0c0.2,0.301,0.4,0.601,0.5,0.9c0.3,0.5,0.6,1,0.7,1.3
	c0.3,0.601,0.6,1.3,1,1.9c0.3,0.6,0.6,1.1,0.899,1.6l0.101,0.2C537.7,514.7,537.4,514.8,537.2,514.9z M541.3,512.3l-0.1-0.199
	c-0.4-0.5-0.8-0.9-1.2-1.4s-0.9-1-1.4-1.6C538.4,508.9,538,508.5,537.7,508c-0.2-0.3-0.5-0.5-0.7-0.8c0.1-0.1,0.1-0.2,0.2-0.3
	c0.2-0.4,0.399-0.8,0.399-1.2c0-0.1,0-0.2,0-0.3c0.301-0.101,0.601-0.101,0.9-0.2c0.6-0.1,1.1-0.3,1.4-0.3
	c0.699-0.101,1.399-0.2,2.1-0.4c0.7-0.1,1.3-0.3,1.8-0.399l0.3-0.101h0.101C544.5,507.101,543.4,510.101,541.3,512.3z"/>
<g>
	<g>
		<path fill="#656666" d="M598.3,481.2c13.3,0,24,10.8,24,24c0,13.3-10.8,24-24,24c-13.3,0-24-10.8-24-24
			C574.3,491.9,585.1,481.2,598.3,481.2 M598.3,480.1c-13.8,0-25.1,11.2-25.1,25.1c0,13.8,11.2,25.1,25.1,25.1
			c13.8,0,25.101-11.199,25.101-25.1C623.4,491.3,612.1,480.1,598.3,480.1L598.3,480.1z"/>
	</g>
	<path fill="#656666" d="M611.3,501c-2.3-7.2-10.1-11.1-17.2-8.8c-7.199,2.3-11.1,10.1-8.8,17.2c2.3,7.2,10.101,11.1,17.2,8.8
		C609.7,515.9,613.7,508.101,611.3,501z M600.4,497.3c0.1-0.7,0.1-1.3,0.1-1.9c0-0.1,0-0.1,0-0.2c2.6,0.6,4.9,2.2,6.4,4.4
		c-0.101,0-0.2,0.1-0.301,0.1c-0.5,0.2-1.1,0.4-1.699,0.7c-0.601,0.3-1.301,0.6-1.9,0.899c-0.4,0.2-1.6,0.7-2.3,1
		c-0.2-0.199-0.5-0.3-0.7-0.5c0.1-0.8,0.2-2.1,0.2-2.6S600.3,498,600.4,497.3z M595.2,495.5c0.1,0,0.1,0,0.2-0.1v0.1
		c0,0.5,0.1,1.2,0.199,1.8c0.101,0.7,0.2,1.4,0.301,2.1c0.1,0.6,0.199,2,0.3,2.8c-0.101,0.1-0.3,0.2-0.4,0.3
		c-0.8-0.399-2.1-0.899-2.6-1.1c-0.7-0.3-1.3-0.6-1.9-0.9c-0.6-0.3-1.2-0.5-1.7-0.7C590.8,497.9,592.8,496.3,595.2,495.5z
		 M591.5,510.2c-0.4,0.5-0.9,0.9-1.2,1.3c-0.7-0.899-1.3-2-1.7-3.1c-0.399-1.2-0.5-2.4-0.5-3.601c0.5,0.101,1.101,0.301,1.7,0.4
		c0.7,0.1,1.4,0.3,2.101,0.4c0.6,0.1,2,0.399,2.899,0.6c0,0.1,0,0.1,0,0.2c0,0.1,0,0.1,0.101,0.2c-0.601,0.6-1.5,1.699-2,2.199
		C592.5,509.101,592,509.7,591.5,510.2z M601.5,514.9c-2.4,0.8-4.9,0.6-7.1-0.3c0.3-0.5,0.6-1,1-1.601c0.3-0.6,0.699-1.2,1-1.899
		c0.3-0.5,1-1.7,1.399-2.4c0.2,0,0.4,0,0.5,0c0.4,0.7,1.101,1.9,1.4,2.4c0.3,0.699,0.7,1.3,1,1.899c0.3,0.601,0.6,1.101,0.899,1.601
		c0,0,0,0.1,0.101,0.1C601.6,514.8,601.5,514.9,601.5,514.9z M605.9,511.9c0-0.101-0.101-0.101-0.101-0.2c-0.3-0.4-0.7-0.9-1.2-1.4
		c-0.399-0.5-0.899-1-1.5-1.6c-0.3-0.4-1.1-1.3-1.699-1.9c0.1-0.3,0.199-0.5,0.3-0.8c0.8-0.2,2-0.5,2.5-0.6
		c0.7-0.101,1.399-0.2,2.1-0.4c0.7-0.1,1.3-0.3,1.8-0.399c0.101,0,0.2-0.101,0.301-0.101C608.6,507.3,607.7,509.9,605.9,511.9z"/>
</g>
<circle opacity="0.7" fill="#231F20" stroke="#A7A9AC" stroke-width="2" stroke-miterlimit="10" enable-background="new    " cx="187.9" cy="229.2" r="21.4"/>
<line fill="none" stroke="#FFFFFF" stroke-width="1.5" stroke-miterlimit="10" x1="179.6" y1="233.2" x2="189.1" y2="223.8"/>
<line fill="none" stroke="#FFFFFF" stroke-width="1.5" stroke-miterlimit="10" x1="188" y1="223.8" x2="197.4" y2="233.2"/>
<polygon id="polygon4578-1_1_" fill="#FFFFFF" points="717.7,582 726.5,573.3 735.2,581.9 735.9,581.2 726.5,571.8 716.9,581.3 "/>
<polygon id="polygon4578-1-1_1_" fill="#FFFFFF" points="726.5,630.5 716.9,620.9 717.7,620.2 726.5,629 735.2,620.4 735.9,621.101 
	"/>
<polygon id="polygon4578-1_2_" fill="#DF0A22" points="989.8,497.5 998.6,506.3 989.9,515 990.6,515.7 1000,506.3 990.5,496.7 "/>
<polygon id="polygon4578-1_3_" fill="#FFFFFF" points="989.8,521.5 998.6,530.4 989.9,539 990.6,539.7 1000,530.4 990.5,520.7 "/>
<path fill="#B3B3B3" d="M200.3,295.4h-0.8v-4.6c0-0.3,0-0.6-0.1-0.8c-0.1-0.4-0.2-0.8-0.4-1.1c-0.2-0.4-0.4-0.7-0.7-1l-2.8-2.8l0,0
	c-0.4-0.4-0.9-0.7-1.4-0.9c-0.3-0.1-0.5-0.2-0.8-0.3c-0.3-0.1-0.5-0.1-0.8-0.1h-14.1c-0.7,0-1.3,0.3-1.8,0.7
	c-0.4,0.4-0.7,1.1-0.7,1.8v9.1h-0.4c-2.3,0-4.1,1.9-4.1,4.1v3.7v8.3h4.5v5.4c0,0.7,0.3,1.3,0.7,1.8c0.4,0.4,1.1,0.7,1.8,0.7H197
	c0.7,0,1.3-0.3,1.8-0.7c0.4-0.4,0.7-1.1,0.7-1.8v-5.4h5v-8.3v-3.7C204.5,297.3,202.6,295.4,200.3,295.4z M193.3,286.6L193.3,286.6
	c0.2,0.1,0.4,0.2,0.4,0.3l2.8,2.8l0,0c0.1,0.1,0.2,0.2,0.3,0.4h-3.5V286.6L193.3,286.6z M178.4,286.3h12.8v3.7v1.7v0.4h5.8v3.3
	h-18.6V286.3L178.4,286.3z M197,316.9h-18.6v-5.4v-5H197v5V316.9z M201.1,300c-0.6,0-1.1-0.5-1.1-1.1c0-0.6,0.5-1.1,1.1-1.1
	s1.1,0.5,1.1,1.1C202.2,299.5,201.7,300,201.1,300z"/>
<circle id="circle4736_1_" fill="#DF0A22" cx="570.4" cy="228.5" r="3.4"/>
<circle id="circle4738_1_" fill="#DF0A22" cx="581.1" cy="228.5" r="3.4"/>
<circle id="circle4740_1_" fill="#DF0A22" cx="591.9" cy="228.5" r="3.4"/>
<polygon id="polygon4544_1_" fill="#DF0A22" points="640.3,219.2 631.5,228 622.6,219.2 621,220.8 629.9,229.7 621.1,238.4 
	622.7,240.1 631.5,231.3 640.3,240.1 641.9,238.4 633.1,229.7 641.9,220.8 "/>
<g>
	<g>
		<g>
			<g>
				<g>
					<g>
						<g>
							<g>
								<g>
									<g>
										<g>
											<g>
												<g>
													<g>
														<defs>
															<polygon id="SVGID_10_" points="236.9,313.7 238.3,305.2 232.2,299.2 240.7,298 244.5,290.2 248.4,298 256.9,299.2 
																250.7,305.2 252.2,313.7 244.5,309.7 															"/>
														</defs>
														<clipPath id="SVGID_12_">
															<use xlink:href="#SVGID_10_"  overflow="visible"/>
														</clipPath>
														<polygon id="polygon3271_1_" clip-path="url(#SVGID_12_)" fill="#B3B3B3" points="248.4,298 256.9,299.2 250.7,305.2 
															252.2,313.7 244.5,309.7 236.9,313.7 238.3,305.2 232.2,299.2 240.7,298 244.5,290.2 														"/>
													</g>
												</g>
											</g>
										</g>
									</g>
								</g>
							</g>
						</g>
					</g>
				</g>
			</g>
		</g>
	</g>
</g>
<path id="path4484_1_" opacity="0.6" enable-background="new    " d="M302,310.3l-0.1-0.4c-0.3-1-1.4-2-2.4-2.3l-3.7-1
	c-1-0.3-2.4,0.1-3.2,0.8l-1.3,1.3c-4.9-1.3-8.7-5.1-10-10l1.3-1.3c0.7-0.7,1.1-2.2,0.8-3.2l-1-3.7c-0.3-1-1.3-2.1-2.3-2.4l-0.4-0.1
	c-1-0.3-2.4,0-3.1,0.7l-2,2c-0.4,0.4-0.6,1.4-0.6,1.4c-0.1,6.4,2.4,12.5,6.9,17s10.6,7,17,6.9c0,0,1.1-0.2,1.4-0.6l2-2
	C302,312.7,302.3,311.3,302,310.3"/>
<rect id="rect4538_1_" x="260.4" y="227.3" fill="#DF0A22" width="27.3" height="2.3"/>
<polygon id="polygon4544_2_" fill="#DF0A22" points="255,227.4 242.5,227.4 242.5,214.9 240.2,214.9 240.2,227.4 227.8,227.4 
	227.8,229.7 240.2,229.7 240.2,242.1 242.5,242.1 242.5,229.7 255,229.7 "/>
<polygon id="polygon4530_1_" fill="none" stroke="#FFFFFF" stroke-miterlimit="10" points="141.3,614.101 141.3,592.8 155.5,603.5 
	"/>
<path id="path4552_1_" fill="#DF0A22" d="M525,0.1c-13.8,0-25,11.2-25,25c0,13.8,11.2,25,25,25s25-11.2,25-25
	C550,11.3,538.8,0.1,525,0.1 M525,49.2c-13.3,0-24.1-10.8-24.1-24.1C500.9,11.8,511.7,1,525,1s24.1,10.8,24.1,24.1
	C549.1,38.4,538.3,49.2,525,49.2"/>
<path id="path4552_2_" fill="#FFFFFF" d="M25,0.1c-13.8,0-25,11.2-25,25c0,13.8,11.2,25,25,25s25-11.2,25-25
	C50,11.3,38.8,0.1,25,0.1 M25,49.2c-13.3,0-24.1-10.8-24.1-24.1C0.9,11.8,11.7,1,25,1s24.1,10.8,24.1,24.1
	C49.1,38.4,38.3,49.2,25,49.2"/>
<path id="path4552_3_" fill="#DF0A22" d="M939.3,80.6c-13.8,0-25,11.2-25,25c0,13.8,11.2,25,25,25s25-11.2,25-25
	C964.3,91.8,953.1,80.6,939.3,80.6 M939.3,129.7c-13.3,0-24.1-10.8-24.1-24.1c0-13.3,10.8-24.1,24.1-24.1S963.4,92.3,963.4,105.6
	C963.4,118.9,952.6,129.7,939.3,129.7"/>
<path id="path4552_4_" fill="#DF0A22" d="M881.7,80.1c-13.8,0-25,11.2-25,25c0,13.8,11.2,25,25,25s25-11.2,25-25
	C906.7,91.3,895.5,80.1,881.7,80.1 M881.7,129.2c-13.3,0-24.101-10.8-24.101-24.1C857.6,91.8,868.4,81,881.7,81s24.1,10.8,24.1,24.1
	C905.8,118.4,895,129.2,881.7,129.2"/>
<path id="path4552_5_" fill="#DF0A22" d="M826.4,80.1c-13.801,0-25,11.2-25,25c0,13.8,11.199,25,25,25c13.8,0,25-11.2,25-25
	C851.4,91.4,840.2,80.1,826.4,80.1 M826.4,129.2c-13.301,0-24.101-10.8-24.101-24.1c0-13.3,10.8-24.1,24.101-24.1
	c13.3,0,24.1,10.8,24.1,24.1C850.5,118.5,839.7,129.2,826.4,129.2"/>
<path id="path4552_6_" fill="#DF0A22" d="M768.4,80.1c-13.801,0-25,11.2-25,25c0,13.8,11.199,25,25,25c13.8,0,25-11.2,25-25
	C793.4,91.3,782.2,80.1,768.4,80.1 M768.4,129.2c-13.301,0-24.101-10.8-24.101-24.1c0-13.3,10.8-24.1,24.101-24.1
	c13.3,0,24.1,10.8,24.1,24.1C792.5,118.4,781.7,129.2,768.4,129.2"/>
<path id="path4552_7_" fill="#FFFFFF" d="M716.1,80.1c-13.8,0-25,11.2-25,25c0,13.8,11.2,25,25,25c13.801,0,25-11.2,25-25
	C741.1,91.3,729.9,80.1,716.1,80.1 M716.1,129.2c-13.3,0-24.1-10.8-24.1-24.1c0-13.3,10.8-24.1,24.1-24.1
	C729.4,81,740.2,91.8,740.2,105.1C740.2,118.4,729.4,129.2,716.1,129.2"/>
<path id="path4552_8_" fill="#FFFFFF" d="M600.7,80.1c-13.8,0-25,11.2-25,25c0,13.8,11.2,25,25,25s25-11.2,25-25
	C625.7,91.3,614.5,80.1,600.7,80.1 M600.7,129.2c-13.3,0-24.101-10.8-24.101-24.1C576.6,91.8,587.4,81,600.7,81s24.1,10.8,24.1,24.1
	C624.8,118.4,614,129.2,600.7,129.2"/>
<path id="path4552_9_" fill="#FFFFFF" d="M485.8,80.1c-13.8,0-25,11.2-25,25c0,13.8,11.2,25,25,25s25-11.2,25-25
	C510.8,91.3,499.6,80.1,485.8,80.1 M485.8,129.2c-13.3,0-24.1-10.8-24.1-24.1c0-13.3,10.8-24.1,24.1-24.1S509.9,91.8,509.9,105.1
	C509.9,118.4,499.1,129.2,485.8,129.2"/>
<path id="path4552_10_" fill="#DF0A22" d="M370.6,80.1c-13.8,0-25,11.2-25,25c0,13.8,11.2,25,25,25c13.801,0,25-11.2,25-25
	C395.6,91.3,384.4,80.1,370.6,80.1 M370.6,129.2c-13.3,0-24.1-10.8-24.1-24.1c0-13.3,10.8-24.1,24.1-24.1
	C383.9,81,394.7,91.8,394.7,105.1C394.7,118.4,383.9,129.2,370.6,129.2"/>
<path id="path4552_11_" fill="#FFFFFF" d="M312.9,80.1c-13.8,0-25,11.2-25,25c0,13.8,11.2,25,25,25c13.8,0,25-11.2,25-25
	C337.9,91.3,326.7,80.1,312.9,80.1 M312.9,129.2c-13.3,0-24.1-10.8-24.1-24.1c0-13.3,10.8-24.1,24.1-24.1
	c13.3,0,24.1,10.8,24.1,24.1C337,118.4,326.2,129.2,312.9,129.2"/>
<path id="path4552_12_" fill="#DF0A22" d="M255.4,80.1c-13.8,0-25,11.2-25,25c0,13.8,11.2,25,25,25c13.8,0,25-11.2,25-25
	C280.4,91.3,269.2,80.1,255.4,80.1 M255.4,129.2c-13.3,0-24.1-10.8-24.1-24.1c0-13.3,10.8-24.1,24.1-24.1
	c13.3,0,24.1,10.8,24.1,24.1C279.5,118.4,268.7,129.2,255.4,129.2"/>
<path id="path4552_13_" fill="#DF0A22" d="M140.2,80.1c-13.8,0-25,11.2-25,25c0,13.8,11.2,25,25,25c13.8,0,25-11.2,25-25
	C165.2,91.3,154,80.1,140.2,80.1 M140.2,129.2c-13.3,0-24.1-10.8-24.1-24.1c0-13.3,10.8-24.1,24.1-24.1c13.3,0,24.1,10.8,24.1,24.1
	C164.3,118.4,153.5,129.2,140.2,129.2"/>
<path id="path4552_14_" fill="#FFFFFF" d="M135.1,143.6c-13.4,0-24.3,10.9-24.3,24.3c0,13.4,10.9,24.3,24.3,24.3
	s24.3-10.9,24.3-24.3C159.5,154.5,148.6,143.6,135.1,143.6 M135.1,191.4c-12.9,0-23.4-10.5-23.4-23.4c0-12.9,10.5-23.4,23.4-23.4
	s23.4,10.5,23.4,23.4C158.5,180.9,148.1,191.4,135.1,191.4"/>
<path id="path4552_15_" fill="#FFFFFF" d="M236,143.6c-13.8,0-25,11.2-25,25c0,13.8,11.2,25,25,25s25-11.2,25-25
	C261,154.8,249.8,143.6,236,143.6 M236,192.7c-13.3,0-24.1-10.8-24.1-24.1c0-13.3,10.8-24.1,24.1-24.1s24.1,10.8,24.1,24.1
	C260.1,181.9,249.3,192.7,236,192.7"/>
<path id="path4552_16_" fill="#DF0A22" d="M581.1,143.1c-13.8,0-25,11.2-25,25c0,13.8,11.2,25,25,25c13.801,0,25-11.2,25-25
	C606.1,154.3,594.9,143.1,581.1,143.1 M581.1,192.2c-13.3,0-24.1-10.8-24.1-24.1c0-13.3,10.8-24.1,24.1-24.1
	c13.301,0,24.101,10.8,24.101,24.1C605.2,181.4,594.4,192.2,581.1,192.2"/>
<path id="path4552_17_" fill="#B3B3B3" d="M685.9,143.1c-13.801,0-25,11.2-25,25c0,13.8,11.199,25,25,25c13.8,0,25-11.2,25-25
	C710.9,154.3,699.7,143.1,685.9,143.1 M685.9,192.2c-13.301,0-24.101-10.8-24.101-24.1c0-13.3,10.8-24.1,24.101-24.1
	c13.3,0,24.1,10.8,24.1,24.1C710,181.4,699.2,192.2,685.9,192.2"/>
<path id="path4552_18_" fill="#FFFFFF" d="M146.1,578.2c-13.8,0-25,11.2-25,25s11.2,25,25,25c13.8,0,25-11.2,25-25
	S159.9,578.2,146.1,578.2 M146.1,627.3c-13.3,0-24.1-10.8-24.1-24.1s10.8-24.1,24.1-24.1c13.3,0,24.1,10.8,24.1,24.1
	S159.4,627.3,146.1,627.3"/>
<circle fill="#DF0A22" cx="661.3" cy="505.2" r="25"/>
<g>
	<path fill="#DF0A22" d="M219.3,592.7L219.3,592.7c0-0.1,0-0.2,0-0.2s0,0,0-0.1l-0.1-0.101c0,0,0,0-0.1-0.1l0,0c0,0-0.1,0-0.1-0.1
		c0,0,0,0-0.1,0l0,0h-0.1h-0.1h-0.1h-0.1h-0.1c0,0-0.1,0-0.1,0.1l0,0L202.2,607c-0.2,0.2-0.3,0.5-0.1,0.7c0.1,0.2,0.3,0.3,0.5,0.3
		c0.1,0,0.1,0,0.2,0l8.5-2.3l2.3,8.5c0.1,0.3,0.3,0.4,0.6,0.4l0,0c0.3,0,0.5-0.2,0.6-0.5L219.3,592.7L219.3,592.7
		C219.3,592.8,219.3,592.8,219.3,592.7z"/>
	<g>
		<path fill="#DF0A22" d="M211.7,579.4c13.2,0,24,10.8,24,24s-10.8,24-24,24c-13.2,0-24-10.8-24-24S198.5,579.4,211.7,579.4
			 M211.7,578.4c-13.8,0-25,11.2-25,25s11.2,25,25,25c13.8,0,25-11.2,25-25S225.5,578.4,211.7,578.4L211.7,578.4z"/>
	</g>
</g>
<g>
	<g>
		<g>
			<path id="SVGID_15_" fill="#FFFFFF" d="M650.5,507.9c1,0,1.9-0.9,1.9-2c0-1.101-0.801-2-1.9-2c-1,0-1.8,0.899-1.8,2
				C648.7,507,649.5,507.9,650.5,507.9 M672.7,509.101L671,507.3l-1.7,1.801l-1.6-1.801l-1.7,1.801l-1.6-1.801l-2.2,2.301h-2.7
				c-1.2,2.199-3.4,3.699-6,3.699c-3.8,0-6.9-3.3-6.9-7.3s3.101-7.3,6.9-7.3c2.5,0,4.7,1.5,5.9,3.7H673.3l2.3,2.5
				c0.4,0.399,0.301,0.7,0,1.1L672.7,509.101"/>
		</g>
	</g>
</g>
<polygon id="polygon4574_1_" fill="#DF0A22" points="68.8,605.4 70,606.7 85.9,590.7 69.7,574.5 68.5,575.7 83.4,590.7 "/>
<polygon id="polygon4578_1_" fill="#DF0A22" points="17.1,576.5 15.9,575.3 0,591.2 16.2,607.5 17.4,606.2 2.5,591.2 "/>
<g id="Layer_1_1_" xmlns:dc="http://purl.org/dc/elements/1.1/" xmlns:cc="http://creativecommons.org/ns#" xmlns:rdf="http://www.w3.org/1999/02/22-rdf-syntax-ns#" xmlns:svg="http://www.w3.org/2000/svg" xmlns:sodipodi="http://sodipodi.sourceforge.net/DTD/sodipodi-0.dtd" xmlns:inkscape="http://www.inkscape.org/namespaces/inkscape" inkscape:version="0.48.5 r10040" sodipodi:docname="icons.svg">
	<g>
		<polygon id="SVGID_17_" fill="#FFFFFF" points="738.4,499.4 740.1,501 731.6,509.601 723,501 724.7,499.4 731.6,506.2 		"/>
	</g>
</g>
<circle fill="#FFFFFF" stroke="#24A3DD" stroke-miterlimit="10" cx="336.9" cy="305.1" r="9.9"/>
<circle fill="#FFFFFF" stroke="#B3B3B3" stroke-miterlimit="10" cx="359.1" cy="305.1" r="9.9"/>
<circle fill="#FFFFFF" stroke="#B3B3B3" stroke-miterlimit="10" cx="391.9" cy="304.9" r="12.3"/>
<circle fill="#DF0A22" cx="418.8" cy="304.9" r="12.3"/>
<polygon fill="#DF0A22" points="449.5,300.9 441.9,309.7 457.3,309.7 "/>
<polygon fill="#DF0A22" points="465.6,309.7 473.3,300.9 457.9,300.9 "/>
<circle fill="#B3B3B3" cx="494.7" cy="304.9" r="12.3"/>
<path fill="#FFFFFF" stroke="#FF0000" stroke-miterlimit="10" d="M608.1,286.8c0,0-0.699-0.8-1.6-0.8s-1.6,0.8-1.6,0.8
	s-12.301,21-13.801,23.9c0,2.5,1.5,3.4,1.5,3.4H606.4h13.8c0,0,1.6-0.9,1.6-3.4C620.3,307.8,608.1,286.8,608.1,286.8z"/>
<circle fill="#FF0000" stroke="#FFFFFF" stroke-miterlimit="10" cx="606.5" cy="308.6" r="2"/>
<path fill="#FF0000" d="M606.5,292.4c0,0-1.8,0.2-1.6,2.7c0.199,2.5,1.6,9.4,1.6,9.4s1.3-6.9,1.6-9.4
	C608.4,292.6,606.5,292.4,606.5,292.4z"/>
<circle fill="#2E97D0" cx="337" cy="301.4" r="0.9"/>
<polyline fill="none" stroke="#FFFFFF" stroke-miterlimit="10" points="411.9,305.9 415.4,309.7 425.8,299.2 "/>
<line fill="none" stroke="#FFFFFF" stroke-miterlimit="10" x1="490.3" y1="300.1" x2="499.5" y2="309.7"/>
<line fill="none" stroke="#FFFFFF" stroke-miterlimit="10" x1="489.8" y1="309.6" x2="499.5" y2="300.3"/>
<polyline fill="#FFFFFF" stroke="#626466" stroke-miterlimit="10" points="569.7,301.6 565.7,301.6 565.7,309.5 573.6,309.5 
	573.6,305.5 "/>
<path fill="#FFFFFF" stroke="#626466" stroke-miterlimit="10" d="M574.9,299.5"/>
<line fill="none" stroke="#626466" stroke-miterlimit="10" x1="570.5" y1="304.9" x2="575.2" y2="300"/>
<line fill="none" stroke="#626466" stroke-miterlimit="10" x1="575" y1="300.3" x2="574.9" y2="303"/>
<line fill="none" stroke="#626466" stroke-miterlimit="10" x1="574.9" y1="300.2" x2="572.3" y2="300.4"/>
<line fill="none" stroke="#24A3DD" stroke-miterlimit="10" x1="336.9" y1="303" x2="336.9" y2="309.6"/>
<circle fill="#B3B3B3" cx="359.1" cy="301.4" r="0.9"/>
<line fill="none" stroke="#B3B3B3" stroke-miterlimit="10" x1="359" y1="303" x2="359" y2="309.6"/>
<polygon id="polygon4530_2_" fill="none" stroke="#FFFFFF" stroke-width="2" stroke-miterlimit="10" points="840.9,289.2 
	840.9,244.4 870.7,266.9 "/>
<path id="path4552_19_" fill="#FFFFFF" d="M851.1,214.5c-28.699,0-52,23.3-52,52c0,28.7,23.301,52,52,52c28.7,0,52-23.3,52-52
	C903.1,237.8,879.8,214.5,851.1,214.5 M851.1,316.6c-27.699,0-50.1-22.5-50.1-50.1c0-27.7,22.5-50.1,50.1-50.1
	c27.7,0,50.101,22.5,50.101,50.1C901.2,294.1,878.8,316.6,851.1,316.6"/>
<polygon id="polygon4578-1_4_" fill="#656666" points="989.8,543.5 998.6,552.4 989.9,561 990.6,561.7 1000,552.4 990.5,542.7 "/>
<g>
	<path fill="#DF0A22" d="M259.7,602.9h19.4c0.4,0,0.7-0.2,0.9-0.5c0.3-0.3,0.4-0.7,0.4-1.2v-5.4c0-0.5-0.1-0.899-0.4-1.199
		c-0.2-0.301-0.5-0.5-0.9-0.5H273h-7.2h-6.1c-0.4,0-0.7,0.1-0.9,0.5c-0.3,0.3-0.4,0.699-0.4,1.199v5.4c0,0.5,0.1,0.9,0.4,1.2
		C259.1,602.7,259.4,602.9,259.7,602.9z"/>
</g>
<g>
	<g>
		<g>
			<g>
				<g>
					<g>
						<g>
							<g>
								<g>
									<g>
										<g>
											<g>
												<g>
													<g>
														<g>
															<defs>
																<path id="SVGID_13_" d="M268.8,588.9v-10.8h1.7v10.5l3.6-3.301c0.1-0.1,0.3-0.1,0.4,0l0.5,0.5
																	c0.1,0.101,0.1,0.301,0,0.4l-4.7,4.3c0,0.101,0,0.101-0.1,0.2l-0.5,0.5c-0.1,0.1-0.3,0.1-0.4,0l-5.2-4.9
																	c-0.1-0.1-0.1-0.3,0-0.399l0.5-0.5c0.1-0.101,0.3-0.101,0.4,0L268.8,588.9z"/>
															</defs>
															<use xlink:href="#SVGID_13_"  overflow="visible" fill="#DF0A22"/>
															<clipPath id="SVGID_14_">
																<use xlink:href="#SVGID_13_"  overflow="visible"/>
															</clipPath>
															<rect x="259" y="573.101" clip-path="url(#SVGID_14_)" fill="#DF0A22" width="21.1" height="23.1"/>
														</g>
													</g>
												</g>
											</g>
										</g>
									</g>
								</g>
							</g>
						</g>
					</g>
				</g>
			</g>
		</g>
	</g>
</g>
<g>
	<path fill="none" stroke="#1B394E" stroke-miterlimit="10" d="M289.6,603.101H309c0.4,0,0.7-0.101,0.9-0.5
		c0.3-0.301,0.4-0.7,0.4-1.2V596c0-0.5-0.1-0.899-0.4-1.2c-0.2-0.3-0.5-0.5-0.9-0.5h-6.1h-7.2h-6.1c-0.4,0-0.7,0.101-0.9,0.5
		c-0.3,0.301-0.4,0.7-0.4,1.2v5.4c0,0.5,0.1,0.899,0.4,1.2C288.9,603,289.2,603.101,289.6,603.101z"/>
</g>
<g>
	<g>
		<g>
			<path id="SVGID_21_" fill="#1B394E" d="M298.6,589.2v-10.8h1.7v10.5l3.6-3.3c0.1-0.101,0.3-0.101,0.4,0l0.5,0.5
				c0.1,0.1,0.1,0.3,0,0.399l-4.7,4.3c0,0.101,0,0.101-0.1,0.2l-0.5,0.5c-0.1,0.101-0.3,0.101-0.4,0l-5.2-4.899
				c-0.1-0.101-0.1-0.301,0-0.4l0.5-0.5c0.1-0.1,0.3-0.1,0.4,0L298.6,589.2z"/>
		</g>
		<g>
			<g>
				<g>
					<g>
						<g>
							<g>
								<g>
									<g>
										<g>
											<g>
												<g>
													<g>
														<g>
															<defs>
																<path id="SVGID_16_" d="M298.6,589.2v-10.8h1.7v10.5l3.6-3.3c0.1-0.101,0.3-0.101,0.4,0l0.5,0.5
																	c0.1,0.1,0.1,0.3,0,0.399l-4.7,4.3c0,0.101,0,0.101-0.1,0.2l-0.5,0.5c-0.1,0.101-0.3,0.101-0.4,0l-5.2-4.899
																	c-0.1-0.101-0.1-0.301,0-0.4l0.5-0.5c0.1-0.1,0.3-0.1,0.4,0L298.6,589.2z"/>
															</defs>
															<clipPath id="SVGID_18_">
																<use xlink:href="#SVGID_16_"  overflow="visible"/>
															</clipPath>
															<rect x="288.9" y="573.4" clip-path="url(#SVGID_18_)" fill="#1B394E" width="21.1" height="23.1"/>
														</g>
													</g>
												</g>
											</g>
										</g>
									</g>
								</g>
							</g>
						</g>
					</g>
				</g>
			</g>
		</g>
	</g>
</g>
<g>
	<g opacity="0.4" enable-background="new    ">
		<g>
			<g>
				<g>
					<g>
						<g>
							<g>
								<g>
									<g>
										<g>
											<g>
												<g>
													<g>
														<g>
															<defs>
																<rect id="SVGID_19_" x="319.7" y="578.4" width="35" height="35"/>
															</defs>
															<clipPath id="SVGID_20_">
																<use xlink:href="#SVGID_19_"  overflow="visible"/>
															</clipPath>
															<rect x="314.7" y="573.4" clip-path="url(#SVGID_20_)" width="45" height="45"/>
														</g>
													</g>
												</g>
											</g>
										</g>
									</g>
								</g>
							</g>
						</g>
					</g>
				</g>
			</g>
		</g>
	</g>
</g>
<g>
	<g>
		<g>
			<g>
				<g>
					<g>
						<g>
							<g>
								<g>
									<g>
										<g>
											<g>
												<g>
													<defs>
														<path id="SVGID_22_" d="M331.3,604.5l1.9,1.9H328c-1.4,0-1.4-1.3-1.4-1.3v-5.2l2,2l4.6-4.601l2.7,2.601L331.3,604.5z
															 M343.1,587.3L341.2,585.4h5.2c1.399,0,1.399,1.3,1.399,1.3v5.2l-2-2l-4.6,4.6l-2.7-2.6L343.1,587.3z"/>
													</defs>
													<clipPath id="SVGID_23_">
														<use xlink:href="#SVGID_22_"  overflow="visible"/>
													</clipPath>
													<rect x="321.7" y="580.4" clip-path="url(#SVGID_23_)" fill="#FFFFFF" width="31" height="31"/>
												</g>
											</g>
										</g>
									</g>
								</g>
							</g>
						</g>
					</g>
				</g>
			</g>
		</g>
	</g>
</g>
<circle opacity="0.15" stroke="#FFFFFF" stroke-width="0.5" stroke-miterlimit="10" enable-background="new    " cx="402.6" cy="613.7" r="34.3"/>
<path fill="#FFFFFF" d="M399,625.101c0,0-18.5-7.7,2-10.7c0,3.899,0,3.899,0,3.899l15-8l-15-7.899v4c0,0-8.5-1-13,7
	c0,0-0.8,2.7,0,5.899C388.8,622.5,396,624.5,399,625.101z"/>
<circle opacity="0.15" enable-background="new    " cx="484.8" cy="613.8" r="34.3"/>
<path fill="#FFFFFF" d="M484.8,578.2c-19.6,0-35.6,15.9-35.6,35.6c0,19.7,15.899,35.601,35.6,35.601S520.4,633.5,520.4,613.8
	C520.4,594.101,504.5,578.2,484.8,578.2z M484.8,648.101c-19,0-34.3-15.4-34.3-34.301c0-18.899,15.4-34.3,34.3-34.3
	c18.9,0,34.3,15.4,34.3,34.3C519.1,632.7,503.8,648.101,484.8,648.101z"/>
<path fill="#FFFFFF" d="M488.4,602.3c0,0,18.5,7.7-2,10.7c0-3.899,0-3.899,0-3.899l-15,8l15,7.899v-4c0,0,8.5,1,13-7
	c0,0,0.8-2.7,0-5.899C498.6,604.9,491.4,603,488.4,602.3z"/>
<path fill="#FFFFFF" d="M559.1,577.8c-11.8,0-21.399,9.601-21.399,21.4s9.6,21.4,21.399,21.4c11.801,0,21.4-9.601,21.4-21.4
	S570.9,577.8,559.1,577.8z M554.2,609.4l-7.3-7.2l2.1-2.1l5.4,5.399l15.3-15.3l1.899,1.9L554.2,609.4z"/>
<g id="Layer_1_2_" xmlns:dc="http://purl.org/dc/elements/1.1/" xmlns:cc="http://creativecommons.org/ns#" xmlns:rdf="http://www.w3.org/1999/02/22-rdf-syntax-ns#" xmlns:svg="http://www.w3.org/2000/svg" xmlns:sodipodi="http://sodipodi.sourceforge.net/DTD/sodipodi-0.dtd" xmlns:inkscape="http://www.inkscape.org/namespaces/inkscape" inkscape:version="0.48.5 r10040" sodipodi:docname="icons.svg">
	<g>
		<polygon id="SVGID_1_" fill="#DF0A22" points="770.4,499.4 772,501 763.5,509.601 755,501 756.6,499.4 763.5,506.2 		"/>
	</g>
</g>
<path fill="#FFFFFF" d="M402.6,578.2c-19.6,0-35.6,15.9-35.6,35.6c0,19.7,15.9,35.601,35.6,35.601c19.7,0,35.601-15.9,35.601-35.601
	C438.2,594.101,422.2,578.2,402.6,578.2z M402.6,648.101c-19,0-34.3-15.4-34.3-34.301c0-18.899,15.4-34.3,34.3-34.3
	c19,0,34.301,15.4,34.301,34.3C436.9,632.7,421.5,648.101,402.6,648.101z"/>
<g>
	<g>
		<path id="SVGID_2_" fill="#FFFFFF" d="M639.4,298v15.4h17V298h-6v-0.9h7v17.2h-19v-17.2h7v0.9H639.4z M647.4,292.2v13.6h1V292
			l3.3,2.9c0.1,0.1,0.2,0.1,0.3,0l0.4-0.4c0.1-0.1,0.1-0.2,0-0.3l-3.801-3.4c0,0,0-0.1-0.1-0.1l-0.4-0.4c-0.1-0.1-0.199-0.1-0.3,0
			l-4.2,3.8c-0.1,0.1-0.1,0.2,0,0.3l0.4,0.4c0.1,0.1,0.2,0.1,0.3,0L647.4,292.2z"/>
	</g>
</g>
<g>
	<path fill="none" stroke="#FFFFFF" stroke-miterlimit="10" d="M596.8,602.5h19.4c0.399,0,0.7-0.2,0.899-0.5
		c0.301-0.3,0.4-0.7,0.4-1.2V595.4c0-0.5-0.1-0.9-0.4-1.2c-0.199-0.3-0.5-0.5-0.899-0.5H610.1H602.9H596.8
		c-0.399,0-0.7,0.2-0.899,0.5c-0.301,0.3-0.4,0.7-0.4,1.2v5.399c0,0.5,0.1,0.9,0.4,1.2C596.1,602.3,596.4,602.5,596.8,602.5z"/>
</g>
<g>
	<g>
		<g>
			<g>
				<g>
					<path id="SVGID_28_" fill="#FFFFFF" d="M605.8,588.5v-10.8h1.7v10.5l3.6-3.3c0.101-0.101,0.301-0.101,0.4,0l0.5,0.5
						c0.1,0.1,0.1,0.3,0,0.399l-4.7,4.301c0,0.1,0,0.1-0.1,0.199l-0.5,0.5c-0.101,0.101-0.3,0.101-0.4,0l-5.2-4.899
						c-0.1-0.101-0.1-0.3,0-0.4l0.5-0.5c0.101-0.1,0.301-0.1,0.4,0L605.8,588.5z"/>
				</g>
				<g>
					<g>
						<g>
							<g>
								<g>
									<g>
										<g>
											<g>
												<g>
													<g>
														<g>
															<defs>
																<path id="SVGID_24_" d="M605.8,588.5v-10.8h1.7v10.5l3.6-3.3c0.101-0.101,0.301-0.101,0.4,0l0.5,0.5
																	c0.1,0.1,0.1,0.3,0,0.399l-4.7,4.301c0,0.1,0,0.1-0.1,0.199l-0.5,0.5c-0.101,0.101-0.3,0.101-0.4,0l-5.2-4.899
																	c-0.1-0.101-0.1-0.3,0-0.4l0.5-0.5c0.101-0.1,0.301-0.1,0.4,0L605.8,588.5z"/>
															</defs>
															<clipPath id="SVGID_25_">
																<use xlink:href="#SVGID_24_"  overflow="visible"/>
															</clipPath>
															<rect x="596.1" y="572.7" clip-path="url(#SVGID_25_)" fill="#FFFFFF" width="21.101" height="23.1"/>
														</g>
													</g>
												</g>
											</g>
										</g>
									</g>
								</g>
							</g>
						</g>
					</g>
				</g>
			</g>
		</g>
	</g>
</g>
<circle fill="none" stroke="#FFFFFF" stroke-width="1.5" stroke-miterlimit="10" cx="644.3" cy="589.3" r="11.3"/>
<line fill="none" stroke="#FFFFFF" stroke-width="1.5" stroke-miterlimit="10" x1="651.9" y1="597.7" x2="660.5" y2="605.7"/>
<polygon id="polygon4544_3_" fill="#FFFFFF" points="650.1,588.8 644.6,588.8 644.6,583.4 643.6,583.4 643.6,588.8 638.2,588.8 
	638.2,589.8 643.6,589.8 643.6,595.2 644.6,595.2 644.6,589.8 650.1,589.8 "/>
<circle fill="none" stroke="#FFFFFF" stroke-width="1.5" stroke-miterlimit="10" cx="676.3" cy="589.3" r="11.3"/>
<line fill="none" stroke="#FFFFFF" stroke-width="1.5" stroke-miterlimit="10" x1="683.9" y1="597.7" x2="692.5" y2="605.7"/>
<rect id="rect4538_2_" x="670.2" y="588.9" fill="#FFFFFF" width="11.899" height="0.899"/>
<g id="Layer_3">
	<path id="path4550_1_" fill="#FFFFFF" stroke="#FFFFFF" stroke-width="2.5" stroke-miterlimit="10" d="M822.8,572.7
		c-14.899,0-27.1,12.1-27.1,27.1s12.1,27.101,27.1,27.101S849.9,614.8,849.9,599.8S837.7,572.7,822.8,572.7 M822.8,625.9
		c-14.399,0-26.1-11.7-26.1-26.101c0-14.399,11.7-26.1,26.1-26.1c14.4,0,26.101,11.7,26.101,26.1
		C848.9,614.2,837.2,625.9,822.8,625.9"/>
	
		<g id="Layer_1_3_" xmlns:dc="http://purl.org/dc/elements/1.1/" xmlns:cc="http://creativecommons.org/ns#" xmlns:rdf="http://www.w3.org/1999/02/22-rdf-syntax-ns#" xmlns:svg="http://www.w3.org/2000/svg" xmlns:sodipodi="http://sodipodi.sourceforge.net/DTD/sodipodi-0.dtd" xmlns:inkscape="http://www.inkscape.org/namespaces/inkscape" inkscape:version="0.48.5 r10040" sodipodi:docname="icons.svg">
		<g>
			<polygon id="SVGID_3_" fill="#FFFFFF" points="817.8,590.7 819.9,588.601 831.1,599.8 819.9,611 817.8,608.8 826.8,599.8 			"/>
		</g>
	</g>
</g>
<g id="Layer_3_1_">
	<path id="path4550_2_" fill="#FFFFFF" stroke="#FFFFFF" stroke-width="2.5" stroke-miterlimit="10" d="M885.3,572.7
		c-14.899,0-27.1,12.1-27.1,27.1s12.1,27.101,27.1,27.101S912.4,614.8,912.4,599.8S900.2,572.7,885.3,572.7 M885.3,625.9
		c-14.399,0-26.1-11.7-26.1-26.101c0-14.399,11.7-26.1,26.1-26.1c14.4,0,26.101,11.7,26.101,26.1
		C911.4,614.2,899.7,625.9,885.3,625.9"/>
	
		<g id="Layer_1_4_" xmlns:dc="http://purl.org/dc/elements/1.1/" xmlns:cc="http://creativecommons.org/ns#" xmlns:rdf="http://www.w3.org/1999/02/22-rdf-syntax-ns#" xmlns:svg="http://www.w3.org/2000/svg" xmlns:sodipodi="http://sodipodi.sourceforge.net/DTD/sodipodi-0.dtd" xmlns:inkscape="http://www.inkscape.org/namespaces/inkscape" inkscape:version="0.48.5 r10040" sodipodi:docname="icons.svg">
		<g>
			<polygon id="SVGID_4_" fill="#FFFFFF" points="880.3,590.7 882.4,588.601 893.6,599.8 882.4,611 880.3,608.8 889.3,599.8 			"/>
		</g>
	</g>
</g>
<path fill="#FFFFFF" d="M27.1,625.9C12.1,625.9,0,638,0,653s12.1,27.101,27.1,27.101S54.2,668,54.2,653S42,625.9,27.1,625.9z
	 M24.2,664.2L22,662l9-9l-9-9l2.2-2.2L35.4,653L24.2,664.2z"/>
<g>
	<g>
		<path fill="#DF0A22" d="M25,692.101c13.2,0,23.9,10.699,23.9,23.899S38.2,739.9,25,739.9S1,729.2,1,716S11.8,692.101,25,692.101
			 M25,691.101c-13.8,0-25,11.199-25,25c0,13.8,11.2,25,25,25s25-11.2,25-25C49.9,702.3,38.8,691.101,25,691.101L25,691.101z"/>
	</g>
	<g>
		<path fill="#DF0A22" d="M39.9,709.5c0.8-0.1,1.5-0.3,1.5-0.899c0-0.601-0.4-0.9-0.9-1c-0.5-0.101-2-0.4-2.1,0.199
			c-0.1,0.601-0.1,1,0.1,1.301l-0.5,0.5c0,0-0.3-0.301-0.4-0.7c-0.1-0.4-0.7-2.3-2-4.101c-1-1.5-1.4-1.6-1.7-1.6
			c-0.3,0-2.3-0.4-7.9-0.4s-7.6,0.4-7.9,0.4c-0.3,0-0.6,0.1-1.7,1.6c-1.3,1.9-1.9,3.7-2,4.101c-0.1,0.399-0.4,0.7-0.4,0.7l-0.5-0.5
			c0.1-0.301,0.1-0.7,0.1-1.301c-0.1-0.6-1.5-0.3-2.1-0.199c-0.5,0.1-0.9,0.399-0.9,1c0,0.6,0.7,0.699,1.5,0.899
			c0.6,0.101,0.9,0.5,1,0.7c0.9-0.3,1.9-0.5,3-0.5c1.4,0,2.8,0.3,4,1c2,1.1,3.5,2.9,4.2,5.1c0.4,1.4,0.5,2.9,0.2,4.301
			c0.2,0,0.3,0,0.5,0.1l5,2.6c1.5,0,2.9,0,3.1,0c0,0,0.7,0.2,1.6,0.101c0.2,0,0.8-0.2,1.5-0.3v1.699c0,0.4,0.4,0.801,0.8,0.801h2.6
			c0.4,0,0.8-0.4,0.8-0.801v-2.8c0,0,0.2-5.899,0.2-6.5c0-0.6,0-1.5-0.3-1.899c-0.3-0.4-0.9-1.2-0.9-1.2s-0.2-0.9-0.7-1.5
			C38.9,710.4,39.1,709.601,39.9,709.5z M38.8,714.3c0,0-0.3,0.601-4.6,0.9c0,0-1-0.7-1.2-0.9c-0.2-0.199-0.1-0.199,0.1-0.3
			c0.2-0.1,4.2-1,5.3-1.7C38.4,712.3,39.2,712.9,38.8,714.3z"/>
		<path fill="#DF0A22" d="M23.8,716c-0.6-2-2-3.6-3.8-4.6c-1.1-0.601-2.4-0.9-3.6-0.9c-2.9,0-5.6,1.601-6.9,4.2c-1,1.9-1.2,4-0.6,6
			s2,3.6,3.8,4.6c1.1,0.601,2.4,0.9,3.6,0.9c2.5,0,4.7-1.1,6.2-3l1.3-2.5C24.3,719.2,24.3,717.5,23.8,716z M22.1,721.4
			c-1.1,2.2-3.4,3.5-5.8,3.5c-1.1,0-2.1-0.3-3.1-0.8c-1.6-0.801-2.7-2.2-3.2-3.9s-0.4-3.5,0.5-5c1.1-2.2,3.4-3.5,5.8-3.5
			c1.1,0,2.1,0.3,3.1,0.8c1.6,0.8,2.7,2.2,3.2,3.9S23,719.8,22.1,721.4z"/>
		<path fill="#DF0A22" d="M18.9,713.4c-2.7-1.4-6-0.4-7.5,2.3c-1.1,2.1-0.7,4.6,0.8,6.2c-0.6-1.4-0.5-3.101,0.3-4.601
			c1.4-2.699,4.8-3.699,7.5-2.3c0.6,0.3,1.1,0.7,1.6,1.2C21,715.101,20.1,714.101,18.9,713.4z"/>
		<path fill="#DF0A22" d="M34.8,725.9l-9.8-5.2c-0.1-0.1-0.2-0.1-0.3,0c-0.1,0-0.2,0.1-0.3,0.2l-1.3,2.6c-0.1,0.2,0,0.5,0.2,0.601
			l9.8,5.199c0.1,0,0.1,0.101,0.2,0.101c0.2,0,0.3-0.101,0.4-0.2l1.4-2.6c0.1-0.101,0.1-0.2,0-0.301C35,726.101,34.9,726,34.8,725.9
			z"/>
	</g>
</g>
<path id="path4552_20_" fill="#DF0A22" d="M80.9,691c-13.8,0-25,11.2-25,25s11.2,25,25,25c13.8,0,25-11.2,25-25S94.7,691,80.9,691
	 M80.9,740.101c-13.3,0-24.1-10.801-24.1-24.101s10.8-24.1,24.1-24.1c13.3,0,24.1,10.8,24.1,24.1S94.2,740.101,80.9,740.101"/>
<g>
	<path fill="#DF0A22" d="M71.3,727.8c0.7,0,1.3-0.3,1.8-0.699l12.4-12.4l0.4,0.1c0.7,0.301,1.5,0.4,2.3,0.4c1.8,0,3.5-0.7,4.8-2
		c1.6-1.6,2.3-4,1.8-6.2l-4.1,4.101h-3.1l-2.2-2.2V705.8l4.1-4.1c-0.5-0.1-0.9-0.1-1.4-0.1c-1.8,0-3.5,0.699-4.8,2
		c-1.8,1.8-2.5,4.6-1.6,7.1l0.1,0.3l-12.4,12.5c-0.5,0.5-0.7,1.101-0.7,1.8c0,0.7,0.3,1.301,0.7,1.801
		C70,727.5,70.6,727.8,71.3,727.8z"/>
</g>
<polygon fill="#DF0A22" points="77.6,724.601 86.4,715.8 91.8,715.8 94.4,718.3 83.3,730 "/>
<polygon fill="#DF0A22" points="80.2,710.8 71.9,719.101 69.3,716.601 67.1,708.9 72.6,703.101 80.4,705.101 "/>
<circle fill="#FFFFFF" cx="72.1" cy="707.7" r="1.2"/>
<rect x="22" y="750" fill="#616161" width="3" height="3"/>
<g>
	<g>
		<g>
			<g>
				<g>
					<g>
						<g>
							<g>
								<g>
									<g>
										<g>
											<defs>
												<path id="SVGID_26_" d="M161.4,705L161.4,705l-4.5-3.899v2.3c0,0.8-0.8,1.6-1.5,1.6h-0.8h-8.3h-0.8
													c-0.8,0-1.5-0.8-1.5-1.6v-0.8V693.3v-0.8c0-0.8,0.8-1.6,1.5-1.6h0.8h8.3h0.8c0.8,0,1.5,0.8,1.5,1.6v3.101l4.5-4.7
													c0,0,0.8,0.8,0.8,1.6v11.7L161.4,705z"/>
											</defs>
											<use xlink:href="#SVGID_26_"  overflow="visible" fill="#DF0A22"/>
											<clipPath id="SVGID_27_">
												<use xlink:href="#SVGID_26_"  overflow="visible"/>
											</clipPath>
											<g clip-path="url(#SVGID_27_)">
												<rect x="139.1" y="686" fill="#DF0A22" width="28" height="24"/>
											</g>
										</g>
									</g>
								</g>
							</g>
						</g>
					</g>
				</g>
			</g>
		</g>
	</g>
</g>
<g>
	<g>
		<g>
			<g>
				<g>
					<g>
						<g>
							<g>
								<g>
									<g>
										<g>
											<defs>
												<path id="SVGID_29_" d="M121.1,699c0.1-0.2,0.4-0.2,0.6-0.1l2.2,1.399c0.2,0.101,0.4,0.101,0.6-0.1l2.7-3.5
													c0.1-0.2,0.3-0.2,0.4,0l3.3,6.7c0.1,0.2,0,0.399-0.2,0.399h-12.9c-0.2,0-0.3-0.1-0.1-0.3L121.1,699z M121,695.2
													c0,0.7-0.5,1.3-1.2,1.3c-0.6,0-1.2-0.6-1.2-1.3s0.5-1.3,1.2-1.3C120.5,694,121,694.5,121,695.2z M132,704.7h-15.3v-12.1
													H132V704.7z M132.3,691h-16.1c-0.5,0-1,0.5-1,1v12.8c0,0.601,0.4,1,1,1h16.1c0.5,0,1-0.5,1-1v-12.699
													C133.3,691.5,132.9,691,132.3,691z"/>
											</defs>
											<use xlink:href="#SVGID_29_"  overflow="visible" fill="#DF0A22"/>
											<clipPath id="SVGID_30_">
												<use xlink:href="#SVGID_29_"  overflow="visible"/>
											</clipPath>
											<g clip-path="url(#SVGID_30_)">
												<rect x="110.3" y="686" fill="#DF0A22" width="28" height="24.9"/>
											</g>
										</g>
									</g>
								</g>
							</g>
						</g>
					</g>
				</g>
			</g>
		</g>
	</g>
</g>
<g enable-background="new    ">
	<g>
		<g>
			<g>
				<g>
					<g>
						<g>
							<g>
								<g>
									<g>
										<defs>
											<rect id="SVGID_31_" x="170.8" y="690.8" width="25" height="22"/>
										</defs>
										<clipPath id="SVGID_32_">
											<use xlink:href="#SVGID_31_"  overflow="visible"/>
										</clipPath>
										
											<line clip-path="url(#SVGID_32_)" fill="none" stroke="#979797" stroke-linecap="square" stroke-miterlimit="10" x1="172.8" y1="690.8" x2="194.8" y2="712.8"/>
									</g>
								</g>
							</g>
						</g>
					</g>
				</g>
				<g>
					<g>
						<g>
							<g>
								<g>
									<g>
										<defs>
											<rect id="SVGID_33_" x="170.8" y="690.8" width="25" height="22"/>
										</defs>
										<clipPath id="SVGID_34_">
											<use xlink:href="#SVGID_33_"  overflow="visible"/>
										</clipPath>
										
											<line clip-path="url(#SVGID_34_)" fill="none" stroke="#979797" stroke-linecap="square" stroke-miterlimit="10" x1="193.8" y1="690.8" x2="171.8" y2="712.8"/>
									</g>
								</g>
							</g>
						</g>
					</g>
				</g>
			</g>
		</g>
	</g>
</g>
<g>
	<circle fill="none" stroke="#DF0A22" stroke-width="2" stroke-miterlimit="10" cx="224.7" cy="705.101" r="13"/>
</g>
<g>
	<g>
		<path fill="#DF0A22" d="M223.1,701.101l5.4,4.1l-5.4,4.2v-4.2V701.101 M221.6,698.101v2.199v5v5.101v2.1l9.4-7.2L221.6,698.101
			L221.6,698.101z"/>
	</g>
</g>
<g>
	<circle fill="#DF0A22" cx="274.9" cy="716.2" r="25"/>
</g>
<path fill="#FFFFFF" d="M275.5,706.8c-7.1,0-12.9,5.9-12.9,13v0.2h8.7l9.9-6.2c-1.5-1.5-3.6-2.3-5.7-2.3c-3.3,0-6.3,2-7.6,5
	c-0.1,0.3-0.2,0.5-0.3,0.8l-2-0.6c0.1-0.3,0.2-0.7,0.4-1c1.7-3.8,5.4-6.3,9.5-6.3c2.9,0,5.7,1.2,7.7,3.399l-1,0.9l-4.9,6.4h11.1
	c0,0,0-0.101,0-0.2C288.4,712.7,282.7,706.8,275.5,706.8z"/>
<path fill="#DF0A22" d="M339.5,706.8c-7.1,0-12.9,5.9-12.9,13v0.2h8.7l9.9-6.2c-1.5-1.5-3.6-2.3-5.7-2.3c-3.3,0-6.3,2-7.6,5
	c-0.1,0.3-0.2,0.5-0.3,0.8l-2-0.6c0.1-0.3,0.2-0.7,0.4-1c1.7-3.8,5.4-6.3,9.5-6.3c2.9,0,5.7,1.2,7.7,3.399l-1,0.9l-4.9,6.4H352.4
	c0,0,0-0.101,0-0.2C352.4,712.7,346.7,706.8,339.5,706.8z"/>
<path id="path4552_21_" fill="#DF0A22" d="M338.9,691.2c-13.8,0-25,11.2-25,25s11.2,25,25,25c13.8,0,25-11.2,25-25
	S352.7,691.2,338.9,691.2 M338.9,740.3c-13.3,0-24.1-10.8-24.1-24.1s10.8-24.1,24.1-24.1c13.3,0,24.1,10.8,24.1,24.1
	S352.2,740.3,338.9,740.3"/>
<g>
	<g>
		<path fill="#DF0A22" d="M403.8,692.3c13.2,0,23.9,10.7,23.9,23.9s-10.7,23.9-23.9,23.9S379.9,729.4,379.9,716.2
			C379.8,703,390.6,692.3,403.8,692.3 M403.8,691.2c-13.8,0-25,11.2-25,25s11.2,25,25,25s25-11.2,25-25
			C428.7,702.4,417.6,691.2,403.8,691.2L403.8,691.2z"/>
	</g>
	<path fill="#DF0A22" d="M394.2,727.9c0.7,0,1.3-0.3,1.8-0.7l12.4-12.4l0.399,0.101c0.7,0.3,1.5,0.399,2.3,0.399
		c1.801,0,3.5-0.699,4.801-2c1.6-1.6,2.3-4,1.8-6.199l-4.101,4.1h-3.1l-2.2-2.2v-3.1l4.101-4.101c-0.5-0.1-0.9-0.1-1.4-0.1
		c-1.8,0-3.5,0.7-4.8,2c-1.8,1.8-2.5,4.6-1.601,7.1l0.101,0.301l-12.4,12.5c-0.5,0.5-0.7,1.1-0.7,1.8s0.301,1.3,0.7,1.8
		C392.9,727.7,393.5,727.9,394.2,727.9z"/>
</g>
<g>
	<g>
		<path fill="#DF0A22" d="M476.1,692.101c13.301,0,24,10.8,24,24c0,13.3-10.8,24-24,24c-13.3,0-24-10.801-24-24
			C452.1,702.9,462.9,692.101,476.1,692.101 M476.1,691.101c-13.8,0-25.1,11.199-25.1,25.1c0,13.8,11.2,25.1,25.1,25.1
			c13.801,0,25.101-11.199,25.101-25.1S490,691.101,476.1,691.101L476.1,691.101z"/>
	</g>
	
		<rect x="460.928" y="714.398" transform="matrix(-0.7071 0.7071 -0.7071 -0.7071 1318.9534 885.7673)" fill="#DF0A22" width="30.2" height="3.299"/>
	<path fill="#DF0A22" d="M483.1,717.601c-3.1,0-5.6,2.5-5.6,5.6s2.5,5.6,5.6,5.6c3.101,0,5.601-2.5,5.601-5.6
		C488.6,720.101,486.2,717.601,483.1,717.601z M483.1,725.8c-1.5,0-2.699-1.199-2.699-2.699s1.199-2.7,2.699-2.7s2.7,1.2,2.7,2.7
		S484.6,725.8,483.1,725.8z"/>
	<path fill="#DF0A22" d="M469.1,714.7c3.101,0,5.601-2.5,5.601-5.6c0-3.101-2.5-5.601-5.601-5.601c-3.1,0-5.5,2.5-5.5,5.601
		C463.6,712.2,466.1,714.7,469.1,714.7z M469.1,706.5c1.5,0,2.7,1.2,2.7,2.7s-1.2,2.7-2.7,2.7s-2.699-1.2-2.699-2.7
		S467.6,706.5,469.1,706.5z"/>
</g>
<g>
	<g>
		<path fill="#DF0A22" d="M540.7,692.2c13.2,0,24,10.8,24,24s-10.8,24-24,24s-24-10.8-24-24C516.6,703,527.4,692.2,540.7,692.2
			 M540.7,691.2c-13.8,0-25,11.2-25,25s11.2,25,25,25s25-11.2,25-25S554.5,691.2,540.7,691.2L540.7,691.2z"/>
	</g>
	<g>
		<path fill="#DF0A22" d="M539.9,707.8c-1.2-0.899-3-2-5.4-2.199c-0.6-0.101-1.2-0.101-1.8-0.101c-3.101,0-5.5,0.9-5.601,0.9
			c-0.399,0.1-0.699,0.5-0.699,1V724c0,0.3,0.199,0.601,0.399,0.8c0.3,0.2,0.601,0.2,0.9,0.101c0,0,2.1-0.8,4.899-0.8
			c0.5,0,1.101,0,1.601,0.1c3.399,0.4,5.6,2.9,5.6,2.9l0,0L539.9,707.8L539.9,707.8L539.9,707.8z"/>
		<path fill="#DF0A22" d="M554.2,706.4c-0.101,0-2.5-0.9-5.601-0.9c-0.6,0-1.199,0-1.8,0.101c-2.3,0.3-4.2,1.3-5.399,2.199v19.4l0,0
			c0,0,2.199-2.5,5.6-2.9c0.5-0.1,1.1-0.1,1.6-0.1c2.7,0,4.9,0.8,4.9,0.8c0.3,0.101,0.7,0.101,0.9-0.1c0.3-0.2,0.399-0.5,0.399-0.8
			V707.5C554.9,706.9,554.6,706.5,554.2,706.4z"/>
	</g>
</g>
<g>
	<g>
		<path fill="#DF0A22" d="M604.6,692.3c13.2,0,24,10.7,24,24c0,13.2-10.699,23.9-24,23.9c-13.199,0-24-10.7-24-23.9
			C580.7,703.101,591.4,692.3,604.6,692.3 M604.6,691.3c-13.8,0-25,11.2-25,25c0,13.801,11.2,25,25,25c13.801,0,25-11.199,25-25
			C629.6,702.5,618.4,691.3,604.6,691.3L604.6,691.3z"/>
	</g>
	<path fill="#DF0A22" d="M590.2,704.8v13.5h3.7c0.3,0,0.5,0.2,0.6,0.5c0,0.101,0.2,2.101-0.8,3.801c2-1.101,2.2-3.7,2.2-3.801
		c0-0.3,0.3-0.5,0.6-0.5h4.9V716c0-0.3,0.3-0.6,0.6-0.6h11V704.8H590.2L590.2,704.8z"/>
	<path fill="#DF0A22" d="M619.6,715.4H614v-11.2c0-0.3-0.3-0.6-0.6-0.6H589.6c-0.3,0-0.6,0.3-0.6,0.6v14.7c0,0.3,0.3,0.6,0.6,0.6
		h3.7c0,0.9-0.3,2.8-1.8,3.8c-0.2,0.101-0.3,0.4-0.2,0.601c0.101,0.2,0.3,0.399,0.5,0.399l0,0c3.4-0.199,4.8-3,5.101-4.899h4.399
		v7.5c0,0.3,0.3,0.6,0.601,0.6h12.3c0.3,1.4,1.399,3.5,3.899,3.601l0,0c0.2,0,0.5-0.2,0.5-0.4c0.101-0.2,0-0.5-0.199-0.6
		c-1-0.7-1.301-1.9-1.301-2.601h2.5c0.301,0,0.601-0.3,0.601-0.6V716C620.2,715.7,619.9,715.4,619.6,715.4z M601.4,716v2.3h-4.9
		c-0.3,0-0.5,0.2-0.6,0.5c0,0.101-0.301,2.7-2.2,3.801c1-1.7,0.8-3.7,0.8-3.801c0-0.3-0.3-0.5-0.6-0.5h-3.7v-13.5h22.7v10.7h-11
		C601.6,715.4,601.4,715.7,601.4,716z"/>
</g>
<polygon id="polygon4578-1_5_" fill="#656666" points="677.7,691.3 669.8,699.101 662.1,691.4 661.5,692 669.8,700.4 678.4,691.9 
	"/>
<rect x="707" y="690.9" fill="#DF0A22" width="64" height="64"/>
<polygon fill="#FFFFFF" points="727.2,725.101 739,725.101 739,736.9 749.3,714.601 "/>
<g>
	<path fill="#DF0A22" d="M75.3,785.101c-3.1,3-3.5,7.8-1.3,11.3l7.8,10.6l7.8-10.6c2.2-3.5,1.7-8.2-1.3-11.3
		C84.7,781.5,78.8,781.5,75.3,785.101z M84.4,794.3c-1.5,1.5-3.9,1.5-5.4,0s-1.5-3.899,0-5.399s3.9-1.5,5.4,0S85.9,792.8,84.4,794.3
		z"/>
	<path fill="#DF0A22" d="M81.8,769.9c-13.8,0-25,11.2-25,25s11.2,25,25,25c13.8,0,25-11.2,25-25S95.6,769.9,81.8,769.9z M81.8,818.9
		c-13.2,0-24-10.8-24-24s10.8-24,24-24c13.2,0,24,10.8,24,24S95.1,818.9,81.8,818.9z"/>
</g>
<rect x="969.801" y="575.101" fill="none" stroke="#DF0A22" stroke-miterlimit="10" width="5.399" height="8"/>
<line fill="none" stroke="#DF0A22" stroke-miterlimit="10" x1="983.101" y1="590.2" x2="983.101" y2="568.5"/>
<path fill="none" stroke="#DF0A22" stroke-width="2" stroke-miterlimit="10" d="M985.7,585.601c0,0,5.5-6.4,0-13"/>
<path fill="none" stroke="#DF0A22" stroke-width="2" stroke-miterlimit="10" d="M990.101,589.101c0,0,8.2-7.3,0-19.5"/>
<path fill="none" stroke="#DF0A22" stroke-width="2" stroke-miterlimit="10" d="M994.601,592.7c0,0,9.899-11.2,0-26"/>
<line fill="none" stroke="#DF0A22" stroke-miterlimit="10" x1="975.2" y1="583.101" x2="983" y2="589.7"/>
<line fill="none" stroke="#DF0A22" stroke-miterlimit="10" x1="975.2" y1="575.101" x2="983" y2="568.9"/>
</svg>
