<?xml version="1.0" encoding="utf-8"?>
<!-- Generator: Adobe Illustrator 18.1.1, SVG Export Plug-In . SVG Version: 6.00 Build 0)  -->
<svg version="1.1" id="Layer_1" xmlns="http://www.w3.org/2000/svg" xmlns:xlink="http://www.w3.org/1999/xlink" x="0px" y="0px"
	 width="1000px" height="1000px" viewBox="135 15.8 1000 1000" enable-background="new 135 15.8 1000 1000" xml:space="preserve">
<g id="Layer_4" display="none">
	<rect x="1259.1" y="-1879.9" display="inline" fill="#303089" width="1369.4" height="1172.9"/>
</g>
<g id="Layer_5" display="none">
</g>
<path id="path4458" fill="#24A3DD" d="M270.8,107.1c-5.2,0-9.4,4.2-9.4,9.4s4.2,9.4,9.4,9.4c5.2,0,9.4-4.2,9.4-9.4
	S276,107.1,270.8,107.1 M270.8,122c-3,0-5.5-2.5-5.5-5.5s2.5-5.5,5.5-5.5s5.5,2.5,5.5,5.5S273.8,122,270.8,122"/>
<rect id="rect4460" x="279.4" y="120.1" transform="matrix(-0.7069 0.7074 -0.7074 -0.7069 571.4286 18.1978)" fill="#24A3DD" width="5" height="14.8"/>
<g id="g4464">
	<path id="path4466" fill="#24A3DD" d="M328.4,111c-3,0-5.5,2.5-5.5,5.5s2.5,5.5,5.5,5.5s5.5-2.5,5.5-5.5S331.4,111,328.4,111"/>
	<path id="path4468" fill="#24A3DD" d="M332.8,95.9c-13.7,0-24.9,11.1-24.9,24.9s11.1,24.9,24.9,24.9c13.7,0,24.9-11.1,24.9-24.9
		C357.7,107,346.5,95.9,332.8,95.9 M343,134.7l-10-10c-1.4,0.8-2.9,1.2-4.6,1.2c-5.2,0-9.4-4.2-9.4-9.4s4.2-9.4,9.4-9.4
		s9.4,4.2,9.4,9.4c0,1.7-0.4,3.2-1.2,4.6l10,10L343,134.7z"/>
</g>
<g id="g4470">
	<path id="path4472" fill="#24A3DD" d="M162.9,118.1v-12.2h-5.7v12.2H145v5.7h12.2V136h5.7v-12.2h12.2v-5.7H162.9L162.9,118.1z
		 M174.1,122.8h-12.2V135h-3.7v-12.2H146v-3.7h12.2v-12.2h3.7v12.2h12.2V122.8L174.1,122.8z"/>
	<path id="path4474" fill="#24A3DD" d="M160,95.9c-13.8,0-25,11.3-25,25c0,13.8,11.2,25,25,25s25-11.2,25-25
		C185,107.2,173.8,95.9,160,95.9 M160,145c-13.3,0-24.1-10.8-24.1-24.1s10.8-24.1,24.1-24.1s24.1,10.8,24.1,24.1
		C184.1,134.3,173.3,145,160,145"/>
</g>
<g id="g4476">
	<polygon id="polygon4478" fill="#24A3DD" points="162.9,242.1 162.9,229.9 157.2,229.9 157.2,242.1 145,242.1 145,247.8 
		157.2,247.8 157.2,260 162.9,260 162.9,247.8 175.1,247.8 175.1,242.1 	"/>
	<path id="path4480" fill="#24A3DD" d="M160.1,220c-13.8,0-25,11.2-25,25s11.2,25,25,25c13.8,0,25-11.2,25-25S173.8,220,160.1,220
		 M160.1,269c-13.3,0-24.1-10.8-24.1-24.1c0-13.3,10.8-24.1,24.1-24.1c13.3,0,24.1,10.8,24.1,24.1C184.1,258.3,173.3,269,160.1,269"
		/>
</g>
<path id="path4484" fill="#24A3DD" d="M404.4,128.7l-0.1-0.4c-0.3-1-1.4-2-2.4-2.3l-3.7-1c-1-0.3-2.4,0.1-3.2,0.8l-1.3,1.3
	c-4.9-1.3-8.7-5.1-10-10l1.3-1.3c0.7-0.7,1.1-2.2,0.8-3.2l-1-3.7c-0.3-1-1.3-2.1-2.3-2.4l-0.4-0.1c-1-0.3-2.4,0-3.1,0.7l-2,2
	c-0.4,0.4-0.6,1.4-0.6,1.4c-0.1,6.4,2.4,12.5,6.9,17c4.5,4.5,10.6,7,17,6.9c0,0,1.1-0.2,1.4-0.6l2-2
	C404.4,131.1,404.7,129.7,404.4,128.7"/>
<path id="path4490" fill="#FFFFFF" d="M462,128.7l-0.1-0.4c-0.3-1-1.4-2-2.4-2.3l-3.7-1c-1-0.3-2.4,0.1-3.2,0.8l-1.3,1.3
	c-4.9-1.3-8.7-5.1-10-10l1.4-1.3c0.7-0.7,1.1-2.2,0.8-3.2l-1-3.7c-0.3-1-1.3-2.1-2.3-2.4l-0.4-0.1c-1-0.3-2.4,0-3.1,0.7l-2,2
	c-0.4,0.4-0.6,1.4-0.6,1.4c-0.1,6.4,2.4,12.5,6.9,17c4.5,4.5,10.6,7,17,6.9c0,0,1.1-0.2,1.4-0.6l2-2
	C461.9,131.1,462.3,129.7,462,128.7"/>
<path id="path4498" fill="#24A3DD" d="M508.3,115.1V107c4,4,8,8,11.9,11.9c-3.9,3.9-7.9,7.9-11.9,11.9v-8c-0.8,0-1.4,0-2.1,0
	c-2.5,0.1-5,0.6-7.3,1.6c-3.5,1.5-5.9,4-6.8,7.7c0.1-0.7,0.2-1.5,0.3-2.2c0.5-3.2,1.5-6.2,3.4-8.8c2.4-3.4,5.7-5.3,9.8-5.9
	c0.8-0.1,1.6-0.1,2.3-0.2C507.9,115.2,508.1,115.2,508.3,115.1"/>
<g id="g4500">
	<path id="path4502" fill="#24A3DD" d="M563.2,95.9c-13.8,0-25,11.2-25,25s11.2,25,25,25s25-11.2,25-25S577,95.9,563.2,95.9
		 M565.9,130.8v-8c-0.8,0-1.5,0-2.1,0c-2.5,0.1-5,0.6-7.3,1.6c-3.5,1.5-5.9,4-6.8,7.7c0.1-0.7,0.2-1.5,0.3-2.2
		c0.5-3.2,1.5-6.2,3.4-8.8c2.4-3.4,5.7-5.3,9.8-5.9c0.8-0.1,1.6-0.1,2.3-0.2c0.1,0,0.3,0,0.5-0.1v-8.1c4,4,8,8,11.9,11.9
		C573.8,122.9,569.8,126.9,565.9,130.8"/>
</g>
<polygon id="polygon4506" fill="#FFFFFF" points="735.9,125.3 721.6,115.8 721.6,129.6 750.1,129.6 750.1,115.8 "/>
<polygon id="polygon4508" fill="#FFFFFF" points="721.8,112.1 735.9,121.4 749.9,112.1 "/>
<g id="g4512">
	<path id="path4514" fill="#24A3DD" d="M793.5,95.9c-13.8,0-25,11.2-25,25s11.2,25,25,25s25-11.2,25-25S807.3,95.9,793.5,95.9
		 M807.5,112.1l-14,9.4l-14-9.4H807.5L807.5,112.1z M807.7,129.6h-28.5v-13.8l14.2,9.5l14.2-9.5L807.7,129.6L807.7,129.6z"/>
</g>
<polygon id="polygon4518" fill="#FFFFFF" points="634.1,108.4 622.5,108.4 626.4,112.3 617.2,121.7 617.2,137.2 622.7,137.2 
	622.7,124 630.3,116.2 634.1,120 "/>
<polygon id="polygon4520" fill="#FFFFFF" points="618.8,116.2 610.8,108.2 607.3,111.7 615.3,119.7 "/>
<g id="g4524">
	<path id="path4526" fill="#24A3DD" d="M678.3,95.9c-13.8,0-25,11.2-25,25s11.2,25,25,25s25-11.2,25-25S692.1,95.9,678.3,95.9
		 M664.9,111.7l3.5-3.5l8,8l-3.5,3.5L664.9,111.7z M691.7,120l-3.9-3.9l-7.6,7.8v13.2h-5.5v-15.5l9.2-9.5l-3.9-3.9h11.6L691.7,120
		L691.7,120z"/>
</g>
<polygon id="polygon4530" fill="none" stroke="#FFFFFF" stroke-miterlimit="10" points="846.3,131.8 846.3,110.5 860.5,121.2 "/>
<rect id="rect4538" x="1003.1" y="119.8" fill="#24A3DD" width="27.3" height="2.3"/>
<polygon id="polygon4544" fill="#24A3DD" points="1087.9,120 1075.4,120 1075.4,107.5 1073.1,107.5 1073.1,120 1060.7,120 
	1060.7,122.3 1073.1,122.3 1073.1,134.7 1075.4,134.7 1075.4,122.3 1087.9,122.3 "/>
<path id="path4548" fill="#FFFFFF" d="M530,23.7l-4.4,4.4l12.7,12.7l-12.9,12.9l4.4,4.4l17.3-17.3L530,23.7z M526.5,53.7l12.9-12.9
	l-12.7-12.7l3.3-3.3l16,16L529.8,57L526.5,53.7z"/>
<path id="path4550" fill="#FFFFFF" d="M535.6,15.9c-13.8,0-25,11.2-25,25s11.2,25,25,25c13.8,0,25-11.2,25-25S549.4,15.9,535.6,15.9
	 M535.6,65c-13.3,0-24.1-10.8-24.1-24.1s10.8-24.1,24.1-24.1c13.3,0,24.1,10.8,24.1,24.1S548.9,65,535.6,65"/>
<path id="path4552" fill="#24A3DD" d="M597,15.9c-13.8,0-25,11.2-25,25s11.2,25,25,25s25-11.2,25-25S610.8,15.9,597,15.9 M597,65
	c-13.3,0-24.1-10.8-24.1-24.1s10.8-24.1,24.1-24.1s24.1,10.8,24.1,24.1S610.3,65,597,65"/>
<path id="path4554" fill="#24A3DD" d="M591.2,23.7l-4.4,4.4l12.7,12.7l-12.9,12.9l4.4,4.4l17.3-17.3L591.2,23.7z M587.7,53.7
	l12.9-12.9l-12.7-12.7l3.3-3.3l16,16L591,57L587.7,53.7z"/>
<polygon id="polygon4558" fill="#FFFFFF" points="153.5,33.5 156.8,30.2 167.8,41.1 156.6,52.3 153.3,49 161.1,41.2 "/>
<path id="path4560" fill="#FFFFFF" d="M213,15.9c-13.8,0-25,11.2-25,25s11.2,25,25,25s25-11.2,25-25S226.8,15.9,213,15.9
	 M209.6,52.3l-3.3-3.3l7.9-7.9l-7.7-7.7l3.3-3.3l11,11L209.6,52.3z"/>
<polygon id="polygon4564" fill="#24A3DD" points="653.5,33.5 656.8,30.2 667.8,41.1 656.6,52.3 653.3,49 661.1,41.2 "/>
<path id="path4566" fill="#24A3DD" d="M713,15.9c-13.8,0-25,11.2-25,25s11.2,25,25,25s25-11.2,25-25S726.8,15.9,713,15.9
	 M709.6,52.3l-3.3-3.3l7.9-7.9l-7.7-7.7l3.3-3.3l11,11L709.6,52.3z"/>
<rect id="rect4568" x="256.5" y="15.9" fill="#24A3DD" width="50" height="56"/>
<polygon id="polygon4570" fill="#FFFFFF" points="273.1,57.9 274.3,59.2 290.2,43.2 274,27 272.8,28.2 287.7,43.2 "/>
<rect id="rect4572" x="314.5" y="15.9" fill="#FFFFFF" width="50" height="56"/>
<polygon id="polygon4574" fill="#24A3DD" points="331.1,57.9 332.3,59.2 348.2,43.2 332,27 330.8,28.2 345.7,43.2 "/>
<rect id="rect4576" x="445.5" y="15.9" fill="#FFFFFF" width="50" height="56"/>
<polygon id="polygon4578" fill="#24A3DD" points="478.9,28.2 477.7,27 461.8,42.9 478,59.2 479.2,57.9 464.3,42.9 "/>
<g id="g4580" opacity="0.5">
	<g id="g4582">
		<g id="g4584">
			<g id="g4586">
				<g id="g4588">
					<g id="g4590">
						<g id="g4592">
							<g id="g4594">
								<g id="g4596">
									<g id="g4598">
										<g id="g4600">
											<g id="g4602">
												<g id="g4604">
													<g>
														<g>
															<g>
																<g>
																	<g>
																		<g>
																			<g>
																				<g>
																					<g>
																						<g>
																							<g>
																								<g>
																									<g>
																										<g>
																											<g>
																												<rect id="rect4612" x="379.5" y="15.9" fill="#231F20" width="50" height="56"/>
																											</g>
																										</g>
																									</g>
																								</g>
																							</g>
																						</g>
																					</g>
																				</g>
																			</g>
																		</g>
																	</g>
																</g>
															</g>
														</g>
													</g>
												</g>
											</g>
										</g>
									</g>
								</g>
							</g>
						</g>
					</g>
				</g>
			</g>
		</g>
	</g>
</g>
<rect x="379.5" y="15.9" fill="none" width="50" height="56"/>
<polygon id="polygon4614" fill="#FFFFFF" points="412.9,28.2 411.7,27 395.8,42.9 412,59.2 413.2,57.9 398.3,42.9 "/>
<path id="path4616" fill="#FFFFFF" d="M775.9,38.1V25.9h-5.7v12.2H758v5.7h12.2v12.1h5.7V43.7h12.2V38L775.9,38.1L775.9,38.1z
	 M787.1,42.7h-12.2v12.2h-3.7V42.7H759V39h12.2V26.9h3.7v12.2h12.2V42.7L787.1,42.7z"/>
<path id="path4618" fill="#FFFFFF" d="M773.1,15.9c-13.8,0-25,11.2-25,25s11.2,25,25,25c13.8,0,25-11.2,25-25S786.9,15.9,773.1,15.9
	 M773.1,65C759.8,65,749,54.2,749,40.9s10.8-24.1,24.1-24.1c13.3,0,24.1,10.8,24.1,24.1S786.4,65,773.1,65"/>
<polygon id="polygon4620" fill="#FFFFFF" points="835.9,38.1 835.9,25.9 830.2,25.9 830.2,38.1 818.1,38.1 818.1,43.7 830.2,43.7 
	830.2,55.9 835.9,55.9 835.9,43.7 848.1,43.7 848.1,38.1 "/>
<path id="path4622" fill="#FFFFFF" d="M833.1,15.9c-13.8,0-25,11.2-25,25s11.2,25,25,25c13.8,0,25-11.2,25-25S846.9,15.9,833.1,15.9
	 M833.1,65C819.8,65,809,54.2,809,40.9s10.8-24.1,24.1-24.1c13.3,0,24.1,10.8,24.1,24.1S846.4,65,833.1,65"/>
<path id="path4624" fill="#24A3DD" d="M905.1,40.9l8.6-8.6l-4-4l-8.6,8.6l-8.6-8.6l-4,4l8.6,8.6l-8.6,8.6l4,4l8.6-8.6l8.6,8.6l4-4
	L905.1,40.9z M909.7,52.1l-8.6-8.6l-8.6,8.6l-2.6-2.6l8.6-8.6l-8.6-8.6l2.6-2.6l8.6,8.6l8.6-8.6l2.6,2.6l-8.6,8.6l8.6,8.6
	L909.7,52.1z"/>
<path id="path4626" fill="#24A3DD" d="M901.1,15.9c-13.8,0-25,11.2-25,25s11.2,25,25,25c13.8,0,25-11.2,25-25S914.9,15.9,901.1,15.9
	 M901.1,65C887.8,65,877,54.2,877,40.9s10.8-24.1,24.1-24.1c13.3,0,24.1,10.8,24.1,24.1S914.4,65,901.1,65"/>
<polygon id="polygon4628" fill="#24A3DD" points="965.1,40.9 973.7,32.3 969.7,28.3 961.1,36.9 952.5,28.3 948.5,32.3 957.1,40.9 
	948.5,49.5 952.5,53.5 961.1,44.9 969.7,53.5 973.7,49.5 "/>
<path id="path4630" fill="#24A3DD" d="M961.1,15.9c-13.8,0-25,11.2-25,25s11.2,25,25,25c13.8,0,25-11.2,25-25S974.9,15.9,961.1,15.9
	 M961.1,65C947.8,65,937,54.2,937,40.9s10.8-24.1,24.1-24.1c13.3,0,24.1,10.8,24.1,24.1S974.4,65,961.1,65"/>
<path id="path4632" fill="#FFFFFF" d="M1047.4,35.5l-10.8,7.5c-0.2,0.2-0.5,0.2-0.8,0.2c-0.2,0-0.4,0-0.6-0.1
	c-0.4-0.2-0.7-0.6-0.7-1.1V26.9c0-0.5,0.3-0.9,0.7-1.1c0.4-0.2,1-0.2,1.4,0.1l10.8,7.5c0.3,0.2,0.5,0.6,0.5,1
	C1048,34.9,1047.8,35.2,1047.4,35.5 M1062.5,21.4c0-0.2-0.1-0.4-0.1-0.6c0-0.1,0-0.2-0.1-0.3c-0.6-1.9-2.4-3.3-4.5-3.3h0.3
	c0,0-8.5-1.3-19.7-1.4c-11.3,0.1-19.7,1.4-19.7,1.4h0.3c-2.1,0-3.9,1.4-4.5,3.3c0,0.1-0.1,0.2-0.1,0.3c0,0.2-0.1,0.4-0.1,0.6
	c-0.3,2.2-0.8,6.7-0.9,12.1c0.1,5.4,0.6,9.8,0.9,12.1c0,0.2,0.1,0.4,0.1,0.6c0,0.1,0.1,0.2,0.1,0.3c0.6,1.9,2.4,3.3,4.5,3.3h-0.3
	c0,0,8.5,1.3,19.7,1.4c11.3-0.1,19.7-1.4,19.7-1.4h-0.3c2.1,0,3.9-1.4,4.5-3.3c0-0.1,0.1-0.2,0.1-0.3c0.1-0.2,0.1-0.4,0.1-0.6
	c0.3-2.2,0.8-6.7,0.9-12.1C1063.3,28.1,1062.8,23.7,1062.5,21.4"/>
<polygon id="polygon4578-1" fill="#2D96CD" points="1116.8,195.6 1125.6,186.8 1134.3,195.4 1135,194.7 1125.6,185.3 1116,194.9 "/>
<polygon id="polygon4578-1-1" fill="#2D96CD" points="1125.6,244 1116,234.5 1116.8,233.8 1125.6,242.6 1134.3,233.9 1135,234.7 "/>
<polygon id="polygon4636" fill="#24A3DD" points="903.4,125.3 889.1,115.8 889.1,129.6 917.6,129.6 917.6,115.8 "/>
<polygon id="polygon4638" fill="#24A3DD" points="889.3,112.1 903.4,121.4 917.4,112.1 "/>
<polygon id="polygon4644" fill="#24A3DD" points="974.8,108.4 963.2,108.4 967.1,112.3 957.8,121.7 957.8,137.2 963.4,137.2 
	963.4,124 971,116.2 974.8,120 "/>
<polygon id="polygon4646" fill="#24A3DD" points="959.5,116.2 951.5,108.2 948,111.7 956,119.7 "/>
<g id="g4650">
	<path id="path4652" fill="#FFFFFF" d="M160.5,159.4c-13.8,0-25,11.2-25,25s11.2,25,25,25s25-11.2,25-25S174.3,159.4,160.5,159.4
		 M174.5,175.6l-14,9.4l-14-9.4H174.5z M174.7,193.1h-28.5v-13.8l14.2,9.5l14.2-9.5L174.7,193.1L174.7,193.1z"/>
</g>
<path id="path4654" fill="#FFFFFF" d="M212.3,159.4c-13.7,0-24.9,11.1-24.9,24.9c0,13.7,11.1,24.9,24.9,24.9
	c13.7,0,24.9-11.1,24.9-24.9C237.2,170.5,226,159.4,212.3,159.4z M198.7,175.2l3.5-3.5l8,8l-3.5,3.5L198.7,175.2z M225.5,183.5
	l-3.9-3.9l-7.6,7.8v13.2h-5.5v-15.5l9.2-9.5l-3.9-3.9h11.6C225.5,171.9,225.5,183.5,225.5,183.5z"/>
<polygon id="polygon4660" fill="#FFFFFF" points="283.7,182.8 271.4,182.8 271.4,170.5 269.2,170.5 269.2,182.8 256.9,182.8 
	256.9,185 269.2,185 269.2,197.2 271.4,197.2 271.4,185 283.7,185 "/>
<path id="path4662" fill="#FFFFFF" d="M320.8,159.4c-13.8,0-25,11.2-25,25s11.2,25,25,25c13.8,0,25-11.2,25-25
	S334.6,159.4,320.8,159.4z M334,195.3l-2,2c-0.4,0.4-1.4,0.6-1.4,0.6c-6.4,0.1-12.5-2.4-17-6.9s-7-10.6-6.9-17c0,0,0.2-1,0.6-1.4
	l2-2c0.7-0.7,2.1-1.1,3.1-0.7l0.4,0.1c1,0.3,2,1.4,2.3,2.4l1,3.7c0.3,1-0.1,2.4-0.8,3.2l-1.3,1.3c1.3,4.9,5.1,8.7,10,10l1.3-1.3
	c0.7-0.7,2.2-1.1,3.2-0.8l3.7,1c1,0.3,2.1,1.3,2.4,2.3l0.1,0.4C335.1,193.2,334.8,194.6,334,195.3z"/>
<rect id="rect4668" x="357.4" y="183.1" fill="#FFFFFF" width="27.3" height="2.3"/>
<g id="g4670">
	<circle id="circle4672" fill="none" stroke="#FFFFFF" stroke-width="4" stroke-miterlimit="10" cx="448" cy="185.1" r="20"/>
	<path id="path4674" fill="#FFFFFF" d="M444.4,185.1c0-2,1.6-3.5,3.5-3.5c1.9,0,3.5,1.6,3.5,3.5s-1.6,3.5-3.5,3.5
		C446,188.6,444.4,187,444.4,185.1"/>
	
		<line id="line4676" fill="none" stroke="#FFFFFF" stroke-width="4" stroke-miterlimit="10" x1="448" y1="159.4" x2="448" y2="173.6"/>
	
		<line id="line4678" fill="none" stroke="#FFFFFF" stroke-width="4" stroke-miterlimit="10" x1="448" y1="196.5" x2="448" y2="210.7"/>
	
		<line id="line4680" fill="none" stroke="#FFFFFF" stroke-width="4" stroke-miterlimit="10" x1="473.6" y1="185.1" x2="459.4" y2="185.1"/>
	
		<line id="line4682" fill="none" stroke="#FFFFFF" stroke-width="4" stroke-miterlimit="10" x1="436.5" y1="185.1" x2="422.3" y2="185.1"/>
</g>
<g id="g4684">
	<path id="path4686" fill="#BBBBBB" d="M512.1,178.1l14.6,13.3l-2.7,2.9L509.4,181L512.1,178.1z"/>
	<path id="path4688" fill="#BBBBBB" d="M502,159.4c-7.2,0-13.1,5.8-13.1,12.9c0,7.1,5.8,12.9,13.1,12.9s13.1-5.8,13.1-12.9
		C515.1,165.2,509.2,159.4,502,159.4z M502,182.2c-5.5,0-10-4.4-10-9.9s4.5-9.9,10-9.9s10,4.4,10,9.9S507.5,182.2,502,182.2z"/>
</g>
<g id="g4690">
	<g id="g4692">
		<path id="path4694" fill="#2495CF" d="M569,207.1c-12.2,0-22-9.9-22-22s9.9-22,22-22s22,9.9,22,22S581.1,207.1,569,207.1z
			 M569,167c-10,0-18,8.1-18,18s8.1,18,18,18s18-8.1,18-18S578.9,167,569,167z"/>
	</g>
	<g id="g4696">
		<path id="path4698" fill="#2495CF" d="M565.4,185.1c0-2,1.6-3.5,3.5-3.5c1.9,0,3.5,1.6,3.5,3.5s-1.6,3.5-3.5,3.5
			C567,188.6,565.4,187,565.4,185.1"/>
	</g>
	<g id="g4700">
		<rect id="rect4702" x="567" y="159.4" fill="#2495CF" width="4" height="14.2"/>
	</g>
	<g id="g4704">
		<rect id="rect4706" x="567" y="196.5" fill="#2495CF" width="4" height="14.2"/>
	</g>
	<g id="g4708">
		<rect id="rect4710" x="580.4" y="183.1" fill="#2495CF" width="14.2" height="4"/>
	</g>
	<g id="g4712">
		<rect id="rect4714" x="543.3" y="183.1" fill="#2495CF" width="14.2" height="4"/>
	</g>
</g>
<g id="g4716">
	<path id="path4718" fill="#2495CF" d="M633.1,178.1l14.6,13.3l-2.7,2.9L630.4,181L633.1,178.1z"/>
	<path id="path4720" fill="#2495CF" d="M623,159.4c-7.2,0-13.1,5.8-13.1,12.9c0,7.1,5.8,12.9,13.1,12.9s13.1-5.8,13.1-12.9
		C636.1,165.2,630.2,159.4,623,159.4z M623,182.2c-5.5,0-10-4.4-10-9.9s4.5-9.9,10-9.9s10,4.4,10,9.9S628.5,182.2,623,182.2z"/>
</g>
<path id="path4722" fill="#B3B3B3" d="M871.3,158.9c-13.8,0-25,11.2-25,25s11.2,25,25,25s24.9-11.2,24.9-25S885,158.9,871.3,158.9z
	 M860.6,188c-1.9,0-3.4-1.5-3.4-3.4s1.5-3.4,3.4-3.4c1.9,0,3.4,1.5,3.4,3.4S862.5,188,860.6,188z M871.3,188c-1.9,0-3.4-1.5-3.4-3.4
	s1.5-3.4,3.4-3.4c1.9,0,3.4,1.5,3.4,3.4S873.2,188,871.3,188z M882.1,188c-1.9,0-3.4-1.5-3.4-3.4s1.5-3.4,3.4-3.4
	c1.9,0,3.4,1.5,3.4,3.4S884,188,882.1,188z"/>
<path id="path4724" fill="#24A3DD" d="M766.5,159.1c-13.8,0-25,11.2-25,25s11.2,25,25,25s24.9-11.2,24.9-25
	C791.5,170.3,780.3,159.1,766.5,159.1z M755.8,188.2c-1.9,0-3.4-1.5-3.4-3.4s1.5-3.4,3.4-3.4c1.9,0,3.4,1.5,3.4,3.4
	S757.7,188.2,755.8,188.2z M766.6,188.2c-1.9,0-3.4-1.5-3.4-3.4s1.5-3.4,3.4-3.4c1.9,0,3.4,1.5,3.4,3.4S768.5,188.2,766.6,188.2z
	 M777.4,188.2c-1.9,0-3.4-1.5-3.4-3.4s1.5-3.4,3.4-3.4c1.9,0,3.4,1.5,3.4,3.4C780.8,186.7,779.3,188.2,777.4,188.2z"/>
<circle id="circle4728" fill="#B3B3B3" cx="810.1" cy="184.6" r="3.4"/>
<circle id="circle4730" fill="#B3B3B3" cx="820.9" cy="184.6" r="3.4"/>
<circle id="circle4732" fill="#B3B3B3" cx="831.7" cy="184.6" r="3.4"/>
<circle id="circle4736" fill="#2D96CD" cx="705.4" cy="184.6" r="3.4"/>
<circle id="circle4738" fill="#2D96CD" cx="716.1" cy="184.6" r="3.4"/>
<circle id="circle4740" fill="#2D96CD" cx="726.9" cy="184.6" r="3.4"/>
<rect id="rect4742" x="204.7" y="220.1" opacity="0.6" enable-background="new    " width="50" height="50.1"/>
<polygon id="polygon4744" fill="#FFFFFF" points="240.3,235 239.9,234.6 229.8,244.7 219.6,234.6 219.2,235 229.3,245.1 
	219.2,255.2 219.6,255.6 229.8,245.5 239.9,255.6 240.3,255.2 230.2,245.1 "/>
<g>
	<g>
		<g>
			<g>
				<g>
					<g>
						<g>
							<g>
								<g>
									<g>
										<g>
											<g>
												<g>
													<g>
														<g>
															<defs>
																<polygon id="SVGID_5_" points="139.8,329.3 141.2,320.8 135,314.8 143.6,313.5 147.4,305.8 151.2,313.5 
																	159.8,314.8 153.6,320.8 155,329.3 147.4,325.3 																"/>
															</defs>
															<clipPath id="SVGID_6_">
																<use xlink:href="#SVGID_5_"  overflow="visible"/>
															</clipPath>
															
																<polygon id="polygon3134" clip-path="url(#SVGID_6_)" fill="none" stroke="#2D96CD" stroke-width="2" stroke-miterlimit="10" points="
																139.8,329.3 141.2,320.8 135,314.8 143.6,313.5 147.4,305.8 151.2,313.5 159.8,314.8 153.6,320.8 155,329.3 
																147.4,325.3 															"/>
														</g>
													</g>
												</g>
											</g>
										</g>
									</g>
								</g>
							</g>
						</g>
					</g>
				</g>
			</g>
		</g>
	</g>
</g>
<g id="g3243">
	<g id="g3251">
		<g>
			<g>
				<g>
					<g>
						<g>
							<g>
								<g>
									<g>
										<g>
											<g>
												<g>
													<g>
														<g>
															<g>
																<g>
																	<g>
																		<g>
																			<defs>
																				<polygon id="SVGID_7_" points="179.8,329.3 181.2,320.8 175,314.8 183.6,313.5 187.4,305.8 191.2,313.5 
																					199.8,314.8 193.6,320.8 195,329.3 187.4,325.3 																				"/>
																			</defs>
																			<clipPath id="SVGID_8_">
																				<use xlink:href="#SVGID_7_"  overflow="visible"/>
																			</clipPath>
																			<polygon id="polygon3259" clip-path="url(#SVGID_8_)" fill="none" points="191.2,313.5 199.8,314.8 193.6,320.8 
																				195,329.3 187.4,325.3 179.8,329.3 181.2,320.8 175,314.8 183.6,313.5 187.4,305.8 																			"/>
																		</g>
																	</g>
																</g>
															</g>
														</g>
													</g>
												</g>
											</g>
										</g>
									</g>
								</g>
							</g>
						</g>
					</g>
				</g>
			</g>
		</g>
	</g>
</g>
<polygon id="SVGID_5_-8" fill="#2D96CD" points="191.2,313.5 199.8,314.8 193.6,320.8 195,329.3 187.4,325.3 179.8,329.3 
	181.2,320.8 175,314.8 183.6,313.5 187.4,305.8 "/>
<g>
	<g>
		<path id="SVGID_9_" fill="#1B394E" d="M256,313.5v15.4h17v-15.4h-6v-0.9h7v17.2h-19v-17.2h7v0.9L256,313.5L256,313.5z M264,307.6
			v13.6h1v-13.7l3.3,2.9c0.1,0.1,0.2,0.1,0.3,0l0.4-0.4c0.1-0.1,0.1-0.2,0-0.3l-3.8-3.4c0,0,0-0.1-0.1-0.1l-0.4-0.4
			c-0.1-0.1-0.2-0.1-0.3,0l-4.2,3.8c-0.1,0.1-0.1,0.2,0,0.3l0.4,0.4c0.1,0.1,0.2,0.1,0.3,0L264,307.6z"/>
	</g>
</g>
<g>
	<g>
		<path id="SVGID_11_" fill="#2E95CC" d="M216,313.5v15.4h17v-15.4h-6v-0.9h7v17.2h-19v-17.2h7v0.9L216,313.5L216,313.5z M224,307.6
			v13.6h1v-13.7l3.3,2.9c0.1,0.1,0.2,0.1,0.3,0l0.4-0.4c0.1-0.1,0.1-0.2,0-0.3l-3.8-3.4c0,0,0-0.1-0.1-0.1l-0.4-0.4
			c-0.1-0.1-0.2-0.1-0.3,0l-4.2,3.8c-0.1,0.1-0.1,0.2,0,0.3l0.4,0.4c0.1,0.1,0.2,0.1,0.3,0L224,307.6z"/>
	</g>
</g>
<g>
	<circle fill="#2E95CC" cx="160.1" cy="376.8" r="25"/>
	<g>
		<path fill="#FFFFFF" d="M149.3,369.9c-4.2,6-2.7,14.3,3.3,18.6c0.6,0.4,1.2,0.8,1.8,1.1c-4.6-4.5-5.4-11.8-1.7-17.3l2.9,2.1
			l0.7-10.4l-9.6,4L149.3,369.9z"/>
		<path fill="#FFFFFF" d="M170.8,383.7c4.2-6,2.7-14.3-3.3-18.6c-0.6-0.4-1.2-0.8-1.8-1.1c4.6,4.5,5.4,11.8,1.7,17.3l-2.9-2.1
			l-0.7,10.4l9.6-4L170.8,383.7z"/>
	</g>
</g>
<g>
	<g>
		<path fill="#656666" d="M219.9,352.7c13.2,0,24,10.8,24,24s-10.8,24-24,24c-13.2,0-24-10.8-24-24
			C195.9,363.5,206.7,352.7,219.9,352.7 M219.9,351.7c-13.8,0-25,11.2-25,25s11.2,25,25,25c13.8,0,25-11.2,25-25
			S233.7,351.7,219.9,351.7L219.9,351.7z"/>
	</g>
	<g>
		<path fill="#656666" d="M209.1,369.9c-4.2,6-2.7,14.3,3.3,18.6c0.6,0.4,1.2,0.8,1.8,1.1c-4.6-4.5-5.4-11.8-1.7-17.3l2.9,2.1
			l0.7-10.4l-9.6,4L209.1,369.9z"/>
		<path fill="#656666" d="M230.7,383.7c4.2-6,2.7-14.3-3.3-18.6c-0.6-0.4-1.2-0.8-1.8-1.1c4.6,4.5,5.4,11.8,1.7,17.3l-2.9-2.1
			l-0.7,10.4l9.6-4L230.7,383.7z"/>
	</g>
</g>
<g>
	<circle fill="#2E95CC" cx="283.8" cy="376.8" r="25"/>
	<g>
		<path fill="#FFFFFF" d="M289.5,387.8c-0.1-0.4-0.3-1-1-1.1c-0.5-0.1-1.1,0.2-2.2,0.7c-0.2,0.1-0.5,0.2-0.7,0.3
			c0-0.6-0.1-1.3-0.8-1.6c-1.3-0.6-4.9,2-5.7,2.6c-0.4-0.3-0.9-1.3-1.2-1.7c-0.6-1-0.9-1.5-1.6-1.6c-0.4,0-1-0.1-5.1,3.3
			c-0.4,0.3-0.5,0.9-0.1,1.3c0.3,0.4,0.9,0.5,1.3,0.1c1.4-1.2,2.9-2.2,3.6-2.7c0.1,0.1,0.2,0.3,0.3,0.5c0.7,1.2,1.5,2.5,2.6,2.6
			c0.1,0,0.2,0,0.2,0c0.4,0,0.7-0.1,1-0.4c0.9-0.7,2.6-1.8,3.6-2.2c0,0.5,0.1,1.1,0.6,1.5c0.3,0.2,0.7,0.3,1,0.2
			c0.5-0.1,1.2-0.4,1.8-0.8c0.2-0.1,0.4-0.2,0.7-0.3c0.3,0.8,0.8,1,1.2,0.9h0.2c2.8-0.1,3.9-0.4,4.4-1c-0.6-0.3-1.2-0.7-1.8-1.1
			C291.4,387.7,290.7,387.8,289.5,387.8z"/>
		<path fill="#FFFFFF" d="M279.3,362.2c-0.6,0-1.3,0.3-2.1,0.8c-1,0.7-1.5,1.5-1.6,2.2c0,0.5,0.2,0.8,0.2,0.8l1.4,2
			c0.2-0.7,0.7-1.5,1.9-2.3c1-0.7,1.9-1,2.7-1h0.1l-1.4-2C280.4,362.7,280.1,362.2,279.3,362.2z"/>
		<path fill="#FFFFFF" d="M289.3,380c1.2-0.8,2.1-1,2.8-1l-9.1-12.8c0,0-0.4-0.5-1.2-0.5c-0.6,0-1.3,0.3-2.1,0.8
			c-1,0.7-1.5,1.5-1.6,2.2c0,0.5,0.2,0.8,0.2,0.8l9.1,12.8C287.7,381.6,288.2,380.8,289.3,380z"/>
		<path fill="#FFFFFF" d="M293.4,380.8l-0.2-0.3l0,0l0,0c0,0-1-1.3-3.3,0.3c-2.3,1.6-1.4,3-1.4,3l0,0l0.2,0.3c2.6,2,5.6,4.1,6.6,4.3
			C295.4,387.5,294.4,383.9,293.4,380.8z"/>
	</g>
</g>
<g>
	<g>
		<path fill="#656666" d="M345.4,352.7c13.3,0,24,10.8,24,24c0,13.3-10.8,24-24,24c-13.3,0-24-10.8-24-24
			C321.3,363.5,332.1,352.7,345.4,352.7 M345.4,351.7c-13.8,0-25.1,11.2-25.1,25.1c0,13.8,11.2,25.1,25.1,25.1
			c13.8,0,25.1-11.2,25.1-25.1C370.4,362.9,359.2,351.7,345.4,351.7L345.4,351.7z"/>
	</g>
	<g>
		<path fill="#656666" d="M351.1,387.8c-0.1-0.4-0.4-1-1-1.1s-1.1,0.2-2.2,0.7c-0.2,0.1-0.5,0.2-0.7,0.3c0-0.6-0.1-1.3-0.8-1.6
			c-1.3-0.6-4.9,2-5.7,2.6c-0.4-0.3-0.9-1.3-1.2-1.7c-0.6-1-0.9-1.5-1.6-1.6c-0.4,0-1-0.1-5.1,3.3c-0.4,0.3-0.5,0.9-0.1,1.3
			c0.3,0.4,0.9,0.5,1.3,0.1c1.4-1.2,2.9-2.2,3.6-2.7c0.1,0.2,0.2,0.3,0.3,0.5c0.7,1.2,1.5,2.5,2.6,2.7c0.1,0,0.2,0,0.2,0
			c0.4,0,0.7-0.1,1-0.4c0.9-0.7,2.6-1.8,3.6-2.2c0,0.5,0.1,1.1,0.6,1.5c0.3,0.2,0.7,0.3,1,0.2c0.5-0.1,1.2-0.4,1.8-0.8
			c0.2-0.1,0.4-0.2,0.7-0.3c0.3,0.8,0.9,1,1.2,0.9h0.2c2.8-0.1,3.9-0.4,4.4-1c-0.6-0.3-1.2-0.7-1.8-1.1
			C353,387.7,352.3,387.8,351.1,387.8z"/>
		<path fill="#656666" d="M340.8,362.1c-0.6,0-1.3,0.3-2.1,0.8c-1,0.7-1.5,1.5-1.6,2.2c0,0.5,0.2,0.8,0.2,0.8l1.4,2
			c0.2-0.7,0.7-1.5,1.9-2.3c1-0.7,1.9-1,2.7-1h0.1l-1.4-2C342,362.6,341.6,362.1,340.8,362.1z"/>
		<path fill="#656666" d="M350.9,380c1.2-0.8,2.1-1,2.8-1l-9.2-12.8c0,0-0.4-0.5-1.2-0.5c-0.6,0-1.3,0.3-2.1,0.8
			c-1,0.7-1.5,1.5-1.6,2.2c0,0.5,0.2,0.8,0.2,0.8l9.2,12.8C349.3,381.6,349.8,380.8,350.9,380z"/>
		<path fill="#656666" d="M355,380.8l-0.2-0.3l0,0l0,0c0,0-1-1.3-3.3,0.3c-2.3,1.6-1.4,3-1.4,3l0,0l0.2,0.3c2.6,2,5.6,4.1,6.6,4.3
			C357,387.5,356,383.9,355,380.8z"/>
	</g>
</g>
<g>
	<circle fill="#2E97D0" cx="411.1" cy="376.8" r="25"/>
	<path fill="#FFFFFF" d="M401.5,388.5c0.7,0,1.3-0.3,1.8-0.7l12.5-12.5l0.4,0.1c0.7,0.3,1.5,0.4,2.3,0.4c1.8,0,3.5-0.7,4.8-2
		c1.6-1.6,2.3-4,1.8-6.2l-4.1,4.1h-3.1l-2.2-2.2v-3.1l4.1-4.1c-0.5-0.1-0.9-0.1-1.4-0.1c-1.8,0-3.5,0.7-4.8,2
		c-1.8,1.9-2.5,4.6-1.6,7.1l0.1,0.4l-12.5,12.5c-0.5,0.5-0.7,1.1-0.7,1.8s0.3,1.3,0.7,1.8C400.1,388.3,400.8,388.5,401.5,388.5z"/>
</g>
<g>
	<g>
		<path fill="#656666" d="M475.6,352.8c13.2,0,23.9,10.7,23.9,23.9c0,13.2-10.7,23.9-23.9,23.9c-13.2,0-23.9-10.7-23.9-23.9
			C451.6,363.5,462.4,352.8,475.6,352.8 M475.6,351.7c-13.8,0-25,11.2-25,25s11.2,25,25,25c13.8,0,25-11.2,25-25
			C500.5,362.9,489.4,351.7,475.6,351.7L475.6,351.7z"/>
	</g>
	<path fill="#656666" d="M466,388.4c0.7,0,1.3-0.3,1.8-0.7l12.4-12.4l0.4,0.1c0.7,0.3,1.5,0.4,2.3,0.4c1.8,0,3.5-0.7,4.8-2
		c1.6-1.6,2.3-4,1.8-6.2l-4.1,4.1h-3.1l-2.2-2.2v-3.1l4.1-4.1c-0.5-0.1-0.9-0.1-1.4-0.1c-1.8,0-3.5,0.7-4.8,2
		c-1.8,1.8-2.5,4.6-1.6,7.1l0.1,0.3l-12.4,12.5c-0.5,0.5-0.7,1.1-0.7,1.8c0,0.7,0.3,1.3,0.7,1.8C464.7,388.2,465.3,388.4,466,388.4z
		"/>
</g>
<g>
	<circle fill="#2F96CD" cx="541.2" cy="376.7" r="24.9"/>
	<path fill="#FFFFFF" d="M558,370.1h-4.9V367l-0.3-0.1c-3.2-1.6-7.4-2.6-11.6-2.6c-4.3,0-8.4,0.9-11.6,2.6l-0.3,0.1v3.1h-4.9
		l1.8,6.1l-1.8,6.1h4.9v3.4l0,0l0.4,0.1c4,1.3,11.3,3.2,11.4,3.3h0.1h0.1c0.1,0,7.4-2,11.4-3.3l0.4-0.1v-3.4h4.9l-1.8-6.1L558,370.1
		z M541,386.5c0,0-5.6-1.5-8.6-2.5l-0.6-0.2V369l0.5-0.3c2.5-1.3,5.7-2,9-2s6.5,0.7,9,2l0.5,0.3v14.8l-0.6,0.2
		c-3.1,1-8.6,2.5-8.7,2.5l-0.2,0.1L541,386.5z M547.2,370.2l1.9,1.9l-11,11l-4.7-4.7l1.9-1.9l2.8,2.8L547.2,370.2z"/>
</g>
<g>
	<g>
		<path fill="#656666" d="M604.3,352.8c13.2,0,24,10.8,24,24s-10.8,24-24,24s-24-10.8-24-24C580.3,363.5,591.1,352.8,604.3,352.8
			 M604.3,351.7c-13.8,0-25,11.2-25,25s11.2,25,25,25s25-11.2,25-25S618.1,351.7,604.3,351.7L604.3,351.7z"/>
	</g>
	<g>
		<path fill="#656666" d="M621.1,370.2h-4.9v-3.1l-0.3-0.1c-3.3-1.7-7.4-2.6-11.7-2.6s-8.4,0.9-11.7,2.6l-0.3,0.1v3.1h-4.9l1.8,6.1
			l-1.8,6.1h4.9v3.4l0,0l0.4,0.1c4,1.3,11.4,3.3,11.4,3.3h0.1h0.1c0.1,0,7.4-2,11.4-3.3l0.4-0.1v-3.4h4.9l-1.8-6.1L621.1,370.2z
			 M613.4,383.6l-0.3,0.1c-3.1,1-8.6,2.5-8.7,2.5h-0.1h-0.1c-0.1,0-5.6-1.5-8.7-2.5l-0.3-0.1l0,0v-14.1l0.2-0.1
			c2.5-1.3,5.6-1.9,8.8-1.9c3.2,0,6.4,0.7,8.8,1.9l0.2,0.1L613.4,383.6L613.4,383.6z"/>
		<polygon fill="#656666" points="601.1,379.4 598.3,376.6 596.4,378.5 601.1,383.3 612.2,372.2 610.3,370.3 		"/>
	</g>
</g>
<g>
	<circle fill="#2F96CD" cx="669.1" cy="376.8" r="25"/>
	<path fill="#FFFFFF" d="M676.7,366.1C676.7,366.1,676.7,366,676.7,366.1c0-0.1,0-0.2-0.1-0.2c0,0,0,0,0-0.1l-0.1-0.1
		c0,0,0,0-0.1-0.1l0,0c0,0-0.1,0-0.1-0.1c0,0,0,0-0.1,0l0,0h-0.1H676h-0.1h-0.1h-0.1c0,0-0.1,0-0.1,0.1l0,0l-16.1,14.6
		c-0.2,0.2-0.3,0.5-0.1,0.7c0.1,0.2,0.3,0.3,0.5,0.3c0.1,0,0.1,0,0.2,0l8.5-2.3l2.3,8.5c0.1,0.3,0.3,0.5,0.6,0.5l0,0
		c0.3,0,0.5-0.2,0.6-0.5L676.7,366.1L676.7,366.1C676.7,366.2,676.7,366.1,676.7,366.1z"/>
</g>
<g>
	<path fill="#656666" d="M740.9,366.1C740.9,366.1,740.9,366,740.9,366.1c0-0.1,0-0.2,0-0.2s0,0,0-0.1l-0.1-0.1c0,0,0,0-0.1-0.1l0,0
		c0,0-0.1,0-0.1-0.1c0,0,0,0-0.1,0l0,0h-0.1h-0.1h-0.1h-0.1c0,0,0,0-0.1,0c0,0-0.1,0-0.1,0.1l0,0l-16.1,14.7
		c-0.2,0.2-0.3,0.5-0.1,0.7c0.1,0.2,0.3,0.3,0.5,0.3c0.1,0,0.1,0,0.2,0l8.5-2.3l2.3,8.5c0.1,0.3,0.3,0.4,0.6,0.4l0,0
		c0.3,0,0.5-0.2,0.6-0.5L740.9,366.1L740.9,366.1C740.9,366.2,740.9,366.1,740.9,366.1z"/>
	<g>
		<path fill="#656666" d="M733.3,352.8c13.2,0,24,10.8,24,24s-10.8,24-24,24s-24-10.8-24-24C709.3,363.5,720.1,352.8,733.3,352.8
			 M733.3,351.7c-13.8,0-25,11.2-25,25s11.2,25,25,25s25-11.2,25-25S747.1,351.7,733.3,351.7L733.3,351.7z"/>
	</g>
</g>
<g>
	<circle fill="#2E97D0" cx="797.1" cy="376.8" r="25.1"/>
	<g>
		<path fill="#FFFFFF" d="M812.2,370.5c0.8-0.1,1.5-0.3,1.5-0.9s-0.4-0.9-0.9-1s-2-0.4-2.1,0.2c-0.1,0.6-0.1,1,0.1,1.3l-0.5,0.5
			c0,0-0.3-0.3-0.4-0.7c-0.1-0.4-0.7-2.3-2-4.1c-1-1.5-1.4-1.6-1.7-1.6s-2.3-0.4-7.9-0.4c-5.7,0-7.6,0.4-7.9,0.4
			c-0.3,0-0.6,0.1-1.7,1.6c-1.3,1.9-1.9,3.8-2,4.1c-0.1,0.4-0.4,0.7-0.4,0.7l-0.5-0.5c0.1-0.3,0.1-0.7,0.1-1.3
			c-0.1-0.6-1.5-0.3-2.1-0.2c-0.5,0.1-0.9,0.4-0.9,1s0.7,0.7,1.5,0.9c0.6,0.1,0.9,0.5,1,0.7c0.9-0.3,1.9-0.5,3-0.5
			c1.4,0,2.8,0.3,4,1c2.1,1.1,3.6,2.9,4.2,5.1c0.4,1.4,0.5,2.9,0.2,4.3c0.2,0,0.3,0,0.5,0.1l5,2.6c1.5,0,2.9,0,3.1,0
			c0,0,0.7,0.2,1.6,0.1c0.2,0,0.8-0.2,1.5-0.3v1.7c0,0.4,0.4,0.8,0.8,0.8h2.6c0.4,0,0.8-0.4,0.8-0.8v-2.9c0,0,0.2-5.9,0.2-6.5
			s0-1.5-0.3-1.9s-0.9-1.2-0.9-1.2s-0.2-0.9-0.7-1.5C811.2,371.3,811.3,370.6,812.2,370.5z M811,375.3c0,0-0.3,0.6-4.6,0.9
			c0,0-1.1-0.7-1.2-0.9c-0.2-0.2-0.1-0.2,0.1-0.3s4.2-1,5.3-1.7C810.6,373.3,811.4,373.9,811,375.3z"/>
		<path fill="#FFFFFF" d="M795.9,377c-0.6-2-2-3.7-3.9-4.6c-1.1-0.6-2.4-0.9-3.7-0.9c-2.9,0-5.6,1.6-7,4.2c-1,1.9-1.2,4-0.6,6
			c0.6,2,2,3.7,3.9,4.6c1.1,0.6,2.4,0.9,3.7,0.9c2.5,0,4.7-1.2,6.2-3.1l1.3-2.5C796.4,380.2,796.4,378.6,795.9,377z M794.3,382.4
			c-1.1,2.2-3.4,3.5-5.9,3.5c-1.1,0-2.1-0.3-3.1-0.8c-1.6-0.8-2.7-2.2-3.2-3.9c-0.5-1.7-0.4-3.5,0.5-5.1c1.1-2.2,3.4-3.5,5.9-3.5
			c1.1,0,2.1,0.3,3.1,0.8c1.6,0.8,2.7,2.2,3.2,3.9C795.3,379.1,795.1,380.9,794.3,382.4z"/>
		<path fill="#FFFFFF" d="M791,374.4c-2.7-1.4-6.1-0.4-7.5,2.3c-1.1,2.1-0.7,4.6,0.8,6.3c-0.6-1.4-0.5-3.1,0.3-4.6
			c1.4-2.7,4.8-3.8,7.5-2.3c0.6,0.3,1.1,0.7,1.6,1.2C793.1,376.1,792.2,375.1,791,374.4z"/>
		<path fill="#FFFFFF" d="M807,387l-9.9-5.2c-0.1-0.1-0.2-0.1-0.3,0c-0.1,0.1-0.2,0.1-0.3,0.2l-1.3,2.6c-0.1,0.2,0,0.5,0.2,0.6
			l9.9,5.2c0.1,0,0.1,0.1,0.2,0.1c0.2,0,0.3-0.1,0.4-0.2l1.4-2.6c0.1-0.1,0.1-0.2,0-0.3C807.2,387.1,807.1,387,807,387z"/>
	</g>
</g>
<g>
	<g>
		<path fill="#656666" d="M862.2,352.8c13.2,0,23.9,10.7,23.9,23.9c0,13.2-10.7,23.9-23.9,23.9s-23.9-10.7-23.9-23.9
			S849,352.8,862.2,352.8 M862.2,351.7c-13.8,0-25,11.2-25,25s11.2,25,25,25s25-11.2,25-25S876,351.7,862.2,351.7L862.2,351.7z"/>
	</g>
	<g>
		<path fill="#656666" d="M877.2,370.2c0.8-0.1,1.5-0.3,1.5-0.9s-0.4-0.9-0.9-1s-2-0.4-2.1,0.2c-0.1,0.6-0.1,1,0.1,1.3l-0.5,0.5
			c0,0-0.3-0.3-0.4-0.7c-0.1-0.4-0.7-2.3-2-4.1c-1-1.5-1.4-1.6-1.7-1.6s-2.3-0.4-7.9-0.4c-5.6,0-7.6,0.4-7.9,0.4
			c-0.3,0-0.6,0.1-1.7,1.6c-1.3,1.9-1.9,3.7-2,4.1c-0.1,0.4-0.4,0.7-0.4,0.7l-0.5-0.5c0.1-0.3,0.1-0.7,0.1-1.3
			c-0.1-0.6-1.5-0.3-2.1-0.2c-0.5,0.1-0.9,0.4-0.9,1s0.7,0.7,1.5,0.9c0.6,0.1,0.9,0.5,1,0.7c0.9-0.3,1.9-0.5,3-0.5
			c1.4,0,2.8,0.3,4,1c2,1.1,3.5,2.9,4.2,5.1c0.4,1.4,0.5,2.9,0.2,4.3c0.2,0,0.3,0,0.5,0.1l5,2.6c1.5,0,2.9,0,3.1,0
			c0,0,0.7,0.2,1.6,0.1c0.2,0,0.8-0.2,1.5-0.3v1.7c0,0.4,0.4,0.8,0.8,0.8h2.6c0.4,0,0.8-0.4,0.8-0.8v-2.8c0,0,0.2-5.9,0.2-6.5
			s0-1.5-0.3-1.9s-0.9-1.2-0.9-1.2s-0.2-0.9-0.7-1.5C876.2,371,876.4,370.3,877.2,370.2z M876,375c0,0-0.3,0.6-4.6,0.9
			c0,0-1-0.7-1.2-0.9s-0.1-0.2,0.1-0.3c0.2-0.1,4.2-1,5.3-1.7C875.6,373,876.5,373.6,876,375z"/>
		<path fill="#656666" d="M861.1,376.7c-0.6-2-2-3.6-3.8-4.6c-1.1-0.6-2.4-0.9-3.6-0.9c-2.9,0-5.6,1.6-6.9,4.2c-1,1.9-1.2,4-0.6,6
			c0.6,2,2,3.6,3.8,4.6c1.1,0.6,2.4,0.9,3.6,0.9c2.5,0,4.7-1.1,6.2-3l1.3-2.5C861.5,379.8,861.5,378.2,861.1,376.7z M859.4,382.1
			c-1.1,2.2-3.4,3.5-5.8,3.5c-1.1,0-2.1-0.3-3.1-0.8c-1.6-0.8-2.7-2.2-3.2-3.9c-0.5-1.7-0.4-3.5,0.5-5c1.1-2.2,3.4-3.5,5.8-3.5
			c1.1,0,2.1,0.3,3.1,0.8c1.6,0.8,2.7,2.2,3.2,3.9C860.4,378.7,860.2,380.5,859.4,382.1z"/>
		<path fill="#656666" d="M856.2,374.1c-2.7-1.4-6-0.4-7.5,2.3c-1.1,2.1-0.7,4.6,0.8,6.2c-0.6-1.4-0.5-3.1,0.3-4.6
			c1.4-2.7,4.8-3.7,7.5-2.3c0.6,0.3,1.1,0.7,1.6,1.2C858.3,375.8,857.4,374.7,856.2,374.1z"/>
		<path fill="#656666" d="M872.1,386.6l-9.8-5.2c-0.1-0.1-0.2-0.1-0.3,0c-0.1,0-0.2,0.1-0.3,0.2l-1.3,2.6c-0.1,0.2,0,0.5,0.2,0.6
			l9.8,5.2c0.1,0,0.1,0.1,0.2,0.1c0.2,0,0.3-0.1,0.4-0.2l1.4-2.6c0.1-0.1,0.1-0.2,0-0.3C872.2,386.7,872.2,386.7,872.1,386.6z"/>
	</g>
</g>
<g>
	<path fill="#F6EB0F" d="M938.7,383.1c1-1.9,1.5-4,1.5-6.3s-0.5-4.4-1.5-6.3l-5,2.9c0.5,1,0.7,2.2,0.7,3.4c0,1.2-0.3,2.3-0.7,3.4
		L938.7,383.1z"/>
	<path fill="#F16622" d="M927.1,368.8c2.4,0.2,4.5,1.5,5.8,3.4l5-2.9c-2.3-3.6-6.3-6-10.8-6.3V368.8z"/>
	<path fill="#EC1E24" d="M919.8,372.1c1.3-1.9,3.4-3.2,5.9-3.4v-5.8c-4.5,0.2-8.5,2.7-10.8,6.3L919.8,372.1z"/>
	<path fill="#324DA0" d="M925.6,384.9c-2.4-0.2-4.5-1.5-5.9-3.4l-5,2.9c2.3,3.6,6.3,6,10.8,6.3L925.6,384.9L925.6,384.9z"/>
	<path fill="#7A57A3" d="M918.3,376.8c0-1.2,0.3-2.3,0.7-3.4l-5-2.9c-1,1.9-1.5,4-1.5,6.3s0.5,4.4,1.5,6.3l5-2.9
		C918.5,379.2,918.3,378,918.3,376.8z"/>
	<path fill="#659941" d="M933,381.5c-1.3,1.9-3.4,3.2-5.8,3.4v5.8c4.5-0.2,8.5-2.7,10.8-6.3L933,381.5z"/>
	<g>
		<path fill="#656666" d="M926.4,352.8c13.3,0,24.1,10.8,24.1,24.1c0,13.3-10.8,24.1-24.1,24.1c-13.3,0-24.1-10.8-24.1-24.1
			C902.3,363.6,913.1,352.8,926.4,352.8 M926.4,351.7c-13.9,0-25.1,11.2-25.1,25.1s11.2,25.1,25.1,25.1c13.9,0,25.1-11.2,25.1-25.1
			C951.5,363,940.2,351.7,926.4,351.7L926.4,351.7z"/>
	</g>
</g>
<g>
	<path fill="#F6EB0F" d="M1012.4,388.1c1.7-3.4,2.7-7.2,2.7-11.3c0-4.1-1-7.9-2.7-11.3l-9,5.2c0.9,1.9,1.3,3.9,1.3,6.1
		s-0.5,4.2-1.3,6.1L1012.4,388.1z"/>
	<path fill="#F16622" d="M991.4,362.2c4.4,0.4,8.2,2.7,10.6,6.1l9-5.2c-4.2-6.5-11.4-10.9-19.6-11.3V362.2L991.4,362.2z"/>
	<path fill="#EC1E24" d="M978.1,368.3c2.4-3.4,6.2-5.7,10.6-6.1v-10.4c-8.2,0.4-15.4,4.8-19.6,11.3L978.1,368.3z"/>
	<path fill="#324DA0" d="M988.7,391.3c-4.4-0.4-8.2-2.7-10.6-6.1l-9,5.2c4.2,6.5,11.4,10.9,19.6,11.3V391.3L988.7,391.3z"/>
	<path fill="#7A57A3" d="M975.4,376.8c0-2.2,0.5-4.2,1.3-6.1l-9-5.2c-1.7,3.4-2.7,7.2-2.7,11.3c0,4.1,1,7.9,2.7,11.3l9-5.2
		C975.9,381,975.4,378.9,975.4,376.8z"/>
	<path fill="#659941" d="M1002,385.2c-2.4,3.4-6.2,5.7-10.6,6.1v10.4c8.2-0.4,15.4-4.8,19.6-11.3L1002,385.2z"/>
</g>
<g>
	<circle fill="#2E95CC" cx="1053.8" cy="376.8" r="25"/>
	<g>
		<path fill="#FFFFFF" d="M1054.8,367.7c0,0,0.1,0,0.1-0.1h6.4l-4.2,7c-0.2,0.4-0.1,0.9,0.3,1.1c0.4,0.2,0.9,0.1,1.1-0.3l4.2-7
			l4.2,7c0.1,0.2,0.4,0.4,0.7,0.4c0.1,0,0.3,0,0.4-0.1c0.4-0.2,0.5-0.7,0.3-1.1l-4.8-8.1l0,0v-0.1l0,0c-0.1-0.1-0.1-0.2-0.3-0.3l0,0
			c-0.1-0.1-0.2-0.1-0.4-0.1h-6.9c0-0.1,0-0.1,0-0.1c0-1.1-0.9-2.1-2.1-2.1c-1.1,0-2.1,0.9-2.1,2.1c0,0.1,0,0.1,0,0.1h-6.9
			c-0.1,0-0.3,0-0.4,0.1l0,0c-0.1,0.1-0.2,0.1-0.3,0.3l0,0v0.1l0,0l-4.8,8.1c-0.2,0.4-0.1,0.9,0.3,1.1s0.9,0.1,1.1-0.3l4.2-7l4.2,7
			c0.1,0.2,0.4,0.4,0.7,0.4c0.1,0,0.3,0,0.4-0.1c0.4-0.2,0.5-0.7,0.3-1.1l-4.2-7h6.4c0,0,0.1,0,0.1,0.1v18.5
			c-3.3,0.2-6.4,1.1-9.1,2.6v1h20.2v-1c-2.7-1.5-5.8-2.4-9.1-2.6L1054.8,367.7L1054.8,367.7L1054.8,367.7z"/>
		<path fill="#FFFFFF" d="M1051,377.1c0-0.3-0.2-0.5-0.5-0.5h-11.2c-0.3,0-0.5,0.2-0.5,0.5c0,3.4,2.7,6.1,6.1,6.1
			C1048.2,383.2,1051,380.5,1051,377.1z"/>
		<path fill="#FFFFFF" d="M1068.3,376.6h-11.2c-0.3,0-0.5,0.2-0.5,0.5c0,3.4,2.7,6.1,6.1,6.1c3.4,0,6.1-2.7,6.1-6.1
			C1068.8,376.8,1068.6,376.6,1068.3,376.6z"/>
	</g>
</g>
<g>
	<g>
		<path fill="#656666" d="M160.1,424.9c13.2,0,24,10.8,24,24s-10.8,24-24,24c-13.2,0-24-10.8-24-24S146.8,424.9,160.1,424.9
			 M160.1,423.9c-13.8,0-25,11.2-25,25s11.2,25,25,25c13.8,0,25-11.2,25-25C185.1,435.1,173.9,423.9,160.1,423.9L160.1,423.9z"/>
	</g>
	<g>
		<path fill="#656666" d="M161.1,439.8C161.1,439.8,161.2,439.8,161.1,439.8l6.5-0.1l-4.2,7c-0.2,0.4-0.1,0.9,0.3,1.1
			s0.9,0.1,1.1-0.3l4.2-7l4.2,7c0.1,0.2,0.4,0.4,0.7,0.4c0.1,0,0.3,0,0.4-0.1c0.4-0.2,0.5-0.7,0.3-1.1l-4.8-8.1l0,0v-0.1l0,0
			c-0.1-0.1-0.2-0.2-0.3-0.3l0,0c-0.1-0.1-0.2-0.1-0.4-0.1h-6.9V438c0-1.1-0.9-2.1-2.1-2.1c-1.1,0-2.1,0.9-2.1,2.1
			c0,0.1,0,0.1,0,0.1h-6.9c-0.1,0-0.3,0-0.4,0.1l0,0c-0.1,0.1-0.2,0.1-0.3,0.3l0,0v0.1l0,0l-4.8,8.1c-0.2,0.4-0.1,0.9,0.3,1.1
			c0.4,0.2,0.9,0.1,1.1-0.3l4.2-7l4.2,7c0.1,0.2,0.4,0.4,0.7,0.4c0.1,0,0.3,0,0.4-0.1c0.4-0.2,0.5-0.7,0.3-1.1l-4.2-7h6.4
			c0,0,0.1,0,0.1,0.1v18.5c-3.3,0.2-6.4,1.1-9.1,2.6v1h20.2v-1c-2.7-1.5-5.8-2.4-9.1-2.6V439.8L161.1,439.8L161.1,439.8z"/>
		<path fill="#656666" d="M157.2,449.3c0-0.3-0.2-0.5-0.5-0.5h-11.2c-0.3,0-0.5,0.2-0.5,0.5c0,3.4,2.7,6.1,6.1,6.1
			C154.5,455.4,157.2,452.7,157.2,449.3z"/>
		<path fill="#656666" d="M174.6,448.8h-11.2c-0.3,0-0.5,0.2-0.5,0.5c0,3.4,2.7,6.1,6.1,6.1s6.1-2.7,6.1-6.1
			C175.1,449,174.9,448.8,174.6,448.8z"/>
	</g>
</g>
<g>
	<circle fill="#2E95CC" cx="220.8" cy="448.9" r="25"/>
	<path fill="#FFFFFF" d="M230.5,434.6h-19.3c-0.6,0-1,0.5-1,1v26.6c0,0.6,0.5,1,1,1h19.3c0.6,0,1-0.5,1-1v-26.6
		C231.5,435.1,231,434.6,230.5,434.6z M216.5,461.2h-4.4v-4.6h4.4V461.2z M216.5,454.6h-4.4V450h4.4V454.6z M216.5,447.9h-4.4v-4.6
		h4.4V447.9z M223,461.2h-4.4v-4.6h4.4V461.2z M223,454.6h-4.4V450h4.4V454.6z M223,447.9h-4.4v-4.6h4.4V447.9z M229.5,461.2h-4.4
		v-4.6h4.4V461.2L229.5,461.2z M229.5,454.6h-4.4V450h4.4V454.6L229.5,454.6z M229.5,447.9h-4.4v-4.6h4.4V447.9L229.5,447.9z
		 M229.5,441.3h-17.4v-4.7h17.4V441.3L229.5,441.3z"/>
</g>
<g>
	<path fill="#656666" d="M283.8,424.9c13.2,0,24,10.8,24,24s-10.8,24-24,24c-13.2,0-24-10.8-24-24S270.5,424.9,283.8,424.9
		 M283.8,423.9c-13.8,0-25,11.2-25,25s11.2,25,25,25c13.8,0,25-11.2,25-25C308.8,435.1,297.6,423.9,283.8,423.9L283.8,423.9z"/>
</g>
<path fill="#656666" d="M293.4,434.6h-19.3c-0.6,0-1,0.5-1,1v26.6c0,0.6,0.5,1,1,1h19.3c0.6,0,1-0.5,1-1v-26.6
	C294.5,435.1,294,434.6,293.4,434.6z M279.5,461.2h-4.4v-4.6h4.4V461.2z M279.5,454.6h-4.4V450h4.4V454.6z M279.5,447.9h-4.4v-4.6
	h4.4V447.9z M286,461.2h-4.4v-4.6h4.4V461.2z M286,454.6h-4.4V450h4.4V454.6z M286,447.9h-4.4v-4.6h4.4V447.9z M292.5,461.2h-4.4
	v-4.6h4.4V461.2z M292.5,454.6h-4.4V450h4.4V454.6z M292.5,447.9h-4.4v-4.6h4.4V447.9z M292.5,441.3h-17.4v-4.7h17.4V441.3
	L292.5,441.3z"/>
<g>
	<circle fill="#2E97D0" cx="346.7" cy="449" r="25.1"/>
	<path fill="#FFFFFF" d="M346.7,435.7c-4.7,0-8.6,3.8-8.6,8.6c0,7.5,7.7,18,8.6,18c0.8,0,8.6-10.5,8.6-18
		C355.3,439.5,351.4,435.7,346.7,435.7z M346.7,448.5c-2.4,0-4.3-1.9-4.3-4.3s1.9-4.3,4.3-4.3c2.3,0,4.3,1.9,4.3,4.3
		C351,446.6,349.1,448.5,346.7,448.5z"/>
</g>
<g>
	<path fill="#656666" d="M411.1,424.9c13.2,0,24,10.8,24,24s-10.8,24-24,24c-13.2,0-24-10.8-24-24S397.8,424.9,411.1,424.9
		 M411.1,423.9c-13.8,0-25,11.2-25,25s11.2,25,25,25c13.8,0,25-11.2,25-25C436.1,435.1,424.9,423.9,411.1,423.9L411.1,423.9z"/>
</g>
<path fill="#656666" d="M411.1,435.7c-4.7,0-8.5,3.8-8.5,8.5c0,7.4,7.7,18,8.5,18c0.8,0,8.5-10.5,8.5-18
	C419.6,439.5,415.8,435.7,411.1,435.7z M411.1,448.5c-2.3,0-4.2-1.9-4.2-4.2c0-2.3,1.9-4.2,4.2-4.2c2.3,0,4.2,1.9,4.2,4.2
	C415.3,446.6,413.4,448.5,411.1,448.5z"/>
<g>
	<circle fill="#2E95CC" cx="475.6" cy="448.9" r="25"/>
	<path fill="#FFFFFF" d="M487.3,457.4v-2.2h-2v-11.8h2v-3l-12-5.1l-11.6,5.1v3h2v11.8h-2v2.2H462v3h27v-3H487.3L487.3,457.4
		L487.3,457.4z M482.3,455.2h-5.2v-11.8h5.2V455.2z M468.8,443.5h5.2v11.8h-5.2V443.5z"/>
</g>
<g>
	<g>
		<path fill="#656666" d="M541.2,424.9c13.2,0,24,10.8,24,24s-10.8,24-24,24s-24-10.8-24-24S528,424.9,541.2,424.9 M541.2,423.9
			c-13.8,0-25,11.2-25,25s11.2,25,25,25s25-11.2,25-25C566.2,435.1,555,423.9,541.2,423.9L541.2,423.9z"/>
	</g>
	<path fill="#656666" d="M553,457.4v-2.2h-2v-11.8h2v-3l-12-5.1l-11.6,5.1v3h2v11.8h-2v2.2h-1.7v3h26.9v-3H553L553,457.4L553,457.4z
		 M548,455.2h-5.2v-11.8h5.2V455.2z M534.5,443.5h5.2v11.8h-5.2V443.5z"/>
</g>
<g>
	<circle fill="#2E95CC" cx="604.3" cy="448.9" r="25"/>
	<g>
		<path fill="#FFFFFF" d="M603.5,439.5c-1.2-0.9-3-2-5.4-2.2c-0.6-0.1-1.2-0.1-1.8-0.1c-3.1,0-5.5,0.9-5.6,0.9
			c-0.4,0.1-0.7,0.5-0.7,1v16.6c0,0.3,0.2,0.6,0.4,0.8c0.3,0.2,0.6,0.2,0.9,0.1c0,0,2.1-0.8,4.9-0.8c0.5,0,1.1,0,1.6,0.1
			c3.4,0.4,5.6,2.9,5.6,2.9l0,0L603.5,439.5L603.5,439.5z"/>
		<path fill="#FFFFFF" d="M617.9,438.1c-0.1,0-2.5-0.9-5.6-0.9c-0.6,0-1.2,0-1.8,0.1c-2.3,0.3-4.2,1.3-5.4,2.2v19.4l0,0
			c0,0,2.2-2.5,5.6-2.9c0.5-0.1,1.1-0.1,1.6-0.1c2.7,0,4.9,0.8,4.9,0.8c0.3,0.1,0.7,0.1,0.9-0.1c0.3-0.2,0.4-0.5,0.4-0.8v-16.7
			C618.6,438.6,618.3,438.2,617.9,438.1z"/>
	</g>
</g>
<g>
	<g>
		<path fill="#656666" d="M669.1,424.9c13.2,0,24,10.8,24,24s-10.8,24-24,24c-13.2,0-24-10.8-24-24
			C645,435.7,655.8,424.9,669.1,424.9 M669.1,423.9c-13.8,0-25,11.2-25,25s11.2,25,25,25c13.8,0,25-11.2,25-25
			C694.1,435.1,682.9,423.9,669.1,423.9L669.1,423.9z"/>
	</g>
	<g>
		<path fill="#656666" d="M668.3,440.5c-1.2-0.9-3-2-5.4-2.2c-0.6-0.1-1.2-0.1-1.8-0.1c-3.1,0-5.5,0.9-5.6,0.9
			c-0.4,0.1-0.7,0.5-0.7,1v16.6c0,0.3,0.2,0.6,0.4,0.8c0.3,0.2,0.6,0.2,0.9,0.1c0,0,2.1-0.8,4.9-0.8c0.5,0,1.1,0,1.6,0.1
			c3.4,0.4,5.6,2.9,5.6,2.9l0,0L668.3,440.5L668.3,440.5L668.3,440.5z"/>
		<path fill="#656666" d="M682.6,439.1c-0.1,0-2.5-0.9-5.6-0.9c-0.6,0-1.2,0-1.8,0.1c-2.3,0.3-4.2,1.3-5.4,2.2v19.4l0,0
			c0,0,2.2-2.5,5.6-2.9c0.5-0.1,1.1-0.1,1.6-0.1c2.7,0,4.9,0.8,4.9,0.8c0.3,0.1,0.7,0.1,0.9-0.1c0.3-0.2,0.4-0.5,0.4-0.8v-16.6
			C683.3,439.6,683,439.2,682.6,439.1z"/>
	</g>
</g>
<g>
	<circle fill="#2E97D0" cx="733.3" cy="448.9" r="25"/>
	<g>
		<polygon fill="#FFFFFF" points="733.3,449.4 745.2,441 721.5,441 		"/>
		<path fill="#FFFFFF" d="M746.2,441.6l-12.6,8.8c-0.2,0.1-0.4,0.1-0.6,0l-12.6-8.8v15.2h25.7L746.2,441.6L746.2,441.6z
			 M722.6,455.4c-0.1,0-0.3-0.1-0.4-0.2c-0.2-0.2-0.2-0.5,0-0.8l5.5-5.5c0.2-0.2,0.5-0.2,0.8,0c0.2,0.2,0.2,0.5,0,0.8l-5.5,5.5
			C722.9,455.4,722.7,455.4,722.6,455.4z M744.4,455.3c-0.1,0.1-0.2,0.2-0.4,0.2c-0.1,0-0.3-0.1-0.4-0.2l-5.5-5.5
			c-0.2-0.2-0.2-0.5,0-0.8c0.2-0.2,0.5-0.2,0.8,0l5.5,5.5C744.6,454.7,744.6,455.1,744.4,455.3z"/>
	</g>
</g>
<g>
	<g>
		<path fill="#656666" d="M796.3,424.9c13.3,0,24,10.8,24,24s-10.8,24-24,24c-13.3,0-24-10.8-24-24S783,424.9,796.3,424.9
			 M796.3,423.9c-13.8,0-25.1,11.2-25.1,25.1c0,13.8,11.2,25.1,25.1,25.1c13.8,0,25.1-11.2,25.1-25.1S810.1,423.9,796.3,423.9
			L796.3,423.9z"/>
	</g>
	<g>
		<polygon fill="#656666" points="796.3,449.4 808.2,441.1 784.4,441.1 		"/>
		<path fill="#656666" d="M809.2,441.7l-12.6,8.9c-0.2,0.1-0.4,0.1-0.6,0l-12.6-8.9v15.1h25.8L809.2,441.7L809.2,441.7z
			 M785.6,455.5c-0.1,0-0.3-0.1-0.4-0.2c-0.2-0.2-0.2-0.5,0-0.8l5.5-5.5c0.2-0.2,0.5-0.2,0.8,0c0.2,0.2,0.2,0.5,0,0.8l-5.5,5.5
			C785.8,455.5,785.7,455.5,785.6,455.5z M807.4,455.3c-0.1,0.1-0.2,0.2-0.4,0.2c-0.1,0-0.3-0.1-0.4-0.2l-5.5-5.5
			c-0.2-0.2-0.2-0.5,0-0.8c0.2-0.2,0.5-0.2,0.8,0l5.5,5.5C807.6,454.8,807.6,455.1,807.4,455.3z"/>
	</g>
</g>
<g>
	<circle fill="#2E95CC" cx="862.2" cy="448.8" r="24.9"/>
	<path fill="#FFFFFF" d="M874.5,438.2H850c-0.8,0-1.5,0.7-1.5,1.5V458c0,0.8,0.7,1.5,1.5,1.5h24.5c0.8,0,1.5-0.7,1.5-1.5v-18.3
		C876,438.9,875.3,438.2,874.5,438.2z M873.9,457.6h-23.4v-17.3h23.4V457.6L873.9,457.6z M857.3,444.1c0,1-0.8,1.8-1.8,1.8l0,0
		c-1,0-1.8-0.8-1.8-1.8l0,0c0-1,0.8-1.8,1.8-1.8l0,0C856.5,442.4,857.3,443.2,857.3,444.1L857.3,444.1z M857.3,449.5
		c0.2-0.2,0.6-0.3,0.9-0.1l3.3,1.9c0.3,0.2,0.7,0.1,0.9-0.2l4.1-5c0.2-0.3,0.5-0.2,0.6,0.1l5.1,9.5c0.2,0.3,0,0.5-0.3,0.5h-19.7
		c-0.3,0-0.4-0.2-0.2-0.4L857.3,449.5z"/>
</g>
<g>
	<g>
		<path fill="#656666" d="M926.4,424.9c13.3,0,24,10.8,24,24c0,13.3-10.8,24-24,24c-13.3,0-24-10.8-24-24
			C902.3,435.7,913.1,424.9,926.4,424.9 M926.4,423.9c-13.8,0-25.1,11.2-25.1,25.1c0,13.8,11.2,25.1,25.1,25.1
			c13.8,0,25.1-11.2,25.1-25.1C951.4,435.1,940.2,423.9,926.4,423.9L926.4,423.9z"/>
	</g>
	<path fill="#656666" d="M938.7,438.3h-24.6c-0.8,0-1.5,0.7-1.5,1.5v18.4c0,0.8,0.7,1.5,1.5,1.5h24.6c0.8,0,1.5-0.7,1.5-1.5v-18.4
		C940.2,439,939.5,438.3,938.7,438.3z M938.1,457.8h-23.5v-17.4h23.5V457.8z M921.4,444.3c0,1-0.8,1.8-1.8,1.8l0,0
		c-1,0-1.8-0.8-1.8-1.8l0,0c0-1,0.8-1.8,1.8-1.8l0,0C920.6,442.5,921.4,443.3,921.4,444.3L921.4,444.3z M921.4,449.6
		c0.2-0.3,0.6-0.3,0.9-0.2l3.4,1.9c0.3,0.2,0.7,0.1,0.9-0.2l4.1-5.1c0.2-0.3,0.5-0.2,0.7,0.1l5.1,9.5c0.2,0.3,0,0.5-0.3,0.5h-19.9
		c-0.3,0-0.4-0.2-0.2-0.5L921.4,449.6z"/>
</g>
<g>
	<circle fill="#2E97D0" cx="990.1" cy="449" r="25.1"/>
	
		<rect x="974.9" y="447.2" transform="matrix(0.7071 -0.7071 0.7071 0.7071 -27.4283 831.5257)" fill="#FFFFFF" width="30.2" height="3.3"/>
	<path fill="#FFFFFF" d="M997.1,450.4c-3.1,0-5.6,2.5-5.6,5.6s2.5,5.6,5.6,5.6c3.1,0,5.5-2.5,5.5-5.6S1000.1,450.4,997.1,450.4z
		 M997.1,458.6c-1.5,0-2.7-1.2-2.7-2.7s1.2-2.7,2.7-2.7s2.7,1.2,2.7,2.7S998.6,458.6,997.1,458.6z"/>
	<path fill="#FFFFFF" d="M983.1,447.5c3.1,0,5.6-2.5,5.6-5.5c0-3.1-2.5-5.6-5.6-5.6c-3.1,0-5.6,2.5-5.6,5.6
		C977.6,445,980,447.5,983.1,447.5z M983.1,439.3c1.5,0,2.7,1.2,2.7,2.7s-1.2,2.7-2.7,2.7s-2.7-1.2-2.7-2.7S981.6,439.3,983.1,439.3
		z"/>
</g>
<g>
	<g>
		<path fill="#656666" d="M1053.8,424.9c13.3,0,24,10.8,24,24c0,13.3-10.8,24-24,24c-13.3,0-24-10.8-24-24
			S1040.6,424.9,1053.8,424.9 M1053.8,423.9c-13.8,0-25.1,11.2-25.1,25.1c0,13.8,11.2,25.1,25.1,25.1c13.8,0,25.1-11.2,25.1-25.1
			S1067.7,423.9,1053.8,423.9L1053.8,423.9z"/>
	</g>
	
		<rect x="1038.6" y="447.2" transform="matrix(0.7071 -0.7071 0.7071 0.7071 -8.7789 876.5778)" fill="#656666" width="30.2" height="3.3"/>
	<path fill="#656666" d="M1060.8,450.4c-3.1,0-5.6,2.5-5.6,5.6s2.5,5.6,5.6,5.6c3.1,0,5.6-2.5,5.6-5.6
		C1066.3,452.9,1063.9,450.4,1060.8,450.4z M1060.8,458.6c-1.5,0-2.7-1.2-2.7-2.7s1.2-2.7,2.7-2.7s2.7,1.2,2.7,2.7
		S1062.3,458.6,1060.8,458.6z"/>
	<path fill="#656666" d="M1046.8,447.5c3.1,0,5.6-2.5,5.6-5.6s-2.5-5.6-5.6-5.6c-3.1,0-5.5,2.5-5.5,5.6S1043.8,447.5,1046.8,447.5z
		 M1046.8,439.3c1.5,0,2.7,1.2,2.7,2.7s-1.2,2.7-2.7,2.7s-2.7-1.2-2.7-2.7S1045.3,439.3,1046.8,439.3z"/>
</g>
<g>
	<circle fill="#2E95CC" cx="160.1" cy="521" r="25.1"/>
	<path fill="#FFFFFF" d="M175.1,520.1h-5.7v-11.3c0-0.3-0.3-0.6-0.6-0.6H145c-0.3,0-0.6,0.3-0.6,0.6v14.7c0,0.3,0.3,0.6,0.6,0.6h3.8
		c0,0.9-0.3,2.8-1.9,3.8c-0.2,0.1-0.3,0.4-0.2,0.7c0.1,0.2,0.3,0.4,0.5,0.4l0,0c3.4-0.2,4.8-3,5.1-4.9h4.4v7.5
		c0,0.3,0.3,0.6,0.6,0.6h12.4c0.3,1.4,1.4,3.5,3.9,3.6l0,0c0.2,0,0.5-0.2,0.5-0.4c0.1-0.2,0-0.5-0.2-0.6c-1-0.7-1.3-1.9-1.3-2.6h2.5
		c0.3,0,0.6-0.3,0.6-0.6v-11C175.7,520.3,175.4,520.1,175.1,520.1z M156.8,520.6v2.3h-4.9c-0.3,0-0.5,0.2-0.6,0.5
		c0,0.1-0.3,2.7-2.3,3.8c1-1.7,0.8-3.7,0.8-3.9c0-0.3-0.3-0.5-0.6-0.5h-3.7v-13.5h22.8V520h-11C157,520.1,156.8,520.3,156.8,520.6z"
		/>
</g>
<g>
	<g>
		<path fill="#656666" d="M220.8,496.9c13.2,0,24,10.7,24,24c0,13.2-10.7,23.9-24,23.9c-13.2,0-24-10.7-24-23.9
			C196.9,507.7,207.6,496.9,220.8,496.9 M220.8,495.9c-13.8,0-25,11.2-25,25c0,13.8,11.2,25,25,25s25-11.2,25-25
			C245.8,507.1,234.6,495.9,220.8,495.9L220.8,495.9z"/>
	</g>
	<path fill="none" d="M206.4,509.4v13.5h3.7c0.3,0,0.5,0.2,0.6,0.5c0,0.1,0.2,2.1-0.8,3.8c2-1.1,2.2-3.7,2.2-3.8
		c0-0.3,0.3-0.5,0.6-0.5h4.9v-2.3c0-0.3,0.3-0.6,0.6-0.6h11v-10.6L206.4,509.4L206.4,509.4z"/>
	<path fill="#656666" d="M235.8,520h-5.6v-11.2c0-0.3-0.3-0.6-0.6-0.6h-23.8c-0.3,0-0.6,0.3-0.6,0.6v14.7c0,0.3,0.3,0.6,0.6,0.6h3.7
		c0,0.9-0.3,2.8-1.8,3.8c-0.2,0.1-0.3,0.4-0.2,0.6s0.3,0.4,0.5,0.4l0,0c3.4-0.2,4.8-3,5.1-4.9h4.4v7.5c0,0.3,0.3,0.6,0.6,0.6h12.3
		c0.3,1.4,1.4,3.5,3.9,3.6l0,0c0.2,0,0.5-0.2,0.5-0.4c0.1-0.2,0-0.5-0.2-0.6c-1-0.7-1.3-1.9-1.3-2.6h2.5c0.3,0,0.6-0.3,0.6-0.6
		v-10.9C236.4,520.3,236.1,520,235.8,520z M217.6,520.6v2.3h-4.9c-0.3,0-0.5,0.2-0.6,0.5c0,0.1-0.3,2.7-2.2,3.8
		c1-1.7,0.8-3.7,0.8-3.8c0-0.3-0.3-0.5-0.6-0.5h-3.7v-13.5h22.7v10.7h-11C217.8,520,217.6,520.3,217.6,520.6z"/>
</g>
<g>
	<circle fill="#2E95CC" cx="283.8" cy="521" r="25.1"/>
	<path fill="#FFFFFF" d="M281.9,518.7c-1.4,0.9-3.5,3.2-3.7,3.9c-0.1,0.7,1.1,2.1,1.3,2.4c0.2,0.3,0.7,1.7-0.8,2.8
		c-1.4,1-5,3.6-5.6,4c-1.3,1-2.4-1.2-2.9-1.9c-0.5-0.6-2.6-6,9.2-14.5s16.2-4.7,16.7-4.1c0.5,0.6,2.2,2.4,0.9,3.3
		c-0.6,0.4-4.1,3-5.6,4c-1.4,1-2.6,0.1-2.9-0.2c-0.2-0.3-1.2-1.9-1.9-2C286.1,516.4,283.3,517.7,281.9,518.7z"/>
</g>
<g>
	<path fill="#656666" d="M346.7,496.9c13.2,0,24,10.8,24,24c0,13.2-10.8,24-24,24c-13.2,0-24-10.8-24-24
		C322.7,507.7,333.5,496.9,346.7,496.9 M346.7,495.9c-13.8,0-25,11.2-25,25c0,13.8,11.2,25,25,25c13.8,0,25-11.2,25-25
		C371.7,507.1,360.5,495.9,346.7,495.9L346.7,495.9z"/>
</g>
<path fill="#656666" d="M344.9,518.6c-1.4,0.9-3.5,3.2-3.6,3.9s1.1,2.1,1.3,2.4c0.2,0.3,0.7,1.7-0.8,2.8c-1.4,1-4.9,3.5-5.5,4
	c-1.3,1-2.4-1.2-2.9-1.9c-0.5-0.6-2.6-6,9.2-14.4c11.8-8.4,16.2-4.7,16.6-4.1c0.5,0.6,2.2,2.4,0.9,3.3c-0.6,0.4-4.1,2.9-5.5,4
	c-1.4,1-2.6,0.1-2.9-0.2c-0.2-0.3-1.2-1.9-1.9-2C349,516.3,346.2,517.6,344.9,518.6z"/>
<g>
	<circle fill="#2E95CC" cx="411.1" cy="521" r="25.1"/>
	<g>
		<polygon fill="#FFFFFF" points="425.9,523.1 415.8,523.1 415.8,518 407.7,526.1 415.8,534.2 415.8,529.2 425.9,529.2 		"/>
		<polygon fill="#FFFFFF" points="414.4,515.9 406.3,507.8 406.3,512.8 396.2,512.8 396.2,518.9 406.3,518.9 406.3,524 		"/>
	</g>
</g>
<g>
	<g>
		<path fill="#656666" d="M475.6,497c13.3,0,24,10.8,24,24c0,13.3-10.8,24-24,24c-13.3,0-24-10.8-24-24
			C451.5,507.7,462.3,497,475.6,497 M475.6,495.9c-13.8,0-25.1,11.2-25.1,25.1c0,13.8,11.2,25.1,25.1,25.1
			c13.8,0,25.1-11.2,25.1-25.1C500.6,507.1,489.4,495.9,475.6,495.9L475.6,495.9z"/>
	</g>
	<g>
		<polygon fill="#656666" points="490.4,523.1 480.3,523.1 480.3,518 472.2,526.1 480.3,534.2 480.3,529.2 490.4,529.2 		"/>
		<polygon fill="#656666" points="478.9,515.9 470.8,507.8 470.8,512.8 460.8,512.8 460.8,518.9 470.8,518.9 470.8,524 		"/>
	</g>
</g>
<circle fill="#2E95CC" cx="541.2" cy="521" r="25"/>
<g>
	
		<rect x="531.7" y="511.7" transform="matrix(0.6556 -0.7551 0.7551 0.6556 -206.3473 580.9166)" fill="#FFFFFF" width="3.9" height="9.9"/>
	<polygon fill="#FFFFFF" points="553.7,506.5 543.8,509.8 546.6,512 537.6,522.9 537.6,535.5 541.5,535.5 541.5,524.3 549.6,514.5 
		552.3,516.7 	"/>
</g>
<g>
	<g>
		<path fill="#656666" d="M603.5,497c13.3,0,24,10.8,24,24c0,13.3-10.8,24-24,24c-13.3,0-24-10.8-24-24
			C579.5,507.7,590.3,497,603.5,497 M603.5,495.9c-13.8,0-25.1,11.2-25.1,25.1c0,13.8,11.2,25.1,25.1,25.1
			c13.8,0,25.1-11.2,25.1-25.1S617.4,495.9,603.5,495.9L603.5,495.9z"/>
	</g>
	<g>
		
			<rect x="594.2" y="511.8" transform="matrix(0.6559 -0.7549 0.7549 0.6559 -184.9206 627.8087)" fill="#656666" width="3.9" height="9.9"/>
		<polygon fill="#656666" points="616,506.4 606.2,509.7 608.9,512 599.9,522.9 599.9,535.5 603.8,535.5 603.8,524.3 611.9,514.5 
			614.6,516.7 		"/>
	</g>
</g>
<circle fill="#2E95CC" cx="669.1" cy="521" r="25"/>
<path fill="#FFFFFF" d="M682.1,516.8c-2.3-7.2-10.1-11.1-17.2-8.8c-7.2,2.3-11.1,10.1-8.8,17.2c2.3,7.2,10.1,11.1,17.2,8.8
	C680.4,531.7,684.4,523.9,682.1,516.8z M670.4,515.2c0.1-0.7,0.2-1.4,0.2-2.1c0.1-0.7,0.1-1.3,0.1-1.8V511c2.9,0.5,5.6,2.3,7.1,5
	l-0.4,0.1c-0.5,0.2-1.1,0.4-1.7,0.7c-0.6,0.3-1.3,0.6-1.9,0.9c-0.3,0.1-0.8,0.4-1.3,0.6c-0.3,0.1-0.6,0.3-0.9,0.4
	c-0.1-0.1-0.1-0.2-0.2-0.3c-0.3-0.3-0.7-0.5-1.1-0.7c-0.1,0-0.2-0.1-0.3-0.1c0-0.3,0.1-0.7,0.1-1C670.3,516,670.3,515.5,670.4,515.2
	z M665.9,511.3c0.2-0.1,0.5-0.1,0.7-0.2v0.1c0.1,0.6,0.1,1.3,0.2,1.9c0.1,0.7,0.2,1.4,0.3,2.1c0.1,0.3,0.1,0.9,0.2,1.5
	c0,0.4,0.1,0.7,0.1,1.1c-0.1,0-0.2,0.1-0.3,0.1c-0.3,0.2-0.5,0.4-0.8,0.6c-0.1,0.1-0.1,0.2-0.2,0.3c-0.3-0.1-0.7-0.3-1.1-0.5
	c-0.5-0.2-1.1-0.5-1.4-0.6c-0.6-0.3-1.3-0.6-1.9-0.9c-0.6-0.3-1.2-0.5-1.7-0.7h-0.1C661.3,513.9,663.3,512.1,665.9,511.3z
	 M662.6,526.3c-0.4,0.5-0.8,0.9-1.2,1.3l-0.1,0.1c-0.9-1-1.6-2.2-2-3.5c-0.4-1.4-0.6-2.7-0.4-4.1h0.1c0.5,0.1,1.1,0.3,1.7,0.4
	c0.7,0.1,1.4,0.3,2.1,0.4c0.4,0.1,0.9,0.2,1.5,0.3c0.4,0.1,0.8,0.2,1.2,0.3c0,0.1,0,0.2,0,0.3s0.1,0.3,0.1,0.4s0.1,0.3,0.1,0.4
	c0,0.1,0.1,0.2,0.2,0.3c-0.2,0.3-0.5,0.6-0.8,0.9c-0.4,0.5-0.8,0.9-1.1,1.1C663.6,525.3,663.1,525.8,662.6,526.3z M672.2,530.7
	c-2.6,0.8-5.3,0.6-7.5-0.5v-0.1c0.3-0.4,0.6-1,0.9-1.5c0.3-0.6,0.7-1.2,1-1.9c0.1-0.3,0.4-0.8,0.7-1.3c0.2-0.3,0.4-0.7,0.6-1
	c0.1,0,0.2,0.1,0.3,0.1c0.3,0.1,0.7,0.1,1,0.1c0.1,0,0.2,0,0.3,0c0.2,0.3,0.4,0.6,0.5,0.9c0.3,0.5,0.6,1,0.7,1.3
	c0.3,0.6,0.6,1.3,1,1.9c0.3,0.6,0.6,1.1,0.9,1.6l0.1,0.2C672.7,530.5,672.4,530.6,672.2,530.7z M676.3,528.1l-0.1-0.2
	c-0.4-0.5-0.8-0.9-1.2-1.4s-0.9-1-1.4-1.6c-0.2-0.2-0.6-0.6-0.9-1.1c-0.2-0.3-0.5-0.5-0.7-0.8c0.1-0.1,0.1-0.2,0.2-0.3
	c0.2-0.4,0.4-0.8,0.4-1.2c0-0.1,0-0.2,0-0.3c0.3-0.1,0.6-0.1,0.9-0.2c0.6-0.1,1.1-0.3,1.4-0.3c0.7-0.1,1.4-0.2,2.1-0.4
	c0.7-0.1,1.3-0.3,1.8-0.4l0.3-0.1h0.1C679.5,522.9,678.4,525.9,676.3,528.1z"/>
<g>
	<g>
		<path fill="#656666" d="M733.3,497c13.3,0,24,10.8,24,24c0,13.3-10.8,24-24,24c-13.3,0-24-10.8-24-24
			C709.3,507.7,720.1,497,733.3,497 M733.3,495.9c-13.8,0-25.1,11.2-25.1,25.1c0,13.8,11.2,25.1,25.1,25.1
			c13.8,0,25.1-11.2,25.1-25.1C758.4,507.1,747.1,495.9,733.3,495.9L733.3,495.9z"/>
	</g>
	<path fill="#656666" d="M746.3,516.8c-2.3-7.2-10.1-11.1-17.2-8.8c-7.2,2.3-11.1,10.1-8.8,17.2c2.3,7.2,10.1,11.1,17.2,8.8
		C744.7,531.7,748.7,523.9,746.3,516.8z M735.4,513.1c0.1-0.7,0.1-1.3,0.1-1.9c0-0.1,0-0.1,0-0.2c2.6,0.6,4.9,2.2,6.4,4.4
		c-0.1,0-0.2,0.1-0.3,0.1c-0.5,0.2-1.1,0.4-1.7,0.7c-0.6,0.3-1.3,0.6-1.9,0.9c-0.4,0.2-1.6,0.7-2.3,1c-0.2-0.2-0.5-0.3-0.7-0.5
		c0.1-0.8,0.2-2.1,0.2-2.6S735.3,513.8,735.4,513.1z M730.2,511.3c0.1,0,0.1,0,0.2-0.1v0.1c0,0.5,0.1,1.2,0.2,1.8
		c0.1,0.7,0.2,1.4,0.3,2.1c0.1,0.6,0.2,2,0.3,2.8c-0.1,0.1-0.3,0.2-0.4,0.3c-0.8-0.4-2.1-0.9-2.6-1.1c-0.7-0.3-1.3-0.6-1.9-0.9
		c-0.6-0.3-1.2-0.5-1.7-0.7C725.8,513.7,727.8,512.1,730.2,511.3z M726.5,526c-0.4,0.5-0.9,0.9-1.2,1.3c-0.7-0.9-1.3-2-1.7-3.1
		c-0.4-1.2-0.5-2.4-0.5-3.6c0.5,0.1,1.1,0.3,1.7,0.4c0.7,0.1,1.4,0.3,2.1,0.4c0.6,0.1,2,0.4,2.9,0.6c0,0.1,0,0.1,0,0.2
		s0,0.1,0.1,0.2c-0.6,0.6-1.5,1.7-2,2.2C727.5,524.9,727,525.5,726.5,526z M736.5,530.7c-2.4,0.8-4.9,0.6-7.1-0.3
		c0.3-0.5,0.6-1,1-1.6c0.3-0.6,0.7-1.2,1-1.9c0.3-0.5,1-1.7,1.4-2.4c0.2,0,0.4,0,0.5,0c0.4,0.7,1.1,1.9,1.4,2.4
		c0.3,0.7,0.7,1.3,1,1.9s0.6,1.1,0.9,1.6c0,0,0,0.1,0.1,0.1C736.6,530.6,736.5,530.7,736.5,530.7z M740.9,527.7
		c0-0.1-0.1-0.1-0.1-0.2c-0.3-0.4-0.7-0.9-1.2-1.4c-0.4-0.5-0.9-1-1.5-1.6c-0.3-0.4-1.1-1.3-1.7-1.9c0.1-0.3,0.2-0.5,0.3-0.8
		c0.8-0.2,2-0.5,2.5-0.6c0.7-0.1,1.4-0.2,2.1-0.4c0.7-0.1,1.3-0.3,1.8-0.4c0.1,0,0.2-0.1,0.3-0.1
		C743.6,523.1,742.7,525.7,740.9,527.7z"/>
</g>
<circle opacity="0.7" fill="#231F20" stroke="#A7A9AC" stroke-width="2" stroke-miterlimit="10" enable-background="new    " cx="322.9" cy="245" r="21.4"/>
<line fill="none" stroke="#FFFFFF" stroke-width="1.5" stroke-miterlimit="10" x1="314.6" y1="249" x2="324.1" y2="239.6"/>
<line fill="none" stroke="#FFFFFF" stroke-width="1.5" stroke-miterlimit="10" x1="323" y1="239.6" x2="332.4" y2="249"/>
<polygon id="polygon4578-1_1_" fill="#FFFFFF" points="852.7,597.8 861.5,589.1 870.2,597.7 870.9,597 861.5,587.6 851.9,597.1 "/>
<polygon id="polygon4578-1-1_1_" fill="#FFFFFF" points="861.5,646.3 851.9,636.7 852.7,636 861.5,644.8 870.2,636.2 870.9,636.9 
	"/>
<polygon id="polygon4578-1_2_" fill="#2E95CC" points="1124.8,513.3 1133.6,522.1 1124.9,530.8 1125.6,531.5 1135,522.1 
	1125.5,512.5 "/>
<polygon id="polygon4578-1_3_" fill="#FFFFFF" points="1124.8,537.3 1133.6,546.2 1124.9,554.8 1125.6,555.5 1135,546.2 
	1125.5,536.5 "/>
<path fill="#B3B3B3" d="M335.3,311.2h-0.8v-4.6c0-0.3,0-0.6-0.1-0.8c-0.1-0.4-0.2-0.8-0.4-1.1c-0.2-0.4-0.4-0.7-0.7-1l-2.8-2.8l0,0
	c-0.4-0.4-0.9-0.7-1.4-0.9c-0.3-0.1-0.5-0.2-0.8-0.3c-0.3-0.1-0.5-0.1-0.8-0.1h-14.1c-0.7,0-1.3,0.3-1.8,0.7
	c-0.4,0.4-0.7,1.1-0.7,1.8v9.1h-0.4c-2.3,0-4.1,1.9-4.1,4.1v3.7v8.3h4.5v5.4c0,0.7,0.3,1.3,0.7,1.8c0.4,0.4,1.1,0.7,1.8,0.7H332
	c0.7,0,1.3-0.3,1.8-0.7c0.4-0.4,0.7-1.1,0.7-1.8v-5.4h5V319v-3.7C339.5,313.1,337.6,311.2,335.3,311.2z M328.3,302.4L328.3,302.4
	c0.2,0.1,0.4,0.2,0.4,0.3l2.8,2.8l0,0c0.1,0.1,0.2,0.2,0.3,0.4h-3.5V302.4L328.3,302.4z M313.4,302.1h12.8v3.7v1.7v0.4h5.8v3.3
	h-18.6V302.1L313.4,302.1z M332,332.7h-18.6v-5.4v-5H332v5V332.7z M336.1,315.8c-0.6,0-1.1-0.5-1.1-1.1s0.5-1.1,1.1-1.1
	s1.1,0.5,1.1,1.1S336.7,315.8,336.1,315.8z"/>
<circle id="circle4736_1_" fill="#2D96CD" cx="705.4" cy="244.3" r="3.4"/>
<circle id="circle4738_1_" fill="#2D96CD" cx="716.1" cy="244.3" r="3.4"/>
<circle id="circle4740_1_" fill="#2D96CD" cx="726.9" cy="244.3" r="3.4"/>
<polygon id="polygon4544_1_" fill="#24A3DD" points="775.3,235 766.5,243.8 757.6,235 756,236.6 764.9,245.5 756.1,254.2 
	757.7,255.9 766.5,247.1 775.3,255.9 776.9,254.2 768.1,245.5 776.9,236.6 "/>
<g>
	<g>
		<g>
			<g>
				<g>
					<g>
						<g>
							<g>
								<g>
									<g>
										<g>
											<g>
												<g>
													<g>
														<g>
															<defs>
																<polygon id="SVGID_10_" points="371.9,329.5 373.3,321 367.2,315 375.7,313.8 379.5,306 383.4,313.8 391.9,315 
																	385.7,321 387.2,329.5 379.5,325.5 																"/>
															</defs>
															<clipPath id="SVGID_12_">
																<use xlink:href="#SVGID_10_"  overflow="visible"/>
															</clipPath>
															<polygon id="polygon3271_1_" clip-path="url(#SVGID_12_)" fill="#B3B3B3" points="383.4,313.8 391.9,315 385.7,321 
																387.2,329.5 379.5,325.5 371.9,329.5 373.3,321 367.2,315 375.7,313.8 379.5,306 															"/>
														</g>
													</g>
												</g>
											</g>
										</g>
									</g>
								</g>
							</g>
						</g>
					</g>
				</g>
			</g>
		</g>
	</g>
</g>
<path id="path4484_1_" opacity="0.6" enable-background="new    " d="M437,326.1l-0.1-0.4c-0.3-1-1.4-2-2.4-2.3l-3.7-1
	c-1-0.3-2.4,0.1-3.2,0.8l-1.3,1.3c-4.9-1.3-8.7-5.1-10-10l1.3-1.3c0.7-0.7,1.1-2.2,0.8-3.2l-1-3.7c-0.3-1-1.3-2.1-2.3-2.4l-0.4-0.1
	c-1-0.3-2.4,0-3.1,0.7l-2,2c-0.4,0.4-0.6,1.4-0.6,1.4c-0.1,6.4,2.4,12.5,6.9,17s10.6,7,17,6.9c0,0,1.1-0.2,1.4-0.6l2-2
	C437,328.5,437.3,327.1,437,326.1"/>
<rect id="rect4538_1_" x="395.4" y="243.1" fill="#24A3DD" width="27.3" height="2.3"/>
<polygon id="polygon4544_2_" fill="#24A3DD" points="390,243.2 377.5,243.2 377.5,230.7 375.2,230.7 375.2,243.2 362.8,243.2 
	362.8,245.5 375.2,245.5 375.2,257.9 377.5,257.9 377.5,245.5 390,245.5 "/>
<polygon id="polygon4530_1_" fill="none" stroke="#FFFFFF" stroke-miterlimit="10" points="276.3,629.9 276.3,608.6 290.5,619.3 "/>
<path id="path4552_1_" fill="#24A3DD" d="M660,15.9c-13.8,0-25,11.2-25,25s11.2,25,25,25s25-11.2,25-25S673.8,15.9,660,15.9 M660,65
	c-13.3,0-24.1-10.8-24.1-24.1s10.8-24.1,24.1-24.1s24.1,10.8,24.1,24.1S673.3,65,660,65"/>
<path id="path4552_2_" fill="#FFFFFF" d="M160,15.9c-13.8,0-25,11.2-25,25s11.2,25,25,25s25-11.2,25-25S173.8,15.9,160,15.9 M160,65
	c-13.3,0-24.1-10.8-24.1-24.1s10.8-24.1,24.1-24.1s24.1,10.8,24.1,24.1S173.3,65,160,65"/>
<path id="path4552_3_" fill="#24A3DD" d="M1074.3,96.4c-13.8,0-25,11.2-25,25s11.2,25,25,25c13.8,0,25-11.2,25-25
	S1088.1,96.4,1074.3,96.4 M1074.3,145.5c-13.3,0-24.1-10.8-24.1-24.1s10.8-24.1,24.1-24.1c13.3,0,24.1,10.8,24.1,24.1
	C1098.4,134.7,1087.6,145.5,1074.3,145.5"/>
<path id="path4552_4_" fill="#24A3DD" d="M1016.7,95.9c-13.8,0-25,11.2-25,25s11.2,25,25,25s25-11.2,25-25S1030.5,95.9,1016.7,95.9
	 M1016.7,145c-13.3,0-24.1-10.8-24.1-24.1c0-13.3,10.8-24.1,24.1-24.1s24.1,10.8,24.1,24.1C1040.8,134.2,1030,145,1016.7,145"/>
<path id="path4552_5_" fill="#24A3DD" d="M961.4,95.9c-13.8,0-25,11.2-25,25s11.2,25,25,25c13.8,0,25-11.2,25-25
	C986.4,107.2,975.2,95.9,961.4,95.9 M961.4,145c-13.3,0-24.1-10.8-24.1-24.1s10.8-24.1,24.1-24.1c13.3,0,24.1,10.8,24.1,24.1
	C985.5,134.3,974.7,145,961.4,145"/>
<path id="path4552_6_" fill="#24A3DD" d="M903.4,95.9c-13.8,0-25,11.2-25,25s11.2,25,25,25c13.8,0,25-11.2,25-25
	S917.2,95.9,903.4,95.9 M903.4,145c-13.3,0-24.1-10.8-24.1-24.1s10.8-24.1,24.1-24.1c13.3,0,24.1,10.8,24.1,24.1
	C927.5,134.2,916.7,145,903.4,145"/>
<path id="path4552_7_" fill="#FFFFFF" d="M851.1,95.9c-13.8,0-25,11.2-25,25s11.2,25,25,25c13.8,0,25-11.2,25-25
	S864.9,95.9,851.1,95.9 M851.1,145c-13.3,0-24.1-10.8-24.1-24.1s10.8-24.1,24.1-24.1c13.3,0,24.1,10.8,24.1,24.1
	C875.2,134.2,864.4,145,851.1,145"/>
<path id="path4552_8_" fill="#FFFFFF" d="M735.7,95.9c-13.8,0-25,11.2-25,25s11.2,25,25,25s25-11.2,25-25S749.5,95.9,735.7,95.9
	 M735.7,145c-13.3,0-24.1-10.8-24.1-24.1c0-13.3,10.8-24.1,24.1-24.1s24.1,10.8,24.1,24.1C759.8,134.2,749,145,735.7,145"/>
<path id="path4552_9_" fill="#FFFFFF" d="M620.8,95.9c-13.8,0-25,11.2-25,25s11.2,25,25,25s25-11.2,25-25S634.6,95.9,620.8,95.9
	 M620.8,145c-13.3,0-24.1-10.8-24.1-24.1s10.8-24.1,24.1-24.1s24.1,10.8,24.1,24.1C644.9,134.2,634.1,145,620.8,145"/>
<path id="path4552_10_" fill="#24A3DD" d="M505.6,95.9c-13.8,0-25,11.2-25,25s11.2,25,25,25c13.8,0,25-11.2,25-25
	S519.4,95.9,505.6,95.9 M505.6,145c-13.3,0-24.1-10.8-24.1-24.1s10.8-24.1,24.1-24.1s24.1,10.8,24.1,24.1
	C529.7,134.2,518.9,145,505.6,145"/>
<path id="path4552_11_" fill="#FFFFFF" d="M447.9,95.9c-13.8,0-25,11.2-25,25s11.2,25,25,25c13.8,0,25-11.2,25-25
	S461.7,95.9,447.9,95.9 M447.9,145c-13.3,0-24.1-10.8-24.1-24.1s10.8-24.1,24.1-24.1c13.3,0,24.1,10.8,24.1,24.1
	C472,134.2,461.2,145,447.9,145"/>
<path id="path4552_12_" fill="#24A3DD" d="M390.4,95.9c-13.8,0-25,11.2-25,25s11.2,25,25,25c13.8,0,25-11.2,25-25
	S404.2,95.9,390.4,95.9 M390.4,145c-13.3,0-24.1-10.8-24.1-24.1s10.8-24.1,24.1-24.1c13.3,0,24.1,10.8,24.1,24.1
	C414.5,134.2,403.7,145,390.4,145"/>
<path id="path4552_13_" fill="#24A3DD" d="M275.2,95.9c-13.8,0-25,11.2-25,25s11.2,25,25,25c13.8,0,25-11.2,25-25
	S289,95.9,275.2,95.9 M275.2,145c-13.3,0-24.1-10.8-24.1-24.1s10.8-24.1,24.1-24.1c13.3,0,24.1,10.8,24.1,24.1
	C299.3,134.2,288.5,145,275.2,145"/>
<path id="path4552_14_" fill="#FFFFFF" d="M270.1,159.4c-13.4,0-24.3,10.9-24.3,24.3c0,13.4,10.9,24.3,24.3,24.3
	s24.3-10.9,24.3-24.3C294.5,170.3,283.6,159.4,270.1,159.4 M270.1,207.2c-12.9,0-23.4-10.5-23.4-23.4s10.5-23.4,23.4-23.4
	s23.4,10.5,23.4,23.4S283.1,207.2,270.1,207.2"/>
<path id="path4552_15_" fill="#FFFFFF" d="M371,159.4c-13.8,0-25,11.2-25,25s11.2,25,25,25s25-11.2,25-25S384.8,159.4,371,159.4
	 M371,208.5c-13.3,0-24.1-10.8-24.1-24.1s10.8-24.1,24.1-24.1s24.1,10.8,24.1,24.1S384.3,208.5,371,208.5"/>
<path id="path4552_16_" fill="#24A3DD" d="M716.1,158.9c-13.8,0-25,11.2-25,25s11.2,25,25,25c13.8,0,25-11.2,25-25
	S729.9,158.9,716.1,158.9 M716.1,208c-13.3,0-24.1-10.8-24.1-24.1s10.8-24.1,24.1-24.1c13.3,0,24.1,10.8,24.1,24.1
	C740.2,197.2,729.4,208,716.1,208"/>
<path id="path4552_17_" fill="#B3B3B3" d="M820.9,158.9c-13.8,0-25,11.2-25,25s11.2,25,25,25c13.8,0,25-11.2,25-25
	S834.7,158.9,820.9,158.9 M820.9,208c-13.3,0-24.1-10.8-24.1-24.1s10.8-24.1,24.1-24.1c13.3,0,24.1,10.8,24.1,24.1
	S834.2,208,820.9,208"/>
<path id="path4552_18_" fill="#FFFFFF" d="M281.1,594c-13.8,0-25,11.2-25,25s11.2,25,25,25s25-11.2,25-25S294.9,594,281.1,594
	 M281.1,643.1c-13.3,0-24.1-10.8-24.1-24.1s10.8-24.1,24.1-24.1s24.1,10.8,24.1,24.1S294.4,643.1,281.1,643.1"/>
<circle fill="#2E95CC" cx="796.3" cy="521" r="25"/>
<g>
	<path fill="#24A3DD" d="M354.3,608.5L354.3,608.5c0-0.1,0-0.2,0-0.2s0,0,0-0.1l-0.1-0.1c0,0,0,0-0.1-0.1l0,0c0,0-0.1,0-0.1-0.1
		c0,0,0,0-0.1,0l0,0h-0.1h-0.1h-0.1h-0.1h-0.1c0,0-0.1,0-0.1,0.1l0,0l-16.1,14.8c-0.2,0.2-0.3,0.5-0.1,0.7c0.1,0.2,0.3,0.3,0.5,0.3
		c0.1,0,0.1,0,0.2,0l8.5-2.3l2.3,8.5c0.1,0.3,0.3,0.4,0.6,0.4l0,0c0.3,0,0.5-0.2,0.6-0.5L354.3,608.5L354.3,608.5
		C354.3,608.6,354.3,608.6,354.3,608.5z"/>
	<g>
		<path fill="#24A3DD" d="M346.7,595.2c13.2,0,24,10.8,24,24s-10.8,24-24,24c-13.2,0-24-10.8-24-24S333.5,595.2,346.7,595.2
			 M346.7,594.2c-13.8,0-25,11.2-25,25c0,13.8,11.2,25,25,25c13.8,0,25-11.2,25-25C371.7,605.4,360.5,594.2,346.7,594.2L346.7,594.2
			z"/>
	</g>
</g>
<g>
	<g>
		<g>
			<path id="SVGID_15_" fill="#FFFFFF" d="M785.5,523.7c1,0,1.9-0.9,1.9-2c0-1.1-0.8-2-1.9-2c-1,0-1.8,0.9-1.8,2
				C783.7,522.8,784.5,523.7,785.5,523.7 M807.7,524.9l-1.7-1.8l-1.7,1.8l-1.6-1.8l-1.7,1.8l-1.6-1.8l-2.2,2.3h-2.7
				c-1.2,2.2-3.4,3.7-6,3.7c-3.8,0-6.9-3.3-6.9-7.3s3.1-7.3,6.9-7.3c2.5,0,4.7,1.5,5.9,3.7h13.9l2.3,2.5c0.4,0.4,0.3,0.7,0,1.1
				L807.7,524.9"/>
		</g>
	</g>
</g>
<polygon id="polygon4574_1_" fill="#2E97D0" points="203.8,621.2 205,622.5 220.9,606.5 204.7,590.3 203.5,591.5 218.4,606.5 "/>
<polygon id="polygon4578_1_" fill="#2F96CD" points="152.1,592.3 150.9,591.1 135,607 151.2,623.3 152.4,622 137.5,607 "/>
<g id="Layer_1_1_" xmlns:cc="http://creativecommons.org/ns#" xmlns:dc="http://purl.org/dc/elements/1.1/" xmlns:svg="http://www.w3.org/2000/svg" xmlns:rdf="http://www.w3.org/1999/02/22-rdf-syntax-ns#" xmlns:inkscape="http://www.inkscape.org/namespaces/inkscape" xmlns:sodipodi="http://sodipodi.sourceforge.net/DTD/sodipodi-0.dtd" sodipodi:docname="icons.svg" inkscape:version="0.48.5 r10040">
	<g>
		<polygon id="SVGID_17_" fill="#FFFFFF" points="873.4,515.2 875.1,516.8 866.6,525.4 858,516.8 859.7,515.2 866.6,522 		"/>
	</g>
</g>
<circle fill="#FFFFFF" stroke="#24A3DD" stroke-miterlimit="10" cx="471.9" cy="320.9" r="9.9"/>
<circle fill="#FFFFFF" stroke="#B3B3B3" stroke-miterlimit="10" cx="494.1" cy="320.9" r="9.9"/>
<circle fill="#FFFFFF" stroke="#B3B3B3" stroke-miterlimit="10" cx="526.9" cy="320.7" r="12.3"/>
<circle fill="#2F96CD" cx="553.8" cy="320.7" r="12.3"/>
<polygon fill="#2F96CD" points="584.5,316.7 576.9,325.5 592.3,325.5 "/>
<polygon fill="#2F96CD" points="600.6,325.5 608.3,316.7 592.9,316.7 "/>
<circle fill="#B3B3B3" cx="629.7" cy="320.7" r="12.3"/>
<path fill="#FFFFFF" stroke="#FF0000" stroke-miterlimit="10" d="M743.1,302.6c0,0-0.7-0.8-1.6-0.8s-1.6,0.8-1.6,0.8
	s-12.3,21-13.8,23.9c0,2.5,1.5,3.4,1.5,3.4h13.8h13.8c0,0,1.6-0.9,1.6-3.4C755.3,323.6,743.1,302.6,743.1,302.6z"/>
<circle fill="#FF0000" stroke="#FFFFFF" stroke-miterlimit="10" cx="741.5" cy="324.4" r="2"/>
<path fill="#FF0000" d="M741.5,308.2c0,0-1.8,0.2-1.6,2.7c0.2,2.5,1.6,9.4,1.6,9.4s1.3-6.9,1.6-9.4
	C743.4,308.4,741.5,308.2,741.5,308.2z"/>
<circle fill="#2E97D0" cx="472" cy="317.2" r="0.9"/>
<polyline fill="none" stroke="#FFFFFF" stroke-miterlimit="10" points="546.9,321.7 550.4,325.5 560.8,315 "/>
<line fill="none" stroke="#FFFFFF" stroke-miterlimit="10" x1="625.3" y1="315.9" x2="634.5" y2="325.5"/>
<line fill="none" stroke="#FFFFFF" stroke-miterlimit="10" x1="624.8" y1="325.4" x2="634.5" y2="316.1"/>
<polyline fill="#FFFFFF" stroke="#626466" stroke-miterlimit="10" points="704.7,317.4 700.7,317.4 700.7,325.3 708.6,325.3 
	708.6,321.3 "/>
<path fill="#FFFFFF" stroke="#626466" stroke-miterlimit="10" d="M709.9,315.3"/>
<line fill="none" stroke="#626466" stroke-miterlimit="10" x1="705.5" y1="320.7" x2="710.2" y2="315.8"/>
<line fill="none" stroke="#626466" stroke-miterlimit="10" x1="710" y1="316.1" x2="709.9" y2="318.8"/>
<line fill="none" stroke="#626466" stroke-miterlimit="10" x1="709.9" y1="316" x2="707.3" y2="316.2"/>
<line fill="none" stroke="#24A3DD" stroke-miterlimit="10" x1="471.9" y1="318.8" x2="471.9" y2="325.4"/>
<circle fill="#B3B3B3" cx="494.1" cy="317.2" r="0.9"/>
<line fill="none" stroke="#B3B3B3" stroke-miterlimit="10" x1="494" y1="318.8" x2="494" y2="325.4"/>
<rect x="1105" y="591.4" fill="none" stroke="#2E95CC" stroke-miterlimit="10" width="5.4" height="8"/>
<line fill="none" stroke="#2E95CC" stroke-miterlimit="10" x1="1118.3" y1="584.3" x2="1118.3" y2="605.9"/>
<path fill="none" stroke="#2E95CC" stroke-width="2" stroke-miterlimit="10" d="M1120.9,588.9c0,0,5.5,6.4,0,13"/>
<path fill="none" stroke="#2E95CC" stroke-width="2" stroke-miterlimit="10" d="M1125.3,585.3c0,0,8.2,7.3,0,19.5"/>
<path fill="none" stroke="#2E95CC" stroke-width="2" stroke-miterlimit="10" d="M1129.8,581.7c0,0,9.9,11.2,0,26"/>
<line fill="none" stroke="#2E95CC" stroke-miterlimit="10" x1="1110.4" y1="591.4" x2="1118.2" y2="584.7"/>
<line fill="none" stroke="#2E95CC" stroke-miterlimit="10" x1="1110.4" y1="599.3" x2="1118.2" y2="605.5"/>
<polygon id="polygon4530_2_" fill="none" stroke="#FFFFFF" stroke-width="2" stroke-miterlimit="10" points="975.9,305 975.9,260.2 
	1005.7,282.7 "/>
<path id="path4552_19_" fill="#FFFFFF" d="M986.1,230.3c-28.7,0-52,23.3-52,52s23.3,52,52,52c28.7,0,52-23.3,52-52
	S1014.8,230.3,986.1,230.3 M986.1,332.4c-27.7,0-50.1-22.5-50.1-50.1c0-27.7,22.5-50.1,50.1-50.1c27.7,0,50.1,22.5,50.1,50.1
	C1036.2,309.9,1013.8,332.4,986.1,332.4"/>
<polygon id="polygon4578-1_4_" fill="#656666" points="1124.8,559.3 1133.6,568.2 1124.9,576.8 1125.6,577.5 1135,568.2 
	1125.5,558.5 "/>
<g>
	<path fill="none" stroke="#2D96CD" stroke-miterlimit="10" d="M394.7,618.7h19.4c0.4,0,0.7-0.2,0.9-0.5c0.3-0.3,0.4-0.7,0.4-1.2
		v-5.4c0-0.5-0.1-0.9-0.4-1.2c-0.2-0.3-0.5-0.5-0.9-0.5H408h-7.2h-6.1c-0.4,0-0.7,0.1-0.9,0.5c-0.3,0.3-0.4,0.7-0.4,1.2v5.4
		c0,0.5,0.1,0.9,0.4,1.2S394.4,618.7,394.7,618.7z"/>
</g>
<g>
	<g>
		<g>
			<g>
				<g>
					<g>
						<g>
							<g>
								<g>
									<g>
										<g>
											<g>
												<g>
													<g>
														<g>
															<g>
																<defs>
																	<path id="SVGID_13_" d="M403.8,604.7v-10.8h1.7v10.5l3.6-3.3c0.1-0.1,0.3-0.1,0.4,0l0.5,0.5c0.1,0.1,0.1,0.3,0,0.4
																		l-4.7,4.3c0,0.1,0,0.1-0.1,0.2l-0.5,0.5c-0.1,0.1-0.3,0.1-0.4,0l-5.2-4.9c-0.1-0.1-0.1-0.3,0-0.4l0.5-0.5
																		c0.1-0.1,0.3-0.1,0.4,0L403.8,604.7z"/>
																</defs>
																<clipPath id="SVGID_14_">
																	<use xlink:href="#SVGID_13_"  overflow="visible"/>
																</clipPath>
																<rect x="394" y="588.9" clip-path="url(#SVGID_14_)" fill="#2D96CD" width="21.1" height="23.1"/>
															</g>
														</g>
													</g>
												</g>
											</g>
										</g>
									</g>
								</g>
							</g>
						</g>
					</g>
				</g>
			</g>
		</g>
	</g>
</g>
<g>
	<path fill="none" stroke="#1B394E" stroke-miterlimit="10" d="M424.6,618.9H444c0.4,0,0.7-0.1,0.9-0.5c0.3-0.3,0.4-0.7,0.4-1.2
		v-5.4c0-0.5-0.1-0.9-0.4-1.2c-0.2-0.3-0.5-0.5-0.9-0.5h-6.1h-7.2h-6.1c-0.4,0-0.7,0.1-0.9,0.5c-0.3,0.3-0.4,0.7-0.4,1.2v5.4
		c0,0.5,0.1,0.9,0.4,1.2C423.9,618.8,424.2,618.9,424.6,618.9z"/>
</g>
<g>
	<g>
		<g>
			<path id="SVGID_21_" fill="#1B394E" d="M433.6,605v-10.8h1.7v10.5l3.6-3.3c0.1-0.1,0.3-0.1,0.4,0l0.5,0.5c0.1,0.1,0.1,0.3,0,0.4
				l-4.7,4.3c0,0.1,0,0.1-0.1,0.2l-0.5,0.5c-0.1,0.1-0.3,0.1-0.4,0l-5.2-4.9c-0.1-0.1-0.1-0.3,0-0.4l0.5-0.5c0.1-0.1,0.3-0.1,0.4,0
				L433.6,605z"/>
		</g>
		<g>
			<g>
				<g>
					<g>
						<g>
							<g>
								<g>
									<g>
										<g>
											<g>
												<g>
													<g>
														<g>
															<g>
																<defs>
																	<path id="SVGID_16_" d="M433.6,605v-10.8h1.7v10.5l3.6-3.3c0.1-0.1,0.3-0.1,0.4,0l0.5,0.5c0.1,0.1,0.1,0.3,0,0.4
																		l-4.7,4.3c0,0.1,0,0.1-0.1,0.2l-0.5,0.5c-0.1,0.1-0.3,0.1-0.4,0l-5.2-4.9c-0.1-0.1-0.1-0.3,0-0.4l0.5-0.5
																		c0.1-0.1,0.3-0.1,0.4,0L433.6,605z"/>
																</defs>
																<clipPath id="SVGID_18_">
																	<use xlink:href="#SVGID_16_"  overflow="visible"/>
																</clipPath>
																<rect x="423.9" y="589.2" clip-path="url(#SVGID_18_)" fill="#1B394E" width="21.1" height="23.1"/>
															</g>
														</g>
													</g>
												</g>
											</g>
										</g>
									</g>
								</g>
							</g>
						</g>
					</g>
				</g>
			</g>
		</g>
	</g>
</g>
<g>
	<g opacity="0.4" enable-background="new    ">
		<g>
			<g>
				<g>
					<g>
						<g>
							<g>
								<g>
									<g>
										<g>
											<g>
												<g>
													<g>
														<g>
															<g>
																<defs>
																	<rect id="SVGID_19_" x="454.7" y="594.2" width="35" height="35"/>
																</defs>
																<clipPath id="SVGID_20_">
																	<use xlink:href="#SVGID_19_"  overflow="visible"/>
																</clipPath>
																<rect x="449.7" y="589.2" clip-path="url(#SVGID_20_)" width="45" height="45"/>
															</g>
														</g>
													</g>
												</g>
											</g>
										</g>
									</g>
								</g>
							</g>
						</g>
					</g>
				</g>
			</g>
		</g>
	</g>
</g>
<g>
	<g>
		<g>
			<g>
				<g>
					<g>
						<g>
							<g>
								<g>
									<g>
										<g>
											<g>
												<g>
													<g>
														<defs>
															<path id="SVGID_22_" d="M466.3,620.3l1.9,1.9H463c-1.4,0-1.4-1.3-1.4-1.3v-5.2l2,2l4.6-4.6l2.7,2.6L466.3,620.3z
																 M478.1,603.1l-1.9-1.9h5.2c1.4,0,1.4,1.3,1.4,1.3v5.2l-2-2l-4.6,4.6l-2.7-2.6L478.1,603.1z"/>
														</defs>
														<clipPath id="SVGID_23_">
															<use xlink:href="#SVGID_22_"  overflow="visible"/>
														</clipPath>
														<rect x="456.7" y="596.2" clip-path="url(#SVGID_23_)" fill="#FFFFFF" width="31" height="31"/>
													</g>
												</g>
											</g>
										</g>
									</g>
								</g>
							</g>
						</g>
					</g>
				</g>
			</g>
		</g>
	</g>
</g>
<circle opacity="0.15" stroke="#FFFFFF" stroke-width="0.5" stroke-miterlimit="10" enable-background="new    " cx="537.6" cy="629.5" r="34.3"/>
<path fill="#FFFFFF" d="M534,640.9c0,0-18.5-7.7,2-10.7c0,3.9,0,3.9,0,3.9l15-8l-15-7.9v4c0,0-8.5-1-13,7c0,0-0.8,2.7,0,5.9
	C523.8,638.3,531,640.3,534,640.9z"/>
<circle opacity="0.15" enable-background="new    " cx="619.8" cy="629.6" r="34.3"/>
<path fill="#FFFFFF" d="M619.8,594c-19.6,0-35.6,15.9-35.6,35.6s15.9,35.6,35.6,35.6s35.6-15.9,35.6-35.6S639.5,594,619.8,594z
	 M619.8,663.9c-19,0-34.3-15.4-34.3-34.3c0-18.9,15.4-34.3,34.3-34.3s34.3,15.4,34.3,34.3C654.1,648.5,638.8,663.9,619.8,663.9z"/>
<path fill="#FFFFFF" d="M623.4,618.1c0,0,18.5,7.7-2,10.7c0-3.9,0-3.9,0-3.9l-15,8l15,7.9v-4c0,0,8.5,1,13-7c0,0,0.8-2.7,0-5.9
	C633.6,620.7,626.4,618.8,623.4,618.1z"/>
<path fill="#FFFFFF" d="M694.1,593.6c-11.8,0-21.4,9.6-21.4,21.4s9.6,21.4,21.4,21.4c11.8,0,21.4-9.6,21.4-21.4
	S705.9,593.6,694.1,593.6z M689.2,625.2l-7.3-7.2l2.1-2.1l5.4,5.4l15.3-15.3l1.9,1.9L689.2,625.2z"/>
<g id="Layer_1_2_" xmlns:cc="http://creativecommons.org/ns#" xmlns:dc="http://purl.org/dc/elements/1.1/" xmlns:svg="http://www.w3.org/2000/svg" xmlns:rdf="http://www.w3.org/1999/02/22-rdf-syntax-ns#" xmlns:inkscape="http://www.inkscape.org/namespaces/inkscape" xmlns:sodipodi="http://sodipodi.sourceforge.net/DTD/sodipodi-0.dtd" sodipodi:docname="icons.svg" inkscape:version="0.48.5 r10040">
	<g>
		<polygon id="SVGID_1_" fill="#2E95CC" points="905.4,515.2 907,516.8 898.5,525.4 890,516.8 891.6,515.2 898.5,522 		"/>
	</g>
</g>
<path fill="#FFFFFF" d="M537.6,594c-19.6,0-35.6,15.9-35.6,35.6s15.9,35.6,35.6,35.6c19.7,0,35.6-15.9,35.6-35.6
	S557.2,594,537.6,594z M537.6,663.9c-19,0-34.3-15.4-34.3-34.3c0-18.9,15.4-34.3,34.3-34.3c19,0,34.3,15.4,34.3,34.3
	C571.9,648.5,556.5,663.9,537.6,663.9z"/>
<g>
	<g>
		<path id="SVGID_2_" fill="#FFFFFF" d="M774.4,313.8v15.4h17v-15.4h-6v-0.9h7v17.2h-19v-17.2h7v0.9H774.4z M782.4,308v13.6h1v-13.8
			l3.3,2.9c0.1,0.1,0.2,0.1,0.3,0l0.4-0.4c0.1-0.1,0.1-0.2,0-0.3l-3.8-3.4c0,0,0-0.1-0.1-0.1l-0.4-0.4c-0.1-0.1-0.2-0.1-0.3,0
			l-4.2,3.8c-0.1,0.1-0.1,0.2,0,0.3l0.4,0.4c0.1,0.1,0.2,0.1,0.3,0L782.4,308z"/>
	</g>
</g>
<g>
	<path fill="none" stroke="#FFFFFF" stroke-miterlimit="10" d="M731.8,618.3h19.4c0.4,0,0.7-0.2,0.9-0.5c0.3-0.3,0.4-0.7,0.4-1.2
		v-5.4c0-0.5-0.1-0.9-0.4-1.2c-0.2-0.3-0.5-0.5-0.9-0.5h-6.1h-7.2h-6.1c-0.4,0-0.7,0.2-0.9,0.5c-0.3,0.3-0.4,0.7-0.4,1.2v5.4
		c0,0.5,0.1,0.9,0.4,1.2C731.1,618.1,731.4,618.3,731.8,618.3z"/>
</g>
<g>
	<g>
		<g>
			<g>
				<g>
					<path id="SVGID_28_" fill="#FFFFFF" d="M740.8,604.3v-10.8h1.7V604l3.6-3.3c0.1-0.1,0.3-0.1,0.4,0l0.5,0.5
						c0.1,0.1,0.1,0.3,0,0.4l-4.7,4.3c0,0.1,0,0.1-0.1,0.2l-0.5,0.5c-0.1,0.1-0.3,0.1-0.4,0l-5.2-4.9c-0.1-0.1-0.1-0.3,0-0.4
						l0.5-0.5c0.1-0.1,0.3-0.1,0.4,0L740.8,604.3z"/>
				</g>
				<g>
					<g>
						<g>
							<g>
								<g>
									<g>
										<g>
											<g>
												<g>
													<g>
														<g>
															<g>
																<defs>
																	<path id="SVGID_24_" d="M740.8,604.3v-10.8h1.7V604l3.6-3.3c0.1-0.1,0.3-0.1,0.4,0l0.5,0.5c0.1,0.1,0.1,0.3,0,0.4
																		l-4.7,4.3c0,0.1,0,0.1-0.1,0.2l-0.5,0.5c-0.1,0.1-0.3,0.1-0.4,0l-5.2-4.9c-0.1-0.1-0.1-0.3,0-0.4l0.5-0.5
																		c0.1-0.1,0.3-0.1,0.4,0L740.8,604.3z"/>
																</defs>
																<clipPath id="SVGID_25_">
																	<use xlink:href="#SVGID_24_"  overflow="visible"/>
																</clipPath>
																<rect x="731.1" y="588.5" clip-path="url(#SVGID_25_)" fill="#FFFFFF" width="21.1" height="23.1"/>
															</g>
														</g>
													</g>
												</g>
											</g>
										</g>
									</g>
								</g>
							</g>
						</g>
					</g>
				</g>
			</g>
		</g>
	</g>
</g>
<circle fill="none" stroke="#FFFFFF" stroke-width="1.5" stroke-miterlimit="10" cx="779.3" cy="605.1" r="11.3"/>
<line fill="none" stroke="#FFFFFF" stroke-width="1.5" stroke-miterlimit="10" x1="786.9" y1="613.5" x2="795.5" y2="621.5"/>
<polygon id="polygon4544_3_" fill="#FFFFFF" points="785.1,604.6 779.6,604.6 779.6,599.2 778.6,599.2 778.6,604.6 773.2,604.6 
	773.2,605.6 778.6,605.6 778.6,611 779.6,611 779.6,605.6 785.1,605.6 "/>
<circle fill="none" stroke="#FFFFFF" stroke-width="1.5" stroke-miterlimit="10" cx="811.3" cy="605.1" r="11.3"/>
<line fill="none" stroke="#FFFFFF" stroke-width="1.5" stroke-miterlimit="10" x1="818.9" y1="613.5" x2="827.5" y2="621.5"/>
<rect id="rect4538_2_" x="805.2" y="604.7" fill="#FFFFFF" width="11.9" height="0.9"/>
<g id="Layer_3">
	<path id="path4550_1_" fill="#FFFFFF" stroke="#FFFFFF" stroke-width="2.5" stroke-miterlimit="10" d="M957.8,588.5
		c-14.9,0-27.1,12.1-27.1,27.1c0,15,12.1,27.1,27.1,27.1s27.1-12.1,27.1-27.1C984.9,600.6,972.7,588.5,957.8,588.5 M957.8,641.7
		c-14.4,0-26.1-11.7-26.1-26.1c0-14.4,11.7-26.1,26.1-26.1c14.4,0,26.1,11.7,26.1,26.1C983.9,630,972.2,641.7,957.8,641.7"/>
	
		<g id="Layer_1_3_" xmlns:cc="http://creativecommons.org/ns#" xmlns:dc="http://purl.org/dc/elements/1.1/" xmlns:svg="http://www.w3.org/2000/svg" xmlns:rdf="http://www.w3.org/1999/02/22-rdf-syntax-ns#" xmlns:inkscape="http://www.inkscape.org/namespaces/inkscape" xmlns:sodipodi="http://sodipodi.sourceforge.net/DTD/sodipodi-0.dtd" sodipodi:docname="icons.svg" inkscape:version="0.48.5 r10040">
		<g>
			<polygon id="SVGID_3_" fill="#FFFFFF" points="952.8,606.5 954.9,604.4 966.1,615.6 954.9,626.8 952.8,624.6 961.8,615.6 			"/>
		</g>
	</g>
</g>
<g id="Layer_3_1_">
	<path id="path4550_2_" fill="#FFFFFF" stroke="#FFFFFF" stroke-width="2.5" stroke-miterlimit="10" d="M1020.3,588.5
		c-14.9,0-27.1,12.1-27.1,27.1c0,15,12.1,27.1,27.1,27.1c15,0,27.1-12.1,27.1-27.1C1047.4,600.6,1035.2,588.5,1020.3,588.5
		 M1020.3,641.7c-14.4,0-26.1-11.7-26.1-26.1c0-14.4,11.7-26.1,26.1-26.1s26.1,11.7,26.1,26.1C1046.4,630,1034.7,641.7,1020.3,641.7
		"/>
	
		<g id="Layer_1_4_" xmlns:cc="http://creativecommons.org/ns#" xmlns:dc="http://purl.org/dc/elements/1.1/" xmlns:svg="http://www.w3.org/2000/svg" xmlns:rdf="http://www.w3.org/1999/02/22-rdf-syntax-ns#" xmlns:inkscape="http://www.inkscape.org/namespaces/inkscape" xmlns:sodipodi="http://sodipodi.sourceforge.net/DTD/sodipodi-0.dtd" sodipodi:docname="icons.svg" inkscape:version="0.48.5 r10040">
		<g>
			<polygon id="SVGID_4_" fill="#FFFFFF" points="1015.3,606.5 1017.4,604.4 1028.6,615.6 1017.4,626.8 1015.3,624.6 1024.3,615.6 
							"/>
		</g>
	</g>
</g>
<path fill="#FFFFFF" d="M162.1,641.7c-15,0-27.1,12.1-27.1,27.1s12.1,27.1,27.1,27.1s27.1-12.1,27.1-27.1S177,641.7,162.1,641.7z
	 M159.2,680l-2.2-2.2l9-9l-9-9l2.2-2.2l11.2,11.2L159.2,680z"/>
<g>
	<g>
		<path fill="#2E95CC" d="M160,707.9c13.2,0,23.9,10.7,23.9,23.9s-10.7,23.9-23.9,23.9s-24-10.7-24-23.9S146.8,707.9,160,707.9
			 M160,706.9c-13.8,0-25,11.2-25,25c0,13.8,11.2,25,25,25s25-11.2,25-25C184.9,718.1,173.8,706.9,160,706.9L160,706.9z"/>
	</g>
	<g>
		<path fill="#2E95CC" d="M174.9,725.3c0.8-0.1,1.5-0.3,1.5-0.9c0-0.6-0.4-0.9-0.9-1c-0.5-0.1-2-0.4-2.1,0.2c-0.1,0.6-0.1,1,0.1,1.3
			l-0.5,0.5c0,0-0.3-0.3-0.4-0.7c-0.1-0.4-0.7-2.3-2-4.1c-1-1.5-1.4-1.6-1.7-1.6c-0.3,0-2.3-0.4-7.9-0.4s-7.6,0.4-7.9,0.4
			c-0.3,0-0.6,0.1-1.7,1.6c-1.3,1.9-1.9,3.7-2,4.1c-0.1,0.4-0.4,0.7-0.4,0.7l-0.5-0.5c0.1-0.3,0.1-0.7,0.1-1.3
			c-0.1-0.6-1.5-0.3-2.1-0.2c-0.5,0.1-0.9,0.4-0.9,1c0,0.6,0.7,0.7,1.5,0.9c0.6,0.1,0.9,0.5,1,0.7c0.9-0.3,1.9-0.5,3-0.5
			c1.4,0,2.8,0.3,4,1c2,1.1,3.5,2.9,4.2,5.1c0.4,1.4,0.5,2.9,0.2,4.3c0.2,0,0.3,0,0.5,0.1l5,2.6c1.5,0,2.9,0,3.1,0
			c0,0,0.7,0.2,1.6,0.1c0.2,0,0.8-0.2,1.5-0.3v1.7c0,0.4,0.4,0.8,0.8,0.8h2.6c0.4,0,0.8-0.4,0.8-0.8v-2.8c0,0,0.2-5.9,0.2-6.5
			c0-0.6,0-1.5-0.3-1.9c-0.3-0.4-0.9-1.2-0.9-1.2s-0.2-0.9-0.7-1.5C173.9,726.2,174.1,725.4,174.9,725.3z M173.8,730.1
			c0,0-0.3,0.6-4.6,0.9c0,0-1-0.7-1.2-0.9c-0.2-0.2-0.1-0.2,0.1-0.3c0.2-0.1,4.2-1,5.3-1.7C173.4,728.1,174.2,728.7,173.8,730.1z"/>
		<path fill="#2E95CC" d="M158.8,731.8c-0.6-2-2-3.6-3.8-4.6c-1.1-0.6-2.4-0.9-3.6-0.9c-2.9,0-5.6,1.6-6.9,4.2c-1,1.9-1.2,4-0.6,6
			c0.6,2,2,3.6,3.8,4.6c1.1,0.6,2.4,0.9,3.6,0.9c2.5,0,4.7-1.1,6.2-3l1.3-2.5C159.3,735,159.3,733.3,158.8,731.8z M157.1,737.2
			c-1.1,2.2-3.4,3.5-5.8,3.5c-1.1,0-2.1-0.3-3.1-0.8c-1.6-0.8-2.7-2.2-3.2-3.9s-0.4-3.5,0.5-5c1.1-2.2,3.4-3.5,5.8-3.5
			c1.1,0,2.1,0.3,3.1,0.8c1.6,0.8,2.7,2.2,3.2,3.9S158,735.6,157.1,737.2z"/>
		<path fill="#2E95CC" d="M153.9,729.2c-2.7-1.4-6-0.4-7.5,2.3c-1.1,2.1-0.7,4.6,0.8,6.2c-0.6-1.4-0.5-3.1,0.3-4.6
			c1.4-2.7,4.8-3.7,7.5-2.3c0.6,0.3,1.1,0.7,1.6,1.2C156,730.9,155.1,729.9,153.9,729.2z"/>
		<path fill="#2E95CC" d="M169.8,741.7l-9.8-5.2c-0.1-0.1-0.2-0.1-0.3,0c-0.1,0-0.2,0.1-0.3,0.2l-1.3,2.6c-0.1,0.2,0,0.5,0.2,0.6
			l9.8,5.2c0.1,0,0.1,0.1,0.2,0.1c0.2,0,0.3-0.1,0.4-0.2l1.4-2.6c0.1-0.1,0.1-0.2,0-0.3C170,741.9,169.9,741.8,169.8,741.7z"/>
	</g>
</g>
<path id="path4552_20_" fill="#24A3DD" d="M215.9,706.8c-13.8,0-25,11.2-25,25s11.2,25,25,25c13.8,0,25-11.2,25-25
	S229.7,706.8,215.9,706.8 M215.9,755.9c-13.3,0-24.1-10.8-24.1-24.1s10.8-24.1,24.1-24.1c13.3,0,24.1,10.8,24.1,24.1
	S229.2,755.9,215.9,755.9"/>
<g>
	<path fill="#2E95CC" d="M206.3,743.6c0.7,0,1.3-0.3,1.8-0.7l12.4-12.4l0.4,0.1c0.7,0.3,1.5,0.4,2.3,0.4c1.8,0,3.5-0.7,4.8-2
		c1.6-1.6,2.3-4,1.8-6.2l-4.1,4.1h-3.1l-2.2-2.2v-3.1l4.1-4.1c-0.5-0.1-0.9-0.1-1.4-0.1c-1.8,0-3.5,0.7-4.8,2
		c-1.8,1.8-2.5,4.6-1.6,7.1l0.1,0.3l-12.4,12.5c-0.5,0.5-0.7,1.1-0.7,1.8c0,0.7,0.3,1.3,0.7,1.8C205,743.3,205.6,743.6,206.3,743.6z
		"/>
</g>
<polygon fill="#2E95CC" points="212.6,740.4 221.4,731.6 226.8,731.6 229.4,734.1 218.3,745.8 "/>
<polygon fill="#2E95CC" points="215.2,726.6 206.9,734.9 204.3,732.4 202.1,724.7 207.6,718.9 215.4,720.9 "/>
<circle fill="#FFFFFF" cx="207.1" cy="723.5" r="1.2"/>
<rect x="157" y="765.8" fill="#616161" width="3" height="3"/>
<g enable-background="new    ">
	<g>
		<g>
			<g>
				<g>
					<g>
						<g>
							<g>
								<g>
									<g>
										<g>
											<g>
												<defs>
													<path id="SVGID_26_" d="M296.4,720.8L296.4,720.8l-4.5-3.9v2.3c0,0.8-0.8,1.6-1.5,1.6h-0.8h-8.3h-0.8
														c-0.8,0-1.5-0.8-1.5-1.6v-0.8v-9.3v-0.8c0-0.8,0.8-1.6,1.5-1.6h0.8h8.3h0.8c0.8,0,1.5,0.8,1.5,1.6v3.1l4.5-4.7
														c0,0,0.8,0.8,0.8,1.6V720L296.4,720.8z"/>
												</defs>
												<clipPath id="SVGID_27_">
													<use xlink:href="#SVGID_26_"  overflow="visible"/>
												</clipPath>
												<g clip-path="url(#SVGID_27_)">
													<rect x="274.1" y="701.8" fill="#2D96CD" width="28" height="24"/>
												</g>
											</g>
										</g>
									</g>
								</g>
							</g>
						</g>
					</g>
				</g>
			</g>
		</g>
	</g>
</g>
<g enable-background="new    ">
	<g>
		<g>
			<g>
				<g>
					<g>
						<g>
							<g>
								<g>
									<g>
										<g>
											<g>
												<defs>
													<path id="SVGID_29_" d="M256.1,714.8c0.1-0.2,0.4-0.2,0.6-0.1l2.2,1.4c0.2,0.1,0.4,0.1,0.6-0.1l2.7-3.5
														c0.1-0.2,0.3-0.2,0.4,0l3.3,6.7c0.1,0.2,0,0.4-0.2,0.4h-12.9c-0.2,0-0.3-0.1-0.1-0.3L256.1,714.8z M256,711
														c0,0.7-0.5,1.3-1.2,1.3c-0.6,0-1.2-0.6-1.2-1.3s0.5-1.3,1.2-1.3C255.5,709.8,256,710.3,256,711z M267,720.5h-15.3
														v-12.1H267V720.5z M267.3,706.8h-16.1c-0.5,0-1,0.5-1,1v12.8c0,0.6,0.4,1,1,1h16.1c0.5,0,1-0.5,1-1v-12.7
														C268.3,707.3,267.9,706.8,267.3,706.8z"/>
												</defs>
												<clipPath id="SVGID_30_">
													<use xlink:href="#SVGID_29_"  overflow="visible"/>
												</clipPath>
												<g clip-path="url(#SVGID_30_)">
													<rect x="245.3" y="701.8" fill="#2D96CD" width="28" height="24.9"/>
												</g>
											</g>
										</g>
									</g>
								</g>
							</g>
						</g>
					</g>
				</g>
			</g>
		</g>
	</g>
</g>
<g enable-background="new    ">
	<g>
		<g>
			<g>
				<g>
					<g>
						<g>
							<g>
								<g>
									<g>
										<g>
											<defs>
												<rect id="SVGID_31_" x="305.8" y="706.6" width="25" height="22"/>
											</defs>
											<clipPath id="SVGID_32_">
												<use xlink:href="#SVGID_31_"  overflow="visible"/>
											</clipPath>
											
												<line clip-path="url(#SVGID_32_)" fill="none" stroke="#979797" stroke-linecap="square" stroke-miterlimit="10" x1="307.8" y1="706.6" x2="329.8" y2="728.6"/>
										</g>
									</g>
								</g>
							</g>
						</g>
					</g>
				</g>
				<g>
					<g>
						<g>
							<g>
								<g>
									<g>
										<g>
											<defs>
												<rect id="SVGID_33_" x="305.8" y="706.6" width="25" height="22"/>
											</defs>
											<clipPath id="SVGID_34_">
												<use xlink:href="#SVGID_33_"  overflow="visible"/>
											</clipPath>
											
												<line clip-path="url(#SVGID_34_)" fill="none" stroke="#979797" stroke-linecap="square" stroke-miterlimit="10" x1="328.8" y1="706.6" x2="306.8" y2="728.6"/>
										</g>
									</g>
								</g>
							</g>
						</g>
					</g>
				</g>
			</g>
		</g>
	</g>
</g>
<g>
	<circle fill="none" stroke="#24A3DD" stroke-width="2" stroke-miterlimit="10" cx="359.7" cy="720.9" r="13"/>
</g>
<g>
	<g>
		<path fill="#24A3DD" d="M358.1,716.9l5.4,4.1l-5.4,4.2V721V716.9 M356.6,713.9v2.2v5v5.1v2.1l9.4-7.2L356.6,713.9L356.6,713.9z"/>
	</g>
</g>
<g>
	<circle fill="#3999CE" cx="409.9" cy="732" r="25"/>
</g>
<path fill="#FFFFFF" d="M410.5,722.6c-7.1,0-12.9,5.9-12.9,13v0.2h8.7l9.9-6.2c-1.5-1.5-3.6-2.3-5.7-2.3c-3.3,0-6.3,2-7.6,5
	c-0.1,0.3-0.2,0.5-0.3,0.8l-2-0.6c0.1-0.3,0.2-0.7,0.4-1c1.7-3.8,5.4-6.3,9.5-6.3c2.9,0,5.7,1.2,7.7,3.4l-1,0.9l-4.9,6.4h11.1
	c0,0,0-0.1,0-0.2C423.4,728.5,417.7,722.6,410.5,722.6z"/>
<path fill="#3999CE" d="M474.5,722.6c-7.1,0-12.9,5.9-12.9,13v0.2h8.7l9.9-6.2c-1.5-1.5-3.6-2.3-5.7-2.3c-3.3,0-6.3,2-7.6,5
	c-0.1,0.3-0.2,0.5-0.3,0.8l-2-0.6c0.1-0.3,0.2-0.7,0.4-1c1.7-3.8,5.4-6.3,9.5-6.3c2.9,0,5.7,1.2,7.7,3.4l-1,0.9l-4.9,6.4h11.1
	c0,0,0-0.1,0-0.2C487.4,728.5,481.7,722.6,474.5,722.6z"/>
<path id="path4552_21_" fill="#24A3DD" d="M473.9,707c-13.8,0-25,11.2-25,25s11.2,25,25,25c13.8,0,25-11.2,25-25
	S487.7,707,473.9,707 M473.9,756.1c-13.3,0-24.1-10.8-24.1-24.1s10.8-24.1,24.1-24.1c13.3,0,24.1,10.8,24.1,24.1
	S487.2,756.1,473.9,756.1"/>
<g>
	<g>
		<path fill="#3999CE" d="M538.8,708.1c13.2,0,23.9,10.7,23.9,23.9s-10.7,23.9-23.9,23.9s-23.9-10.7-23.9-23.9
			C514.8,718.8,525.6,708.1,538.8,708.1 M538.8,707c-13.8,0-25,11.2-25,25s11.2,25,25,25s25-11.2,25-25
			C563.7,718.2,552.6,707,538.8,707L538.8,707z"/>
	</g>
	<path fill="#3999CE" d="M529.2,743.7c0.7,0,1.3-0.3,1.8-0.7l12.4-12.4l0.4,0.1c0.7,0.3,1.5,0.4,2.3,0.4c1.8,0,3.5-0.7,4.8-2
		c1.6-1.6,2.3-4,1.8-6.2l-4.1,4.1h-3.1l-2.2-2.2v-3.1l4.1-4.1c-0.5-0.1-0.9-0.1-1.4-0.1c-1.8,0-3.5,0.7-4.8,2
		c-1.8,1.8-2.5,4.6-1.6,7.1l0.1,0.3l-12.4,12.5c-0.5,0.5-0.7,1.1-0.7,1.8s0.3,1.3,0.7,1.8C527.9,743.5,528.5,743.7,529.2,743.7z"/>
</g>
<g>
	<g>
		<path fill="#3999CE" d="M611.1,707.9c13.3,0,24,10.8,24,24c0,13.3-10.8,24-24,24c-13.3,0-24-10.8-24-24
			C587.1,718.7,597.9,707.9,611.1,707.9 M611.1,706.9c-13.8,0-25.1,11.2-25.1,25.1c0,13.8,11.2,25.1,25.1,25.1
			c13.8,0,25.1-11.2,25.1-25.1S625,706.9,611.1,706.9L611.1,706.9z"/>
	</g>
	
		<rect x="595.9" y="730.2" transform="matrix(0.7071 -0.7071 0.7071 0.7071 -338.5342 646.425)" fill="#3999CE" width="30.2" height="3.3"/>
	<path fill="#3999CE" d="M618.1,733.4c-3.1,0-5.6,2.5-5.6,5.6s2.5,5.6,5.6,5.6c3.1,0,5.6-2.5,5.6-5.6
		C623.6,735.9,621.2,733.4,618.1,733.4z M618.1,741.6c-1.5,0-2.7-1.2-2.7-2.7s1.2-2.7,2.7-2.7s2.7,1.2,2.7,2.7
		S619.6,741.6,618.1,741.6z"/>
	<path fill="#3999CE" d="M604.1,730.5c3.1,0,5.6-2.5,5.6-5.6c0-3.1-2.5-5.6-5.6-5.6c-3.1,0-5.5,2.5-5.5,5.6
		C598.6,728,601.1,730.5,604.1,730.5z M604.1,722.3c1.5,0,2.7,1.2,2.7,2.7s-1.2,2.7-2.7,2.7s-2.7-1.2-2.7-2.7
		S602.6,722.3,604.1,722.3z"/>
</g>
<g>
	<g>
		<path fill="#3999CE" d="M675.7,708c13.2,0,24,10.8,24,24s-10.8,24-24,24s-24-10.8-24-24C651.6,718.8,662.4,708,675.7,708
			 M675.7,707c-13.8,0-25,11.2-25,25s11.2,25,25,25s25-11.2,25-25S689.5,707,675.7,707L675.7,707z"/>
	</g>
	<g>
		<path fill="#3999CE" d="M674.9,723.6c-1.2-0.9-3-2-5.4-2.2c-0.6-0.1-1.2-0.1-1.8-0.1c-3.1,0-5.5,0.9-5.6,0.9
			c-0.4,0.1-0.7,0.5-0.7,1v16.6c0,0.3,0.2,0.6,0.4,0.8c0.3,0.2,0.6,0.2,0.9,0.1c0,0,2.1-0.8,4.9-0.8c0.5,0,1.1,0,1.6,0.1
			c3.4,0.4,5.6,2.9,5.6,2.9l0,0L674.9,723.6L674.9,723.6L674.9,723.6z"/>
		<path fill="#3999CE" d="M689.2,722.2c-0.1,0-2.5-0.9-5.6-0.9c-0.6,0-1.2,0-1.8,0.1c-2.3,0.3-4.2,1.3-5.4,2.2V743l0,0
			c0,0,2.2-2.5,5.6-2.9c0.5-0.1,1.1-0.1,1.6-0.1c2.7,0,4.9,0.8,4.9,0.8c0.3,0.1,0.7,0.1,0.9-0.1c0.3-0.2,0.4-0.5,0.4-0.8v-16.6
			C689.9,722.7,689.6,722.3,689.2,722.2z"/>
	</g>
</g>
<g>
	<g>
		<path fill="#3999CE" d="M739.6,708.1c13.2,0,24,10.7,24,24c0,13.2-10.7,23.9-24,23.9c-13.2,0-24-10.7-24-23.9
			C715.7,718.9,726.4,708.1,739.6,708.1 M739.6,707.1c-13.8,0-25,11.2-25,25c0,13.8,11.2,25,25,25c13.8,0,25-11.2,25-25
			C764.6,718.3,753.4,707.1,739.6,707.1L739.6,707.1z"/>
	</g>
	<path fill="none" d="M725.2,720.6v13.5h3.7c0.3,0,0.5,0.2,0.6,0.5c0,0.1,0.2,2.1-0.8,3.8c2-1.1,2.2-3.7,2.2-3.8
		c0-0.3,0.3-0.5,0.6-0.5h4.9v-2.3c0-0.3,0.3-0.6,0.6-0.6h11v-10.6H725.2L725.2,720.6z"/>
	<path fill="#3999CE" d="M754.6,731.2H749V720c0-0.3-0.3-0.6-0.6-0.6h-23.8c-0.3,0-0.6,0.3-0.6,0.6v14.7c0,0.3,0.3,0.6,0.6,0.6h3.7
		c0,0.9-0.3,2.8-1.8,3.8c-0.2,0.1-0.3,0.4-0.2,0.6c0.1,0.2,0.3,0.4,0.5,0.4l0,0c3.4-0.2,4.8-3,5.1-4.9h4.4v7.5
		c0,0.3,0.3,0.6,0.6,0.6h12.3c0.3,1.4,1.4,3.5,3.9,3.6l0,0c0.2,0,0.5-0.2,0.5-0.4c0.1-0.2,0-0.5-0.2-0.6c-1-0.7-1.3-1.9-1.3-2.6h2.5
		c0.3,0,0.6-0.3,0.6-0.6v-10.9C755.2,731.5,754.9,731.2,754.6,731.2z M736.4,731.8v2.3h-4.9c-0.3,0-0.5,0.2-0.6,0.5
		c0,0.1-0.3,2.7-2.2,3.8c1-1.7,0.8-3.7,0.8-3.8c0-0.3-0.3-0.5-0.6-0.5h-3.7v-13.5h22.7v10.7h-11
		C736.6,731.2,736.4,731.5,736.4,731.8z"/>
</g>
<polygon id="polygon4578-1_5_" fill="#656666" points="812.7,707.1 804.8,714.9 797.1,707.2 796.5,707.8 804.8,716.2 813.4,707.7 
	"/>
<rect x="842" y="706.7" fill="#3999CE" width="64" height="64"/>
<polygon fill="#FFFFFF" points="862.2,740.9 874,740.9 874,752.7 884.3,730.4 "/>
<g>
	<path fill="#3A99CE" d="M210.3,800.9c-3.1,3-3.5,7.8-1.3,11.3l7.8,10.6l7.8-10.6c2.2-3.5,1.7-8.2-1.3-11.3
		C219.7,797.3,213.8,797.3,210.3,800.9z M219.4,810.1c-1.5,1.5-3.9,1.5-5.4,0s-1.5-3.9,0-5.4s3.9-1.5,5.4,0S220.9,808.6,219.4,810.1
		z"/>
	<path fill="#3A99CE" d="M216.8,785.7c-13.8,0-25,11.2-25,25s11.2,25,25,25s25-11.2,25-25S230.6,785.7,216.8,785.7z M216.8,834.7
		c-13.2,0-24-10.8-24-24s10.8-24,24-24s24,10.8,24,24S230.1,834.7,216.8,834.7z"/>
</g>
<g>
	<path fill="#3A99CE" d="M284.3,788.3c-13.8,0-25,11.2-25,25s11.2,25,25,25s25-11.2,25-25S298,788.3,284.3,788.3z M284.3,837.4
		c-13.3,0-24.1-10.8-24.1-24.1s10.8-24.1,24.1-24.1s24.1,10.8,24.1,24.1S297.5,837.4,284.3,837.4z"/>
	<path fill="#3A99CE" d="M286,811.7c-3.5-0.5-5.4-0.8-5.4-2.6c0-1.6,0.8-2.3,4.3-2.3c2.4,0,5,0.8,6.4,1.7l2.6-3.8
		c-1.4-0.9-3.4-1.7-6.5-2.1v-2.3h-4.1v2.2c-5.2,0.3-7.7,2.1-7.7,6.7c0,4.8,3.1,5.9,9,6.7c3.4,0.5,5.3,0.8,5.3,2.7
		c0,1.9-0.8,2.7-5.2,2.7c-2.8,0-5.6-0.8-8-2.4l-2.5,3.5c2.2,1.6,5.3,2.6,9,2.9v1.9h4.1v-2c5.5-0.5,7.4-3,7.4-6.9
		C294.9,813.3,291.3,812.5,286,811.7z"/>
</g>
</svg>
