<?xml version="1.0" encoding="UTF-8"?><svg xmlns="http://www.w3.org/2000/svg" width="100%" height="100%"><defs><font id="web" horiz-adv-x="1120"><!--



NOTICE: This font software is the valuable property 
of Webtype LLC, The Font Bureau, Webtype and/or its 
suppliers and its use by you is covered under the terms 
of the Web Font license agreement between you and Webtype 
LLC. You may ONLY use this font software with the licensed 
web site. Except as specifically permitted by the license, 
you may not copy this font software. If you have any 
questions, please contact Webtype.com. 

For more information, please visit http://www.webtype.com/store/license/?id=23

Licensed to: ford.com

Serial number: SH-770
--><font-face font-family="" units-per-em="2048" panose-1="2 0 5 3 0 0 0 2 0 4" ascent="2220" descent="-766" alphabetic="0"/><missing-glyph horiz-adv-x="1024" d="M0 1434H1024V0H0V1434ZM102 102H922V1331H102V102Z"/><glyph unicode=" " horiz-adv-x="348"/><glyph unicode="!" horiz-adv-x="707" d="M176 360H528V0H176V360ZM186 1518H522L494 473H213L186 1518Z"/><glyph unicode="&quot;" horiz-adv-x="1044" d="M141 1518H461L446 803H156L141 1518ZM584 1518H903L887 803H600L584 1518Z"/><glyph unicode="#" horiz-adv-x="1325" d="M236 371H84V653H279L301 809H84V1090H344L408 1518H700L637 1090H791L854 1518H1147L1081 1090H1239V809H1040L1016 653H1239V371H973L918 0H627L682 371H528L473 0H180L236 371ZM745 631L776 831H573L543 631H745Z"/><glyph unicode="$" horiz-adv-x="1153" d="M39 141L184 373Q260 320 361 287T567 254Q679 254 729 292T780 426Q780 503 735 545T553 633L436 672Q248 732 174 827T100 1079Q100 1271 180 1376T436 1511V1677H733V1512Q901 1488 1030 1415L889 1167Q751 1239 584 1239Q491 1239 447 1205T403 1090Q403 1025 450 985T633 905Q779 860 835 834T936 774T1014 695T1065 588T1083 449Q1083 240 998 137T733 7V-190H438V1Q302 17 212 49T39 141Z"/><glyph unicode="%" horiz-adv-x="2185" d="M465 528Q249 528 151 648T53 1030Q53 1292 151 1412T465 1532Q683 1532 782 1412T881 1030Q881 769 782 649T465 528ZM467 758Q546 758 576 816T606 1022Q606 1168 577 1227T467 1286Q388 1286 358 1228T328 1022Q328 874 358 816T467 758ZM1716 -14Q1502 -14 1404 104T1305 489Q1305 752 1403 871T1716 991Q1934 991 2033 872T2132 489Q2132 225 2033 106T1716 -14ZM1718 215Q1798 215 1829 272T1860 479Q1860 630 1829 686T1718 743Q1639 743 1609 685T1579 479Q1579 333 1608 274T1718 215ZM1300 1518H1587L887 0H602L1300 1518Z"/><glyph unicode="&amp;" horiz-adv-x="1489" d="M586 -16Q310 -16 182 88T53 418Q53 669 275 806L342 846Q240 1009 240 1167Q240 1355 342 1451T639 1548Q835 1548 929 1453T1024 1167Q1024 1050 960 951T759 770L1005 498Q1031 565 1050 654T1096 948L1356 918Q1329 671 1291 526T1199 283L1456 0H1073L1003 78Q846 -16 586 -16ZM499 641Q420 583 390 535T360 432Q360 356 382 318T454 259T586 238Q724 238 819 282L499 641ZM741 1167Q741 1224 719 1253T639 1282Q582 1282 561 1253T539 1167Q539 1120 553 1075T604 966Q741 1057 741 1167Z"/><glyph unicode="'" horiz-adv-x="602" d="M141 1518H463L449 803H156L141 1518Z"/><glyph unicode="(" horiz-adv-x="913" d="M516 -365Q411 -262 332 -110T210 228T166 623Q166 819 212 1008T338 1355T516 1612L745 1470Q644 1334 592 1214T510 947T481 625Q481 377 547 158T745 -225L516 -365Z"/><glyph unicode=")" horiz-adv-x="913" d="M170 -225Q275 -78 325 39T403 301T432 623Q432 867 367 1086T170 1470L397 1612Q564 1448 656 1187T748 625Q748 427 702 235T574 -114T397 -365L170 -225Z"/><glyph unicode="*" horiz-adv-x="1087" d="M446 827L217 647L82 870L356 1016L82 1163L215 1384L446 1202L418 1520H664L637 1198L870 1384L1004 1165L727 1016L1004 868L872 649L637 831L664 512H418L446 827Z"/><glyph unicode="+" horiz-adv-x="1247" d="M477 588H162V856H477V1225H770V856H1085V588H770V215H477V588Z"/><glyph unicode="," horiz-adv-x="532" d="M96 -158Q178 -114 203 -96T237 -58T246 0H90V367H442V31Q442 -73 421 -124T346 -217T182 -313L96 -158Z"/><glyph unicode="-" horiz-adv-x="711" d="M61 823H647V541H61V823Z"/><glyph unicode="." horiz-adv-x="532" d="M90 367H442V0H90V367Z"/><glyph unicode="/" horiz-adv-x="1014" d="M700 1518H1014L313 0H0L700 1518Z"/><glyph unicode="0" horiz-adv-x="1313" d="M659 -18Q500 -18 392 23T221 148T129 373T100 758Q100 1013 130 1151T224 1372T395 1495T659 1536Q860 1536 981 1466T1157 1241T1212 758Q1212 500 1183 361T1091 141T922 21T659 -18ZM659 268Q751 268 801 310T873 448T895 758Q895 964 874 1059T803 1195T659 1237Q564 1237 514 1196T442 1060T420 758Q420 547 442 451T514 311T659 268Z"/><glyph unicode="1" horiz-adv-x="731" d="M256 1235H47V1518H565V0H256V1235Z"/><glyph unicode="2" horiz-adv-x="1106" d="M49 246L430 655Q536 768 586 835T656 952T676 1079Q676 1169 630 1205T481 1241Q412 1241 329 1222T180 1169L47 1430Q169 1490 285 1513T535 1536Q770 1536 878 1437T987 1126Q987 1002 961 921T870 747T649 485L451 270H1012V0H49V246Z"/><glyph unicode="3" horiz-adv-x="1114" d="M512 -18Q365 -18 256 7T39 94L178 350Q268 302 337 283T492 264Q586 264 634 284T703 349T723 481Q723 561 701 598T628 653T483 670H268V926H487Q599 926 642 961T686 1087Q686 1172 645 1206T489 1241Q341 1241 190 1171L59 1423Q256 1536 539 1536Q711 1536 806 1499T946 1382T991 1169Q991 1012 956 937T844 831Q920 806 959 764T1015 647T1032 449Q1032 201 912 92T512 -18Z"/><glyph unicode="4" horiz-adv-x="1210" d="M55 539L586 1518H909L387 555H698L760 979H983V555H1167V299H983V0H694V299H55V539Z"/><glyph unicode="5" horiz-adv-x="1159" d="M561 -18Q249 -18 43 96L182 350Q273 301 355 283T541 264Q641 264 688 287T757 363T778 506Q778 595 757 646T693 720T561 743Q431 743 346 690L106 760L147 1518H1016V1235H412L397 965Q488 1016 676 1016Q834 1016 921 967T1049 808T1090 512Q1090 315 1039 200T880 34T561 -18Z"/><glyph unicode="6" horiz-adv-x="1253" d="M651 -18Q494 -18 387 17T216 123T123 313T94 655Q94 965 128 1115T241 1350T457 1477T805 1518H983V1235H788Q653 1235 574 1207T457 1121T410 934Q499 1038 758 1038Q911 1038 1003 985T1139 827T1182 526Q1182 322 1129 207T959 37T651 -18ZM657 254Q771 254 820 312T870 524Q870 664 823 724T662 784Q536 784 477 721T418 535Q418 419 440 362T514 280T657 254Z"/><glyph unicode="7" horiz-adv-x="1026" d="M649 1235H37V1518H987V1274L547 0H215L649 1235Z"/><glyph unicode="8" horiz-adv-x="1251" d="M625 -18Q482 -18 378 8T211 85T116 216T84 434Q84 572 103 641T166 759T285 836Q202 875 165 948T127 1163Q127 1360 252 1448T625 1536Q799 1536 908 1495T1069 1376T1122 1163Q1122 1021 1082 945T963 836Q1041 808 1085 761T1149 646T1169 434Q1169 298 1138 217T1042 85T872 8T625 -18ZM625 246Q743 246 798 298T854 477Q854 602 801 653T625 705Q506 705 453 654T399 477Q399 350 453 298T625 246ZM625 928Q727 928 773 967T819 1100Q819 1191 774 1231T625 1272Q523 1272 477 1232T430 1100Q430 1009 476 969T625 928Z"/><glyph unicode="9" horiz-adv-x="1253" d="M268 270H465Q600 270 678 298T795 385T842 575Q758 471 496 471Q344 471 252 523T116 680T72 981Q72 1282 196 1409T600 1536Q757 1536 865 1501T1036 1394T1129 1203T1159 862Q1159 555 1124 406T1010 170T794 42T446 0H268V270ZM590 723Q717 723 776 786T836 975Q836 1090 814 1145T739 1227T594 1253Q481 1253 431 1194T381 983Q381 845 428 784T590 723Z"/><glyph unicode=":" horiz-adv-x="565" d="M106 358H457V0H106V358ZM106 1161H457V803H106V1161Z"/><glyph unicode=";" horiz-adv-x="565" d="M106 1161H457V803H106V1161ZM113 -158Q218 -102 240 -77T262 0H106V358H457V31Q457 -74 435 -125T359 -219T199 -313L113 -158Z"/><glyph unicode="&lt;" horiz-adv-x="1245" d="M186 602V815L989 1260V963L510 711L989 457V158L186 602Z"/><glyph unicode="=" horiz-adv-x="1247" d="M164 625H1083V340H164V625ZM164 1092H1083V809H164V1092Z"/><glyph unicode="&gt;" horiz-adv-x="1247" d="M254 455L735 707L254 961V1260L1059 815V602L254 158V455Z"/><glyph unicode="?" horiz-adv-x="1171" d="M397 444V481Q397 595 413 655T471 767T602 891Q705 975 730 1014T756 1108Q756 1185 708 1217T551 1249Q405 1249 246 1174L111 1434Q315 1536 604 1536Q840 1536 953 1449T1067 1169Q1067 1087 1053 1030T1012 929T948 850T864 776Q783 711 751 673T709 595T698 484V444H397ZM371 322H723V0H371V322Z"/><glyph unicode="@" horiz-adv-x="1763" d="M883 -338Q593 -338 417 -243T159 52T76 596Q76 938 158 1139T416 1436T883 1532Q1172 1532 1347 1436T1605 1139T1688 596Q1688 370 1658 266T1557 114T1360 66Q1139 66 1096 205Q1016 66 760 66Q640 66 563 116T448 276T410 594Q410 797 446 905T560 1069T766 1126Q885 1126 948 1106T1047 1028L1098 1116L1296 1098V414Q1299 367 1301 335T1313 282T1340 253T1391 244Q1444 244 1465 271T1494 369T1503 596Q1503 881 1441 1046T1245 1287T883 1364Q653 1364 519 1288T322 1045T260 596Q260 311 322 147T518 -94T883 -170Q1123 -170 1356 -76L1423 -233Q1282 -290 1157 -314T883 -338ZM848 301Q916 301 954 326T1008 406T1024 592Q1024 723 1008 774T956 848T848 872Q758 872 722 815T686 590Q686 461 701 407T751 327T848 301Z"/><glyph unicode="A" horiz-adv-x="1343" d="M500 1528H844L1317 0H987L918 236H416L348 0H27L500 1528ZM840 518L668 1094L492 518H840Z"/><glyph unicode="B" horiz-adv-x="1262" d="M119 1518H674Q920 1518 1039 1423T1159 1128Q1159 869 981 795Q1092 755 1141 665T1190 424Q1190 0 686 0H119V1518ZM682 268Q780 268 823 313T866 449Q866 541 824 583T680 625H434V268H682ZM664 905Q756 905 797 947T838 1079Q838 1168 798 1204T664 1241H434V905H664Z"/><glyph unicode="C" horiz-adv-x="1155" d="M664 -18Q450 -18 316 64T119 313T55 758Q55 1048 122 1214T329 1458T688 1536Q931 1536 1100 1425L928 1159Q824 1223 678 1223Q560 1223 498 1177T409 1029T381 750Q381 566 409 465T500 317T680 270Q762 270 825 289T948 348L1106 100Q1002 35 901 9T664 -18Z"/><glyph unicode="D" horiz-adv-x="1315" d="M119 1518H592Q850 1518 991 1445T1196 1209T1260 760Q1260 468 1198 307T996 73T592 0H119V1518ZM621 279Q751 279 814 324T905 472T934 758Q934 942 906 1041T813 1182T612 1225H440V279H621Z"/><glyph unicode="E" horiz-adv-x="1141" d="M119 1518H1055V1225H432V922H1028V631H432V287H1057V0H119V1518Z"/><glyph unicode="F" horiz-adv-x="1112" d="M119 1518H1057V1225H440V897H1028V606H440V0H119V1518Z"/><glyph unicode="G" horiz-adv-x="1262" d="M645 -18Q434 -18 305 63T115 307T55 758Q55 1048 119 1214T323 1458T700 1536Q955 1536 1141 1419L971 1153Q843 1227 686 1227Q560 1227 499 1181T407 1032T377 750Q377 554 404 450T494 300T674 254Q763 254 812 284T882 381T903 588V625H608V901H1208V645Q1208 370 1157 236T986 42T645 -18Z"/><glyph unicode="H" horiz-adv-x="1386" d="M119 1518H440V942H944V1518H1268V0H944V625H440V0H119V1518Z"/><glyph unicode="I" horiz-adv-x="594" d="M137 1518H457V0H137V1518Z"/><glyph unicode="J" horiz-adv-x="801" d="M53 287H199Q293 287 331 320T369 436V1518H690V416Q690 203 588 102T252 0H53V287Z"/><glyph unicode="K" horiz-adv-x="1309" d="M119 1518H436V894L899 1518H1268L812 929L1276 0H922L596 658L436 439V0H119V1518Z"/><glyph unicode="L" horiz-adv-x="1051" d="M119 1518H440V287H1030V0H119V1518Z"/><glyph unicode="M" horiz-adv-x="1649" d="M119 1518H528L823 555L1122 1518H1532V0H1219V969L915 0H709L403 969V0H119V1518Z"/><glyph unicode="N" horiz-adv-x="1378" d="M119 1518H459L956 643V1518H1262V0H967L424 946V0H119V1518Z"/><glyph unicode="O" horiz-adv-x="1368" d="M684 -18Q469 -18 330 60T123 302T55 758Q55 1053 123 1217T330 1459T684 1536Q898 1536 1037 1459T1244 1219T1313 758Q1313 465 1246 301T1039 60T684 -18ZM684 266Q797 266 862 312T957 452T987 748Q987 948 958 1041T862 1181T684 1227Q571 1227 506 1181T411 1041T381 748Q381 546 410 452T506 312T684 266Z"/><glyph unicode="P" horiz-adv-x="1255" d="M119 1518H702Q957 1518 1079 1397T1202 1024Q1202 762 1074 630T696 498H434V0H119V1518ZM692 776Q796 776 842 829T889 1006Q889 1129 844 1182T692 1235H434V776H692Z"/><glyph unicode="Q" horiz-adv-x="1368" d="M889 -375Q684 -375 583 -298T481 -55V-49V13Q330 48 237 135T99 371T55 758Q55 1053 123 1217T330 1459T684 1536Q898 1536 1037 1459T1244 1219T1313 758Q1313 489 1257 334T1082 96T791 -1Q793 -63 824 -84T928 -106H1081V-375H889ZM684 266Q797 266 862 312T957 452T987 748Q987 948 958 1041T862 1181T684 1227Q571 1227 506 1181T411 1041T381 748Q381 546 410 452T506 312T684 266Z"/><glyph unicode="R" horiz-adv-x="1278" d="M119 1518H698Q953 1518 1075 1400T1198 1034Q1198 670 945 554L1188 0H852L634 508H434V0H119V1518ZM690 788Q797 788 841 840T885 1012Q885 1134 840 1184T690 1235H434V788H690Z"/><glyph unicode="S" horiz-adv-x="1194" d="M600 -18Q235 -18 27 119L188 365Q265 316 370 286T592 256Q714 256 768 292T823 412Q823 462 809 493T758 548T660 593T506 643Q279 712 187 814T94 1090Q94 1306 227 1421T618 1536Q758 1536 867 1514T1083 1442L944 1167Q803 1235 627 1235Q511 1235 460 1204T408 1100Q408 1053 425 1025T485 973T649 911Q873 840 966 781T1097 637T1135 418Q1135 203 998 93T600 -18Z"/><glyph unicode="T" horiz-adv-x="1186" d="M430 1225H23V1518H1163V1225H754V0H430V1225Z"/><glyph unicode="U" horiz-adv-x="1368" d="M684 -23Q384 -23 247 107T109 532V1518H430V563Q430 391 487 329T688 266Q788 266 843 294T923 383T948 563V1518H1260V532Q1260 236 1123 107T684 -23Z"/><glyph unicode="V" horiz-adv-x="1327" d="M27 1518H356L670 455L977 1518H1303L836 -10H492L27 1518Z"/><glyph unicode="W" horiz-adv-x="1841" d="M43 1518H371L567 596L786 1518H1071L1292 596L1489 1518H1796L1458 -10H1143L922 895L700 -10H383L43 1518Z"/><glyph unicode="X" horiz-adv-x="1327" d="M80 1518H434L677 1086L899 1518H1247L840 797L1290 0H936L646 514L379 0H33L484 800L80 1518Z"/><glyph unicode="Y" horiz-adv-x="1282" d="M-4 1518H338L645 856L954 1518H1284L799 510V0H479V514L-4 1518Z"/><glyph unicode="Z" horiz-adv-x="1155" d="M47 242L702 1225H76V1518H1085V1253L436 287H1104V0H47V242Z"/><glyph unicode="[" horiz-adv-x="909" d="M180 1575H768V1309H496V-70H772V-324H180V1575Z"/><glyph unicode="\" horiz-adv-x="1014" d="M0 1518H313L1014 0H700L0 1518Z"/><glyph unicode="]" horiz-adv-x="909" d="M139 -70H416V1309H145V1575H731V-324H139V-70Z"/><glyph unicode="^" horiz-adv-x="997" d="M356 1800H641L866 1425H621L496 1587L373 1425H133L356 1800Z"/><glyph unicode="_" horiz-adv-x="766" d="M-63 -78H829V-307H-63V-78Z"/><glyph unicode="`" horiz-adv-x="997" d="M119 1645H463L680 1270H416L119 1645Z"/><glyph unicode="a" horiz-adv-x="1116" d="M414 -14Q284 -14 204 24T85 137T47 350Q47 507 105 597T288 727T643 768H683Q680 846 646 875T530 905Q360 905 236 844L111 1094Q286 1186 565 1186Q723 1186 812 1149T942 1028T983 791V358Q983 298 998 283T1063 268V0Q1030 -4 971 -4Q849 -4 803 16T733 92Q687 37 613 12T414 -14ZM342 385Q342 306 375 273T485 240Q592 240 638 289T684 442V549H645Q518 549 457 534T369 486T342 385Z"/><glyph unicode="b" horiz-adv-x="1163" d="M98 1575H406V1073Q449 1132 524 1158T721 1184Q854 1184 941 1126T1069 944T1110 584Q1110 351 1067 226T934 44T709 -14Q618 -14 560 -6T462 21T371 88L324 -12L98 10V1575ZM614 254Q683 254 722 282T779 370T797 569Q797 709 780 772T724 864T614 893Q535 893 491 864T428 770T408 569Q408 430 427 369T491 281T614 254Z"/><glyph unicode="c" horiz-adv-x="918" d="M541 -16Q365 -16 259 45T103 233T53 584Q53 815 104 938T265 1121T559 1182Q753 1182 881 1120L745 852Q669 893 575 893Q461 893 415 824T369 573Q369 386 416 319T582 252Q670 252 776 299L893 63Q805 21 727 3T541 -16Z"/><glyph unicode="d" horiz-adv-x="1163" d="M442 -14Q307 -14 222 44T96 227T55 586Q55 815 98 941T230 1124T457 1182Q580 1182 647 1161T756 1094V1575H1067V10L819 -10L795 96Q747 39 662 13T442 -14ZM549 254Q627 254 672 284T736 377T756 580Q756 718 737 778T673 867T549 895Q479 895 441 867T385 777T367 580Q367 439 384 376T440 283T549 254Z"/><glyph unicode="e" horiz-adv-x="1055" d="M547 -14Q366 -14 258 45T102 226T53 584Q53 804 105 930T268 1119T555 1182Q718 1182 815 1128T953 959T995 646L993 442H352Q361 364 383 325T447 268T563 250Q651 250 720 264T868 317L985 82Q804 -14 547 -14ZM721 682Q717 802 701 839T650 893T547 911Q452 911 408 868T353 722L350 682H721Z"/><glyph unicode="f" horiz-adv-x="799" d="M25 1161H213V1255Q213 1612 618 1612Q734 1612 786 1608V1341H649Q578 1341 550 1317T522 1221V1161H786V891H522V0H213V891H25V1161Z"/><glyph unicode="g" d="M541 410Q475 410 417 417L414 385Q414 356 428 345T475 329T563 324Q766 324 871 297T1021 209T1067 20Q1067 -171 947 -257T543 -344Q336 -344 227 -317T69 -231T20 -68Q20 150 217 197Q156 248 156 356Q156 436 197 493Q76 585 76 786Q76 988 190 1086T541 1184L602 1182L1057 1276V1036H899Q957 996 982 934T1008 786Q1008 595 895 503T541 410ZM539 -129Q622 -129 668 -117T734 -80T754 0Q754 46 735 66T668 94T541 102Q425 102 377 77T328 -12Q328 -76 377 -102T539 -129ZM541 631Q632 631 668 669T705 780Q705 853 669 890T541 928Q453 928 416 891T379 780Q379 708 416 670T541 631Z"/><glyph unicode="h" horiz-adv-x="1151" d="M98 1575H406V1079Q446 1132 521 1157T721 1182Q843 1182 917 1138T1026 1006T1061 760V0H750V682Q750 775 736 812T690 868T600 887Q525 887 484 865T426 795T408 639V0H98V1575Z"/><glyph unicode="i" horiz-adv-x="524" d="M106 1161H416V0H106V1161ZM106 1546H418V1266H106V1546Z"/><glyph unicode="j" horiz-adv-x="524" d="M2 -76H25Q74 -76 90 -56T106 45V1161H416V35Q416 -109 382 -183T271 -290T49 -324H2V-76ZM106 1546H418V1266H106V1546Z"/><glyph unicode="k" horiz-adv-x="1071" d="M98 1575H401V694L717 1161H1042L700 675L1063 0H733L498 425L401 281V0H98V1575Z"/><glyph unicode="l" horiz-adv-x="600" d="M537 0Q517 -4 424 -4Q299 -4 233 29T136 135T106 330V1575H416V373Q416 317 425 300T457 275T537 268V0Z"/><glyph unicode="m" horiz-adv-x="1751" d="M98 1143L346 1163L369 1071Q414 1129 494 1155T711 1182Q824 1182 890 1156T983 1069Q1031 1128 1119 1155T1343 1182Q1464 1182 1534 1139T1637 1013T1669 760V0H1362V682Q1362 780 1350 816T1308 869T1221 887Q1149 887 1109 865T1053 793T1036 639V0H729V682Q729 780 717 817T674 870T590 887Q517 887 477 865T420 795T403 639V0H98V1143Z"/><glyph unicode="n" horiz-adv-x="1151" d="M98 1143L346 1163L369 1071Q415 1128 498 1155T721 1182Q843 1182 917 1138T1026 1006T1061 760V0H750V682Q750 775 736 812T690 868T600 887Q527 887 486 866T426 796T408 639V0H98V1143Z"/><glyph unicode="o" horiz-adv-x="1128" d="M565 -18Q383 -18 271 45T106 237T53 584Q53 807 105 932T271 1120T565 1182Q746 1182 858 1120T1022 934T1075 584Q1075 355 1023 230T860 43T565 -18ZM565 252Q640 252 683 281T745 371T764 573Q764 714 745 774T684 864T565 893Q489 893 447 864T386 775T367 573Q367 434 385 373T446 282T565 252Z"/><glyph unicode="p" horiz-adv-x="1163" d="M98 1143L346 1163L367 1071Q414 1128 500 1155T721 1182Q854 1182 941 1124T1069 943T1110 584Q1110 352 1066 226T932 43T709 -14Q593 -14 523 6T408 76V-324H98V1143ZM614 254Q684 254 723 284T780 377T797 569Q797 711 780 773T723 864T614 893Q535 893 491 864T428 770T408 569Q408 430 427 369T491 281T614 254Z"/><glyph unicode="q" horiz-adv-x="1163" d="M758 90Q715 35 639 11T442 -14Q307 -14 222 44T96 227T55 586Q55 815 98 941T230 1124T457 1182Q594 1182 671 1161T795 1085L840 1171L1067 1151V-324H758V90ZM549 254Q627 254 672 284T736 377T756 580Q756 718 737 778T673 867T549 895Q479 895 441 867T385 777T367 580Q367 439 384 376T440 283T549 254Z"/><glyph unicode="r" horiz-adv-x="707" d="M98 1143L344 1163L371 1055Q419 1118 497 1144T694 1171V879Q585 878 525 850T437 766T410 582V0H98V1143Z"/><glyph unicode="s" horiz-adv-x="930" d="M473 -14Q179 -14 16 72L135 311Q210 275 298 256T473 236Q539 236 570 257T602 326Q602 360 585 380T524 420T377 473Q239 520 177 564T87 671T59 825Q59 1182 494 1182Q608 1182 686 1170T854 1120L735 864Q619 913 481 913Q412 913 383 895T354 831Q354 790 393 765T555 700Q702 653 767 608T862 497T891 330Q891 -14 473 -14Z"/><glyph unicode="t" horiz-adv-x="850" d="M25 1161H221L268 1421L514 1477V1161H778V891H514V391Q514 332 526 310T567 278T645 268H778V0L689 -6L606 -10Q453 -10 368 24T245 134T207 354V891H25V1161Z"/><glyph unicode="u" horiz-adv-x="1130" d="M565 -16Q383 -16 281 30T135 178T90 475V1161H401V492Q401 370 416 332T466 276T569 258Q635 258 670 277T720 337T735 494V1161H1040V475Q1040 274 996 174T849 29T565 -16Z"/><glyph unicode="v" horiz-adv-x="1063" d="M4 1161H328L539 395L750 1161H1061L700 -10H360L4 1161Z"/><glyph unicode="w" horiz-adv-x="1559" d="M20 1161H334L475 481L645 1161H930L1098 494L1241 1161H1538L1257 -10H954L780 641L610 -10H303L20 1161Z"/><glyph unicode="x" horiz-adv-x="1038" d="M33 1161H369L537 867L690 1161H1006L691 597L1032 0H698L501 343L319 0H4L348 611L33 1161Z"/><glyph unicode="y" horiz-adv-x="1020" d="M2 1161H319L517 448L711 1161H1016L633 -90Q606 -180 563 -230T455 -302T268 -324H139V-76H270Q297 -76 313 -71T338 -54T357 0L2 1161Z"/><glyph unicode="z" horiz-adv-x="915" d="M25 205L487 891H53V1161H877V952L410 252H895V0H25V205Z"/><glyph unicode="{" horiz-adv-x="971" d="M614 -324Q422 -324 333 -258T244 -47Q244 18 286 196Q328 373 328 406Q328 459 289 477T113 496V756Q254 756 291 774T328 844Q328 890 286 1060Q244 1229 244 1296Q244 1442 334 1508T610 1575H836V1309H709Q629 1309 596 1282T563 1194Q563 1152 600 1001Q637 850 637 791Q637 664 522 627Q637 583 637 461Q637 413 626 354T600 237T575 130T563 53Q563 -15 601 -42T709 -70H836V-324H614Z"/><glyph unicode="|" horiz-adv-x="674" d="M180 1575H496V-324H180V1575Z"/><glyph unicode="}" horiz-adv-x="971" d="M137 -70H262Q331 -70 370 -43T410 53Q410 81 398 130T372 236T346 353T334 461Q334 586 449 627Q334 666 334 791Q334 832 346 888T372 1001T398 1109T410 1194Q410 1255 376 1282T262 1309H137V1575H360Q548 1575 637 1509T727 1296Q727 1229 685 1060Q643 890 643 844Q643 793 680 776T860 758V496Q752 496 714 489T660 462T643 406Q643 373 685 196Q727 18 727 -47Q727 -191 638 -257T358 -324H137V-70Z"/><glyph unicode="~" horiz-adv-x="997" d="M61 853Q121 970 192 1024T360 1078Q401 1078 435 1064T499 1034T554 1004T602 990Q634 990 663 1013T731 1089L928 974Q868 857 798 802T631 747Q589 747 554 760T490 790T435 819T389 833Q357 833 327 812T260 738L61 853Z"/><glyph unicode=" " horiz-adv-x="348"/><glyph unicode="¡" horiz-adv-x="707" d="M213 1044H496L522 0H184L213 1044ZM178 1518H530V1157H178V1518Z"/><glyph unicode="¢" horiz-adv-x="977" d="M82 584Q82 858 160 989T406 1158V1321H705V1170Q820 1158 907 1114L776 852Q700 893 604 893Q489 893 444 824T399 573Q399 387 445 320T610 252Q670 252 716 266T805 299L920 68Q801 7 705 -1V-195H406V7Q234 48 158 179T82 584Z"/><glyph unicode="£" horiz-adv-x="1161" d="M37 889H183Q150 1047 150 1130Q150 1341 265 1438T616 1536Q871 1536 1055 1444L924 1192Q861 1222 779 1236T618 1251Q457 1251 457 1094Q457 1023 482 889H774V639H529Q557 471 557 408Q557 341 548 288Q643 252 745 252Q804 252 827 284T850 403V520H1120V391Q1120 167 1045 79T786 -10Q602 -10 423 71Q359 31 263 16T31 0V270Q150 270 195 280T258 315T276 403Q276 473 239 639H37V889Z"/><glyph unicode="¤" horiz-adv-x="1152" d="M1056 392L940 284L740 500Q668 452 572 452Q480 452 408 500L208 284L92 392L300 608Q272 648 262 686T252 780Q252 883 300 952L92 1168L208 1276L408 1060Q480 1108 572 1108Q668 1108 740 1060L944 1276L1060 1156L852 952Q880 912 890 872T900 780Q900 684 848 608L1056 392ZM748 780Q748 860 698 910T572 960Q496 960 448 910T400 780Q400 700 450 652T572 604Q652 604 700 652T748 780Z"/><glyph unicode="¥" horiz-adv-x="1188" d="M125 334H442V442H125V662H429L14 1518H344L594 936L846 1518H1171L758 662H1063V442H743V334H1063V115H743V0H442V115H125V334Z"/><glyph unicode="¦" horiz-adv-x="674" d="M180 461H496V-324H180V461ZM180 1575H496V791H180V1575Z"/><glyph unicode="§" horiz-adv-x="1001" d="M258 -10L143 -6V236H225Q274 236 300 248T338 286T350 367V427Q218 452 160 528T102 752Q102 901 161 978T350 1082V1126Q350 1284 388 1365T511 1486T735 1526L850 1522V1268H768Q719 1268 693 1256T655 1218T643 1135V1083Q773 1062 836 984T899 752Q899 600 838 524T643 426V389Q643 235 605 154T483 31T258 -10ZM500 618Q581 618 618 648T655 743Q655 809 618 838T500 868Q419 868 383 839T346 743Q346 678 382 648T500 618Z"/><glyph unicode="¨" horiz-adv-x="997" d="M162 1544H436V1270H162V1544ZM563 1544H836V1270H563V1544Z"/><glyph unicode="©" horiz-adv-x="1368" d="M696 283Q498 283 408 396T317 768Q317 1031 411 1142T711 1253Q862 1253 969 1186L862 1022Q799 1063 705 1063Q598 1063 558 997T518 762Q518 646 536 581T594 488T707 459Q757 459 795 470T874 510L973 354Q912 316 848 300T696 283ZM684 -18Q474 -18 336 62T130 311T61 758Q61 1163 212 1350T684 1538Q894 1538 1032 1457T1239 1207T1309 758Q1309 479 1240 311T1032 63T684 -18ZM684 92Q941 92 1065 248T1190 758Q1190 998 1138 1138T974 1352T684 1425Q507 1425 396 1353T233 1141T180 758Q180 517 232 377T396 164T684 92Z"/><glyph unicode="ª" horiz-adv-x="1016" d="M375 565Q235 565 167 636T98 858Q98 983 143 1053T290 1153T582 1184H612Q610 1238 599 1261T563 1296T489 1307Q361 1307 250 1257L150 1462Q296 1536 518 1536Q707 1536 781 1465T856 1214V866Q856 819 868 807T922 795V573L846 571Q739 571 701 592T645 670Q609 613 548 589T375 565ZM129 463H877V242H129V463ZM338 887Q338 825 364 798T453 770Q539 770 575 809T612 934V1008H582Q430 1008 384 983T338 887Z"/><glyph unicode="«" horiz-adv-x="1339" d="M129 580L385 1161H657L424 580L657 0H385L129 580ZM635 580L891 1161H1161L928 580L1161 0H891L635 580Z"/><glyph unicode="¬" horiz-adv-x="1536" d="M1116 352V728H212V920H1296V352H1116Z"/><glyph unicode="­" horiz-adv-x="711" d="M61 823H647V541H61V823Z"/><glyph unicode="®" horiz-adv-x="1368" d="M684 -18Q474 -18 336 62T130 311T61 758Q61 1163 212 1350T684 1538Q894 1538 1032 1457T1239 1207T1309 758Q1309 479 1240 311T1032 63T684 -18ZM684 92Q941 92 1065 248T1190 758Q1190 998 1138 1138T974 1352T684 1425Q507 1425 396 1353T233 1141T180 758Q180 517 232 377T396 164T684 92ZM373 1227H727Q888 1227 958 1160T1028 934Q1028 809 990 743T872 648L868 646L1022 299H827L684 627H563V299H373V1227ZM719 780Q788 780 815 812T842 920Q842 996 815 1028T719 1061H563V780H719Z"/><glyph unicode="¯" horiz-adv-x="997" d="M129 1526H866V1270H129V1526Z"/><glyph unicode="°" horiz-adv-x="971" d="M485 545Q276 545 173 663T70 1040Q70 1299 173 1417T485 1536Q695 1536 800 1417T905 1040Q905 783 801 664T485 545ZM485 776Q573 776 614 832T655 1032Q655 1174 615 1229T485 1284Q397 1284 357 1228T317 1032Q317 889 358 833T485 776Z"/><glyph unicode="±" horiz-adv-x="1247" d="M162 281H477V588H162V856H477V1225H770V856H1085V588H770V281H1085V12H162V281Z"/><glyph unicode="²" horiz-adv-x="883" d="M92 705L344 973Q417 1050 448 1087T491 1151T504 1212Q504 1264 480 1284T387 1305Q289 1305 190 1257L86 1460Q229 1530 428 1530Q593 1530 670 1461T748 1257Q748 1170 730 1116T668 1002T522 840L410 725H766V524H92V705Z"/><glyph unicode="³" horiz-adv-x="895" d="M424 512Q212 512 84 588L188 778Q288 723 403 723Q461 723 491 734T533 769T545 846Q545 907 513 926T391 946H238V1143H391Q466 1143 493 1160T520 1229Q520 1276 498 1293T399 1311Q291 1311 195 1266L96 1456Q152 1488 247 1509T442 1530Q617 1530 689 1472T762 1288Q762 1186 738 1138T666 1069Q734 1047 760 994T786 819Q786 658 701 585T424 512Z"/><glyph unicode="´" horiz-adv-x="997" d="M535 1645H877L582 1270H317L535 1645Z"/><glyph unicode="µ" horiz-adv-x="1137" d="M98 1161H410V492Q410 371 424 332T473 276T575 258Q642 258 678 276T728 336T743 494V1161H1047V475Q1047 276 1005 176T865 30T588 -16Q533 -16 481 -3T408 33V-324H98V1161Z"/><glyph unicode="¶" horiz-adv-x="1174" d="M770 510H647V0H346V541L332 546Q188 594 122 703T55 1016Q55 1205 110 1310T285 1466T600 1518H1071V0H770V510ZM770 776V1239H594Q471 1239 420 1187T369 1006Q369 878 420 827T594 776H770Z"/><glyph unicode="·" horiz-adv-x="532" d="M90 944H442V569H90V944Z"/><glyph unicode="¸" horiz-adv-x="997" d="M512 -498Q382 -498 270 -444L336 -301Q418 -332 489 -332Q549 -332 570 -314T592 -254Q592 -217 574 -201T512 -184L444 -186L391 -147L424 14H592L573 -86L603 -85Q703 -85 747 -132T791 -276Q791 -396 727 -447T512 -498Z"/><glyph unicode="¹" horiz-adv-x="657" d="M229 1292H90V1518H487V524H229V1292Z"/><glyph unicode="º" horiz-adv-x="1016" d="M508 561Q293 561 194 673T94 1049Q94 1312 194 1424T508 1536Q656 1536 747 1485T881 1333T924 1049Q924 864 882 763T749 612T508 561ZM508 782Q569 782 603 805T653 878T668 1042Q668 1158 653 1205T604 1276T508 1300Q448 1300 414 1277T364 1205T348 1042Q348 929 363 880T413 806T508 782ZM129 463H885V242H129V463Z"/><glyph unicode="»" horiz-adv-x="1339" d="M412 582L176 1161H449L705 582L449 0H176L412 582ZM915 582L682 1161H954L1208 582L954 0H682L915 582Z"/><glyph unicode="¼" horiz-adv-x="1845" d="M1081 1518H1356L659 0H383L1081 1518ZM1001 354L1348 993H1602L1260 367H1424L1466 580H1651V367H1772V168H1651V0H1421V168H1001V354ZM236 1292H98V1518H494V524H236V1292Z"/><glyph unicode="½" horiz-adv-x="1935" d="M1081 1518H1356L659 0H383L1081 1518ZM236 1292H98V1518H494V524H236V1292ZM1163 180L1415 449Q1488 525 1520 564T1563 627T1575 688Q1575 737 1553 758T1458 780Q1356 780 1262 733L1159 936Q1303 1008 1501 1008Q1821 1008 1821 733Q1821 616 1777 536T1593 315L1481 201H1837V0H1163V180Z"/><glyph unicode="¾" horiz-adv-x="2028" d="M424 512Q212 512 84 588L188 778Q288 723 403 723Q461 723 491 734T533 769T545 846Q545 907 513 926T391 946H238V1143H391Q466 1143 493 1160T520 1229Q520 1276 498 1293T399 1311Q291 1311 195 1266L96 1456Q152 1488 247 1509T442 1530Q617 1530 689 1472T762 1288Q762 1186 738 1138T666 1069Q734 1047 760 994T786 819Q786 658 701 585T424 512ZM1264 1518H1538L842 0H565L1264 1518ZM1184 354L1532 993H1786L1444 367H1609L1651 580H1835V367H1954V168H1835V0H1606V168H1184V354Z"/><glyph unicode="¿" horiz-adv-x="1186" d="M582 -18Q343 -18 231 69T119 348Q119 436 136 498T189 610T322 741Q410 814 437 846T475 915T487 1041V1073H791Q791 929 775 867T718 754T584 627Q497 555 475 528T442 475T432 410Q432 330 481 299T635 268Q779 268 940 344L1075 84Q873 -18 582 -18ZM463 1518H815V1196H463V1518Z"/><glyph unicode="À" horiz-adv-x="1343" d="M500 1528H844L1317 0H987L918 236H416L348 0H27L500 1528ZM840 518L668 1094L492 518H840ZM291 1971H635L852 1596H588L291 1971Z"/><glyph unicode="Á" horiz-adv-x="1343" d="M500 1528H844L1317 0H987L918 236H416L348 0H27L500 1528ZM840 518L668 1094L492 518H840ZM707 1971H1049L754 1596H489L707 1971Z"/><glyph unicode="Â" horiz-adv-x="1343" d="M500 1528H844L1317 0H987L918 236H416L348 0H27L500 1528ZM840 518L668 1094L492 518H840ZM528 1971H813L1038 1596H793L668 1758L545 1596H305L528 1971Z"/><glyph unicode="Ã" horiz-adv-x="1343" d="M500 1528H844L1317 0H987L918 236H416L348 0H27L500 1528ZM840 518L668 1094L492 518H840ZM233 1698Q293 1815 364 1869T532 1923Q573 1923 607 1909T671 1879T726 1849T774 1835Q806 1835 835 1858T903 1934L1100 1819Q1040 1702 970 1647T803 1592Q761 1592 726 1605T662 1635T607 1664T561 1678Q529 1678 499 1657T432 1583L233 1698Z"/><glyph unicode="Ä" horiz-adv-x="1343" d="M500 1528H844L1317 0H987L918 236H416L348 0H27L500 1528ZM840 518L668 1094L492 518H840ZM334 1870H608V1596H334V1870ZM735 1870H1008V1596H735V1870Z"/><glyph unicode="Å" horiz-adv-x="1343" d="M477 1456Q418 1526 418 1657Q418 1795 482 1865T670 1935Q794 1935 859 1863T924 1657Q924 1532 864 1460L1317 0H987L918 236H416L348 0H27L477 1456ZM840 518L668 1094L492 518H840ZM670 1530Q723 1530 746 1560T770 1657Q770 1726 746 1756T670 1786Q569 1786 569 1657Q569 1593 593 1562T670 1530Z"/><glyph unicode="Æ" horiz-adv-x="1925" d="M743 1518H1839V1225H1217V918H1810V631H1217V287H1841V0H903V240H446L334 0H18L743 1518ZM903 514V1198L575 514H903Z"/><glyph unicode="Ç" horiz-adv-x="1155" d="M664 -18Q450 -18 316 64T119 313T55 758Q55 1048 122 1214T329 1458T688 1536Q931 1536 1100 1425L928 1159Q824 1223 678 1223Q560 1223 498 1177T409 1029T381 750Q381 566 409 465T500 317T680 270Q762 270 825 289T948 348L1106 100Q1002 35 901 9T664 -18ZM592 -498Q462 -498 350 -444L416 -301Q498 -332 569 -332Q629 -332 650 -314T672 -254Q672 -217 654 -201T592 -184L524 -186L471 -147L504 14H672L653 -86L683 -85Q783 -85 827 -132T871 -276Q871 -396 807 -447T592 -498Z"/><glyph unicode="È" horiz-adv-x="1141" d="M119 1518H1055V1225H432V922H1028V631H432V287H1057V0H119V1518ZM191 1971H535L752 1596H488L191 1971Z"/><glyph unicode="É" horiz-adv-x="1141" d="M607 1971H949L654 1596H389L607 1971ZM119 1518H1055V1225H432V922H1028V631H432V287H1057V0H119V1518Z"/><glyph unicode="Ê" horiz-adv-x="1141" d="M428 1971H713L938 1596H693L568 1758L445 1596H205L428 1971ZM119 1518H1055V1225H432V922H1028V631H432V287H1057V0H119V1518Z"/><glyph unicode="Ë" horiz-adv-x="1141" d="M234 1870H508V1596H234V1870ZM635 1870H908V1596H635V1870ZM119 1518H1055V1225H432V922H1028V631H432V287H1057V0H119V1518Z"/><glyph unicode="Ì" horiz-adv-x="594" d="M-82 1972H260L446 1597H182L-82 1972ZM137 1518H457V0H137V1518Z"/><glyph unicode="Í" horiz-adv-x="594" d="M334 1972H674L408 1597H145L334 1972ZM137 1518H457V0H137V1518Z"/><glyph unicode="Î" horiz-adv-x="594" d="M154 1972H438L662 1597H416L293 1759L172 1597H-68L154 1972ZM137 1518H457V0H137V1518Z"/><glyph unicode="Ï" horiz-adv-x="594" d="M137 1518H457V0H137V1518ZM-38 1870H236V1596H-38V1870ZM363 1870H636V1596H363V1870Z"/><glyph unicode="Ð" horiz-adv-x="1315" d="M0 895H119V1518H592Q850 1518 991 1445T1196 1209T1260 760Q1260 468 1198 307T996 73T592 0H119V635H0V895ZM621 279Q751 279 814 324T905 472T934 758Q934 942 906 1041T813 1182T612 1225H440V895H655V635H440V279H621Z"/><glyph unicode="Ñ" horiz-adv-x="1378" d="M119 1518H459L956 643V1518H1262V0H967L424 946V0H119V1518ZM249 1698Q309 1815 380 1869T548 1923Q589 1923 623 1909T687 1879T742 1849T790 1835Q822 1835 851 1858T919 1934L1116 1819Q1056 1702 986 1647T819 1592Q777 1592 742 1605T678 1635T623 1664T577 1678Q545 1678 515 1657T448 1583L249 1698Z"/><glyph unicode="Ò" horiz-adv-x="1368" d="M684 -18Q469 -18 330 60T123 302T55 758Q55 1053 123 1217T330 1459T684 1536Q898 1536 1037 1459T1244 1219T1313 758Q1313 465 1246 301T1039 60T684 -18ZM684 266Q797 266 862 312T957 452T987 748Q987 948 958 1041T862 1181T684 1227Q571 1227 506 1181T411 1041T381 748Q381 546 410 452T506 312T684 266ZM303 1971H647L864 1596H600L303 1971Z"/><glyph unicode="Ó" horiz-adv-x="1368" d="M719 1971H1061L766 1596H501L719 1971ZM684 -18Q469 -18 330 60T123 302T55 758Q55 1053 123 1217T330 1459T684 1536Q898 1536 1037 1459T1244 1219T1313 758Q1313 465 1246 301T1039 60T684 -18ZM684 266Q797 266 862 312T957 452T987 748Q987 948 958 1041T862 1181T684 1227Q571 1227 506 1181T411 1041T381 748Q381 546 410 452T506 312T684 266Z"/><glyph unicode="Ô" horiz-adv-x="1368" d="M540 1971H825L1050 1596H805L680 1758L557 1596H317L540 1971ZM684 -18Q469 -18 330 60T123 302T55 758Q55 1053 123 1217T330 1459T684 1536Q898 1536 1037 1459T1244 1219T1313 758Q1313 465 1246 301T1039 60T684 -18ZM684 266Q797 266 862 312T957 452T987 748Q987 948 958 1041T862 1181T684 1227Q571 1227 506 1181T411 1041T381 748Q381 546 410 452T506 312T684 266Z"/><glyph unicode="Õ" horiz-adv-x="1368" d="M684 -18Q469 -18 330 60T123 302T55 758Q55 1053 123 1217T330 1459T684 1536Q898 1536 1037 1459T1244 1219T1313 758Q1313 465 1246 301T1039 60T684 -18ZM684 266Q797 266 862 312T957 452T987 748Q987 948 958 1041T862 1181T684 1227Q571 1227 506 1181T411 1041T381 748Q381 546 410 452T506 312T684 266ZM245 1698Q305 1815 376 1869T544 1923Q585 1923 619 1909T683 1879T738 1849T786 1835Q818 1835 847 1858T915 1934L1112 1819Q1052 1702 982 1647T815 1592Q773 1592 738 1605T674 1635T619 1664T573 1678Q541 1678 511 1657T444 1583L245 1698Z"/><glyph unicode="Ö" horiz-adv-x="1368" d="M346 1870H620V1596H346V1870ZM747 1870H1020V1596H747V1870ZM684 -18Q469 -18 330 60T123 302T55 758Q55 1053 123 1217T330 1459T684 1536Q898 1536 1037 1459T1244 1219T1313 758Q1313 465 1246 301T1039 60T684 -18ZM684 266Q797 266 862 312T957 452T987 748Q987 948 958 1041T862 1181T684 1227Q571 1227 506 1181T411 1041T381 748Q381 546 410 452T506 312T684 266Z"/><glyph unicode="×" horiz-adv-x="1247" d="M180 467L434 721L182 973L371 1165L623 913L877 1165L1065 973L811 721L1063 471L877 276L623 528L369 274L180 467Z"/><glyph unicode="Ø" horiz-adv-x="1368" d="M684 -18Q565 -18 474 4L432 -84H160L253 113Q151 201 103 355T55 758Q55 1053 123 1217T330 1459T684 1536Q802 1536 893 1514L936 1604H1210L1114 1405Q1217 1316 1265 1162T1313 758Q1313 465 1246 301T1039 60T684 -18ZM684 252Q801 252 868 298T966 440T997 748Q997 983 954 1084L582 262Q627 252 684 252ZM684 1241Q568 1241 500 1194T402 1051T371 748Q371 522 408 422L774 1233Q734 1241 684 1241Z"/><glyph unicode="Ù" horiz-adv-x="1368" d="M684 -23Q384 -23 247 107T109 532V1518H430V563Q430 391 487 329T688 266Q788 266 843 294T923 383T948 563V1518H1260V532Q1260 236 1123 107T684 -23ZM301 1971H645L862 1596H598L301 1971Z"/><glyph unicode="Ú" horiz-adv-x="1368" d="M717 1971H1059L764 1596H499L717 1971ZM684 -23Q384 -23 247 107T109 532V1518H430V563Q430 391 487 329T688 266Q788 266 843 294T923 383T948 563V1518H1260V532Q1260 236 1123 107T684 -23Z"/><glyph unicode="Û" horiz-adv-x="1368" d="M538 1971H823L1048 1596H803L678 1758L555 1596H315L538 1971ZM684 -23Q384 -23 247 107T109 532V1518H430V563Q430 391 487 329T688 266Q788 266 843 294T923 383T948 563V1518H1260V532Q1260 236 1123 107T684 -23Z"/><glyph unicode="Ü" horiz-adv-x="1368" d="M344 1870H618V1596H344V1870ZM745 1870H1018V1596H745V1870ZM684 -23Q384 -23 247 107T109 532V1518H430V563Q430 391 487 329T688 266Q788 266 843 294T923 383T948 563V1518H1260V532Q1260 236 1123 107T684 -23Z"/><glyph unicode="Ý" horiz-adv-x="1282" d="M-4 1518H338L645 856L954 1518H1284L799 510V0H479V514L-4 1518ZM676 1971H1018L723 1596H458L676 1971Z"/><glyph unicode="Þ" horiz-adv-x="1245" d="M119 1518H434V1294H702Q882 1294 991 1244T1151 1090T1202 797Q1202 606 1151 499T989 337T696 283H434V0H119V1518ZM692 553Q800 553 844 605T889 782Q889 912 845 964T692 1016H434V553H692Z"/><glyph unicode="ß" horiz-adv-x="1182" d="M98 1151Q98 1377 220 1486T580 1595Q826 1595 937 1502T1049 1196Q1049 1027 1017 945T909 831Q1030 804 1079 718T1128 434Q1128 261 1078 171T916 40T588 0H518V276H588Q720 276 770 319T821 479Q821 590 773 629T584 668H543V911H584Q672 911 712 956T752 1108Q752 1212 713 1255T580 1298Q486 1298 445 1255T403 1118V0H98V1151Z"/><glyph unicode="à" horiz-adv-x="1116" d="M414 -14Q284 -14 204 24T85 137T47 350Q47 507 105 597T288 727T643 768H683Q680 846 646 875T530 905Q360 905 236 844L111 1094Q286 1186 565 1186Q723 1186 812 1149T942 1028T983 791V358Q983 298 998 283T1063 268V0Q1030 -4 971 -4Q849 -4 803 16T733 92Q687 37 613 12T414 -14ZM342 385Q342 306 375 273T485 240Q592 240 638 289T684 442V549H645Q518 549 457 534T369 486T342 385ZM178 1645H522L739 1270H475L178 1645Z"/><glyph unicode="á" horiz-adv-x="1116" d="M414 -14Q284 -14 204 24T85 137T47 350Q47 507 105 597T288 727T643 768H683Q680 846 646 875T530 905Q360 905 236 844L111 1094Q286 1186 565 1186Q723 1186 812 1149T942 1028T983 791V358Q983 298 998 283T1063 268V0Q1030 -4 971 -4Q849 -4 803 16T733 92Q687 37 613 12T414 -14ZM342 385Q342 306 375 273T485 240Q592 240 638 289T684 442V549H645Q518 549 457 534T369 486T342 385ZM594 1645H936L641 1270H376L594 1645Z"/><glyph unicode="â" horiz-adv-x="1116" d="M414 -14Q284 -14 204 24T85 137T47 350Q47 507 105 597T288 727T643 768H683Q680 846 646 875T530 905Q360 905 236 844L111 1094Q286 1186 565 1186Q723 1186 812 1149T942 1028T983 791V358Q983 298 998 283T1063 268V0Q1030 -4 971 -4Q849 -4 803 16T733 92Q687 37 613 12T414 -14ZM342 385Q342 306 375 273T485 240Q592 240 638 289T684 442V549H645Q518 549 457 534T369 486T342 385ZM415 1645H700L925 1270H680L555 1432L432 1270H192L415 1645Z"/><glyph unicode="ã" horiz-adv-x="1116" d="M414 -14Q284 -14 204 24T85 137T47 350Q47 507 105 597T288 727T643 768H683Q680 846 646 875T530 905Q360 905 236 844L111 1094Q286 1186 565 1186Q723 1186 812 1149T942 1028T983 791V358Q983 298 998 283T1063 268V0Q1030 -4 971 -4Q849 -4 803 16T733 92Q687 37 613 12T414 -14ZM342 385Q342 306 375 273T485 240Q592 240 638 289T684 442V549H645Q518 549 457 534T369 486T342 385ZM120 1372Q180 1489 251 1543T419 1597Q460 1597 494 1583T558 1553T613 1523T661 1509Q693 1509 722 1532T790 1608L987 1493Q927 1376 857 1321T690 1266Q648 1266 613 1279T549 1309T494 1338T448 1352Q416 1352 386 1331T319 1257L120 1372Z"/><glyph unicode="ä" horiz-adv-x="1116" d="M414 -14Q284 -14 204 24T85 137T47 350Q47 507 105 597T288 727T643 768H683Q680 846 646 875T530 905Q360 905 236 844L111 1094Q286 1186 565 1186Q723 1186 812 1149T942 1028T983 791V358Q983 298 998 283T1063 268V0Q1030 -4 971 -4Q849 -4 803 16T733 92Q687 37 613 12T414 -14ZM342 385Q342 306 375 273T485 240Q592 240 638 289T684 442V549H645Q518 549 457 534T369 486T342 385ZM221 1544H495V1270H221V1544ZM622 1544H895V1270H622V1544Z"/><glyph unicode="å" horiz-adv-x="1116" d="M414 -14Q284 -14 204 24T85 137T47 350Q47 507 105 597T288 727T643 768H683Q680 846 646 875T530 905Q360 905 236 844L111 1094Q286 1186 565 1186Q723 1186 812 1149T942 1028T983 791V358Q983 298 998 283T1063 268V0Q1030 -4 971 -4Q849 -4 803 16T733 92Q687 37 613 12T414 -14ZM342 385Q342 306 375 273T485 240Q592 240 638 289T684 442V549H645Q518 549 457 534T369 486T342 385ZM557 1251Q434 1251 370 1320T305 1526Q305 1664 370 1734T557 1804Q679 1804 745 1733T811 1526Q811 1393 746 1322T557 1251ZM557 1399Q610 1399 633 1429T657 1526Q657 1595 633 1625T557 1655Q456 1655 456 1526Q456 1462 480 1431T557 1399Z"/><glyph unicode="æ" horiz-adv-x="1681" d="M1174 -14Q916 -14 804 127L785 103Q690 -14 414 -14Q284 -14 204 24T85 137T47 350Q47 507 105 597T288 727T643 768H683Q680 846 646 875T530 905Q360 905 236 844L111 1094Q286 1186 565 1186Q681 1186 755 1165T875 1094Q986 1182 1180 1182Q1416 1182 1518 1066T1621 645L1620 442H979Q988 358 1011 321T1077 267T1190 250Q1270 250 1335 262T1495 317L1612 82Q1431 -14 1174 -14ZM342 385Q342 306 375 273T485 240Q592 240 638 289T684 442V549H645Q518 549 457 534T369 486T342 385ZM1346 682Q1344 797 1328 836T1277 893T1174 911Q1078 911 1034 868T980 722L977 682H1346Z"/><glyph unicode="ç" horiz-adv-x="918" d="M541 -16Q365 -16 259 45T103 233T53 584Q53 815 104 938T265 1121T559 1182Q753 1182 881 1120L745 852Q669 893 575 893Q461 893 415 824T369 573Q369 386 416 319T582 252Q670 252 776 299L893 63Q805 21 727 3T541 -16ZM729 -498Q599 -498 487 -444L553 -301Q635 -332 706 -332Q766 -332 787 -314T809 -254Q809 -217 791 -201T729 -184L661 -186L608 -147L641 14H809L790 -86L820 -85Q920 -85 964 -132T1008 -276Q1008 -396 944 -447T729 -498Z"/><glyph unicode="è" horiz-adv-x="1055" d="M547 -14Q366 -14 258 45T102 226T53 584Q53 804 105 930T268 1119T555 1182Q718 1182 815 1128T953 959T995 646L993 442H352Q361 364 383 325T447 268T563 250Q651 250 720 264T868 317L985 82Q804 -14 547 -14ZM721 682Q717 802 701 839T650 893T547 911Q452 911 408 868T353 722L350 682H721ZM146 1645H490L707 1270H443L146 1645Z"/><glyph unicode="é" horiz-adv-x="1055" d="M562 1645H904L609 1270H344L562 1645ZM547 -14Q366 -14 258 45T102 226T53 584Q53 804 105 930T268 1119T555 1182Q718 1182 815 1128T953 959T995 646L993 442H352Q361 364 383 325T447 268T563 250Q651 250 720 264T868 317L985 82Q804 -14 547 -14ZM721 682Q717 802 701 839T650 893T547 911Q452 911 408 868T353 722L350 682H721Z"/><glyph unicode="ê" horiz-adv-x="1055" d="M383 1645H668L893 1270H648L523 1432L400 1270H160L383 1645ZM547 -14Q366 -14 258 45T102 226T53 584Q53 804 105 930T268 1119T555 1182Q718 1182 815 1128T953 959T995 646L993 442H352Q361 364 383 325T447 268T563 250Q651 250 720 264T868 317L985 82Q804 -14 547 -14ZM721 682Q717 802 701 839T650 893T547 911Q452 911 408 868T353 722L350 682H721Z"/><glyph unicode="ë" horiz-adv-x="1055" d="M189 1544H463V1270H189V1544ZM590 1544H863V1270H590V1544ZM547 -14Q366 -14 258 45T102 226T53 584Q53 804 105 930T268 1119T555 1182Q718 1182 815 1128T953 959T995 646L993 442H352Q361 364 383 325T447 268T563 250Q651 250 720 264T868 317L985 82Q804 -14 547 -14ZM721 682Q717 802 701 839T650 893T547 911Q452 911 408 868T353 722L350 682H721Z"/><glyph unicode="ì" horiz-adv-x="524" d="M-76 1645H264L416 1270H152L-76 1645ZM106 1161H416V0H106V1161Z"/><glyph unicode="í" horiz-adv-x="524" d="M256 1645H598L371 1270H109L256 1645ZM106 1161H416V0H106V1161Z"/><glyph unicode="î" horiz-adv-x="524" d="M119 1645H403L602 1270H356L258 1432L160 1270H-80L119 1645ZM106 1161H416V0H106V1161Z"/><glyph unicode="ï" horiz-adv-x="524" d="M-33 1544H211V1270H-33V1544ZM311 1544H555V1270H311V1544ZM106 1161H416V0H106V1161Z"/><glyph unicode="ð" horiz-adv-x="1133" d="M481 1335L589 1357Q535 1438 500 1473L739 1610Q821 1549 892 1421L1087 1462V1276L969 1251Q1077 949 1077 639Q1077 372 1025 239T861 44T565 -18Q305 -18 179 119T53 551Q53 823 160 953T483 1083Q663 1083 743 999Q718 1091 676 1190L481 1149V1335ZM565 252Q639 252 682 281T744 367T764 545Q764 665 745 720T683 805T565 834Q491 834 448 805T386 720T367 545Q367 425 386 368T447 282T565 252Z"/><glyph unicode="ñ" horiz-adv-x="1151" d="M98 1143L346 1163L369 1071Q415 1128 498 1155T721 1182Q843 1182 917 1138T1026 1006T1061 760V0H750V682Q750 775 736 812T690 868T600 887Q527 887 486 866T426 796T408 639V0H98V1143ZM135 1372Q195 1489 266 1543T434 1597Q475 1597 509 1583T573 1553T628 1523T676 1509Q708 1509 737 1532T805 1608L1002 1493Q942 1376 872 1321T705 1266Q663 1266 628 1279T564 1309T509 1338T463 1352Q431 1352 401 1331T334 1257L135 1372Z"/><glyph unicode="ò" horiz-adv-x="1128" d="M565 -18Q383 -18 271 45T106 237T53 584Q53 807 105 932T271 1120T565 1182Q746 1182 858 1120T1022 934T1075 584Q1075 355 1023 230T860 43T565 -18ZM565 252Q640 252 683 281T745 371T764 573Q764 714 745 774T684 864T565 893Q489 893 447 864T386 775T367 573Q367 434 385 373T446 282T565 252ZM182 1645H526L743 1270H479L182 1645Z"/><glyph unicode="ó" horiz-adv-x="1128" d="M598 1645H940L645 1270H380L598 1645ZM565 -18Q383 -18 271 45T106 237T53 584Q53 807 105 932T271 1120T565 1182Q746 1182 858 1120T1022 934T1075 584Q1075 355 1023 230T860 43T565 -18ZM565 252Q640 252 683 281T745 371T764 573Q764 714 745 774T684 864T565 893Q489 893 447 864T386 775T367 573Q367 434 385 373T446 282T565 252Z"/><glyph unicode="ô" horiz-adv-x="1128" d="M419 1645H704L929 1270H684L559 1432L436 1270H196L419 1645ZM565 -18Q383 -18 271 45T106 237T53 584Q53 807 105 932T271 1120T565 1182Q746 1182 858 1120T1022 934T1075 584Q1075 355 1023 230T860 43T565 -18ZM565 252Q640 252 683 281T745 371T764 573Q764 714 745 774T684 864T565 893Q489 893 447 864T386 775T367 573Q367 434 385 373T446 282T565 252Z"/><glyph unicode="õ" horiz-adv-x="1128" d="M565 -18Q383 -18 271 45T106 237T53 584Q53 807 105 932T271 1120T565 1182Q746 1182 858 1120T1022 934T1075 584Q1075 355 1023 230T860 43T565 -18ZM565 252Q640 252 683 281T745 371T764 573Q764 714 745 774T684 864T565 893Q489 893 447 864T386 775T367 573Q367 434 385 373T446 282T565 252ZM124 1372Q184 1489 255 1543T423 1597Q464 1597 498 1583T562 1553T617 1523T665 1509Q697 1509 726 1532T794 1608L991 1493Q931 1376 861 1321T694 1266Q652 1266 617 1279T553 1309T498 1338T452 1352Q420 1352 390 1331T323 1257L124 1372Z"/><glyph unicode="ö" horiz-adv-x="1128" d="M225 1544H499V1270H225V1544ZM626 1544H899V1270H626V1544ZM565 -18Q383 -18 271 45T106 237T53 584Q53 807 105 932T271 1120T565 1182Q746 1182 858 1120T1022 934T1075 584Q1075 355 1023 230T860 43T565 -18ZM565 252Q640 252 683 281T745 371T764 573Q764 714 745 774T684 864T565 893Q489 893 447 864T386 775T367 573Q367 434 385 373T446 282T565 252Z"/><glyph unicode="÷" horiz-adv-x="1247" d="M469 459H776V193H469V459ZM154 864H1094V580H154V864ZM469 1249H776V983H469V1249Z"/><glyph unicode="ø" horiz-adv-x="1128" d="M565 -18Q464 -18 386 0L338 -90H94L196 100Q121 171 87 290T53 584Q53 807 105 932T271 1120T565 1182Q672 1182 753 1161L801 1249H1049L942 1056Q1013 985 1044 869T1075 584Q1075 355 1023 230T860 43T565 -18ZM565 903Q486 903 441 872T375 775T354 573Q354 462 368 395L627 897Q599 903 565 903ZM565 244Q644 244 690 275T756 371T776 573Q776 694 763 746L506 249Q532 244 565 244Z"/><glyph unicode="ù" horiz-adv-x="1130" d="M565 -16Q383 -16 281 30T135 178T90 475V1161H401V492Q401 370 416 332T466 276T569 258Q635 258 670 277T720 337T735 494V1161H1040V475Q1040 274 996 174T849 29T565 -16ZM185 1645H529L746 1270H482L185 1645Z"/><glyph unicode="ú" horiz-adv-x="1130" d="M601 1645H943L648 1270H383L601 1645ZM565 -16Q383 -16 281 30T135 178T90 475V1161H401V492Q401 370 416 332T466 276T569 258Q635 258 670 277T720 337T735 494V1161H1040V475Q1040 274 996 174T849 29T565 -16Z"/><glyph unicode="û" horiz-adv-x="1130" d="M422 1645H707L932 1270H687L562 1432L439 1270H199L422 1645ZM565 -16Q383 -16 281 30T135 178T90 475V1161H401V492Q401 370 416 332T466 276T569 258Q635 258 670 277T720 337T735 494V1161H1040V475Q1040 274 996 174T849 29T565 -16Z"/><glyph unicode="ü" horiz-adv-x="1130" d="M228 1544H502V1270H228V1544ZM629 1544H902V1270H629V1544ZM565 -16Q383 -16 281 30T135 178T90 475V1161H401V492Q401 370 416 332T466 276T569 258Q635 258 670 277T720 337T735 494V1161H1040V475Q1040 274 996 174T849 29T565 -16Z"/><glyph unicode="ý" horiz-adv-x="1020" d="M2 1161H319L517 448L711 1161H1016L633 -90Q606 -180 563 -230T455 -302T268 -324H139V-76H270Q297 -76 313 -71T338 -54T357 0L2 1161ZM545 1645H887L592 1270H327L545 1645Z"/><glyph unicode="þ" horiz-adv-x="1163" d="M98 1575H406V1071Q445 1130 518 1156T721 1182Q854 1182 941 1124T1069 943T1110 584Q1110 352 1066 226T932 43T709 -14Q593 -14 523 6T408 76V-324H98V1575ZM614 254Q684 254 723 284T780 377T797 569Q797 711 780 773T723 864T614 893Q535 893 491 864T428 770T408 569Q408 430 427 369T491 281T614 254Z"/><glyph unicode="ÿ" horiz-adv-x="1020" d="M2 1161H319L517 448L711 1161H1016L633 -90Q606 -180 563 -230T455 -302T268 -324H139V-76H270Q297 -76 313 -71T338 -54T357 0L2 1161ZM172 1544H446V1270H172V1544ZM573 1544H846V1270H573V1544Z"/><glyph unicode="Ā" horiz-adv-x="1343" d="M500 1528H844L1317 0H987L918 236H416L348 0H27L500 1528ZM840 518L668 1094L492 518H840ZM301 1852H1038V1596H301V1852Z"/><glyph unicode="ā" horiz-adv-x="1116" d="M414 -14Q284 -14 204 24T85 137T47 350Q47 507 105 597T288 727T643 768H683Q680 846 646 875T530 905Q360 905 236 844L111 1094Q286 1186 565 1186Q723 1186 812 1149T942 1028T983 791V358Q983 298 998 283T1063 268V0Q1030 -4 971 -4Q849 -4 803 16T733 92Q687 37 613 12T414 -14ZM342 385Q342 306 375 273T485 240Q592 240 638 289T684 442V549H645Q518 549 457 534T369 486T342 385ZM188 1526H925V1270H188V1526Z"/><glyph unicode="Ă" horiz-adv-x="1343" d="M500 1528H844L1317 0H987L918 236H416L348 0H27L500 1528ZM840 518L668 1094L492 518H840ZM670 1583Q545 1583 470 1617T353 1725T293 1946L514 1979Q528 1888 560 1853T670 1817Q746 1817 778 1851T825 1979L1049 1948Q1028 1798 987 1724T871 1617T670 1583Z"/><glyph unicode="ă" horiz-adv-x="1116" d="M414 -14Q284 -14 204 24T85 137T47 350Q47 507 105 597T288 727T643 768H683Q680 846 646 875T530 905Q360 905 236 844L111 1094Q286 1186 565 1186Q723 1186 812 1149T942 1028T983 791V358Q983 298 998 283T1063 268V0Q1030 -4 971 -4Q849 -4 803 16T733 92Q687 37 613 12T414 -14ZM342 385Q342 306 375 273T485 240Q592 240 638 289T684 442V549H645Q518 549 457 534T369 486T342 385ZM557 1257Q432 1257 357 1291T240 1399T180 1620L401 1653Q415 1562 447 1527T557 1491Q633 1491 665 1525T712 1653L936 1622Q915 1472 874 1398T758 1291T557 1257Z"/><glyph unicode="Ą" horiz-adv-x="1343" d="M500 1528H844L1317 0H1178Q1116 -57 1079 -116T1042 -219Q1042 -264 1065 -284T1143 -305H1204V-479H1116Q956 -479 896 -433T836 -268Q836 -121 985 4L918 236H416L348 0H27L500 1528ZM840 518L668 1094L492 518H840Z"/><glyph unicode="ą" horiz-adv-x="1116" d="M414 -14Q284 -14 204 24T85 137T47 350Q47 507 105 597T288 727T643 768H684Q680 845 645 875T530 905Q360 905 236 844L111 1094Q286 1186 565 1186Q723 1186 812 1149T942 1028T983 791V358Q983 298 998 283T1063 268V0Q974 -67 943 -98T895 -158T879 -219Q879 -264 902 -284T981 -305H1040V-479H952Q792 -479 732 -433T672 -268Q672 -191 718 -120T852 2Q804 10 777 30T733 92Q687 37 613 12T414 -14ZM485 240Q592 240 638 289T684 442V549H645Q518 549 457 534T369 486T342 385Q342 306 375 273T485 240Z"/><glyph unicode="Ć" horiz-adv-x="1155" d="M613 1971H955L660 1596H395L613 1971ZM664 -18Q450 -18 316 64T119 313T55 758Q55 1048 122 1214T329 1458T688 1536Q931 1536 1100 1425L928 1159Q824 1223 678 1223Q560 1223 498 1177T409 1029T381 750Q381 566 409 465T500 317T680 270Q762 270 825 289T948 348L1106 100Q1002 35 901 9T664 -18Z"/><glyph unicode="ć" horiz-adv-x="918" d="M751 1645H1093L798 1270H533L751 1645ZM541 -16Q365 -16 259 45T103 233T53 584Q53 815 104 938T265 1121T559 1182Q753 1182 881 1120L745 852Q669 893 575 893Q461 893 415 824T369 573Q369 386 416 319T582 252Q670 252 776 299L893 63Q805 21 727 3T541 -16Z"/><glyph unicode="Č" horiz-adv-x="1155" d="M211 1971H457L580 1809L703 1971H944L719 1596H434L211 1971ZM664 -18Q450 -18 316 64T119 313T55 758Q55 1048 122 1214T329 1458T688 1536Q931 1536 1100 1425L928 1159Q824 1223 678 1223Q560 1223 498 1177T409 1029T381 750Q381 566 409 465T500 317T680 270Q762 270 825 289T948 348L1106 100Q1002 35 901 9T664 -18Z"/><glyph unicode="č" horiz-adv-x="918" d="M349 1645H595L718 1483L841 1645H1082L857 1270H572L349 1645ZM541 -16Q365 -16 259 45T103 233T53 584Q53 815 104 938T265 1121T559 1182Q753 1182 881 1120L745 852Q669 893 575 893Q461 893 415 824T369 573Q369 386 416 319T582 252Q670 252 776 299L893 63Q805 21 727 3T541 -16Z"/><glyph unicode="Ď" horiz-adv-x="1315" d="M291 1971H537L660 1809L783 1971H1024L799 1596H514L291 1971ZM119 1518H592Q850 1518 991 1445T1196 1209T1260 760Q1260 468 1198 307T996 73T592 0H119V1518ZM621 279Q751 279 814 324T905 472T934 758Q934 942 906 1041T813 1182T612 1225H440V279H621Z"/><glyph unicode="ď" horiz-adv-x="1419" d="M1163 1176Q1245 1222 1263 1243T1282 1309H1163V1575H1436V1333Q1436 1250 1418 1209T1354 1133T1227 1061L1163 1176ZM442 -14Q307 -14 222 44T96 227T55 586Q55 815 98 941T230 1124T457 1182Q580 1182 647 1161T756 1094V1575H1067V10L819 -10L795 96Q747 39 662 13T442 -14ZM549 254Q627 254 672 284T736 377T756 580Q756 718 737 778T673 867T549 895Q479 895 441 867T385 777T367 580Q367 439 384 376T440 283T549 254Z"/><glyph unicode="Đ" horiz-adv-x="1315" d="M0 895H119V1518H592Q850 1518 991 1445T1196 1209T1260 760Q1260 468 1198 307T996 73T592 0H119V635H0V895ZM621 279Q751 279 814 324T905 472T934 758Q934 942 906 1041T813 1182T612 1225H440V895H655V635H440V279H621Z"/><glyph unicode="đ" horiz-adv-x="1163" d="M442 -14Q307 -14 222 44T96 227T55 586Q55 815 98 941T230 1124T457 1182Q580 1182 647 1161T756 1094V1235H551V1473H756V1575H1067V1473H1163V1235H1067V10L819 -10L795 96Q747 39 662 13T442 -14ZM549 254Q627 254 672 284T736 377T756 580Q756 718 737 778T673 867T549 895Q479 895 441 867T385 777T367 580Q367 439 384 376T440 283T549 254Z"/><glyph unicode="Ē" horiz-adv-x="1141" d="M119 1518H1055V1225H432V922H1028V631H432V287H1057V0H119V1518ZM201 1852H938V1596H201V1852Z"/><glyph unicode="ē" horiz-adv-x="1055" d="M547 -14Q366 -14 258 45T102 226T53 584Q53 804 105 930T268 1119T555 1182Q718 1182 815 1128T953 959T995 646L993 442H352Q361 364 383 325T447 268T563 250Q651 250 720 264T868 317L985 82Q804 -14 547 -14ZM721 682Q717 802 701 839T650 893T547 911Q452 911 408 868T353 722L350 682H721ZM156 1526H893V1270H156V1526Z"/><glyph unicode="Ė" horiz-adv-x="1141" d="M119 1518H1055V1225H432V922H1028V631H432V287H1057V0H119V1518ZM416 1876H727V1596H416V1876Z"/><glyph unicode="ė" horiz-adv-x="1055" d="M547 -14Q366 -14 258 45T102 226T53 584Q53 804 105 930T268 1119T555 1182Q718 1182 815 1128T953 959T995 646L993 442H352Q361 364 383 325T447 268T563 250Q651 250 720 264T868 317L985 82Q804 -14 547 -14ZM721 682Q717 802 701 839T650 893T547 911Q452 911 408 868T353 722L350 682H721ZM371 1550H682V1270H371V1550Z"/><glyph unicode="Ę" horiz-adv-x="1141" d="M119 1518H1055V1225H432V922H1028V631H432V287H1057V0H997Q862 -130 862 -219Q862 -264 885 -284T965 -305H1024V-479H936Q775 -479 715 -431T655 -268Q655 -196 692 -127T801 0H119V1518Z"/><glyph unicode="ę" horiz-adv-x="1055" d="M547 -14Q366 -14 258 45T102 226T53 584Q53 804 105 930T268 1119T555 1182Q718 1182 815 1128T953 959T995 646L993 442H352Q363 333 408 292T563 250Q651 250 720 264T868 317L985 82Q936 55 854 27Q781 -33 735 -100T688 -219Q688 -264 711 -284T791 -305H850V-479H762Q601 -479 541 -431T481 -268Q481 -132 612 -12L579 -14H547ZM547 911Q444 911 400 862T350 682H721Q717 802 701 839T650 893T547 911Z"/><glyph unicode="Ě" horiz-adv-x="1141" d="M205 1971H451L574 1809L697 1971H938L713 1596H428L205 1971ZM119 1518H1055V1225H432V922H1028V631H432V287H1057V0H119V1518Z"/><glyph unicode="ě" horiz-adv-x="1055" d="M160 1645H406L529 1483L652 1645H893L668 1270H383L160 1645ZM547 -14Q366 -14 258 45T102 226T53 584Q53 804 105 930T268 1119T555 1182Q718 1182 815 1128T953 959T995 646L993 442H352Q361 364 383 325T447 268T563 250Q651 250 720 264T868 317L985 82Q804 -14 547 -14ZM721 682Q717 802 701 839T650 893T547 911Q452 911 408 868T353 722L350 682H721Z"/><glyph unicode="Ğ" horiz-adv-x="1262" d="M645 -18Q434 -18 305 63T115 307T55 758Q55 1048 119 1214T323 1458T700 1536Q955 1536 1141 1419L971 1153Q843 1227 686 1227Q560 1227 499 1181T407 1032T377 750Q377 554 404 450T494 300T674 254Q763 254 812 284T882 381T903 588V625H608V901H1208V645Q1208 370 1157 236T986 42T645 -18ZM629 1583Q504 1583 429 1617T312 1725T252 1946L473 1979Q487 1888 519 1853T629 1817Q705 1817 737 1851T784 1979L1008 1948Q987 1798 946 1724T830 1617T629 1583Z"/><glyph unicode="ğ" d="M541 410Q475 410 417 417L414 385Q414 356 428 345T475 329T563 324Q766 324 871 297T1021 209T1067 20Q1067 -171 947 -257T543 -344Q336 -344 227 -317T69 -231T20 -68Q20 150 217 197Q156 248 156 356Q156 436 197 493Q76 585 76 786Q76 988 190 1086T541 1184L602 1182L1057 1276V1036H899Q957 996 982 934T1008 786Q1008 595 895 503T541 410ZM539 -129Q622 -129 668 -117T734 -80T754 0Q754 46 735 66T668 94T541 102Q425 102 377 77T328 -12Q328 -76 377 -102T539 -129ZM541 631Q632 631 668 669T705 780Q705 853 669 890T541 928Q453 928 416 891T379 780Q379 708 416 670T541 631ZM557 1257Q432 1257 357 1291T240 1399T180 1620L401 1653Q415 1562 447 1527T557 1491Q633 1491 665 1525T712 1653L936 1622Q915 1472 874 1398T758 1291T557 1257Z"/><glyph unicode="Ģ" horiz-adv-x="1262" d="M491 -471Q572 -427 592 -405T612 -338H493V-72H763V-313Q763 -396 745 -438T685 -514T557 -588L491 -471ZM645 -18Q434 -18 305 63T115 307T55 758Q55 1048 119 1214T323 1458T700 1536Q955 1536 1141 1419L971 1153Q843 1227 686 1227Q560 1227 499 1181T407 1032T377 750Q377 554 404 450T494 300T674 254Q763 254 812 284T882 381T903 588V625H608V901H1208V645Q1208 370 1157 236T986 42T645 -18Z"/><glyph unicode="ģ" d="M424 1509Q424 1592 442 1633T502 1708T633 1784L696 1669Q613 1621 596 1601T578 1536H694V1270H424V1509ZM541 410Q475 410 417 417L414 385Q414 356 428 345T475 329T563 324Q766 324 871 297T1021 209T1067 20Q1067 -171 947 -257T543 -344Q336 -344 227 -317T69 -231T20 -68Q20 150 217 197Q156 248 156 356Q156 436 197 493Q76 585 76 786Q76 988 190 1086T541 1184L602 1182L1057 1276V1036H899Q957 996 982 934T1008 786Q1008 595 895 503T541 410ZM539 -129Q622 -129 668 -117T734 -80T754 0Q754 46 735 66T668 94T541 102Q425 102 377 77T328 -12Q328 -76 377 -102T539 -129ZM541 631Q632 631 668 669T705 780Q705 853 669 890T541 928Q453 928 416 891T379 780Q379 708 416 670T541 631Z"/><glyph unicode="Ī" horiz-adv-x="594" d="M137 1518H457V0H137V1518ZM-71 1852H666V1596H-71V1852Z"/><glyph unicode="ī" horiz-adv-x="524" d="M106 1161H416V0H106V1161ZM-108 1526H629V1270H-108V1526Z"/><glyph unicode="Į" horiz-adv-x="594" d="M137 1518H457V0Q348 -80 311 -127T274 -219Q274 -264 297 -284T377 -305H436V-479H348Q188 -479 128 -433T68 -268Q68 -188 115 -118T250 0H137V1518Z"/><glyph unicode="į" horiz-adv-x="524" d="M106 1161H416V0Q306 -82 271 -128T236 -219Q236 -264 259 -284T336 -305H397V-479H309Q149 -479 89 -433T29 -268Q29 -188 77 -117T209 0H106V1161ZM106 1546H418V1266H106V1546Z"/><glyph unicode="İ" horiz-adv-x="594" d="M137 1518H457V0H137V1518ZM144 1876H455V1596H144V1876Z"/><glyph unicode="ı" horiz-adv-x="524" d="M106 1161H416V0H106V1161Z"/><glyph unicode="Ķ" horiz-adv-x="1309" d="M516 -471Q597 -427 617 -405T637 -338H518V-72H788V-313Q788 -396 770 -438T710 -514T582 -588L516 -471ZM119 1518H436V894L899 1518H1268L812 929L1276 0H922L596 658L436 439V0H119V1518Z"/><glyph unicode="ķ" horiz-adv-x="1071" d="M397 -471Q478 -427 498 -405T518 -338H399V-72H669V-313Q669 -396 651 -438T591 -514T463 -588L397 -471ZM98 1575H401V694L717 1161H1042L700 675L1063 0H733L498 425L401 281V0H98V1575Z"/><glyph unicode="Ĺ" horiz-adv-x="1051" d="M372 1971H714L419 1596H154L372 1971ZM119 1518H440V287H1030V0H119V1518Z"/><glyph unicode="ĺ" horiz-adv-x="600" d="M339 2044H681L386 1669H121L339 2044ZM537 0Q517 -4 424 -4Q299 -4 233 29T136 135T106 330V1575H416V373Q416 317 425 300T457 275T537 268V0Z"/><glyph unicode="Ļ" horiz-adv-x="1051" d="M387 -471Q468 -427 488 -405T508 -338H389V-72H659V-313Q659 -396 641 -438T581 -514T453 -588L387 -471ZM119 1518H440V287H1030V0H119V1518Z"/><glyph unicode="ļ" horiz-adv-x="600" d="M162 -471Q243 -427 263 -405T283 -338H164V-72H434V-313Q434 -396 416 -438T356 -514T228 -588L162 -471ZM537 0Q517 -4 424 -4Q299 -4 233 29T136 135T106 330V1575H416V373Q416 317 425 300T457 275T537 268V0Z"/><glyph unicode="Ľ" horiz-adv-x="1051" d="M553 1176Q627 1219 643 1234T666 1265T672 1309H553V1575H825V1333Q825 1250 806 1209T743 1133T616 1061L553 1176ZM119 1518H440V287H1030V0H119V1518Z"/><glyph unicode="ľ" horiz-adv-x="772" d="M514 1176Q588 1219 604 1234T627 1265T633 1309H514V1575H786V1333Q786 1251 768 1210T705 1134T578 1061L514 1176ZM537 0Q517 -4 424 -4Q299 -4 233 29T136 135T106 330V1575H416V373Q416 317 425 300T457 275T537 268V0Z"/><glyph unicode="Ł" horiz-adv-x="1051" d="M0 815L119 883V1518H440V1066L653 1188V930L440 807V287H1030V0H119V623L0 555V815Z"/><glyph unicode="ł" horiz-adv-x="723" d="M618 0Q600 -4 506 -4Q381 -4 315 29T218 135T188 330V781L41 696V967L188 1052V1575H498V1231L659 1325V1055L498 961V373Q498 317 507 300T539 275T618 268V0Z"/><glyph unicode="Ń" horiz-adv-x="1378" d="M723 1971H1065L770 1596H505L723 1971ZM119 1518H459L956 643V1518H1262V0H967L424 946V0H119V1518Z"/><glyph unicode="ń" horiz-adv-x="1151" d="M609 1645H951L656 1270H391L609 1645ZM98 1143L346 1163L369 1071Q415 1128 498 1155T721 1182Q843 1182 917 1138T1026 1006T1061 760V0H750V682Q750 775 736 812T690 868T600 887Q527 887 486 866T426 796T408 639V0H98V1143Z"/><glyph unicode="Ņ" horiz-adv-x="1378" d="M551 -471Q632 -427 652 -405T672 -338H553V-72H823V-313Q823 -396 805 -438T745 -514T617 -588L551 -471ZM119 1518H459L956 643V1518H1262V0H967L424 946V0H119V1518Z"/><glyph unicode="ņ" horiz-adv-x="1151" d="M436 -471Q517 -427 537 -405T557 -338H438V-72H708V-313Q708 -396 690 -438T630 -514T502 -588L436 -471ZM98 1143L346 1163L369 1071Q415 1128 498 1155T721 1182Q843 1182 917 1138T1026 1006T1061 760V0H750V682Q750 775 736 812T690 868T600 887Q527 887 486 866T426 796T408 639V0H98V1143Z"/><glyph unicode="Ň" horiz-adv-x="1378" d="M321 1971H567L690 1809L813 1971H1054L829 1596H544L321 1971ZM119 1518H459L956 643V1518H1262V0H967L424 946V0H119V1518Z"/><glyph unicode="ň" horiz-adv-x="1151" d="M207 1645H453L576 1483L699 1645H940L715 1270H430L207 1645ZM98 1143L346 1163L369 1071Q415 1128 498 1155T721 1182Q843 1182 917 1138T1026 1006T1061 760V0H750V682Q750 775 736 812T690 868T600 887Q527 887 486 866T426 796T408 639V0H98V1143Z"/><glyph unicode="Ō" horiz-adv-x="1368" d="M313 1852H1050V1596H313V1852ZM684 -18Q469 -18 330 60T123 302T55 758Q55 1053 123 1217T330 1459T684 1536Q898 1536 1037 1459T1244 1219T1313 758Q1313 465 1246 301T1039 60T684 -18ZM684 266Q797 266 862 312T957 452T987 748Q987 948 958 1041T862 1181T684 1227Q571 1227 506 1181T411 1041T381 748Q381 546 410 452T506 312T684 266Z"/><glyph unicode="ō" horiz-adv-x="1128" d="M192 1526H929V1270H192V1526ZM565 -18Q383 -18 271 45T106 237T53 584Q53 807 105 932T271 1120T565 1182Q746 1182 858 1120T1022 934T1075 584Q1075 355 1023 230T860 43T565 -18ZM565 252Q640 252 683 281T745 371T764 573Q764 714 745 774T684 864T565 893Q489 893 447 864T386 775T367 573Q367 434 385 373T446 282T565 252Z"/><glyph unicode="Ő" horiz-adv-x="1368" d="M532 1971H850L563 1596H325L532 1971ZM956 1971H1271L985 1596H749L956 1971ZM684 -18Q469 -18 330 60T123 302T55 758Q55 1053 123 1217T330 1459T684 1536Q898 1536 1037 1459T1244 1219T1313 758Q1313 465 1246 301T1039 60T684 -18ZM684 266Q797 266 862 312T957 452T987 748Q987 948 958 1041T862 1181T684 1227Q571 1227 506 1181T411 1041T381 748Q381 546 410 452T506 312T684 266Z"/><glyph unicode="ő" horiz-adv-x="1128" d="M411 1645H729L442 1270H204L411 1645ZM835 1645H1150L864 1270H628L835 1645ZM565 -18Q383 -18 271 45T106 237T53 584Q53 807 105 932T271 1120T565 1182Q746 1182 858 1120T1022 934T1075 584Q1075 355 1023 230T860 43T565 -18ZM565 252Q640 252 683 281T745 371T764 573Q764 714 745 774T684 864T565 893Q489 893 447 864T386 775T367 573Q367 434 385 373T446 282T565 252Z"/><glyph unicode="Œ" horiz-adv-x="2013" d="M1022 1518H1927V1225H1305V918H1898V631H1305V287H1927V0H1022V65Q889 -18 684 -18Q469 -18 330 60T123 302T55 758Q55 1053 123 1217T330 1459T684 1536Q885 1536 1022 1453V1518ZM684 266Q797 266 862 312T957 452T987 748Q987 948 958 1041T862 1181T684 1227Q571 1227 506 1181T411 1041T381 748Q381 546 410 452T506 312T684 266Z"/><glyph unicode="œ" horiz-adv-x="1776" d="M565 -18Q383 -18 271 45T106 237T53 584Q53 807 105 932T271 1120T565 1182Q806 1182 925 1058Q1046 1182 1276 1182Q1437 1182 1535 1127T1674 955T1716 642L1714 442H1075Q1084 358 1106 321T1171 267T1284 250Q1372 250 1441 264T1589 317L1706 82Q1611 31 1505 9T1268 -14Q1039 -14 921 98Q799 -18 565 -18ZM565 252Q640 252 683 281T745 371T764 573Q764 714 745 774T684 864T565 893Q489 893 447 864T386 775T367 573Q367 434 385 373T446 282T565 252ZM1442 682Q1438 802 1422 839T1371 893T1270 911Q1168 911 1124 862T1073 682H1442Z"/><glyph unicode="Ŕ" horiz-adv-x="1278" d="M674 1971H1016L721 1596H456L674 1971ZM119 1518H698Q953 1518 1075 1400T1198 1034Q1198 670 945 554L1188 0H852L634 508H434V0H119V1518ZM690 788Q797 788 841 840T885 1012Q885 1134 840 1184T690 1235H434V788H690Z"/><glyph unicode="ŕ" horiz-adv-x="707" d="M391 1645H733L438 1270H173L391 1645ZM98 1143L344 1163L371 1055Q419 1118 497 1144T694 1171V879Q585 878 525 850T437 766T410 582V0H98V1143Z"/><glyph unicode="Ŗ" horiz-adv-x="1278" d="M502 -471Q583 -427 603 -405T623 -338H504V-72H774V-313Q774 -396 756 -438T696 -514T568 -588L502 -471ZM119 1518H698Q953 1518 1075 1400T1198 1034Q1198 670 945 554L1188 0H852L634 508H434V0H119V1518ZM690 788Q797 788 841 840T885 1012Q885 1134 840 1184T690 1235H434V788H690Z"/><glyph unicode="ŗ" horiz-adv-x="707" d="M374 -471Q455 -427 475 -405T495 -338H376V-72H646V-313Q646 -396 628 -438T568 -514T440 -588L374 -471ZM98 1143L344 1163L371 1055Q419 1118 497 1144T694 1171V879Q585 878 525 850T437 766T410 582V0H98V1143Z"/><glyph unicode="Ř" horiz-adv-x="1278" d="M272 1971H518L641 1809L764 1971H1005L780 1596H495L272 1971ZM119 1518H698Q953 1518 1075 1400T1198 1034Q1198 670 945 554L1188 0H852L634 508H434V0H119V1518ZM690 788Q797 788 841 840T885 1012Q885 1134 840 1184T690 1235H434V788H690Z"/><glyph unicode="ř" horiz-adv-x="707" d="M-11 1645H235L358 1483L481 1645H722L497 1270H212L-11 1645ZM98 1143L344 1163L371 1055Q419 1118 497 1144T694 1171V879Q585 878 525 850T437 766T410 582V0H98V1143Z"/><glyph unicode="Ś" horiz-adv-x="1194" d="M631 1971H973L678 1596H413L631 1971ZM600 -18Q235 -18 27 119L188 365Q265 316 370 286T592 256Q714 256 768 292T823 412Q823 462 809 493T758 548T660 593T506 643Q279 712 187 814T94 1090Q94 1306 227 1421T618 1536Q758 1536 867 1514T1083 1442L944 1167Q803 1235 627 1235Q511 1235 460 1204T408 1100Q408 1053 425 1025T485 973T649 911Q873 840 966 781T1097 637T1135 418Q1135 203 998 93T600 -18Z"/><glyph unicode="ś" horiz-adv-x="930" d="M759 1645H1101L806 1270H541L759 1645ZM473 -14Q179 -14 16 72L135 311Q210 275 298 256T473 236Q539 236 570 257T602 326Q602 360 585 380T524 420T377 473Q239 520 177 564T87 671T59 825Q59 1182 494 1182Q608 1182 686 1170T854 1120L735 864Q619 913 481 913Q412 913 383 895T354 831Q354 790 393 765T555 700Q702 653 767 608T862 497T891 330Q891 -14 473 -14Z"/><glyph unicode="Ş" horiz-adv-x="1194" d="M600 -18Q235 -18 27 119L188 365Q265 316 370 286T592 256Q714 256 768 292T823 412Q823 462 809 493T758 548T660 593T506 643Q279 712 187 814T94 1090Q94 1306 227 1421T618 1536Q758 1536 867 1514T1083 1442L944 1167Q803 1235 627 1235Q511 1235 460 1204T408 1100Q408 1053 425 1025T485 973T649 911Q873 840 966 781T1097 637T1135 418Q1135 203 998 93T600 -18ZM608 -498Q478 -498 366 -444L432 -301Q514 -332 585 -332Q645 -332 666 -314T688 -254Q688 -217 670 -201T608 -184L540 -186L487 -147L520 14H688L669 -86L699 -85Q799 -85 843 -132T887 -276Q887 -396 823 -447T608 -498Z"/><glyph unicode="ş" horiz-adv-x="930" d="M473 -14Q179 -14 16 72L135 311Q210 275 298 256T473 236Q539 236 570 257T602 326Q602 360 585 380T524 420T377 473Q239 520 177 564T87 671T59 825Q59 1182 494 1182Q608 1182 686 1170T854 1120L735 864Q619 913 481 913Q412 913 383 895T354 831Q354 790 393 765T555 700Q702 653 767 608T862 497T891 330Q891 -14 473 -14ZM736 -498Q606 -498 494 -444L560 -301Q642 -332 713 -332Q773 -332 794 -314T816 -254Q816 -217 798 -201T736 -184L668 -186L615 -147L648 14H816L797 -86L827 -85Q927 -85 971 -132T1015 -276Q1015 -396 951 -447T736 -498Z"/><glyph unicode="Š" horiz-adv-x="1194" d="M229 1971H475L598 1809L721 1971H962L737 1596H452L229 1971ZM600 -18Q235 -18 27 119L188 365Q265 316 370 286T592 256Q714 256 768 292T823 412Q823 462 809 493T758 548T660 593T506 643Q279 712 187 814T94 1090Q94 1306 227 1421T618 1536Q758 1536 867 1514T1083 1442L944 1167Q803 1235 627 1235Q511 1235 460 1204T408 1100Q408 1053 425 1025T485 973T649 911Q873 840 966 781T1097 637T1135 418Q1135 203 998 93T600 -18Z"/><glyph unicode="š" horiz-adv-x="930" d="M357 1645H603L726 1483L849 1645H1090L865 1270H580L357 1645ZM473 -14Q179 -14 16 72L135 311Q210 275 298 256T473 236Q539 236 570 257T602 326Q602 360 585 380T524 420T377 473Q239 520 177 564T87 671T59 825Q59 1182 494 1182Q608 1182 686 1170T854 1120L735 864Q619 913 481 913Q412 913 383 895T354 831Q354 790 393 765T555 700Q702 653 767 608T862 497T891 330Q891 -14 473 -14Z"/><glyph unicode="Ţ" horiz-adv-x="1186" d="M455 -471Q536 -427 556 -405T576 -338H457V-72H727V-313Q727 -396 709 -438T649 -514T521 -588L455 -471ZM430 1225H23V1518H1163V1225H754V0H430V1225Z"/><glyph unicode="ţ" horiz-adv-x="850" d="M244 -471Q325 -427 345 -405T365 -338H246V-72H516V-313Q516 -396 498 -438T438 -514T310 -588L244 -471ZM25 1161H221L268 1421L514 1477V1161H778V891H514V391Q514 332 526 310T567 278T645 268H778V0L689 -6L606 -10Q453 -10 368 24T245 134T207 354V891H25V1161Z"/><glyph unicode="Ť" horiz-adv-x="1186" d="M225 1971H471L594 1809L717 1971H958L733 1596H448L225 1971ZM430 1225H23V1518H1163V1225H754V0H430V1225Z"/><glyph unicode="ť" horiz-adv-x="850" d="M606 1386Q660 1416 684 1435T717 1470T725 1520H606V1786H879V1546Q879 1466 861 1424T799 1347T670 1272L606 1386ZM25 1161H221L268 1421L514 1477V1161H778V891H514V391Q514 332 526 310T567 278T645 268H778V0L689 -6L606 -10Q453 -10 368 24T245 134T207 354V891H25V1161Z"/><glyph unicode="Ū" horiz-adv-x="1368" d="M684 -23Q384 -23 247 107T109 532V1518H430V563Q430 391 487 329T688 266Q788 266 843 294T923 383T948 563V1518H1260V532Q1260 236 1123 107T684 -23ZM311 1852H1048V1596H311V1852Z"/><glyph unicode="ū" horiz-adv-x="1130" d="M565 -16Q383 -16 281 30T135 178T90 475V1161H401V492Q401 370 416 332T466 276T569 258Q635 258 670 277T720 337T735 494V1161H1040V475Q1040 274 996 174T849 29T565 -16ZM195 1526H932V1270H195V1526Z"/><glyph unicode="Ů" horiz-adv-x="1368" d="M680 1577Q557 1577 493 1646T428 1852Q428 1990 493 2060T680 2130Q802 2130 868 2059T934 1852Q934 1719 869 1648T680 1577ZM680 1725Q733 1725 756 1755T780 1852Q780 1921 756 1951T680 1981Q579 1981 579 1852Q579 1788 603 1757T680 1725ZM684 -23Q384 -23 247 107T109 532V1518H430V563Q430 391 487 329T688 266Q788 266 843 294T923 383T948 563V1518H1260V532Q1260 236 1123 107T684 -23Z"/><glyph unicode="ů" horiz-adv-x="1130" d="M564 1251Q441 1251 377 1320T312 1526Q312 1664 377 1734T564 1804Q686 1804 752 1733T818 1526Q818 1393 753 1322T564 1251ZM564 1399Q617 1399 640 1429T664 1526Q664 1595 640 1625T564 1655Q463 1655 463 1526Q463 1462 487 1431T564 1399ZM565 -16Q383 -16 281 30T135 178T90 475V1161H401V492Q401 370 416 332T466 276T569 258Q635 258 670 277T720 337T735 494V1161H1040V475Q1040 274 996 174T849 29T565 -16Z"/><glyph unicode="Ű" horiz-adv-x="1368" d="M684 -23Q384 -23 247 107T109 532V1518H430V563Q430 391 487 329T688 266Q788 266 843 294T923 383T948 563V1518H1260V532Q1260 236 1123 107T684 -23ZM530 1971H848L561 1596H323L530 1971ZM954 1971H1269L983 1596H747L954 1971Z"/><glyph unicode="ű" horiz-adv-x="1130" d="M565 -16Q383 -16 281 30T135 178T90 475V1161H401V492Q401 370 416 332T466 276T569 258Q635 258 670 277T720 337T735 494V1161H1040V475Q1040 274 996 174T849 29T565 -16ZM414 1645H732L445 1270H207L414 1645ZM838 1645H1153L867 1270H631L838 1645Z"/><glyph unicode="Ų" horiz-adv-x="1368" d="M743 -479Q583 -479 523 -433T463 -268Q463 -133 588 -18Q339 0 224 130T109 532V1518H430V563Q430 391 487 329T688 266Q788 266 843 294T923 383T948 563V1518H1260V532Q1260 260 1145 130T786 -18Q670 -132 670 -219Q670 -264 693 -284T772 -305H831V-479H743Z"/><glyph unicode="ų" horiz-adv-x="1130" d="M625 -479Q464 -479 404 -431T344 -268Q344 -132 475 -12Q331 -3 248 47T127 196T90 475V1161H401V492Q401 370 416 332T466 276T569 258Q635 258 670 277T720 337T735 494V1161H1040V475Q1040 295 1005 198T892 51T674 -12Q551 -133 551 -219Q551 -264 574 -284T653 -305H713V-479H625Z"/><glyph unicode="Ÿ" horiz-adv-x="1282" d="M-4 1518H338L645 856L954 1518H1284L799 510V0H479V514L-4 1518ZM303 1870H577V1596H303V1870ZM704 1870H977V1596H704V1870Z"/><glyph unicode="Ź" horiz-adv-x="1155" d="M613 1971H955L660 1596H395L613 1971ZM47 242L702 1225H76V1518H1085V1253L436 287H1104V0H47V242Z"/><glyph unicode="ź" horiz-adv-x="915" d="M751 1645H1093L798 1270H533L751 1645ZM25 205L487 891H53V1161H877V952L410 252H895V0H25V205Z"/><glyph unicode="Ż" horiz-adv-x="1155" d="M47 242L702 1225H76V1518H1085V1253L436 287H1104V0H47V242ZM422 1876H733V1596H422V1876Z"/><glyph unicode="ż" horiz-adv-x="915" d="M25 205L487 891H53V1161H877V952L410 252H895V0H25V205ZM560 1550H871V1270H560V1550Z"/><glyph unicode="Ž" horiz-adv-x="1155" d="M211 1971H457L580 1809L703 1971H944L719 1596H434L211 1971ZM47 242L702 1225H76V1518H1085V1253L436 287H1104V0H47V242Z"/><glyph unicode="ž" horiz-adv-x="915" d="M349 1645H595L718 1483L841 1645H1082L857 1270H572L349 1645ZM25 205L487 891H53V1161H877V952L410 252H895V0H25V205Z"/><glyph unicode="ƒ" horiz-adv-x="1038" d="M133 942H336L369 1161Q392 1310 437 1380T563 1484T776 1518Q842 1518 907 1513V1245H805Q744 1245 717 1221T680 1126L651 942H907V674H610L455 -324H145L295 674H133V942Z"/><glyph unicode="Ș" horiz-adv-x="0"/><glyph unicode="ș" horiz-adv-x="0"/><glyph unicode="Ț" horiz-adv-x="1186" d="M455 -471Q536 -427 556 -405T576 -338H457V-72H727V-313Q727 -396 709 -438T649 -514T521 -588L455 -471ZM430 1225H23V1518H1163V1225H754V0H430V1225Z"/><glyph unicode="ț" horiz-adv-x="850" d="M244 -471Q325 -427 345 -405T365 -338H246V-72H516V-313Q516 -396 498 -438T438 -514T310 -588L244 -471ZM25 1161H221L268 1421L514 1477V1161H778V891H514V391Q514 332 526 310T567 278T645 268H778V0L689 -6L606 -10Q453 -10 368 24T245 134T207 354V891H25V1161Z"/><glyph unicode="ˆ" horiz-adv-x="997" d="M356 1645H641L866 1270H621L496 1432L373 1270H133L356 1645Z"/><glyph unicode="ˇ" horiz-adv-x="997" d="M133 1645H379L502 1483L625 1645H866L641 1270H356L133 1645Z"/><glyph unicode="˘" horiz-adv-x="997" d="M498 1257Q373 1257 298 1291T181 1399T121 1620L342 1653Q356 1562 388 1527T498 1491Q574 1491 606 1525T653 1653L877 1622Q856 1472 815 1398T699 1291T498 1257Z"/><glyph unicode="˙" horiz-adv-x="997" d="M344 1550H655V1270H344V1550Z"/><glyph unicode="˚" horiz-adv-x="997" d="M498 1251Q375 1251 311 1320T246 1526Q246 1664 311 1734T498 1804Q620 1804 686 1733T752 1526Q752 1393 687 1322T498 1251ZM498 1399Q551 1399 574 1429T598 1526Q598 1595 574 1625T498 1655Q397 1655 397 1526Q397 1462 421 1431T498 1399Z"/><glyph unicode="˛" horiz-adv-x="997" d="M555 -479Q394 -479 334 -431T274 -268Q274 -179 333 -94T489 47H672Q579 -30 530 -98T481 -219Q481 -264 504 -284T584 -305H643V-479H555Z"/><glyph unicode="˜" horiz-adv-x="997" d="M61 1372Q121 1489 192 1543T360 1597Q401 1597 435 1583T499 1553T554 1523T602 1509Q634 1509 663 1532T731 1608L928 1493Q868 1376 798 1321T631 1266Q589 1266 554 1279T490 1309T435 1338T389 1352Q357 1352 327 1331T260 1257L61 1372Z"/><glyph unicode="˝" horiz-adv-x="997" d="M348 1645H666L379 1270H141L348 1645ZM772 1645H1087L801 1270H565L772 1645Z"/><glyph unicode="̄" horiz-adv-x="997" d="M129 1526H866V1270H129V1526Z"/><glyph unicode="̦" horiz-adv-x="532" d="M129 -471Q210 -427 230 -405T250 -338H131V-72H401V-313Q401 -396 383 -438T323 -514T195 -588L129 -471Z"/><glyph unicode="Δ" horiz-adv-x="0"/><glyph unicode="Ω" horiz-adv-x="0"/><glyph unicode="μ" horiz-adv-x="1137" d="M98 1161H410V492Q410 371 424 332T473 276T575 258Q642 258 678 276T728 336T743 494V1161H1047V475Q1047 276 1005 176T865 30T588 -16Q533 -16 481 -3T408 33V-324H98V1161Z"/><glyph unicode="π" horiz-adv-x="0"/><glyph unicode="–" horiz-adv-x="1276" d="M61 823H1214V541H61V823Z"/><glyph unicode="—" horiz-adv-x="1636" d="M61 823H1577V541H61V823Z"/><glyph unicode="‘" horiz-adv-x="532" d="M90 1137Q90 1253 111 1312T183 1417T352 1520L436 1364Q338 1311 313 1281T287 1190H442V815H90V1137Z"/><glyph unicode="’" horiz-adv-x="532" d="M96 969Q194 1022 220 1052T246 1143H90V1518H442V1198Q442 1076 421 1017T347 912T182 813L96 969Z"/><glyph unicode="‚" horiz-adv-x="532" d="M96 -174Q194 -121 220 -91T246 0H90V375H442V55Q442 -67 421 -126T347 -231T182 -330L96 -174Z"/><glyph unicode="“" horiz-adv-x="973" d="M90 1153Q90 1267 110 1323T180 1421T346 1520L426 1372Q333 1321 307 1291T281 1200H434V834H90V1153ZM541 1153Q541 1270 560 1324T629 1421T795 1520L877 1372Q781 1319 755 1289T729 1200H883V834H541V1153Z"/><glyph unicode="”" horiz-adv-x="973" d="M96 979Q187 1028 215 1059T244 1149H90V1518H432V1198Q432 1078 412 1023T340 925T178 831L96 979ZM549 979Q636 1025 664 1056T692 1149H539V1518H883V1198Q883 1082 863 1026T794 928T627 831L549 979Z"/><glyph unicode="„" horiz-adv-x="973" d="M96 -164Q187 -115 215 -84T244 6H90V375H432V55Q432 -64 412 -119T341 -216T178 -311L96 -164ZM549 -164Q636 -118 664 -87T692 6H539V375H883V55Q883 -60 863 -116T795 -213T627 -311L549 -164Z"/><glyph unicode="†" horiz-adv-x="1049" d="M371 836H76V1122H371V1575H678V1122H973V836H678V-324H371V836Z"/><glyph unicode="‡" horiz-adv-x="1049" d="M371 137H76V424H371V838H76V1124H371V1575H678V1124H973V838H678V424H973V137H678V-324H371V137Z"/><glyph unicode="•" horiz-adv-x="692" d="M147 860H545V385H147V860Z"/><glyph unicode="…" horiz-adv-x="1532" d="M90 367H442V0H90V367ZM590 367H942V0H590V367ZM1092 367H1442V0H1092V367Z"/><glyph unicode="‰" horiz-adv-x="3076" d="M465 528Q249 528 151 648T53 1030Q53 1292 151 1412T465 1532Q683 1532 782 1412T881 1030Q881 769 782 649T465 528ZM467 758Q546 758 576 816T606 1022Q606 1168 577 1227T467 1286Q388 1286 358 1228T328 1022Q328 874 358 816T467 758ZM1716 -14Q1502 -14 1404 104T1305 489Q1305 752 1403 871T1716 991Q1934 991 2033 872T2132 489Q2132 225 2033 106T1716 -14ZM1718 215Q1798 215 1829 272T1860 479Q1860 630 1829 686T1718 743Q1639 743 1609 685T1579 479Q1579 333 1608 274T1718 215ZM1300 1518H1587L887 0H602L1300 1518ZM2609 -14Q2395 -14 2297 104T2198 489Q2198 752 2296 871T2609 991Q2827 991 2926 870T3025 489Q3025 228 2926 107T2609 -14ZM2611 215Q2690 215 2720 272T2750 479Q2750 632 2720 687T2611 743Q2532 743 2502 685T2472 479Q2472 333 2501 274T2611 215Z"/><glyph unicode="‹" horiz-adv-x="842" d="M129 580L385 1161H666L432 580L666 0H385L129 580Z"/><glyph unicode="›" horiz-adv-x="842" d="M410 582L176 1161H457L713 582L457 0H176L410 582Z"/><glyph unicode="⁄" horiz-adv-x="0"/><glyph unicode="€" horiz-adv-x="1247" d="M47 705H242V811H47V1030H256Q287 1299 412 1417T795 1536Q1027 1536 1192 1440L1047 1178Q993 1205 934 1221T793 1237Q692 1237 640 1188T569 1030H918V811H553V705H918V485H570Q590 371 643 320T793 268Q876 268 937 288T1051 336L1190 88Q1083 28 984 5T772 -18Q529 -18 408 100T256 485H47V705Z"/><glyph unicode="™" horiz-adv-x="1876" d="M840 1518H1098L1282 911L1464 1518H1724V547H1503V1090L1350 547H1204L1049 1090V547H840V1518ZM307 1311H63V1518H782V1311H537V547H307V1311Z"/><glyph unicode="Ω" horiz-adv-x="0"/><glyph unicode="∂" horiz-adv-x="0"/><glyph unicode="∆" horiz-adv-x="0"/><glyph unicode="∏" horiz-adv-x="0"/><glyph unicode="∑" horiz-adv-x="0"/><glyph unicode="−" horiz-adv-x="0"/><glyph unicode="∕" horiz-adv-x="0"/><glyph unicode="∙" horiz-adv-x="532" d="M90 944H442V569H90V944Z"/><glyph unicode="√" horiz-adv-x="0"/><glyph unicode="∞" horiz-adv-x="0"/><glyph unicode="∫" horiz-adv-x="0"/><glyph unicode="≈" horiz-adv-x="0"/><glyph unicode="≠" horiz-adv-x="0"/><glyph unicode="≤" horiz-adv-x="0"/><glyph unicode="≥" horiz-adv-x="0"/><glyph unicode="◊" horiz-adv-x="0"/><glyph unicode="" horiz-adv-x="0"/><glyph unicode="ﬀ" horiz-adv-x="1411" d="M825 891H522V0H213V891H25V1161H213V1255Q213 1612 618 1612H682L725 1610V1341H649Q578 1341 550 1317T522 1221V1161H825V1255Q825 1612 1233 1612Q1345 1612 1401 1608V1341H1262Q1189 1341 1162 1315T1135 1221V1161H1401V891H1135V0H825V891Z"/><glyph unicode="ﬁ" horiz-adv-x="1243" d="M25 1161H213V1255Q213 1612 618 1612H682L725 1610V1341H649Q578 1341 550 1317T522 1221V1161H725V891H522V0H213V891H25V1161ZM825 1161H1135V0H825V1161ZM825 1546H1137V1266H825V1546Z"/><glyph unicode="ﬂ" horiz-adv-x="1319" d="M25 1161H213V1255Q213 1612 618 1612H682L725 1610V1341H649Q578 1341 550 1317T522 1221V1161H725V891H522V0H213V891H25V1161ZM1255 0Q1237 -4 1143 -4Q1018 -4 952 29T855 135T825 330V1575H1135V373Q1135 317 1144 300T1176 275T1255 268V0Z"/><glyph unicode="ﬃ" horiz-adv-x="1855" d="M825 891H522V0H213V891H25V1161H213V1255Q213 1612 618 1612H682L725 1610V1341H649Q578 1341 550 1317T522 1221V1161H825V1255Q825 1612 1233 1612H1295L1337 1610V1341H1262Q1189 1341 1162 1315T1135 1221V1161H1337V891H1135V0H825V891ZM1440 1161H1749V0H1440V1161ZM1438 1546H1751V1266H1438V1546Z"/><glyph unicode="ﬄ" horiz-adv-x="1933" d="M825 891H522V0H213V891H25V1161H213V1255Q213 1612 618 1612H682L725 1610V1341H649Q578 1341 550 1317T522 1221V1161H825V1255Q825 1612 1233 1612H1295L1337 1610V1341H1262Q1189 1341 1162 1315T1135 1221V1161H1337V891H1135V0H825V891ZM1870 0Q1852 -4 1755 -4Q1632 -4 1567 29T1471 133T1440 330V1575H1749V373Q1749 314 1758 298T1791 275T1870 268V0Z"/></font>
</defs>
</svg>
