<?xml version="1.0" standalone="yes"?><svg version="1.1" xmlns = 'http://www.w3.org/2000/svg'><defs><font id='web' horiz-adv-x="1000">
<font-face font-family="web" descent="-367" cap-height="1518" units-per-em="2048" bbox="-186,-633,3422,2564" x-height="1153" ascent="1622" />
<missing-glyph horiz-adv-x="1024" d="" /><glyph horiz-adv-x="1507" d="M 86 791 L 1421 791 L 1421 535 L 86 535 L 86 791 Z" unicode="–" />
<glyph horiz-adv-x="1950" d="M 86 791 L 1866 791 L 1866 535 L 86 535 L 86 791 Z" unicode="—" />
<glyph horiz-adv-x="573" d="M 121 1104 C 121 1197 128 1266 143 1310 C 157 1354 182 1393 217 1425 C 252 1457 306 1490 379 1524 L 449 1380 C 382 1347 340 1319 322 1297 C 304 1275 295 1242 295 1198 L 451 1198 L 451 860 L 121 860 L 121 1104 Z" unicode="‘" />
<glyph horiz-adv-x="573" d="M 125 997 C 191 1028 233 1055 251 1077 C 269 1099 279 1132 279 1178 L 121 1178 L 121 1518 L 451 1518 L 451 1274 C 451 1178 444 1107 430 1063 C 416 1019 391 981 356 949 C 320 917 267 886 195 854 L 125 997 Z" unicode="’" />
<glyph horiz-adv-x="573" d="M 125 -166 C 169 -144 202 -126 222 -111 C 242 -95 257 -79 266 -61 C 274 -43 279 -16 279 18 L 121 18 L 121 356 L 451 356 L 451 111 C 451 19 443 -48 428 -94 C 412 -140 387 -179 351 -212 C 315 -245 263 -277 195 -307 L 125 -166 Z" unicode="‚" />
<glyph horiz-adv-x="1030" d="M 121 1110 C 121 1200 128 1267 142 1311 C 156 1355 181 1392 217 1424 C 252 1456 304 1487 373 1518 L 440 1380 C 377 1349 336 1323 318 1301 C 300 1279 291 1246 291 1202 L 444 1202 L 444 870 L 121 870 L 121 1110 Z M 588 1110 C 588 1198 595 1265 609 1309 C 623 1353 647 1390 681 1422 C 715 1454 767 1486 838 1518 L 905 1380 C 842 1349 801 1323 783 1301 C 765 1279 756 1246 756 1202 L 909 1202 L 909 870 L 588 870 L 588 1110 Z" unicode="“" />
<glyph horiz-adv-x="1030" d="M 125 1008 C 190 1041 231 1068 248 1090 C 265 1111 274 1144 274 1188 L 121 1188 L 121 1518 L 444 1518 L 444 1280 C 444 1189 436 1122 422 1078 C 408 1034 383 996 348 964 C 312 932 260 901 190 870 L 125 1008 Z M 590 1008 C 657 1042 699 1070 716 1092 C 732 1113 741 1145 741 1188 L 588 1188 L 588 1518 L 909 1518 L 909 1280 C 909 1190 902 1124 888 1080 C 874 1036 850 998 816 966 C 782 934 729 902 659 870 L 590 1008 Z" unicode="”" />
<glyph horiz-adv-x="1030" d="M 125 -162 C 185 -133 225 -108 245 -86 C 264 -64 274 -29 274 18 L 121 18 L 121 348 L 444 348 L 444 111 C 444 23 436 -43 421 -89 C 405 -134 380 -173 344 -206 C 308 -238 256 -269 190 -299 L 125 -162 Z M 590 -162 C 652 -132 693 -106 712 -84 C 731 -62 741 -28 741 18 L 588 18 L 588 348 L 909 348 L 909 111 C 909 23 901 -42 886 -88 C 870 -134 845 -173 810 -206 C 774 -238 724 -269 659 -299 L 590 -162 Z" unicode="„" />
<glyph horiz-adv-x="451" d="" unicode=" " />
<glyph horiz-adv-x="801" d="M 233 332 L 565 332 L 565 0 L 233 0 L 233 332 Z M 248 1518 L 555 1518 L 524 465 L 274 465 L 248 1518 Z" unicode="!" />
<glyph horiz-adv-x="1133" d="M 182 1518 L 471 1518 L 455 842 L 201 842 L 182 1518 Z M 662 1518 L 952 1518 L 934 842 L 680 842 L 662 1518 Z" unicode="&#x22;" />
<glyph horiz-adv-x="1610" d="M 350 385 L 121 385 L 121 633 L 395 633 L 436 844 L 121 844 L 121 1096 L 483 1096 L 567 1518 L 834 1518 L 750 1096 L 985 1096 L 1067 1518 L 1333 1518 L 1253 1096 L 1491 1096 L 1491 844 L 1206 844 L 1165 633 L 1491 633 L 1491 385 L 1118 385 L 1044 0 L 776 0 L 850 385 L 616 385 L 543 0 L 274 0 L 350 385 Z M 915 618 L 963 860 L 686 860 L 639 618 L 915 618 Z" unicode="#" />
<glyph horiz-adv-x="1395" d="M 573 1661 L 831 1661 L 831 1514 C 917 1504 988 1491 1045 1473 C 1101 1455 1155 1431 1206 1401 L 1083 1190 C 1038 1218 980 1240 910 1257 C 840 1273 770 1282 700 1282 C 602 1282 532 1268 488 1240 C 444 1212 422 1165 422 1100 C 422 1060 431 1027 449 1003 C 467 979 496 959 535 944 C 573 928 654 910 776 889 C 892 869 979 848 1037 824 C 1095 800 1141 773 1175 741 C 1209 709 1234 670 1252 624 C 1269 578 1278 523 1278 461 C 1278 325 1241 220 1167 145 C 1093 70 981 24 831 7 L 831 -193 L 573 -193 L 573 4 C 459 15 364 33 288 59 C 212 85 144 118 84 160 L 209 358 C 282 312 356 278 432 258 C 507 237 591 227 684 227 C 799 227 882 243 934 276 C 986 308 1012 362 1012 438 C 1012 482 1002 517 984 544 C 965 570 935 592 895 608 C 854 624 779 641 670 659 C 552 677 463 697 403 719 C 343 741 296 769 261 802 C 225 835 199 875 181 921 C 163 967 154 1022 154 1085 C 154 1216 187 1317 255 1387 C 323 1457 429 1500 573 1514 L 573 1661 Z" unicode="$" />
<glyph horiz-adv-x="2484" d="M 541 549 C 387 549 271 592 191 678 C 111 764 72 886 72 1044 C 72 1202 112 1325 192 1412 C 272 1498 389 1542 541 1542 C 690 1542 804 1498 883 1411 C 961 1324 1001 1202 1001 1044 C 1001 886 961 764 883 678 C 804 592 690 549 541 549 Z M 541 764 C 610 764 662 786 698 831 C 734 875 752 946 752 1044 C 752 1228 681 1321 541 1321 C 396 1321 324 1228 324 1044 C 324 948 342 877 379 832 C 415 786 469 764 541 764 Z M 1946 -20 C 1794 -20 1679 23 1600 110 C 1520 197 1481 320 1481 479 C 1481 637 1520 759 1600 846 C 1680 933 1795 977 1946 977 C 2095 977 2210 933 2290 847 C 2370 760 2410 637 2410 479 C 2410 319 2370 196 2291 110 C 2211 23 2096 -20 1946 -20 Z M 1946 197 C 2018 197 2071 219 2106 265 C 2141 311 2159 382 2159 479 C 2159 662 2088 754 1946 754 C 1874 754 1820 731 1785 686 C 1750 640 1733 571 1733 479 C 1733 383 1750 312 1785 266 C 1819 220 1873 197 1946 197 Z M 1534 1520 L 1796 1520 L 946 0 L 686 0 L 1534 1520 Z" unicode="%" />
<glyph horiz-adv-x="1706" d="M 647 -20 C 443 -20 297 14 210 84 C 123 154 80 266 80 422 C 80 490 92 551 117 603 C 142 655 176 702 219 743 C 262 783 320 822 393 858 C 345 970 322 1071 322 1163 C 322 1284 356 1377 425 1443 C 493 1509 593 1542 723 1542 C 851 1542 945 1511 1006 1449 C 1067 1387 1098 1291 1098 1163 C 1098 1079 1071 1005 1019 940 C 967 875 879 814 757 756 C 843 638 949 528 1077 426 C 1112 480 1144 547 1173 627 C 1202 706 1232 801 1264 913 L 1499 856 C 1434 605 1362 419 1283 299 L 1308 289 C 1380 260 1462 246 1554 246 L 1571 246 L 1571 0 L 1544 0 C 1440 0 1353 8 1284 25 C 1215 41 1152 66 1095 98 C 1028 54 959 24 887 6 C 815 -11 735 -20 647 -20 Z M 505 653 L 482 637 C 395 577 352 507 352 426 C 352 365 361 320 381 292 C 400 264 431 242 473 228 C 515 214 573 207 647 207 C 738 207 815 221 878 249 C 718 383 594 517 505 653 Z M 854 1163 C 854 1210 844 1246 826 1270 C 807 1294 773 1307 723 1307 C 673 1307 637 1294 617 1270 C 596 1246 586 1210 586 1163 C 586 1099 605 1026 645 943 C 720 979 774 1014 806 1050 C 838 1085 854 1123 854 1163 Z" unicode="&#x26;" />
<glyph horiz-adv-x="655" d="M 182 1520 L 471 1520 L 455 842 L 201 842 L 182 1520 Z" unicode="'" />
<glyph horiz-adv-x="1044" d="M 641 -389 C 557 -317 483 -230 419 -126 C 355 -22 304 92 268 219 C 231 346 213 480 213 621 C 213 745 230 870 265 997 C 300 1124 351 1245 419 1360 C 487 1475 561 1566 641 1634 L 844 1499 C 721 1368 633 1230 580 1086 C 526 942 500 787 500 621 C 500 448 529 286 589 134 C 648 -18 733 -147 844 -254 L 641 -389 Z" unicode="(" />
<glyph horiz-adv-x="1044" d="M 203 -254 C 322 -128 409 6 463 150 C 517 294 545 451 545 621 C 545 790 515 952 455 1107 C 395 1261 311 1392 203 1499 L 401 1634 C 488 1560 564 1470 628 1366 C 692 1261 743 1145 779 1019 C 815 892 834 759 834 621 C 834 495 816 370 781 244 C 746 118 694 -1 626 -115 C 558 -229 483 -320 401 -389 L 203 -254 Z" unicode=")" />
<glyph horiz-adv-x="1231" d="M 530 848 L 231 653 L 121 854 L 442 1008 L 121 1165 L 231 1364 L 530 1167 L 506 1520 L 723 1520 L 698 1165 L 999 1364 L 1110 1167 L 786 1008 L 1110 852 L 999 655 L 698 852 L 723 500 L 506 500 L 530 848 Z" unicode="*" />
<glyph horiz-adv-x="1466" d="M 594 594 L 199 594 L 199 852 L 594 852 L 594 1245 L 872 1245 L 872 852 L 1268 852 L 1268 594 L 872 594 L 872 199 L 594 199 L 594 594 Z" unicode="+" />
<glyph horiz-adv-x="573" d="M 125 -164 C 193 -130 235 -103 253 -85 C 270 -66 279 -38 279 0 L 121 0 L 121 338 L 451 338 L 451 96 C 451 6 443 -59 429 -103 C 415 -146 389 -183 353 -213 C 316 -243 263 -273 195 -303 L 125 -164 Z" unicode="," />
<glyph horiz-adv-x="885" d="M 86 791 L 797 791 L 797 535 L 86 535 L 86 791 Z" unicode="-" />
<glyph horiz-adv-x="573" d="M 121 338 L 451 338 L 451 0 L 121 0 L 121 338 Z" unicode="." />
<glyph horiz-adv-x="1135" d="M 850 1518 L 1135 1518 L 287 0 L 0 0 L 850 1518 Z" unicode="/" />
<glyph horiz-adv-x="1561" d="M 782 -23 C 560 -23 397 38 293 162 C 189 286 137 485 137 760 C 137 1036 188 1235 292 1358 C 396 1480 559 1542 782 1542 C 1002 1542 1164 1480 1268 1356 C 1371 1232 1423 1034 1423 760 C 1423 486 1371 287 1267 163 C 1163 39 1001 -23 782 -23 Z M 782 227 C 866 227 934 244 986 280 C 1037 316 1075 370 1099 444 C 1123 517 1135 622 1135 760 C 1135 895 1123 998 1100 1070 C 1076 1142 1039 1195 988 1230 C 936 1264 868 1282 782 1282 C 694 1282 625 1264 573 1229 C 521 1193 484 1139 461 1066 C 437 993 426 891 426 760 C 426 625 438 520 462 446 C 486 372 524 317 576 281 C 628 245 696 227 782 227 Z" unicode="0" />
<glyph horiz-adv-x="829" d="M 334 1260 L 68 1260 L 68 1518 L 608 1518 L 608 0 L 334 0 L 334 1260 Z" unicode="1" />
<glyph horiz-adv-x="1292" d="M 70 225 L 569 672 C 683 775 756 846 789 884 C 822 922 846 958 860 991 C 874 1024 881 1061 881 1102 C 881 1173 859 1222 817 1250 C 774 1278 704 1292 606 1292 C 532 1292 457 1282 381 1264 C 304 1246 242 1224 195 1198 L 68 1419 C 150 1463 233 1495 317 1514 C 400 1532 505 1542 633 1542 C 814 1542 947 1508 1032 1442 C 1116 1376 1159 1271 1159 1128 C 1159 1057 1148 994 1128 938 C 1108 882 1075 825 1030 768 C 985 710 911 635 807 543 L 465 238 L 1178 238 L 1178 0 L 70 0 L 70 225 Z" unicode="2" />
<glyph horiz-adv-x="1311" d="M 633 -25 C 511 -25 403 -13 308 11 C 212 35 116 76 18 135 L 152 350 C 232 305 309 271 383 249 C 456 226 534 215 618 215 C 736 215 817 233 862 270 C 907 307 930 371 930 461 C 930 522 919 569 898 601 C 877 633 843 656 795 670 C 747 684 680 692 594 692 L 342 692 L 342 934 L 590 934 C 701 934 778 947 822 975 C 865 1002 887 1052 887 1124 C 887 1190 867 1235 827 1260 C 787 1285 716 1298 612 1298 C 540 1298 466 1288 391 1268 C 315 1248 252 1223 201 1192 L 55 1403 C 132 1450 222 1485 325 1508 C 427 1530 532 1542 639 1542 C 823 1542 956 1513 1038 1455 C 1120 1397 1161 1306 1161 1180 C 1161 1077 1146 999 1118 945 C 1090 891 1043 853 979 831 C 1060 811 1117 771 1151 711 C 1185 650 1202 559 1202 438 C 1202 280 1157 163 1068 88 C 978 12 833 -25 633 -25 Z" unicode="3" />
<glyph horiz-adv-x="1417" d="M 80 543 L 750 1518 L 1051 1518 L 387 559 L 853 559 L 909 1006 L 1108 1006 L 1108 559 L 1360 559 L 1360 328 L 1108 328 L 1108 0 L 850 0 L 850 328 L 80 328 L 80 543 Z" unicode="4" />
<glyph horiz-adv-x="1358" d="M 672 -23 C 450 -23 254 30 84 137 L 219 352 C 319 298 402 261 468 243 C 534 224 600 215 666 215 C 790 215 878 237 928 282 C 978 327 1004 398 1004 494 C 1004 560 992 614 970 655 C 947 695 913 725 869 745 C 825 764 761 774 678 774 C 617 774 563 769 516 761 C 469 752 423 737 379 715 L 143 786 L 182 1518 L 1167 1518 L 1167 1274 L 426 1274 L 410 954 C 488 992 601 1012 748 1012 C 881 1012 986 993 1062 957 C 1138 921 1194 865 1230 789 C 1266 713 1284 618 1284 502 C 1284 378 1263 278 1223 202 C 1183 126 1120 69 1036 32 C 951 -4 830 -23 672 -23 Z" unicode="5" />
<glyph horiz-adv-x="1473" d="M 774 -23 C 550 -23 387 31 284 139 C 180 247 129 416 129 647 C 129 884 158 1062 216 1182 C 274 1301 368 1387 499 1439 C 629 1491 811 1518 1044 1518 L 1165 1518 L 1165 1274 L 1036 1274 C 941 1274 860 1268 792 1258 C 724 1248 667 1233 621 1215 C 575 1196 537 1173 509 1146 C 480 1118 458 1086 442 1050 C 426 1014 415 960 408 889 C 444 935 500 970 574 992 C 648 1014 745 1026 864 1026 C 1040 1026 1169 986 1250 906 C 1331 826 1372 696 1372 516 C 1372 328 1323 192 1226 106 C 1128 20 978 -23 774 -23 Z M 776 213 C 854 213 917 223 964 243 C 1011 263 1045 293 1067 334 C 1089 374 1100 432 1100 506 C 1100 610 1074 684 1022 730 C 970 776 888 799 778 799 C 658 799 568 775 508 728 C 448 681 418 614 418 528 C 418 418 446 338 503 288 C 560 238 651 213 776 213 Z" unicode="6" />
<glyph horiz-adv-x="1178" d="M 825 1274 L 29 1274 L 29 1518 L 1133 1518 L 1133 1309 L 565 0 L 272 0 L 825 1274 Z" unicode="7" />
<glyph horiz-adv-x="1491" d="M 745 -33 C 538 -33 381 5 274 83 C 166 160 113 275 113 428 C 113 647 194 782 356 834 C 290 858 241 896 210 946 C 179 996 164 1067 164 1157 C 164 1289 212 1387 310 1449 C 407 1511 552 1542 745 1542 C 939 1542 1085 1510 1183 1448 C 1280 1385 1329 1288 1329 1157 C 1329 985 1264 877 1135 834 C 1299 780 1382 644 1382 428 C 1382 276 1328 161 1220 83 C 1112 5 953 -33 745 -33 Z M 745 201 C 863 201 951 221 1010 262 C 1068 302 1098 365 1098 451 C 1098 536 1068 599 1010 640 C 951 681 863 702 745 702 C 627 702 540 681 482 641 C 424 601 395 537 395 451 C 395 364 424 301 482 261 C 540 221 628 201 745 201 Z M 745 924 C 851 924 930 939 981 970 C 1031 1000 1057 1050 1057 1120 C 1057 1187 1032 1236 982 1267 C 932 1297 853 1313 745 1313 C 637 1313 558 1297 509 1267 C 460 1237 436 1188 436 1120 C 436 1050 460 1000 510 970 C 560 939 638 924 745 924 Z" unicode="8" />
<glyph horiz-adv-x="1473" d="M 322 238 L 453 238 C 549 238 630 243 698 253 C 766 263 823 278 869 297 C 915 316 953 339 981 367 C 1009 395 1031 427 1047 463 C 1062 499 1073 553 1081 625 C 1044 577 988 543 914 521 C 840 499 743 489 625 489 C 452 489 324 529 241 610 C 158 690 117 820 117 999 C 117 1187 165 1324 263 1411 C 361 1498 511 1542 715 1542 C 937 1542 1100 1488 1204 1381 C 1308 1273 1360 1104 1360 874 C 1360 637 1331 458 1273 338 C 1215 218 1121 131 990 79 C 858 26 676 0 444 0 L 322 0 L 322 238 Z M 711 711 C 828 711 917 733 979 779 C 1040 824 1071 891 1071 979 C 1071 1089 1042 1169 985 1220 C 928 1270 838 1296 715 1296 C 636 1296 573 1286 525 1266 C 477 1246 443 1216 421 1176 C 399 1136 389 1078 389 1004 C 389 899 415 824 468 779 C 520 733 601 711 711 711 Z" unicode="9" />
<glyph horiz-adv-x="614" d="M 141 328 L 471 328 L 471 0 L 141 0 L 141 328 Z M 141 1153 L 471 1153 L 471 825 L 141 825 L 141 1153 Z" unicode=":" />
<glyph horiz-adv-x="614" d="M 145 -164 C 213 -130 255 -103 273 -85 C 290 -66 299 -38 299 0 L 141 0 L 141 328 L 471 328 L 471 96 C 471 9 463 -55 448 -98 C 433 -140 408 -177 373 -209 C 338 -240 285 -271 215 -303 L 145 -164 Z M 141 1153 L 471 1153 L 471 825 L 141 825 L 141 1153 Z" unicode=";" />
<glyph horiz-adv-x="1466" d="M 225 610 L 225 809 L 1161 1274 L 1161 1016 L 516 711 L 1161 403 L 1161 141 L 225 610 Z" unicode="&#x3C;" />
<glyph horiz-adv-x="1466" d="M 211 608 L 1257 608 L 1257 352 L 211 352 L 211 608 Z M 211 1092 L 1257 1092 L 1257 838 L 211 838 L 211 1092 Z" unicode="=" />
<glyph horiz-adv-x="1466" d="M 305 403 L 952 707 L 305 1014 L 305 1274 L 1243 807 L 1243 608 L 305 141 L 305 403 Z" unicode="&#x3E;" />
<glyph horiz-adv-x="1419" d="M 530 432 C 523 483 520 528 520 568 C 520 648 537 713 572 761 C 606 809 674 856 774 903 C 839 933 886 958 915 978 C 943 998 963 1018 974 1039 C 985 1060 991 1088 991 1124 C 991 1169 982 1202 964 1223 C 946 1244 917 1260 877 1270 C 837 1280 781 1286 711 1286 C 556 1286 410 1252 272 1186 L 156 1423 C 226 1459 312 1487 415 1509 C 517 1531 623 1542 731 1542 C 923 1542 1062 1511 1149 1449 C 1236 1387 1280 1287 1280 1149 C 1280 1084 1270 1028 1252 982 C 1234 936 1205 895 1167 861 C 1129 826 1072 791 997 756 C 937 728 895 704 870 686 C 845 668 827 647 817 624 C 806 601 801 569 801 529 L 805 432 L 530 432 Z M 502 297 L 831 297 L 831 0 L 502 0 L 502 297 Z" unicode="?" />
<glyph horiz-adv-x="2189" d="M 1124 -338 C 788 -338 542 -261 387 -109 C 231 43 154 279 154 598 C 154 910 232 1146 389 1305 C 546 1464 780 1544 1092 1544 C 1724 1544 2040 1228 2040 598 C 2040 452 2028 342 2005 268 C 1981 194 1943 141 1890 109 C 1836 77 1758 61 1655 61 C 1567 61 1500 72 1452 96 C 1404 120 1374 160 1362 217 C 1328 166 1281 129 1223 107 C 1165 85 1085 74 983 74 C 837 74 727 117 653 204 C 579 291 543 426 543 608 C 543 962 694 1139 997 1139 C 1090 1139 1163 1129 1217 1111 C 1270 1092 1311 1058 1339 1010 L 1401 1124 L 1569 1110 L 1569 365 C 1569 304 1580 262 1603 240 C 1625 218 1661 207 1710 207 C 1757 207 1793 216 1817 236 C 1841 256 1857 289 1867 337 C 1877 385 1882 472 1882 598 C 1882 867 1818 1067 1690 1197 C 1562 1327 1363 1393 1092 1393 C 828 1393 631 1326 503 1194 C 375 1062 311 863 311 598 C 311 333 376 136 508 7 C 640 -121 844 -186 1122 -186 C 1217 -186 1313 -175 1411 -155 C 1509 -135 1594 -107 1667 -72 L 1735 -207 C 1560 -294 1356 -338 1124 -338 Z M 1044 289 C 1140 289 1211 314 1255 365 C 1299 416 1321 497 1321 608 C 1321 718 1300 796 1258 841 C 1216 886 1144 909 1044 909 C 960 909 897 885 856 838 C 815 791 795 714 795 608 C 795 499 815 419 856 367 C 897 315 960 289 1044 289 Z" unicode="@" />
<glyph horiz-adv-x="1585" d="M 643 1528 L 940 1528 L 1550 0 L 1249 0 L 1143 270 L 428 270 L 322 0 L 35 0 L 643 1528 Z M 1047 524 L 784 1182 L 524 524 L 1047 524 Z" unicode="A" />
<glyph horiz-adv-x="1520" d="M 160 1518 L 852 1518 C 1046 1518 1187 1487 1274 1426 C 1361 1365 1405 1267 1405 1133 C 1405 1043 1388 970 1354 914 C 1320 858 1268 817 1196 793 C 1281 772 1344 732 1384 674 C 1424 616 1444 531 1444 420 C 1444 270 1398 162 1306 97 C 1214 32 1061 0 846 0 L 160 0 L 160 1518 Z M 879 250 C 973 250 1042 265 1085 295 C 1127 325 1149 376 1149 446 C 1149 516 1128 566 1086 596 C 1044 626 975 641 877 641 L 446 641 L 446 250 L 879 250 Z M 862 901 C 947 901 1009 915 1049 943 C 1088 971 1108 1020 1108 1090 C 1108 1152 1088 1197 1050 1224 C 1011 1250 948 1264 862 1264 L 446 1264 L 446 901 L 862 901 Z" unicode="B" />
<glyph horiz-adv-x="1536" d="M 848 -23 C 586 -23 392 40 266 168 C 139 295 76 492 76 760 C 76 1020 142 1216 275 1346 C 407 1476 604 1542 864 1542 C 988 1542 1097 1525 1191 1491 C 1285 1457 1369 1403 1444 1329 L 1239 1124 C 1191 1170 1136 1206 1076 1232 C 1016 1257 944 1270 862 1270 C 692 1270 567 1226 488 1140 C 408 1054 369 926 369 758 C 369 580 409 450 490 368 C 570 285 695 244 864 244 C 920 244 969 249 1013 259 C 1056 269 1095 283 1130 302 C 1165 321 1207 353 1255 397 L 1454 205 C 1372 121 1283 62 1186 28 C 1089 -5 976 -23 848 -23 Z" unicode="C" />
<glyph horiz-adv-x="1593" d="M 160 1518 L 690 1518 C 909 1518 1076 1493 1191 1445 C 1306 1397 1390 1318 1442 1210 C 1494 1102 1520 952 1520 760 C 1520 570 1492 420 1438 311 C 1383 201 1297 122 1179 73 C 1061 24 894 0 678 0 L 160 0 L 160 1518 Z M 694 262 C 833 262 940 277 1016 307 C 1091 337 1145 386 1178 454 C 1210 522 1227 624 1227 760 C 1227 902 1211 1006 1179 1070 C 1147 1134 1095 1180 1021 1208 C 947 1235 838 1249 694 1249 L 451 1249 L 451 262 L 694 262 Z" unicode="D" />
<glyph horiz-adv-x="1382" d="M 160 1518 L 1266 1518 L 1266 1247 L 451 1247 L 451 909 L 1245 909 L 1245 645 L 451 645 L 451 262 L 1274 262 L 1274 0 L 160 0 L 160 1518 Z" unicode="E" />
<glyph horiz-adv-x="1309" d="M 160 1518 L 1231 1518 L 1231 1247 L 451 1247 L 451 881 L 1210 881 L 1210 614 L 451 614 L 451 0 L 160 0 L 160 1518 Z" unicode="F" />
<glyph horiz-adv-x="1626" d="M 844 -23 C 662 -23 515 3 403 57 C 291 111 208 193 155 305 C 102 416 76 568 76 760 C 76 1022 141 1218 271 1348 C 401 1477 598 1542 862 1542 C 1128 1542 1328 1472 1462 1333 L 1257 1126 C 1203 1178 1144 1215 1081 1237 C 1018 1259 944 1270 860 1270 C 690 1270 566 1228 486 1144 C 406 1060 367 931 367 758 C 367 624 383 520 416 446 C 448 371 500 316 571 281 C 642 246 738 229 858 229 C 959 229 1039 240 1098 264 C 1156 287 1199 324 1227 374 C 1254 424 1268 494 1268 586 L 1268 621 L 821 621 L 821 872 L 1556 872 L 1556 641 C 1556 475 1531 346 1483 252 C 1435 158 1359 89 1255 44 C 1151 0 1014 -23 844 -23 Z" unicode="G" />
<glyph horiz-adv-x="1651" d="M 160 1518 L 451 1518 L 451 922 L 1200 922 L 1200 1518 L 1491 1518 L 1491 0 L 1200 0 L 1200 643 L 451 643 L 451 0 L 160 0 L 160 1518 Z" unicode="H" />
<glyph horiz-adv-x="649" d="M 180 1518 L 469 1518 L 469 0 L 180 0 L 180 1518 Z" unicode="I" />
<glyph horiz-adv-x="903" d="M 256 -4 L 184 -4 C 127 -4 82 -2 49 0 L 49 260 L 221 260 C 309 260 371 276 409 308 C 446 340 465 397 465 479 L 465 1518 L 754 1518 L 754 469 C 754 307 715 188 637 111 C 559 34 432 -4 256 -4 Z" unicode="J" />
<glyph horiz-adv-x="1528" d="M 160 1518 L 446 1518 L 446 795 L 1067 1518 L 1395 1518 L 875 919 L 1468 0 L 1139 0 L 684 698 L 446 424 L 446 0 L 160 0 L 160 1518 Z" unicode="K" />
<glyph horiz-adv-x="1249" d="M 160 1518 L 451 1518 L 451 260 L 1212 260 L 1212 0 L 160 0 L 160 1518 Z" unicode="L" />
<glyph horiz-adv-x="1970" d="M 160 1518 L 541 1518 L 987 418 L 1434 1518 L 1810 1518 L 1810 0 L 1526 0 L 1526 1059 L 1092 0 L 862 0 L 430 1055 L 430 0 L 160 0 L 160 1518 Z" unicode="M" />
<glyph horiz-adv-x="1663" d="M 160 1518 L 475 1518 L 1223 492 L 1223 1518 L 1503 1518 L 1503 0 L 1237 0 L 440 1087 L 440 0 L 160 0 L 160 1518 Z" unicode="N" />
<glyph horiz-adv-x="1737" d="M 868 -25 C 340 -25 76 236 76 760 C 76 1281 340 1542 868 1542 C 1398 1542 1663 1281 1663 760 C 1663 236 1398 -25 868 -25 Z M 868 240 C 1037 240 1163 282 1245 366 C 1327 450 1368 580 1368 756 C 1368 930 1327 1059 1245 1143 C 1163 1227 1037 1270 868 1270 C 698 1270 572 1227 491 1143 C 409 1058 369 929 369 756 C 369 581 409 451 490 367 C 571 282 697 240 868 240 Z" unicode="O" />
<glyph horiz-adv-x="1530" d="M 160 1518 L 872 1518 C 1070 1518 1216 1479 1311 1401 C 1406 1323 1454 1196 1454 1022 C 1454 840 1405 706 1307 620 C 1209 534 1059 492 858 492 L 444 492 L 444 0 L 160 0 L 160 1518 Z M 870 748 C 974 748 1049 768 1095 809 C 1140 850 1163 916 1163 1008 C 1163 1100 1140 1166 1096 1204 C 1052 1242 975 1262 866 1262 L 444 1262 L 444 748 L 870 748 Z" unicode="P" />
<glyph horiz-adv-x="1737" d="M 1118 -399 C 1003 -399 913 -388 847 -367 C 781 -345 733 -310 703 -261 C 673 -212 658 -141 658 -49 L 659 6 C 523 27 414 68 330 129 C 246 189 183 272 140 376 C 97 480 76 608 76 760 C 76 1020 140 1216 270 1346 C 400 1476 599 1542 868 1542 C 1136 1542 1336 1476 1467 1346 C 1597 1215 1663 1020 1663 760 C 1663 593 1636 454 1583 344 C 1530 233 1451 149 1347 91 C 1243 33 1106 1 937 -6 L 937 -28 C 937 -68 942 -96 953 -112 C 963 -128 981 -140 1006 -146 C 1030 -152 1067 -156 1116 -156 L 1303 -156 L 1303 -395 C 1268 -397 1206 -399 1118 -399 Z M 868 240 C 1038 240 1164 281 1246 363 C 1327 445 1368 576 1368 756 C 1368 934 1327 1064 1246 1146 C 1164 1228 1038 1270 868 1270 C 698 1270 572 1228 491 1146 C 409 1063 369 933 369 756 C 369 576 409 445 491 363 C 573 281 698 240 868 240 Z" unicode="Q" />
<glyph horiz-adv-x="1554" d="M 160 1518 L 872 1518 C 1067 1518 1211 1480 1304 1404 C 1397 1328 1444 1205 1444 1034 C 1444 901 1415 796 1359 719 C 1303 641 1220 587 1111 557 L 1425 0 L 1112 0 L 814 528 L 444 528 L 444 0 L 160 0 L 160 1518 Z M 864 786 C 969 786 1043 804 1086 841 C 1129 877 1151 938 1151 1022 C 1151 1109 1129 1171 1087 1207 C 1044 1243 968 1262 860 1262 L 444 1262 L 444 786 L 864 786 Z" unicode="R" />
<glyph horiz-adv-x="1499" d="M 754 -23 C 469 -23 236 42 55 172 L 203 387 C 361 280 542 227 745 227 C 839 227 913 233 968 247 C 1022 260 1062 281 1086 310 C 1110 338 1122 380 1122 436 C 1122 476 1111 508 1090 532 C 1069 556 1037 576 993 592 C 949 608 865 625 739 645 C 564 670 439 699 363 733 C 287 767 231 812 195 870 C 159 927 141 1002 141 1096 C 141 1252 188 1365 284 1436 C 379 1506 535 1542 752 1542 C 998 1542 1196 1493 1346 1397 L 1188 1165 C 1138 1198 1073 1226 992 1248 C 910 1270 830 1282 750 1282 C 635 1282 553 1268 504 1242 C 454 1216 430 1169 430 1102 C 430 1064 440 1034 460 1010 C 480 986 513 967 558 952 C 603 936 688 919 813 901 C 966 877 1075 853 1141 830 C 1207 806 1259 778 1297 744 C 1335 710 1364 669 1383 621 C 1401 573 1411 516 1411 451 C 1411 285 1358 165 1252 90 C 1146 14 980 -23 754 -23 Z" unicode="S" />
<glyph horiz-adv-x="1438" d="M 573 1247 L 37 1247 L 37 1518 L 1403 1518 L 1403 1247 L 866 1247 L 866 0 L 573 0 L 573 1247 Z" unicode="T" />
<glyph horiz-adv-x="1653" d="M 825 -29 C 705 -29 603 -17 517 6 C 431 30 361 65 307 111 C 253 157 213 216 188 288 C 162 360 150 455 150 573 L 150 1518 L 440 1518 L 440 610 C 440 512 452 437 478 387 C 504 336 545 298 601 274 C 657 250 733 238 829 238 C 925 238 1002 250 1059 274 C 1115 298 1156 335 1182 385 C 1208 435 1221 510 1221 610 L 1221 1518 L 1505 1518 L 1505 573 C 1505 453 1491 358 1465 286 C 1438 214 1398 155 1344 110 C 1290 64 1220 30 1134 6 C 1048 -17 945 -29 825 -29 Z" unicode="U" />
<glyph horiz-adv-x="1573" d="M 35 1518 L 342 1518 L 791 354 L 1235 1518 L 1538 1518 L 934 -10 L 637 -10 L 35 1518 Z" unicode="V" />
<glyph horiz-adv-x="2218" d="M 47 1518 L 352 1518 L 664 473 L 987 1518 L 1249 1518 L 1573 473 L 1884 1518 L 2171 1518 L 1702 -10 L 1444 -10 L 1110 1063 L 776 -10 L 518 -10 L 47 1518 Z" unicode="W" />
<glyph horiz-adv-x="1563" d="M 117 1518 L 442 1518 L 792 1017 L 1126 1518 L 1450 1518 L 944 800 L 1503 0 L 1174 0 L 770 580 L 385 0 L 61 0 L 618 797 L 117 1518 Z" unicode="X" />
<glyph horiz-adv-x="1526" d="M 12 1518 L 326 1518 L 768 809 L 1212 1518 L 1513 1518 L 907 548 L 907 0 L 618 0 L 618 546 L 12 1518 Z" unicode="Y" />
<glyph horiz-adv-x="1403" d="M 74 223 L 936 1247 L 109 1247 L 109 1518 L 1303 1518 L 1303 1274 L 451 260 L 1325 260 L 1325 0 L 74 0 L 74 223 Z" unicode="Z" />
<glyph horiz-adv-x="1030" d="M 231 1589 L 844 1589 L 844 1343 L 514 1343 L 514 -98 L 850 -98 L 850 -338 L 231 -338 L 231 1589 Z" unicode="[" />
<glyph horiz-adv-x="1135" d="M 0 1518 L 287 1518 L 1135 0 L 850 0 L 0 1518 Z" unicode="\" />
<glyph horiz-adv-x="1030" d="M 180 -98 L 514 -98 L 514 1343 L 182 1343 L 182 1589 L 797 1589 L 797 -338 L 180 -338 L 180 -98 Z" unicode="]" />
<glyph horiz-adv-x="1208" d="M 459 1516 L 750 1516 L 1067 1154 L 803 1154 L 600 1340 L 401 1154 L 141 1154 L 459 1516 Z" unicode="^" />
<glyph horiz-adv-x="928" d="M -76 -90 L 1004 -90 L 1004 -305 L -76 -305 L -76 -90 Z" unicode="_" />
<glyph horiz-adv-x="1208" d="M 170 1628 L 508 1628 L 803 1266 L 551 1266 L 170 1628 Z" unicode="`" />
<glyph horiz-adv-x="1309" d="M 487 -20 C 387 -20 306 -7 244 18 C 182 44 136 81 106 131 C 76 180 61 248 61 336 C 61 441 84 523 130 582 C 176 640 250 683 352 709 C 454 735 606 748 807 748 L 859 748 C 857 802 849 841 833 863 C 817 885 792 901 757 912 C 722 922 673 928 610 928 C 496 928 385 895 276 831 L 135 1042 C 189 1080 264 1113 358 1140 C 452 1166 546 1180 641 1180 C 767 1180 865 1166 935 1138 C 1004 1110 1053 1066 1083 1006 C 1113 946 1128 851 1128 721 L 1128 352 C 1128 300 1133 268 1145 256 C 1157 244 1186 238 1233 238 L 1233 4 C 1218 -1 1179 -4 1116 -4 C 1051 -4 1004 4 975 22 C 945 39 922 70 905 115 C 837 25 698 -20 487 -20 Z M 328 358 C 328 306 344 268 376 246 C 408 224 463 213 541 213 C 652 213 733 234 784 278 C 834 321 860 391 860 487 L 860 539 L 825 539 C 753 539 690 537 638 535 C 560 532 499 525 454 513 C 409 501 377 484 357 462 C 337 440 328 405 328 358 Z" unicode="a" />
<glyph horiz-adv-x="1378" d="M 788 -20 C 685 -20 600 -10 532 9 C 464 28 413 60 379 104 L 324 -12 L 135 10 L 135 1589 L 414 1589 L 414 1061 C 476 1140 606 1180 805 1180 C 971 1180 1094 1132 1176 1036 C 1257 940 1298 788 1298 580 C 1298 371 1255 219 1171 123 C 1087 27 959 -20 788 -20 Z M 737 223 C 833 223 903 249 948 303 C 993 356 1016 444 1016 567 C 1016 695 993 785 949 839 C 904 893 833 920 737 920 C 623 920 541 893 491 839 C 441 785 416 695 416 567 C 416 439 440 349 488 299 C 536 248 619 223 737 223 Z" unicode="b" />
<glyph horiz-adv-x="1190" d="M 659 -20 C 529 -20 421 0 336 41 C 251 81 187 145 144 232 C 101 318 80 434 80 580 C 80 726 101 842 145 929 C 188 1015 254 1079 342 1119 C 430 1159 540 1180 672 1180 C 867 1180 1018 1119 1126 997 L 928 809 C 886 850 846 878 806 894 C 766 910 721 918 672 918 C 565 918 486 891 436 839 C 385 786 360 697 360 571 C 360 445 385 355 435 302 C 485 249 565 223 674 223 C 728 223 775 231 815 248 C 855 264 897 294 942 336 L 1124 162 C 1051 94 980 46 912 20 C 843 -6 759 -20 659 -20 Z" unicode="c" />
<glyph horiz-adv-x="1378" d="M 578 -23 C 411 -23 286 25 204 123 C 121 221 80 374 80 584 C 80 790 122 941 207 1037 C 291 1132 418 1180 588 1180 C 684 1180 763 1170 825 1152 C 886 1133 932 1103 963 1063 L 963 1589 L 1243 1589 L 1243 12 L 1030 -10 L 999 111 C 961 64 908 30 840 9 C 772 -12 684 -23 578 -23 Z M 643 225 C 759 225 841 252 890 308 C 938 364 963 456 963 584 C 963 672 953 739 933 786 C 913 833 880 867 835 889 C 789 911 725 922 643 922 C 546 922 475 896 430 845 C 384 794 362 707 362 584 C 362 454 384 362 430 307 C 476 252 547 225 643 225 Z" unicode="d" />
<glyph horiz-adv-x="1255" d="M 668 -23 C 538 -23 429 -2 341 37 C 253 77 187 141 144 228 C 101 315 80 432 80 580 C 80 788 127 940 223 1036 C 319 1132 466 1180 666 1180 C 748 1180 818 1171 876 1153 C 934 1135 981 1109 1019 1077 C 1057 1045 1086 1006 1108 961 C 1129 915 1145 863 1155 805 C 1165 746 1170 664 1170 560 L 1169 467 L 351 467 C 358 377 387 312 438 272 C 488 231 565 211 668 211 C 744 211 810 219 867 236 C 924 253 978 281 1030 319 L 1176 131 C 1104 76 1028 37 950 13 C 872 -11 778 -23 668 -23 Z M 909 686 C 905 761 894 814 878 846 C 861 877 835 900 800 916 C 765 932 717 940 657 940 C 561 940 489 920 441 881 C 392 842 362 777 352 686 L 909 686 Z" unicode="e" />
<glyph horiz-adv-x="879" d="M 55 1153 L 272 1153 L 272 1223 C 272 1367 305 1470 371 1531 C 437 1591 541 1622 684 1622 C 751 1622 800 1620 831 1618 L 831 1384 L 721 1384 C 661 1384 618 1372 591 1348 C 564 1324 551 1283 551 1225 L 551 1153 L 831 1153 L 831 907 L 551 907 L 551 0 L 272 0 L 272 907 L 55 907 L 55 1153 Z" unicode="f" />
<glyph horiz-adv-x="1307" d="M 629 422 C 568 422 513 425 463 432 L 460 426 C 452 412 449 398 449 383 C 449 353 461 334 487 326 C 512 317 567 313 651 313 C 811 313 932 303 1012 285 C 1092 266 1150 235 1185 193 C 1219 150 1237 86 1237 0 C 1237 -129 1189 -222 1094 -280 C 998 -338 842 -367 625 -367 C 463 -367 343 -358 265 -341 C 187 -323 131 -295 96 -255 C 60 -215 43 -158 43 -84 C 43 58 118 145 270 178 C 241 197 222 220 214 248 C 205 276 201 306 201 338 C 201 402 218 456 252 500 C 201 534 164 574 142 622 C 120 669 109 725 109 791 C 109 923 151 1020 237 1084 C 322 1148 453 1180 629 1180 L 683 1179 L 1190 1270 L 1190 1051 L 1016 1051 C 1066 1023 1101 988 1122 946 C 1142 904 1153 853 1153 791 C 1153 663 1110 569 1026 510 C 942 451 809 422 629 422 Z M 635 -164 C 748 -164 829 -153 878 -132 C 927 -110 952 -72 952 -18 C 952 28 930 60 886 76 C 842 92 759 100 635 100 C 557 100 495 95 451 87 C 406 79 374 66 354 49 C 334 32 324 4 324 -35 C 324 -83 346 -117 391 -136 C 435 -154 517 -164 635 -164 Z M 629 621 C 716 621 779 633 818 659 C 857 684 877 727 877 788 C 877 845 857 887 819 914 C 781 940 717 954 629 954 C 541 954 478 941 439 917 C 400 892 381 849 381 788 C 381 727 400 684 440 659 C 480 633 543 621 629 621 Z" unicode="g" />
<glyph horiz-adv-x="1337" d="M 135 1589 L 414 1589 L 414 1071 C 442 1107 490 1134 558 1152 C 626 1170 705 1180 797 1180 C 898 1180 979 1164 1039 1132 C 1099 1100 1142 1051 1169 986 C 1196 921 1210 826 1210 700 L 1210 0 L 932 0 L 932 645 C 932 723 924 779 909 811 C 894 843 870 868 836 884 C 802 900 756 909 698 909 C 630 909 575 899 534 881 C 492 862 462 834 444 797 C 425 759 416 703 416 627 L 416 0 L 135 0 L 135 1589 Z" unicode="h" />
<glyph horiz-adv-x="571" d="M 147 1153 L 424 1153 L 424 0 L 147 0 L 147 1153 Z M 145 1546 L 426 1546 L 426 1270 L 145 1270 L 145 1546 Z" unicode="i" />
<glyph horiz-adv-x="571" d="M 6 -127 L 29 -127 C 78 -127 110 -117 125 -98 C 139 -78 147 -36 147 29 L 147 1153 L 424 1153 L 424 31 C 424 -75 413 -153 392 -205 C 370 -256 335 -292 285 -314 C 235 -335 159 -346 57 -346 L 6 -346 L 6 -127 Z M 145 1546 L 426 1546 L 426 1270 L 145 1270 L 145 1546 Z" unicode="j" />
<glyph horiz-adv-x="1206" d="M 135 1589 L 412 1589 L 412 640 L 842 1153 L 1149 1153 L 756 679 L 1186 0 L 877 0 L 569 474 L 412 293 L 412 0 L 135 0 L 135 1589 Z" unicode="k" />
<glyph horiz-adv-x="674" d="M 442 -4 C 336 -4 260 22 215 74 C 169 126 147 212 147 334 L 147 1589 L 424 1589 L 424 367 C 424 316 431 282 447 265 C 462 248 494 240 543 240 L 584 240 L 584 4 C 554 -1 506 -4 442 -4 Z" unicode="l" />
<glyph horiz-adv-x="2087" d="M 135 1137 L 352 1153 L 377 1053 C 405 1094 454 1125 524 1147 C 594 1169 680 1180 784 1180 C 881 1180 956 1170 1009 1151 C 1062 1132 1100 1097 1124 1047 C 1191 1135 1335 1180 1556 1180 C 1654 1180 1732 1165 1791 1135 C 1849 1105 1892 1058 1919 993 C 1946 928 1960 830 1960 700 L 1960 0 L 1679 0 L 1679 645 C 1679 730 1672 788 1659 818 C 1645 848 1623 870 1592 886 C 1561 901 1517 909 1460 909 C 1392 909 1338 900 1299 882 C 1259 864 1231 836 1214 799 C 1196 762 1188 705 1188 627 L 1188 0 L 907 0 L 907 645 C 907 730 900 788 887 818 C 873 848 851 870 820 886 C 788 901 744 909 686 909 C 618 909 565 900 526 882 C 487 864 459 837 442 801 C 424 765 416 707 416 627 L 416 0 L 135 0 L 135 1137 Z" unicode="m" />
<glyph horiz-adv-x="1337" d="M 135 1137 L 352 1153 L 377 1053 C 448 1137 588 1180 797 1180 C 898 1180 979 1164 1039 1132 C 1099 1100 1142 1051 1169 986 C 1196 921 1210 826 1210 700 L 1210 0 L 932 0 L 932 645 C 932 723 924 779 909 811 C 894 843 870 868 836 884 C 802 900 756 909 698 909 C 630 909 575 899 534 881 C 492 862 462 834 444 797 C 425 759 416 703 416 627 L 416 0 L 135 0 L 135 1137 Z" unicode="n" />
<glyph horiz-adv-x="1339" d="M 670 -23 C 469 -23 320 25 224 123 C 128 221 80 373 80 580 C 80 786 128 937 224 1034 C 320 1131 469 1180 670 1180 C 872 1180 1020 1131 1116 1034 C 1212 937 1260 786 1260 580 C 1260 373 1212 221 1116 123 C 1020 25 871 -23 670 -23 Z M 670 223 C 776 223 854 250 904 304 C 954 358 979 447 979 571 C 979 693 954 782 905 837 C 855 892 777 920 670 920 C 564 920 485 892 435 838 C 385 784 360 695 360 571 C 360 448 385 359 435 305 C 485 250 563 223 670 223 Z" unicode="o" />
<glyph horiz-adv-x="1378" d="M 135 1137 L 352 1153 L 377 1047 C 412 1093 465 1126 535 1148 C 605 1169 695 1180 807 1180 C 971 1180 1094 1132 1176 1037 C 1257 942 1298 790 1298 580 C 1298 371 1255 219 1171 124 C 1087 29 960 -18 791 -18 C 692 -18 612 -8 551 10 C 490 28 445 58 416 98 L 416 -338 L 135 -338 L 135 1137 Z M 737 225 C 833 225 904 251 949 304 C 993 357 1016 445 1016 569 C 1016 696 993 786 949 840 C 904 893 833 920 737 920 C 621 920 539 893 490 839 C 440 785 416 695 416 569 C 416 441 440 351 488 301 C 536 250 619 225 737 225 Z" unicode="p" />
<glyph horiz-adv-x="1378" d="M 963 90 C 925 48 877 19 818 2 C 758 -14 678 -23 578 -23 C 410 -23 285 25 203 123 C 121 220 80 373 80 582 C 80 789 122 940 207 1036 C 291 1132 418 1180 588 1180 C 695 1180 782 1170 848 1150 C 914 1130 965 1099 999 1057 L 1055 1161 L 1243 1145 L 1243 -338 L 963 -338 L 963 90 Z M 643 225 C 758 225 840 252 889 307 C 938 361 963 453 963 582 C 963 671 952 739 932 787 C 912 834 879 868 833 890 C 787 911 724 922 643 922 C 546 922 475 896 430 845 C 384 794 362 706 362 582 C 362 452 385 360 431 306 C 477 252 548 225 643 225 Z" unicode="q" />
<glyph horiz-adv-x="805" d="M 135 1137 L 352 1153 L 381 1024 C 407 1064 453 1097 520 1123 C 587 1148 666 1162 758 1165 L 758 893 C 638 891 551 867 497 821 C 443 774 416 694 416 582 L 416 0 L 135 0 L 135 1137 Z" unicode="r" />
<glyph horiz-adv-x="1149" d="M 563 -20 C 349 -20 172 27 31 123 L 174 334 C 235 294 302 265 374 245 C 446 225 516 215 582 215 C 673 215 734 223 766 240 C 797 256 813 288 813 334 C 813 368 799 394 772 410 C 745 426 682 441 584 457 C 435 478 331 502 273 529 C 215 556 171 593 142 641 C 112 689 98 751 98 829 C 98 949 137 1038 216 1095 C 295 1151 418 1180 584 1180 C 675 1180 761 1171 843 1153 C 924 1135 995 1109 1055 1075 L 922 852 C 877 875 825 894 766 908 C 707 922 649 930 592 930 C 516 930 461 922 427 907 C 393 892 377 865 377 827 C 377 791 390 766 416 750 C 442 734 500 720 590 707 C 662 695 728 683 789 671 C 849 658 902 639 946 615 C 990 590 1024 557 1048 515 C 1072 473 1085 418 1085 348 C 1085 214 1044 120 964 64 C 884 8 750 -20 563 -20 Z" unicode="s" />
<glyph horiz-adv-x="903" d="M 55 1153 L 260 1153 L 309 1448 L 526 1493 L 526 1153 L 811 1153 L 811 907 L 526 907 L 526 387 C 526 343 530 312 540 293 C 550 274 566 260 588 252 C 610 244 641 240 682 240 L 811 240 L 811 0 C 791 -2 744 -4 670 -4 L 627 -4 C 532 -4 457 7 403 29 C 348 51 308 87 284 136 C 260 184 248 254 248 346 L 248 907 L 55 907 L 55 1153 Z" unicode="t" />
<glyph horiz-adv-x="1323" d="M 664 -20 C 527 -20 420 -3 344 30 C 267 64 212 117 179 191 C 145 265 129 376 129 524 L 129 1153 L 408 1153 L 408 518 C 408 476 409 438 412 403 C 415 367 425 337 441 311 C 457 285 483 265 518 251 C 553 236 602 229 666 229 C 713 229 753 233 785 242 C 817 251 843 265 863 283 C 883 301 897 325 906 355 C 915 385 920 441 920 522 L 920 1153 L 1194 1153 L 1194 528 C 1194 375 1177 262 1144 189 C 1110 116 1056 63 981 30 C 905 -3 800 -20 664 -20 Z" unicode="u" />
<glyph horiz-adv-x="1221" d="M 4 1153 L 303 1153 L 616 324 L 930 1153 L 1217 1153 L 758 -12 L 461 -12 L 4 1153 Z" unicode="v" />
<glyph horiz-adv-x="1862" d="M 20 1153 L 315 1153 L 557 393 L 799 1153 L 1075 1153 L 1317 395 L 1559 1153 L 1841 1153 L 1456 -12 L 1182 -12 L 932 760 L 680 -12 L 408 -12 L 20 1153 Z" unicode="w" />
<glyph horiz-adv-x="1198" d="M 57 1153 L 369 1153 L 613 806 L 846 1153 L 1143 1153 L 757 601 L 1180 0 L 866 0 L 586 399 L 317 0 L 18 0 L 442 604 L 57 1153 Z" unicode="x" />
<glyph horiz-adv-x="1169" d="M 4 1153 L 303 1153 L 595 361 L 879 1153 L 1167 1153 L 696 -68 C 656 -175 604 -248 541 -287 C 478 -326 388 -346 270 -346 L 217 -346 L 160 -344 L 160 -127 L 246 -127 C 305 -127 346 -121 370 -110 C 393 -98 411 -74 424 -37 L 445 21 L 4 1153 Z" unicode="y" />
<glyph horiz-adv-x="1087" d="M 49 195 L 649 907 L 82 907 L 82 1153 L 1022 1153 L 1022 956 L 418 231 L 1044 231 L 1044 0 L 49 0 L 49 195 Z" unicode="z" />
<glyph horiz-adv-x="1106" d="M 692 -338 C 558 -338 459 -315 397 -269 C 334 -223 303 -152 303 -55 C 303 -9 321 73 357 191 C 378 262 392 312 399 341 C 406 370 410 393 410 410 C 410 448 394 473 363 487 C 331 501 259 508 147 508 L 147 741 C 230 741 288 744 320 750 C 352 756 375 766 389 780 C 403 794 410 814 410 842 C 410 868 400 913 382 977 C 343 1107 320 1188 313 1222 C 306 1255 303 1283 303 1307 C 303 1403 334 1474 397 1520 C 460 1566 558 1589 692 1589 L 926 1589 L 926 1343 L 758 1343 C 696 1343 652 1334 628 1318 C 604 1302 592 1271 592 1227 C 592 1206 600 1167 617 1110 C 647 1005 666 932 675 892 C 683 852 688 819 688 793 C 688 707 644 652 557 627 C 644 601 688 545 688 461 C 688 434 683 399 674 357 C 665 314 646 241 617 138 C 600 78 592 38 592 18 C 592 -26 603 -56 626 -73 C 649 -89 693 -98 758 -98 L 926 -98 L 926 -338 L 692 -338 Z" unicode="{" />
<glyph horiz-adv-x="748" d="M 231 1589 L 514 1589 L 514 -338 L 231 -338 L 231 1589 Z" unicode="|" />
<glyph horiz-adv-x="1106" d="M 180 -98 L 350 -98 C 414 -98 458 -89 481 -73 C 504 -56 516 -26 516 18 C 516 42 499 110 467 221 C 434 331 418 411 418 461 C 418 545 461 600 549 627 C 461 652 418 707 418 793 C 418 842 434 921 467 1029 C 499 1137 516 1203 516 1227 C 516 1271 503 1302 479 1318 C 454 1334 411 1343 350 1343 L 180 1343 L 180 1589 L 414 1589 C 548 1589 647 1566 709 1520 C 771 1474 803 1403 803 1307 C 803 1262 785 1180 750 1062 C 726 982 711 929 705 904 C 699 878 696 858 696 842 C 696 804 712 778 744 764 C 776 750 847 743 958 743 L 958 510 C 869 510 810 507 780 501 C 750 495 728 484 715 470 C 702 456 696 436 696 410 C 696 392 700 366 708 334 C 716 301 730 253 750 191 C 785 73 803 -9 803 -55 C 803 -152 771 -223 709 -269 C 646 -315 548 -338 414 -338 L 180 -338 L 180 -98 Z" unicode="}" />
<glyph horiz-adv-x="1208" d="M 137 913 C 247 1047 354 1115 459 1115 C 494 1115 524 1109 549 1098 C 573 1087 596 1075 617 1062 C 637 1048 657 1036 676 1025 C 695 1014 717 1009 741 1009 C 789 1009 845 1048 909 1126 L 1069 997 C 955 856 848 786 748 786 C 714 786 684 791 660 802 C 635 813 612 825 591 839 C 570 852 550 864 530 875 C 510 886 487 892 463 892 C 411 892 357 855 299 782 L 137 913 Z" unicode="~" />
<glyph horiz-adv-x="1192" d="M 596 -12 C 450 -12 342 28 273 110 C 204 192 170 320 170 496 C 170 668 204 795 273 876 C 342 956 450 997 596 997 C 740 997 847 956 917 876 C 987 796 1022 669 1022 496 C 1022 320 987 192 917 110 C 847 28 740 -12 596 -12 Z M 596 172 C 648 172 690 182 720 203 C 750 224 772 257 786 301 C 800 345 807 410 807 496 C 807 581 800 644 786 686 C 772 728 750 758 720 778 C 689 797 648 807 596 807 C 520 807 466 785 434 741 C 402 697 387 616 387 496 C 387 372 403 287 435 241 C 467 195 520 172 596 172 Z" unicode="₀" />
<glyph horiz-adv-x="743" d="M 299 791 L 125 791 L 125 981 L 520 981 L 520 0 L 299 0 L 299 791 Z" unicode="₁" />
<glyph horiz-adv-x="1014" d="M 129 154 L 440 430 C 532 512 588 567 608 595 C 627 623 637 658 637 698 C 637 740 623 769 596 787 C 568 804 524 813 463 813 C 419 813 374 807 328 795 C 282 783 243 770 211 754 L 115 918 C 173 948 231 968 290 979 C 349 989 416 995 492 995 C 616 995 706 973 764 929 C 821 885 850 817 850 723 C 850 658 835 601 805 551 C 775 501 710 430 608 340 L 428 176 L 858 176 L 858 0 L 129 0 L 129 154 Z" unicode="₂" />
<glyph horiz-adv-x="1042" d="M 506 -12 C 418 -12 343 -3 279 13 C 215 30 154 57 94 94 L 201 250 C 247 223 292 203 337 190 C 381 176 431 170 485 170 C 560 170 611 180 639 200 C 666 220 680 257 680 311 C 680 361 665 396 636 414 C 606 432 551 442 469 442 L 305 442 L 305 612 L 465 612 C 542 612 592 619 616 633 C 639 647 651 674 651 713 C 651 749 639 775 617 789 C 595 803 549 811 481 811 C 377 811 288 788 213 743 L 111 905 C 159 935 218 957 288 973 C 358 989 432 997 512 997 C 635 997 725 978 783 941 C 841 904 870 844 870 762 C 870 702 859 654 839 619 C 819 584 787 559 743 543 C 795 528 834 501 859 461 C 884 421 897 363 897 287 C 897 183 865 108 803 60 C 740 12 641 -12 506 -12 Z" unicode="₃" />
<glyph horiz-adv-x="1104" d="M 133 352 L 561 981 L 795 981 L 369 360 L 627 360 L 666 623 L 831 623 L 831 360 L 985 360 L 985 188 L 831 188 L 831 0 L 625 0 L 625 188 L 133 188 L 133 352 Z" unicode="₄" />
<glyph horiz-adv-x="1077" d="M 539 -12 C 384 -12 249 22 135 92 L 248 256 C 308 223 360 201 402 189 C 444 177 484 172 522 172 C 584 172 628 177 656 187 C 683 197 703 213 716 237 C 728 260 735 292 735 332 C 735 389 720 429 692 453 C 664 477 609 489 528 489 C 457 489 400 478 356 457 L 190 504 L 217 981 L 870 981 L 870 799 L 397 799 L 385 631 C 439 651 506 662 586 662 C 678 662 748 650 797 628 C 846 606 883 570 909 522 C 935 474 948 410 948 332 C 948 248 934 180 906 130 C 878 80 837 43 782 21 C 726 0 645 -12 539 -12 Z" unicode="₅" />
<glyph horiz-adv-x="1141" d="M 596 -12 C 446 -12 337 23 268 94 C 198 165 164 275 164 424 C 164 567 183 678 221 756 C 259 834 321 891 405 927 C 489 963 605 981 752 981 L 836 981 L 836 799 L 748 799 C 662 799 594 791 542 777 C 490 763 451 741 425 712 C 399 682 382 638 375 578 C 398 610 432 633 478 647 C 523 661 583 668 657 668 C 775 668 860 641 914 589 C 968 537 995 453 995 338 C 995 218 962 130 896 73 C 830 16 730 -12 596 -12 Z M 596 156 C 643 156 680 161 707 173 C 734 184 754 201 766 225 C 778 248 784 284 784 332 C 784 397 769 443 739 469 C 709 495 662 508 598 508 C 529 508 477 495 442 469 C 406 443 389 402 389 346 C 389 276 405 227 439 199 C 473 170 525 156 596 156 Z" unicode="₆" />
<glyph horiz-adv-x="944" d="M 598 791 L 98 791 L 98 981 L 831 981 L 831 799 L 487 0 L 256 0 L 598 791 Z" unicode="₇" />
<glyph horiz-adv-x="1159" d="M 580 -14 C 440 -14 334 11 262 61 C 190 111 154 186 154 285 C 154 357 167 413 193 454 C 219 494 258 524 311 543 C 267 563 235 588 215 620 C 195 652 186 696 186 752 C 186 837 218 900 284 940 C 349 980 448 1001 580 1001 C 710 1001 808 980 874 940 C 940 900 973 837 973 752 C 973 694 962 649 942 617 C 922 585 889 559 844 541 C 896 524 936 495 964 455 C 992 415 1006 358 1006 285 C 1006 187 970 112 898 62 C 826 11 720 -14 580 -14 Z M 580 152 C 655 152 708 165 740 191 C 772 217 788 255 788 303 C 788 351 772 388 740 415 C 708 441 655 455 580 455 C 510 455 458 443 424 419 C 390 395 373 356 373 303 C 373 250 389 212 423 188 C 457 164 509 152 580 152 Z M 580 602 C 644 602 691 611 719 630 C 747 648 762 679 762 723 C 762 765 747 794 717 812 C 687 829 642 838 580 838 C 518 838 472 829 443 813 C 413 796 399 766 399 723 C 399 677 413 646 442 628 C 470 610 516 602 580 602 Z" unicode="₈" />
<glyph horiz-adv-x="1141" d="M 315 180 L 406 180 C 490 180 559 187 611 203 C 663 218 702 241 728 272 C 754 302 770 348 778 410 C 754 378 720 354 675 339 C 629 324 570 317 496 317 C 379 317 293 343 238 395 C 183 447 156 531 156 649 C 156 767 188 854 254 911 C 320 968 421 997 557 997 C 705 997 814 962 883 893 C 952 823 987 713 987 563 C 987 418 967 306 929 228 C 891 149 829 91 745 55 C 661 18 546 0 401 0 L 315 0 L 315 180 Z M 555 469 C 623 469 675 481 711 507 C 746 533 764 574 764 631 C 764 698 748 747 716 777 C 684 807 631 823 557 823 C 510 823 473 817 446 805 C 419 793 399 776 387 753 C 375 729 369 693 369 645 C 369 579 383 533 413 507 C 443 481 490 469 555 469 Z" unicode="₉" />
<glyph horiz-adv-x="451" d="" unicode=" " />
<glyph horiz-adv-x="801" d="M 276 1055 L 526 1055 L 555 0 L 248 0 L 276 1055 Z M 236 1518 L 567 1518 L 567 1188 L 236 1188 L 236 1518 Z" unicode="¡" />
<glyph horiz-adv-x="1192" d="M 84 580 C 84 763 120 901 193 995 C 265 1088 376 1144 524 1164 L 524 1300 L 791 1300 L 791 1166 C 865 1154 927 1134 979 1106 C 1031 1078 1077 1042 1118 997 L 926 815 C 882 857 840 885 802 900 C 764 914 720 922 672 922 C 563 922 483 894 432 839 C 381 783 356 694 356 571 C 356 445 381 355 433 300 C 485 244 565 217 674 217 C 728 217 774 225 814 242 C 853 258 896 288 942 330 L 1116 162 C 1060 110 1008 72 961 48 C 913 24 861 7 805 -2 L 791 -4 L 791 -193 L 524 -193 L 524 -6 C 375 13 264 69 192 162 C 120 255 84 394 84 580 Z" unicode="¢" />
<glyph horiz-adv-x="1346" d="M 57 887 L 242 887 C 217 984 205 1064 205 1126 C 205 1268 246 1374 330 1442 C 414 1510 542 1544 715 1544 C 877 1544 1026 1517 1161 1464 L 1053 1227 C 1011 1245 960 1260 900 1271 C 839 1282 775 1288 709 1288 C 629 1288 571 1273 535 1243 C 499 1213 481 1161 481 1087 C 481 1046 491 980 512 890 L 513 887 L 918 887 L 918 668 L 567 668 C 573 647 580 612 589 562 C 597 512 602 470 602 434 C 602 380 597 330 587 286 L 628 271 C 709 240 788 225 864 225 C 929 225 974 237 998 262 C 1022 287 1034 338 1034 414 L 1034 471 L 1278 471 L 1278 403 C 1278 250 1247 142 1185 79 C 1123 15 1018 -16 870 -16 C 736 -16 602 20 469 94 C 425 62 370 38 306 23 C 242 7 162 0 66 0 L 66 233 C 142 233 200 237 240 247 C 280 257 308 273 325 296 C 341 318 350 362 350 428 C 350 453 347 482 341 514 C 335 546 322 598 303 668 L 57 668 L 57 887 Z" unicode="£" />
<glyph horiz-adv-x="1370" d="M 147 344 L 545 344 L 545 469 L 147 469 L 147 680 L 540 680 L 23 1518 L 319 1518 L 684 903 L 1051 1518 L 1346 1518 L 828 680 L 1219 680 L 1219 469 L 821 469 L 821 344 L 1219 344 L 1219 133 L 821 133 L 821 0 L 545 0 L 545 133 L 147 133 L 147 344 Z" unicode="¥" />
<glyph horiz-adv-x="748" d="M 231 465 L 514 465 L 514 -338 L 231 -338 L 231 465 Z M 231 1589 L 514 1589 L 514 786 L 231 786 L 231 1589 Z" unicode="¦" />
<glyph horiz-adv-x="1210" d="M 451 1128 C 451 1234 465 1314 495 1369 C 524 1424 569 1464 631 1490 C 693 1515 771 1528 866 1528 C 930 1528 978 1526 1012 1524 L 1012 1290 L 901 1290 C 857 1290 822 1285 798 1275 C 774 1265 756 1251 745 1231 C 734 1211 729 1177 729 1130 L 729 1081 C 849 1067 938 1034 998 981 C 1057 927 1087 852 1087 754 C 1087 660 1059 587 1004 535 C 949 483 864 450 748 436 L 748 387 C 748 281 734 202 706 148 C 678 94 633 54 573 28 C 513 1 432 -12 332 -12 C 268 -12 219 -10 186 -8 L 186 215 L 297 215 C 339 215 373 219 397 229 C 421 238 439 252 450 272 C 461 292 467 326 467 375 L 467 435 C 347 449 260 482 205 534 C 150 586 123 660 123 754 C 123 940 232 1047 451 1077 L 451 1128 Z M 604 610 C 694 610 760 620 800 642 C 840 664 860 699 860 748 C 860 796 840 830 800 852 C 760 874 694 885 604 885 C 514 885 450 874 410 853 C 370 831 350 796 350 748 C 350 698 369 663 409 642 C 449 620 514 610 604 610 Z" unicode="§" />
<glyph horiz-adv-x="1208" d="M 250 1538 L 504 1538 L 504 1274 L 250 1274 L 250 1538 Z M 707 1538 L 958 1538 L 958 1274 L 707 1274 L 707 1538 Z" unicode="¨" />
<glyph horiz-adv-x="1669" d="M 850 266 C 518 266 352 434 352 770 C 352 934 395 1059 483 1145 C 570 1231 696 1274 860 1274 C 1016 1274 1139 1228 1231 1137 L 1104 1006 C 1040 1067 958 1098 858 1098 C 646 1098 541 988 541 768 C 541 546 647 436 860 436 C 911 436 956 443 996 458 C 1036 472 1075 498 1114 535 L 1237 412 C 1183 358 1126 321 1064 299 C 1002 277 931 266 850 266 Z M 834 -25 C 677 -25 541 7 427 71 C 312 135 224 226 164 345 C 104 463 74 602 74 760 C 74 917 104 1055 164 1174 C 224 1292 312 1384 427 1448 C 541 1512 677 1544 834 1544 C 990 1544 1126 1511 1241 1447 C 1356 1383 1444 1292 1504 1174 C 1564 1056 1595 918 1595 760 C 1595 602 1565 464 1505 346 C 1445 228 1357 136 1242 72 C 1127 7 991 -25 834 -25 Z M 834 84 C 1040 84 1199 142 1313 260 C 1426 378 1483 544 1483 760 C 1483 974 1426 1141 1314 1260 C 1201 1378 1041 1438 834 1438 C 624 1438 464 1379 352 1261 C 240 1143 184 976 184 760 C 184 542 240 375 353 259 C 466 142 626 84 834 84 Z" unicode="©" />
<glyph horiz-adv-x="1249" d="M 453 569 C 343 569 261 592 206 640 C 150 687 123 760 123 858 C 123 941 143 1007 183 1056 C 223 1105 285 1141 370 1163 C 454 1185 574 1196 729 1196 L 767 1196 C 765 1237 758 1266 746 1284 C 734 1301 714 1314 686 1322 C 658 1330 619 1335 571 1335 C 525 1335 478 1328 430 1314 C 382 1300 339 1282 303 1260 L 186 1432 C 232 1463 293 1489 370 1509 C 446 1529 522 1540 596 1540 C 699 1540 778 1529 834 1507 C 889 1485 929 1450 953 1401 C 977 1352 989 1275 989 1169 L 989 874 C 989 832 994 806 1005 796 C 1015 786 1039 782 1075 782 L 1075 586 C 1059 583 1028 582 983 582 C 917 582 872 591 846 609 C 820 627 802 657 793 700 C 765 650 725 616 674 597 C 623 578 549 569 453 569 Z M 211 457 L 989 457 L 989 254 L 211 254 L 211 457 Z M 342 877 C 342 837 354 808 379 789 C 404 769 448 760 512 760 C 596 760 660 777 703 812 C 746 846 768 903 768 981 L 768 1028 L 743 1028 C 643 1028 563 1024 504 1016 C 444 1008 402 994 378 974 C 354 954 342 921 342 877 Z" unicode="ª" />
<glyph horiz-adv-x="1526" d="M 203 575 L 512 1153 L 758 1153 L 469 575 L 758 0 L 512 0 L 203 575 Z M 711 575 L 1020 1153 L 1268 1153 L 979 575 L 1268 0 L 1020 0 L 711 575 Z" unicode="«" />
<glyph horiz-adv-x="1466" d="M 1268 852 L 1268 199 L 989 199 L 989 594 L 199 594 L 199 852 L 1268 852 Z" unicode="¬" />
<glyph horiz-adv-x="885" d="M 86 791 L 797 791 L 797 535 L 86 535 L 86 791 Z" unicode="­" />
<glyph horiz-adv-x="1669" d="M 834 -25 C 677 -25 541 7 427 71 C 312 135 224 226 164 345 C 104 463 74 602 74 760 C 74 917 104 1055 164 1174 C 224 1292 312 1384 427 1448 C 541 1512 677 1544 834 1544 C 990 1544 1126 1511 1241 1447 C 1356 1383 1444 1292 1504 1174 C 1564 1056 1595 918 1595 760 C 1595 602 1565 464 1505 346 C 1445 228 1357 136 1242 72 C 1127 7 991 -25 834 -25 Z M 834 84 C 1040 84 1199 142 1313 260 C 1426 378 1483 544 1483 760 C 1483 974 1426 1141 1314 1260 C 1201 1378 1041 1438 834 1438 C 624 1438 464 1379 352 1261 C 240 1143 184 976 184 760 C 184 542 240 375 353 259 C 466 142 626 84 834 84 Z M 461 1231 L 903 1231 C 988 1231 1056 1220 1108 1200 C 1159 1180 1196 1149 1220 1108 C 1243 1067 1255 1008 1255 932 C 1255 846 1238 780 1205 735 C 1171 689 1119 658 1047 640 L 1249 283 L 1063 283 L 871 625 L 633 625 L 633 283 L 461 283 L 461 1231 Z M 897 778 C 965 778 1012 788 1038 810 C 1064 831 1077 870 1077 926 C 1077 982 1063 1021 1037 1043 C 1011 1064 963 1075 895 1075 L 633 1075 L 633 778 L 897 778 Z" unicode="®" />
<glyph horiz-adv-x="1208" d="M 190 1477 L 1020 1477 L 1020 1247 L 190 1247 L 190 1477 Z" unicode="¯" />
<glyph horiz-adv-x="1165" d="M 582 553 C 430 553 312 596 228 683 C 144 769 102 891 102 1049 C 102 1203 144 1324 228 1411 C 312 1498 430 1542 582 1542 C 734 1542 853 1498 938 1411 C 1022 1323 1065 1203 1065 1049 C 1065 893 1022 772 938 684 C 854 596 735 553 582 553 Z M 582 762 C 666 762 730 785 774 833 C 818 880 840 949 840 1040 C 840 1131 818 1200 774 1248 C 730 1295 666 1319 582 1319 C 412 1319 328 1226 328 1040 C 328 948 349 878 392 832 C 435 785 498 762 582 762 Z" unicode="°" />
<glyph horiz-adv-x="1466" d="M 199 274 L 594 274 L 594 594 L 199 594 L 199 852 L 594 852 L 594 1245 L 872 1245 L 872 852 L 1268 852 L 1268 594 L 872 594 L 872 274 L 1268 274 L 1268 18 L 199 18 L 199 274 Z" unicode="±" />
<glyph horiz-adv-x="1014" d="M 129 690 L 440 969 C 519 1039 568 1085 587 1107 C 606 1129 619 1149 626 1168 C 633 1186 637 1209 637 1237 C 637 1278 623 1307 595 1324 C 567 1341 523 1350 463 1350 C 415 1350 369 1344 324 1332 C 278 1320 241 1306 211 1290 L 115 1454 C 175 1484 234 1505 293 1517 C 352 1528 418 1534 492 1534 C 614 1534 704 1512 762 1468 C 820 1424 850 1356 850 1262 C 850 1196 835 1137 805 1087 C 775 1037 709 967 608 879 L 428 713 L 858 713 L 858 539 L 129 539 L 129 690 Z" unicode="²" />
<glyph horiz-adv-x="1042" d="M 506 526 C 420 526 345 534 281 550 C 217 566 154 594 94 633 L 201 788 C 247 761 292 741 337 728 C 381 715 431 709 485 709 C 560 709 611 719 639 739 C 666 759 680 796 680 850 C 680 898 665 932 637 951 C 609 969 553 979 469 979 L 305 979 L 305 1151 L 465 1151 C 541 1151 591 1157 615 1171 C 639 1184 651 1211 651 1251 C 651 1287 639 1313 616 1327 C 593 1341 548 1348 481 1348 C 377 1348 288 1326 213 1282 L 111 1444 C 157 1472 215 1494 285 1511 C 355 1527 430 1536 512 1536 C 636 1536 727 1516 784 1478 C 841 1440 870 1380 870 1298 C 870 1238 859 1191 839 1157 C 819 1123 787 1097 743 1081 C 795 1065 834 1038 859 998 C 884 958 897 900 897 825 C 897 721 866 646 804 598 C 742 550 643 526 506 526 Z" unicode="³" />
<glyph horiz-adv-x="1208" d="M 700 1628 L 1038 1628 L 657 1266 L 408 1266 L 700 1628 Z" unicode="´" />
<glyph horiz-adv-x="1341" d="M 553 -23 C 491 -23 438 -17 393 -5 L 393 -338 L 135 -338 L 135 1153 L 414 1153 L 414 504 C 414 426 421 369 436 334 C 451 299 475 273 508 255 C 541 237 587 229 645 229 C 713 229 767 238 808 257 C 848 276 878 305 896 345 C 914 384 924 442 924 518 L 924 1153 L 1206 1153 L 1206 12 L 991 -10 L 964 109 C 929 67 877 35 808 12 C 739 -11 654 -23 553 -23 Z" unicode="µ" />
<glyph horiz-adv-x="1360" d="M 930 514 L 741 514 L 741 0 L 477 0 L 477 529 C 381 548 305 578 250 618 C 195 658 156 711 132 777 C 108 842 96 924 96 1022 C 96 1146 115 1242 154 1312 C 193 1381 255 1433 340 1467 C 425 1501 538 1518 678 1518 L 1192 1518 L 1192 0 L 930 0 L 930 514 Z M 930 741 L 930 1270 L 674 1270 C 563 1270 486 1251 442 1214 C 398 1177 377 1108 377 1008 C 377 909 399 840 444 800 C 488 760 564 741 670 741 L 930 741 Z" unicode="¶" />
<glyph horiz-adv-x="573" d="M 121 907 L 451 907 L 451 561 L 121 561 L 121 907 Z" unicode="·" />
<glyph horiz-adv-x="1208" d="M 608 -500 C 512 -500 424 -478 344 -434 L 416 -299 C 480 -330 540 -346 598 -346 C 647 -346 682 -339 703 -326 C 724 -313 735 -290 735 -258 C 735 -222 721 -200 695 -192 C 668 -184 637 -180 602 -180 L 553 -182 L 496 -143 L 528 14 L 688 14 L 670 -88 L 691 -88 C 756 -88 803 -94 831 -107 C 859 -119 882 -139 898 -166 C 914 -192 922 -229 922 -276 C 922 -351 896 -407 846 -444 C 796 -481 716 -500 608 -500 Z" unicode="¸" />
<glyph horiz-adv-x="743" d="M 299 1329 L 125 1329 L 125 1518 L 520 1518 L 520 539 L 299 539 L 299 1329 Z" unicode="¹" />
<glyph horiz-adv-x="1241" d="M 623 571 C 462 571 342 610 262 690 C 182 770 143 893 143 1059 C 143 1223 182 1344 262 1423 C 341 1502 461 1542 623 1542 C 782 1542 901 1502 981 1423 C 1060 1343 1100 1222 1100 1059 C 1100 893 1060 771 980 691 C 900 611 781 571 623 571 Z M 623 774 C 786 774 868 866 868 1051 C 868 1144 847 1213 807 1259 C 767 1304 705 1327 623 1327 C 538 1327 476 1304 436 1258 C 396 1212 377 1143 377 1051 C 377 957 397 887 437 842 C 477 796 539 774 623 774 Z M 203 455 L 1040 455 L 1040 250 L 203 250 L 203 455 Z" unicode="º" />
<glyph horiz-adv-x="1526" d="M 549 578 L 260 1153 L 506 1153 L 815 578 L 506 0 L 260 0 L 549 578 Z M 1055 578 L 768 1153 L 1014 1153 L 1323 578 L 1014 0 L 768 0 L 1055 578 Z" unicode="»" />
<glyph horiz-adv-x="2048" d="M 1620 193 L 1130 193 L 1130 352 L 1567 981 L 1806 981 L 1380 369 L 1624 369 L 1665 588 L 1829 588 L 1829 369 L 1982 369 L 1982 193 L 1829 193 L 1829 0 L 1620 0 L 1620 193 Z M 262 1325 L 88 1325 L 88 1518 L 489 1518 L 489 537 L 262 537 L 262 1325 Z M 1264 1518 L 1509 1518 L 664 0 L 416 0 L 1264 1518 Z" unicode="¼" />
<glyph horiz-adv-x="2163" d="M 1303 158 L 1612 432 C 1696 507 1747 555 1765 575 C 1782 595 1794 613 1800 631 C 1806 649 1810 670 1810 694 C 1810 733 1797 761 1771 779 C 1745 796 1700 805 1638 805 C 1588 805 1541 799 1496 787 C 1451 775 1414 761 1384 745 L 1286 913 C 1347 943 1405 963 1460 975 C 1515 987 1583 993 1665 993 C 1787 993 1877 971 1935 927 C 1992 883 2021 813 2021 719 C 2021 685 2017 654 2011 628 C 2004 601 1993 575 1978 549 C 1963 523 1943 497 1917 469 C 1891 441 1788 345 1606 180 L 2025 180 L 2025 0 L 1303 0 L 1303 158 Z M 262 1325 L 88 1325 L 88 1518 L 489 1518 L 489 537 L 262 537 L 262 1325 Z M 1264 1518 L 1509 1518 L 664 0 L 416 0 L 1264 1518 Z" unicode="½" />
<glyph horiz-adv-x="2304" d="M 489 530 C 407 530 335 537 273 552 C 211 566 146 594 76 635 L 188 797 C 237 767 283 747 327 735 C 371 723 417 717 467 717 C 546 717 598 726 624 746 C 649 766 662 802 662 854 C 662 904 646 937 616 955 C 586 972 531 981 453 981 L 289 981 L 289 1159 L 449 1159 C 525 1159 575 1165 599 1179 C 623 1193 635 1219 635 1257 C 635 1292 623 1317 600 1331 C 576 1345 531 1352 463 1352 C 362 1352 273 1329 197 1284 L 94 1450 C 142 1479 201 1502 271 1518 C 341 1534 416 1542 496 1542 C 618 1542 708 1523 766 1486 C 823 1448 852 1388 852 1305 C 852 1245 840 1197 817 1163 C 793 1129 760 1103 717 1087 C 826 1055 881 969 881 829 C 881 726 849 650 786 602 C 723 554 624 530 489 530 Z M 1874 193 L 1384 193 L 1384 352 L 1821 981 L 2062 981 L 1634 369 L 1880 369 L 1921 588 L 2085 588 L 2085 369 L 2236 369 L 2236 193 L 2085 193 L 2085 0 L 1874 0 L 1874 193 Z M 1520 1518 L 1765 1518 L 918 0 L 672 0 L 1520 1518 Z" unicode="¾" />
<glyph horiz-adv-x="1419" d="M 688 -25 C 493 -25 353 6 267 68 C 181 130 139 231 139 371 C 139 435 148 490 166 536 C 184 582 211 622 249 656 C 286 690 344 725 422 762 C 480 790 522 813 547 831 C 571 849 589 870 600 893 C 611 916 617 948 617 988 L 612 1085 L 887 1085 C 893 1033 897 988 897 949 C 897 869 879 806 845 758 C 810 710 743 662 643 616 C 568 580 518 552 493 534 C 467 515 450 496 440 476 C 430 456 426 429 426 395 C 426 350 435 317 453 295 C 471 273 500 257 541 247 C 582 236 638 231 709 231 C 867 231 1012 265 1145 334 L 1264 96 C 1188 58 1099 29 998 7 C 896 -14 793 -25 688 -25 Z M 586 1518 L 918 1518 L 918 1221 L 586 1221 L 586 1518 Z" unicode="¿" />
<glyph horiz-adv-x="1583" d="M 643 1528 L 940 1528 L 1550 0 L 1249 0 L 1143 270 L 428 270 L 322 0 L 35 0 L 643 1528 Z M 1047 524 L 784 1182 L 524 524 L 1047 524 Z M 354 1964 L 692 1964 L 987 1602 L 735 1602 L 354 1964 Z" unicode="À" />
<glyph horiz-adv-x="1583" d="M 643 1528 L 940 1528 L 1550 0 L 1249 0 L 1143 270 L 428 270 L 322 0 L 35 0 L 643 1528 Z M 1047 524 L 784 1182 L 524 524 L 1047 524 Z M 884 1964 L 1222 1964 L 841 1602 L 592 1602 L 884 1964 Z" unicode="Á" />
<glyph horiz-adv-x="1583" d="M 643 1528 L 940 1528 L 1550 0 L 1249 0 L 1143 270 L 428 270 L 322 0 L 35 0 L 643 1528 Z M 1047 524 L 784 1182 L 524 524 L 1047 524 Z M 643 1964 L 934 1964 L 1251 1602 L 987 1602 L 784 1788 L 585 1602 L 325 1602 L 643 1964 Z" unicode="Â" />
<glyph horiz-adv-x="1583" d="M 643 1528 L 940 1528 L 1550 0 L 1249 0 L 1143 270 L 428 270 L 322 0 L 35 0 L 643 1528 Z M 1047 524 L 784 1182 L 524 524 L 1047 524 Z M 321 1729 C 431 1863 538 1931 643 1931 C 678 1931 708 1925 733 1914 C 757 1903 780 1891 801 1878 C 821 1864 841 1852 860 1841 C 879 1830 901 1825 925 1825 C 973 1825 1029 1864 1093 1942 L 1253 1813 C 1139 1672 1032 1602 932 1602 C 898 1602 868 1607 844 1618 C 819 1629 796 1641 775 1655 C 754 1668 734 1680 714 1691 C 694 1702 671 1708 647 1708 C 595 1708 541 1671 483 1598 L 321 1729 Z" unicode="Ã" />
<glyph horiz-adv-x="1583" d="M 643 1528 L 940 1528 L 1550 0 L 1249 0 L 1143 270 L 428 270 L 322 0 L 35 0 L 643 1528 Z M 1047 524 L 784 1182 L 524 524 L 1047 524 Z M 434 1874 L 688 1874 L 688 1610 L 434 1610 L 434 1874 Z M 891 1874 L 1142 1874 L 1142 1610 L 891 1610 L 891 1874 Z" unicode="Ä" />
<glyph horiz-adv-x="1583" d="M 602 1427 C 540 1477 510 1553 510 1657 C 510 1747 534 1817 583 1869 C 631 1920 701 1946 791 1946 C 879 1946 947 1919 997 1867 C 1046 1815 1071 1745 1071 1657 C 1071 1557 1039 1482 977 1430 L 1550 0 L 1251 0 L 1143 270 L 426 270 L 322 0 L 35 0 L 602 1427 Z M 1047 524 L 784 1182 L 524 524 L 1047 524 Z M 791 1511 C 835 1511 868 1523 892 1548 C 916 1573 928 1609 928 1657 C 928 1703 916 1739 893 1764 C 870 1789 836 1802 791 1802 C 745 1802 711 1789 688 1764 C 664 1738 653 1703 653 1657 C 653 1609 664 1573 688 1548 C 712 1523 746 1511 791 1511 Z" unicode="Å" />
<glyph horiz-adv-x="2312" d="M 969 1518 L 2193 1518 L 2193 1247 L 1380 1247 L 1380 907 L 2173 907 L 2173 647 L 1380 647 L 1380 260 L 2202 260 L 2202 0 L 1100 0 L 1100 279 L 483 279 L 299 0 L 14 0 L 969 1518 Z M 1100 522 L 1100 1262 L 625 522 L 1100 522 Z" unicode="Æ" />
<glyph horiz-adv-x="1536" d="M 770 -500 C 672 -500 584 -478 506 -434 L 578 -299 C 642 -330 702 -346 760 -346 C 808 -346 842 -339 864 -327 C 886 -314 897 -291 897 -258 C 897 -222 883 -200 856 -192 C 829 -184 798 -180 764 -180 L 715 -182 L 657 -143 L 684 -12 C 478 12 326 86 226 212 C 126 337 76 520 76 760 C 76 1020 142 1216 275 1346 C 407 1476 604 1542 864 1542 C 988 1542 1097 1525 1191 1491 C 1285 1457 1369 1403 1444 1329 L 1239 1124 C 1191 1170 1136 1206 1076 1232 C 1016 1257 944 1270 862 1270 C 692 1270 567 1226 488 1140 C 408 1054 369 926 369 758 C 369 580 409 450 490 368 C 570 285 695 244 864 244 C 920 244 969 249 1013 259 C 1056 269 1095 283 1130 302 C 1165 321 1207 353 1255 397 L 1454 205 C 1372 121 1283 62 1187 28 C 1090 -5 978 -23 852 -23 L 842 -23 L 831 -88 L 852 -88 C 917 -88 964 -94 992 -107 C 1020 -119 1043 -139 1059 -166 C 1075 -192 1083 -229 1083 -276 C 1083 -352 1058 -408 1008 -445 C 958 -481 878 -500 770 -500 Z" unicode="Ç" />
<glyph horiz-adv-x="1382" d="M 160 1518 L 1266 1518 L 1266 1247 L 451 1247 L 451 909 L 1245 909 L 1245 645 L 451 645 L 451 262 L 1274 262 L 1274 0 L 160 0 L 160 1518 Z M 254 1964 L 592 1964 L 887 1602 L 635 1602 L 254 1964 Z" unicode="È" />
<glyph horiz-adv-x="1382" d="M 784 1964 L 1122 1964 L 741 1602 L 492 1602 L 784 1964 Z M 160 1518 L 1266 1518 L 1266 1247 L 451 1247 L 451 909 L 1245 909 L 1245 645 L 451 645 L 451 262 L 1274 262 L 1274 0 L 160 0 L 160 1518 Z" unicode="É" />
<glyph horiz-adv-x="1382" d="M 543 1964 L 834 1964 L 1151 1602 L 887 1602 L 684 1788 L 485 1602 L 225 1602 L 543 1964 Z M 160 1518 L 1266 1518 L 1266 1247 L 451 1247 L 451 909 L 1245 909 L 1245 645 L 451 645 L 451 262 L 1274 262 L 1274 0 L 160 0 L 160 1518 Z" unicode="Ê" />
<glyph horiz-adv-x="1382" d="M 334 1874 L 588 1874 L 588 1610 L 334 1610 L 334 1874 Z M 791 1874 L 1042 1874 L 1042 1610 L 791 1610 L 791 1874 Z M 160 1518 L 1266 1518 L 1266 1247 L 451 1247 L 451 909 L 1245 909 L 1245 645 L 451 645 L 451 262 L 1274 262 L 1274 0 L 160 0 L 160 1518 Z" unicode="Ë" />
<glyph horiz-adv-x="649" d="M -158 1964 L 195 1964 L 469 1602 L 207 1602 L -158 1964 Z M 180 1518 L 469 1518 L 469 0 L 180 0 L 180 1518 Z" unicode="Ì" />
<glyph horiz-adv-x="649" d="M 453 1964 L 803 1964 L 440 1602 L 180 1602 L 453 1964 Z M 180 1518 L 469 1518 L 469 0 L 180 0 L 180 1518 Z" unicode="Í" />
<glyph horiz-adv-x="649" d="M 178 1964 L 469 1964 L 750 1602 L 485 1602 L 319 1790 L 156 1602 L -104 1602 L 178 1964 Z M 180 1518 L 469 1518 L 469 0 L 180 0 L 180 1518 Z" unicode="Î" />
<glyph horiz-adv-x="649" d="M 180 1518 L 469 1518 L 469 0 L 180 0 L 180 1518 Z M -28 1874 L 226 1874 L 226 1610 L -28 1610 L -28 1874 Z M 429 1874 L 680 1874 L 680 1610 L 429 1610 L 429 1874 Z" unicode="Ï" />
<glyph horiz-adv-x="1593" d="M 0 889 L 160 889 L 160 1518 L 690 1518 C 909 1518 1076 1493 1191 1445 C 1306 1397 1390 1318 1442 1210 C 1494 1102 1520 952 1520 760 C 1520 572 1492 424 1436 315 C 1380 205 1294 125 1176 75 C 1058 25 892 0 678 0 L 160 0 L 160 653 L 0 653 L 0 889 Z M 694 262 C 833 262 940 277 1016 307 C 1091 337 1145 386 1178 454 C 1210 522 1227 624 1227 760 C 1227 902 1211 1006 1179 1070 C 1147 1134 1095 1180 1021 1208 C 947 1235 838 1249 694 1249 L 451 1249 L 451 889 L 750 889 L 750 653 L 451 653 L 451 262 L 694 262 Z" unicode="Ð" />
<glyph horiz-adv-x="1663" d="M 160 1518 L 475 1518 L 1223 492 L 1223 1518 L 1503 1518 L 1503 0 L 1237 0 L 440 1087 L 440 0 L 160 0 L 160 1518 Z M 360 1729 C 470 1863 577 1931 682 1931 C 717 1931 747 1925 772 1914 C 796 1903 819 1891 840 1878 C 860 1864 880 1852 899 1841 C 918 1830 940 1825 964 1825 C 1012 1825 1068 1864 1132 1942 L 1292 1813 C 1178 1672 1071 1602 971 1602 C 937 1602 907 1607 883 1618 C 858 1629 835 1641 814 1655 C 793 1668 773 1680 753 1691 C 733 1702 710 1708 686 1708 C 634 1708 580 1671 522 1598 L 360 1729 Z" unicode="Ñ" />
<glyph horiz-adv-x="1737" d="M 868 -25 C 340 -25 76 236 76 760 C 76 1281 340 1542 868 1542 C 1398 1542 1663 1281 1663 760 C 1663 236 1398 -25 868 -25 Z M 868 240 C 1037 240 1163 282 1245 366 C 1327 450 1368 580 1368 756 C 1368 930 1327 1059 1245 1143 C 1163 1227 1037 1270 868 1270 C 698 1270 572 1227 491 1143 C 409 1058 369 929 369 756 C 369 581 409 451 490 367 C 571 282 697 240 868 240 Z M 432 1964 L 770 1964 L 1065 1602 L 813 1602 L 432 1964 Z" unicode="Ò" />
<glyph horiz-adv-x="1737" d="M 962 1964 L 1300 1964 L 919 1602 L 670 1602 L 962 1964 Z M 868 -25 C 340 -25 76 236 76 760 C 76 1281 340 1542 868 1542 C 1398 1542 1663 1281 1663 760 C 1663 236 1398 -25 868 -25 Z M 868 240 C 1037 240 1163 282 1245 366 C 1327 450 1368 580 1368 756 C 1368 930 1327 1059 1245 1143 C 1163 1227 1037 1270 868 1270 C 698 1270 572 1227 491 1143 C 409 1058 369 929 369 756 C 369 581 409 451 490 367 C 571 282 697 240 868 240 Z" unicode="Ó" />
<glyph horiz-adv-x="1737" d="M 721 1964 L 1012 1964 L 1329 1602 L 1065 1602 L 862 1788 L 663 1602 L 403 1602 L 721 1964 Z M 868 -25 C 340 -25 76 236 76 760 C 76 1281 340 1542 868 1542 C 1398 1542 1663 1281 1663 760 C 1663 236 1398 -25 868 -25 Z M 868 240 C 1037 240 1163 282 1245 366 C 1327 450 1368 580 1368 756 C 1368 930 1327 1059 1245 1143 C 1163 1227 1037 1270 868 1270 C 698 1270 572 1227 491 1143 C 409 1058 369 929 369 756 C 369 581 409 451 490 367 C 571 282 697 240 868 240 Z" unicode="Ô" />
<glyph horiz-adv-x="1737" d="M 868 -25 C 340 -25 76 236 76 760 C 76 1281 340 1542 868 1542 C 1398 1542 1663 1281 1663 760 C 1663 236 1398 -25 868 -25 Z M 868 240 C 1037 240 1163 282 1245 366 C 1327 450 1368 580 1368 756 C 1368 930 1327 1059 1245 1143 C 1163 1227 1037 1270 868 1270 C 698 1270 572 1227 491 1143 C 409 1058 369 929 369 756 C 369 581 409 451 490 367 C 571 282 697 240 868 240 Z M 399 1729 C 509 1863 616 1931 721 1931 C 756 1931 786 1925 811 1914 C 835 1903 858 1891 879 1878 C 899 1864 919 1852 938 1841 C 957 1830 979 1825 1003 1825 C 1051 1825 1107 1864 1171 1942 L 1331 1813 C 1217 1672 1110 1602 1010 1602 C 976 1602 946 1607 922 1618 C 897 1629 874 1641 853 1655 C 832 1668 812 1680 792 1691 C 772 1702 749 1708 725 1708 C 673 1708 619 1671 561 1598 L 399 1729 Z" unicode="Õ" />
<glyph horiz-adv-x="1737" d="M 512 1874 L 766 1874 L 766 1610 L 512 1610 L 512 1874 Z M 969 1874 L 1220 1874 L 1220 1610 L 969 1610 L 969 1874 Z M 868 -25 C 340 -25 76 236 76 760 C 76 1281 340 1542 868 1542 C 1398 1542 1663 1281 1663 760 C 1663 236 1398 -25 868 -25 Z M 868 240 C 1037 240 1163 282 1245 366 C 1327 450 1368 580 1368 756 C 1368 930 1327 1059 1245 1143 C 1163 1227 1037 1270 868 1270 C 698 1270 572 1227 491 1143 C 409 1058 369 929 369 756 C 369 581 409 451 490 367 C 571 282 697 240 868 240 Z" unicode="Ö" />
<glyph horiz-adv-x="1466" d="M 252 412 L 561 721 L 252 1032 L 424 1208 L 735 899 L 1042 1208 L 1214 1032 L 905 721 L 1214 414 L 1042 236 L 735 547 L 422 236 L 252 412 Z" unicode="×" />
<glyph horiz-adv-x="1737" d="M 868 -25 C 755 -25 653 -13 563 11 L 508 -84 L 233 -84 L 345 108 C 165 235 76 452 76 760 C 76 1020 140 1216 270 1346 C 400 1476 599 1542 868 1542 C 975 1542 1073 1531 1161 1509 L 1217 1604 L 1489 1604 L 1380 1417 C 1568 1289 1663 1070 1663 760 C 1663 498 1597 302 1467 171 C 1336 40 1136 -25 868 -25 Z M 868 229 C 1042 229 1171 271 1254 356 C 1336 441 1378 574 1378 756 C 1378 955 1327 1095 1227 1177 L 688 247 C 740 235 800 229 868 229 Z M 868 1280 C 694 1280 565 1237 482 1153 C 399 1069 358 936 358 756 C 358 565 404 427 496 342 L 1031 1265 C 983 1275 928 1280 868 1280 Z" unicode="Ø" />
<glyph horiz-adv-x="1653" d="M 825 -29 C 705 -29 603 -17 517 6 C 431 30 361 65 307 111 C 253 157 213 216 188 288 C 162 360 150 455 150 573 L 150 1518 L 440 1518 L 440 610 C 440 512 452 437 478 387 C 504 336 545 298 601 274 C 657 250 733 238 829 238 C 925 238 1002 250 1059 274 C 1115 298 1156 335 1182 385 C 1208 435 1221 510 1221 610 L 1221 1518 L 1505 1518 L 1505 573 C 1505 453 1491 358 1465 286 C 1438 214 1398 155 1344 110 C 1290 64 1220 30 1134 6 C 1048 -17 945 -29 825 -29 Z M 389 1964 L 727 1964 L 1022 1602 L 770 1602 L 389 1964 Z" unicode="Ù" />
<glyph horiz-adv-x="1653" d="M 919 1964 L 1257 1964 L 876 1602 L 627 1602 L 919 1964 Z M 825 -29 C 705 -29 603 -17 517 6 C 431 30 361 65 307 111 C 253 157 213 216 188 288 C 162 360 150 455 150 573 L 150 1518 L 440 1518 L 440 610 C 440 512 452 437 478 387 C 504 336 545 298 601 274 C 657 250 733 238 829 238 C 925 238 1002 250 1059 274 C 1115 298 1156 335 1182 385 C 1208 435 1221 510 1221 610 L 1221 1518 L 1505 1518 L 1505 573 C 1505 453 1491 358 1465 286 C 1438 214 1398 155 1344 110 C 1290 64 1220 30 1134 6 C 1048 -17 945 -29 825 -29 Z" unicode="Ú" />
<glyph horiz-adv-x="1653" d="M 678 1964 L 969 1964 L 1286 1602 L 1022 1602 L 819 1788 L 620 1602 L 360 1602 L 678 1964 Z M 825 -29 C 705 -29 603 -17 517 6 C 431 30 361 65 307 111 C 253 157 213 216 188 288 C 162 360 150 455 150 573 L 150 1518 L 440 1518 L 440 610 C 440 512 452 437 478 387 C 504 336 545 298 601 274 C 657 250 733 238 829 238 C 925 238 1002 250 1059 274 C 1115 298 1156 335 1182 385 C 1208 435 1221 510 1221 610 L 1221 1518 L 1505 1518 L 1505 573 C 1505 453 1491 358 1465 286 C 1438 214 1398 155 1344 110 C 1290 64 1220 30 1134 6 C 1048 -17 945 -29 825 -29 Z" unicode="Û" />
<glyph horiz-adv-x="1653" d="M 469 1874 L 723 1874 L 723 1610 L 469 1610 L 469 1874 Z M 926 1874 L 1177 1874 L 1177 1610 L 926 1610 L 926 1874 Z M 825 -29 C 705 -29 603 -17 517 6 C 431 30 361 65 307 111 C 253 157 213 216 188 288 C 162 360 150 455 150 573 L 150 1518 L 440 1518 L 440 610 C 440 512 452 437 478 387 C 504 336 545 298 601 274 C 657 250 733 238 829 238 C 925 238 1002 250 1059 274 C 1115 298 1156 335 1182 385 C 1208 435 1221 510 1221 610 L 1221 1518 L 1505 1518 L 1505 573 C 1505 453 1491 358 1465 286 C 1438 214 1398 155 1344 110 C 1290 64 1220 30 1134 6 C 1048 -17 945 -29 825 -29 Z" unicode="Ü" />
<glyph horiz-adv-x="1526" d="M 12 1518 L 326 1518 L 768 809 L 1212 1518 L 1513 1518 L 907 548 L 907 0 L 618 0 L 618 546 L 12 1518 Z M 856 1964 L 1194 1964 L 813 1602 L 564 1602 L 856 1964 Z" unicode="Ý" />
<glyph horiz-adv-x="1530" d="M 160 1518 L 444 1518 L 444 1305 L 872 1305 C 1011 1305 1123 1288 1208 1254 C 1292 1220 1354 1168 1394 1098 C 1434 1028 1454 930 1454 805 C 1454 673 1433 571 1393 497 C 1352 423 1288 368 1201 331 C 1114 294 1000 276 858 276 L 444 276 L 444 0 L 160 0 L 160 1518 Z M 870 535 C 976 535 1052 554 1096 594 C 1140 633 1163 700 1163 795 C 1163 890 1142 956 1100 993 C 1058 1030 980 1049 866 1049 L 444 1049 L 444 535 L 870 535 Z" unicode="Þ" />
<glyph horiz-adv-x="1399" d="M 135 1073 C 135 1254 181 1388 274 1474 C 366 1560 507 1604 696 1604 C 1040 1604 1212 1467 1212 1194 C 1212 1092 1197 1014 1169 959 C 1141 904 1092 862 1024 834 C 1134 813 1212 772 1260 711 C 1307 650 1331 562 1331 446 C 1331 322 1310 231 1270 171 C 1230 111 1165 67 1075 40 C 985 13 863 0 707 0 L 582 0 L 582 244 L 698 244 C 786 244 856 251 908 265 C 960 279 997 301 1020 331 C 1043 360 1055 405 1055 467 C 1055 525 1042 568 1017 597 C 992 625 951 646 893 659 C 835 671 751 678 643 678 L 643 903 C 749 903 825 919 869 952 C 913 984 936 1040 936 1120 C 936 1192 916 1244 877 1277 C 837 1310 775 1327 690 1327 C 596 1327 526 1306 480 1264 C 434 1222 412 1155 412 1063 L 412 0 L 135 0 L 135 1073 Z" unicode="ß" />
<glyph horiz-adv-x="1309" d="M 487 -20 C 387 -20 306 -7 244 18 C 182 44 136 81 106 131 C 76 180 61 248 61 336 C 61 441 84 523 130 582 C 176 640 250 683 352 709 C 454 735 606 748 807 748 L 859 748 C 857 802 849 841 833 863 C 817 885 792 901 757 912 C 722 922 673 928 610 928 C 496 928 385 895 276 831 L 135 1042 C 189 1080 264 1113 358 1140 C 452 1166 546 1180 641 1180 C 767 1180 865 1166 935 1138 C 1004 1110 1053 1066 1083 1006 C 1113 946 1128 851 1128 721 L 1128 352 C 1128 300 1133 268 1145 256 C 1157 244 1186 238 1233 238 L 1233 4 C 1218 -1 1179 -4 1116 -4 C 1051 -4 1004 4 975 22 C 945 39 922 70 905 115 C 837 25 698 -20 487 -20 Z M 328 358 C 328 306 344 268 376 246 C 408 224 463 213 541 213 C 652 213 733 234 784 278 C 834 321 860 391 860 487 L 860 539 L 825 539 C 753 539 690 537 638 535 C 560 532 499 525 454 513 C 409 501 377 484 357 462 C 337 440 328 405 328 358 Z M 221 1628 L 559 1628 L 854 1266 L 602 1266 L 221 1628 Z" unicode="à" />
<glyph horiz-adv-x="1309" d="M 487 -20 C 387 -20 306 -7 244 18 C 182 44 136 81 106 131 C 76 180 61 248 61 336 C 61 441 84 523 130 582 C 176 640 250 683 352 709 C 454 735 606 748 807 748 L 859 748 C 857 802 849 841 833 863 C 817 885 792 901 757 912 C 722 922 673 928 610 928 C 496 928 385 895 276 831 L 135 1042 C 189 1080 264 1113 358 1140 C 452 1166 546 1180 641 1180 C 767 1180 865 1166 935 1138 C 1004 1110 1053 1066 1083 1006 C 1113 946 1128 851 1128 721 L 1128 352 C 1128 300 1133 268 1145 256 C 1157 244 1186 238 1233 238 L 1233 4 C 1218 -1 1179 -4 1116 -4 C 1051 -4 1004 4 975 22 C 945 39 922 70 905 115 C 837 25 698 -20 487 -20 Z M 328 358 C 328 306 344 268 376 246 C 408 224 463 213 541 213 C 652 213 733 234 784 278 C 834 321 860 391 860 487 L 860 539 L 825 539 C 753 539 690 537 638 535 C 560 532 499 525 454 513 C 409 501 377 484 357 462 C 337 440 328 405 328 358 Z M 751 1628 L 1089 1628 L 708 1266 L 459 1266 L 751 1628 Z" unicode="á" />
<glyph horiz-adv-x="1309" d="M 487 -20 C 387 -20 306 -7 244 18 C 182 44 136 81 106 131 C 76 180 61 248 61 336 C 61 441 84 523 130 582 C 176 640 250 683 352 709 C 454 735 606 748 807 748 L 859 748 C 857 802 849 841 833 863 C 817 885 792 901 757 912 C 722 922 673 928 610 928 C 496 928 385 895 276 831 L 135 1042 C 189 1080 264 1113 358 1140 C 452 1166 546 1180 641 1180 C 767 1180 865 1166 935 1138 C 1004 1110 1053 1066 1083 1006 C 1113 946 1128 851 1128 721 L 1128 352 C 1128 300 1133 268 1145 256 C 1157 244 1186 238 1233 238 L 1233 4 C 1218 -1 1179 -4 1116 -4 C 1051 -4 1004 4 975 22 C 945 39 922 70 905 115 C 837 25 698 -20 487 -20 Z M 328 358 C 328 306 344 268 376 246 C 408 224 463 213 541 213 C 652 213 733 234 784 278 C 834 321 860 391 860 487 L 860 539 L 825 539 C 753 539 690 537 638 535 C 560 532 499 525 454 513 C 409 501 377 484 357 462 C 337 440 328 405 328 358 Z M 510 1628 L 801 1628 L 1118 1266 L 854 1266 L 651 1452 L 452 1266 L 192 1266 L 510 1628 Z" unicode="â" />
<glyph horiz-adv-x="1309" d="M 487 -20 C 387 -20 306 -7 244 18 C 182 44 136 81 106 131 C 76 180 61 248 61 336 C 61 441 84 523 130 582 C 176 640 250 683 352 709 C 454 735 606 748 807 748 L 859 748 C 857 802 849 841 833 863 C 817 885 792 901 757 912 C 722 922 673 928 610 928 C 496 928 385 895 276 831 L 135 1042 C 189 1080 264 1113 358 1140 C 452 1166 546 1180 641 1180 C 767 1180 865 1166 935 1138 C 1004 1110 1053 1066 1083 1006 C 1113 946 1128 851 1128 721 L 1128 352 C 1128 300 1133 268 1145 256 C 1157 244 1186 238 1233 238 L 1233 4 C 1218 -1 1179 -4 1116 -4 C 1051 -4 1004 4 975 22 C 945 39 922 70 905 115 C 837 25 698 -20 487 -20 Z M 328 358 C 328 306 344 268 376 246 C 408 224 463 213 541 213 C 652 213 733 234 784 278 C 834 321 860 391 860 487 L 860 539 L 825 539 C 753 539 690 537 638 535 C 560 532 499 525 454 513 C 409 501 377 484 357 462 C 337 440 328 405 328 358 Z M 188 1393 C 298 1527 405 1595 510 1595 C 545 1595 575 1589 600 1578 C 624 1567 647 1555 668 1542 C 688 1528 708 1516 727 1505 C 746 1494 768 1489 792 1489 C 840 1489 896 1528 960 1606 L 1120 1477 C 1006 1336 899 1266 799 1266 C 765 1266 735 1271 711 1282 C 686 1293 663 1305 642 1319 C 621 1332 601 1344 581 1355 C 561 1366 538 1372 514 1372 C 462 1372 408 1335 350 1262 L 188 1393 Z" unicode="ã" />
<glyph horiz-adv-x="1309" d="M 487 -20 C 387 -20 306 -7 244 18 C 182 44 136 81 106 131 C 76 180 61 248 61 336 C 61 441 84 523 130 582 C 176 640 250 683 352 709 C 454 735 606 748 807 748 L 859 748 C 857 802 849 841 833 863 C 817 885 792 901 757 912 C 722 922 673 928 610 928 C 496 928 385 895 276 831 L 135 1042 C 189 1080 264 1113 358 1140 C 452 1166 546 1180 641 1180 C 767 1180 865 1166 935 1138 C 1004 1110 1053 1066 1083 1006 C 1113 946 1128 851 1128 721 L 1128 352 C 1128 300 1133 268 1145 256 C 1157 244 1186 238 1233 238 L 1233 4 C 1218 -1 1179 -4 1116 -4 C 1051 -4 1004 4 975 22 C 945 39 922 70 905 115 C 837 25 698 -20 487 -20 Z M 328 358 C 328 306 344 268 376 246 C 408 224 463 213 541 213 C 652 213 733 234 784 278 C 834 321 860 391 860 487 L 860 539 L 825 539 C 753 539 690 537 638 535 C 560 532 499 525 454 513 C 409 501 377 484 357 462 C 337 440 328 405 328 358 Z M 301 1538 L 555 1538 L 555 1274 L 301 1274 L 301 1538 Z M 758 1538 L 1009 1538 L 1009 1274 L 758 1274 L 758 1538 Z" unicode="ä" />
<glyph horiz-adv-x="1309" d="M 487 -20 C 387 -20 306 -7 244 18 C 182 44 136 81 106 131 C 76 180 61 248 61 336 C 61 441 84 523 130 582 C 176 640 250 683 352 709 C 454 735 606 748 807 748 L 859 748 C 857 802 849 841 833 863 C 817 885 792 901 757 912 C 722 922 673 928 610 928 C 496 928 385 895 276 831 L 135 1042 C 189 1080 264 1113 358 1140 C 452 1166 546 1180 641 1180 C 767 1180 865 1166 935 1138 C 1004 1110 1053 1066 1083 1006 C 1113 946 1128 851 1128 721 L 1128 352 C 1128 300 1133 268 1145 256 C 1157 244 1186 238 1233 238 L 1233 4 C 1218 -1 1179 -4 1116 -4 C 1051 -4 1004 4 975 22 C 945 39 922 70 905 115 C 837 25 698 -20 487 -20 Z M 328 358 C 328 306 344 268 376 246 C 408 224 463 213 541 213 C 652 213 733 234 784 278 C 834 321 860 391 860 487 L 860 539 L 825 539 C 753 539 690 537 638 535 C 560 532 499 525 454 513 C 409 501 377 484 357 462 C 337 440 328 405 328 358 Z M 655 1235 C 565 1235 496 1260 448 1310 C 399 1360 375 1430 375 1522 C 375 1614 399 1685 448 1736 C 497 1786 566 1812 655 1812 C 742 1812 811 1786 861 1734 C 911 1682 936 1612 936 1522 C 936 1432 911 1361 861 1311 C 811 1260 742 1235 655 1235 Z M 655 1378 C 699 1378 732 1390 756 1415 C 780 1439 792 1475 792 1522 C 792 1568 780 1604 757 1629 C 733 1654 699 1667 655 1667 C 609 1667 575 1654 552 1629 C 529 1603 518 1568 518 1522 C 518 1476 529 1440 552 1415 C 574 1390 609 1378 655 1378 Z" unicode="å" />
<glyph horiz-adv-x="2023" d="M 1438 -23 C 1207 -23 1050 38 966 160 C 940 116 907 81 868 54 C 829 27 782 8 727 -3 C 671 -14 592 -20 489 -20 C 343 -20 235 7 165 62 C 95 117 61 208 61 336 C 61 440 84 521 131 581 C 178 640 253 683 357 709 C 460 735 610 748 807 748 L 859 748 C 857 802 849 841 833 863 C 817 885 792 901 757 912 C 722 922 673 928 610 928 C 552 928 494 919 434 903 C 374 886 321 863 274 834 L 135 1042 C 189 1080 264 1113 358 1140 C 452 1166 546 1180 641 1180 C 832 1180 958 1138 1018 1055 C 1109 1138 1248 1180 1434 1180 C 1552 1180 1650 1160 1726 1121 C 1802 1082 1856 1022 1889 941 C 1922 860 1939 748 1939 605 L 1937 467 L 1119 467 C 1126 377 1155 312 1206 272 C 1256 231 1334 211 1438 211 C 1514 211 1580 219 1637 236 C 1694 253 1748 281 1800 319 L 1946 131 C 1871 75 1796 35 1721 12 C 1645 -11 1551 -23 1438 -23 Z M 328 358 C 328 305 344 268 376 246 C 408 224 463 213 541 213 C 651 213 732 234 783 277 C 834 319 860 389 860 487 L 860 539 L 825 539 C 681 539 576 534 510 524 C 443 514 396 498 369 475 C 341 451 328 412 328 358 Z M 1679 684 C 1675 764 1664 819 1648 849 C 1631 879 1605 901 1571 917 C 1536 932 1488 940 1427 940 C 1335 940 1264 921 1215 885 C 1166 849 1136 794 1125 722 L 1119 684 L 1679 684 Z" unicode="æ" />
<glyph horiz-adv-x="1190" d="M 600 -500 C 504 -500 416 -478 334 -434 L 406 -299 C 470 -330 531 -346 590 -346 C 638 -346 672 -339 693 -327 C 714 -314 725 -291 725 -258 C 725 -222 711 -200 684 -192 C 657 -184 626 -180 592 -180 L 543 -182 L 485 -143 L 514 -10 C 366 12 256 70 186 164 C 115 258 80 396 80 580 C 80 726 101 842 145 929 C 188 1015 254 1079 342 1119 C 430 1159 540 1180 672 1180 C 867 1180 1018 1119 1126 997 L 928 809 C 886 850 846 878 806 894 C 766 910 721 918 672 918 C 565 918 486 891 436 839 C 385 786 360 697 360 571 C 360 445 385 355 435 302 C 485 249 565 223 674 223 C 728 223 775 231 815 248 C 855 264 897 294 942 336 L 1124 162 C 1050 93 980 46 913 20 C 846 -5 766 -18 672 -20 L 659 -88 L 680 -88 C 745 -88 792 -94 820 -107 C 848 -119 871 -139 887 -166 C 903 -192 911 -229 911 -276 C 911 -352 886 -408 836 -445 C 786 -481 707 -500 600 -500 Z" unicode="ç" />
<glyph horiz-adv-x="1255" d="M 668 -23 C 538 -23 429 -2 341 37 C 253 77 187 141 144 228 C 101 315 80 432 80 580 C 80 788 127 940 223 1036 C 319 1132 466 1180 666 1180 C 748 1180 818 1171 876 1153 C 934 1135 981 1109 1019 1077 C 1057 1045 1086 1006 1108 961 C 1129 915 1145 863 1155 805 C 1165 746 1170 664 1170 560 L 1169 467 L 351 467 C 358 377 387 312 438 272 C 488 231 565 211 668 211 C 744 211 810 219 867 236 C 924 253 978 281 1030 319 L 1176 131 C 1104 76 1028 37 950 13 C 872 -11 778 -23 668 -23 Z M 909 686 C 905 761 894 814 878 846 C 861 877 835 900 800 916 C 765 932 717 940 657 940 C 561 940 489 920 441 881 C 392 842 362 777 352 686 L 909 686 Z M 190 1628 L 528 1628 L 823 1266 L 571 1266 L 190 1628 Z" unicode="è" />
<glyph horiz-adv-x="1255" d="M 720 1628 L 1058 1628 L 677 1266 L 428 1266 L 720 1628 Z M 668 -23 C 538 -23 429 -2 341 37 C 253 77 187 141 144 228 C 101 315 80 432 80 580 C 80 788 127 940 223 1036 C 319 1132 466 1180 666 1180 C 748 1180 818 1171 876 1153 C 934 1135 981 1109 1019 1077 C 1057 1045 1086 1006 1108 961 C 1129 915 1145 863 1155 805 C 1165 746 1170 664 1170 560 L 1169 467 L 351 467 C 358 377 387 312 438 272 C 488 231 565 211 668 211 C 744 211 810 219 867 236 C 924 253 978 281 1030 319 L 1176 131 C 1104 76 1028 37 950 13 C 872 -11 778 -23 668 -23 Z M 909 686 C 905 761 894 814 878 846 C 861 877 835 900 800 916 C 765 932 717 940 657 940 C 561 940 489 920 441 881 C 392 842 362 777 352 686 L 909 686 Z" unicode="é" />
<glyph horiz-adv-x="1255" d="M 479 1628 L 770 1628 L 1087 1266 L 823 1266 L 620 1452 L 421 1266 L 161 1266 L 479 1628 Z M 668 -23 C 538 -23 429 -2 341 37 C 253 77 187 141 144 228 C 101 315 80 432 80 580 C 80 788 127 940 223 1036 C 319 1132 466 1180 666 1180 C 748 1180 818 1171 876 1153 C 934 1135 981 1109 1019 1077 C 1057 1045 1086 1006 1108 961 C 1129 915 1145 863 1155 805 C 1165 746 1170 664 1170 560 L 1169 467 L 351 467 C 358 377 387 312 438 272 C 488 231 565 211 668 211 C 744 211 810 219 867 236 C 924 253 978 281 1030 319 L 1176 131 C 1104 76 1028 37 950 13 C 872 -11 778 -23 668 -23 Z M 909 686 C 905 761 894 814 878 846 C 861 877 835 900 800 916 C 765 932 717 940 657 940 C 561 940 489 920 441 881 C 392 842 362 777 352 686 L 909 686 Z" unicode="ê" />
<glyph horiz-adv-x="1255" d="M 270 1538 L 524 1538 L 524 1274 L 270 1274 L 270 1538 Z M 727 1538 L 978 1538 L 978 1274 L 727 1274 L 727 1538 Z M 668 -23 C 538 -23 429 -2 341 37 C 253 77 187 141 144 228 C 101 315 80 432 80 580 C 80 788 127 940 223 1036 C 319 1132 466 1180 666 1180 C 748 1180 818 1171 876 1153 C 934 1135 981 1109 1019 1077 C 1057 1045 1086 1006 1108 961 C 1129 915 1145 863 1155 805 C 1165 746 1170 664 1170 560 L 1169 467 L 351 467 C 358 377 387 312 438 272 C 488 231 565 211 668 211 C 744 211 810 219 867 236 C 924 253 978 281 1030 319 L 1176 131 C 1104 76 1028 37 950 13 C 872 -11 778 -23 668 -23 Z M 909 686 C 905 761 894 814 878 846 C 861 877 835 900 800 916 C 765 932 717 940 657 940 C 561 940 489 920 441 881 C 392 842 362 777 352 686 L 909 686 Z" unicode="ë" />
<glyph horiz-adv-x="571" d="M -119 1626 L 221 1626 L 424 1266 L 168 1266 L -119 1626 Z M 147 1153 L 424 1153 L 424 0 L 147 0 L 147 1153 Z" unicode="ì" />
<glyph horiz-adv-x="571" d="M 350 1626 L 692 1626 L 406 1266 L 152 1266 L 350 1626 Z M 147 1153 L 424 1153 L 424 0 L 147 0 L 147 1153 Z" unicode="í" />
<glyph horiz-adv-x="571" d="M 147 1626 L 424 1626 L 684 1266 L 426 1266 L 283 1452 L 137 1266 L -115 1266 L 147 1626 Z M 147 1153 L 424 1153 L 424 0 L 147 0 L 147 1153 Z" unicode="î" />
<glyph horiz-adv-x="571" d="M -29 1540 L 199 1540 L 199 1280 L -29 1280 L -29 1540 Z M 375 1540 L 600 1540 L 600 1280 L 375 1280 L 375 1540 Z M 147 1153 L 424 1153 L 424 0 L 147 0 L 147 1153 Z" unicode="ï" />
<glyph horiz-adv-x="1341" d="M 582 1374 L 714 1403 C 680 1445 643 1488 602 1534 L 868 1628 C 919 1581 967 1528 1011 1468 L 1284 1528 L 1284 1339 L 1112 1301 C 1212 1105 1262 878 1262 618 C 1262 396 1214 233 1119 131 C 1023 28 873 -23 668 -23 C 276 -23 80 165 80 543 C 80 733 122 874 208 966 C 293 1058 420 1104 588 1104 C 673 1104 743 1097 798 1083 C 853 1069 896 1046 928 1012 C 912 1081 879 1157 829 1240 L 582 1186 L 582 1374 Z M 668 223 C 773 223 851 249 902 301 C 953 353 979 436 979 551 C 979 663 954 744 904 794 C 854 844 776 870 668 870 C 561 870 483 844 434 793 C 384 742 360 661 360 551 C 360 439 385 356 436 303 C 486 249 564 223 668 223 Z" unicode="ð" />
<glyph horiz-adv-x="1337" d="M 135 1137 L 352 1153 L 377 1053 C 448 1137 588 1180 797 1180 C 898 1180 979 1164 1039 1132 C 1099 1100 1142 1051 1169 986 C 1196 921 1210 826 1210 700 L 1210 0 L 932 0 L 932 645 C 932 723 924 779 909 811 C 894 843 870 868 836 884 C 802 900 756 909 698 909 C 630 909 575 899 534 881 C 492 862 462 834 444 797 C 425 759 416 703 416 627 L 416 0 L 135 0 L 135 1137 Z M 198 1393 C 308 1527 415 1595 520 1595 C 555 1595 585 1589 610 1578 C 634 1567 657 1555 678 1542 C 698 1528 718 1516 737 1505 C 756 1494 778 1489 802 1489 C 850 1489 906 1528 970 1606 L 1130 1477 C 1016 1336 909 1266 809 1266 C 775 1266 745 1271 721 1282 C 696 1293 673 1305 652 1319 C 631 1332 611 1344 591 1355 C 571 1366 548 1372 524 1372 C 472 1372 418 1335 360 1262 L 198 1393 Z" unicode="ñ" />
<glyph horiz-adv-x="1339" d="M 670 -23 C 469 -23 320 25 224 123 C 128 221 80 373 80 580 C 80 786 128 937 224 1034 C 320 1131 469 1180 670 1180 C 872 1180 1020 1131 1116 1034 C 1212 937 1260 786 1260 580 C 1260 373 1212 221 1116 123 C 1020 25 871 -23 670 -23 Z M 670 223 C 776 223 854 250 904 304 C 954 358 979 447 979 571 C 979 693 954 782 905 837 C 855 892 777 920 670 920 C 564 920 485 892 435 838 C 385 784 360 695 360 571 C 360 448 385 359 435 305 C 485 250 563 223 670 223 Z M 233 1628 L 571 1628 L 866 1266 L 614 1266 L 233 1628 Z" unicode="ò" />
<glyph horiz-adv-x="1339" d="M 763 1628 L 1101 1628 L 720 1266 L 471 1266 L 763 1628 Z M 670 -23 C 469 -23 320 25 224 123 C 128 221 80 373 80 580 C 80 786 128 937 224 1034 C 320 1131 469 1180 670 1180 C 872 1180 1020 1131 1116 1034 C 1212 937 1260 786 1260 580 C 1260 373 1212 221 1116 123 C 1020 25 871 -23 670 -23 Z M 670 223 C 776 223 854 250 904 304 C 954 358 979 447 979 571 C 979 693 954 782 905 837 C 855 892 777 920 670 920 C 564 920 485 892 435 838 C 385 784 360 695 360 571 C 360 448 385 359 435 305 C 485 250 563 223 670 223 Z" unicode="ó" />
<glyph horiz-adv-x="1339" d="M 522 1628 L 813 1628 L 1130 1266 L 866 1266 L 663 1452 L 464 1266 L 204 1266 L 522 1628 Z M 670 -23 C 469 -23 320 25 224 123 C 128 221 80 373 80 580 C 80 786 128 937 224 1034 C 320 1131 469 1180 670 1180 C 872 1180 1020 1131 1116 1034 C 1212 937 1260 786 1260 580 C 1260 373 1212 221 1116 123 C 1020 25 871 -23 670 -23 Z M 670 223 C 776 223 854 250 904 304 C 954 358 979 447 979 571 C 979 693 954 782 905 837 C 855 892 777 920 670 920 C 564 920 485 892 435 838 C 385 784 360 695 360 571 C 360 448 385 359 435 305 C 485 250 563 223 670 223 Z" unicode="ô" />
<glyph horiz-adv-x="1339" d="M 670 -23 C 469 -23 320 25 224 123 C 128 221 80 373 80 580 C 80 786 128 937 224 1034 C 320 1131 469 1180 670 1180 C 872 1180 1020 1131 1116 1034 C 1212 937 1260 786 1260 580 C 1260 373 1212 221 1116 123 C 1020 25 871 -23 670 -23 Z M 670 223 C 776 223 854 250 904 304 C 954 358 979 447 979 571 C 979 693 954 782 905 837 C 855 892 777 920 670 920 C 564 920 485 892 435 838 C 385 784 360 695 360 571 C 360 448 385 359 435 305 C 485 250 563 223 670 223 Z M 200 1393 C 310 1527 417 1595 522 1595 C 557 1595 587 1589 612 1578 C 636 1567 659 1555 680 1542 C 700 1528 720 1516 739 1505 C 758 1494 780 1489 804 1489 C 852 1489 908 1528 972 1606 L 1132 1477 C 1018 1336 911 1266 811 1266 C 777 1266 747 1271 723 1282 C 698 1293 675 1305 654 1319 C 633 1332 613 1344 593 1355 C 573 1366 550 1372 526 1372 C 474 1372 420 1335 362 1262 L 200 1393 Z" unicode="õ" />
<glyph horiz-adv-x="1339" d="M 313 1538 L 567 1538 L 567 1274 L 313 1274 L 313 1538 Z M 770 1538 L 1021 1538 L 1021 1274 L 770 1274 L 770 1538 Z M 670 -23 C 469 -23 320 25 224 123 C 128 221 80 373 80 580 C 80 786 128 937 224 1034 C 320 1131 469 1180 670 1180 C 872 1180 1020 1131 1116 1034 C 1212 937 1260 786 1260 580 C 1260 373 1212 221 1116 123 C 1020 25 871 -23 670 -23 Z M 670 223 C 776 223 854 250 904 304 C 954 358 979 447 979 571 C 979 693 954 782 905 837 C 855 892 777 920 670 920 C 564 920 485 892 435 838 C 385 784 360 695 360 571 C 360 448 385 359 435 305 C 485 250 563 223 670 223 Z" unicode="ö" />
<glyph horiz-adv-x="1466" d="M 588 432 L 879 432 L 879 176 L 588 176 L 588 432 Z M 199 852 L 1268 852 L 1268 594 L 199 594 L 199 852 Z M 588 1270 L 879 1270 L 879 1012 L 588 1012 L 588 1270 Z" unicode="÷" />
<glyph horiz-adv-x="1339" d="M 670 -23 C 582 -23 505 -14 439 2 L 383 -88 L 131 -88 L 247 97 C 189 146 146 211 120 291 C 93 371 80 467 80 580 C 80 790 127 943 222 1038 C 316 1132 466 1180 670 1180 C 757 1180 834 1171 900 1155 L 956 1245 L 1208 1245 L 1094 1060 C 1204 966 1260 806 1260 580 C 1260 368 1212 215 1118 120 C 1023 24 874 -23 670 -23 Z M 670 215 C 776 215 855 242 907 298 C 959 353 985 444 985 571 C 985 679 966 761 929 816 L 564 225 C 595 218 630 215 670 215 Z M 670 926 C 561 926 481 898 431 843 C 381 787 356 697 356 571 C 356 466 372 386 406 331 L 765 918 C 736 923 704 926 670 926 Z" unicode="ø" />
<glyph horiz-adv-x="1323" d="M 664 -20 C 527 -20 420 -3 344 30 C 267 64 212 117 179 191 C 145 265 129 376 129 524 L 129 1153 L 408 1153 L 408 518 C 408 476 409 438 412 403 C 415 367 425 337 441 311 C 457 285 483 265 518 251 C 553 236 602 229 666 229 C 713 229 753 233 785 242 C 817 251 843 265 863 283 C 883 301 897 325 906 355 C 915 385 920 441 920 522 L 920 1153 L 1194 1153 L 1194 528 C 1194 375 1177 262 1144 189 C 1110 116 1056 63 981 30 C 905 -3 800 -20 664 -20 Z M 225 1628 L 563 1628 L 858 1266 L 606 1266 L 225 1628 Z" unicode="ù" />
<glyph horiz-adv-x="1323" d="M 755 1628 L 1093 1628 L 712 1266 L 463 1266 L 755 1628 Z M 664 -20 C 527 -20 420 -3 344 30 C 267 64 212 117 179 191 C 145 265 129 376 129 524 L 129 1153 L 408 1153 L 408 518 C 408 476 409 438 412 403 C 415 367 425 337 441 311 C 457 285 483 265 518 251 C 553 236 602 229 666 229 C 713 229 753 233 785 242 C 817 251 843 265 863 283 C 883 301 897 325 906 355 C 915 385 920 441 920 522 L 920 1153 L 1194 1153 L 1194 528 C 1194 375 1177 262 1144 189 C 1110 116 1056 63 981 30 C 905 -3 800 -20 664 -20 Z" unicode="ú" />
<glyph horiz-adv-x="1323" d="M 514 1628 L 805 1628 L 1122 1266 L 858 1266 L 655 1452 L 456 1266 L 196 1266 L 514 1628 Z M 664 -20 C 527 -20 420 -3 344 30 C 267 64 212 117 179 191 C 145 265 129 376 129 524 L 129 1153 L 408 1153 L 408 518 C 408 476 409 438 412 403 C 415 367 425 337 441 311 C 457 285 483 265 518 251 C 553 236 602 229 666 229 C 713 229 753 233 785 242 C 817 251 843 265 863 283 C 883 301 897 325 906 355 C 915 385 920 441 920 522 L 920 1153 L 1194 1153 L 1194 528 C 1194 375 1177 262 1144 189 C 1110 116 1056 63 981 30 C 905 -3 800 -20 664 -20 Z" unicode="û" />
<glyph horiz-adv-x="1323" d="M 305 1538 L 559 1538 L 559 1274 L 305 1274 L 305 1538 Z M 762 1538 L 1013 1538 L 1013 1274 L 762 1274 L 762 1538 Z M 664 -20 C 527 -20 420 -3 344 30 C 267 64 212 117 179 191 C 145 265 129 376 129 524 L 129 1153 L 408 1153 L 408 518 C 408 476 409 438 412 403 C 415 367 425 337 441 311 C 457 285 483 265 518 251 C 553 236 602 229 666 229 C 713 229 753 233 785 242 C 817 251 843 265 863 283 C 883 301 897 325 906 355 C 915 385 920 441 920 522 L 920 1153 L 1194 1153 L 1194 528 C 1194 375 1177 262 1144 189 C 1110 116 1056 63 981 30 C 905 -3 800 -20 664 -20 Z" unicode="ü" />
<glyph horiz-adv-x="1169" d="M 4 1153 L 303 1153 L 595 361 L 879 1153 L 1167 1153 L 696 -68 C 656 -175 604 -248 541 -287 C 478 -326 388 -346 270 -346 L 217 -346 L 160 -344 L 160 -127 L 246 -127 C 305 -127 346 -121 370 -110 C 393 -98 411 -74 424 -37 L 445 21 L 4 1153 Z M 685 1628 L 1023 1628 L 642 1266 L 393 1266 L 685 1628 Z" unicode="ý" />
<glyph horiz-adv-x="1378" d="M 135 1589 L 414 1589 L 414 1061 C 445 1101 492 1130 555 1150 C 618 1170 702 1180 807 1180 C 971 1180 1094 1132 1176 1037 C 1257 942 1298 790 1298 580 C 1298 371 1256 219 1172 123 C 1088 27 961 -20 791 -20 C 692 -20 612 -10 551 8 C 490 26 445 56 416 96 L 416 -338 L 135 -338 L 135 1589 Z M 737 225 C 833 225 904 251 949 304 C 993 357 1016 445 1016 569 C 1016 696 993 786 949 840 C 904 893 833 920 737 920 C 621 920 539 893 490 839 C 440 785 416 695 416 569 C 416 441 440 351 488 301 C 536 250 619 225 737 225 Z" unicode="þ" />
<glyph horiz-adv-x="1169" d="M 4 1153 L 303 1153 L 595 361 L 879 1153 L 1167 1153 L 696 -68 C 656 -175 604 -248 541 -287 C 478 -326 388 -346 270 -346 L 217 -346 L 160 -344 L 160 -127 L 246 -127 C 305 -127 346 -121 370 -110 C 393 -98 411 -74 424 -37 L 445 21 L 4 1153 Z M 235 1538 L 489 1538 L 489 1274 L 235 1274 L 235 1538 Z M 692 1538 L 943 1538 L 943 1274 L 692 1274 L 692 1538 Z" unicode="ÿ" />
<glyph horiz-adv-x="1583" d="" unicode="Ā" />
<glyph horiz-adv-x="1309" d="" unicode="ā" />
<glyph horiz-adv-x="1583" d="M 643 1528 L 940 1528 L 1550 0 L 1249 0 L 1143 270 L 428 270 L 322 0 L 35 0 L 643 1528 Z M 1047 524 L 784 1182 L 524 524 L 1047 524 Z M 788 1573 C 703 1573 633 1586 577 1612 C 521 1638 476 1676 443 1727 C 409 1777 382 1853 362 1954 L 565 1993 C 579 1935 594 1894 611 1869 C 628 1843 651 1824 679 1812 C 707 1800 744 1794 788 1794 C 832 1794 869 1800 898 1812 C 926 1824 949 1842 966 1867 C 982 1892 997 1934 1011 1993 L 1216 1956 C 1194 1854 1167 1778 1133 1727 C 1099 1675 1053 1637 997 1611 C 941 1585 871 1573 788 1573 Z" unicode="Ă" />
<glyph horiz-adv-x="1309" d="M 487 -20 C 387 -20 306 -7 244 18 C 182 44 136 81 106 131 C 76 180 61 248 61 336 C 61 441 84 523 130 582 C 176 640 250 683 352 709 C 454 735 606 748 807 748 L 859 748 C 857 802 849 841 833 863 C 817 885 792 901 757 912 C 722 922 673 928 610 928 C 496 928 385 895 276 831 L 135 1042 C 189 1080 264 1113 358 1140 C 452 1166 546 1180 641 1180 C 767 1180 865 1166 935 1138 C 1004 1110 1053 1066 1083 1006 C 1113 946 1128 851 1128 721 L 1128 352 C 1128 300 1133 268 1145 256 C 1157 244 1186 238 1233 238 L 1233 4 C 1218 -1 1179 -4 1116 -4 C 1051 -4 1004 4 975 22 C 945 39 922 70 905 115 C 837 25 698 -20 487 -20 Z M 328 358 C 328 306 344 268 376 246 C 408 224 463 213 541 213 C 652 213 733 234 784 278 C 834 321 860 391 860 487 L 860 539 L 825 539 C 753 539 690 537 638 535 C 560 532 499 525 454 513 C 409 501 377 484 357 462 C 337 440 328 405 328 358 Z M 655 1237 C 570 1237 500 1250 444 1276 C 388 1302 343 1340 310 1391 C 276 1441 249 1517 229 1618 L 432 1657 C 446 1599 461 1558 478 1533 C 495 1507 518 1488 546 1476 C 574 1464 611 1458 655 1458 C 699 1458 736 1464 765 1476 C 793 1488 816 1506 833 1531 C 849 1556 864 1598 878 1657 L 1083 1620 C 1061 1518 1034 1442 1000 1391 C 966 1339 920 1301 864 1275 C 808 1249 738 1237 655 1237 Z" unicode="ă" />
<glyph horiz-adv-x="1583" d="M 643 1528 L 940 1528 L 1550 0 L 1466 0 C 1401 -40 1354 -78 1324 -115 C 1294 -152 1280 -185 1280 -213 C 1280 -244 1289 -266 1307 -278 C 1325 -290 1353 -297 1393 -297 C 1441 -297 1492 -288 1544 -270 L 1597 -424 C 1520 -458 1440 -475 1356 -475 C 1258 -475 1185 -458 1137 -426 C 1089 -394 1065 -341 1065 -268 C 1065 -216 1081 -165 1113 -115 C 1145 -64 1189 -22 1243 12 L 1143 270 L 428 270 L 322 0 L 35 0 L 643 1528 Z M 1047 524 L 784 1182 L 524 524 L 1047 524 Z" unicode="Ą" />
<glyph horiz-adv-x="1309" d="M 487 -20 C 387 -20 306 -7 244 18 C 182 44 136 81 106 131 C 76 180 61 248 61 336 C 61 441 84 523 130 582 C 176 640 250 683 352 709 C 454 735 606 748 807 748 L 860 748 C 857 801 848 839 832 862 C 816 884 791 901 756 912 C 720 922 672 928 610 928 C 496 928 385 895 276 831 L 135 1042 C 189 1080 264 1113 358 1140 C 452 1166 546 1180 641 1180 C 767 1180 865 1166 935 1138 C 1004 1110 1053 1066 1083 1006 C 1113 946 1128 851 1128 721 L 1128 352 C 1128 300 1133 268 1145 256 C 1157 244 1186 238 1233 238 L 1233 4 C 1095 -80 1026 -153 1026 -213 C 1026 -245 1035 -267 1053 -279 C 1071 -291 1099 -297 1139 -297 C 1191 -297 1243 -287 1294 -268 L 1350 -422 C 1275 -457 1192 -475 1102 -475 C 1004 -475 931 -458 883 -426 C 835 -393 811 -340 811 -268 C 811 -212 828 -159 862 -110 C 896 -60 944 -20 1004 10 C 980 19 962 29 952 41 C 931 58 915 83 905 115 C 837 25 698 -20 487 -20 Z M 541 213 C 652 213 733 234 784 278 C 834 321 860 391 860 487 L 860 539 L 825 539 C 682 539 577 534 511 524 C 445 514 398 498 370 474 C 342 450 328 412 328 358 C 328 306 344 268 376 246 C 408 224 463 213 541 213 Z" unicode="ą" />
<glyph horiz-adv-x="1536" d="M 862 1964 L 1200 1964 L 819 1602 L 570 1602 L 862 1964 Z M 848 -23 C 586 -23 392 40 266 168 C 139 295 76 492 76 760 C 76 1020 142 1216 275 1346 C 407 1476 604 1542 864 1542 C 988 1542 1097 1525 1191 1491 C 1285 1457 1369 1403 1444 1329 L 1239 1124 C 1191 1170 1136 1206 1076 1232 C 1016 1257 944 1270 862 1270 C 692 1270 567 1226 488 1140 C 408 1054 369 926 369 758 C 369 580 409 450 490 368 C 570 285 695 244 864 244 C 920 244 969 249 1013 259 C 1056 269 1095 283 1130 302 C 1165 321 1207 353 1255 397 L 1454 205 C 1372 121 1283 62 1186 28 C 1089 -5 976 -23 848 -23 Z" unicode="Ć" />
<glyph horiz-adv-x="1190" d="M 693 1628 L 1031 1628 L 650 1266 L 401 1266 L 693 1628 Z M 659 -20 C 529 -20 421 0 336 41 C 251 81 187 145 144 232 C 101 318 80 434 80 580 C 80 726 101 842 145 929 C 188 1015 254 1079 342 1119 C 430 1159 540 1180 672 1180 C 867 1180 1018 1119 1126 997 L 928 809 C 886 850 846 878 806 894 C 766 910 721 918 672 918 C 565 918 486 891 436 839 C 385 786 360 697 360 571 C 360 445 385 355 435 302 C 485 249 565 223 674 223 C 728 223 775 231 815 248 C 855 264 897 294 942 336 L 1124 162 C 1051 94 980 46 912 20 C 843 -6 759 -20 659 -20 Z" unicode="ć" />
<glyph horiz-adv-x="1536" d="" unicode="Ĉ" />
<glyph horiz-adv-x="1190" d="" unicode="ĉ" />
<glyph horiz-adv-x="1536" d="" unicode="Ċ" />
<glyph horiz-adv-x="1190" d="" unicode="ċ" />
<glyph horiz-adv-x="1536" d="M 303 1964 L 570 1964 L 770 1780 L 969 1964 L 1229 1964 L 912 1602 L 621 1602 L 303 1964 Z M 848 -23 C 586 -23 392 40 266 168 C 139 295 76 492 76 760 C 76 1020 142 1216 275 1346 C 407 1476 604 1542 864 1542 C 988 1542 1097 1525 1191 1491 C 1285 1457 1369 1403 1444 1329 L 1239 1124 C 1191 1170 1136 1206 1076 1232 C 1016 1257 944 1270 862 1270 C 692 1270 567 1226 488 1140 C 408 1054 369 926 369 758 C 369 580 409 450 490 368 C 570 285 695 244 864 244 C 920 244 969 249 1013 259 C 1056 269 1095 283 1130 302 C 1165 321 1207 353 1255 397 L 1454 205 C 1372 121 1283 62 1186 28 C 1089 -5 976 -23 848 -23 Z" unicode="Č" />
<glyph horiz-adv-x="1190" d="M 134 1628 L 401 1628 L 601 1444 L 800 1628 L 1060 1628 L 743 1266 L 452 1266 L 134 1628 Z M 659 -20 C 529 -20 421 0 336 41 C 251 81 187 145 144 232 C 101 318 80 434 80 580 C 80 726 101 842 145 929 C 188 1015 254 1079 342 1119 C 430 1159 540 1180 672 1180 C 867 1180 1018 1119 1126 997 L 928 809 C 886 850 846 878 806 894 C 766 910 721 918 672 918 C 565 918 486 891 436 839 C 385 786 360 697 360 571 C 360 445 385 355 435 302 C 485 249 565 223 674 223 C 728 223 775 231 815 248 C 855 264 897 294 942 336 L 1124 162 C 1051 94 980 46 912 20 C 843 -6 759 -20 659 -20 Z" unicode="č" />
<glyph horiz-adv-x="1593" d="M 329 1964 L 596 1964 L 796 1780 L 995 1964 L 1255 1964 L 938 1602 L 647 1602 L 329 1964 Z M 160 1518 L 690 1518 C 909 1518 1076 1493 1191 1445 C 1306 1397 1390 1318 1442 1210 C 1494 1102 1520 952 1520 760 C 1520 570 1492 420 1438 311 C 1383 201 1297 122 1179 73 C 1061 24 894 0 678 0 L 160 0 L 160 1518 Z M 694 262 C 833 262 940 277 1016 307 C 1091 337 1145 386 1178 454 C 1210 522 1227 624 1227 760 C 1227 902 1211 1006 1179 1070 C 1147 1134 1095 1180 1021 1208 C 947 1235 838 1249 694 1249 L 451 1249 L 451 262 L 694 262 Z" unicode="Ď" />
<glyph horiz-adv-x="1669" d="M 1378 1157 C 1437 1186 1474 1209 1490 1226 C 1505 1242 1513 1268 1513 1303 L 1389 1303 L 1389 1589 L 1665 1589 L 1665 1384 C 1665 1307 1658 1250 1646 1213 C 1634 1175 1613 1144 1583 1118 C 1553 1092 1506 1064 1442 1036 L 1378 1157 Z M 578 -23 C 411 -23 286 25 204 123 C 121 221 80 374 80 584 C 80 790 122 941 207 1037 C 291 1132 418 1180 588 1180 C 684 1180 763 1170 825 1152 C 886 1133 932 1103 963 1063 L 963 1589 L 1243 1589 L 1243 12 L 1030 -10 L 999 111 C 961 64 908 30 840 9 C 772 -12 684 -23 578 -23 Z M 643 225 C 759 225 841 252 890 308 C 938 364 963 456 963 584 C 963 672 953 739 933 786 C 913 833 880 867 835 889 C 789 911 725 922 643 922 C 546 922 475 896 430 845 C 384 794 362 707 362 584 C 362 454 384 362 430 307 C 476 252 547 225 643 225 Z" unicode="ď" />
<glyph horiz-adv-x="1593" d="M 0 889 L 160 889 L 160 1518 L 690 1518 C 909 1518 1076 1493 1191 1445 C 1306 1397 1390 1318 1442 1210 C 1494 1102 1520 952 1520 760 C 1520 572 1492 424 1436 315 C 1380 205 1294 125 1176 75 C 1058 25 892 0 678 0 L 160 0 L 160 653 L 0 653 L 0 889 Z M 694 262 C 833 262 940 277 1016 307 C 1091 337 1145 386 1178 454 C 1210 522 1227 624 1227 760 C 1227 902 1211 1006 1179 1070 C 1147 1134 1095 1180 1021 1208 C 947 1235 838 1249 694 1249 L 451 1249 L 451 889 L 750 889 L 750 653 L 451 653 L 451 262 L 694 262 Z" unicode="Đ" />
<glyph horiz-adv-x="1378" d="M 578 -23 C 411 -23 286 25 204 123 C 121 221 80 374 80 584 C 80 790 122 941 207 1037 C 291 1132 418 1180 588 1180 C 684 1180 763 1170 825 1152 C 886 1133 932 1103 963 1063 L 963 1245 L 702 1245 L 702 1473 L 963 1473 L 963 1589 L 1243 1589 L 1243 1473 L 1378 1473 L 1378 1245 L 1243 1245 L 1243 12 L 1030 -10 L 999 111 C 961 64 908 30 840 9 C 772 -12 684 -23 578 -23 Z M 643 225 C 759 225 841 252 890 308 C 938 364 963 456 963 584 C 963 672 953 739 933 786 C 913 833 880 867 835 889 C 789 911 725 922 643 922 C 546 922 475 896 430 845 C 384 794 362 707 362 584 C 362 454 384 362 430 307 C 476 252 547 225 643 225 Z" unicode="đ" />
<glyph horiz-adv-x="1382" d="" unicode="Ē" />
<glyph horiz-adv-x="1255" d="" unicode="ē" />
<glyph horiz-adv-x="1382" d="" unicode="Ĕ" />
<glyph horiz-adv-x="1255" d="" unicode="ĕ" />
<glyph horiz-adv-x="1382" d="" unicode="Ė" />
<glyph horiz-adv-x="1255" d="" unicode="ė" />
<glyph horiz-adv-x="1382" d="M 160 1518 L 1266 1518 L 1266 1247 L 451 1247 L 451 909 L 1245 909 L 1245 645 L 451 645 L 451 262 L 1274 262 L 1274 0 L 1106 0 C 1045 -39 1000 -78 972 -116 C 944 -154 930 -186 930 -213 C 930 -244 939 -266 957 -278 C 975 -290 1003 -297 1042 -297 C 1071 -297 1104 -293 1140 -285 C 1176 -277 1203 -270 1221 -264 L 1276 -418 C 1235 -436 1190 -450 1141 -460 C 1091 -470 1046 -475 1006 -475 C 908 -475 835 -458 787 -426 C 739 -394 715 -341 715 -268 C 715 -217 729 -168 757 -122 C 785 -75 825 -34 877 0 L 160 0 L 160 1518 Z" unicode="Ę" />
<glyph horiz-adv-x="1255" d="M 662 -23 C 530 -21 421 0 335 40 C 249 80 185 144 143 230 C 101 316 80 432 80 580 C 80 788 127 940 223 1036 C 319 1132 466 1180 666 1180 C 748 1180 818 1171 876 1153 C 934 1135 981 1109 1019 1077 C 1057 1045 1086 1006 1108 961 C 1129 915 1145 863 1155 805 C 1165 746 1170 664 1170 560 L 1169 467 L 350 467 C 359 375 389 309 439 270 C 489 230 565 211 668 211 C 744 211 810 219 867 236 C 924 253 978 281 1030 319 L 1176 131 C 1100 76 1028 38 961 16 C 897 -22 847 -62 811 -102 C 775 -142 758 -179 758 -213 C 758 -245 767 -267 785 -279 C 803 -291 831 -297 870 -297 C 898 -297 930 -293 965 -286 C 1000 -278 1027 -271 1047 -264 L 1102 -418 C 1064 -435 1021 -449 972 -459 C 923 -469 877 -475 834 -475 C 734 -475 661 -458 613 -426 C 565 -393 541 -340 541 -268 C 541 -222 552 -177 575 -135 C 598 -93 631 -55 674 -23 L 662 -23 Z M 657 940 C 563 940 491 920 441 882 C 391 843 361 778 350 686 L 909 686 C 905 761 894 814 878 846 C 861 877 835 900 800 916 C 765 932 717 940 657 940 Z" unicode="ę" />
<glyph horiz-adv-x="1382" d="M 225 1964 L 492 1964 L 692 1780 L 891 1964 L 1151 1964 L 834 1602 L 543 1602 L 225 1964 Z M 160 1518 L 1266 1518 L 1266 1247 L 451 1247 L 451 909 L 1245 909 L 1245 645 L 451 645 L 451 262 L 1274 262 L 1274 0 L 160 0 L 160 1518 Z" unicode="Ě" />
<glyph horiz-adv-x="1255" d="M 161 1628 L 428 1628 L 628 1444 L 827 1628 L 1087 1628 L 770 1266 L 479 1266 L 161 1628 Z M 668 -23 C 538 -23 429 -2 341 37 C 253 77 187 141 144 228 C 101 315 80 432 80 580 C 80 788 127 940 223 1036 C 319 1132 466 1180 666 1180 C 748 1180 818 1171 876 1153 C 934 1135 981 1109 1019 1077 C 1057 1045 1086 1006 1108 961 C 1129 915 1145 863 1155 805 C 1165 746 1170 664 1170 560 L 1169 467 L 351 467 C 358 377 387 312 438 272 C 488 231 565 211 668 211 C 744 211 810 219 867 236 C 924 253 978 281 1030 319 L 1176 131 C 1104 76 1028 37 950 13 C 872 -11 778 -23 668 -23 Z M 909 686 C 905 761 894 814 878 846 C 861 877 835 900 800 916 C 765 932 717 940 657 940 C 561 940 489 920 441 881 C 392 842 362 777 352 686 L 909 686 Z" unicode="ě" />
<glyph horiz-adv-x="1626" d="" unicode="Ĝ" />
<glyph horiz-adv-x="1307" d="" unicode="ĝ" />
<glyph horiz-adv-x="1626" d="" unicode="Ğ" />
<glyph horiz-adv-x="1307" d="" unicode="ğ" />
<glyph horiz-adv-x="1626" d="" unicode="Ġ" />
<glyph horiz-adv-x="1307" d="" unicode="ġ" />
<glyph horiz-adv-x="1626" d="" unicode="Ģ" />
<glyph horiz-adv-x="1307" d="" unicode="ģ" />
<glyph horiz-adv-x="1651" d="" unicode="Ĥ" />
<glyph horiz-adv-x="1337" d="" unicode="ĥ" />
<glyph horiz-adv-x="1651" d="" unicode="Ħ" />
<glyph horiz-adv-x="1337" d="" unicode="ħ" />
<glyph horiz-adv-x="649" d="" unicode="Ĩ" />
<glyph horiz-adv-x="571" d="" unicode="ĩ" />
<glyph horiz-adv-x="649" d="" unicode="Ī" />
<glyph horiz-adv-x="571" d="" unicode="ī" />
<glyph horiz-adv-x="649" d="" unicode="Ĭ" />
<glyph horiz-adv-x="571" d="" unicode="ĭ" />
<glyph horiz-adv-x="649" d="" unicode="Į" />
<glyph horiz-adv-x="571" d="" unicode="į" />
<glyph horiz-adv-x="649" d="" unicode="İ" />
<glyph horiz-adv-x="571" d="" unicode="ı" />
<glyph horiz-adv-x="1552" d="" unicode="Ĳ" />
<glyph horiz-adv-x="1145" d="" unicode="ĳ" />
<glyph horiz-adv-x="903" d="" unicode="Ĵ" />
<glyph horiz-adv-x="571" d="" unicode="ĵ" />
<glyph horiz-adv-x="1528" d="" unicode="Ķ" />
<glyph horiz-adv-x="1206" d="" unicode="ķ" />
<glyph horiz-adv-x="1206" d="" unicode="ĸ" />
<glyph horiz-adv-x="1249" d="M 472 1964 L 810 1964 L 429 1602 L 180 1602 L 472 1964 Z M 160 1518 L 451 1518 L 451 260 L 1212 260 L 1212 0 L 160 0 L 160 1518 Z" unicode="Ĺ" />
<glyph horiz-adv-x="674" d="M 447 2031 L 785 2031 L 404 1669 L 155 1669 L 447 2031 Z M 442 -4 C 336 -4 260 22 215 74 C 169 126 147 212 147 334 L 147 1589 L 424 1589 L 424 367 C 424 316 431 282 447 265 C 462 248 494 240 543 240 L 584 240 L 584 4 C 554 -1 506 -4 442 -4 Z" unicode="ĺ" />
<glyph horiz-adv-x="1249" d="" unicode="Ļ" />
<glyph horiz-adv-x="674" d="" unicode="ļ" />
<glyph horiz-adv-x="1249" d="M 608 1157 C 667 1186 704 1209 720 1226 C 735 1242 743 1268 743 1303 L 618 1303 L 618 1589 L 895 1589 L 895 1384 C 895 1307 888 1250 876 1213 C 864 1175 843 1144 813 1118 C 783 1092 736 1064 672 1036 L 608 1157 Z M 160 1518 L 451 1518 L 451 260 L 1212 260 L 1212 0 L 160 0 L 160 1518 Z" unicode="Ľ" />
<glyph horiz-adv-x="856" d="M 565 1157 C 624 1186 661 1209 677 1226 C 692 1242 700 1268 700 1303 L 575 1303 L 575 1589 L 852 1589 L 852 1384 C 852 1307 845 1250 833 1213 C 821 1175 800 1144 770 1118 C 740 1092 693 1064 629 1036 L 565 1157 Z M 442 -4 C 336 -4 260 22 215 74 C 169 126 147 212 147 334 L 147 1589 L 424 1589 L 424 367 C 424 316 431 282 447 265 C 462 248 494 240 543 240 L 584 240 L 584 4 C 554 -1 506 -4 442 -4 Z" unicode="ľ" />
<glyph horiz-adv-x="1395" d="" unicode="Ŀ" />
<glyph horiz-adv-x="1182" d="" unicode="ŀ" />
<glyph horiz-adv-x="1249" d="M 0 793 L 160 881 L 160 1518 L 451 1518 L 451 1042 L 748 1206 L 748 965 L 451 801 L 451 260 L 1212 260 L 1212 0 L 160 0 L 160 641 L 0 553 L 0 793 Z" unicode="Ł" />
<glyph horiz-adv-x="803" d="M 49 932 L 236 1040 L 236 1589 L 514 1589 L 514 1200 L 713 1315 L 713 1077 L 514 963 L 514 362 C 514 308 521 274 537 259 C 553 243 584 236 631 236 L 674 236 L 674 4 C 640 -1 592 -4 532 -4 C 424 -4 347 21 303 73 C 258 124 236 210 236 330 L 236 803 L 49 696 L 49 932 Z" unicode="ł" />
<glyph horiz-adv-x="1663" d="M 923 1964 L 1261 1964 L 880 1602 L 631 1602 L 923 1964 Z M 160 1518 L 475 1518 L 1223 492 L 1223 1518 L 1503 1518 L 1503 0 L 1237 0 L 440 1087 L 440 0 L 160 0 L 160 1518 Z" unicode="Ń" />
<glyph horiz-adv-x="1337" d="M 761 1628 L 1099 1628 L 718 1266 L 469 1266 L 761 1628 Z M 135 1137 L 352 1153 L 377 1053 C 448 1137 588 1180 797 1180 C 898 1180 979 1164 1039 1132 C 1099 1100 1142 1051 1169 986 C 1196 921 1210 826 1210 700 L 1210 0 L 932 0 L 932 645 C 932 723 924 779 909 811 C 894 843 870 868 836 884 C 802 900 756 909 698 909 C 630 909 575 899 534 881 C 492 862 462 834 444 797 C 425 759 416 703 416 627 L 416 0 L 135 0 L 135 1137 Z" unicode="ń" />
<glyph horiz-adv-x="1663" d="" unicode="Ņ" />
<glyph horiz-adv-x="1337" d="" unicode="ņ" />
<glyph horiz-adv-x="1663" d="M 364 1964 L 631 1964 L 831 1780 L 1030 1964 L 1290 1964 L 973 1602 L 682 1602 L 364 1964 Z M 160 1518 L 475 1518 L 1223 492 L 1223 1518 L 1503 1518 L 1503 0 L 1237 0 L 440 1087 L 440 0 L 160 0 L 160 1518 Z" unicode="Ň" />
<glyph horiz-adv-x="1337" d="M 202 1628 L 469 1628 L 669 1444 L 868 1628 L 1128 1628 L 811 1266 L 520 1266 L 202 1628 Z M 135 1137 L 352 1153 L 377 1053 C 448 1137 588 1180 797 1180 C 898 1180 979 1164 1039 1132 C 1099 1100 1142 1051 1169 986 C 1196 921 1210 826 1210 700 L 1210 0 L 932 0 L 932 645 C 932 723 924 779 909 811 C 894 843 870 868 836 884 C 802 900 756 909 698 909 C 630 909 575 899 534 881 C 492 862 462 834 444 797 C 425 759 416 703 416 627 L 416 0 L 135 0 L 135 1137 Z" unicode="ň" />
<glyph horiz-adv-x="1835" d="" unicode="ŉ" />
<glyph horiz-adv-x="1663" d="" unicode="Ŋ" />
<glyph horiz-adv-x="1337" d="" unicode="ŋ" />
<glyph horiz-adv-x="1737" d="" unicode="Ō" />
<glyph horiz-adv-x="1339" d="" unicode="ō" />
<glyph horiz-adv-x="1737" d="" unicode="Ŏ" />
<glyph horiz-adv-x="1339" d="" unicode="ŏ" />
<glyph horiz-adv-x="1737" d="M 661 1962 L 985 1962 L 639 1602 L 403 1602 L 661 1962 Z M 1192 1962 L 1515 1962 L 1171 1602 L 934 1602 L 1192 1962 Z M 868 -25 C 340 -25 76 236 76 760 C 76 1281 340 1542 868 1542 C 1398 1542 1663 1281 1663 760 C 1663 236 1398 -25 868 -25 Z M 868 240 C 1037 240 1163 282 1245 366 C 1327 450 1368 580 1368 756 C 1368 930 1327 1059 1245 1143 C 1163 1227 1037 1270 868 1270 C 698 1270 572 1227 491 1143 C 409 1058 369 929 369 756 C 369 581 409 451 490 367 C 571 282 697 240 868 240 Z" unicode="Ő" />
<glyph horiz-adv-x="1339" d="M 462 1626 L 786 1626 L 440 1266 L 204 1266 L 462 1626 Z M 993 1626 L 1316 1626 L 972 1266 L 735 1266 L 993 1626 Z M 670 -23 C 469 -23 320 25 224 123 C 128 221 80 373 80 580 C 80 786 128 937 224 1034 C 320 1131 469 1180 670 1180 C 872 1180 1020 1131 1116 1034 C 1212 937 1260 786 1260 580 C 1260 373 1212 221 1116 123 C 1020 25 871 -23 670 -23 Z M 670 223 C 776 223 854 250 904 304 C 954 358 979 447 979 571 C 979 693 954 782 905 837 C 855 892 777 920 670 920 C 564 920 485 892 435 838 C 385 784 360 695 360 571 C 360 448 385 359 435 305 C 485 250 563 223 670 223 Z" unicode="ő" />
<glyph horiz-adv-x="2585" d="M 1389 1518 L 2466 1518 L 2466 1247 L 1653 1247 L 1653 907 L 2445 907 L 2445 647 L 1653 647 L 1653 260 L 2474 260 L 2474 0 L 1389 0 L 1389 142 C 1269 30 1096 -25 868 -25 C 600 -25 401 40 271 171 C 141 301 76 498 76 760 C 76 1020 140 1216 270 1346 C 400 1476 599 1542 868 1542 C 1096 1542 1269 1486 1389 1376 L 1389 1518 Z M 868 240 C 1038 240 1164 281 1246 363 C 1327 445 1368 576 1368 756 C 1368 934 1327 1064 1246 1146 C 1164 1228 1038 1270 868 1270 C 698 1270 572 1228 491 1146 C 409 1063 369 933 369 756 C 369 576 409 445 491 363 C 573 281 698 240 868 240 Z" unicode="Œ" />
<glyph horiz-adv-x="2154" d="M 1569 -23 C 1353 -23 1201 30 1115 137 C 1072 86 1015 47 944 19 C 873 -9 782 -23 670 -23 C 466 -23 317 24 222 120 C 127 215 80 368 80 580 C 80 790 127 943 222 1038 C 316 1132 466 1180 670 1180 C 879 1180 1027 1126 1115 1020 L 1117 1019 C 1201 1126 1351 1180 1567 1180 C 1738 1180 1864 1139 1946 1058 C 2028 976 2070 840 2072 650 L 2072 590 L 2071 467 L 1250 467 C 1257 377 1286 312 1337 272 C 1387 231 1465 211 1569 211 C 1645 211 1711 219 1768 236 C 1825 253 1879 281 1931 319 L 2077 131 C 2002 75 1927 35 1852 12 C 1776 -11 1682 -23 1569 -23 Z M 670 223 C 776 223 854 250 904 304 C 954 358 979 447 979 571 C 979 693 954 782 905 837 C 855 892 777 920 670 920 C 564 920 485 892 435 838 C 385 784 360 695 360 571 C 360 448 385 359 435 305 C 485 250 563 223 670 223 Z M 1810 684 C 1806 764 1795 819 1779 849 C 1763 879 1737 902 1703 917 C 1668 932 1620 940 1559 940 C 1467 940 1396 922 1347 886 C 1298 850 1268 795 1256 722 L 1250 684 L 1810 684 Z" unicode="œ" />
<glyph horiz-adv-x="1554" d="M 870 1964 L 1208 1964 L 827 1602 L 578 1602 L 870 1964 Z M 160 1518 L 872 1518 C 1067 1518 1211 1480 1304 1404 C 1397 1328 1444 1205 1444 1034 C 1444 901 1415 796 1359 719 C 1303 641 1220 587 1111 557 L 1425 0 L 1112 0 L 814 528 L 444 528 L 444 0 L 160 0 L 160 1518 Z M 864 786 C 969 786 1043 804 1086 841 C 1129 877 1151 938 1151 1022 C 1151 1109 1129 1171 1087 1207 C 1044 1243 968 1262 860 1262 L 444 1262 L 444 786 L 864 786 Z" unicode="Ŕ" />
<glyph horiz-adv-x="805" d="M 508 1628 L 846 1628 L 465 1266 L 216 1266 L 508 1628 Z M 135 1137 L 352 1153 L 381 1024 C 407 1064 453 1097 520 1123 C 587 1148 666 1162 758 1165 L 758 893 C 638 891 551 867 497 821 C 443 774 416 694 416 582 L 416 0 L 135 0 L 135 1137 Z" unicode="ŕ" />
<glyph horiz-adv-x="1554" d="" unicode="Ŗ" />
<glyph horiz-adv-x="805" d="" unicode="ŗ" />
<glyph horiz-adv-x="1554" d="M 311 1964 L 578 1964 L 778 1780 L 977 1964 L 1237 1964 L 920 1602 L 629 1602 L 311 1964 Z M 160 1518 L 872 1518 C 1067 1518 1211 1480 1304 1404 C 1397 1328 1444 1205 1444 1034 C 1444 901 1415 796 1359 719 C 1303 641 1220 587 1111 557 L 1425 0 L 1112 0 L 814 528 L 444 528 L 444 0 L 160 0 L 160 1518 Z M 864 786 C 969 786 1043 804 1086 841 C 1129 877 1151 938 1151 1022 C 1151 1109 1129 1171 1087 1207 C 1044 1243 968 1262 860 1262 L 444 1262 L 444 786 L 864 786 Z" unicode="Ř" />
<glyph horiz-adv-x="791" d="M -65 1628 L 202 1628 L 402 1444 L 601 1628 L 861 1628 L 544 1266 L 253 1266 L -65 1628 Z M 135 1137 L 352 1153 L 381 1024 C 407 1064 453 1097 520 1123 C 587 1148 666 1162 758 1165 L 758 893 C 638 891 551 867 497 821 C 443 774 416 694 416 582 L 416 0 L 135 0 L 135 1137 Z" unicode="ř" />
<glyph horiz-adv-x="1499" d="M 843 1964 L 1181 1964 L 800 1602 L 551 1602 L 843 1964 Z M 754 -23 C 469 -23 236 42 55 172 L 203 387 C 361 280 542 227 745 227 C 839 227 913 233 968 247 C 1022 260 1062 281 1086 310 C 1110 338 1122 380 1122 436 C 1122 476 1111 508 1090 532 C 1069 556 1037 576 993 592 C 949 608 865 625 739 645 C 564 670 439 699 363 733 C 287 767 231 812 195 870 C 159 927 141 1002 141 1096 C 141 1252 188 1365 284 1436 C 379 1506 535 1542 752 1542 C 998 1542 1196 1493 1346 1397 L 1188 1165 C 1138 1198 1073 1226 992 1248 C 910 1270 830 1282 750 1282 C 635 1282 553 1268 504 1242 C 454 1216 430 1169 430 1102 C 430 1064 440 1034 460 1010 C 480 986 513 967 558 952 C 603 936 688 919 813 901 C 966 877 1075 853 1141 830 C 1207 806 1259 778 1297 744 C 1335 710 1364 669 1383 621 C 1401 573 1411 516 1411 451 C 1411 285 1358 165 1252 90 C 1146 14 980 -23 754 -23 Z" unicode="Ś" />
<glyph horiz-adv-x="1149" d="M 672 1628 L 1010 1628 L 629 1266 L 380 1266 L 672 1628 Z M 563 -20 C 349 -20 172 27 31 123 L 174 334 C 235 294 302 265 374 245 C 446 225 516 215 582 215 C 673 215 734 223 766 240 C 797 256 813 288 813 334 C 813 368 799 394 772 410 C 745 426 682 441 584 457 C 435 478 331 502 273 529 C 215 556 171 593 142 641 C 112 689 98 751 98 829 C 98 949 137 1038 216 1095 C 295 1151 418 1180 584 1180 C 675 1180 761 1171 843 1153 C 924 1135 995 1109 1055 1075 L 922 852 C 877 875 825 894 766 908 C 707 922 649 930 592 930 C 516 930 461 922 427 907 C 393 892 377 865 377 827 C 377 791 390 766 416 750 C 442 734 500 720 590 707 C 662 695 728 683 789 671 C 849 658 902 639 946 615 C 990 590 1024 557 1048 515 C 1072 473 1085 418 1085 348 C 1085 214 1044 120 964 64 C 884 8 750 -20 563 -20 Z" unicode="ś" />
<glyph horiz-adv-x="1499" d="" unicode="Ŝ" />
<glyph horiz-adv-x="1149" d="" unicode="ŝ" />
<glyph horiz-adv-x="1499" d="M 754 -23 C 469 -23 236 42 55 172 L 203 387 C 361 280 542 227 745 227 C 839 227 913 233 968 247 C 1022 260 1062 281 1086 310 C 1110 338 1122 380 1122 436 C 1122 476 1111 508 1090 532 C 1069 556 1037 576 993 592 C 949 608 865 625 739 645 C 564 670 439 699 363 733 C 287 767 231 812 195 870 C 159 927 141 1002 141 1096 C 141 1252 188 1365 284 1436 C 379 1506 535 1542 752 1542 C 998 1542 1196 1493 1346 1397 L 1188 1165 C 1138 1198 1073 1226 992 1248 C 910 1270 830 1282 750 1282 C 635 1282 553 1268 504 1242 C 454 1216 430 1169 430 1102 C 430 1064 440 1034 460 1010 C 480 986 513 967 558 952 C 603 936 688 919 813 901 C 966 877 1075 853 1141 830 C 1207 806 1259 778 1297 744 C 1335 710 1364 669 1383 621 C 1401 573 1411 516 1411 451 C 1411 285 1358 165 1252 90 C 1146 14 980 -23 754 -23 Z M 751 -500 C 655 -500 567 -478 487 -434 L 559 -299 C 623 -330 683 -346 741 -346 C 790 -346 825 -339 846 -326 C 867 -313 878 -290 878 -258 C 878 -222 864 -200 838 -192 C 811 -184 780 -180 745 -180 L 696 -182 L 639 -143 L 671 14 L 831 14 L 813 -88 L 834 -88 C 899 -88 946 -94 974 -107 C 1002 -119 1025 -139 1041 -166 C 1057 -192 1065 -229 1065 -276 C 1065 -351 1039 -407 989 -444 C 939 -481 859 -500 751 -500 Z" unicode="Ş" />
<glyph horiz-adv-x="1149" d="M 563 -20 C 349 -20 172 27 31 123 L 174 334 C 235 294 302 265 374 245 C 446 225 516 215 582 215 C 673 215 734 223 766 240 C 797 256 813 288 813 334 C 813 368 799 394 772 410 C 745 426 682 441 584 457 C 435 478 331 502 273 529 C 215 556 171 593 142 641 C 112 689 98 751 98 829 C 98 949 137 1038 216 1095 C 295 1151 418 1180 584 1180 C 675 1180 761 1171 843 1153 C 924 1135 995 1109 1055 1075 L 922 852 C 877 875 825 894 766 908 C 707 922 649 930 592 930 C 516 930 461 922 427 907 C 393 892 377 865 377 827 C 377 791 390 766 416 750 C 442 734 500 720 590 707 C 662 695 728 683 789 671 C 849 658 902 639 946 615 C 990 590 1024 557 1048 515 C 1072 473 1085 418 1085 348 C 1085 214 1044 120 964 64 C 884 8 750 -20 563 -20 Z M 580 -500 C 484 -500 396 -478 316 -434 L 388 -299 C 452 -330 512 -346 570 -346 C 619 -346 654 -339 675 -326 C 696 -313 707 -290 707 -258 C 707 -222 693 -200 667 -192 C 640 -184 609 -180 574 -180 L 525 -182 L 468 -143 L 500 14 L 660 14 L 642 -88 L 663 -88 C 728 -88 775 -94 803 -107 C 831 -119 854 -139 870 -166 C 886 -192 894 -229 894 -276 C 894 -351 868 -407 818 -444 C 768 -481 688 -500 580 -500 Z" unicode="ş" />
<glyph horiz-adv-x="1499" d="M 284 1964 L 551 1964 L 751 1780 L 950 1964 L 1210 1964 L 893 1602 L 602 1602 L 284 1964 Z M 754 -23 C 469 -23 236 42 55 172 L 203 387 C 361 280 542 227 745 227 C 839 227 913 233 968 247 C 1022 260 1062 281 1086 310 C 1110 338 1122 380 1122 436 C 1122 476 1111 508 1090 532 C 1069 556 1037 576 993 592 C 949 608 865 625 739 645 C 564 670 439 699 363 733 C 287 767 231 812 195 870 C 159 927 141 1002 141 1096 C 141 1252 188 1365 284 1436 C 379 1506 535 1542 752 1542 C 998 1542 1196 1493 1346 1397 L 1188 1165 C 1138 1198 1073 1226 992 1248 C 910 1270 830 1282 750 1282 C 635 1282 553 1268 504 1242 C 454 1216 430 1169 430 1102 C 430 1064 440 1034 460 1010 C 480 986 513 967 558 952 C 603 936 688 919 813 901 C 966 877 1075 853 1141 830 C 1207 806 1259 778 1297 744 C 1335 710 1364 669 1383 621 C 1401 573 1411 516 1411 451 C 1411 285 1358 165 1252 90 C 1146 14 980 -23 754 -23 Z" unicode="Š" />
<glyph horiz-adv-x="1149" d="M 113 1628 L 380 1628 L 580 1444 L 779 1628 L 1039 1628 L 722 1266 L 431 1266 L 113 1628 Z M 563 -20 C 349 -20 172 27 31 123 L 174 334 C 235 294 302 265 374 245 C 446 225 516 215 582 215 C 673 215 734 223 766 240 C 797 256 813 288 813 334 C 813 368 799 394 772 410 C 745 426 682 441 584 457 C 435 478 331 502 273 529 C 215 556 171 593 142 641 C 112 689 98 751 98 829 C 98 949 137 1038 216 1095 C 295 1151 418 1180 584 1180 C 675 1180 761 1171 843 1153 C 924 1135 995 1109 1055 1075 L 922 852 C 877 875 825 894 766 908 C 707 922 649 930 592 930 C 516 930 461 922 427 907 C 393 892 377 865 377 827 C 377 791 390 766 416 750 C 442 734 500 720 590 707 C 662 695 728 683 789 671 C 849 658 902 639 946 615 C 990 590 1024 557 1048 515 C 1072 473 1085 418 1085 348 C 1085 214 1044 120 964 64 C 884 8 750 -20 563 -20 Z" unicode="š" />
<glyph horiz-adv-x="1438" d="M 573 -512 C 631 -483 668 -460 684 -444 C 700 -427 709 -401 709 -367 L 571 -367 L 571 -80 L 860 -80 L 860 -285 C 860 -361 853 -418 841 -456 C 829 -493 808 -525 778 -551 C 748 -577 701 -604 637 -633 L 573 -512 Z M 573 1247 L 37 1247 L 37 1518 L 1403 1518 L 1403 1247 L 866 1247 L 866 0 L 573 0 L 573 1247 Z" unicode="Ţ" />
<glyph horiz-adv-x="903" d="M 254 -512 C 312 -483 349 -460 365 -444 C 381 -427 390 -401 390 -367 L 252 -367 L 252 -80 L 541 -80 L 541 -285 C 541 -361 534 -418 522 -456 C 510 -493 489 -525 459 -551 C 429 -577 382 -604 318 -633 L 254 -512 Z M 55 1153 L 260 1153 L 309 1448 L 526 1493 L 526 1153 L 811 1153 L 811 907 L 526 907 L 526 387 C 526 343 530 312 540 293 C 550 274 566 260 588 252 C 610 244 641 240 682 240 L 811 240 L 811 0 C 791 -2 744 -4 670 -4 L 627 -4 C 532 -4 457 7 403 29 C 348 51 308 87 284 136 C 260 184 248 254 248 346 L 248 907 L 55 907 L 55 1153 Z" unicode="ţ" />
<glyph horiz-adv-x="1438" d="M 252 1964 L 519 1964 L 719 1780 L 918 1964 L 1178 1964 L 861 1602 L 570 1602 L 252 1964 Z M 573 1247 L 37 1247 L 37 1518 L 1403 1518 L 1403 1247 L 866 1247 L 866 0 L 573 0 L 573 1247 Z" unicode="Ť" />
<glyph horiz-adv-x="903" d="M 651 1423 C 702 1448 736 1469 754 1487 C 771 1504 780 1531 780 1567 L 664 1567 L 664 1839 L 924 1839 L 924 1642 C 924 1568 918 1513 906 1477 C 894 1441 874 1411 846 1387 C 818 1362 773 1336 711 1309 L 651 1423 Z M 55 1153 L 260 1153 L 309 1448 L 526 1493 L 526 1153 L 811 1153 L 811 907 L 526 907 L 526 387 C 526 343 530 312 540 293 C 550 274 566 260 588 252 C 610 244 641 240 682 240 L 811 240 L 811 0 C 791 -2 744 -4 670 -4 L 627 -4 C 532 -4 457 7 403 29 C 348 51 308 87 284 136 C 260 184 248 254 248 346 L 248 907 L 55 907 L 55 1153 Z" unicode="ť" />
<glyph horiz-adv-x="1438" d="" unicode="Ŧ" />
<glyph horiz-adv-x="903" d="" unicode="ŧ" />
<glyph horiz-adv-x="1653" d="" unicode="Ũ" />
<glyph horiz-adv-x="1323" d="" unicode="ũ" />
<glyph horiz-adv-x="1653" d="" unicode="Ū" />
<glyph horiz-adv-x="1323" d="" unicode="ū" />
<glyph horiz-adv-x="1653" d="" unicode="Ŭ" />
<glyph horiz-adv-x="1323" d="" unicode="ŭ" />
<glyph horiz-adv-x="1653" d="M 823 1571 C 733 1571 664 1596 616 1646 C 567 1696 543 1766 543 1858 C 543 1950 567 2021 616 2072 C 665 2122 734 2148 823 2148 C 910 2148 979 2122 1029 2070 C 1079 2018 1104 1948 1104 1858 C 1104 1768 1079 1697 1029 1647 C 979 1596 910 1571 823 1571 Z M 823 1714 C 867 1714 900 1726 924 1751 C 948 1775 960 1811 960 1858 C 960 1904 948 1940 925 1965 C 901 1990 867 2003 823 2003 C 777 2003 743 1990 720 1965 C 697 1939 686 1904 686 1858 C 686 1812 697 1776 720 1751 C 742 1726 777 1714 823 1714 Z M 825 -29 C 705 -29 603 -17 517 6 C 431 30 361 65 307 111 C 253 157 213 216 188 288 C 162 360 150 455 150 573 L 150 1518 L 440 1518 L 440 610 C 440 512 452 437 478 387 C 504 336 545 298 601 274 C 657 250 733 238 829 238 C 925 238 1002 250 1059 274 C 1115 298 1156 335 1182 385 C 1208 435 1221 510 1221 610 L 1221 1518 L 1505 1518 L 1505 573 C 1505 453 1491 358 1465 286 C 1438 214 1398 155 1344 110 C 1290 64 1220 30 1134 6 C 1048 -17 945 -29 825 -29 Z" unicode="Ů" />
<glyph horiz-adv-x="1323" d="M 659 1235 C 569 1235 500 1260 452 1310 C 403 1360 379 1430 379 1522 C 379 1614 403 1685 452 1736 C 501 1786 570 1812 659 1812 C 746 1812 815 1786 865 1734 C 915 1682 940 1612 940 1522 C 940 1432 915 1361 865 1311 C 815 1260 746 1235 659 1235 Z M 659 1378 C 703 1378 736 1390 760 1415 C 784 1439 796 1475 796 1522 C 796 1568 784 1604 761 1629 C 737 1654 703 1667 659 1667 C 613 1667 579 1654 556 1629 C 533 1603 522 1568 522 1522 C 522 1476 533 1440 556 1415 C 578 1390 613 1378 659 1378 Z M 664 -20 C 527 -20 420 -3 344 30 C 267 64 212 117 179 191 C 145 265 129 376 129 524 L 129 1153 L 408 1153 L 408 518 C 408 476 409 438 412 403 C 415 367 425 337 441 311 C 457 285 483 265 518 251 C 553 236 602 229 666 229 C 713 229 753 233 785 242 C 817 251 843 265 863 283 C 883 301 897 325 906 355 C 915 385 920 441 920 522 L 920 1153 L 1194 1153 L 1194 528 C 1194 375 1177 262 1144 189 C 1110 116 1056 63 981 30 C 905 -3 800 -20 664 -20 Z" unicode="ů" />
<glyph horiz-adv-x="1653" d="M 825 -29 C 705 -29 603 -17 517 6 C 431 30 361 65 307 111 C 253 157 213 216 188 288 C 162 360 150 455 150 573 L 150 1518 L 440 1518 L 440 610 C 440 512 452 437 478 387 C 504 336 545 298 601 274 C 657 250 733 238 829 238 C 925 238 1002 250 1059 274 C 1115 298 1156 335 1182 385 C 1208 435 1221 510 1221 610 L 1221 1518 L 1505 1518 L 1505 573 C 1505 453 1491 358 1465 286 C 1438 214 1398 155 1344 110 C 1290 64 1220 30 1134 6 C 1048 -17 945 -29 825 -29 Z M 618 1962 L 942 1962 L 596 1602 L 360 1602 L 618 1962 Z M 1149 1962 L 1472 1962 L 1128 1602 L 891 1602 L 1149 1962 Z" unicode="Ű" />
<glyph horiz-adv-x="1323" d="M 664 -20 C 527 -20 420 -3 344 30 C 267 64 212 117 179 191 C 145 265 129 376 129 524 L 129 1153 L 408 1153 L 408 518 C 408 476 409 438 412 403 C 415 367 425 337 441 311 C 457 285 483 265 518 251 C 553 236 602 229 666 229 C 713 229 753 233 785 242 C 817 251 843 265 863 283 C 883 301 897 325 906 355 C 915 385 920 441 920 522 L 920 1153 L 1194 1153 L 1194 528 C 1194 375 1177 262 1144 189 C 1110 116 1056 63 981 30 C 905 -3 800 -20 664 -20 Z M 454 1626 L 778 1626 L 432 1266 L 196 1266 L 454 1626 Z M 985 1626 L 1308 1626 L 964 1266 L 727 1266 L 985 1626 Z" unicode="ű" />
<glyph horiz-adv-x="1653" d="" unicode="Ų" />
<glyph horiz-adv-x="1323" d="" unicode="ų" />
<glyph horiz-adv-x="2218" d="" unicode="Ŵ" />
<glyph horiz-adv-x="1862" d="" unicode="ŵ" />
<glyph horiz-adv-x="1526" d="" unicode="Ŷ" />
<glyph horiz-adv-x="1169" d="" unicode="ŷ" />
<glyph horiz-adv-x="1526" d="M 12 1518 L 326 1518 L 768 809 L 1212 1518 L 1513 1518 L 907 548 L 907 0 L 618 0 L 618 546 L 12 1518 Z M 406 1874 L 660 1874 L 660 1610 L 406 1610 L 406 1874 Z M 863 1874 L 1114 1874 L 1114 1610 L 863 1610 L 863 1874 Z" unicode="Ÿ" />
<glyph horiz-adv-x="1403" d="M 796 1964 L 1134 1964 L 753 1602 L 504 1602 L 796 1964 Z M 74 223 L 936 1247 L 109 1247 L 109 1518 L 1303 1518 L 1303 1274 L 451 260 L 1325 260 L 1325 0 L 74 0 L 74 223 Z" unicode="Ź" />
<glyph horiz-adv-x="1087" d="M 644 1628 L 982 1628 L 601 1266 L 352 1266 L 644 1628 Z M 49 195 L 649 907 L 82 907 L 82 1153 L 1022 1153 L 1022 956 L 418 231 L 1044 231 L 1044 0 L 49 0 L 49 195 Z" unicode="ź" />
<glyph horiz-adv-x="1403" d="M 74 223 L 936 1247 L 109 1247 L 109 1518 L 1303 1518 L 1303 1274 L 451 260 L 1325 260 L 1325 0 L 74 0 L 74 223 Z M 559 1868 L 841 1868 L 841 1598 L 559 1598 L 559 1868 Z" unicode="Ż" />
<glyph horiz-adv-x="1087" d="M 49 195 L 649 907 L 82 907 L 82 1153 L 1022 1153 L 1022 956 L 418 231 L 1044 231 L 1044 0 L 49 0 L 49 195 Z M 407 1532 L 689 1532 L 689 1262 L 407 1262 L 407 1532 Z" unicode="ż" />
<glyph horiz-adv-x="1403" d="M 237 1964 L 504 1964 L 704 1780 L 903 1964 L 1163 1964 L 846 1602 L 555 1602 L 237 1964 Z M 74 223 L 936 1247 L 109 1247 L 109 1518 L 1303 1518 L 1303 1274 L 451 260 L 1325 260 L 1325 0 L 74 0 L 74 223 Z" unicode="Ž" />
<glyph horiz-adv-x="1087" d="M 85 1628 L 352 1628 L 552 1444 L 751 1628 L 1011 1628 L 694 1266 L 403 1266 L 85 1628 Z M 49 195 L 649 907 L 82 907 L 82 1153 L 1022 1153 L 1022 956 L 418 231 L 1044 231 L 1044 0 L 49 0 L 49 195 Z" unicode="ž" />
<glyph horiz-adv-x="879" d="" unicode="ſ" />
<glyph horiz-adv-x="1217" d="M 174 942 L 446 942 L 496 1176 C 515 1272 542 1342 576 1387 C 610 1432 656 1465 716 1486 C 776 1507 852 1518 944 1518 L 1047 1518 L 1047 1262 L 958 1262 C 915 1262 881 1256 855 1246 C 829 1235 808 1219 793 1197 C 778 1175 766 1140 758 1092 L 726 942 L 1047 942 L 1047 694 L 673 694 L 453 -340 L 172 -340 L 393 694 L 174 694 L 174 942 Z" unicode="ƒ" />
<glyph horiz-adv-x="1100" d="M 850 1518 L 1100 1518 L 248 0 L 0 0 L 850 1518 Z" unicode="⁄" />
<glyph horiz-adv-x="1737" d="" unicode="Ơ" />
<glyph horiz-adv-x="1366" d="" unicode="ơ" />
<glyph horiz-adv-x="2879" d="M 160 1518 L 475 1518 L 1227 500 L 1227 1518 L 1503 1518 L 1503 0 L 1237 0 L 438 1081 L 438 0 L 160 0 L 160 1518 Z M 2173 571 C 2011 571 1891 611 1813 691 C 1735 771 1696 894 1696 1059 C 1696 1221 1735 1342 1813 1422 C 1891 1502 2011 1542 2173 1542 C 2333 1542 2452 1502 2531 1423 C 2610 1344 2650 1223 2650 1059 C 2650 893 2610 770 2531 690 C 2451 610 2332 571 2173 571 Z M 2173 774 C 2255 774 2316 796 2357 841 C 2398 886 2419 956 2419 1051 C 2419 1144 2398 1213 2358 1259 C 2318 1304 2256 1327 2173 1327 C 2089 1327 2027 1304 1987 1259 C 1947 1214 1927 1145 1927 1051 C 1927 957 1947 887 1988 842 C 2028 796 2090 774 2173 774 Z M 1755 455 L 2593 455 L 2593 250 L 1755 250 L 1755 455 Z" unicode="№" />
<glyph horiz-adv-x="1704" d="" unicode="Ư" />
<glyph horiz-adv-x="1448" d="" unicode="ư" />
<glyph horiz-adv-x="1583" d="" unicode="Ǻ" />
<glyph horiz-adv-x="1309" d="" unicode="ǻ" />
<glyph horiz-adv-x="2312" d="" unicode="Ǽ" />
<glyph horiz-adv-x="2023" d="" unicode="ǽ" />
<glyph horiz-adv-x="1737" d="" unicode="Ǿ" />
<glyph horiz-adv-x="1339" d="" unicode="ǿ" />
<glyph horiz-adv-x="1341" d="" unicode="∂" />
<glyph horiz-adv-x="1583" d="" unicode="∆" />
<glyph horiz-adv-x="1575" d="" unicode="∏" />
<glyph horiz-adv-x="1352" d="" unicode="∑" />
<glyph horiz-adv-x="1466" d="" unicode="−" />
<glyph horiz-adv-x="1100" d="M 850 1518 L 1100 1518 L 248 0 L 0 0 L 850 1518 Z" unicode="∕" />
<glyph horiz-adv-x="1499" d="" unicode="Ș" />
<glyph horiz-adv-x="1149" d="" unicode="ș" />
<glyph horiz-adv-x="1438" d="M 573 -512 C 631 -483 668 -460 684 -444 C 700 -427 709 -401 709 -367 L 571 -367 L 571 -80 L 860 -80 L 860 -285 C 860 -361 853 -418 841 -456 C 829 -493 808 -525 778 -551 C 748 -577 701 -604 637 -633 L 573 -512 Z M 573 1247 L 37 1247 L 37 1518 L 1403 1518 L 1403 1247 L 866 1247 L 866 0 L 573 0 L 573 1247 Z" unicode="Ț" />
<glyph horiz-adv-x="903" d="M 254 -512 C 312 -483 349 -460 365 -444 C 381 -427 390 -401 390 -367 L 252 -367 L 252 -80 L 541 -80 L 541 -285 C 541 -361 534 -418 522 -456 C 510 -493 489 -525 459 -551 C 429 -577 382 -604 318 -633 L 254 -512 Z M 55 1153 L 260 1153 L 309 1448 L 526 1493 L 526 1153 L 811 1153 L 811 907 L 526 907 L 526 387 C 526 343 530 312 540 293 C 550 274 566 260 588 252 C 610 244 641 240 682 240 L 811 240 L 811 0 C 791 -2 744 -4 670 -4 L 627 -4 C 532 -4 457 7 403 29 C 348 51 308 87 284 136 C 260 184 248 254 248 346 L 248 907 L 55 907 L 55 1153 Z" unicode="ț" />
<glyph horiz-adv-x="1817" d="" unicode="∞" />
<glyph horiz-adv-x="879" d="" unicode="∫" />
<glyph horiz-adv-x="1466" d="" unicode="≈" />
<glyph horiz-adv-x="2230" d="M 987 1223 C 987 1367 1020 1470 1086 1531 C 1152 1591 1257 1622 1401 1622 C 1467 1622 1515 1620 1546 1618 L 1546 1384 L 1438 1384 C 1378 1384 1334 1372 1308 1349 C 1281 1325 1268 1284 1268 1225 L 1268 1153 L 1546 1153 L 1546 907 L 1268 907 L 1268 0 L 987 0 L 987 907 L 551 907 L 551 0 L 272 0 L 272 907 L 55 907 L 55 1153 L 272 1153 L 272 1223 C 272 1367 305 1470 371 1531 C 437 1591 541 1622 684 1622 C 751 1622 800 1620 831 1618 L 831 1384 L 721 1384 C 661 1384 618 1372 591 1348 C 564 1324 551 1283 551 1225 L 551 1153 L 987 1153 L 987 1223 Z M 2001 -4 C 1893 -4 1817 22 1772 74 C 1726 126 1704 212 1704 334 L 1704 1589 L 1982 1589 L 1982 367 C 1982 314 1990 280 2006 264 C 2022 248 2053 240 2099 240 L 2142 240 L 2142 4 C 2112 -1 2065 -4 2001 -4 Z" unicode="ﬄ" />
<glyph horiz-adv-x="1466" d="" unicode="≠" />
<glyph horiz-adv-x="1466" d="" unicode="≤" />
<glyph horiz-adv-x="1466" d="" unicode="≥" />
<glyph horiz-adv-x="1192" d="M 596 526 C 450 526 342 566 273 648 C 204 730 170 858 170 1032 C 170 1204 204 1331 272 1413 C 340 1495 448 1536 596 1536 C 742 1536 849 1495 918 1413 C 987 1331 1022 1204 1022 1032 C 1022 858 987 730 918 648 C 848 566 741 526 596 526 Z M 596 711 C 648 711 690 721 720 741 C 750 761 772 793 786 837 C 800 880 807 945 807 1032 C 807 1118 800 1182 786 1224 C 772 1266 751 1296 721 1316 C 691 1336 649 1346 596 1346 C 519 1346 465 1323 434 1279 C 402 1235 387 1152 387 1032 C 387 909 402 825 434 779 C 466 733 520 711 596 711 Z" unicode="⁰" />
<glyph horiz-adv-x="1104" d="M 133 891 L 561 1518 L 795 1518 L 369 899 L 627 899 L 666 1161 L 831 1161 L 831 899 L 985 899 L 985 727 L 831 727 L 831 539 L 625 539 L 625 727 L 133 727 L 133 891 Z" unicode="⁴" />
<glyph horiz-adv-x="1077" d="M 539 526 C 389 526 254 560 135 629 L 248 795 C 346 739 437 711 522 711 C 583 711 627 715 655 725 C 682 735 702 751 715 773 C 728 795 735 827 735 868 C 735 926 721 967 693 991 C 665 1014 610 1026 528 1026 C 458 1026 400 1015 356 995 L 190 1042 L 217 1518 L 870 1518 L 870 1335 L 397 1335 L 385 1169 C 439 1188 506 1198 586 1198 C 680 1198 751 1186 799 1164 C 847 1142 883 1107 909 1059 C 935 1011 948 947 948 868 C 948 784 934 717 907 667 C 879 617 839 581 785 559 C 731 537 649 526 539 526 Z" unicode="⁵" />
<glyph horiz-adv-x="1141" d="M 596 526 C 446 526 337 561 268 632 C 198 702 164 812 164 961 C 164 1104 183 1215 221 1293 C 259 1371 321 1428 405 1464 C 489 1500 605 1518 752 1518 L 836 1518 L 836 1335 L 748 1335 C 662 1335 593 1327 541 1313 C 489 1299 450 1277 424 1248 C 398 1218 381 1174 375 1116 C 398 1148 432 1171 478 1185 C 523 1199 583 1206 657 1206 C 775 1206 860 1179 914 1127 C 968 1075 995 991 995 877 C 995 755 962 666 896 610 C 830 554 730 526 596 526 Z M 596 692 C 642 692 679 697 706 709 C 733 721 753 738 765 762 C 777 785 784 821 784 870 C 784 934 769 980 740 1007 C 710 1033 663 1047 598 1047 C 458 1047 389 992 389 883 C 389 813 405 763 439 735 C 473 706 525 692 596 692 Z" unicode="⁶" />
<glyph horiz-adv-x="1208" d="M 459 1628 L 750 1628 L 1067 1266 L 803 1266 L 600 1452 L 401 1266 L 141 1266 L 459 1628 Z" unicode="ˆ" />
<glyph horiz-adv-x="1208" d="M 141 1628 L 408 1628 L 608 1444 L 807 1628 L 1067 1628 L 750 1266 L 459 1266 L 141 1628 Z" unicode="ˇ" />
<glyph horiz-adv-x="944" d="M 598 1329 L 98 1329 L 98 1518 L 831 1518 L 831 1335 L 487 539 L 256 539 L 598 1329 Z" unicode="⁷" />
<glyph horiz-adv-x="1159" d="M 580 524 C 440 524 334 549 262 599 C 190 649 154 724 154 823 C 154 894 166 950 192 991 C 218 1032 257 1062 311 1081 C 268 1099 236 1123 216 1155 C 196 1187 186 1232 186 1290 C 186 1376 219 1439 285 1479 C 351 1519 449 1540 580 1540 C 711 1540 809 1519 875 1478 C 940 1437 973 1374 973 1290 C 973 1230 962 1184 941 1152 C 920 1120 888 1096 844 1079 C 898 1062 938 1033 965 993 C 992 952 1006 895 1006 823 C 1006 725 970 650 898 600 C 826 549 720 524 580 524 Z M 580 690 C 655 690 708 702 740 728 C 772 754 788 791 788 840 C 788 892 771 930 738 955 C 704 980 652 993 580 993 C 508 993 456 981 423 957 C 389 933 373 894 373 840 C 373 786 390 748 424 725 C 458 701 510 690 580 690 Z M 580 1141 C 643 1141 689 1150 718 1168 C 747 1186 762 1216 762 1260 C 762 1300 747 1329 719 1347 C 691 1365 644 1374 580 1374 C 516 1374 470 1365 442 1349 C 413 1332 399 1302 399 1260 C 399 1215 413 1184 441 1167 C 469 1149 516 1141 580 1141 Z" unicode="⁸" />
<glyph horiz-adv-x="1141" d="M 315 717 L 406 717 C 490 717 558 724 610 740 C 662 755 701 778 727 809 C 753 840 770 886 778 946 C 754 914 720 891 675 877 C 629 863 570 856 496 856 C 379 856 293 882 238 934 C 183 986 156 1070 156 1186 C 156 1305 189 1393 255 1450 C 321 1507 421 1536 557 1536 C 705 1536 813 1500 883 1430 C 952 1360 987 1250 987 1100 C 987 956 968 844 930 766 C 892 687 831 629 747 593 C 663 557 547 539 401 539 L 315 539 L 315 717 Z M 555 1008 C 694 1008 764 1061 764 1167 C 764 1234 748 1283 717 1314 C 685 1344 632 1360 557 1360 C 490 1360 442 1347 413 1322 C 383 1297 369 1251 369 1184 C 369 1118 383 1073 412 1047 C 440 1021 488 1008 555 1008 Z" unicode="⁹" />
<glyph horiz-adv-x="1208" d="M 604 1237 C 519 1237 449 1250 393 1276 C 337 1302 292 1340 259 1391 C 225 1441 198 1517 178 1618 L 381 1657 C 395 1599 410 1558 427 1533 C 444 1507 467 1488 495 1476 C 523 1464 560 1458 604 1458 C 648 1458 685 1464 714 1476 C 742 1488 765 1506 782 1531 C 798 1556 813 1598 827 1657 L 1032 1620 C 1010 1518 983 1442 949 1391 C 915 1339 869 1301 813 1275 C 757 1249 687 1237 604 1237 Z" unicode="˘" />
<glyph horiz-adv-x="1208" d="M 463 1532 L 745 1532 L 745 1262 L 463 1262 L 463 1532 Z" unicode="˙" />
<glyph horiz-adv-x="1208" d="M 604 1235 C 514 1235 445 1260 397 1310 C 348 1360 324 1430 324 1522 C 324 1614 348 1685 397 1736 C 446 1786 515 1812 604 1812 C 691 1812 760 1786 810 1734 C 860 1682 885 1612 885 1522 C 885 1432 860 1361 810 1311 C 760 1260 691 1235 604 1235 Z M 604 1378 C 648 1378 681 1390 705 1415 C 729 1439 741 1475 741 1522 C 741 1568 729 1604 706 1629 C 682 1654 648 1667 604 1667 C 558 1667 524 1654 501 1629 C 478 1603 467 1568 467 1522 C 467 1476 478 1440 501 1415 C 523 1390 558 1378 604 1378 Z" unicode="˚" />
<glyph horiz-adv-x="1208" d="M 637 -475 C 538 -475 464 -458 416 -425 C 368 -392 344 -340 344 -268 C 344 -212 361 -159 397 -107 C 432 -55 479 -14 537 18 L 766 18 C 694 -25 641 -67 609 -108 C 577 -149 561 -184 561 -213 C 561 -245 570 -267 589 -279 C 607 -291 636 -297 674 -297 C 703 -297 735 -293 769 -286 C 803 -278 830 -271 850 -264 L 905 -418 C 866 -436 822 -450 774 -460 C 725 -470 679 -475 637 -475 Z" unicode="˛" />
<glyph horiz-adv-x="1208" d="M 137 1393 C 247 1527 354 1595 459 1595 C 494 1595 524 1589 549 1578 C 573 1567 596 1555 617 1542 C 637 1528 657 1516 676 1505 C 695 1494 717 1489 741 1489 C 789 1489 845 1528 909 1606 L 1069 1477 C 955 1336 848 1266 748 1266 C 714 1266 684 1271 660 1282 C 635 1293 612 1305 591 1319 C 570 1332 550 1344 530 1355 C 510 1366 487 1372 463 1372 C 411 1372 357 1335 299 1262 L 137 1393 Z" unicode="˜" />
<glyph horiz-adv-x="1208" d="M 399 1626 L 723 1626 L 377 1266 L 141 1266 L 399 1626 Z M 930 1626 L 1253 1626 L 909 1266 L 672 1266 L 930 1626 Z" unicode="˝" />
<glyph horiz-adv-x="1595" d="M 987 1223 C 987 1367 1020 1470 1086 1531 C 1152 1591 1257 1622 1401 1622 C 1467 1622 1515 1620 1546 1618 L 1546 1384 L 1438 1384 C 1378 1384 1334 1372 1308 1349 C 1281 1325 1268 1284 1268 1225 L 1268 1153 L 1546 1153 L 1546 907 L 1268 907 L 1268 0 L 987 0 L 987 907 L 551 907 L 551 0 L 272 0 L 272 907 L 55 907 L 55 1153 L 272 1153 L 272 1223 C 272 1367 305 1470 371 1531 C 437 1591 541 1622 684 1622 C 751 1622 800 1620 831 1618 L 831 1384 L 721 1384 C 661 1384 618 1372 591 1348 C 564 1324 551 1283 551 1225 L 551 1153 L 987 1153 L 987 1223 Z" unicode="ﬀ" />
<glyph horiz-adv-x="1413" d="M 55 1153 L 272 1153 L 272 1223 C 272 1367 305 1470 371 1531 C 437 1591 541 1622 684 1622 C 751 1622 800 1620 831 1618 L 831 1384 L 721 1384 C 661 1384 618 1372 591 1348 C 564 1324 551 1283 551 1225 L 551 1153 L 831 1153 L 831 907 L 551 907 L 551 0 L 272 0 L 272 907 L 55 907 L 55 1153 Z M 987 1153 L 1268 1153 L 1268 0 L 987 0 L 987 1153 Z M 985 1546 L 1270 1546 L 1270 1270 L 985 1270 L 985 1546 Z" unicode="ﬁ" />
<glyph horiz-adv-x="1513" d="M 55 1153 L 272 1153 L 272 1223 C 272 1367 305 1470 371 1531 C 437 1591 541 1622 684 1622 C 751 1622 800 1620 831 1618 L 831 1384 L 721 1384 C 661 1384 618 1372 591 1348 C 564 1324 551 1283 551 1225 L 551 1153 L 831 1153 L 831 907 L 551 907 L 551 0 L 272 0 L 272 907 L 55 907 L 55 1153 Z M 1284 -4 C 1176 -4 1100 22 1055 74 C 1009 126 987 212 987 334 L 987 1589 L 1268 1589 L 1268 367 C 1268 314 1275 280 1291 264 C 1307 248 1338 240 1384 240 L 1425 240 L 1425 4 C 1395 -1 1348 -4 1284 -4 Z" unicode="ﬂ" />
<glyph horiz-adv-x="2130" d="M 987 1223 C 987 1367 1020 1470 1086 1531 C 1152 1591 1257 1622 1401 1622 C 1467 1622 1515 1620 1546 1618 L 1546 1384 L 1438 1384 C 1378 1384 1334 1372 1308 1349 C 1281 1325 1268 1284 1268 1225 L 1268 1153 L 1546 1153 L 1546 907 L 1268 907 L 1268 0 L 987 0 L 987 907 L 551 907 L 551 0 L 272 0 L 272 907 L 55 907 L 55 1153 L 272 1153 L 272 1223 C 272 1367 305 1470 371 1531 C 437 1591 541 1622 684 1622 C 751 1622 800 1620 831 1618 L 831 1384 L 721 1384 C 661 1384 618 1372 591 1348 C 564 1324 551 1283 551 1225 L 551 1153 L 987 1153 L 987 1223 Z M 1704 1153 L 1982 1153 L 1982 0 L 1704 0 L 1704 1153 Z M 1702 1546 L 1985 1546 L 1985 1270 L 1702 1270 L 1702 1546 Z" unicode="ﬃ" />
<glyph horiz-adv-x="1208" d="M 190 1477 L 1020 1477 L 1020 1247 L 190 1247 L 190 1477 Z" unicode="̄" />
<glyph horiz-adv-x="1208" d="" unicode="̉" />
<glyph horiz-adv-x="2265" d="M 1020 1518 L 1257 1518 L 1524 854 L 1790 1518 L 2028 1518 L 2028 580 L 1821 580 L 1821 1161 L 1591 580 L 1450 580 L 1219 1161 L 1219 580 L 1020 580 L 1020 1518 Z M 416 1327 L 106 1327 L 106 1518 L 936 1518 L 936 1327 L 627 1327 L 627 580 L 416 580 L 416 1327 Z" unicode="™" />
<glyph horiz-adv-x="1208" d="" unicode="̣" />
<glyph horiz-adv-x="573" d="M 143 -512 C 201 -483 238 -460 254 -444 C 270 -427 279 -401 279 -367 L 141 -367 L 141 -80 L 430 -80 L 430 -285 C 430 -361 423 -418 411 -456 C 399 -493 378 -525 348 -551 C 318 -577 271 -604 207 -633 L 143 -512 Z" unicode="̦" />
<glyph horiz-adv-x="1208" d="" unicode="̀" />
<glyph horiz-adv-x="1208" d="" unicode="́" />
<glyph horiz-adv-x="1796" d="" unicode="Ω" />
<glyph horiz-adv-x="1208" d="" unicode="΄" />
<glyph horiz-adv-x="1208" d="" unicode="΅" />
<glyph horiz-adv-x="1610" d="" unicode="Ά" />
<glyph horiz-adv-x="1802" d="" unicode="Έ" />
<glyph horiz-adv-x="2071" d="" unicode="Ή" />
<glyph horiz-adv-x="1065" d="" unicode="Ί" />
<glyph horiz-adv-x="2062" d="" unicode="Ό" />
<glyph horiz-adv-x="2064" d="" unicode="Ύ" />
<glyph horiz-adv-x="2107" d="" unicode="Ώ" />
<glyph horiz-adv-x="571" d="" unicode="ΐ" />
<glyph horiz-adv-x="1583" d="" unicode="Α" />
<glyph horiz-adv-x="1520" d="" unicode="Β" />
<glyph horiz-adv-x="1309" d="" unicode="Γ" />
<glyph horiz-adv-x="1583" d="" unicode="Δ" />
<glyph horiz-adv-x="1382" d="" unicode="Ε" />
<glyph horiz-adv-x="1403" d="" unicode="Ζ" />
<glyph horiz-adv-x="1651" d="" unicode="Η" />
<glyph horiz-adv-x="1737" d="" unicode="Θ" />
<glyph horiz-adv-x="649" d="" unicode="Ι" />
<glyph horiz-adv-x="1528" d="" unicode="Κ" />
<glyph horiz-adv-x="1571" d="" unicode="Λ" />
<glyph horiz-adv-x="1970" d="" unicode="Μ" />
<glyph horiz-adv-x="1663" d="" unicode="Ν" />
<glyph horiz-adv-x="1389" d="" unicode="Ξ" />
<glyph horiz-adv-x="1737" d="" unicode="Ο" />
<glyph horiz-adv-x="1575" d="" unicode="Π" />
<glyph horiz-adv-x="1530" d="" unicode="Ρ" />
<glyph horiz-adv-x="1352" d="" unicode="Σ" />
<glyph horiz-adv-x="1438" d="" unicode="Τ" />
<glyph horiz-adv-x="1526" d="" unicode="Υ" />
<glyph horiz-adv-x="1843" d="" unicode="Φ" />
<glyph horiz-adv-x="1563" d="" unicode="Χ" />
<glyph horiz-adv-x="1610" d="" unicode="Ψ" />
<glyph horiz-adv-x="1796" d="" unicode="Ω" />
<glyph horiz-adv-x="649" d="" unicode="Ϊ" />
<glyph horiz-adv-x="1526" d="" unicode="Ϋ" />
<glyph horiz-adv-x="1413" d="" unicode="ά" />
<glyph horiz-adv-x="1049" d="" unicode="έ" />
<glyph horiz-adv-x="1337" d="" unicode="ή" />
<glyph horiz-adv-x="571" d="" unicode="ί" />
<glyph horiz-adv-x="1323" d="" unicode="ΰ" />
<glyph horiz-adv-x="1413" d="" unicode="α" />
<glyph horiz-adv-x="1399" d="" unicode="β" />
<glyph horiz-adv-x="1221" d="" unicode="γ" />
<glyph horiz-adv-x="1339" d="" unicode="δ" />
<glyph horiz-adv-x="1069" d="" unicode="ε" />
<glyph horiz-adv-x="1087" d="" unicode="ζ" />
<glyph horiz-adv-x="1337" d="" unicode="η" />
<glyph horiz-adv-x="1561" d="" unicode="θ" />
<glyph horiz-adv-x="571" d="" unicode="ι" />
<glyph horiz-adv-x="1206" d="" unicode="κ" />
<glyph horiz-adv-x="1217" d="" unicode="λ" />
<glyph horiz-adv-x="1341" d="" unicode="μ" />
<glyph horiz-adv-x="1221" d="" unicode="ν" />
<glyph horiz-adv-x="1087" d="" unicode="ξ" />
<glyph horiz-adv-x="1339" d="" unicode="ο" />
<glyph horiz-adv-x="1348" d="" unicode="π" />
<glyph horiz-adv-x="1378" d="" unicode="ρ" />
<glyph horiz-adv-x="1190" d="" unicode="ς" />
<glyph horiz-adv-x="1395" d="" unicode="σ" />
<glyph horiz-adv-x="1174" d="" unicode="τ" />
<glyph horiz-adv-x="1323" d="" unicode="υ" />
<glyph horiz-adv-x="1593" d="" unicode="φ" />
<glyph horiz-adv-x="1198" d="" unicode="χ" />
<glyph horiz-adv-x="1608" d="" unicode="ψ" />
<glyph horiz-adv-x="1839" d="" unicode="ω" />
<glyph horiz-adv-x="571" d="" unicode="ϊ" />
<glyph horiz-adv-x="1323" d="" unicode="ϋ" />
<glyph horiz-adv-x="1339" d="" unicode="ό" />
<glyph horiz-adv-x="1323" d="" unicode="ύ" />
<glyph horiz-adv-x="1862" d="" unicode="ώ" />
<glyph horiz-adv-x="1382" d="M 334 1874 L 588 1874 L 588 1610 L 334 1610 L 334 1874 Z M 791 1874 L 1042 1874 L 1042 1610 L 791 1610 L 791 1874 Z M 160 1518 L 1266 1518 L 1266 1247 L 451 1247 L 451 909 L 1245 909 L 1245 645 L 451 645 L 451 262 L 1274 262 L 1274 0 L 160 0 L 160 1518 Z" unicode="Ё" />
<glyph horiz-adv-x="1804" d="M 1227 -127 L 1251 -127 C 1283 -127 1308 -123 1324 -116 C 1340 -108 1351 -95 1358 -77 C 1364 -59 1368 -23 1368 29 L 1368 510 C 1368 591 1361 647 1347 679 C 1333 710 1310 734 1279 750 C 1247 766 1202 774 1143 774 C 1075 774 1021 765 981 747 C 941 729 911 701 893 665 C 875 629 866 573 866 498 L 866 0 L 573 0 L 573 1247 L 37 1247 L 37 1518 L 1403 1518 L 1403 1247 L 866 1247 L 866 934 C 928 1007 1053 1044 1239 1044 C 1341 1044 1422 1027 1484 995 C 1545 963 1590 914 1618 849 C 1646 784 1661 689 1661 565 L 1661 31 C 1661 -70 1649 -147 1627 -199 C 1604 -251 1567 -289 1515 -312 C 1463 -334 1384 -346 1280 -346 L 1227 -346 L 1227 -127 Z" unicode="Ђ" />
<glyph horiz-adv-x="1251" d="M 718 1964 L 1056 1964 L 675 1602 L 426 1602 L 718 1964 Z M 160 1518 L 1214 1518 L 1214 1247 L 451 1247 L 451 0 L 160 0 L 160 1518 Z" unicode="Ѓ" />
<glyph horiz-adv-x="1532" d="M 844 -23 C 585 -23 392 41 266 169 C 139 297 76 494 76 760 C 76 1016 141 1211 271 1343 C 401 1475 592 1542 844 1542 C 1102 1542 1301 1471 1442 1329 L 1241 1124 C 1141 1221 1014 1270 860 1270 C 578 1270 415 1147 371 903 L 1165 903 L 1165 643 L 367 643 C 400 377 559 244 844 244 C 904 244 959 249 1007 260 C 1055 270 1099 286 1137 306 C 1175 326 1216 357 1262 399 L 1452 205 C 1372 123 1283 65 1185 30 C 1086 -5 972 -23 844 -23 Z" unicode="Є" />
<glyph horiz-adv-x="1499" d="M 754 -23 C 469 -23 236 42 55 172 L 203 387 C 361 280 542 227 745 227 C 839 227 913 233 968 247 C 1022 260 1062 281 1086 310 C 1110 338 1122 380 1122 436 C 1122 476 1111 508 1090 532 C 1069 556 1037 576 993 592 C 949 608 865 625 739 645 C 564 670 439 699 363 733 C 287 767 231 812 195 870 C 159 927 141 1002 141 1096 C 141 1252 188 1365 284 1436 C 379 1506 535 1542 752 1542 C 998 1542 1196 1493 1346 1397 L 1188 1165 C 1138 1198 1073 1226 992 1248 C 910 1270 830 1282 750 1282 C 635 1282 553 1268 504 1242 C 454 1216 430 1169 430 1102 C 430 1064 440 1034 460 1010 C 480 986 513 967 558 952 C 603 936 688 919 813 901 C 966 877 1075 853 1141 830 C 1207 806 1259 778 1297 744 C 1335 710 1364 669 1383 621 C 1401 573 1411 516 1411 451 C 1411 285 1358 165 1252 90 C 1146 14 980 -23 754 -23 Z" unicode="Ѕ" />
<glyph horiz-adv-x="649" d="M 180 1518 L 469 1518 L 469 0 L 180 0 L 180 1518 Z" unicode="І" />
<glyph horiz-adv-x="649" d="M 180 1518 L 469 1518 L 469 0 L 180 0 L 180 1518 Z M -28 1874 L 226 1874 L 226 1610 L -28 1610 L -28 1874 Z M 429 1874 L 680 1874 L 680 1610 L 429 1610 L 429 1874 Z" unicode="Ї" />
<glyph horiz-adv-x="903" d="M 256 -4 L 184 -4 C 127 -4 82 -2 49 0 L 49 260 L 221 260 C 309 260 371 276 409 308 C 446 340 465 397 465 479 L 465 1518 L 754 1518 L 754 469 C 754 307 715 188 637 111 C 559 34 432 -4 256 -4 Z" unicode="Ј" />
<glyph horiz-adv-x="2650" d="M 86 260 L 127 260 C 173 260 204 267 220 283 C 236 298 244 332 244 385 L 244 1518 L 1565 1518 L 1565 1010 L 1991 1010 C 2190 1010 2337 971 2432 894 C 2526 817 2574 692 2574 518 C 2574 337 2525 205 2427 123 C 2329 41 2180 0 1978 0 L 1280 0 L 1280 1251 L 537 1251 L 537 334 C 537 215 512 129 464 76 C 416 22 337 -4 227 -4 C 195 -4 168 -3 145 -1 C 122 0 102 2 86 4 L 86 260 Z M 1991 250 C 2095 250 2170 269 2216 309 C 2261 349 2284 414 2284 504 C 2284 595 2262 660 2218 698 C 2174 736 2097 756 1987 756 L 1565 756 L 1565 250 L 1991 250 Z" unicode="Љ" />
<glyph horiz-adv-x="2568" d="M 160 1518 L 451 1518 L 451 922 L 1200 922 L 1200 1518 L 1483 1518 L 1483 1010 L 1911 1010 C 2110 1010 2257 971 2352 893 C 2446 815 2494 690 2494 518 C 2494 338 2445 207 2348 124 C 2250 41 2100 0 1898 0 L 1200 0 L 1200 643 L 451 643 L 451 0 L 160 0 L 160 1518 Z M 1911 250 C 2015 250 2090 269 2135 309 C 2179 349 2202 414 2202 504 C 2202 596 2180 661 2137 699 C 2093 737 2016 756 1905 756 L 1483 756 L 1483 250 L 1911 250 Z" unicode="Њ" />
<glyph horiz-adv-x="1804" d="M 573 1247 L 37 1247 L 37 1518 L 1403 1518 L 1403 1247 L 866 1247 L 866 934 C 928 1007 1053 1044 1239 1044 C 1341 1044 1422 1027 1484 995 C 1545 963 1590 914 1618 849 C 1646 784 1661 689 1661 565 L 1661 0 L 1368 0 L 1368 510 C 1368 591 1361 647 1347 679 C 1333 710 1310 734 1279 750 C 1247 766 1202 774 1143 774 C 1075 774 1021 765 981 747 C 941 729 911 701 893 665 C 875 629 866 573 866 498 L 866 0 L 573 0 L 573 1247 Z" unicode="Ћ" />
<glyph horiz-adv-x="1534" d="M 858 1964 L 1196 1964 L 815 1602 L 566 1602 L 858 1964 Z M 162 1518 L 449 1518 L 449 940 L 618 940 L 1073 1518 L 1407 1518 L 857 839 L 1481 0 L 1139 0 L 633 686 L 449 686 L 449 0 L 162 0 L 162 1518 Z" unicode="Ќ" />
<glyph horiz-adv-x="1460" d="M 31 1518 L 344 1518 L 769 665 L 1155 1518 L 1450 1518 L 860 279 C 816 189 777 126 745 92 C 712 58 673 33 628 18 C 582 3 523 -4 449 -4 L 285 0 L 285 252 L 399 252 C 463 252 505 258 527 270 C 548 282 566 307 582 344 L 602 391 L 31 1518 Z M 727 1573 C 642 1573 572 1586 516 1612 C 460 1638 415 1676 382 1727 C 348 1777 321 1853 301 1954 L 504 1993 C 518 1935 533 1894 550 1869 C 567 1843 590 1824 618 1812 C 646 1800 683 1794 727 1794 C 771 1794 808 1800 837 1812 C 865 1824 888 1842 905 1867 C 921 1892 936 1934 950 1993 L 1155 1956 C 1133 1854 1106 1778 1072 1727 C 1038 1675 992 1637 936 1611 C 880 1585 810 1573 727 1573 Z" unicode="Ў" />
<glyph horiz-adv-x="1642" d="M 676 0 L 160 0 L 160 1518 L 451 1518 L 451 254 L 1194 254 L 1194 1518 L 1483 1518 L 1483 0 L 969 0 L 969 -340 L 676 -340 L 676 0 Z" unicode="Џ" />
<glyph horiz-adv-x="1583" d="M 643 1528 L 940 1528 L 1550 0 L 1249 0 L 1143 270 L 428 270 L 322 0 L 35 0 L 643 1528 Z M 1047 524 L 784 1182 L 524 524 L 1047 524 Z" unicode="А" />
<glyph horiz-adv-x="1534" d="M 160 1518 L 1268 1518 L 1268 1247 L 436 1247 L 436 967 L 872 967 C 1078 967 1226 931 1317 859 C 1408 787 1454 667 1454 500 C 1454 378 1433 282 1391 211 C 1349 140 1285 87 1197 52 C 1109 17 996 0 858 0 L 160 0 L 160 1518 Z M 870 248 C 982 248 1058 265 1100 301 C 1142 336 1163 397 1163 483 C 1163 543 1154 590 1136 623 C 1118 656 1089 680 1049 694 C 1009 708 948 715 866 715 L 436 715 L 436 248 L 870 248 Z" unicode="Б" />
<glyph horiz-adv-x="1520" d="M 160 1518 L 852 1518 C 1046 1518 1187 1487 1274 1426 C 1361 1365 1405 1267 1405 1133 C 1405 1043 1388 970 1354 914 C 1320 858 1268 817 1196 793 C 1281 772 1344 732 1384 674 C 1424 616 1444 531 1444 420 C 1444 270 1398 162 1306 97 C 1214 32 1061 0 846 0 L 160 0 L 160 1518 Z M 879 250 C 973 250 1042 265 1085 295 C 1127 325 1149 376 1149 446 C 1149 516 1128 566 1086 596 C 1044 626 975 641 877 641 L 446 641 L 446 250 L 879 250 Z M 862 901 C 947 901 1009 915 1049 943 C 1088 971 1108 1020 1108 1090 C 1108 1152 1088 1197 1050 1224 C 1011 1250 948 1264 862 1264 L 446 1264 L 446 901 L 862 901 Z" unicode="В" />
<glyph horiz-adv-x="1251" d="M 160 1518 L 1214 1518 L 1214 1247 L 451 1247 L 451 0 L 160 0 L 160 1518 Z" unicode="Г" />
<glyph horiz-adv-x="1823" d="M 90 260 L 137 260 C 185 260 217 268 233 284 C 248 300 256 334 256 385 L 256 1518 L 1577 1518 L 1577 260 L 1735 260 L 1735 -340 L 1440 -340 L 1440 0 L 381 0 L 381 -340 L 90 -340 L 90 260 Z M 1284 252 L 1284 1251 L 543 1251 L 543 375 C 543 349 541 326 538 304 C 535 282 525 265 508 252 L 1284 252 Z" unicode="Д" />
<glyph horiz-adv-x="1382" d="M 160 1518 L 1266 1518 L 1266 1247 L 451 1247 L 451 909 L 1245 909 L 1245 645 L 451 645 L 451 262 L 1274 262 L 1274 0 L 160 0 L 160 1518 Z" unicode="Е" />
<glyph horiz-adv-x="2468" d="M 401 0 L 59 0 L 683 839 L 133 1518 L 467 1518 L 922 940 L 1094 940 L 1094 1518 L 1374 1518 L 1374 940 L 1546 940 L 2001 1518 L 2335 1518 L 1786 838 L 2408 0 L 2066 0 L 1561 684 L 1374 684 L 1374 0 L 1094 0 L 1094 684 L 906 684 L 401 0 Z" unicode="Ж" />
<glyph horiz-adv-x="1436" d="M 709 -25 C 567 -25 442 -11 332 14 C 222 40 123 81 35 135 L 174 371 C 336 281 510 236 696 236 C 809 236 889 242 935 256 C 981 269 1014 291 1035 322 C 1056 352 1067 397 1067 457 C 1067 515 1054 558 1030 587 C 1005 615 965 636 909 649 C 853 661 774 668 670 668 L 315 668 L 315 924 L 666 924 C 801 924 894 938 946 966 C 998 994 1024 1042 1024 1112 C 1024 1154 1014 1187 994 1211 C 974 1235 942 1252 899 1263 C 855 1274 786 1280 690 1280 C 607 1280 521 1269 431 1249 C 341 1228 272 1203 223 1174 L 72 1403 C 142 1445 237 1479 356 1504 C 474 1529 594 1542 715 1542 C 921 1542 1073 1512 1171 1453 C 1268 1393 1317 1302 1317 1180 C 1317 1078 1303 1002 1277 951 C 1250 900 1201 860 1130 831 C 1192 808 1239 781 1270 751 C 1301 721 1323 682 1337 634 C 1351 586 1358 520 1358 438 C 1358 280 1304 163 1198 88 C 1092 12 929 -25 709 -25 Z" unicode="З" />
<glyph horiz-adv-x="1663" d="M 160 1518 L 438 1518 L 438 500 L 1190 1518 L 1503 1518 L 1503 0 L 1227 0 L 1227 1081 L 428 0 L 160 0 L 160 1518 Z" unicode="И" />
<glyph horiz-adv-x="1663" d="M 160 1518 L 438 1518 L 438 500 L 1190 1518 L 1503 1518 L 1503 0 L 1227 0 L 1227 1081 L 428 0 L 160 0 L 160 1518 Z M 827 1573 C 742 1573 672 1586 616 1612 C 560 1638 515 1676 482 1727 C 448 1777 421 1853 401 1954 L 604 1993 C 618 1935 633 1894 650 1869 C 667 1843 690 1824 718 1812 C 746 1800 783 1794 827 1794 C 871 1794 908 1800 937 1812 C 965 1824 988 1842 1005 1867 C 1021 1892 1036 1934 1050 1993 L 1255 1956 C 1233 1854 1206 1778 1172 1727 C 1138 1675 1092 1637 1036 1611 C 980 1585 910 1573 827 1573 Z" unicode="Й" />
<glyph horiz-adv-x="1540" d="M 162 1518 L 449 1518 L 449 940 L 618 940 L 1073 1518 L 1407 1518 L 857 839 L 1481 0 L 1139 0 L 633 686 L 449 686 L 449 0 L 162 0 L 162 1518 Z" unicode="К" />
<glyph horiz-adv-x="1737" d="M 90 260 L 133 260 C 179 260 210 268 226 284 C 242 300 250 333 250 385 L 250 1518 L 1577 1518 L 1577 0 L 1284 0 L 1284 1251 L 541 1251 L 541 334 C 541 215 516 129 468 76 C 420 22 341 -4 231 -4 C 199 -4 172 -3 150 -1 C 128 0 108 2 90 4 L 90 260 Z" unicode="Л" />
<glyph horiz-adv-x="1970" d="M 160 1518 L 541 1518 L 987 418 L 1434 1518 L 1810 1518 L 1810 0 L 1526 0 L 1526 1059 L 1092 0 L 862 0 L 430 1055 L 430 0 L 160 0 L 160 1518 Z" unicode="М" />
<glyph horiz-adv-x="1651" d="M 160 1518 L 451 1518 L 451 922 L 1200 922 L 1200 1518 L 1491 1518 L 1491 0 L 1200 0 L 1200 643 L 451 643 L 451 0 L 160 0 L 160 1518 Z" unicode="Н" />
<glyph horiz-adv-x="1737" d="M 868 -25 C 340 -25 76 236 76 760 C 76 1281 340 1542 868 1542 C 1398 1542 1663 1281 1663 760 C 1663 236 1398 -25 868 -25 Z M 868 240 C 1037 240 1163 282 1245 366 C 1327 450 1368 580 1368 756 C 1368 930 1327 1059 1245 1143 C 1163 1227 1037 1270 868 1270 C 698 1270 572 1227 491 1143 C 409 1058 369 929 369 756 C 369 581 409 451 490 367 C 571 282 697 240 868 240 Z" unicode="О" />
<glyph horiz-adv-x="1642" d="M 160 1518 L 1483 1518 L 1483 0 L 1192 0 L 1192 1251 L 446 1251 L 446 0 L 160 0 L 160 1518 Z" unicode="П" />
<glyph horiz-adv-x="1530" d="M 160 1518 L 872 1518 C 1070 1518 1216 1479 1311 1401 C 1406 1323 1454 1196 1454 1022 C 1454 840 1405 706 1307 620 C 1209 534 1059 492 858 492 L 444 492 L 444 0 L 160 0 L 160 1518 Z M 870 748 C 974 748 1049 768 1095 809 C 1140 850 1163 916 1163 1008 C 1163 1100 1140 1166 1096 1204 C 1052 1242 975 1262 866 1262 L 444 1262 L 444 748 L 870 748 Z" unicode="Р" />
<glyph horiz-adv-x="1536" d="M 848 -23 C 586 -23 392 40 266 168 C 139 295 76 492 76 760 C 76 1020 142 1216 275 1346 C 407 1476 604 1542 864 1542 C 988 1542 1097 1525 1191 1491 C 1285 1457 1369 1403 1444 1329 L 1239 1124 C 1191 1170 1136 1206 1076 1232 C 1016 1257 944 1270 862 1270 C 692 1270 567 1226 488 1140 C 408 1054 369 926 369 758 C 369 580 409 450 490 368 C 570 285 695 244 864 244 C 920 244 969 249 1013 259 C 1056 269 1095 283 1130 302 C 1165 321 1207 353 1255 397 L 1454 205 C 1372 121 1283 62 1186 28 C 1089 -5 976 -23 848 -23 Z" unicode="С" />
<glyph horiz-adv-x="1438" d="M 573 1247 L 37 1247 L 37 1518 L 1403 1518 L 1403 1247 L 866 1247 L 866 0 L 573 0 L 573 1247 Z" unicode="Т" />
<glyph horiz-adv-x="1460" d="M 31 1518 L 344 1518 L 769 665 L 1155 1518 L 1450 1518 L 860 279 C 816 189 777 126 745 92 C 712 58 673 33 628 18 C 582 3 523 -4 449 -4 L 285 0 L 285 252 L 399 252 C 463 252 505 258 527 270 C 548 282 566 307 582 344 L 602 391 L 31 1518 Z" unicode="У" />
<glyph horiz-adv-x="1898" d="M 805 1518 L 1096 1518 L 1096 1419 C 1338 1400 1520 1335 1642 1223 C 1764 1111 1825 956 1825 760 C 1825 562 1763 408 1641 296 C 1519 184 1337 118 1096 100 L 1096 0 L 805 0 L 805 100 C 561 118 379 183 258 295 C 136 407 76 562 76 760 C 76 958 136 1112 258 1224 C 380 1335 562 1400 805 1419 L 805 1518 Z M 369 756 C 369 637 406 545 481 479 C 556 413 664 373 805 359 L 805 1150 C 658 1133 549 1092 477 1028 C 405 963 369 872 369 756 Z M 1530 756 C 1530 872 1494 963 1422 1028 C 1350 1092 1242 1133 1096 1150 L 1096 359 C 1385 392 1530 524 1530 756 Z" unicode="Ф" />
<glyph horiz-adv-x="1563" d="M 117 1518 L 442 1518 L 792 1017 L 1126 1518 L 1450 1518 L 944 800 L 1503 0 L 1174 0 L 770 580 L 385 0 L 61 0 L 618 797 L 117 1518 Z" unicode="Х" />
<glyph horiz-adv-x="1735" d="M 1352 0 L 160 0 L 160 1518 L 451 1518 L 451 254 L 1194 254 L 1194 1518 L 1483 1518 L 1483 260 L 1645 260 L 1645 -340 L 1352 -340 L 1352 0 Z" unicode="Ц" />
<glyph horiz-adv-x="1577" d="M 1126 549 C 1094 508 1036 477 950 455 C 864 433 762 422 643 422 C 519 422 418 439 342 474 C 265 508 209 560 173 629 C 137 697 119 793 119 915 L 119 1518 L 408 1518 L 408 977 C 408 901 418 844 440 806 C 461 768 495 739 542 721 C 589 703 655 694 739 694 C 831 694 905 704 962 725 C 1018 746 1060 777 1086 819 C 1112 860 1126 918 1126 993 L 1126 1518 L 1417 1518 L 1417 0 L 1126 0 L 1126 549 Z" unicode="Ч" />
<glyph horiz-adv-x="2460" d="M 160 1534 L 451 1534 L 451 254 L 1083 254 L 1083 1534 L 1378 1534 L 1378 254 L 2011 254 L 2011 1534 L 2300 1534 L 2300 0 L 160 0 L 160 1534 Z" unicode="Ш" />
<glyph horiz-adv-x="2548" d="M 2167 0 L 160 0 L 160 1534 L 451 1534 L 451 254 L 1083 254 L 1083 1534 L 1378 1534 L 1378 254 L 2011 254 L 2011 1534 L 2300 1534 L 2300 260 L 2460 260 L 2460 -340 L 2167 -340 L 2167 0 Z" unicode="Щ" />
<glyph horiz-adv-x="1610" d="M 240 1247 L 80 1247 L 80 1518 L 524 1518 L 524 1010 L 952 1010 C 1152 1010 1299 971 1393 894 C 1487 816 1534 691 1534 518 C 1534 337 1485 205 1387 123 C 1289 41 1140 0 938 0 L 240 0 L 240 1247 Z M 950 250 C 1056 250 1131 269 1176 309 C 1220 349 1243 414 1243 504 C 1243 596 1221 661 1178 699 C 1134 737 1057 756 946 756 L 524 756 L 524 250 L 950 250 Z" unicode="Ъ" />
<glyph horiz-adv-x="2034" d="M 160 1518 L 444 1518 L 444 1010 L 872 1010 C 1072 1010 1219 971 1313 894 C 1407 816 1454 691 1454 518 C 1454 337 1405 205 1307 123 C 1209 41 1060 0 858 0 L 160 0 L 160 1518 Z M 870 250 C 976 250 1051 269 1096 309 C 1140 349 1163 414 1163 504 C 1163 596 1141 661 1098 699 C 1054 737 977 756 866 756 L 444 756 L 444 250 L 870 250 Z M 1585 1518 L 1876 1518 L 1876 0 L 1585 0 L 1585 1518 Z" unicode="Ы" />
<glyph horiz-adv-x="1530" d="M 160 1518 L 444 1518 L 444 1010 L 872 1010 C 1072 1010 1219 971 1313 894 C 1407 816 1454 691 1454 518 C 1454 337 1405 205 1307 123 C 1209 41 1060 0 858 0 L 160 0 L 160 1518 Z M 870 250 C 976 250 1051 269 1096 309 C 1140 349 1163 414 1163 504 C 1163 596 1141 661 1098 699 C 1054 737 977 756 866 756 L 444 756 L 444 250 L 870 250 Z" unicode="Ь" />
<glyph horiz-adv-x="1532" d="M 367 643 L 367 903 L 1159 903 C 1114 1147 952 1270 674 1270 C 520 1270 393 1221 293 1124 L 92 1329 C 234 1471 432 1542 688 1542 C 939 1542 1130 1476 1261 1344 C 1392 1212 1458 1017 1458 760 C 1458 494 1394 297 1268 169 C 1141 41 948 -23 688 -23 C 560 -23 447 -5 349 29 C 251 63 162 122 82 205 L 274 399 C 337 339 401 298 466 276 C 530 254 604 244 688 244 C 972 244 1130 377 1164 643 L 367 643 Z" unicode="Э" />
<glyph horiz-adv-x="2355" d="M 160 1518 L 451 1518 L 451 911 L 714 911 C 737 1121 812 1279 940 1384 C 1067 1489 1249 1542 1485 1542 C 2015 1542 2281 1281 2281 760 C 2281 236 2015 -25 1485 -25 C 1241 -25 1055 31 928 143 C 800 255 728 422 711 645 L 451 645 L 451 0 L 160 0 L 160 1518 Z M 1485 240 C 1654 240 1780 281 1862 365 C 1944 448 1985 578 1985 756 C 1985 931 1944 1060 1862 1144 C 1780 1228 1655 1270 1485 1270 C 1315 1270 1190 1227 1109 1143 C 1027 1059 987 930 987 756 C 987 581 1027 451 1108 367 C 1189 282 1315 240 1485 240 Z" unicode="Ю" />
<glyph horiz-adv-x="1554" d="M 1108 528 L 738 528 L 442 0 L 129 0 L 443 557 C 220 619 109 778 109 1034 C 109 1206 155 1329 248 1405 C 341 1480 486 1518 682 1518 L 1395 1518 L 1395 0 L 1108 0 L 1108 528 Z M 1108 786 L 1108 1262 L 692 1262 C 583 1262 507 1243 465 1206 C 422 1169 401 1108 401 1022 C 401 939 422 879 465 842 C 508 804 582 786 688 786 L 1108 786 Z" unicode="Я" />
<glyph horiz-adv-x="1309" d="M 487 -20 C 387 -20 306 -7 244 18 C 182 44 136 81 106 131 C 76 180 61 248 61 336 C 61 441 84 523 130 582 C 176 640 250 683 352 709 C 454 735 606 748 807 748 L 859 748 C 857 802 849 841 833 863 C 817 885 792 901 757 912 C 722 922 673 928 610 928 C 496 928 385 895 276 831 L 135 1042 C 189 1080 264 1113 358 1140 C 452 1166 546 1180 641 1180 C 767 1180 865 1166 935 1138 C 1004 1110 1053 1066 1083 1006 C 1113 946 1128 851 1128 721 L 1128 352 C 1128 300 1133 268 1145 256 C 1157 244 1186 238 1233 238 L 1233 4 C 1218 -1 1179 -4 1116 -4 C 1051 -4 1004 4 975 22 C 945 39 922 70 905 115 C 837 25 698 -20 487 -20 Z M 328 358 C 328 306 344 268 376 246 C 408 224 463 213 541 213 C 652 213 733 234 784 278 C 834 321 860 391 860 487 L 860 539 L 825 539 C 753 539 690 537 638 535 C 560 532 499 525 454 513 C 409 501 377 484 357 462 C 337 440 328 405 328 358 Z" unicode="а" />
<glyph horiz-adv-x="1341" d="M 672 -23 C 466 -23 315 28 221 130 C 127 232 80 395 80 618 L 80 815 C 80 1005 101 1156 145 1268 C 189 1380 257 1461 350 1512 C 443 1563 576 1589 748 1589 L 944 1589 L 944 1335 L 762 1335 C 620 1335 518 1307 455 1251 C 391 1195 360 1107 360 985 C 422 1077 553 1124 754 1124 C 869 1124 964 1104 1038 1066 C 1112 1028 1168 967 1206 884 C 1243 801 1262 687 1262 543 C 1262 165 1065 -23 672 -23 Z M 672 223 C 775 223 852 249 903 301 C 953 353 979 437 979 551 C 979 662 954 743 905 794 C 856 844 778 870 672 870 C 564 870 485 844 435 794 C 385 743 360 662 360 551 C 360 438 385 355 437 302 C 488 249 566 223 672 223 Z" unicode="б" />
<glyph horiz-adv-x="1313" d="M 135 1153 L 721 1153 C 891 1153 1011 1131 1081 1087 C 1151 1043 1186 972 1186 872 C 1186 796 1174 736 1150 693 C 1126 649 1088 619 1036 602 C 1100 587 1146 558 1174 514 C 1202 470 1217 405 1217 317 C 1217 237 1201 175 1169 130 C 1137 84 1086 51 1018 31 C 950 10 849 0 715 0 L 135 0 L 135 1153 Z M 743 225 C 820 225 873 234 901 254 C 929 273 944 306 944 354 C 944 400 928 432 897 450 C 866 468 813 477 739 477 L 399 477 L 399 225 L 743 225 Z M 727 694 C 795 694 844 703 872 721 C 900 739 915 769 915 813 C 915 853 902 881 876 897 C 850 913 800 922 727 922 L 399 922 L 399 694 L 727 694 Z" unicode="в" />
<glyph horiz-adv-x="1092" d="M 135 1153 L 1044 1153 L 1044 907 L 416 907 L 416 0 L 135 0 L 135 1153 Z" unicode="г" />
<glyph horiz-adv-x="1567" d="M 86 240 L 127 240 C 174 240 205 248 221 264 C 236 280 244 315 244 367 L 244 1153 L 1323 1153 L 1323 240 L 1481 240 L 1481 -340 L 1221 -340 L 1221 0 L 348 0 L 348 -340 L 86 -340 L 86 240 Z M 1049 225 L 1049 913 L 524 913 L 524 348 C 524 316 521 290 516 272 C 511 253 502 237 489 225 L 1049 225 Z" unicode="д" />
<glyph horiz-adv-x="1255" d="M 668 -23 C 538 -23 429 -2 341 37 C 253 77 187 141 144 228 C 101 315 80 432 80 580 C 80 788 127 940 223 1036 C 319 1132 466 1180 666 1180 C 748 1180 818 1171 876 1153 C 934 1135 981 1109 1019 1077 C 1057 1045 1086 1006 1108 961 C 1129 915 1145 863 1155 805 C 1165 746 1170 664 1170 560 L 1169 467 L 351 467 C 358 377 387 312 438 272 C 488 231 565 211 668 211 C 744 211 810 219 867 236 C 924 253 978 281 1030 319 L 1176 131 C 1104 76 1028 37 950 13 C 872 -11 778 -23 668 -23 Z M 909 686 C 905 761 894 814 878 846 C 861 877 835 900 800 916 C 765 932 717 940 657 940 C 561 940 489 920 441 881 C 392 842 362 777 352 686 L 909 686 Z" unicode="е" />
<glyph horiz-adv-x="1898" d="M 1087 0 L 811 0 L 811 492 L 687 492 L 346 0 L 20 0 L 471 626 L 57 1153 L 379 1153 L 690 737 L 811 737 L 811 1153 L 1087 1153 L 1087 737 L 1208 737 L 1520 1153 L 1841 1153 L 1427 626 L 1878 0 L 1552 0 L 1211 492 L 1087 492 L 1087 0 Z" unicode="ж" />
<glyph horiz-adv-x="1221" d="M 586 -25 C 352 -25 167 16 31 98 L 152 309 C 272 243 405 211 551 211 C 647 211 712 215 747 223 C 781 231 806 245 820 265 C 834 285 842 315 842 356 C 842 398 833 428 816 446 C 798 463 768 475 725 482 C 681 488 616 492 530 492 L 272 492 L 272 721 L 526 721 C 622 721 687 724 720 730 C 752 736 775 747 788 763 C 800 779 807 804 807 838 C 807 879 791 907 759 921 C 727 935 655 942 545 942 C 482 942 418 935 352 921 C 286 907 233 888 193 866 L 57 1071 C 112 1103 189 1129 288 1149 C 386 1169 488 1180 592 1180 C 774 1180 903 1157 979 1113 C 1055 1069 1094 998 1094 901 C 1094 823 1082 763 1060 723 C 1038 682 999 652 944 633 C 1009 617 1055 587 1083 543 C 1110 498 1124 428 1124 332 C 1124 246 1105 178 1069 126 C 1032 74 976 35 902 11 C 827 -12 722 -25 586 -25 Z" unicode="з" />
<glyph horiz-adv-x="1356" d="M 135 1153 L 408 1153 L 408 453 L 922 1153 L 1223 1153 L 1223 0 L 948 0 L 948 766 L 389 0 L 135 0 L 135 1153 Z" unicode="и" />
<glyph horiz-adv-x="1356" d="M 135 1153 L 408 1153 L 408 453 L 922 1153 L 1223 1153 L 1223 0 L 948 0 L 948 766 L 389 0 L 135 0 L 135 1153 Z M 676 1237 C 591 1237 521 1250 465 1276 C 409 1302 364 1340 331 1391 C 297 1441 270 1517 250 1618 L 453 1657 C 467 1599 482 1558 499 1533 C 516 1507 539 1488 567 1476 C 595 1464 632 1458 676 1458 C 720 1458 757 1464 786 1476 C 814 1488 837 1506 854 1531 C 870 1556 885 1598 899 1657 L 1104 1620 C 1082 1518 1055 1442 1021 1391 C 987 1339 941 1301 885 1275 C 829 1249 759 1237 676 1237 Z" unicode="й" />
<glyph horiz-adv-x="1223" d="M 412 0 L 135 0 L 135 1153 L 412 1153 L 412 737 L 532 737 L 844 1153 L 1165 1153 L 751 626 L 1202 0 L 877 0 L 535 492 L 412 492 L 412 0 Z" unicode="к" />
<glyph horiz-adv-x="1460" d="M 86 240 L 127 240 C 176 240 209 248 225 266 C 241 283 250 317 250 367 L 250 1153 L 1327 1153 L 1327 0 L 1049 0 L 1049 913 L 524 913 L 524 334 C 524 212 501 126 455 74 C 409 22 333 -4 227 -4 C 195 -4 168 -3 145 -1 C 122 0 102 2 86 4 L 86 240 Z" unicode="л" />
<glyph horiz-adv-x="1638" d="M 135 1153 L 487 1153 L 827 360 L 1167 1153 L 1518 1153 L 1518 0 L 1239 0 L 1239 735 L 932 0 L 702 0 L 397 737 L 397 0 L 135 0 L 135 1153 Z" unicode="м" />
<glyph horiz-adv-x="1352" d="M 135 1153 L 416 1153 L 416 725 L 936 725 L 936 1153 L 1217 1153 L 1217 0 L 936 0 L 936 469 L 416 469 L 416 0 L 135 0 L 135 1153 Z" unicode="н" />
<glyph horiz-adv-x="1339" d="M 670 -23 C 469 -23 320 25 224 123 C 128 221 80 373 80 580 C 80 786 128 937 224 1034 C 320 1131 469 1180 670 1180 C 872 1180 1020 1131 1116 1034 C 1212 937 1260 786 1260 580 C 1260 373 1212 221 1116 123 C 1020 25 871 -23 670 -23 Z M 670 223 C 776 223 854 250 904 304 C 954 358 979 447 979 571 C 979 693 954 782 905 837 C 855 892 777 920 670 920 C 564 920 485 892 435 838 C 385 784 360 695 360 571 C 360 448 385 359 435 305 C 485 250 563 223 670 223 Z" unicode="о" />
<glyph horiz-adv-x="1348" d="M 135 1153 L 1212 1153 L 1212 0 L 934 0 L 934 913 L 412 913 L 412 0 L 135 0 L 135 1153 Z" unicode="п" />
<glyph horiz-adv-x="1378" d="M 135 1137 L 352 1153 L 377 1047 C 412 1093 465 1126 535 1148 C 605 1169 695 1180 807 1180 C 971 1180 1094 1132 1176 1037 C 1257 942 1298 790 1298 580 C 1298 371 1255 219 1171 124 C 1087 29 960 -18 791 -18 C 692 -18 612 -8 551 10 C 490 28 445 58 416 98 L 416 -338 L 135 -338 L 135 1137 Z M 737 225 C 833 225 904 251 949 304 C 993 357 1016 445 1016 569 C 1016 696 993 786 949 840 C 904 893 833 920 737 920 C 621 920 539 893 490 839 C 440 785 416 695 416 569 C 416 441 440 351 488 301 C 536 250 619 225 737 225 Z" unicode="р" />
<glyph horiz-adv-x="1190" d="M 659 -20 C 529 -20 421 0 336 41 C 251 81 187 145 144 232 C 101 318 80 434 80 580 C 80 726 101 842 145 929 C 188 1015 254 1079 342 1119 C 430 1159 540 1180 672 1180 C 867 1180 1018 1119 1126 997 L 928 809 C 886 850 846 878 806 894 C 766 910 721 918 672 918 C 565 918 486 891 436 839 C 385 786 360 697 360 571 C 360 445 385 355 435 302 C 485 249 565 223 674 223 C 728 223 775 231 815 248 C 855 264 897 294 942 336 L 1124 162 C 1051 94 980 46 912 20 C 843 -6 759 -20 659 -20 Z" unicode="с" />
<glyph horiz-adv-x="1192" d="M 457 907 L 49 907 L 49 1153 L 1145 1153 L 1145 907 L 737 907 L 737 0 L 457 0 L 457 907 Z" unicode="т" />
<glyph horiz-adv-x="1169" d="M 4 1153 L 303 1153 L 595 361 L 879 1153 L 1167 1153 L 696 -68 C 656 -175 604 -248 541 -287 C 478 -326 388 -346 270 -346 L 217 -346 L 160 -344 L 160 -127 L 246 -127 C 305 -127 346 -121 370 -110 C 393 -98 411 -74 424 -37 L 445 21 L 4 1153 Z" unicode="у" />
<glyph horiz-adv-x="2193" d="M 963 100 C 927 60 878 30 817 10 C 756 -10 676 -20 578 -20 C 410 -20 285 28 203 126 C 121 223 80 376 80 584 C 80 790 122 941 207 1037 C 291 1132 418 1180 588 1180 C 688 1180 769 1170 829 1151 C 889 1132 933 1103 963 1063 L 963 1589 L 1229 1589 L 1229 1061 C 1259 1101 1306 1130 1370 1150 C 1433 1170 1517 1180 1622 1180 C 1788 1180 1911 1132 1992 1036 C 2073 940 2114 788 2114 580 C 2114 371 2071 219 1987 124 C 1903 29 1776 -18 1606 -18 C 1507 -18 1427 -8 1366 10 C 1305 28 1259 58 1229 98 L 1229 -338 L 963 -338 L 963 100 Z M 643 225 C 759 225 841 252 890 308 C 938 364 963 456 963 584 C 963 672 953 739 933 786 C 913 833 880 867 835 889 C 789 911 725 922 643 922 C 546 922 475 896 430 845 C 384 794 362 707 362 584 C 362 454 384 362 430 307 C 476 252 547 225 643 225 Z M 1552 225 C 1648 225 1719 251 1764 304 C 1808 357 1831 445 1831 569 C 1831 696 1808 786 1763 840 C 1717 893 1647 920 1552 920 C 1436 920 1354 893 1304 840 C 1254 787 1229 697 1229 569 C 1229 480 1239 412 1260 364 C 1281 316 1315 280 1361 258 C 1407 236 1470 225 1552 225 Z" unicode="ф" />
<glyph horiz-adv-x="1198" d="M 57 1153 L 369 1153 L 613 806 L 846 1153 L 1143 1153 L 757 601 L 1180 0 L 866 0 L 586 399 L 317 0 L 18 0 L 442 604 L 57 1153 Z" unicode="х" />
<glyph horiz-adv-x="1458" d="M 1108 0 L 135 0 L 135 1153 L 416 1153 L 416 233 L 936 233 L 936 1153 L 1212 1153 L 1212 240 L 1372 240 L 1372 -340 L 1108 -340 L 1108 0 Z" unicode="ц" />
<glyph horiz-adv-x="1325" d="M 913 393 C 882 351 833 320 766 298 C 699 276 618 266 522 266 C 420 266 338 282 276 315 C 214 348 170 397 142 463 C 114 529 100 624 100 748 L 100 1153 L 381 1153 L 381 803 C 381 727 388 673 404 639 C 419 605 444 579 478 562 C 512 545 559 537 621 537 C 722 537 796 558 842 600 C 888 642 911 715 911 819 L 911 1153 L 1190 1153 L 1190 0 L 913 0 L 913 393 Z" unicode="ч" />
<glyph horiz-adv-x="2089" d="M 135 1153 L 416 1153 L 416 233 L 907 233 L 907 1153 L 1188 1153 L 1188 233 L 1679 233 L 1679 1153 L 1954 1153 L 1954 0 L 135 0 L 135 1153 Z" unicode="ш" />
<glyph horiz-adv-x="2200" d="M 1851 0 L 135 0 L 135 1153 L 416 1153 L 416 233 L 907 233 L 907 1153 L 1188 1153 L 1188 233 L 1679 233 L 1679 1153 L 1954 1153 L 1954 240 L 2114 240 L 2114 -340 L 1851 -340 L 1851 0 Z" unicode="щ" />
<glyph horiz-adv-x="1413" d="M 244 907 L 86 907 L 86 1153 L 522 1153 L 522 858 L 877 858 C 1175 858 1325 718 1325 440 C 1325 294 1286 184 1208 110 C 1130 36 1015 0 864 0 L 244 0 L 244 907 Z M 821 223 C 897 223 953 239 989 271 C 1024 303 1042 355 1042 428 C 1042 501 1025 553 991 584 C 957 615 901 631 821 631 L 522 631 L 522 223 L 821 223 Z" unicode="ъ" />
<glyph horiz-adv-x="1726" d="M 135 1153 L 412 1153 L 412 858 L 766 858 C 1064 858 1214 718 1214 440 C 1214 292 1175 182 1097 109 C 1019 36 906 0 756 0 L 135 0 L 135 1153 Z M 713 223 C 787 223 842 239 878 271 C 914 303 932 355 932 428 C 932 500 914 552 880 584 C 846 615 789 631 709 631 L 412 631 L 412 223 L 713 223 Z M 1313 1153 L 1593 1153 L 1593 0 L 1313 0 L 1313 1153 Z" unicode="ы" />
<glyph horiz-adv-x="1303" d="M 135 1153 L 412 1153 L 412 858 L 766 858 C 1064 858 1214 718 1214 440 C 1214 292 1175 182 1097 109 C 1019 36 906 0 756 0 L 135 0 L 135 1153 Z M 713 223 C 787 223 842 239 878 271 C 914 303 932 355 932 428 C 932 500 914 552 880 584 C 846 615 789 631 709 631 L 412 631 L 412 223 L 713 223 Z" unicode="ь" />
<glyph horiz-adv-x="1190" d="M 285 465 L 285 692 L 828 692 C 815 778 784 839 736 876 C 687 913 615 932 520 932 C 468 932 419 921 373 899 C 327 877 288 847 256 809 L 66 997 C 170 1119 323 1180 524 1180 C 662 1180 775 1158 861 1115 C 947 1072 1011 1008 1051 923 C 1091 838 1112 724 1112 580 C 1112 435 1091 320 1051 236 C 1011 151 948 87 863 44 C 777 1 666 -20 530 -20 C 431 -20 346 -6 276 20 C 206 46 134 94 61 162 L 236 332 C 277 292 320 264 365 248 C 409 231 461 223 520 223 C 621 223 695 241 743 278 C 791 314 820 377 830 465 L 285 465 Z" unicode="э" />
<glyph horiz-adv-x="1812" d="M 135 1153 L 416 1153 L 416 719 L 572 719 C 586 829 615 916 660 982 C 704 1048 766 1097 846 1130 C 925 1163 1024 1180 1143 1180 C 1343 1180 1492 1131 1588 1035 C 1684 938 1733 786 1733 580 C 1733 372 1685 219 1589 122 C 1493 25 1344 -23 1143 -23 C 961 -23 823 16 730 96 C 637 175 583 301 569 473 L 416 473 L 416 0 L 135 0 L 135 1153 Z M 1143 223 C 1250 223 1328 250 1378 304 C 1427 358 1452 447 1452 571 C 1452 695 1427 785 1378 839 C 1329 893 1251 920 1143 920 C 1035 920 956 893 908 839 C 860 785 836 696 836 571 C 836 445 860 356 910 303 C 959 249 1037 223 1143 223 Z" unicode="ю" />
<glyph horiz-adv-x="1343" d="M 930 354 L 614 354 L 418 0 L 117 0 L 335 387 C 179 443 102 566 102 756 C 102 888 139 988 214 1054 C 288 1120 406 1153 567 1153 L 1208 1153 L 1208 0 L 930 0 L 930 354 Z M 930 586 L 930 915 L 580 915 C 508 915 457 901 429 875 C 401 849 387 807 387 750 C 387 691 400 649 428 624 C 456 598 505 586 575 586 L 930 586 Z" unicode="я" />
<glyph horiz-adv-x="1255" d="M 270 1538 L 524 1538 L 524 1274 L 270 1274 L 270 1538 Z M 727 1538 L 978 1538 L 978 1274 L 727 1274 L 727 1538 Z M 668 -23 C 538 -23 429 -2 341 37 C 253 77 187 141 144 228 C 101 315 80 432 80 580 C 80 788 127 940 223 1036 C 319 1132 466 1180 666 1180 C 748 1180 818 1171 876 1153 C 934 1135 981 1109 1019 1077 C 1057 1045 1086 1006 1108 961 C 1129 915 1145 863 1155 805 C 1165 746 1170 664 1170 560 L 1169 467 L 351 467 C 358 377 387 312 438 272 C 488 231 565 211 668 211 C 744 211 810 219 867 236 C 924 253 978 281 1030 319 L 1176 131 C 1104 76 1028 37 950 13 C 872 -11 778 -23 668 -23 Z M 909 686 C 905 761 894 814 878 846 C 861 877 835 900 800 916 C 765 932 717 940 657 940 C 561 940 489 920 441 881 C 392 842 362 777 352 686 L 909 686 Z" unicode="ё" />
<glyph horiz-adv-x="1346" d="M 799 -127 L 821 -127 C 865 -127 896 -119 912 -103 C 928 -87 936 -52 938 2 L 938 604 C 938 681 930 736 916 770 C 901 803 877 828 845 845 C 812 861 766 870 707 870 C 637 870 581 860 540 841 C 498 821 468 793 450 755 C 431 717 422 661 422 586 L 422 0 L 143 0 L 143 1214 L -6 1214 L -6 1460 L 143 1460 L 143 1589 L 422 1589 L 422 1460 L 676 1460 L 676 1214 L 422 1214 L 422 1030 C 450 1066 499 1093 567 1111 C 635 1129 714 1139 805 1139 C 902 1139 981 1124 1041 1094 C 1101 1064 1145 1016 1175 950 C 1204 884 1219 787 1219 659 L 1219 -33 C 1219 -150 1192 -231 1139 -277 C 1085 -323 989 -346 850 -346 L 799 -346 L 799 -127 Z" unicode="ђ" />
<glyph horiz-adv-x="1092" d="M 646 1628 L 984 1628 L 603 1266 L 354 1266 L 646 1628 Z M 135 1153 L 1044 1153 L 1044 907 L 416 907 L 416 0 L 135 0 L 135 1153 Z" unicode="ѓ" />
<glyph horiz-adv-x="1190" d="M 659 -20 C 527 -20 419 0 334 40 C 249 80 185 144 143 231 C 101 317 80 434 80 580 C 80 726 101 841 143 927 C 185 1013 249 1076 336 1118 C 423 1159 535 1180 672 1180 C 868 1180 1020 1119 1126 997 L 936 809 C 866 891 778 932 672 932 C 577 932 505 913 456 877 C 407 840 376 778 364 692 L 905 692 L 905 465 L 361 465 C 371 398 387 348 411 316 C 435 284 468 260 511 245 C 554 230 608 223 674 223 C 730 223 779 231 823 248 C 867 264 910 292 952 332 L 1124 162 C 1051 94 980 46 912 20 C 843 -6 759 -20 659 -20 Z" unicode="є" />
<glyph horiz-adv-x="1149" d="M 563 -20 C 349 -20 172 27 31 123 L 174 334 C 235 294 302 265 374 245 C 446 225 516 215 582 215 C 673 215 734 223 766 240 C 797 256 813 288 813 334 C 813 368 799 394 772 410 C 745 426 682 441 584 457 C 435 478 331 502 273 529 C 215 556 171 593 142 641 C 112 689 98 751 98 829 C 98 949 137 1038 216 1095 C 295 1151 418 1180 584 1180 C 675 1180 761 1171 843 1153 C 924 1135 995 1109 1055 1075 L 922 852 C 877 875 825 894 766 908 C 707 922 649 930 592 930 C 516 930 461 922 427 907 C 393 892 377 865 377 827 C 377 791 390 766 416 750 C 442 734 500 720 590 707 C 662 695 728 683 789 671 C 849 658 902 639 946 615 C 990 590 1024 557 1048 515 C 1072 473 1085 418 1085 348 C 1085 214 1044 120 964 64 C 884 8 750 -20 563 -20 Z" unicode="ѕ" />
<glyph horiz-adv-x="571" d="M 147 1153 L 424 1153 L 424 0 L 147 0 L 147 1153 Z M 145 1546 L 426 1546 L 426 1270 L 145 1270 L 145 1546 Z" unicode="і" />
<glyph horiz-adv-x="571" d="M -29 1544 L 199 1544 L 199 1280 L -29 1280 L -29 1544 Z M 375 1544 L 600 1544 L 600 1280 L 375 1280 L 375 1544 Z M 147 1153 L 424 1153 L 424 0 L 147 0 L 147 1153 Z" unicode="ї" />
<glyph horiz-adv-x="571" d="M 6 -127 L 29 -127 C 78 -127 110 -117 125 -98 C 139 -78 147 -36 147 29 L 147 1153 L 424 1153 L 424 31 C 424 -75 413 -153 392 -205 C 370 -256 335 -292 285 -314 C 235 -335 159 -346 57 -346 L 6 -346 L 6 -127 Z M 145 1546 L 426 1546 L 426 1270 L 145 1270 L 145 1546 Z" unicode="ј" />
<glyph horiz-adv-x="2204" d="M 86 240 L 127 240 C 176 240 209 248 225 266 C 241 283 250 317 250 367 L 250 1153 L 1315 1153 L 1315 858 L 1667 858 C 1966 858 2116 718 2116 440 C 2116 294 2077 184 1999 110 C 1921 36 1806 0 1655 0 L 1042 0 L 1042 913 L 524 913 L 524 334 C 524 212 501 126 455 74 C 409 22 333 -4 227 -4 C 195 -4 168 -3 145 -1 C 122 0 102 2 86 4 L 86 240 Z M 1612 223 C 1686 223 1741 239 1777 271 C 1813 303 1831 355 1831 428 C 1831 501 1814 553 1780 584 C 1746 615 1690 631 1610 631 L 1315 631 L 1315 223 L 1612 223 Z" unicode="љ" />
<glyph horiz-adv-x="2093" d="M 135 1153 L 416 1153 L 416 725 L 934 725 L 934 1153 L 1204 1153 L 1204 858 L 1556 858 C 1854 858 2003 718 2003 440 C 2003 292 1964 182 1886 109 C 1808 36 1695 0 1546 0 L 934 0 L 934 469 L 416 469 L 416 0 L 135 0 L 135 1153 Z M 1503 223 C 1577 223 1632 239 1667 271 C 1702 303 1720 355 1720 428 C 1720 501 1703 553 1669 584 C 1635 615 1579 631 1499 631 L 1204 631 L 1204 223 L 1503 223 Z" unicode="њ" />
<glyph horiz-adv-x="1346" d="M -6 1460 L 143 1460 L 143 1589 L 422 1589 L 422 1460 L 676 1460 L 676 1214 L 422 1214 L 422 1030 C 450 1066 499 1093 567 1111 C 635 1129 714 1139 805 1139 C 902 1139 981 1124 1041 1094 C 1101 1064 1145 1016 1175 950 C 1204 884 1219 787 1219 659 L 1219 0 L 938 0 L 938 604 C 938 681 930 736 916 770 C 901 803 877 828 845 845 C 812 861 766 870 707 870 C 637 870 581 860 540 841 C 498 821 468 793 450 755 C 431 717 422 661 422 586 L 422 0 L 143 0 L 143 1214 L -6 1214 L -6 1460 Z" unicode="ћ" />
<glyph horiz-adv-x="1223" d="M 755 1628 L 1093 1628 L 712 1266 L 463 1266 L 755 1628 Z M 412 0 L 135 0 L 135 1153 L 412 1153 L 412 737 L 532 737 L 844 1153 L 1165 1153 L 751 626 L 1202 0 L 877 0 L 535 492 L 412 492 L 412 0 Z" unicode="ќ" />
<glyph horiz-adv-x="1169" d="M 4 1153 L 303 1153 L 595 361 L 879 1153 L 1167 1153 L 696 -68 C 656 -175 604 -248 541 -287 C 478 -326 388 -346 270 -346 L 217 -346 L 160 -344 L 160 -127 L 246 -127 C 305 -127 346 -121 370 -110 C 393 -98 411 -74 424 -37 L 445 21 L 4 1153 Z M 589 1237 C 504 1237 434 1250 378 1276 C 322 1302 277 1340 244 1391 C 210 1441 183 1517 163 1618 L 366 1657 C 380 1599 395 1558 412 1533 C 429 1507 452 1488 480 1476 C 508 1464 545 1458 589 1458 C 633 1458 670 1464 699 1476 C 727 1488 750 1506 767 1531 C 783 1556 798 1598 812 1657 L 1017 1620 C 995 1518 968 1442 934 1391 C 900 1339 854 1301 798 1275 C 742 1249 672 1237 589 1237 Z" unicode="ў" />
<glyph horiz-adv-x="1348" d="M 543 0 L 135 0 L 135 1153 L 416 1153 L 416 233 L 936 233 L 936 1153 L 1212 1153 L 1212 0 L 805 0 L 805 -340 L 543 -340 L 543 0 Z" unicode="џ" />
<glyph horiz-adv-x="1251" d="M 160 1518 L 922 1518 L 922 1858 L 1214 1858 L 1214 1247 L 451 1247 L 451 0 L 160 0 L 160 1518 Z" unicode="Ґ" />
<glyph horiz-adv-x="1092" d="M 135 1153 L 782 1153 L 782 1495 L 1044 1495 L 1044 907 L 416 907 L 416 0 L 135 0 L 135 1153 Z" unicode="ґ" />
<glyph horiz-adv-x="573" d="M 121 907 L 451 907 L 451 561 L 121 561 L 121 907 Z" unicode="∙" />
<glyph horiz-adv-x="1401" d="" unicode="√" />
<glyph horiz-adv-x="1196" d="M 459 864 L 102 864 L 102 1120 L 459 1120 L 459 1589 L 735 1589 L 735 1120 L 1094 1120 L 1094 864 L 735 864 L 735 -340 L 459 -340 L 459 864 Z" unicode="†" />
<glyph horiz-adv-x="1196" d="M 459 156 L 102 156 L 102 414 L 459 414 L 459 864 L 102 864 L 102 1120 L 459 1120 L 459 1589 L 735 1589 L 735 1120 L 1094 1120 L 1094 864 L 735 864 L 735 414 L 1094 414 L 1094 156 L 735 156 L 735 -340 L 459 -340 L 459 156 Z" unicode="‡" />
<glyph horiz-adv-x="772" d="M 188 842 L 586 842 L 586 406 L 188 406 L 188 842 Z" unicode="•" />
<glyph horiz-adv-x="1378" d="" unicode="₫" />
<glyph horiz-adv-x="1442" d="M 66 690 L 298 690 L 297 764 L 297 813 L 66 813 L 66 1024 L 316 1024 C 366 1369 563 1542 907 1542 C 1001 1542 1079 1536 1141 1524 C 1202 1512 1265 1489 1331 1456 L 1204 1221 C 1124 1264 1027 1286 915 1286 C 820 1286 746 1264 693 1220 C 639 1176 604 1111 586 1024 L 1047 1024 L 1047 813 L 565 813 L 565 768 L 566 690 L 1047 690 L 1047 477 L 591 477 C 613 390 650 326 702 284 C 754 242 823 221 911 221 C 1024 221 1122 247 1206 299 L 1341 82 C 1281 45 1216 18 1147 1 C 1078 -16 995 -25 897 -25 C 735 -25 607 15 512 96 C 416 177 352 304 320 477 L 66 477 L 66 690 Z" unicode="€" />
<glyph horiz-adv-x="1645" d="M 121 338 L 451 338 L 451 0 L 121 0 L 121 338 Z M 655 338 L 987 338 L 987 0 L 655 0 L 655 338 Z M 1192 338 L 1524 338 L 1524 0 L 1192 0 L 1192 338 Z" unicode="…" />
<glyph horiz-adv-x="1307" d="" unicode="◊" />
<glyph horiz-adv-x="1704" d="" unicode="" />
<glyph horiz-adv-x="1102" d="" unicode="ℓ" />
<glyph horiz-adv-x="3494" d="M 541 549 C 387 549 271 592 191 678 C 111 764 72 886 72 1044 C 72 1202 112 1325 192 1412 C 272 1498 389 1542 541 1542 C 690 1542 804 1498 883 1411 C 961 1324 1001 1202 1001 1044 C 1001 886 961 764 883 678 C 804 592 690 549 541 549 Z M 541 764 C 610 764 662 786 698 831 C 734 875 752 946 752 1044 C 752 1228 681 1321 541 1321 C 396 1321 324 1228 324 1044 C 324 948 342 877 379 832 C 415 786 469 764 541 764 Z M 1946 -20 C 1794 -20 1679 23 1600 110 C 1520 197 1481 320 1481 479 C 1481 637 1520 759 1600 846 C 1680 933 1795 977 1946 977 C 2095 977 2210 933 2290 847 C 2370 760 2410 637 2410 479 C 2410 319 2370 196 2291 110 C 2211 23 2096 -20 1946 -20 Z M 1946 197 C 2018 197 2071 219 2106 265 C 2141 311 2159 382 2159 479 C 2159 662 2088 754 1946 754 C 1874 754 1820 731 1785 686 C 1750 640 1733 571 1733 479 C 1733 383 1750 312 1785 266 C 1819 220 1873 197 1946 197 Z M 2957 -20 C 2807 -20 2692 23 2613 109 C 2533 195 2494 319 2494 479 C 2494 639 2534 762 2614 848 C 2694 934 2808 977 2957 977 C 3107 977 3222 933 3302 846 C 3382 759 3422 637 3422 479 C 3422 319 3382 196 3303 110 C 3223 23 3108 -20 2957 -20 Z M 2957 197 C 3029 197 3082 219 3118 265 C 3154 310 3172 381 3172 479 C 3172 662 3100 754 2957 754 C 2815 754 2744 662 2744 479 C 2744 383 2761 312 2796 266 C 2831 220 2885 197 2957 197 Z M 1534 1520 L 1796 1520 L 946 0 L 686 0 L 1534 1520 Z" unicode="‰" />
<glyph horiz-adv-x="2218" d="" unicode="Ẁ" />
<glyph horiz-adv-x="1862" d="" unicode="ẁ" />
<glyph horiz-adv-x="2218" d="" unicode="Ẃ" />
<glyph horiz-adv-x="1862" d="" unicode="ẃ" />
<glyph horiz-adv-x="2218" d="" unicode="Ẅ" />
<glyph horiz-adv-x="1862" d="" unicode="ẅ" />
<glyph horiz-adv-x="1583" d="" unicode="Ạ" />
<glyph horiz-adv-x="1309" d="" unicode="ạ" />
<glyph horiz-adv-x="1583" d="" unicode="Ả" />
<glyph horiz-adv-x="1309" d="" unicode="ả" />
<glyph horiz-adv-x="1583" d="" unicode="Ấ" />
<glyph horiz-adv-x="1309" d="" unicode="ấ" />
<glyph horiz-adv-x="1583" d="" unicode="Ầ" />
<glyph horiz-adv-x="1309" d="" unicode="ầ" />
<glyph horiz-adv-x="1583" d="" unicode="Ẩ" />
<glyph horiz-adv-x="1309" d="" unicode="ẩ" />
<glyph horiz-adv-x="1583" d="" unicode="Ẫ" />
<glyph horiz-adv-x="1309" d="" unicode="ẫ" />
<glyph horiz-adv-x="1583" d="" unicode="Ậ" />
<glyph horiz-adv-x="1309" d="" unicode="ậ" />
<glyph horiz-adv-x="1583" d="" unicode="Ắ" />
<glyph horiz-adv-x="1309" d="" unicode="ắ" />
<glyph horiz-adv-x="1583" d="" unicode="Ằ" />
<glyph horiz-adv-x="1309" d="" unicode="ằ" />
<glyph horiz-adv-x="1583" d="" unicode="Ẳ" />
<glyph horiz-adv-x="1309" d="" unicode="ẳ" />
<glyph horiz-adv-x="1583" d="" unicode="Ẵ" />
<glyph horiz-adv-x="1309" d="" unicode="ẵ" />
<glyph horiz-adv-x="1583" d="" unicode="Ặ" />
<glyph horiz-adv-x="1309" d="" unicode="ặ" />
<glyph horiz-adv-x="1382" d="" unicode="Ẹ" />
<glyph horiz-adv-x="1255" d="" unicode="ẹ" />
<glyph horiz-adv-x="1382" d="" unicode="Ẻ" />
<glyph horiz-adv-x="1255" d="" unicode="ẻ" />
<glyph horiz-adv-x="1382" d="" unicode="Ẽ" />
<glyph horiz-adv-x="1255" d="" unicode="ẽ" />
<glyph horiz-adv-x="1382" d="" unicode="Ế" />
<glyph horiz-adv-x="1255" d="" unicode="ế" />
<glyph horiz-adv-x="1382" d="" unicode="Ề" />
<glyph horiz-adv-x="1255" d="" unicode="ề" />
<glyph horiz-adv-x="1382" d="" unicode="Ể" />
<glyph horiz-adv-x="1255" d="" unicode="ể" />
<glyph horiz-adv-x="1382" d="" unicode="Ễ" />
<glyph horiz-adv-x="1255" d="" unicode="ễ" />
<glyph horiz-adv-x="1382" d="" unicode="Ệ" />
<glyph horiz-adv-x="1255" d="" unicode="ệ" />
<glyph horiz-adv-x="649" d="" unicode="Ỉ" />
<glyph horiz-adv-x="571" d="" unicode="ỉ" />
<glyph horiz-adv-x="649" d="" unicode="Ị" />
<glyph horiz-adv-x="571" d="" unicode="ị" />
<glyph horiz-adv-x="1737" d="" unicode="Ọ" />
<glyph horiz-adv-x="1339" d="" unicode="ọ" />
<glyph horiz-adv-x="1737" d="" unicode="Ỏ" />
<glyph horiz-adv-x="1339" d="" unicode="ỏ" />
<glyph horiz-adv-x="1737" d="" unicode="Ố" />
<glyph horiz-adv-x="1339" d="" unicode="ố" />
<glyph horiz-adv-x="1737" d="" unicode="Ồ" />
<glyph horiz-adv-x="1339" d="" unicode="ồ" />
<glyph horiz-adv-x="1737" d="" unicode="Ổ" />
<glyph horiz-adv-x="1339" d="" unicode="ổ" />
<glyph horiz-adv-x="1737" d="" unicode="Ỗ" />
<glyph horiz-adv-x="1339" d="" unicode="ỗ" />
<glyph horiz-adv-x="1737" d="" unicode="Ộ" />
<glyph horiz-adv-x="1339" d="" unicode="ộ" />
<glyph horiz-adv-x="1737" d="" unicode="Ớ" />
<glyph horiz-adv-x="1366" d="" unicode="ớ" />
<glyph horiz-adv-x="1737" d="" unicode="Ờ" />
<glyph horiz-adv-x="1366" d="" unicode="ờ" />
<glyph horiz-adv-x="1737" d="" unicode="Ở" />
<glyph horiz-adv-x="1366" d="" unicode="ở" />
<glyph horiz-adv-x="1737" d="" unicode="Ỡ" />
<glyph horiz-adv-x="1366" d="" unicode="ỡ" />
<glyph horiz-adv-x="1737" d="" unicode="Ợ" />
<glyph horiz-adv-x="1366" d="" unicode="ợ" />
<glyph horiz-adv-x="1653" d="" unicode="Ụ" />
<glyph horiz-adv-x="1323" d="" unicode="ụ" />
<glyph horiz-adv-x="1653" d="" unicode="Ủ" />
<glyph horiz-adv-x="1323" d="" unicode="ủ" />
<glyph horiz-adv-x="1704" d="" unicode="Ứ" />
<glyph horiz-adv-x="1448" d="" unicode="ứ" />
<glyph horiz-adv-x="1704" d="" unicode="Ừ" />
<glyph horiz-adv-x="1448" d="" unicode="ừ" />
<glyph horiz-adv-x="1704" d="" unicode="Ử" />
<glyph horiz-adv-x="1448" d="" unicode="ử" />
<glyph horiz-adv-x="1704" d="" unicode="Ữ" />
<glyph horiz-adv-x="1448" d="" unicode="ữ" />
<glyph horiz-adv-x="1704" d="" unicode="Ự" />
<glyph horiz-adv-x="1448" d="" unicode="ự" />
<glyph horiz-adv-x="1526" d="" unicode="Ỳ" />
<glyph horiz-adv-x="1169" d="" unicode="ỳ" />
<glyph horiz-adv-x="1526" d="" unicode="Ỵ" />
<glyph horiz-adv-x="1169" d="" unicode="ỵ" />
<glyph horiz-adv-x="1526" d="" unicode="Ỷ" />
<glyph horiz-adv-x="1169" d="" unicode="ỷ" />
<glyph horiz-adv-x="1526" d="" unicode="Ỹ" />
<glyph horiz-adv-x="1169" d="" unicode="ỹ" />
<glyph horiz-adv-x="1343" d="" unicode="℮" />
<glyph horiz-adv-x="963" d="M 174 575 L 483 1153 L 735 1153 L 446 575 L 735 0 L 483 0 L 174 575 Z" unicode="‹" />
<glyph horiz-adv-x="963" d="M 518 578 L 229 1153 L 481 1153 L 791 578 L 481 0 L 229 0 L 518 578 Z" unicode="›" />
</font>
</defs>
</svg>
